<?xml version="1.0" standalone="no"?>
<!DOCTYPE svg PUBLIC "-//W3C//DTD SVG 1.1//EN" "http://www.w3.org/Graphics/SVG/1.1/DTD/svg11.dtd" >
<svg xmlns="http://www.w3.org/2000/svg" xmlns:xlink="http://www.w3.org/1999/xlink" version="1.1">
<metadata>
Created by FontForge 20190801 at Tue Feb  1 17:26:51 2022
 By www-data
Copyright 2021 I Wayan Sukanta. All Rights Reserved.
</metadata>
<defs>
<font id="DwitaPatra" horiz-adv-x="0" >
  <font-face 
    font-family="Dwita Patra"
    font-weight="400"
    font-stretch="normal"
    units-per-em="1000"
    panose-1="2 2 5 2 6 5 5 2 2 4"
    ascent="800"
    descent="-200"
    x-height="12"
    cap-height="1058"
    bbox="-1356 -864 3292 1349"
    underline-thickness="50"
    underline-position="-125"
    unicode-range="U+001D-25CC"
  />
<missing-glyph horiz-adv-x="600" 
d="M94 0v714h411v-714h-411zM145 663v-612h309v612h-309z" />
    <glyph glyph-name="signrerekancomb_signcecekcombba" unicode="&#x1b34;&#x1b02;" 
d="M-448 832q0 17 12.5 29t29.5 12q15 0 28 -12t13 -29q0 -19 -13 -30t-28 -11q-17 0 -29.5 11.5t-12.5 29.5zM-514 716q0 17 12.5 29t29.5 12q15 0 28 -12t13 -29q0 -19 -13 -30t-28 -11q-17 0 -29.5 11.5t-12.5 29.5zM-380 716q0 17 12.5 29t29.5 12q15 0 28 -12t13 -29
q0 -19 -13 -30t-28 -11q-17 0 -29.5 11.5t-12.5 29.5zM-52 601q-108 180 -217 243l-57 -68l-16 9l40 191q89 -29 160.5 -136.5t112.5 -227.5z" />
    <glyph glyph-name="signrerekancomb_signsurangcombb" unicode="&#x1b34;&#x1b03;" 
d="M-499 832q0 17 12.5 29t29.5 12q15 0 28 -12t13 -29q0 -19 -13 -30t-28 -11q-17 0 -29.5 11.5t-12.5 29.5zM-565 716q0 17 12.5 29t29.5 12q15 0 28 -12t13 -29q0 -19 -13 -30t-28 -11q-17 0 -29.5 11.5t-12.5 29.5zM-431 716q0 17 12.5 29t29.5 12q15 0 28 -12t13 -29
q0 -19 -13 -30t-28 -11q-17 0 -29.5 11.5t-12.5 29.5zM6 616q-201 -16 -318 95q-101 102 -132 252l71 -13q41 -126 113 -213q92 -108 270 -105z" />
    <glyph glyph-name="signrerekancomb_vowelsignulucom" unicode="&#x1b34;&#x1b36;" 
d="M-733 839q0 17 12.5 29t29.5 12q15 0 28 -12t13 -29q0 -19 -13 -30t-28 -11q-17 0 -29.5 11.5t-12.5 29.5zM-799 723q0 17 12.5 29t29.5 12q15 0 28 -12t13 -29q0 -19 -13 -30t-28 -11q-17 0 -29.5 11.5t-12.5 29.5zM-665 723q0 17 12.5 29t29.5 12q15 0 28 -12t13 -29
q0 -19 -13 -30t-28 -11q-17 0 -29.5 11.5t-12.5 29.5zM-225 605h-6l-12 32q79 71 91 136q7 25 7 51v6q0 92 -97 123q-37 10 -73 10q-108 0 -147 -90q-4 -26 -4 -37q0 -80 101 -191q-8 -36 -12 -36q-203 31 -209 183v18q0 74 41 150l4 1q15 -15 16 -23q-25 -62 -25 -114
l1 -30q4 -82 92 -118l11 -2q-71 87 -74 151v26q0 94 100 150q57 19 114 19q148 0 198 -138q6 -29 6 -60q0 -96 -93 -195z" />
    <glyph glyph-name="signrerekancomb_vowelsignulucom" unicode="&#x1b34;&#x1b36;&#x1b02;" 
d="M-39 608q-27 162 -89 238l-60 -33l-9 11l84 128q56 -47 77 -145.5t17 -197.5zM-351 605h-6l-13 33q85 73 97 139q8 26 8 53v6q0 95 -104 126q-39 11 -77 11q-116 0 -158 -93q-4 -26 -4 -38q0 -82 108 -196q-9 -37 -13 -37q-217 32 -223 188v19q0 75 44 153l4 1
q16 -15 17 -23q-26 -64 -26 -117l1 -31q4 -84 98 -121l12 -2q-76 89 -79 155v26q0 97 106 155q61 19 122 19q158 0 211 -141q6 -30 6 -62q0 -99 -99 -200zM-879 832q0 17 12.5 29t29.5 12q15 0 28 -12t13 -29q0 -19 -13 -30t-28 -11q-17 0 -29.5 11.5t-12.5 29.5zM-945 716
q0 17 12.5 29t29.5 12q15 0 28 -12t13 -29q0 -19 -13 -30t-28 -11q-17 0 -29.5 11.5t-12.5 29.5zM-811 716q0 17 12.5 29t29.5 12q15 0 28 -12t13 -29q0 -19 -13 -30t-28 -11q-17 0 -29.5 11.5t-12.5 29.5z" />
    <glyph glyph-name="signrerekancomb_vowelsignulucom" unicode="&#x1b34;&#x1b36;&#x1b03;" 
d="M38 607q-150 7 -223 115q-62 99 -67 232l51 -19q15 -113 57 -196q56 -103 187 -118zM-385 605h-6l-12 32q79 71 91 136q7 25 7 51v6q0 92 -97 123q-37 10 -73 10q-108 0 -147 -90q-4 -26 -4 -37q0 -80 101 -191q-8 -36 -12 -36q-203 31 -209 183v18q0 74 41 150l4 1
q15 -15 16 -23q-25 -62 -25 -114l1 -30q4 -82 92 -118l11 -2q-71 87 -74 151v26q0 94 100 150q57 19 114 19q148 0 198 -138q6 -29 6 -60q0 -96 -93 -195zM-879 832q0 17 12.5 29t29.5 12q15 0 28 -12t13 -29q0 -19 -13 -30t-28 -11q-17 0 -29.5 11.5t-12.5 29.5zM-945 716
q0 17 12.5 29t29.5 12q15 0 28 -12t13 -29q0 -19 -13 -30t-28 -11q-17 0 -29.5 11.5t-12.5 29.5zM-811 716q0 17 12.5 29t29.5 12q15 0 28 -12t13 -29q0 -19 -13 -30t-28 -11q-17 0 -29.5 11.5t-12.5 29.5z" />
    <glyph glyph-name="signrerekancomb_vowelsignulusar" unicode="&#x1b34;&#x1b37;" 
d="M-733 839q0 17 12.5 29t29.5 12q15 0 28 -12t13 -29q0 -19 -13 -30t-28 -11q-17 0 -29.5 11.5t-12.5 29.5zM-799 723q0 17 12.5 29t29.5 12q15 0 28 -12t13 -29q0 -19 -13 -30t-28 -11q-17 0 -29.5 11.5t-12.5 29.5zM-665 723q0 17 12.5 29t29.5 12q15 0 28 -12t13 -29
q0 -19 -13 -30t-28 -11q-17 0 -29.5 11.5t-12.5 29.5zM-215 605h-6l-12 32q79 71 91 136q7 25 7 51v6q0 92 -97 123q-37 10 -73 10q-108 0 -147 -90q-4 -26 -4 -37q0 -80 101 -191q-8 -36 -12 -36q-203 31 -209 183v18q0 74 41 150l4 1q15 -15 16 -23q-25 -62 -25 -114
l1 -30q4 -82 92 -118l11 -2q-71 87 -74 151v26q0 94 100 150q57 19 114 19q148 0 198 -138q6 -29 6 -60q0 -96 -93 -195zM-238 681q-42 112 -98 158l-38 -33l-8 7l41 103q47 -25 76.5 -92.5t40.5 -138.5z" />
    <glyph glyph-name="signrerekancomb_vowelsignulusar" unicode="&#x1b34;&#x1b37;&#x1b02;" 
d="M-840 869q0 17 12.5 29t29.5 12q15 0 28 -12t13 -29q0 -19 -13 -30t-28 -11q-17 0 -29.5 11.5t-12.5 29.5zM-906 753q0 17 12.5 29t29.5 12q15 0 28 -12t13 -29q0 -19 -13 -30t-28 -11q-17 0 -29.5 11.5t-12.5 29.5zM-772 753q0 17 12.5 29t29.5 12q15 0 28 -12t13 -29
q0 -19 -13 -30t-28 -11q-17 0 -29.5 11.5t-12.5 29.5zM-281 605h-6l-13 34q85 76 97 145q8 27 8 55v6q0 99 -104 131q-39 11 -77 11q-116 0 -158 -96q-4 -27 -4 -39q0 -86 108 -204q-9 -39 -13 -39q-217 33 -223 196v19q0 79 44 160l4 1q16 -16 17 -24q-26 -67 -26 -122
l1 -32q4 -88 98 -126l12 -2q-76 92 -79 161v27q0 101 106 161q61 20 122 20q158 0 211 -147q6 -31 6 -64q0 -103 -99 -208zM-298 704q-42 112 -98 158l-38 -33l-8 7l41 103q47 -25 76.5 -92.5t40.5 -138.5z" />
    <glyph glyph-name="signrerekancomb_vowelsignulusar" unicode="&#x1b34;&#x1b37;&#x1b03;" 
d="M-900 859q0 17 12.5 29t29.5 12q15 0 28 -12t13 -29q0 -19 -13 -30t-28 -11q-17 0 -29.5 11.5t-12.5 29.5zM-966 743q0 17 12.5 29t29.5 12q15 0 28 -12t13 -29q0 -19 -13 -30t-28 -11q-17 0 -29.5 11.5t-12.5 29.5zM-832 743q0 17 12.5 29t29.5 12q15 0 28 -12t13 -29
q0 -19 -13 -30t-28 -11q-17 0 -29.5 11.5t-12.5 29.5zM38 607q-150 7 -223 115q-62 99 -67 232l51 -19q15 -113 57 -196q56 -103 187 -118zM-385 605h-6l-12 32q79 71 91 136q7 25 7 51v6q0 92 -97 123q-37 10 -73 10q-108 0 -147 -90q-4 -26 -4 -37q0 -80 101 -191
q-8 -36 -12 -36q-203 31 -209 183v18q0 74 41 150l4 1q15 -15 16 -23q-25 -62 -25 -114l1 -30q4 -82 92 -118l11 -2q-71 87 -74 151v26q0 94 100 150q57 19 114 19q148 0 198 -138q6 -29 6 -60q0 -96 -93 -195zM-408 681q-42 112 -98 158l-38 -33l-8 7l41 103
q47 -25 76.5 -92.5t40.5 -138.5z" />
    <glyph glyph-name="signrerekancomb_vowelsignpepetc" unicode="&#x1b34;&#x1b42;" 
d="M-745 936q0 17 12.5 29t29.5 12q15 0 28 -12t13 -29q0 -19 -13 -30t-28 -11q-17 0 -29.5 11.5t-12.5 29.5zM-811 820q0 17 12.5 29t29.5 12q15 0 28 -12t13 -29q0 -19 -13 -30t-28 -11q-17 0 -29.5 11.5t-12.5 29.5zM-677 820q0 17 12.5 29t29.5 12q15 0 28 -12t13 -29
q0 -19 -13 -30t-28 -11q-17 0 -29.5 11.5t-12.5 29.5zM-233 974h15q140 0 221 -128v-4q-181 -65 -414 -160q-5 15 -7 46q156 74 316 130v2q-61 40 -133 40h-5q-107 0 -180 -70q-45 -54 -45 -118q0 -30 29 -134h-2q-17 -5 -31 -5h-5q-75 0 -113 72q-16 36 -16 72q4 49 4 58v7
h-2l-18 -12h-4q-9 30 -9 32q34 31 62 33h16l11 -2q-20 -73 -20 -105q11 -109 74 -109q-29 51 -29 105q0 148 158 224q61 26 127 26z" />
    <glyph glyph-name="signrerekancomb_vowelsignpepetc" unicode="&#x1b34;&#x1b42;&#x1b02;" 
d="M-894 992q0 17 12.5 29t29.5 12q15 0 28 -12t13 -29q0 -19 -13 -30t-28 -11q-17 0 -29.5 11.5t-12.5 29.5zM-960 876q0 17 12.5 29t29.5 12q15 0 28 -12t13 -29q0 -19 -13 -30t-28 -11q-17 0 -29.5 11.5t-12.5 29.5zM-826 876q0 17 12.5 29t29.5 12q15 0 28 -12t13 -29
q0 -19 -13 -30t-28 -11q-17 0 -29.5 11.5t-12.5 29.5zM-54 581q-55 174 -135 248l-61 -46l-12 11l72 154q69 -43 108 -148t50 -214zM-503 974h15q140 0 221 -128v-4q-181 -65 -414 -160q-5 15 -7 46q156 74 316 130v2q-61 40 -133 40h-5q-107 0 -180 -70q-45 -54 -45 -118
q0 -30 29 -134h-2q-17 -5 -31 -5h-5q-75 0 -113 72q-16 36 -16 72q4 49 4 58v7h-2l-18 -12h-4q-9 30 -9 32q34 31 62 33h16l11 -2q-20 -73 -20 -105q11 -109 74 -109q-29 51 -29 105q0 148 158 224q61 26 127 26z" />
    <glyph glyph-name="signrerekancomb_vowelsignpepetc" unicode="&#x1b34;&#x1b42;&#x1b03;" 
d="M-874 980q0 17 12.5 29t29.5 12q15 0 28 -12t13 -29q0 -19 -13 -30t-28 -11q-17 0 -29.5 11.5t-12.5 29.5zM-940 864q0 17 12.5 29t29.5 12q15 0 28 -12t13 -29q0 -19 -13 -30t-28 -11q-17 0 -29.5 11.5t-12.5 29.5zM-806 864q0 17 12.5 29t29.5 12q15 0 28 -12t13 -29
q0 -19 -13 -30t-28 -11q-17 0 -29.5 11.5t-12.5 29.5zM54 576q-126 -29 -210 92q-72 113 -104 283l46 -11q23 -93 54 -166q17 -39 35 -73q68 -120 180 -107zM-475 974h15q133 0 209 -128v-4q-171 -65 -394 -160q-4 15 -6 46q149 74 301 130v2q-58 40 -127 40h-5
q-101 0 -171 -70q-42 -54 -42 -118q0 -30 27 -134h-2q-16 -5 -30 -5h-4q-71 0 -108 72q-14 36 -14 72q4 49 4 58v7h-2l-17 -12h-5q-8 30 -8 32q33 31 59 33h15l11 -2q-19 -73 -19 -105q10 -109 69 -109q-27 51 -27 105q0 148 150 224q58 26 121 26z" />
    <glyph glyph-name="vowelsignulucomb_signuluricemco" unicode="&#x1b36;&#x1b00;" 
d="M-252 605h-5l-12 29q79 65 90 125q7 23 7 47v5q0 85 -96 112q-37 10 -72 10q-108 0 -147 -83q-4 -23 -4 -33q0 -73 101 -175q-8 -34 -12 -34q-202 29 -207 169l-1 16q0 67 41 137l4 1q15 -14 16 -21q-24 -57 -24 -104l1 -28q3 -75 91 -108l11 -2q-71 79 -73 139l-1 23
q0 87 99 138q57 17 113 17q148 0 196 -126q6 -26 6 -55q0 -88 -92 -178zM-408 1035q-49 39 -52 87l-1 13q0 43 58 70q28 8 59 8q66 0 92 -48q7 -16 7 -39q0 -41 -39 -85q-4 0 -23 17q26 32 26 62q0 54 -62 54l-17 -1q-55 -4 -65 -52q0 -23 33 -65q-13 -21 -16 -21z
M-363 1325h27q140 0 202 -99q18 -38 18 -69v-20q0 -80 -65 -143q-44 -36 -102 -46v30q1 3 33 14q82 54 82 151v2q0 91 -101 120q-32 11 -64 11h-25q-129 0 -164 -90q-7 -22 -7 -43v-1q0 -95 113 -150q26 -12 27 -15v-31q0 -3 -3 -3q-104 28 -147 86q-42 54 -42 107v21
q0 102 121 153q55 15 97 15z" />
    <glyph glyph-name="vowelsignulucomb_signulucandrac" unicode="&#x1b36;&#x1b01;" 
d="M-367 1349h4q11 -59 21 -171l-4 -2q-7 0 -19 2q-15 -2 -26 -2q-4 5 -4 7q0 34 28 166zM-538 1272h11q28 -4 28 -21v-5q0 -14 -19 -19h-2q-6 0 -25 3q-24 0 -46 -44q-5 -17 -7 -40q0 -65 71 -119q79 -45 169 -45q157 0 208 109q11 28 11 53v19q0 43 -39 60h-3q-2 0 -22 -3
q-30 5 -30 24v7q13 21 32 21q66 0 101 -86q5 -18 5 -37v-13q0 -101 -101 -178q-75 -41 -148 -41h-24q-97 0 -184 55q-88 69 -88 153v18q0 80 72 122q17 7 30 7zM-372 1173q111 -6 134 -69l2 -10v-17q0 -34 -60 -64q-32 -15 -65 -15q-86 0 -127 58q-9 15 -9 36q0 55 104 79
q16 0 21 2zM-465 1086q0 -26 65 -48q18 -6 35 -6q63 0 97 44q4 7 4 12q0 19 -53 43q-15 7 -50 11q-58 0 -95 -43q-3 -7 -3 -13zM-252 605h-5l-12 27q79 62 90 118q7 21 7 44v5q0 80 -96 106q-37 9 -72 9q-108 0 -147 -78q-4 -22 -4 -31q0 -70 101 -165q-8 -32 -12 -32
q-202 27 -207 159l-1 15q0 64 41 129l4 1q15 -13 16 -19q-24 -55 -24 -99l1 -26q3 -71 91 -102l11 -1q-71 74 -73 130l-1 22q0 81 99 130q57 16 113 16q148 0 196 -119q6 -25 6 -52q0 -83 -92 -168z" />
    <glyph glyph-name="vowelsignulucomb_signcecekcombb" unicode="&#x1b36;&#x1b02;" 
d="M-39 608q-27 162 -89 238l-60 -33l-9 11l84 128q56 -47 77 -145.5t17 -197.5zM-351 605h-6l-13 33q85 73 97 139q8 26 8 53v6q0 95 -104 126q-39 11 -77 11q-116 0 -158 -93q-4 -26 -4 -38q0 -82 108 -196q-9 -37 -13 -37q-217 32 -223 188v19q0 75 44 153l4 1
q16 -15 17 -23q-26 -64 -26 -117l1 -31q4 -84 98 -121l12 -2q-76 89 -79 155v26q0 97 106 155q61 19 122 19q158 0 211 -141q6 -30 6 -62q0 -99 -99 -200z" />
    <glyph glyph-name="vowelsignulucomb_signsurangcomb" unicode="&#x1b36;&#x1b03;" 
d="M38 607q-150 7 -223 115q-62 99 -67 232l51 -19q15 -113 57 -196q56 -103 187 -118zM-385 605h-6l-12 32q79 71 91 136q7 25 7 51v6q0 92 -97 123q-37 10 -73 10q-108 0 -147 -90q-4 -26 -4 -37q0 -80 101 -191q-8 -36 -12 -36q-203 31 -209 183v18q0 74 41 150l4 1
q15 -15 16 -23q-25 -62 -25 -114l1 -30q4 -82 92 -118l11 -2q-71 87 -74 151v26q0 94 100 150q57 19 114 19q148 0 198 -138q6 -29 6 -60q0 -96 -93 -195z" />
    <glyph glyph-name="vowelsignulucomb_signcecekcomb_" unicode="&#x1b36;&#x1b02;&#x1b03;" 
d="M-39 608q-27 162 -89 238l-60 -33l-9 11l84 128q56 -47 77 -145.5t17 -197.5zM-351 605h-6l-13 33q85 73 97 139q8 26 8 53v6q0 95 -104 126q-39 11 -77 11q-116 0 -158 -93q-4 -26 -4 -38q0 -82 108 -196q-9 -37 -13 -37q-217 32 -223 188v19q0 75 44 153l4 1
q16 -15 17 -23q-26 -64 -26 -117l1 -31q4 -84 98 -121l12 -2q-76 89 -79 155v26q0 97 106 155q61 19 122 19q158 0 211 -141q6 -30 6 -62q0 -99 -99 -200zM-38 951q-186 -14 -294 83q-93 90 -122 222l66 -11q38 -111 104 -188q86 -95 250 -92z" />
    <glyph glyph-name="vowelsignulusaricomb_signuluric" unicode="&#x1b37;&#x1b00;" 
d="M-252 605h-5l-12 29q79 65 90 125q7 23 7 47v5q0 85 -96 112q-37 10 -72 10q-108 0 -147 -83q-4 -23 -4 -33q0 -73 101 -175q-8 -34 -12 -34q-202 29 -207 169l-1 16q0 67 41 137l4 1q15 -14 16 -21q-24 -57 -24 -104l1 -28q3 -75 91 -108l11 -2q-71 79 -73 139l-1 23
q0 87 99 138q57 17 113 17q148 0 196 -126q6 -26 6 -55q0 -88 -92 -178zM-408 1035q-49 39 -52 87l-1 13q0 43 58 70q28 8 59 8q66 0 92 -48q7 -16 7 -39q0 -41 -39 -85q-4 0 -23 17q26 32 26 62q0 54 -62 54l-17 -1q-55 -4 -65 -52q0 -23 33 -65q-13 -21 -16 -21z
M-363 1325h27q140 0 202 -99q18 -38 18 -69v-20q0 -80 -65 -143q-44 -36 -102 -46v30q1 3 33 14q82 54 82 151v2q0 91 -101 120q-32 11 -64 11h-25q-129 0 -164 -90q-7 -22 -7 -43v-1q0 -95 113 -150q26 -12 27 -15v-31q0 -3 -3 -3q-104 28 -147 86q-42 54 -42 107v21
q0 102 121 153q55 15 97 15zM-283 658q-42 112 -98 158l-38 -33l-8 7l41 103q47 -25 76.5 -92.5t40.5 -138.5z" />
    <glyph glyph-name="vowelsignulusaricomb_signulucan" unicode="&#x1b37;&#x1b01;" 
d="M-367 1348h4q11 -59 21 -171l-4 -2q-7 0 -19 2q-15 -2 -26 -2q-4 5 -4 7q0 34 28 166zM-538 1271h11q28 -4 28 -21v-5q0 -14 -19 -19h-2q-6 0 -25 3q-24 0 -46 -44q-5 -17 -7 -40q0 -65 71 -118q79 -45 169 -45q157 0 208 108q11 29 11 54v18q0 43 -39 61h-3q-2 0 -22 -4
q-30 5 -30 24v7q13 21 32 21q66 0 101 -86q5 -18 5 -36v-14q0 -101 -101 -177q-75 -41 -148 -41h-24q-97 0 -184 55q-88 68 -88 153v17q0 80 72 122q17 7 30 7zM-372 1172q111 -6 134 -69l2 -10v-17q0 -34 -60 -64q-32 -15 -65 -15q-86 0 -127 58q-9 15 -9 36q0 55 104 79
q16 0 21 2zM-465 1085q0 -26 65 -48q18 -6 35 -6q63 0 97 44q4 7 4 12q0 19 -53 43q-15 7 -50 11q-58 0 -95 -43q-3 -7 -3 -13zM-275 569h-5l-12 29q79 65 90 125q7 23 7 47v5q0 85 -96 112q-37 10 -72 10q-108 0 -147 -83q-4 -23 -4 -33q0 -73 101 -175q-8 -34 -12 -34
q-202 29 -207 169l-1 16q0 67 41 137l4 1q15 -14 16 -21q-24 -57 -24 -104l1 -28q3 -75 91 -108l11 -2q-71 79 -73 139l-1 23q0 87 99 138q57 17 113 17q148 0 196 -126q6 -26 6 -55q0 -88 -92 -178zM-293 638q-42 112 -98 158l-38 -33l-8 7l41 103q47 -25 76.5 -92.5
t40.5 -138.5z" />
    <glyph glyph-name="vowelsignulusaricomb_signcecekc" unicode="&#x1b37;&#x1b02;" 
d="M-39 608q-27 162 -89 238l-60 -33l-9 11l84 128q56 -47 77 -145.5t17 -197.5zM-351 605h-6l-13 34q85 76 97 145q8 27 8 55v6q0 99 -104 131q-39 11 -77 11q-116 0 -158 -96q-4 -27 -4 -39q0 -86 108 -204q-9 -39 -13 -39q-217 33 -223 196v19q0 79 44 160l4 1
q16 -16 17 -24q-26 -67 -26 -122l1 -32q4 -88 98 -126l12 -2q-76 92 -79 161v27q0 101 106 161q61 20 122 20q158 0 211 -147q6 -31 6 -64q0 -103 -99 -208zM-368 704q-42 112 -98 158l-38 -33l-8 7l41 103q47 -25 76.5 -92.5t40.5 -138.5z" />
    <glyph glyph-name="vowelsignulusaricomb_signsurang" unicode="&#x1b37;&#x1b03;" 
d="M38 607q-150 7 -223 115q-62 99 -67 232l51 -19q15 -113 57 -196q56 -103 187 -118zM-385 605h-6l-12 32q79 71 91 136q7 25 7 51v6q0 92 -97 123q-37 10 -73 10q-108 0 -147 -90q-4 -26 -4 -37q0 -80 101 -191q-8 -36 -12 -36q-203 31 -209 183v18q0 74 41 150l4 1
q15 -15 16 -23q-25 -62 -25 -114l1 -30q4 -82 92 -118l11 -2q-71 87 -74 151v26q0 94 100 150q57 19 114 19q148 0 198 -138q6 -29 6 -60q0 -96 -93 -195zM-408 681q-42 112 -98 158l-38 -33l-8 7l41 103q47 -25 76.5 -92.5t40.5 -138.5z" />
    <glyph glyph-name="vowelsignulusaricomb_signcecekc" unicode="&#x1b37;&#x1b02;&#x1b03;" 
d="M-199 1026q-177 -13 -280 79q-89 86 -116 212l62 -11q37 -106 100 -179q81 -91 238 -88zM-39 608q-27 162 -89 238l-60 -33l-9 11l84 128q56 -47 77 -145.5t17 -197.5zM-351 605h-6l-13 34q85 76 97 145q8 27 8 55v6q0 99 -104 131q-39 11 -77 11q-116 0 -158 -96
q-4 -27 -4 -39q0 -86 108 -204q-9 -39 -13 -39q-217 33 -223 196v19q0 79 44 160l4 1q16 -16 17 -24q-26 -67 -26 -122l1 -32q4 -88 98 -126l12 -2q-76 92 -79 161v27q0 101 106 161q61 20 122 20q158 0 211 -147q6 -31 6 -64q0 -103 -99 -208zM-368 704q-42 112 -98 158
l-38 -33l-8 7l41 103q47 -25 76.5 -92.5t40.5 -138.5z" />
    <glyph glyph-name="vowelsignpepetcomb_signcecekcom" unicode="&#x1b42;&#x1b02;" 
d="M-54 581q-55 174 -135 248l-61 -46l-12 11l72 154q69 -43 108 -148t50 -214zM-503 974h15q140 0 221 -128v-4q-181 -65 -414 -160q-5 15 -7 46q156 74 316 130v2q-61 40 -133 40h-5q-107 0 -180 -70q-45 -54 -45 -118q0 -30 29 -134h-2q-17 -5 -31 -5h-5q-75 0 -113 72
q-16 36 -16 72q4 49 4 58v7h-2l-18 -12h-4q-9 30 -9 32q34 31 62 33h16l11 -2q-20 -73 -20 -105q11 -109 74 -109q-29 51 -29 105q0 148 158 224q61 26 127 26z" />
    <glyph glyph-name="vowelsignpepetcomb_signsurangco" unicode="&#x1b42;&#x1b03;" 
d="M54 576q-133 -29 -221 92q-76 113 -110 283l48 -11q25 -93 58 -166q17 -39 37 -73q71 -120 189 -107zM-503 974h15q140 0 221 -128v-4q-181 -65 -414 -160q-5 15 -7 46q156 74 316 130v2q-61 40 -133 40h-5q-107 0 -180 -70q-45 -54 -45 -118q0 -30 29 -134h-2
q-17 -5 -31 -5h-5q-75 0 -113 72q-16 36 -16 72q4 49 4 58v7h-2l-18 -12h-4q-9 30 -9 32q34 31 62 33h16l11 -2q-20 -73 -20 -105q11 -109 74 -109q-29 51 -29 105q0 148 158 224q61 26 127 26z" />
    <glyph glyph-name="vowelsignpepetcomb_signcecekcom" unicode="&#x1b42;&#x1b02;&#x1b03;" 
d="M-436 901h13q114 0 180 -104v-4q-148 -53 -339 -131q-3 13 -5 38q128 61 258 106v2q-49 32 -109 32h-3q-88 0 -148 -57q-36 -44 -36 -96q0 -25 23 -110h-2q-13 -4 -25 -4h-4q-61 0 -93 59q-12 30 -12 58q3 40 3 48v5h-2l-14 -9h-4q-7 24 -7 27q28 24 51 26h13l9 -2
q-17 -59 -17 -85q9 -89 61 -89q-24 41 -24 85q0 121 129 184q50 21 104 21zM-52 581q-49 157 -121 223l-55 -41l-11 10l65 138q62 -38 97 -132.5t45 -193.5zM-69 923q-199 -15 -314 89q-99 96 -130 236l70 -11q41 -119 112 -201q91 -101 266 -98z" />
    <glyph glyph-name="signcecekcomb_signsurangcombbal" unicode="&#x1b02;&#x1b03;" 
d="M-124 601q-119 180 -240 243l-63 -68l-17 9l44 191q99 -29 177.5 -136.5t123.5 -227.5zM-134 617q-228 -18 -360 106q-113 116 -148 284l80 -14q46 -142 127 -241q105 -121 305 -117z" />
    <glyph glyph-name="kabali.td" unicode="&#x1b13;&#x1b35;" horiz-adv-x="1457" 
d="M134 525h17q76 0 100 -113q4 -18 6 -119h34q4 0 4 6q0 160 155 213q32 11 89 11q168 0 229 -132q16 -32 16 -126v-171h24q74 3 74 32q18 0 20 169q0 109 99 183q60 39 131 39h34q138 0 215 -131q26 -60 26 -108v-26q0 -138 -101 -222q-59 -30 -98 -30h-26q-50 0 -101 24
v2l41 49h2q47 -11 62 -11h10q81 0 129 94q18 51 18 94v2q0 121 -133 165q-36 8 -70 8q-118 0 -169 -92q-16 -35 -16 -98v-56q0 -144 -85 -166q-28 -6 -58 -6q-85 2 -85 8q0 329 -12 329q-16 45 -50 62q-42 27 -139 27q-176 0 -176 -138l4 -2h4q89 0 199 -52q84 -53 84 -132
v-8q0 -71 -90 -95q-26 -4 -43 -4h-2q-98 0 -175 86q-34 60 -34 121h-18l-24 -2q0 -152 -48 -185q-28 -18 -58 -18h-11q-57 0 -82 65q-3 11 -6 36q0 115 149 179v4q0 135 -42 154l-11 2h-12q-22 0 -28 -32v-8q0 -32 57 -96q0 -2 -2 -2q-36 -11 -43 -11q-68 60 -68 119v24
q0 58 56 81q15 4 28 4zM96 105v-2q0 -38 26 -50l24 -6q69 13 69 96q2 21 2 36q-2 26 -2 34q-119 -36 -119 -108zM346 211v-19q0 -56 68 -107q46 -27 102 -27h12q40 3 53 32v6q0 81 -221 113z" />
    <glyph glyph-name="gabali.td" unicode="&#x1b15;&#x1b35;" horiz-adv-x="1299" 
d="M128 524h13q48 0 71 -56q5 -19 5 -39v-3q0 -20 -7 -172v-16q0 -93 20 -117q17 -11 39 -17v2q-22 69 -22 128v16q0 162 122 238q55 27 115 27h25q148 0 215 -128q26 -62 26 -117v-11q0 -55 -22 -162h3q49 12 49 91q4 182 26 201q63 124 191 124h28q130 0 202 -133
q22 -59 22 -108v-25q0 -121 -81 -209q-56 -38 -108 -38h-20q-38 0 -90 22l-1 4q35 44 35 49h2q52 -13 63 -13q88 0 128 108q13 40 13 78v4q0 75 -52 124q-50 48 -134 48q-114 0 -159 -97q-13 -33 -13 -99v-54q0 -122 -63 -154q-28 -11 -67 -11h-52q-4 0 -4 4q43 139 43 239
q0 123 -93 161q-52 18 -97 18h-11q-131 0 -171 -115q-9 -37 -9 -68v-20q0 -67 35 -208q-6 -4 -15 -4h-22q-43 0 -106 42q-48 34 -48 154q0 41 9 199q0 37 -24 37h-7q-28 -4 -28 -28v-13q0 -30 50 -91q-29 -13 -41 -13q-61 58 -61 114v21q0 61 63 85q7 1 15 1z" />
    <glyph glyph-name="gagorabali.td" unicode="&#x1b16;&#x1b35;" horiz-adv-x="1411" 
d="M1130 524h7q161 0 215 -167q9 -46 9 -78v-13q0 -126 -94 -206q-41 -29 -96 -29q-40 0 -89 22l31 45q27 -10 62 -13q75 0 113 76q23 55 23 109q0 125 -124 167q-27 7 -58 7q-97 0 -142 -74q-15 -35 -27 -73q-39 -57 -39 -60h-4q2 25 2 31q0 114 -41 147q-32 22 -67 22h-3
q65 -63 65 -178v-32q0 -227 -110 -227q-54 0 -105 85q-23 29 -28 29h-7q-15 0 -44 -61q-36 -53 -75 -53h-19q-82 0 -119 136q-7 44 -7 78v31q0 68 19 186q-43 0 -55 -70q-5 -51 -5 -93q0 -62 19 -261l-3 -2h-5q-118 0 -153 62q-20 39 -20 118q0 16 11 199q0 58 -37 58
q-30 -4 -30 -31v-12q0 -26 48 -86v-5l-38 -11q-60 58 -60 114v22q0 60 60 82q3 1 23 3q57 0 78 -61q6 -21 6 -44v-13q-9 -151 -9 -166q0 -119 44 -138q3 0 20 -5v1q-11 76 -14 191q0 177 85 221q27 12 69 12h34q3 0 3 -3q-26 -177 -26 -265q0 -118 37 -147q21 -10 39 -10
q49 0 89 83q20 31 42 31q25 0 62 -78q28 -40 62 -40q68 0 68 152v4q0 152 -103 183q-16 2 -27 2h-2q-3 0 -3 3q47 85 106 85q6 2 22 2h5q94 0 131 -83q0 -6 4 -6q62 95 175 95z" />
    <glyph glyph-name="cabali.td" unicode="&#x1b18;&#x1b35;" horiz-adv-x="1315" 
d="M157 531h20q81 0 113 -87q11 -32 11 -81q0 -19 -2 -96q-2 0 -2 -2q42 0 111 -59q56 -70 82 -94q27 -23 56 -23q57 0 71 109q2 26 2 36q0 143 -107 189q-17 7 -65 16v1q31 91 150 91h9q112 0 159 -75q7 -21 11 -21q74 87 216 87h3q179 0 253 -159q17 -51 17 -93v-30
q0 -102 -88 -191q-61 -49 -131 -49h-26q-41 0 -103 23v2q30 40 45 53q41 -14 67 -14h11q103 0 143 110q13 44 13 79q0 123 -139 169q-38 7 -73 9q-140 0 -193 -108q-10 -45 -13 -45q-27 -16 -37 -21l-2 4q0 139 -51 170q-32 21 -63 21h-2q-14 0 -30 -4v-2q50 -37 62 -75
q30 -59 30 -125q0 -156 -73 -221q-31 -19 -68 -19q-87 0 -161 117q-41 50 -78 64l-8 2v-4q0 -176 -114 -176h-15q-74 0 -97 74q-4 28 -4 34q0 57 54 112q50 38 101 38q17 2 17 5q0 8 4 83q0 76 -45 99q-16 5 -30 5h-6q-34 0 -39 -36v-5q0 -16 36 -68v-2q-49 -27 -51 -27
q-58 72 -58 106v15q0 47 54 78q28 11 53 11zM132 113q5 -47 40 -47h3q66 0 66 131h-13q-77 0 -94 -68q-2 -11 -2 -16z" />
    <glyph glyph-name="calacabali.td" unicode="&#x1b19;&#x1b35;" horiz-adv-x="1246" 
d="M248 521h26q131 0 177 -94q15 -22 24 -266q0 -36 27 -74q37 -33 92 -33q75 0 98 55q12 0 28 239q4 48 58 110q72 63 158 63h8q157 0 233 -152q19 -53 19 -105v-20q0 -101 -66 -173q-65 -60 -145 -60q-50 0 -103 25v4q25 36 30 36q36 -13 60 -13q79 0 136 78q28 49 28 109
v12q0 110 -104 165q-42 20 -96 20h-7q-111 0 -149 -110q-9 -39 -19 -201q-14 -76 -41 -103q-33 -33 -105 -33h-34q-105 0 -136 49q-41 33 -41 255q-11 100 -32 114q-32 42 -106 42h-9q-84 0 -122 -71q-29 -74 -29 -165q0 -115 40 -133q21 -11 39 -11h12q22 0 22 39v162
q1 3 4 3h57q3 0 3 -3q0 -250 -15 -250q-19 -24 -58 -24h-21q-86 0 -120 65q-19 51 -19 127v53q0 194 96 244q45 25 102 25z" />
    <glyph glyph-name="jajerabali.td" unicode="&#x1b1b;&#x1b35;" horiz-adv-x="1690" 
d="M845 689q53 0 119 -111q43 41 59 41h8q42 0 63 -81v-28q-1 -55 -14 -60h-2q-10 7 -25 86q-12 20 -18 21h-4q-7 0 -41 -34q25 -93 25 -218v-102q0 -144 -17 -592q0 -171 -34 -311q-44 -124 -153 -124h-5q-125 0 -165 151q-35 158 -51 158q0 12 -51 19q-59 0 -83 -111
q-46 -217 -180 -217h-6q-110 0 -157 141q-20 61 -20 136q0 286 212 362q73 32 257 62q81 22 136 77q102 116 102 268v2q0 97 -45 160q-33 36 -85 36q-71 0 -106 -142l-4 -2h-4q-5 6 -27 81q-27 61 -79 61h-15q-80 0 -100 -127q-4 -29 -4 -56v-21q0 -83 58 -252l-3 -2h-14
q-18 0 -34 -2q-115 0 -162 102q-10 35 -14 88q16 201 16 226q0 30 -28 64h-18q-22 0 -27 -37v-8q0 -37 55 -109q-7 -6 -43 -15h-2q0 2 -38 47q-27 43 -27 92v23q14 96 88 96h6q62 0 89 -72q5 -28 5 -52l-17 -202v-38q0 -83 37 -105q11 -6 39 -17v2q-33 91 -33 188v6
q0 185 102 260q47 24 78 24q62 0 106 -75q8 -15 8 -21q23 46 55 76q35 18 59 18h6q94 0 161 -137q27 -69 27 -136v-22q0 -186 -104 -328q-69 -79 -121 -100q-41 -23 -130 -40q-212 -29 -259 -75q-88 -74 -88 -213v-19q0 -127 70 -169q14 -4 24 -4h12q82 0 108 122
q48 163 102 196q34 19 70 19q94 0 128 -119q45 -188 75 -203q25 -21 56 -21q76 0 97 98q12 0 39 611q16 245 16 375v17q-4 122 -14 128q-9 0 -12 -2q-98 0 -137 96q-4 19 -4 28v4q0 54 33 64h18zM860 623l-1 -4v-13q19 -36 54 -36q-25 53 -53 53zM1351 551h9q184 0 258 -158
q22 -52 22 -113v-6q0 -137 -89 -218q-68 -52 -144 -52h-9q-48 0 -107 22v2q37 47 40 48q44 -12 74 -12h11q83 0 137 97q25 58 25 111q0 126 -140 178q-41 12 -91 12q-162 0 -220 -160q-6 -32 -11 -32h-31q-4 0 -4 4q0 81 48 170q81 107 222 107z" />
    <glyph glyph-name="talatikbali.td" unicode="&#x1b1d;&#x1b35;" horiz-adv-x="1003" 
d="M731 530h4q156 0 209 -160q9 -44 9 -74v-12q0 -124 -95 -202q-41 -24 -89 -24q-40 0 -86 19l-2 4l31 41q35 -12 61 -12q89 0 123 109q9 44 9 68q0 122 -127 161q-29 6 -54 6q-87 0 -137 -68q-17 -25 -19 -56q2 -6 2 -13q-31 -21 -38 -21q-4 94 -14 99q-20 53 -85 53h-14
q-69 0 -90 -69q-9 -29 -13 -29h-38q-3 0 -3 3q12 64 35 108q47 62 112 62h19q81 0 113 -81h2q33 56 83 71q42 17 92 17zM126 523q59 0 79 -61q5 -19 5 -39v-2q0 -12 -18 -164v-38q0 -73 61 -94q19 -5 22 -5v2q0 110 63 142q17 8 36 8q57 0 73 -48q5 -15 5 -31
q0 -93 -95 -139q-38 -13 -38 -17q-1 -6 -1 -11q0 -85 59 -139q23 -17 52 -17q99 0 135 110q2 6 5 11q41 -10 41 -13q0 -80 -67 -144q-45 -33 -98 -33h-20q-77 0 -132 78q-26 44 -26 117v41h-4q-68 0 -106 80q-16 43 -16 99v13q0 36 16 164v20q0 34 -29 41h-4q-28 -3 -28 -28
v-12q0 -23 47 -81q-32 -11 -37 -11q-56 53 -56 104v20q0 55 60 76zM318 118q87 17 87 65v8q-2 20 -23 20q-47 0 -62 -72z" />
    <glyph glyph-name="tamurdamahapranabali.td" unicode="&#x1b1e;&#x1b35;" horiz-adv-x="1043" 
d="M761 530h4q163 0 219 -167q9 -46 9 -78v-12q0 -129 -99 -210q-43 -26 -93 -26q-42 0 -90 20l-2 4l32 43q37 -12 64 -12q93 0 128 114q9 45 9 70q0 127 -132 169q-30 5 -56 5q-91 0 -143 -70q-18 -26 -20 -58q2 -7 2 -15q-32 -22 -40 -22q-4 99 -15 104q-20 56 -88 56h-15
q-72 0 -94 -73q-9 -30 -13 -30h-40q-3 0 -3 3q12 67 36 113q50 65 118 65h20q84 0 117 -85h2q35 58 87 74q44 18 96 18zM136 515q62 0 89 -60q6 -24 6 -43v-5q0 -11 -21 -169v-36q0 -88 84 -120q19 -2 28 -2h17q90 0 115 118q5 30 8 30q35 -17 35 -41v-18q0 -100 -108 -155
q-36 -14 -67 -14h-20q-76 0 -129 87q-20 55 -20 106v16q0 33 18 173v8q0 2 2 2q0 51 -39 51q-32 -4 -32 -29v-7q0 -30 52 -89q-35 -12 -41 -12q-63 55 -63 108v21q0 57 67 78z" />
    <glyph glyph-name="damurdaalpapranabali.td" unicode="&#x1b1f;&#x1b35;" horiz-adv-x="1197" 
d="M146 524q61 0 83 -74l4 -38q-22 -207 -22 -258q7 -78 63 -78h21q64 0 98 145q19 40 48 40q30 0 43 -30q28 -143 88 -143q54 0 73 34q19 40 19 196q10 58 32 95q68 105 206 105q171 0 233 -169q12 -44 12 -80v-6q0 -151 -96 -231q-52 -32 -104 -32h-12q-41 0 -94 21v4
q32 44 33 44q46 -12 69 -12q87 0 131 101q18 48 18 95q0 129 -139 176q-28 7 -55 7h-12q-80 0 -131 -51q-38 -26 -38 -177q0 -150 -80 -193q-29 -11 -51 -11q-85 0 -114 84q-15 78 -31 78h-4q-18 0 -32 -71q-32 -91 -106 -91q-104 0 -137 95q-10 31 -10 74q0 23 24 200v29
q0 42 -36 42q0 2 -2 2q-33 -5 -33 -33v-9q0 -32 55 -97q-33 -13 -43 -14q-67 61 -67 120v23q0 68 77 88h19z" />
    <glyph glyph-name="narambatbali.td" unicode="&#x1b21;&#x1b35;" horiz-adv-x="1402" 
d="M327 518h16q61 0 117 -95q38 -50 58 -50q21 0 90 103q38 40 82 40q104 0 128 -146q4 -37 4 -79v-199q56 0 66 40q12 12 15 179q10 67 41 110q61 84 182 84q148 0 210 -148q16 -48 16 -86v-28q0 -110 -68 -194q-54 -49 -110 -49h-23q-46 0 -88 24v2q33 49 36 49
q33 -13 61 -13q84 0 121 101q14 39 14 82v6q0 110 -112 155q-32 9 -54 9h-25q-81 0 -135 -73q-21 -38 -21 -122v-50q0 -120 -61 -150q-23 -11 -67 -11q-42 2 -43 2l-2 4v20q0 333 -9 333q-20 62 -81 62q-49 0 -101 -84q-38 -49 -63 -49h-14q-32 0 -81 80q-42 53 -79 53h-7
q-65 0 -92 -112q-32 -86 -88 -86h-15q-95 0 -95 171v27q1 4 4 4h41q4 -1 4 -4v-29q0 -68 25 -79q15 -7 29 -7q56 0 82 121q29 82 92 82z" />
    <glyph glyph-name="tabali.td" unicode="&#x1b22;&#x1b35;" horiz-adv-x="1332" 
d="M140 529q75 -12 75 -80q2 -14 2 -45l-11 -177v-14q0 -77 35 -96q40 -25 135 -25q98 0 126 48q11 19 11 37v6q0 30 -23 42q-107 17 -130 37q-33 36 -33 93q0 84 90 141q63 27 113 27q182 0 226 -147q12 -21 12 -216v-66q67 0 67 116q0 165 36 209q63 102 184 102
q153 0 213 -159q14 -47 14 -83v-28q0 -136 -89 -221q-52 -30 -86 -30h-24q-43 0 -88 25v1l37 51q34 -13 55 -13h9q71 0 113 95q16 51 16 94v2q0 120 -113 164q-28 10 -62 10q-121 0 -158 -110q-9 -27 -9 -87v-51q0 -144 -74 -166q-18 -6 -41 -6h-39q-4 0 -4 4v106
q0 245 -17 245q-46 74 -163 74h-29q-135 -9 -135 -64q-1 0 -1 -12v-3q0 -29 40 -38q99 -20 128 -55q28 -34 28 -79q0 -77 -69 -138q-55 -40 -141 -40h-27q-102 0 -165 91q-25 40 -25 98q0 34 16 208q-5 43 -37 43q-28 -6 -28 -32v-9q0 -32 49 -97q-10 -5 -39 -13
q-60 60 -60 119v23q0 67 71 89h19z" />
    <glyph glyph-name="tatawabali.td" unicode="&#x1b23;&#x1b35;" horiz-adv-x="1138" 
d="M143 524q38 0 68 -47q11 -28 11 -59v-24q0 -35 -11 -185q0 -92 123 -111q14 -2 31 -2h24q34 0 64 14q-14 31 -46 57h-4q-9 0 -25 -51q0 -7 -4 -7q-35 27 -35 56q0 51 44 81l15 4q47 0 93 -103h2q19 12 29 136v7q0 117 -55 161q-18 15 -58 15h-4q-3 0 -3 3v4q21 51 104 51
q119 0 157 -89q4 0 4 -10q69 88 189 88q156 0 218 -155q14 -46 14 -88v-26q0 -126 -100 -210q-50 -28 -96 -28q-45 0 -100 24v2q33 49 38 49q41 -11 55 -11h13q91 0 124 119q8 37 8 64q0 115 -114 161q-36 10 -60 10h-15q-98 0 -145 -81q-2 -25 -36 -66q-25 -35 -28 -35h-2
q2 44 2 61q0 114 -67 144q-14 4 -26 4q40 -91 40 -179q0 -120 -55 -200q33 -79 33 -119q0 -9 -5 -33h-2q-8 11 -61 123q-45 -28 -122 -28q-148 0 -198 106q-15 37 -15 96v9l10 148v18q0 55 -30 55h-3q-27 0 -30 -38q0 -31 52 -93v-4q-37 -11 -41 -11q-62 59 -62 115v22
q0 64 71 86h22z" />
    <glyph glyph-name="dabali.td" unicode="&#x1b24;&#x1b35;" horiz-adv-x="1315" 
d="M137 531h16q50 0 75 -55q4 -18 4 -32q0 -41 -55 -188q-26 -82 -26 -108q9 -60 58 -60h2q30 0 157 107l52 35v35q0 179 122 230q42 16 77 16h37q139 0 204 -100q62 95 173 95h14q141 0 202 -148q16 -49 16 -97v-27q0 -98 -72 -185q-50 -47 -111 -47h-11q-44 0 -89 24
q27 43 37 51q35 -13 59 -13q76 0 112 80q19 53 19 104q0 121 -120 163q-32 7 -54 7q-74 0 -124 -51q-13 -13 -44 -99q-11 -23 -24 -23q-10 87 -30 113q-57 60 -164 60h-21q-114 0 -143 -86q-10 -51 -11 -95l9 2h19q97 0 136 -97q6 -19 6 -29v-13q0 -70 -60 -96
q-16 -4 -26 -4h-17q-53 0 -96 60q-21 53 -21 71q-94 -84 -135 -109q-41 -18 -70 -18h-8q-79 0 -112 80q-7 23 -7 38v17q0 39 68 253q7 28 7 42v11q0 20 -30 20q-35 0 -35 -40q4 -53 13 -96q-30 -11 -51 -11q-14 66 -14 91v20q0 61 54 93q18 9 33 9zM476 153q0 -64 49 -85
q18 -6 31 -6q35 6 35 38q0 37 -49 53q-14 6 -29 6q-20 0 -37 -6z" />
    <glyph glyph-name="damadubali.td" unicode="&#x1b25;&#x1b35;" horiz-adv-x="1296" 
d="M143 530q68 0 82 -87q2 -17 2 -20q-21 -212 -21 -254q0 -41 33 -67q18 -7 44 -9q69 0 101 142q19 37 40 37h13q37 0 46 -74q26 -91 72 -91h17q43 0 69 63q8 33 8 56v22q0 138 -67 178q-34 17 -44 17q32 80 120 80h12q94 0 135 -100v-2q71 90 198 90q165 0 229 -161
q14 -48 14 -85v-30q0 -100 -79 -187q-54 -48 -116 -48h-23q-37 0 -91 22v2l36 52q41 -13 67 -13h5q92 0 128 107q12 44 12 78q0 116 -119 163q-36 10 -63 10h-17q-121 0 -169 -119q-26 -32 -46 -46h-2q-2 18 -2 28q0 18 2 44q0 83 -61 119q-14 7 -34 7h-25l-14 -2
q67 -73 67 -202v-13q0 -139 -84 -202q-26 -11 -49 -11q-78 0 -107 78q-18 80 -29 80h-5q-20 0 -31 -63q-18 -59 -55 -82q-24 -13 -48 -13q-104 0 -135 93q-10 34 -10 68q0 24 23 199q0 8 2 18q-4 50 -32 50h-10q-29 0 -29 -35v-4q0 -31 54 -94q-32 -13 -42 -13
q-65 58 -65 117v22q0 64 72 85h21z" />
    <glyph glyph-name="nabali.td" unicode="&#x1b26;&#x1b35;" horiz-adv-x="1309" 
d="M137 528h17q79 0 104 -114q4 -24 6 -120h36q4 0 4 5q0 158 156 216q44 11 94 11q158 0 224 -107h2q67 105 219 105q154 0 229 -127q31 -60 31 -130v-13q0 -129 -104 -214q-49 -34 -112 -34h-9q-49 0 -102 23v2l38 43q48 -11 73 -11q108 0 147 120q11 48 11 74
q0 131 -146 176q-28 6 -67 7q-119 0 -174 -85q-14 -26 -23 -80q-43 -39 -46 -39h-2q2 46 2 63q0 89 -81 122q-53 16 -121 16q-141 0 -173 -82q-10 -30 -10 -59q93 0 202 -48q100 -53 100 -145q0 -73 -90 -99q-25 -4 -39 -4h-25q-76 0 -158 76q-44 59 -44 134q-25 -2 -35 -2
h-9v-2q0 -152 -50 -185q-32 -21 -62 -21q-65 0 -92 61q-5 14 -8 42q0 113 142 177q12 4 12 10q0 158 -58 158h-9q-23 0 -29 -32v-8q0 -33 59 -97q-20 -12 -48 -12q-69 58 -69 119v24q0 59 58 82q16 4 29 4zM98 103v-2q0 -57 54 -57q51 0 67 78q4 39 4 53q-2 26 -2 37h-2
q-121 -39 -121 -109zM356 210q0 -5 -2 -8q0 -85 98 -133q49 -16 89 -16q46 3 58 35v4q0 85 -243 118z" />
    <glyph glyph-name="pabali.td" unicode="&#x1b27;&#x1b35;" horiz-adv-x="1258" 
d="M903 530h32q153 0 241 -129q32 -61 32 -111v-27q0 -138 -112 -221q-63 -34 -131 -34q-50 0 -123 22v6q41 46 41 49h2q55 -11 70 -11h16q103 0 153 117q11 39 11 72v2q0 120 -145 165q-38 9 -82 9q-146 0 -201 -106q-14 -202 -31 -233q-56 -100 -203 -100h-39
q-154 0 -225 98q-25 50 -25 120l14 174q0 51 -46 51q-38 -4 -38 -32v-8q0 -35 63 -96q0 -4 -50 -15q-77 59 -77 124v17q0 67 91 91q9 0 18 2q71 0 98 -68q5 -8 5 -25v-34q0 -26 -10 -160v-29q0 -90 116 -119q46 -10 98 -10q123 0 162 87q6 0 11 163q17 80 62 123
q82 76 202 76z" />
    <glyph glyph-name="bakembangbali.td" unicode="&#x1b2a;&#x1b35;" horiz-adv-x="1303" 
d="M576 529h34q139 0 196 -107q5 -13 8 -13q64 100 194 100h7q158 0 223 -155q15 -49 15 -90v-30q0 -99 -77 -186q-54 -48 -115 -48h-23q-36 0 -90 22v2q36 52 37 52q40 -13 61 -13h3q95 0 129 97q15 43 15 89q0 117 -123 162q-33 7 -64 9q-121 0 -168 -101q-17 -70 -24 -70
l-31 -13q-11 140 -28 140q-12 25 -66 46q-51 15 -96 15q-107 0 -139 -74q-14 -38 -14 -101q-2 -4 -2 -6h31q93 0 128 -105q4 -23 4 -27q0 -81 -63 -104q-13 -3 -22 -3h-6q-69 0 -106 73q-13 40 -13 57h-2q-121 -116 -147 -116q-20 -11 -51 -11q-80 0 -109 85q-6 13 -7 46
q0 58 35 111h4q33 -31 34 -39q-9 -29 -13 -63q9 -55 53 -55q28 0 130 90q56 48 70 50l-2 4q0 167 52 214q25 37 97 61q22 5 41 5zM137 522h7q83 0 104 -137q8 -43 13 -97q-14 -6 -62 -6q-18 149 -32 149q-11 13 -26 13h-8q-23 0 -28 -31v-7q0 -34 54 -94q0 -5 -41 -13h-2
q-66 55 -66 119v17q0 62 68 85q10 2 19 2zM437 173q0 -63 41 -88q21 -9 38 -9q29 0 36 36v6q0 49 -70 63q-42 -3 -45 -8z" />
    <glyph glyph-name="mabali.td" unicode="&#x1b2b;&#x1b35;" horiz-adv-x="1178" 
d="M864 527h8q169 0 239 -154q17 -49 17 -92v-9q0 -126 -83 -208q-57 -47 -136 -47q-47 0 -105 22v2q34 44 39 45q43 -13 70 -13q82 0 134 90q23 53 23 107q0 104 -109 156q-45 19 -104 19q-120 0 -177 -92q-17 -29 -17 -150q-9 -87 -29 -113q-36 -54 -103 -73
q-69 -17 -109 -17h-23q-175 0 -240 92q-14 24 -14 45v21q0 62 89 107q-87 38 -87 101q0 29 35 86h-2q-52 0 -72 -37q-4 -15 -4 -19v-15q0 -16 16 -55v-1q0 -3 -37 -34q-33 55 -33 90v7q0 82 105 117q61 11 137 11h12q209 0 209 -9v-62l-2 -4q-21 2 -31 2h-110
q-119 0 -149 -36q-16 -30 -16 -45q0 -59 122 -71q103 -3 103 -10v-31q0 -4 -4 -4q-219 0 -219 -88q0 -59 145 -81q23 -2 45 -2q120 0 182 51q37 28 37 127q0 155 70 210q67 64 178 64z" />
    <glyph glyph-name="yabali.td" unicode="&#x1b2c;&#x1b35;" horiz-adv-x="1280" 
d="M151 526q60 0 87 -70q4 -39 4 -49l-19 -222q0 -50 37 -89q20 -13 50 -13h12q81 0 116 165q16 118 16 230q8 6 15 6h27q12 -1 12 -6v-39q0 -134 39 -269q30 -74 85 -74h6q53 0 74 57q6 21 13 176q8 38 26 74q72 111 219 111q186 0 250 -174q10 -43 10 -73v-6
q0 -151 -101 -229q-54 -32 -109 -32h-13q-43 0 -99 21v4q34 43 35 43q48 -11 72 -11q92 0 139 100q18 48 18 94q0 122 -132 169q-36 9 -66 9h-10q-2 0 -2 2l-4 -2h-4q-104 0 -161 -77q-15 -19 -23 -57q2 -22 2 -32v-53q0 -138 -45 -170q-29 -32 -79 -32h-18q-108 0 -147 174
q-3 0 -16 -48q-46 -101 -83 -115q-30 -13 -68 -13q-113 0 -148 117q-7 41 -7 64v8q0 18 21 208v4q0 35 -39 41q-35 -4 -35 -32v-15q0 -25 55 -91q-17 -7 -45 -13q-68 61 -68 117v23q0 68 78 89h23z" />
    <glyph glyph-name="rabali.td" unicode="&#x1b2d;&#x1b35;" horiz-adv-x="1194" 
d="M499 530h12q118 0 182 -79q11 -21 17 -27q67 98 195 98q157 0 220 -151q19 -51 19 -108v-13q0 -130 -95 -215q-45 -35 -102 -35h-8q-47 0 -93 23v2q33 44 34 44q43 -11 67 -11q96 0 133 115q11 47 11 80q0 139 -144 179l-50 6q-93 0 -147 -67q-13 -21 -30 -85l-36 -46h-2
v29q0 107 -34 132q-48 46 -132 46q-140 0 -161 -88q-7 -39 -14 -225q-16 -80 -32 -80q0 -13 -57 -29l-82 -8l-2 4q17 208 17 296v8q0 121 -47 121h-8q-21 0 -27 -33v-8q0 -33 54 -98q-30 -13 -42 -13h-2q0 2 -36 42q-27 38 -27 83v21q0 55 63 84l19 2h7q62 0 86 -75
q15 -62 15 -161q0 -77 -13 -196q28 0 51 33q16 24 16 75v86q0 150 70 196q50 46 135 46z" />
    <glyph glyph-name="labali.td" unicode="&#x1b2e;&#x1b35;" horiz-adv-x="1303" 
d="M1027 523h24q111 0 175 -121q27 -60 27 -116v-30q0 -125 -76 -209q-47 -40 -103 -40q-49 0 -94 25q30 49 35 52q41 -13 57 -13q68 0 108 86q19 55 19 97v8q0 119 -111 164q-33 8 -59 8q-93 0 -137 -83q-19 -21 -19 -170q-9 -82 -27 -104q-44 -77 -133 -77h-25
q-123 0 -169 107q-19 22 -19 215q0 83 -52 102q-21 6 -45 6q-78 -10 -78 -80q-5 -94 -5 -163q2 -140 2 -181l-4 -2h-10q-108 0 -133 41q-29 37 -29 123q0 24 10 228q0 28 -20 38h-10q-29 -5 -29 -32v-9q0 -33 47 -96q-19 -9 -37 -13q-57 59 -57 116v22q10 92 78 92h3
q55 0 74 -67q2 -19 2 -30q-10 -197 -10 -234q0 -67 23 -80q17 -4 31 -4h8q0 299 22 333q40 88 120 88h5q102 0 133 -86q10 -23 10 -69v-15q0 -202 17 -202q30 -62 123 -62q102 0 125 73q12 35 19 181q18 90 64 131q55 52 130 52z" />
    <glyph glyph-name="wabali.td" unicode="&#x1b2f;&#x1b35;" horiz-adv-x="1315" 
d="M160 531q39 0 74 -41q20 -28 20 -81l-13 -206q0 -77 104 -103q39 -10 82 -10h17q105 0 140 72q22 65 22 130q0 126 -70 168q-21 11 -68 11q-5 0 -5 4v2q0 26 68 49q22 3 58 5q143 0 188 -102q79 91 219 91q182 0 254 -164q15 -49 15 -87v-26q0 -121 -104 -207
q-54 -36 -112 -36h-26q-40 0 -102 23v1q6 9 43 53q41 -13 72 -13h6q98 0 138 100q17 44 17 88q0 118 -131 166q-42 10 -70 10h-21q-99 0 -157 -72q-19 -48 -41 -68q-39 -47 -42 -47h-2l2 19v53q0 116 -89 141q-8 2 -17 2h-2v-2q44 -89 44 -170v-30q-7 -182 -129 -230
q-53 -16 -117 -16q-176 0 -235 109q-17 42 -17 92v13q0 20 11 149v30q0 51 -36 51q-34 0 -39 -38q0 -33 62 -98v-3l-47 -12q-74 59 -74 125v17q0 64 83 88h27z" />
    <glyph glyph-name="sasagabali.td" unicode="&#x1b30;&#x1b35;" horiz-adv-x="1317" 
d="M586 -7q-58 184 -143 263l-65 -49l-12 12l76 163q73 -45 114 -156.5t53 -227.5zM137 530h13q49 0 71 -57q5 -19 5 -39v-4q0 -19 -7 -173v-16q0 -94 21 -118q17 -11 39 -17v2q-23 69 -23 129v17q0 163 124 239q55 28 116 28h24q150 0 218 -129q26 -63 26 -118v-11
q0 -56 -23 -164h4q49 12 49 92q4 183 26 203q64 125 193 125h28q131 0 204 -135q22 -59 22 -108v-26q0 -121 -82 -210q-56 -39 -109 -39h-20q-38 0 -90 22l-2 4q36 45 36 50h2q52 -13 63 -13q89 0 129 109q14 40 14 79v3q0 76 -53 126q-51 48 -135 48q-115 0 -161 -98
q-13 -34 -13 -99v-56q0 -122 -63 -155q-28 -11 -68 -11h-52q-4 0 -4 4q43 140 43 241q0 125 -94 163q-51 18 -97 18h-11q-133 0 -172 -116q-10 -38 -10 -68v-20q0 -69 36 -211q-7 -3 -15 -3h-23q-43 0 -106 42q-49 34 -49 155q0 42 9 201q0 37 -24 37h-7q-29 -4 -29 -28v-13
q0 -31 51 -92q-29 -13 -41 -13q-62 58 -62 114v22q0 61 64 85q7 2 15 2z" />
    <glyph glyph-name="sasapabali.td" unicode="&#x1b31;&#x1b35;" horiz-adv-x="1234" 
d="M885 530h32q150 0 236 -126q31 -60 31 -109v-26q0 -136 -109 -217q-63 -34 -130 -34q-48 0 -120 23v5q40 45 40 48h3q54 -11 69 -11h15q101 0 149 115q12 39 12 71v2q0 117 -143 161q-37 9 -80 9q-143 0 -196 -104q-14 -197 -31 -228q-55 -98 -199 -98h-38
q-150 0 -220 96q-25 49 -25 117l14 171q0 50 -45 50q-38 -4 -38 -32v-7q0 -34 63 -95q0 -3 -49 -15q-76 59 -76 123v16q0 66 89 89q9 0 18 2q69 0 96 -66q4 -9 4 -25v-33q0 -25 -9 -157v-28q0 -88 114 -117q44 -9 96 -9q120 0 158 85q6 0 11 159q16 79 60 121q81 74 198 74z
M485 271h12q65 0 152 -260q7 -23 7 -38v-13q0 -12 -6 -31h-3q-116 258 -152 258q-15 -8 -28 -61h-2q-35 30 -35 51v14q0 47 46 78z" />
    <glyph glyph-name="sabali.td" unicode="&#x1b32;&#x1b35;" horiz-adv-x="1195" 
d="M860 526h36q131 0 212 -115q37 -64 37 -125v-26q0 -141 -106 -224q-60 -30 -118 -30q-45 0 -111 22v6q36 44 38 49h2q39 -9 71 -13q67 0 116 58q42 58 42 132v2q0 119 -133 164q-36 9 -75 9q-129 -7 -166 -75q-21 -36 -21 -170q0 -54 -31 -122q-41 -68 -100 -68h-17
q-77 0 -158 109q-62 66 -89 72q0 2 -2 2q0 -181 -123 -181q-73 0 -95 62q-9 19 -9 38v7q0 100 119 149q37 12 52 12q2 34 2 50v29q0 101 -67 101q-45 0 -52 -37v-8q0 -19 42 -64v-4q-4 0 -42 -26q-64 62 -64 107v14q0 60 77 86l41 6q125 0 125 -158v-8q0 -40 -4 -92
q65 0 164 -130q45 -53 92 -53q25 0 56 43q14 35 27 208q0 50 56 118q75 74 176 74zM129 100q8 -40 39 -40h9q35 0 48 61l6 71q-76 0 -102 -69v-23z" />
    <glyph glyph-name="habali.td" unicode="&#x1b33;&#x1b35;" horiz-adv-x="1332" 
d="M137 524q46 0 67 -58q7 -19 7 -49v-10q0 -29 -11 -179q0 -61 47 -111q43 -28 97 -28q90 0 121 58q19 33 19 185q11 116 32 138q30 51 98 51h17q96 0 133 -87q14 -49 14 -138v-188l-2 -14h2q41 0 56 25q19 27 19 185q8 70 26 103q61 114 184 114q147 0 205 -159
q14 -47 14 -83v-28q0 -136 -85 -221q-51 -30 -84 -30h-22q-43 0 -86 25v1l34 49h2q40 -11 53 -11h9q68 0 109 94q15 52 15 95v2q0 119 -109 164q-27 9 -60 9q-123 0 -155 -121q-5 -32 -5 -66v-60q0 -130 -59 -160q-23 -12 -64 -12h-50q5 159 5 236q0 136 -20 157
q-24 26 -74 26h-8q-71 0 -86 -58q-8 -32 -8 -68v-36q0 -170 -60 -221q-43 -45 -140 -45q-101 0 -159 87q-22 49 -22 117q0 13 10 181q0 62 -38 62q-23 0 -27 -32v-13q0 -27 46 -89v-6l-36 -11q-58 61 -58 119v23q0 66 65 86h22z" />
    <glyph glyph-name="kafsasakbali.td" unicode="&#x1b45;&#x1b35;" horiz-adv-x="1406" 
d="M131 528h16q74 0 96 -108q4 -17 6 -114h33q4 0 4 5q0 154 149 205q31 11 85 11q162 0 221 -127q15 -31 15 -121v-165h23q72 3 72 31q17 0 19 163q0 104 95 175q58 38 126 38h33q132 0 207 -127q25 -57 25 -103v-25q0 -133 -97 -214q-57 -29 -95 -29h-25q-48 0 -96 24v2
l38 47h2q45 -11 60 -11h10q78 0 124 90q17 50 17 91v2q0 116 -128 159q-34 7 -67 7q-114 0 -163 -88q-15 -34 -15 -95v-54q0 -138 -82 -159q-27 -6 -56 -6q-81 2 -81 8q0 316 -12 316q-16 44 -48 60q-41 26 -133 26q-171 0 -171 -133l4 -1h4q86 0 192 -51q81 -51 81 -127v-7
q0 -69 -87 -92q-24 -4 -41 -4h-2q-94 0 -168 83q-33 58 -33 116h-17l-24 -2q0 -146 -46 -177q-27 -18 -56 -18h-10q-55 0 -79 63q-3 10 -6 35q0 110 143 172v3q0 131 -40 149l-10 1h-12q-22 0 -27 -30v-8q0 -30 54 -92q0 -2 -2 -2q-34 -11 -40 -11q-66 58 -66 114v24
q0 56 54 78q15 3 27 3zM95 125v-2q0 -37 25 -49l23 -5q66 12 66 92q2 20 2 34q-2 26 -2 33q-114 -34 -114 -103zM334 226v-18q0 -54 66 -103q45 -26 99 -26h11q39 3 51 31v6q0 78 -213 108zM259 395h29q3 -1 3 -4v-230q0 -146 12 -193q40 -81 124 -81h18q78 0 114 95
q3 21 8 21h5q22 0 22 -6q0 -68 -55 -144q-41 -40 -99 -40h-18q-122 0 -159 153q-7 46 -7 88v337q0 4 3 4z" />
    <glyph glyph-name="khotsasakbali.td" unicode="&#x1b46;&#x1b35;" horiz-adv-x="2004" 
d="M131 526h15q75 0 97 -114q4 -19 6 -116h32q4 0 4 6q0 147 132 205q41 17 100 17q166 0 222 -132q15 -29 15 -146v-11q0 -68 54 -112q47 -28 100 -28h14q120 0 147 82q6 0 15 194q8 57 29 93q32 58 110 58h23q108 -3 141 -76q17 -52 17 -146v-128q0 -35 -2 -103
q74 8 74 67q0 233 29 269q59 110 192 110h18q148 0 218 -142q21 -54 21 -108v-28q0 -100 -79 -189q-55 -48 -118 -48h-23q-37 0 -93 22v2q33 47 41 52q37 -13 60 -13h4q98 0 133 103q13 46 13 82q0 141 -139 188q-37 6 -50 6q-153 0 -177 -181q0 -151 -29 -207
q-30 -33 -85 -33h-4q-46 0 -56 5q6 103 6 226v3q0 144 -27 159q-27 24 -79 24h-19q-71 0 -91 -52q-14 -32 -14 -80v-38q0 -183 -90 -227q-48 -26 -122 -26h-6q-141 0 -202 123q-9 18 -14 185q-9 49 -32 70q-43 41 -132 41h-44q-103 0 -139 -76q-8 -24 -8 -60q81 0 186 -46
q92 -52 92 -142q0 -68 -75 -95q-28 -8 -60 -8q-65 0 -139 60q-52 55 -52 119q-2 0 -4 27h-40v-2q0 -157 -50 -183q-20 -19 -54 -19h-4q-60 0 -83 66q-3 11 -6 35q0 109 131 173q12 4 12 10q0 154 -54 154h-4q-27 0 -31 -31v-8q0 -33 54 -95q-4 -4 -42 -15q-66 61 -66 121v23
q0 57 54 80q15 4 27 4zM94 112v-6q0 -40 29 -50q7 -4 16 -4h11q28 0 50 49q10 38 10 80q-2 25 -2 35q-114 -38 -114 -104zM334 211q0 -2 -2 -6q0 -78 85 -127q44 -16 84 -16h6q40 0 52 35v2q0 82 -218 114q-7 0 -7 -2z" />
    <glyph glyph-name="tzirsasakbali.td" unicode="&#x1b47;&#x1b35;" horiz-adv-x="1262" 
d="M135 530q71 -12 71 -76q1 -14 1 -44l-10 -170v-13q0 -74 34 -93q37 -23 127 -23q92 0 118 45q10 19 10 36v6q0 28 -21 40q-101 16 -122 36q-32 34 -32 89q0 81 85 136q60 26 107 26q172 0 213 -142q11 -20 11 -207v-63q64 0 64 110q0 160 33 202q60 98 174 98
q144 0 201 -153q13 -45 13 -80v-27q0 -130 -83 -212q-49 -29 -82 -29h-22q-41 0 -84 23v2l35 49q33 -12 52 -12h9q67 0 107 90q15 50 15 91v2q0 115 -107 158q-26 9 -59 9q-114 0 -149 -105q-8 -27 -8 -84v-49q0 -139 -70 -160q-17 -5 -39 -5h-37q-3 0 -3 4v101
q0 236 -17 236q-42 71 -153 71h-27q-127 -9 -127 -62q-2 0 -2 -11v-3q0 -28 39 -37q92 -19 120 -52q27 -33 27 -76q0 -75 -66 -133q-52 -38 -133 -38h-25q-96 0 -156 87q-23 38 -23 94q0 33 15 200q-5 42 -35 42q-27 -6 -27 -31v-9q0 -30 47 -93q-10 -5 -37 -12
q-57 57 -57 114v22q0 64 67 85h18zM263 341h29q3 0 3 -3v-201q0 -127 12 -168q40 -71 124 -71h19q78 0 114 83q3 18 9 18h5q22 0 22 -4q0 -60 -56 -126q-41 -35 -99 -35h-19q-122 0 -160 133q-7 40 -7 77v294q1 3 4 3z" />
    <glyph glyph-name="efsasakbali.td" unicode="&#x1b48;&#x1b35;" horiz-adv-x="1204" 
d="M863 530h30q147 0 230 -123q31 -58 31 -106v-25q0 -132 -107 -211q-61 -33 -125 -33q-48 0 -117 22v5q39 44 39 47h2q52 -11 67 -11h15q98 0 145 112q11 38 11 69v1q0 115 -139 157q-36 9 -78 9q-139 0 -190 -101q-14 -192 -31 -222q-53 -95 -193 -95h-37q-146 0 -214 94
q-24 47 -24 113l13 166q0 49 -43 49q-37 -3 -37 -31v-7q0 -33 60 -92q0 -3 -47 -14q-74 56 -74 119v16q0 64 87 87q9 0 17 1q68 0 93 -65q5 -8 5 -23v-32q0 -25 -9 -154v-27q0 -86 111 -114q43 -9 93 -9q117 0 154 83q5 0 11 156q15 76 58 117q78 72 193 72zM395 305h29
q4 0 4 -3v-200q0 -126 11 -167q40 -70 124 -70h19q77 0 113 82q3 18 9 18h5q22 0 22 -4q0 -59 -56 -125q-41 -35 -98 -35h-19q-122 0 -159 132q-7 40 -7 77v292q1 3 3 3z" />
    <glyph glyph-name="vesasakbali.td" unicode="&#x1b49;&#x1b35;" horiz-adv-x="1249" 
d="M154 524q36 0 70 -39q19 -27 19 -77l-13 -194q0 -73 99 -98q37 -9 78 -9h16q99 0 132 68q20 61 20 123q0 119 -66 158q-19 11 -64 11q-4 0 -4 4v1q0 25 64 47q21 3 54 5q136 0 179 -96q74 85 206 85q173 0 241 -155q14 -46 14 -82v-25q0 -114 -98 -196q-51 -33 -106 -33
h-25q-38 0 -96 21v2q5 8 40 50q39 -13 68 -13h7q92 0 130 95q16 41 16 83q0 112 -124 157q-40 9 -67 9h-20q-93 0 -148 -68q-18 -46 -38 -64q-37 -44 -40 -44h-2l2 17v50q0 111 -84 134q-8 2 -17 2h-2v-2q43 -84 43 -160v-29q-8 -172 -123 -217q-50 -16 -110 -16
q-166 0 -223 103q-16 40 -16 87v13q0 18 10 141v28q0 48 -34 48q-31 0 -36 -35q0 -32 58 -93v-4l-44 -10q-70 55 -70 117v16q0 61 78 84h26zM387 319h28q4 0 4 -3v-198q0 -126 12 -167q39 -69 122 -69h19q77 0 113 81q3 19 8 19h5q22 0 22 -5q0 -59 -55 -124
q-40 -35 -98 -35h-19q-121 0 -158 132q-7 39 -7 75v291q1 3 4 3z" />
    <glyph glyph-name="zalsasakbali.td" unicode="&#x1b4a;&#x1b35;" horiz-adv-x="1144" 
d="M823 522h33q125 0 202 -110q36 -61 36 -118v-25q0 -134 -101 -214q-57 -29 -113 -29q-43 0 -105 22v5q34 43 36 47h2q37 -9 67 -13q64 0 111 56q40 55 40 126v2q0 113 -127 156q-34 9 -71 9q-124 -7 -159 -72q-20 -35 -20 -162q0 -51 -30 -117q-38 -64 -95 -64h-15
q-74 0 -151 104q-60 63 -85 68q0 2 -2 2q0 -172 -117 -172q-70 0 -91 59q-8 18 -8 36v7q0 95 113 142q35 11 49 11q2 33 2 48v27q0 97 -63 97q-43 0 -50 -36v-7q0 -18 40 -61v-4q-3 0 -40 -25q-61 60 -61 103v12q0 58 73 83l40 5q119 0 119 -151v-7q0 -38 -4 -88
q61 0 156 -124q43 -50 87 -50q25 0 54 41q14 33 26 198q0 48 53 113q72 70 169 70zM125 116q7 -38 38 -38h8q33 0 45 58l6 68q-72 0 -97 -66v-22zM393 322h28q4 0 4 -3v-198q0 -125 11 -166q40 -70 123 -70h19q76 0 112 82q3 18 9 18h5q22 0 22 -4q0 -59 -56 -124
q-40 -35 -97 -35h-19q-121 0 -158 131q-7 40 -7 76v290q1 3 4 3z" />
    <glyph glyph-name="asyurasasakbali.td" unicode="&#x1b4b;&#x1b35;" horiz-adv-x="1833" 
d="M1498 519h29q160 0 235 -145q21 -54 21 -100v-31q0 -104 -91 -193q-61 -43 -125 -43h-13q-52 0 -108 25q0 2 42 51q50 -13 71 -13q107 0 145 108q13 44 13 80q0 93 -77 150q-57 39 -129 39q-113 0 -164 -87q-25 -58 -25 -219q-16 -72 -54 -108q-34 -26 -75 -26
q-94 0 -129 88q-19 43 -33 94h-2q-25 -105 -77 -156q-33 -26 -79 -26q-109 0 -148 89q-14 17 -20 254q-10 62 -40 71l-10 5q2 -67 2 -96v-167q0 -125 -61 -152q-23 -11 -43 -11h-17q-79 0 -166 117q-67 63 -83 63q0 -178 -123 -178q-73 0 -95 61q-9 18 -9 37v13q0 79 98 134
q49 18 73 18q2 40 2 59v19q0 100 -69 100q-50 -6 -50 -33v-12q0 -17 42 -63v-1l-40 -26h-6q-60 64 -60 102v14q0 52 60 80q24 11 61 11q79 0 108 -65q14 -33 14 -96q0 -37 -4 -91q51 -9 93 -50q81 -91 106 -113q27 -18 52 -18q43 0 52 64q4 28 4 62q0 80 -6 287l-2 17l4 1h7
q107 0 141 -44q31 -34 31 -147v-153q0 -44 35 -78q22 -13 50 -13h15q83 0 118 163q17 97 17 219q2 11 6 11h37q3 0 7 -6v-54q0 -126 43 -257q34 -63 77 -63h13q53 0 77 55q5 0 10 202q24 92 83 130q64 41 139 41zM129 111v-13q8 -39 39 -39h9q45 11 45 60q4 12 9 72
q-43 0 -83 -35q-19 -23 -19 -45z" />
    <glyph glyph-name="kamahapranabali.re" unicode="&#x1b14;&#x1b3a;" horiz-adv-x="1045" 
d="M126 524h15q69 0 90 -114q4 -23 5 -120h31q4 0 4 5q0 150 123 210q38 17 94 17q159 0 212 -143q9 -32 9 -99q0 -66 -4 -231q0 -17 13 -17h2q13 0 68 59q29 29 64 29h11q66 0 132 -113v-2q-10 -17 -15 -19q-57 73 -108 73q-22 0 -73 -46q-39 -21 -65 -21h-11q-68 0 -68 86
v6q1 117 1 186q0 121 -70 145q-37 17 -107 17q-122 0 -150 -81q-9 -34 -9 -60h2q94 0 191 -59q69 -50 69 -133q0 -74 -79 -99q-22 -4 -35 -4h-13q-69 0 -137 69q-44 50 -44 137l-3 4q-9 0 -36 -2q0 -155 -44 -187q-23 -19 -50 -19h-13q-50 0 -72 67q-3 10 -6 36
q0 109 121 175q13 2 13 10q0 158 -51 158h-7q-20 0 -25 -32v-8q0 -33 50 -97q-28 -14 -39 -14h-2l-38 48q-22 37 -22 72v25q0 59 51 82q13 4 25 4zM92 99v-2q0 -57 49 -57q31 0 52 55q7 44 7 76q-2 26 -2 37h-1q-105 -38 -105 -109zM316 206q0 -8 -2 -8q0 -74 69 -124
q45 -25 92 -25q53 10 53 37v7q0 72 -185 109q-7 0 -27 4zM819 16h48q4 -1 4 -5v-276q0 -313 -91 -408q-59 -90 -224 -137q-43 -10 -76 -10h-39q-185 0 -306 132q-87 123 -87 279v41q0 149 78 245l26 24q45 -19 45 -27q-91 -97 -91 -268q0 -226 190 -306q83 -25 158 -25
q241 0 320 184q41 91 41 450v102q0 5 4 5zM685 -463h11q59 0 138 -257q6 -23 6 -38v-12q0 -13 -4 -31h-4q-105 255 -137 255q-14 -8 -26 -60h-1q-32 29 -32 50v14q0 46 41 77z" />
    <glyph glyph-name="nyabali.re" unicode="&#x1b1c;&#x1b3a;" horiz-adv-x="1468" 
d="M1027 -438h11q56 0 131 -225q6 -20 6 -33v-11q0 -11 -5 -27h-3q-100 224 -131 224q-13 -8 -24 -53h-2q-30 25 -30 43v13q0 41 39 67zM146 527q85 -12 85 -95q2 0 2 -23q0 -28 -12 -207q0 -74 39 -97q30 -16 43 -16v2q-23 88 -23 156v17q0 195 115 251q34 12 53 12h16
q48 0 94 -53q18 -26 18 -35q47 86 112 86h20q85 0 133 -103q20 -52 20 -148v-120q0 -20 -2 -61q68 0 68 122q0 147 38 190q69 101 206 101q152 0 223 -129q24 -47 24 -103v-34q0 -102 -79 -194q-54 -46 -117 -46h-22q-44 0 -96 23q5 11 39 51q45 -11 61 -11h14q86 0 125 102
q10 38 10 71v11q0 118 -114 158q-40 11 -76 11q-95 0 -151 -64q-32 -26 -32 -156q0 -144 -59 -171q-27 -15 -62 -15h-51l-4 1q6 121 6 257v15q0 121 -79 149q-16 4 -33 4h-4q-77 0 -112 -132l-4 -2h-4q-4 3 -27 75q-31 59 -91 59q-119 0 -119 -185q0 -81 45 -232v-2h-38
q-132 0 -166 89q-12 25 -12 92l14 188q0 63 -44 63q-31 -6 -31 -33v-9q0 -32 55 -97q-17 -8 -43 -13q-67 60 -67 119v23q0 68 77 88h19zM291 -20q49 -13 52 -13v-9q-152 -167 -152 -342q0 -219 246 -302q91 -27 173 -27h42l31 -4q243 0 393 153q74 108 74 220v27
q0 123 -95 266q54 22 68 22q100 -145 100 -265v-63q0 -229 -220 -369q-170 -77 -304 -77h-68q-343 0 -477 252q-31 81 -31 153v45q0 174 162 333h6z" />
    <glyph glyph-name="khotsasakbali.re" unicode="&#x1b46;&#x1b3a;" horiz-adv-x="1696" 
d="M1439 -436h11q56 0 131 -225q6 -20 6 -33v-11q0 -11 -5 -27h-3q-100 224 -131 224q-13 -8 -24 -53h-2q-30 25 -30 43v13q0 41 39 67zM128 523h15q71 0 93 -113q4 -23 6 -119h32q3 0 3 6q0 160 144 213q30 11 82 11q163 0 216 -143q11 -32 11 -127v-21q0 -80 65 -122
q43 -21 94 -21q101 0 134 58q22 23 22 174q1 56 24 131q35 69 114 69h19q154 0 154 -166q2 -22 4 -102q-2 -144 -4 -191q69 10 69 61q4 44 4 128v265q1 4 4 4q108 0 143 -89q13 -46 13 -174v-240q0 -4 -4 -4h-37q-4 0 -4 4v212q0 170 -27 183q0 10 -43 23q-2 -60 -2 -89
v-132q0 -157 -39 -182q-31 -19 -73 -19q-42 2 -52 6q5 85 5 206v49q0 118 -26 140q-29 22 -72 22h-23q-65 0 -85 -49q-15 -31 -15 -92v-44q0 -198 -123 -232q-47 -11 -90 -11q-112 0 -181 98q-24 26 -24 179q0 104 -74 134q-47 16 -108 16q-124 0 -153 -78q-11 -32 -11 -62
h2q92 0 195 -57q73 -53 73 -130v-6q0 -70 -80 -96q-23 -4 -36 -4h-22q-69 0 -144 77q-37 60 -37 131q-22 -2 -31 -2h-8q0 -155 -47 -187q-28 -19 -54 -19q-58 0 -82 60q-5 15 -7 42q0 112 127 176q11 3 11 9q0 157 -52 157h-8q-21 0 -26 -32v-8q0 -33 52 -96
q-17 -11 -43 -11q-61 57 -61 117v24q0 58 52 81q14 4 26 4zM93 102v-2q0 -57 48 -57q46 0 60 78q4 36 4 53q-2 25 -2 36h-2q-108 -39 -108 -108zM324 208q0 -10 -2 -10q0 -69 69 -121q48 -24 99 -24q43 4 52 34v9q0 44 -84 80q-52 20 -134 32zM240 -9q39 -10 39 -22
q-231 -179 -231 -362q0 -284 595 -363q60 -5 118 -5h89q422 0 658 222q84 97 84 227v5q0 103 -148 287v6h45q157 -145 157 -293v-54q0 -178 -221 -330q-270 -130 -566 -130h-108q-598 17 -732 309q-25 58 -25 108v38q0 195 246 357z" />
    <glyph glyph-name="asyurasasakbali.re" unicode="&#x1b4b;&#x1b3a;" horiz-adv-x="1520" 
d="M1249 -513h11q56 0 131 -225q6 -20 6 -33v-11q0 -11 -5 -27h-3q-100 224 -131 224q-13 -8 -24 -53h-2q-30 25 -30 43v13q0 41 39 67zM149 530h23q66 0 92 -77q10 -36 10 -90q0 -34 -4 -93q60 0 157 -140q38 -46 74 -46q39 0 48 67q4 30 4 65q0 125 -8 312l4 2
q118 0 146 -63q19 -30 19 -148v-145q0 -52 40 -86q22 -8 38 -8h14q80 0 111 180q13 104 13 216q3 8 6 8h34q3 0 6 -6q0 -18 -2 -32q0 -151 44 -293q30 -59 73 -59h7q50 0 71 57q6 35 6 109v255q0 3 4 3q130 0 156 -78q22 -22 22 -207v-218q0 -4 -4 -4h-40l-4 2
q-9 387 -19 387q-23 48 -69 48q2 -195 2 -226q0 -141 -50 -184q-28 -30 -71 -30q-88 0 -118 91q-19 45 -31 96h-2q-39 -187 -142 -187q-99 0 -133 84q-22 32 -22 247q-9 82 -22 82q-12 14 -25 17v-2q2 -75 2 -113v-155q0 -129 -56 -157q-21 -11 -40 -11h-15q-74 0 -153 121
q-57 60 -77 65q0 -184 -113 -184q-67 0 -88 63q-7 19 -7 38v8q0 99 107 151q38 12 49 12q2 41 2 61v15q0 107 -61 107q-42 0 -48 -38v-8q0 -19 39 -65v-4q-4 0 -39 -26q-59 62 -59 109v13q0 61 71 88q18 4 28 4zM123 115v-14q7 -40 36 -40h8q42 12 42 61q4 16 7 73
q-66 0 -91 -65q-2 -7 -2 -15zM180 -9q36 -10 36 -22q-212 -182 -212 -367q0 -288 546 -368q55 -5 108 -5h81q387 0 605 224q76 99 76 231v5q0 105 -135 291v6h41q144 -147 144 -297v-55q0 -180 -203 -334q-248 -132 -519 -132h-99q-549 17 -672 313q-23 58 -23 110v38
q0 197 226 362z" />
    <glyph glyph-name=".notdef" horiz-adv-x="600" 
d="M94 0v714h411v-714h-411zM145 663v-612h309v612h-309z" />
    <glyph glyph-name=".null" 
 />
    <glyph glyph-name=".null" 
 />
    <glyph glyph-name="nonmarkingreturn" horiz-adv-x="260" 
 />
    <glyph glyph-name="space" unicode=" " horiz-adv-x="109" 
 />
    <glyph glyph-name="nonbreakingspace" unicode="&#xa0;" horiz-adv-x="260" 
 />
    <glyph glyph-name="signuluricemcombbali" unicode="&#x1b00;" 
d="M-399 671q-60 47 -64 105l-1 17q0 53 70 85q35 10 72 10q82 0 113 -59q8 -19 8 -47q0 -50 -47 -104q-5 0 -28 21q32 39 32 75q0 66 -76 66l-21 -1q-67 -5 -79 -64q0 -27 40 -79q-16 -25 -19 -25zM-345 1025h33q172 0 247 -121q23 -46 23 -84v-25q0 -98 -80 -175
q-53 -44 -124 -56v37q1 3 39 17q101 66 101 185v2q0 111 -124 147q-39 13 -78 13h-31q-157 0 -200 -109q-8 -28 -8 -53v-2q0 -116 138 -183q32 -15 33 -19v-37q0 -4 -4 -4q-127 34 -179 105q-52 67 -52 130v27q0 124 148 186q67 19 118 19z" />
    <glyph glyph-name="signulucandracombbali" unicode="&#x1b01;" 
d="M-394 1078h4q13 -64 24 -186l-4 -1q-8 0 -22 1q-17 -1 -29 -1q-4 4 -4 7q0 37 31 180zM-586 974h12q32 -5 32 -23v-6q0 -16 -22 -22h-2q-7 0 -28 4q-27 0 -51 -51q-6 -18 -8 -45q0 -73 79 -134q89 -51 190 -51q177 0 234 123q12 32 12 61v21q0 48 -43 68h-4q-2 0 -24 -4
q-34 6 -34 28v8q14 23 36 23q74 0 113 -98q6 -20 6 -41v-15q0 -114 -113 -201q-85 -47 -167 -47h-28q-108 0 -206 62q-99 78 -99 174v20q0 90 81 138q19 8 34 8zM-399 867q124 -6 150 -75l2 -11v-18q0 -37 -67 -70q-36 -16 -74 -16q-96 0 -142 63q-10 16 -10 39q0 59 117 86
q17 0 24 2zM-505 773q0 -29 74 -53q21 -6 39 -6q71 0 110 47q3 8 3 14q0 20 -59 47q-17 8 -56 11q-65 0 -107 -46q-4 -8 -4 -14z" />
    <glyph glyph-name="signcecekcombbali" unicode="&#x1b02;" 
d="M-124 601q-119 180 -240 243l-63 -68l-17 9l44 191q99 -29 177.5 -136.5t123.5 -227.5z" />
    <glyph glyph-name="signsurangcombbali" unicode="&#x1b03;" 
d="M-84 617q-228 -18 -360 106q-113 116 -148 284l80 -14q46 -142 127 -241q105 -121 305 -117z" />
    <glyph glyph-name="signbisahbali" unicode="&#x1b04;" horiz-adv-x="432" 
d="M195 530h22q117 0 161 -115q2 -15 2 -25v-11q0 -109 -126 -154h-3v-5q83 -31 118 -112q13 -42 13 -64v-28q0 -76 -140 -369q-27 -78 -27 -161v-5q0 -108 52 -188l-4 -2h-23q-64 65 -77 145q-11 49 -13 101q0 126 135 387q30 77 30 124q0 114 -168 142q-70 12 -70 16v3
q0 41 9 41q107 0 192 44q48 35 48 73v21q0 47 -70 75q-20 5 -45 7q-91 0 -102 -85v-2q0 -16 25 -39l2 -14v-4q-7 -28 -27 -28h-7q-52 19 -52 78v19q0 91 113 130q17 5 32 5z" />
    <glyph glyph-name="akarabali" unicode="&#x1b05;" horiz-adv-x="1121" 
d="M337 535q145 0 235 -126q37 -59 43 -106l-4 -2h-15l-24 -2q-75 175 -223 175h-13q-101 0 -176 -78q-51 -58 -51 -119v-22q0 -111 115 -152q33 -9 70 -9q54 0 102 35q10 13 10 24v9q0 27 -39 30q-131 5 -131 11q-7 9 -8 9q0 28 57 28q91 0 101 48v13q-10 39 -64 39
q-37 0 -41 -20v-2q8 -22 8 -24v-4q0 -20 -30 -24h-4q-39 7 -39 54v2q0 49 75 76q23 5 33 5q76 0 103 -59q6 -23 6 -32q0 -43 -41 -79q61 -30 61 -76v-10q0 -82 -108 -118q-36 -8 -70 -8q-115 0 -188 102q-37 65 -37 143v6q0 130 121 218q75 45 166 45zM912 524
q116 0 149 -85q10 -33 10 -127v-70q0 -79 -2 -217l-4 -2h-41q-4 0 -4 4v13q0 88 2 152q0 171 -23 219q-28 35 -59 35q-3 -321 -18 -321q-4 -17 -10 -20q53 -114 53 -160v-3q0 -9 -6 -32h-2q-4 3 -76 148l-4 2q-42 -41 -139 -41h-2q-169 0 -221 117q-11 31 -19 60l4 1
q57 0 57 -14q43 -91 185 -91q60 0 100 29q-21 34 -41 39h-2q-16 -12 -25 -57q-15 0 -40 37l-1 19q0 46 41 79q15 6 21 6h2q42 0 84 -78h2q8 27 8 72v241q0 13 -2 41q3 2 23 4z" />
    <glyph glyph-name="akaratedungbali" unicode="&#x1b06;" horiz-adv-x="1394" 
d="M330 533q138 0 224 -122q46 -80 46 -110q-6 -3 -11 -3h-18l-13 -2q-75 175 -213 175h-21q-75 0 -148 -58q-69 -67 -69 -140v-22q0 -107 107 -151q19 -8 72 -11q48 0 99 33q11 16 11 28v8q0 28 -45 31q-124 0 -124 13q-4 7 -4 12q0 24 92 24q44 0 62 48v12q0 31 -59 39h-5
q-38 0 -38 -21v-2q7 -22 7 -24v-4q-6 -24 -30 -24h-4q-36 8 -36 56q0 42 57 71q23 11 51 11q75 0 99 -67q4 -17 4 -24q0 -42 -40 -80q59 -29 59 -81q0 -87 -101 -123q-42 -9 -68 -9q-124 0 -194 116q-29 64 -29 130v6q0 132 118 220q73 45 162 45zM1123 525q155 0 211 -166
q10 -45 10 -78v-10q0 -124 -74 -209q-49 -41 -114 -41q-42 0 -88 23q26 39 29 45h2q42 -12 59 -12h1q88 0 126 118q10 39 10 71q0 128 -122 170q-27 7 -57 7q-95 0 -145 -74q-23 -38 -23 -114q-11 -110 -25 -140q48 -108 48 -151l-6 -34h-5q0 4 -65 136h-2q-50 -52 -150 -52
h-2q-141 0 -200 88q-36 54 -36 138q0 3 4 3h40q2 0 13 -50q16 -44 61 -71q53 -26 114 -26h6q4 0 7 -2q54 0 105 38l2 3q-32 47 -48 47q-17 -14 -26 -60h-2q-36 29 -36 51v9q0 49 41 78q12 6 19 6q43 0 84 -80h2q8 32 19 155q42 184 213 184z" />
    <glyph glyph-name="ikarabali" unicode="&#x1b07;" horiz-adv-x="893" 
d="M438 531h13q66 0 110 -84v-4h2q45 86 106 86l10 2q101 0 149 -123q15 -59 15 -144v-70q0 -194 -8 -194h-48l-4 2q2 99 2 146v105q0 139 -50 171q-25 13 -56 13h-2q-75 0 -108 -132l-6 -4h-4q-3 0 -21 64q-31 70 -81 70h-21q-84 0 -102 -130q-4 -35 -4 -60q0 -75 44 -237
h-27q-183 0 -183 165q0 15 13 212q-5 60 -38 60h-2q-33 -4 -33 -33v-8q0 -36 54 -99q0 -4 -42 -15q-66 63 -66 122v23q0 66 69 90q11 2 20 2q90 0 90 -119v-10l-9 -200v-11q0 -68 36 -90q31 -15 43 -15q-25 91 -25 173q0 200 106 260q34 16 58 16zM571 -356h-21
q-85 0 -134 88q-2 2 -2 6q34 23 36 23q38 -55 104 -59q54 3 62 33v1q0 22 -108 56q-49 19 -49 56v7q0 41 73 58h25q35 0 85 -25q-25 -39 -32 -44q-30 19 -59 19q-30 0 -36 -15q9 -15 90 -41q58 -25 58 -71v-11q0 -49 -69 -78q-15 -3 -23 -3z" />
    <glyph glyph-name="ikaratedungbali" unicode="&#x1b08;" horiz-adv-x="1491" 
d="M438 535h14q65 0 110 -83v-4h2q44 85 106 85l10 2q100 0 148 -122q16 -60 16 -144v-70q0 -195 -8 -195h-48l-4 2q2 99 2 146v105q0 140 -50 171q-25 14 -56 14h-2q-76 0 -109 -132l-5 -4h-4q-4 0 -21 64q-31 70 -82 70h-21q-83 0 -102 -130q-4 -36 -4 -61q0 -74 44 -237
h-27q-183 0 -183 165q0 15 13 212q-4 61 -38 61h-2q-33 -4 -33 -33v-8q0 -36 54 -99q0 -5 -42 -16q-66 63 -66 123v23q0 66 70 89q10 2 19 2q91 0 91 -118v-10l-10 -200v-12q0 -67 37 -90q30 -15 42 -15q-25 91 -25 173q0 201 106 261q34 15 58 15zM1161 508h9
q178 0 249 -153q22 -51 22 -110v-5q0 -134 -86 -212q-66 -51 -140 -51h-9q-47 0 -103 22v2q35 45 39 47q42 -12 71 -12h10q81 0 134 94q24 56 24 108q0 122 -136 172q-40 12 -88 12q-158 0 -214 -155q-5 -31 -10 -31h-31q-4 0 -4 4q0 78 47 164q79 104 216 104zM581 -356
h-21q-85 0 -134 88q-2 2 -2 6q34 23 36 23q38 -55 104 -59q54 3 62 33v1q0 22 -108 56q-49 19 -49 56v7q0 41 73 58h25q35 0 85 -25q-25 -39 -32 -44q-30 19 -59 19q-30 0 -36 -15q9 -15 90 -41q58 -25 58 -71v-11q0 -49 -69 -78q-15 -3 -23 -3z" />
    <glyph glyph-name="ukarabali" unicode="&#x1b09;" horiz-adv-x="742" 
d="M410 527h21q120 0 166 -151q6 -27 6 -56q0 -204 -241 -382q-272 -212 -272 -331v-14q0 -89 86 -119l30 -7v72q0 153 115 222q56 33 136 33h6q182 0 245 -144q9 -29 9 -52v-22q0 -68 -60 -190q-29 -50 -45 -68q-23 -4 -39 -4q0 2 -2 2q84 161 84 241q0 95 -84 134
q-56 20 -114 20q-132 0 -174 -93q-17 -40 -17 -110q0 -33 8 -131l-4 -2h-19q-132 0 -187 83q-39 57 -39 131v29q0 143 198 311q154 120 225 186q95 103 95 209q0 98 -84 119q-34 3 -38 3q-66 0 -89 -63q-4 -17 -4 -27v-3q0 -51 36 -176h-8q-129 0 -157 50q-26 42 -26 101
q0 66 35 147h47l4 -2q-34 -70 -34 -119v-16q0 -61 38 -86q10 -5 18 -5q-22 72 -22 115q0 111 99 156q27 9 52 9z" />
    <glyph glyph-name="ukaratedungbali" unicode="&#x1b0a;" horiz-adv-x="1181" 
d="M406 541h27q116 0 165 -151q8 -41 8 -64q0 -217 -243 -404q-190 -162 -237 -241q-35 -61 -35 -106v-15q0 -92 82 -125q25 -7 34 -7v71q0 191 151 255q47 17 103 17q186 0 250 -153q9 -34 9 -56v-27q0 -57 -35 -207q-47 -6 -64 -6q0 2 -2 2q41 148 41 198q0 82 -68 130
q-57 30 -114 30h-30q-116 0 -160 -88q-21 -40 -21 -123q0 -39 8 -140q-2 0 -2 -1q-133 0 -180 54q-68 66 -68 170v30q0 175 265 383q89 68 180 166q75 98 75 195q0 88 -63 117q-16 7 -59 11q-65 0 -88 -62q-6 -12 -6 -30v-12q0 -50 36 -179q-2 0 -2 -2q-133 0 -163 55
q-27 44 -27 104q0 73 36 156h47l4 -2q-34 -71 -34 -126v-17q0 -48 26 -81q15 -13 30 -13q-22 73 -22 122q0 113 96 161q27 11 50 11zM879 539h8q160 0 225 -138q19 -45 19 -98v-6q0 -120 -77 -190q-59 -46 -126 -46h-8q-42 0 -93 19v2q31 41 35 42q38 -10 64 -10h9
q73 0 121 84q21 51 21 97q0 110 -122 156q-36 10 -80 10q-142 0 -192 -139q-5 -28 -9 -28h-28q-4 0 -4 3q0 71 43 148q71 94 194 94z" />
    <glyph glyph-name="rarepabali" unicode="&#x1b0b;" horiz-adv-x="898" 
d="M163 535q99 -13 99 -96q2 0 2 -23v-4q0 -43 -14 -200q0 -72 83 -108q57 -21 133 -21q116 0 161 79q7 29 7 69v225q0 22 -2 71l5 2h4q16 0 28 2q126 0 168 -81q11 -26 11 -81v-280q0 -30 -2 -81l-5 -2h-55l-4 2q2 118 2 177v38q0 186 -39 202q-14 10 -44 16
q0 -306 -23 -337q-50 -104 -205 -104h-34q-174 0 -239 115q-17 48 -17 101q0 17 14 167q0 65 -20 65q-1 4 -17 6h-11q-29 0 -35 -29v-11q0 -34 65 -98q-38 -14 -51 -14h-2q0 2 -44 42q-32 39 -32 83v19q0 67 87 89h26zM481 -366h-21q-85 0 -134 88q-2 2 -2 6q34 23 36 23
q38 -55 104 -59q54 3 62 33v1q0 22 -108 56q-49 19 -49 56v7q0 41 73 58h25q35 0 85 -25q-25 -39 -32 -44q-30 19 -59 19q-30 0 -36 -15q9 -15 90 -41q58 -25 58 -71v-11q0 -49 -69 -78q-15 -3 -23 -3z" />
    <glyph glyph-name="rarepatedungbali" unicode="&#x1b0c;" horiz-adv-x="1383" 
d="M154 535q91 -13 91 -96q2 0 2 -23v-3q0 -43 -12 -199q0 -72 76 -108q53 -21 123 -21q107 0 149 79q6 29 6 69v224q0 22 -2 70l4 2h5q14 0 25 2q117 0 155 -80q11 -27 11 -81v-279q0 -29 -3 -80l-4 -2h-51l-4 2q2 117 2 176v38q0 185 -36 201q-12 10 -40 15
q0 -304 -21 -335q-47 -103 -189 -103h-32q-161 0 -221 115q-15 47 -15 99q0 18 13 167q0 65 -19 65q-1 4 -15 6h-11q-26 0 -32 -29v-12q0 -33 60 -97q-35 -13 -47 -13h-2q0 1 -40 42q-30 38 -30 82v19q0 66 81 88h23zM1073 515h8q166 0 232 -153q20 -51 20 -110v-6
q0 -134 -80 -212q-61 -51 -130 -51h-8q-44 0 -96 22v2q32 45 36 47q39 -12 66 -12h10q75 0 124 94q22 56 22 108q0 122 -126 173q-38 12 -82 12q-147 0 -199 -156q-5 -31 -10 -31h-28q-4 0 -4 4q0 79 44 165q73 104 201 104zM481 -366h-21q-85 0 -134 88q-2 2 -2 6
q34 23 36 23q38 -55 104 -59q54 3 62 33v1q0 22 -108 56q-49 19 -49 56v7q0 41 73 58h25q35 0 85 -25q-25 -39 -32 -44q-30 19 -59 19q-30 0 -36 -15q9 -15 90 -41q58 -25 58 -71v-11q0 -49 -69 -78q-15 -3 -23 -3z" />
    <glyph glyph-name="lalengabali" unicode="&#x1b0d;" horiz-adv-x="961" 
d="M442 539h14q61 0 109 -89v-6q47 91 98 91q0 2 22 4q141 0 194 -177q13 -62 13 -120v-37q0 -162 -72 -405q28 7 82 47q2 -3 8 -41q-31 -47 -88 -66q-30 -5 -30 -18q-91 -267 -221 -437q-75 -89 -114 -103q-17 44 -17 54q72 74 72 127v13q0 99 -172 201q-116 80 -116 161
v16q0 151 134 200q29 4 41 4q84 0 192 -90q96 -66 154 -66q10 15 38 125q37 169 37 291q0 157 -71 206q-25 16 -62 16h-4q-78 0 -110 -138l-8 -8q-8 0 -19 56q-30 88 -90 88h-20q-88 0 -104 -148q-2 -13 -2 -35v-19q0 -83 67 -230q-25 -9 -81 -13q-88 0 -141 77
q-15 42 -15 84l13 235q-6 61 -35 61q-33 0 -33 -41v-8q0 -28 55 -101q-33 -14 -43 -14q-67 65 -67 129v25q0 72 74 95h26q59 0 84 -76q4 -26 4 -44q0 -23 -21 -220v-10q0 -73 27 -97q14 -12 29 -12h22q-35 73 -35 173q5 224 131 278q27 12 51 12zM283 -221q0 -88 77 -128
q78 -49 129 -98q70 -101 70 -173q55 74 90 152q46 111 73 194q-107 0 -257 129q-44 33 -92 33q-57 0 -84 -74z" />
    <glyph glyph-name="lalengatedungbali" unicode="&#x1b0e;" horiz-adv-x="1020" 
d="M933 -154h5q50 0 88 -48q25 -38 25 -78q0 -63 -53 -94q-2 -1 -31 -19v0q38 -10 53 -22q15 -10 34 -35q19 -30 19 -77q0 -99 -66 -139q-30 -16 -61 -16q-39 0 -71 20q-11 7 -34 35q-30 45 -30 98v9q0 36 22 51h6q16 0 20 -20q3 -7 3 -14v-3q-3 -28 -3 -30v-4q0 -29 35 -52
q15 -9 37 -9q63 0 81 55q5 15 5 29v7q0 37 -29 65q-15 12 -37 18q-40 10 -74 10h-20q-20 0 -24 16v4q0 19 47 23q55 9 73 18q22 10 33 35q2 10 2 16q0 30 -21 51q-21 12 -43 12h-2q-56 0 -79 -77q-7 -17 -13 -17h-2q-8 0 -9 25q0 40 22 89q36 68 92 68zM442 539h14
q61 0 109 -89v-6q47 91 98 91q0 2 22 4q141 0 194 -177q13 -62 13 -120v-37q0 -162 -72 -405q28 7 82 47q2 -3 8 -41q-31 -47 -88 -66q-30 -5 -30 -18q-91 -267 -221 -437q-75 -89 -114 -103q-17 44 -17 54q72 74 72 127v13q0 99 -172 201q-116 80 -116 161v16
q0 151 134 200q29 4 41 4q84 0 192 -90q96 -66 154 -66q10 15 38 125q37 169 37 291q0 157 -71 206q-25 16 -62 16h-4q-78 0 -110 -138l-8 -8q-8 0 -19 56q-30 88 -90 88h-20q-88 0 -104 -148q-2 -13 -2 -35v-19q0 -83 67 -230q-25 -9 -81 -13q-88 0 -141 77q-15 42 -15 84
l13 235q-6 61 -35 61q-33 0 -33 -41v-8q0 -28 55 -101q-33 -14 -43 -14q-67 65 -67 129v25q0 72 74 95h26q59 0 84 -76q4 -26 4 -44q0 -23 -21 -220v-10q0 -73 27 -97q14 -12 29 -12h22q-35 73 -35 173q5 224 131 278q27 12 51 12zM283 -221q0 -88 77 -128q78 -49 129 -98
q70 -101 70 -173q55 74 90 152q46 111 73 194q-107 0 -257 129q-44 33 -92 33q-57 0 -84 -74z" />
    <glyph glyph-name="ekarabali" unicode="&#x1b0f;" horiz-adv-x="790" 
d="M329 538h21q61 0 149 -34v-2q-10 -44 -17 -44q-75 22 -129 22q-164 0 -216 -159q-7 -22 -7 -48q0 -121 85 -179q24 -12 59 -16v2q-34 85 -34 133v4q0 122 144 158q34 6 66 6q193 0 273 -200q17 -46 17 -97v-42q0 -5 -47 -18q-2 4 -2 6q0 210 -156 269q-46 12 -79 12
q-119 0 -137 -94q0 -7 -2 -18q0 -69 72 -167v-2q-37 -30 -91 -30h-22q-74 0 -163 80q-63 77 -63 175v28q0 103 102 193q77 62 177 62z" />
    <glyph glyph-name="aikarabali" unicode="&#x1b10;" horiz-adv-x="1187" 
d="M1038 741h8q30 0 71 -56q20 -41 20 -72v-15q0 -45 -43 -78q19 -73 19 -202v-33q0 -197 -32 -848q-22 -168 -58 -204q-52 -67 -132 -67h-19q-152 0 -189 219q-26 109 -67 109q0 3 -22 4h-12q-65 0 -95 -143q-56 -189 -177 -189h-28q-89 0 -148 104q-37 78 -37 176
q0 305 254 377q58 24 246 52q107 27 159 79q116 117 116 271v17q0 97 -58 163q-37 26 -71 26h-17q-73 0 -112 -143l-7 -5q-6 2 -30 81q-29 67 -97 67q-75 0 -101 -72q-21 -51 -21 -117v-19q0 -86 64 -256v-3q-35 -2 -53 -2q-163 0 -192 148q-2 19 -2 32v31l15 204v8
q0 24 -24 59q0 5 -19 6q-37 -4 -37 -37v-8q0 -40 61 -111q0 -5 -48 -17q-73 70 -73 136v26q0 73 77 100q3 0 22 2q75 0 103 -80q5 -30 5 -45q0 -24 -20 -202v-44q0 -95 56 -115l28 -8v2q-36 91 -36 191q6 232 139 282q32 11 52 11h15q68 0 116 -91v-5q40 66 54 70
q0 12 73 26q111 0 181 -141q30 -67 30 -135v-30q0 -166 -97 -308q-75 -91 -137 -115q-86 -44 -138 -44q-211 -31 -282 -67q-116 -73 -116 -236v-13q0 -144 90 -176l20 -2q85 0 114 91q60 192 109 223q41 31 91 31q103 0 140 -124q56 -206 86 -206q19 -20 56 -20h4
q75 0 101 87q20 39 35 395q32 466 32 631q0 137 -22 137q-70 12 -107 39q-54 44 -54 100q0 58 43 65h4q62 0 127 -102h2q28 11 28 35t-43 80v6q0 4 7 7zM941 646q0 -23 52 -37q-26 37 -52 37z" />
    <glyph glyph-name="okarabali" unicode="&#x1b11;" horiz-adv-x="981" 
d="M140 534h14q58 0 84 -71q4 -26 6 -57q-12 -208 -12 -216q0 -95 47 -114q26 -13 37 -13q-37 93 -37 190q0 152 82 238q58 43 106 43h14q65 0 115 -88v-6q49 88 94 88q0 4 20 4h21q77 0 153 -96q47 -81 47 -183v-39q0 -248 -180 -336q-64 -30 -157 -49q-175 -24 -262 -55
q-204 -80 -204 -254q0 -83 65 -174h8v5q0 217 200 285q62 18 125 18h2q159 0 252 -126q32 -52 32 -110q0 -140 -114 -251q-5 -12 -12 -12q-15 0 -56 2l-2 4q117 122 117 228q0 101 -98 161q-53 27 -109 27h-34q-123 0 -203 -116q-28 -59 -28 -143q0 -26 14 -90h-2
q-25 -2 -27 -2q-114 0 -196 206q-12 52 -12 92v36q0 112 114 224q98 83 264 106q188 26 311 72q57 30 81 81q43 98 43 177v19q0 109 -53 163q-43 34 -88 34h-4q-81 0 -114 -138l-8 -6q-8 0 -19 48q-32 94 -94 94h-20q-74 0 -100 -91q-13 -49 -13 -100v-6q0 -86 64 -251v-2
l-4 -2h-39q-5 0 -8 -2q-4 2 -9 2h-8q-92 0 -149 75q-22 41 -22 100l12 222v10q-6 55 -43 55q-35 -4 -35 -34v-8q0 -35 57 -106q0 -2 -2 -2q-39 -13 -42 -13q-70 64 -70 135v16q0 62 67 100z" />
    <glyph glyph-name="okaratedungbali" unicode="&#x1b12;" horiz-adv-x="1588" 
d="M1244 525h9q187 0 262 -160q23 -53 23 -115v-6q0 -140 -90 -222q-69 -54 -147 -54h-9q-50 0 -109 23v2q37 48 41 49q45 -12 74 -12h12q85 0 140 99q25 59 25 113q0 128 -143 181q-42 12 -92 12q-166 0 -224 -162q-6 -33 -11 -33h-32q-5 0 -5 4q0 82 50 172
q82 109 226 109zM141 536h14q59 0 85 -72q4 -26 6 -57q-13 -210 -13 -218q0 -96 48 -115q26 -12 37 -12q-37 93 -37 191q0 153 82 240q59 43 108 43h14q65 0 115 -88v-6q50 88 95 88q0 4 21 4h21q78 0 154 -96q48 -82 48 -185v-39q0 -250 -182 -339q-64 -30 -159 -50
q-176 -24 -263 -55q-207 -81 -207 -257q0 -84 66 -175h9v4q0 220 202 288q62 18 125 18h2q161 0 254 -127q33 -52 33 -111q0 -141 -115 -253q-5 -12 -13 -12q-14 0 -55 2l-3 4q118 123 118 230q0 102 -99 163q-53 26 -109 26h-35q-124 0 -204 -117q-29 -59 -29 -144
q0 -26 14 -90h-2q-25 -2 -27 -2q-116 0 -198 207q-12 53 -12 93v37q0 113 115 226q99 84 266 107q190 25 314 72q57 30 82 82q44 99 44 179v18q0 111 -54 165q-44 35 -89 35h-4q-82 0 -115 -140l-9 -6q-7 0 -18 49q-32 95 -95 95h-21q-74 0 -101 -93q-12 -49 -12 -101v-6
q0 -86 64 -253v-2l-4 -2h-39q-5 0 -9 -2q-3 2 -8 2h-8q-93 0 -151 76q-22 41 -22 101l12 224v10q-5 56 -43 56q-35 -5 -35 -35v-8q0 -35 58 -107q0 -2 -3 -2q-39 -13 -43 -13q-70 65 -70 136v16q0 63 68 101z" />
    <glyph glyph-name="kabali" unicode="&#x1b13;" horiz-adv-x="1041" 
d="M131 533h15q74 0 97 -116q4 -24 6 -121h32q4 0 4 6q0 152 131 211q41 18 101 18q154 0 204 -112q27 -35 27 -269q0 -15 2 -81h8q58 0 58 69q1 54 1 114v265q0 5 27 6q95 0 130 -83q17 -45 17 -182v-248q0 -4 -4 -4h-46q-4 0 -4 4v144q0 226 -19 252q-23 29 -48 29v-4
q0 -69 -2 -308q0 -117 -120 -117q-9 0 -44 2q0 2 -2 2q-4 350 -18 350q-28 80 -177 80q-170 0 -170 -140v-2q95 0 197 -54q83 -51 83 -140q0 -74 -83 -100q-23 -4 -37 -4h-23q-70 0 -146 77q-41 59 -41 135q-22 -2 -33 -2h-7v-2q0 -154 -47 -187q-30 -21 -57 -21
q-61 0 -85 62q-6 14 -8 42q0 114 131 179q12 4 12 9q0 160 -54 160h-8q-22 0 -27 -33v-7q0 -34 54 -99q-18 -11 -44 -11q-64 59 -64 119v25q0 60 54 83q15 4 27 4zM94 104v-2q0 -58 50 -58q48 0 62 79q4 39 4 54q-2 26 -2 36h-2q-112 -38 -112 -109zM333 212q0 -7 -1 -10
q0 -83 90 -133q46 -15 83 -15q45 4 54 34v10q0 45 -87 81q-54 21 -139 33z" />
    <glyph glyph-name="kamahapranabali" unicode="&#x1b14;" horiz-adv-x="1071" 
d="M132 536h16q75 0 98 -114q4 -23 6 -120h34q4 0 4 6q0 150 133 209q42 18 102 18q173 0 230 -143q10 -32 10 -99q0 -66 -4 -230q0 -17 14 -17h2q14 0 74 59q31 28 69 28h12q71 0 143 -112v-2q-11 -17 -16 -19q-61 72 -118 72q-23 0 -78 -45q-43 -21 -71 -21h-12
q-74 0 -74 85v6q2 117 2 186q0 121 -77 145q-40 17 -116 17q-132 0 -163 -82q-9 -33 -9 -59h2q102 0 208 -59q74 -50 74 -133q0 -73 -86 -99q-24 -3 -37 -3h-14q-76 0 -149 68q-48 51 -48 137l-3 4q-11 0 -40 -2q0 -155 -47 -187q-25 -19 -55 -19h-14q-54 0 -78 67
q-3 11 -6 36q0 109 132 175q13 2 13 10q0 158 -55 158h-8q-22 0 -27 -33v-7q0 -33 55 -97q-31 -14 -43 -14h-2l-41 48q-24 37 -24 72v25q0 59 55 82q15 3 27 3zM95 112v-2q0 -57 53 -57q34 0 57 55q8 44 8 77q-2 25 -2 36h-2q-114 -38 -114 -109zM339 219q0 -8 -2 -8
q0 -74 74 -123q49 -25 100 -25q57 10 57 36v8q0 71 -200 108q-8 0 -29 4z" />
    <glyph glyph-name="gabali" unicode="&#x1b15;" horiz-adv-x="1086" 
d="M152 534q55 0 80 -64q6 -22 6 -46v-10q0 -40 -14 -195q0 -91 32 -116q27 -10 33 -10q-25 74 -25 147q3 204 159 271q51 17 114 17q192 0 253 -168q16 -52 16 -99q0 -57 -26 -184q19 0 46 45q12 26 12 68v325q1 4 4 4q135 0 166 -80q12 -34 12 -114v-319q0 -4 -4 -4h-48
l-4 2q2 89 2 135v105q0 161 -36 174q-16 13 -38 13q2 -77 2 -116v-123q0 -127 -52 -157q-37 -35 -115 -35h-26l-4 2q44 155 44 244q0 132 -98 172q-55 21 -116 21q-125 0 -174 -93q-24 -44 -24 -114q0 -67 38 -228q-7 -4 -22 -4h-16q-57 0 -127 56q-36 39 -36 118
q0 56 16 215q0 66 -44 66q-27 0 -32 -33v-14q0 -27 56 -95q-17 -7 -44 -13q-68 61 -68 122v23q0 68 76 89h26z" />
    <glyph glyph-name="gagorabali" unicode="&#x1b16;" horiz-adv-x="1063" 
d="M136 534h2q64 0 83 -69q4 -19 4 -37v-12l-9 -175q0 -110 37 -136q9 -6 30 -12v2q-13 104 -13 172v49q0 157 89 205q28 13 107 13q3 -1 3 -4q-28 -191 -28 -272q0 -134 47 -157q18 -8 33 -8q52 0 97 92q22 26 36 26h2q32 0 67 -77q29 -44 69 -44q56 0 67 110q2 18 2 39v19
q0 136 -94 177q-17 6 -31 6h-13q-4 0 -4 3q41 71 84 84q27 6 43 6h20q102 0 136 -103q11 -54 11 -203v-215q0 -6 -48 -6h-2l-4 2q2 115 2 172v114q0 106 -45 136q-34 19 -55 19h-13q68 -65 68 -200q0 -250 -117 -250q-58 0 -112 91q-24 28 -33 28q-16 -1 -54 -72
q-34 -47 -73 -47h-17q-92 0 -128 144q-8 40 -8 82v24q0 71 21 194h-2q-49 0 -58 -93q-4 -42 -4 -75q0 -57 21 -270h-9q-127 0 -161 65q-20 37 -20 119q0 16 11 206q0 60 -37 60h-4q-26 0 -30 -32v-8q0 -33 52 -95q0 -4 -41 -15q-63 60 -63 123v21q0 51 58 80q17 4 28 4z" />
    <glyph glyph-name="ngabali" unicode="&#x1b17;" horiz-adv-x="898" 
d="M440 534h14q66 0 111 -84v-4h1q45 86 107 86l10 2q101 0 149 -123q16 -60 16 -145v-70q0 -196 -8 -196h-48l-4 2q2 100 2 147v105q0 140 -51 172q-25 14 -56 14h-2q-76 0 -109 -133l-6 -4h-3q-4 0 -22 65q-31 70 -81 70h-22q-84 0 -103 -131q-3 -36 -3 -61q0 -75 44 -238
h-27q-184 0 -184 166q0 15 13 213q-5 61 -39 61h-2q-33 -4 -33 -33v-8q0 -36 55 -100q0 -4 -43 -16q-66 64 -66 124v23q0 66 70 90q10 2 19 2q92 0 92 -119v-10l-10 -201v-12q0 -68 37 -90q30 -16 42 -16q-25 92 -25 174q0 202 107 262q34 16 58 16z" />
    <glyph glyph-name="cabali" unicode="&#x1b18;" horiz-adv-x="908" 
d="M168 534h23q82 0 120 -83q14 -36 14 -91q0 -8 -2 -86l-2 -10q59 -9 122 -64q66 -73 90 -94q25 -21 56 -21h10q63 0 73 131v29q0 119 -102 173q-44 20 -84 20v2q17 51 51 67q46 27 113 27h10q139 0 183 -98q15 -38 15 -126v-300q0 -4 -5 -4h-61l-5 2q5 178 5 223
q0 177 -40 199q-37 23 -71 23h-7q-12 0 -28 -4q94 -67 94 -196v-49q0 -128 -78 -189q-33 -15 -59 -15h-21q-85 0 -167 118q-58 65 -94 65q0 -181 -130 -181h-7q-78 0 -103 60q-10 18 -12 48q0 78 82 131q47 25 104 25v2q2 4 7 83q0 78 -45 102q-22 8 -30 8h-15
q-42 -6 -42 -35v-4q0 -22 40 -73l-54 -29q-66 71 -66 108v15q0 47 59 79q31 12 59 12zM139 108q8 -46 40 -46h12q69 0 69 131h-17q-67 0 -94 -48q-10 -19 -10 -37z" />
    <glyph glyph-name="calacabali" unicode="&#x1b19;" horiz-adv-x="960" 
d="M751 534h32q83 0 119 -120q8 -48 8 -95v-67q0 -76 -4 -235l-4 -2h-49l-4 2q2 146 2 221v51q0 128 -30 153q-15 13 -46 18q2 -46 2 -68v-121q0 -192 -57 -236q-32 -35 -100 -35h-32q-128 0 -165 94q-13 0 -19 237q-9 68 -28 93q-40 38 -104 38q-116 0 -148 -127
q-13 -62 -13 -129q0 -73 26 -97q20 -11 40 -11q53 0 53 90v105q1 3 4 3q19 0 57 -1q0 -2 1 -2q2 -47 2 -68v-35q0 -139 -62 -162q-26 -13 -49 -13h-14q-75 0 -106 90q-13 45 -13 90v44q0 194 112 269q41 24 113 24q154 0 186 -99q14 -8 17 -223q0 -95 47 -125q40 -15 72 -15
q78 0 103 61q24 63 24 223q-2 161 -2 174q-2 0 -2 2q9 4 31 4z" />
    <glyph glyph-name="jabali" unicode="&#x1b1a;" horiz-adv-x="938" 
d="M144 534h11q69 0 100 -82q4 -31 4 -53q0 -65 -2 -211q0 -73 67 -92q13 0 16 -2q-5 58 -5 143v33q0 175 100 225q61 39 149 39h37q156 0 233 -84q34 -47 34 -102v-8q0 -91 -102 -127v-2q65 -24 89 -74q13 -36 13 -90v-43q0 -4 -4 -4h-48l-4 2l2 20q0 110 -48 129
q-39 29 -198 29q-4 0 -4 4v6q0 13 -3 43q205 14 220 49q22 24 22 58q0 84 -185 100q-14 2 -28 2q-137 0 -183 -64q-24 -42 -24 -225v-147l-2 -4q-163 0 -199 96q-8 55 -8 117q0 31 4 151q0 86 -48 86h-4q-31 0 -35 -33v-8q0 -35 61 -100q-4 -4 -48 -16q-74 65 -74 126v25
q0 56 72 86z" />
    <glyph glyph-name="jabali.nya" horiz-adv-x="881" 
d="M137 534h10q65 0 94 -77q4 -28 4 -49q0 -61 -2 -197q0 -67 63 -85q11 0 14 -2q-4 54 -4 133v31q0 163 93 210q56 36 138 36h35q146 0 217 -78q32 -44 32 -95v-7q0 -85 -95 -119v-2q61 -22 83 -69q12 -33 12 -84v-40q0 -4 -4 -4h-44l-4 2l2 18q0 104 -45 121
q-36 27 -185 27q-4 0 -4 4v5q0 13 -2 40q191 13 205 46q21 23 21 55q0 77 -173 92q-13 2 -26 2q-128 0 -171 -60q-22 -38 -22 -209v-137l-2 -4q-152 0 -185 89q-8 52 -8 110q0 29 4 140q0 80 -45 80h-4q-28 0 -32 -31v-7q0 -32 57 -93q-4 -3 -45 -14q-69 60 -69 116v24
q0 53 67 80zM551 -356h-21q-85 0 -134 88q-2 2 -2 6q34 23 36 23q38 -55 104 -59q54 3 62 33v1q0 22 -108 56q-49 19 -49 56v7q0 41 73 58h25q35 0 85 -25q-25 -39 -32 -44q-30 19 -59 19q-30 0 -36 -15q9 -15 90 -41q58 -25 58 -71v-11q0 -49 -69 -78q-15 -3 -23 -3z" />
    <glyph glyph-name="jajerabali" unicode="&#x1b1b;" horiz-adv-x="1174" 
d="M867 712q55 0 123 -114q45 42 61 42h8q43 0 65 -84v-28q-2 -56 -14 -61h-2q-11 6 -27 87q-12 21 -18 22h-4q-7 0 -42 -35q26 -95 26 -223v-106q0 -148 -18 -609q0 -176 -35 -320q-46 -127 -157 -127h-6q-128 0 -170 156q-35 162 -52 162q0 12 -52 19q-60 0 -85 -113
q-47 -224 -186 -224h-6q-113 0 -161 145q-21 63 -21 140q0 294 218 372q76 33 265 64q83 22 139 79q105 119 105 276v2q0 100 -46 165q-34 37 -87 37q-74 0 -109 -147l-4 -2h-4q-6 7 -29 83q-27 64 -80 64h-16q-83 0 -103 -132q-4 -29 -4 -57v-22q0 -85 60 -258l-4 -3h-14
q-19 0 -34 -2q-119 0 -168 105q-10 36 -14 90q16 207 16 233q0 31 -28 65h-18q-23 0 -28 -37v-9q0 -38 56 -111q-7 -7 -44 -16h-2q0 2 -39 48q-28 44 -28 95v24q15 98 91 98h6q64 0 91 -74q6 -29 6 -53l-18 -208v-39q0 -86 38 -108q11 -6 40 -17v2q-34 93 -34 193v6
q0 190 105 268q48 24 81 24q63 0 109 -77q8 -15 8 -22q23 48 56 79q36 18 61 18h6q97 0 165 -141q29 -71 29 -140v-22q0 -192 -107 -337q-72 -82 -126 -103q-41 -24 -133 -42q-218 -29 -266 -77q-91 -75 -91 -219v-19q0 -131 73 -174q14 -4 24 -4h12q84 0 111 125
q50 168 105 202q35 19 73 19q96 0 131 -122q46 -193 77 -209q25 -22 58 -22q77 0 99 101q13 0 40 629q16 252 16 386v17q-3 126 -14 132q-9 0 -12 -2q-100 0 -141 98q-4 20 -4 29v4q0 56 34 66h18zM884 644l-3 -4v-13q21 -38 57 -38q-27 55 -54 55z" />
    <glyph glyph-name="nyabali" unicode="&#x1b1c;" horiz-adv-x="1481" 
d="M147 532q85 -12 85 -96q2 0 2 -23q0 -29 -12 -209q0 -75 40 -98q30 -16 44 -16v2q-24 89 -24 158v17q0 196 117 253q34 12 53 12h16q48 0 95 -54q18 -26 18 -35q47 87 113 87h20q86 0 134 -104q20 -52 20 -150v-120q0 -21 -2 -62q70 0 70 123q0 148 37 192
q70 102 208 102q154 0 226 -131q24 -47 24 -104v-34q0 -102 -79 -196q-56 -46 -119 -46h-22q-45 0 -97 23q5 11 40 52q45 -12 61 -12h14q87 0 127 104q10 38 10 71v12q0 118 -115 159q-41 11 -78 11q-96 0 -152 -65q-32 -26 -32 -157q0 -145 -59 -173q-28 -15 -64 -15h-51
l-4 2q6 121 6 259v15q0 122 -79 150q-16 4 -34 4h-4q-77 0 -113 -133l-4 -2h-4q-4 3 -28 75q-31 60 -91 60q-121 0 -121 -187q0 -81 46 -234v-2h-38q-134 0 -168 91q-12 24 -12 92l14 190q0 63 -44 63q-32 -6 -32 -33v-9q0 -33 56 -98q-17 -8 -44 -14q-67 61 -67 121v23
q0 69 77 89h20z" />
    <glyph glyph-name="talatikbali" unicode="&#x1b1d;" horiz-adv-x="980" 
d="M485 534h27q84 0 121 -82q26 33 44 50q47 27 92 27h17q97 0 132 -89q12 -37 12 -100v-62q0 -131 -4 -249q-8 -3 -31 -3h-17q-4 0 -4 3q2 182 2 212q0 160 -31 174q-23 27 -76 27q-82 0 -106 -73q-19 -52 -38 -52q-17 0 -35 78q-25 55 -95 55h-10q-83 0 -105 -85
q-2 -16 -8 -16h-48q-3 0 -6 5q11 62 41 112q20 40 84 61q25 7 42 7zM138 527q64 0 92 -62q6 -25 6 -45v-5q0 -15 -21 -173v-40q0 -75 61 -100q28 -9 35 -9q0 139 95 162q11 2 20 2h5q59 0 79 -52q6 -11 6 -32q0 -124 -154 -165q0 -8 -2 -20q0 -79 60 -126q50 -27 86 -27h12
q97 0 134 119q48 -10 48 -14v-3q0 -87 -85 -157q-53 -30 -107 -30h-21q-100 0 -163 96q-23 49 -23 119v39h-4q-78 0 -122 86q-20 50 -20 103v16q0 35 20 179v9q0 2 1 2q0 53 -44 53q-28 -6 -28 -30v-7q0 -31 53 -93q-37 -12 -42 -12q-65 57 -65 112v21q0 60 69 82zM360 91
q98 20 98 82q-2 30 -27 30q-59 0 -71 -112z" />
    <glyph glyph-name="tamurdamahapranabali" unicode="&#x1b1e;" horiz-adv-x="985" 
d="M483 534h27q83 0 120 -81q26 33 44 49q46 27 91 27h17q97 0 132 -88q11 -36 11 -98v-61q0 -130 -3 -245q-8 -4 -21 -4h-27q-4 0 -4 4q2 179 2 208q0 134 -21 163q-28 35 -86 35q-81 0 -105 -72q-19 -51 -38 -51q-17 0 -34 77q-26 55 -96 55h-5q-85 0 -107 -77
q-4 -23 -10 -23h-47q-3 0 -6 5q10 61 40 110q21 39 84 60q25 7 42 7zM138 527q64 0 91 -61q6 -25 6 -44v-5q0 -12 -21 -174v-36q0 -90 86 -123q19 -2 28 -2h18q92 0 118 121q4 30 7 30q37 -17 37 -42v-18q0 -102 -111 -159q-36 -14 -69 -14h-21q-77 0 -131 89
q-21 56 -21 109v16q0 34 19 176v9q0 2 2 2q0 52 -40 52q-33 -3 -33 -29v-7q0 -31 54 -91q-36 -13 -42 -13q-65 57 -65 111v21q0 58 69 80z" />
    <glyph glyph-name="damurdaalpapranabali" unicode="&#x1b1f;" horiz-adv-x="879" 
d="M145 534q60 0 81 -76q3 -35 4 -39q-21 -211 -21 -268q0 -55 46 -75l29 -4q72 0 100 141q19 49 47 49h13q34 0 47 -88q23 -88 83 -88h4q64 0 75 98q3 21 6 115l-4 219q10 4 35 4q89 0 125 -103q14 -42 14 -151v-72q0 -59 -2 -190l-4 -2h-44l-4 2q2 19 2 29v170
q0 224 -47 235q-5 5 -19 6q0 -15 2 -96q0 -248 -37 -291q-37 -59 -100 -59q-79 0 -108 80q-19 84 -29 84q-4 2 -6 2q-21 0 -33 -72q-31 -94 -105 -94q-103 0 -135 98q-9 31 -9 76q0 23 23 205v30q0 36 -29 43h-12q-29 -4 -29 -29v-12q0 -34 54 -100q-32 -14 -42 -14
q-66 60 -66 127v20q0 70 75 90h20z" />
    <glyph glyph-name="damurdamahapranabali" unicode="&#x1b20;" horiz-adv-x="782" 
d="M147 534q71 0 86 -92q2 -17 2 -21q-22 -222 -22 -266v-2q0 -51 42 -75q18 -4 38 -6q72 0 105 151q21 39 42 39h14q39 0 49 -86q26 -90 84 -90h12q47 0 68 69q9 38 9 115v215q0 10 -2 33l4 2h42l10 2l2 -4v-219q0 -216 -52 -260q-34 -39 -91 -39q-80 0 -109 84
q-20 80 -28 80q-4 2 -8 2q-21 0 -34 -74q-33 -92 -107 -92q-107 0 -142 102q-8 37 -8 72q0 20 24 205q0 10 2 20q-4 53 -34 53h-9q-30 0 -30 -37v-4q0 -33 55 -100q-33 -14 -43 -14q-68 62 -68 124v23q0 68 76 90h21z" />
    <glyph glyph-name="narambatbali" unicode="&#x1b21;" horiz-adv-x="1063" 
d="M313 534h15q61 0 112 -100q35 -48 52 -48q31 0 94 106q36 40 78 40q103 0 124 -160q3 -21 3 -65v-238h2q44 0 55 20q11 21 11 81v349q0 3 3 3q95 0 124 -57q22 -45 22 -78v-377q0 -4 -3 -4h-38q-6 -1 -5 3l1 199q0 195 -16 195q-19 35 -45 35v-216q0 -178 -21 -193
q-18 -29 -64 -29h-68q-3 0 -3 4v77q0 314 -16 314q-22 46 -69 46q-53 0 -103 -92q-32 -48 -63 -48h-3q-37 0 -78 77q-43 63 -82 63h-9q-61 0 -87 -117q-30 -91 -90 -91h-7q-94 0 -94 185v23q1 4 3 4h40q4 0 4 -4v-30q0 -89 43 -89h16q47 0 75 131q29 81 87 81z" />
    <glyph glyph-name="tabali" unicode="&#x1b22;" horiz-adv-x="1051" 
d="M140 527q50 0 71 -63q5 -22 5 -45v-14l-12 -205q0 -82 76 -103q44 -9 94 -9h5q113 0 133 62q4 13 4 23v6q0 34 -29 44q-113 15 -129 43q-28 34 -28 84q0 95 104 152q60 19 101 19q162 0 216 -123q20 -33 20 -212v-123h3q53 2 53 19q10 0 13 116q-4 274 -4 312q3 2 5 2
q92 0 119 -36q39 -35 39 -183q2 -54 2 -160v-129q0 -4 -4 -4h-44q-4 0 -4 4v228q0 169 -23 177q-5 9 -40 17q1 -48 1 -70v-181q0 -140 -51 -162q-20 -13 -46 -13h-30q-32 0 -32 6v154q0 197 -21 209q-50 69 -174 69q-112 0 -145 -52q-5 -17 -5 -23v-7q0 -36 72 -46
q124 -26 124 -129q0 -128 -141 -171q-37 -6 -87 -8q-120 0 -182 108q-16 40 -16 84q0 33 14 188q0 67 -37 67q-30 -4 -30 -32v-10q0 -32 49 -97q-20 -9 -39 -13q-60 60 -60 120v22q0 67 67 88h23z" />
    <glyph glyph-name="tatawabali" unicode="&#x1b23;" horiz-adv-x="914" 
d="M173 534q72 0 101 -72q5 -23 5 -44v-2q0 -33 -14 -200q0 -80 122 -105q38 -8 89 -8h3q48 0 77 11q-52 68 -73 68q-17 0 -37 -58q0 -6 -5 -6q-49 31 -49 59q0 56 61 90q15 4 21 4q70 0 139 -124q29 12 42 118q2 18 2 35q0 128 -80 166q-21 9 -63 9h-5q-5 0 -5 4v2
q0 35 102 51l32 2q156 0 203 -99q23 -47 23 -155v-127q0 -44 -2 -129q-3 0 -3 -2l-28 2h-37l-5 2q5 78 5 213v54q0 134 -66 156q-17 11 -50 11q47 -84 47 -173q0 -111 -58 -197q-14 -10 -14 -16q44 -84 44 -124v-7q0 -13 -7 -33h-2q-4 4 -85 134h-2q-59 -22 -132 -22l-14 2
h-12q-162 0 -230 101q-21 40 -21 105q0 18 11 146v31q0 50 -37 50q-40 -4 -40 -32v-12q0 -26 63 -87v-6l-49 -11q-80 60 -80 116v22q0 64 89 87h24z" />
    <glyph glyph-name="dabali" unicode="&#x1b24;" horiz-adv-x="913" 
d="M135 534h15q77 -12 77 -84v-2q0 -47 -53 -196q-26 -84 -26 -111q9 -61 56 -61h2q30 0 158 114q38 28 46 28v35q0 189 119 240q41 16 74 16h36q158 0 210 -132q14 -45 14 -88v-140q0 -52 -2 -144l-3 -2h-43q-4 0 -5 7q0 60 2 232q0 107 -46 135q-55 37 -137 37h-17
q-106 0 -138 -82q-8 -30 -12 -103l9 2h15q103 0 138 -105q3 -14 3 -26v-17q0 -70 -64 -95q-10 -2 -16 -2h-20q-51 0 -93 62q-12 26 -21 73q-127 -124 -164 -126q-13 -5 -34 -5h-9q-83 0 -112 95q-3 14 -3 26v13q0 47 59 240q14 44 14 67v11q0 21 -29 21q-34 0 -34 -43
q3 -51 12 -98q-29 -11 -49 -11q-14 68 -14 94v20q0 63 53 96q17 9 32 9zM464 149v-2q0 -69 53 -90q16 -3 25 -3q30 0 34 39q0 37 -46 54q-18 6 -30 6q-7 0 -36 -4z" />
    <glyph glyph-name="damadubali" unicode="&#x1b25;" horiz-adv-x="879" 
d="M145 534q60 0 81 -76q3 -35 4 -39q-21 -211 -21 -268q0 -55 46 -75l29 -4q72 0 100 141q19 49 47 49h13q35 0 49 -98q28 -76 67 -76h20q38 0 67 63q10 44 10 78q0 151 -70 197l-44 18q37 82 122 82h11q110 0 145 -131q8 -44 8 -127v-72q0 -59 -2 -190l-4 -2h-44l-4 2
q2 19 2 29v166q0 199 -37 225q-20 28 -60 28h-23l-14 -2q68 -83 68 -219q-6 -178 -95 -225q-21 -8 -42 -8q-87 0 -114 106q-8 60 -27 60q-21 0 -33 -72q-31 -94 -105 -94q-103 0 -135 98q-9 31 -9 76q0 23 23 205v30q0 36 -29 43h-12q-29 -4 -29 -29v-12q0 -34 54 -100
q-32 -14 -42 -14q-66 60 -66 127v20q0 70 75 90h20z" />
    <glyph glyph-name="nabali" unicode="&#x1b26;" horiz-adv-x="879" 
d="M140 534h17q81 0 106 -116q5 -18 7 -121h40v2q0 161 152 218q41 15 107 15q182 0 247 -143q13 -38 13 -119v-258q0 -4 -4 -4h-51q-5 0 -5 5q0 338 -13 338q-17 47 -61 69q-53 21 -139 21q-188 0 -188 -142h2q110 0 226 -60q81 -52 81 -129v-10q0 -69 -91 -96
q-26 -4 -41 -4h-25q-79 0 -165 79q-42 62 -42 133q-26 -2 -37 -2h-8v-6q0 -168 -69 -192q-10 -8 -47 -12q-67 0 -93 62q-6 14 -9 42q0 114 145 179q13 4 13 10q0 160 -60 160h-4q-30 0 -34 -33v-7q0 -34 60 -99v-2q-39 -11 -45 -11h-5q0 2 -40 42q-30 40 -30 79v25
q0 59 60 83q16 4 30 4zM99 104v-2q0 -58 56 -58q52 0 68 79q4 33 4 54q-2 31 -2 37h-2q-124 -39 -124 -110zM364 212v-17q0 -54 57 -102q53 -39 133 -39q59 9 59 37v3q0 85 -249 118z" />
    <glyph glyph-name="pabali" unicode="&#x1b27;" horiz-adv-x="897" 
d="M173 534q98 -13 98 -96q3 0 3 -23v-4q0 -43 -14 -200q0 -71 82 -107q58 -21 134 -21q115 0 160 78q7 29 7 70v224q0 23 -2 71l5 2h4q16 0 28 2q126 0 167 -81q12 -26 12 -80v-281q0 -29 -2 -80l-5 -2h-55l-5 2q3 117 3 176v39q0 186 -39 202q-14 10 -44 15
q0 -305 -23 -336q-50 -104 -204 -104h-35q-174 0 -239 115q-16 48 -16 100q0 17 14 167q0 66 -21 66q0 3 -16 5h-11q-29 0 -35 -28v-12q0 -33 65 -98q-38 -13 -51 -13h-2q0 2 -44 42q-32 38 -32 82v20q0 66 87 88h26z" />
    <glyph glyph-name="pakapalbali" unicode="&#x1b28;" horiz-adv-x="833" 
d="M614 698q81 0 115 -85q5 -16 5 -19q36 0 64 56q6 17 10 17q28 -11 28 -41q0 -59 -85 -92h-5v-2l5 -6q8 -118 8 -188v-25q0 -246 -107 -286q-56 -27 -142 -27h-40q-177 0 -251 108q-22 51 -22 112q0 20 15 180q-6 51 -43 51h-12q-37 -4 -37 -29v-12q0 -33 69 -99
q-42 -13 -54 -13q-85 59 -85 125v20q0 59 77 85q11 4 32 4h15q98 0 115 -103v-9q-20 -166 -20 -192q0 -145 234 -145q150 0 179 106q14 59 14 130v21q0 119 -7 188q-72 0 -142 66q-10 20 -10 36q12 68 77 68zM597 642v-8q23 -25 85 -38v1q-23 57 -60 57q-15 0 -25 -12z" />
    <glyph glyph-name="babali" unicode="&#x1b29;" horiz-adv-x="1068" 
d="M143 533q53 0 77 -72q3 -24 3 -37v-24l-9 -201q0 -85 37 -103q28 -16 40 -16q-24 93 -24 176q0 182 86 250q38 27 82 27q58 0 102 -72q7 -14 7 -20h2q35 90 113 90q103 0 146 -144q12 -53 12 -121q0 -97 -29 -200h2q27 0 55 55q16 33 16 137q0 110 -3 263l3 2h17
q98 0 124 -66q16 -25 16 -106v-347q0 -4 -4 -4h-43l-4 2l2 14v226q0 164 -28 180q-21 13 -34 13v-222q0 -135 -46 -170q-39 -41 -146 -41v2q48 142 48 260q0 175 -106 175q-74 0 -104 -127q-5 -11 -7 -11h-4q-5 5 -23 70q-25 66 -92 66q-83 0 -102 -123q-3 -25 -3 -50v-34
q0 -68 42 -222l-4 -2h-24q-175 0 -175 164v23l9 197q0 63 -40 63q-24 0 -29 -33v-14q0 -27 51 -96q-34 -13 -40 -13q-62 62 -62 123v23q0 68 69 90h24z" />
    <glyph glyph-name="bakembangbali" unicode="&#x1b2a;" horiz-adv-x="898" 
d="M140 534q70 0 98 -81q27 -123 27 -164q-11 -4 -61 -8q-4 11 -17 116q-13 56 -47 56h-2q-32 -4 -32 -33v-7q0 -35 56 -99v-2q-36 -11 -43 -11q-69 56 -69 125v17q0 66 71 89q10 2 19 2zM590 534h35q158 0 211 -139q12 -47 12 -87v-188q0 -31 -2 -101q-11 -4 -50 -4h-8
q-3 0 -3 4q5 244 5 286q0 100 -111 125q-39 8 -75 8q-106 0 -141 -79q-9 -35 -13 -110h2q9 0 23 2q100 0 137 -110l3 -31q0 -75 -55 -104q-15 -6 -27 -6h-18q-52 0 -92 60q-13 24 -23 77h-2q-120 -133 -192 -133h-14q-79 0 -107 94q-6 16 -6 43q0 67 38 113h2q3 0 35 -36
q-14 -54 -14 -70q10 -55 48 -55h10q25 0 146 107q31 25 52 39v2q0 175 52 222q60 71 142 71zM452 162q0 -62 36 -85q16 -11 37 -11h8q22 0 29 34v4q0 43 -50 58q-13 4 -25 4q-8 0 -35 -4z" />
    <glyph glyph-name="mabali" unicode="&#x1b2b;" horiz-adv-x="894" 
d="M312 534h14q72 0 209 -4q13 -2 13 -6v-64q0 -4 -5 -4h-2q-71 0 -124 2q-162 0 -185 -44q-15 -27 -15 -41q0 -57 109 -74q133 -7 133 -12v-34q0 -4 -4 -4q-236 0 -236 -90q0 -68 167 -89h49q151 0 206 79q23 18 23 267q2 16 2 108q4 2 6 2q134 0 160 -82q12 -38 12 -139
v-76q0 -82 -3 -229l-4 -2q-29 2 -47 2l-4 2v15l2 264q0 134 -27 147q-23 11 -46 18q0 -275 -29 -338q-14 -36 -71 -74q-76 -44 -165 -44h-24q-216 4 -267 116q-7 13 -7 31v18q0 67 96 114q-94 39 -94 110q0 25 38 87h-9q-58 0 -75 -54v-21q0 -12 18 -60l-40 -34
q-36 58 -36 94v4q0 115 162 135q56 4 100 4z" />
    <glyph glyph-name="yabali" unicode="&#x1b2c;" horiz-adv-x="898" 
d="M142 534q58 0 79 -73q4 -21 4 -45v-5q0 -24 -12 -193q0 -102 42 -129q20 -10 43 -10q84 0 113 189q11 117 11 210q3 9 7 10h40q5 -2 5 -12v-46q0 -140 40 -274q27 -63 75 -63q69 13 69 71q4 25 4 83v270q0 3 17 5l9 -1h8q109 0 139 -99q13 -30 13 -164v-250q0 -4 -4 -4
h-39q-4 0 -4 4v40q0 338 -22 363q-26 30 -59 30h-5q2 -118 2 -177v-56q0 -136 -53 -179q-23 -29 -69 -29h-2q-90 0 -121 98q-22 61 -22 76q-3 -1 -19 -56q-44 -118 -114 -118h-17q-108 0 -137 116q-4 26 -4 48q0 26 15 229q0 62 -41 62q-30 -6 -30 -33v-9q0 -33 52 -99
q-21 -9 -41 -13q-64 61 -64 121v23q0 69 73 89h19z" />
    <glyph glyph-name="rabali" unicode="&#x1b2d;" horiz-adv-x="866" 
d="M556 534h17q135 0 206 -91q35 -49 35 -254q2 -96 2 -187l-4 -2h-50q-4 0 -4 4v121q0 247 -28 266q-52 58 -155 58q-107 0 -158 -50q-29 -22 -29 -159q0 -174 -46 -206q-52 -30 -150 -30l-2 4q19 211 19 302v12q0 125 -52 125h-5q-29 0 -33 -34v-8q0 -35 59 -101
q-31 -14 -44 -14h-5q0 2 -40 44q-29 39 -29 85v22q0 57 69 87l21 2h9q62 0 88 -63q23 -54 23 -171v-14q0 -78 -15 -199q48 0 70 62q4 25 4 42v85q0 155 59 196q57 66 168 66z" />
    <glyph glyph-name="labali" unicode="&#x1b2e;" horiz-adv-x="1061" 
d="M134 518q52 0 71 -72q3 -20 3 -43v-7q0 -30 -11 -210q0 -92 37 -92q6 -2 15 -2h17v37q0 279 26 306q37 79 118 79q101 0 134 -88q8 0 10 -225q0 -79 81 -115q28 -7 56 -7h5q112 0 133 82q8 44 8 171v45q0 40 -1 122l3 2h39q75 0 103 -94q12 -46 11 -99q-6 -302 -4 -302
h-45l-3 2q0 19 1 120q-3 242 -13 255q-15 30 -41 37l-7 2q2 -129 2 -152q0 -208 -99 -257q-34 -13 -70 -13h-10q-134 0 -178 111q-15 34 -15 172v15q0 113 -56 128q-25 5 -44 5q-52 0 -77 -46q-12 -30 -12 -166v-148q0 -21 2 -65q-4 -2 -5 -2q-119 0 -138 43q-29 35 -29 96
v15q0 46 11 223q-3 56 -25 56q0 2 -10 4q-29 0 -29 -38v-3q0 -32 47 -96q-28 -13 -37 -13q-58 59 -58 118v22q0 67 66 87h18z" />
    <glyph glyph-name="wabali" unicode="&#x1b2f;" horiz-adv-x="898" 
d="M162 534q72 0 100 -75q5 -25 5 -46v-2q0 -35 -14 -211q0 -94 156 -115q37 -2 54 -2q110 0 149 62q21 14 31 144q0 134 -80 174q-21 9 -63 9h-4q-5 0 -5 4v2q0 37 100 54l33 2q155 0 201 -104q23 -48 23 -162v-137q0 -45 -2 -129l-5 -2h-63l-5 2q5 81 5 224v55
q0 141 -65 164q-17 12 -49 12q46 -88 46 -181q0 -122 -63 -212q-60 -64 -179 -64h-35q-175 0 -238 120q-14 45 -14 94q0 21 11 154v33q0 52 -39 52h-3q-29 0 -35 -33v-13q0 -27 63 -91v-6l-49 -11q-79 62 -79 121v23q0 67 89 91h23z" />
    <glyph glyph-name="sasagabali" unicode="&#x1b30;" horiz-adv-x="1063" 
d="M151 534q55 0 79 -64q6 -22 6 -46v-10q0 -40 -14 -195q0 -91 32 -116q27 -10 34 -10q-26 74 -26 147q3 204 159 271q50 17 113 17q190 0 251 -168q16 -52 16 -99q0 -57 -26 -184q19 0 46 45q12 26 12 68v325q1 4 4 4q134 0 164 -80q12 -34 12 -114v-319q0 -4 -4 -4h-47
l-4 2q2 89 2 135v105q0 161 -36 174q-15 13 -38 13q2 -77 2 -116v-123q0 -127 -51 -157q-38 -35 -115 -35h-26l-4 2q44 155 44 244q0 132 -97 172q-55 21 -115 21q-125 0 -173 -93q-23 -44 -23 -114q0 -67 37 -228q-8 -4 -22 -4h-15q-57 0 -127 56q-36 39 -36 118
q0 56 16 215q0 66 -44 66q-26 0 -31 -33v-14q0 -27 55 -95q-17 -7 -44 -13q-67 61 -67 122v23q0 68 75 89h26zM486 341h6q65 0 147 -250q2 -13 2 -21v-8q-2 -31 -8 -31h-2q-95 207 -133 232h-6q-19 -19 -24 -54h-4q-33 26 -33 50q12 82 55 82z" />
    <glyph glyph-name="sasapabali" unicode="&#x1b31;" horiz-adv-x="878" 
d="M160 534q96 -13 96 -94q3 0 3 -22v-4q0 -42 -14 -195q0 -70 81 -105q56 -21 130 -21q113 0 157 77q7 28 7 68v219q0 22 -3 69l5 2h4q16 0 27 2q124 0 164 -79q11 -26 11 -78v-274q0 -29 -2 -79l-4 -2h-54l-5 2q2 115 2 173v37q0 182 -38 197q-13 10 -42 15
q0 -298 -23 -328q-48 -102 -199 -102h-34q-170 0 -233 113q-16 46 -16 98q0 16 14 163q0 64 -21 64q0 3 -15 5h-12q-27 0 -33 -28v-11q0 -33 63 -96q-37 -13 -50 -13h-2q0 2 -43 41q-31 38 -31 81v19q0 65 85 86h25zM467 267h12q66 0 153 -262q7 -23 7 -38v-12q0 -13 -5 -32
h-4q-117 260 -152 260q-15 -9 -29 -62h-1q-35 30 -35 51v14q0 48 45 79z" />
    <glyph glyph-name="sabali" unicode="&#x1b32;" horiz-adv-x="909" 
d="M172 535h23q129 0 129 -164q0 -29 -5 -99q72 0 194 -143q44 -44 89 -44q44 0 56 58q7 42 7 79q0 80 -9 311l4 2q155 0 183 -75q16 -29 16 -87v-361q0 -4 -5 -4h-63l-4 2q2 41 2 61v97q0 251 -24 251q0 10 -35 23v-2q3 -152 3 -233v-18q0 -149 -63 -175q-30 -14 -54 -14
h-24q-85 0 -182 122q-67 59 -93 65l-3 -9q0 -176 -135 -176q-82 0 -108 64q-9 19 -9 38v14q0 64 75 120q69 38 116 38q3 46 3 68v11q0 107 -75 107q-51 0 -59 -39v-8q0 -20 47 -65v-4q-4 0 -47 -27q-72 63 -72 110v13q0 61 87 89q22 4 35 4zM139 116v-14q10 -40 40 -40h14
q51 11 51 64q4 13 9 71q-81 0 -112 -66q-2 -7 -2 -15z" />
    <glyph glyph-name="habali" unicode="&#x1b33;" horiz-adv-x="1063" 
d="M140 534q47 0 69 -59q7 -19 7 -50v-13l-13 -201q0 -44 46 -94q46 -27 88 -27h14q111 0 132 86q7 34 13 193q5 60 30 108q32 51 102 51h16q92 0 135 -80q18 -48 18 -186q-2 -186 -2 -197h2q54 5 54 59q4 34 4 125v274q0 3 3 3q103 0 138 -80q17 -30 17 -165v-271
q0 -4 -3 -4h-42q-4 0 -4 4v227q0 146 -21 169q0 10 -39 25v-2q-2 -92 -2 -142v-96q0 -136 -37 -166q-30 -19 -63 -19h-14q-35 0 -48 5q6 95 6 213v44q0 121 -21 140q-23 26 -83 26t-81 -38q-18 -22 -18 -159q0 -237 -190 -237h-23q-83 0 -143 69q-37 46 -37 136l13 182v7
q0 62 -34 62q-30 -5 -30 -33v-10q0 -32 50 -97q-20 -10 -39 -14q-60 61 -60 121v23q0 67 67 88h23z" />
    <glyph glyph-name="signrerekancombbali" unicode="&#x1b34;" 
d="M-389 832q0 17 12.5 29t29.5 12q15 0 28 -12t13 -29q0 -19 -13 -30t-28 -11q-17 0 -29.5 11.5t-12.5 29.5zM-455 716q0 17 12.5 29t29.5 12q15 0 28 -12t13 -29q0 -19 -13 -30t-28 -11q-17 0 -29.5 11.5t-12.5 29.5zM-321 716q0 17 12.5 29t29.5 12q15 0 28 -12t13 -29
q0 -19 -13 -30t-28 -11q-17 0 -29.5 11.5t-12.5 29.5z" />
    <glyph glyph-name="vowelsigntedungbali" unicode="&#x1b35;" horiz-adv-x="596" 
d="M264 534h9q179 0 251 -154q22 -51 22 -110v-6q0 -134 -87 -213q-66 -51 -141 -51h-8q-47 0 -104 22v2q35 46 39 47q43 -12 71 -12h11q81 0 134 95q24 56 24 108q0 123 -136 173q-41 12 -89 12q-158 0 -215 -155q-5 -32 -10 -32h-31q-4 0 -4 4q0 79 48 166q78 104 216 104
z" />
    <glyph glyph-name="vowelsignulucombbali" unicode="&#x1b36;" 
d="M-261 615h-6l-13 34q85 76 97 145q8 27 8 55v6q0 99 -104 131q-39 11 -77 11q-116 0 -158 -96q-4 -27 -4 -39q0 -86 108 -204q-9 -39 -13 -39q-217 33 -223 196v19q0 79 44 160l4 1q16 -16 17 -24q-26 -67 -26 -122l1 -32q4 -88 98 -126l12 -2q-76 92 -79 161v27
q0 101 106 161q61 20 122 20q158 0 211 -147q6 -31 6 -64q0 -103 -99 -208z" />
    <glyph glyph-name="vowelsignulusaricombbali" unicode="&#x1b37;" 
d="M-261 615h-6l-13 34q85 76 97 145q8 27 8 55v6q0 99 -104 131q-39 11 -77 11q-116 0 -158 -96q-4 -27 -4 -39q0 -86 108 -204q-9 -39 -13 -39q-217 33 -223 196v19q0 79 44 160l4 1q16 -16 17 -24q-26 -67 -26 -122l1 -32q4 -88 98 -126l12 -2q-76 92 -79 161v27
q0 101 106 161q61 20 122 20q158 0 211 -147q6 -31 6 -64q0 -103 -99 -208zM-283 704q-42 112 -98 158l-38 -33l-8 7l41 103q47 -25 76.5 -92.5t40.5 -138.5z" />
    <glyph glyph-name="vowelsignsukucombbali" unicode="&#x1b38;" 
d="M-70 12q5 0 5 -8q-8 -133 -145 -425q-126 -205 -135 -289q0 -24 30 -27h3q125 0 185 347q15 117 15 175q2 0 40 37h2q3 -36 3 -53q0 -412 -170 -560q-45 -29 -85 -29h-20q-83 9 -83 86v21q0 76 123 261q102 160 157 349q23 103 28 115h47z" />
    <glyph glyph-name="vowelsignsukuilutcombbali" unicode="&#x1b39;" 
d="M-127 -5h53q5 -1 5 -5q-100 -185 -100 -220q22 -37 103 -89q77 -51 77 -82v-16q-6 -96 -223 -336q-75 -73 -108 -73h-19q-50 11 -50 46v22q0 75 114 301l8 5h2q4 0 11 -11v-3q0 -59 -69 -260q-3 -15 -3 -21h6q22 0 130 135q100 134 100 182q0 31 -124 100q-48 37 -48 68
q0 51 130 254z" />
    <glyph glyph-name="vowelsignrarepacombbali" unicode="&#x1b3a;" 
d="M-104 43h50q5 -1 5 -5v-287q0 -326 -97 -425q-64 -93 -240 -142q-46 -10 -80 -10h-42q-198 0 -328 137q-92 127 -92 290v43q0 154 83 254l28 26q48 -20 48 -28q-97 -102 -97 -280q0 -234 203 -318q88 -25 169 -25q257 0 341 191q44 94 44 467v107q1 5 5 5zM-274 -412h16
q82 0 191 -328q9 -29 9 -48v-15q0 -17 -7 -40h-4q-147 325 -192 325q-18 -10 -35 -77h-2q-44 37 -44 64v18q0 60 57 99z" />
    <glyph glyph-name="vowelsignrarepatedungbali" unicode="&#x1b3b;" horiz-adv-x="594" 
d="M-95 53h42q4 -1 4 -4v-240q0 -271 -81 -354q-53 -78 -200 -118q-38 -9 -67 -9h-35q-165 0 -273 115q-77 106 -77 241v36q0 129 69 212l23 21q41 -16 41 -23q-81 -84 -81 -233q0 -195 169 -265q73 -21 141 -21q214 0 284 159q37 79 37 390v89q1 4 4 4zM-302 -332h16
q82 0 191 -328q9 -29 9 -48v-15q0 -17 -7 -40h-4q-147 325 -192 325q-18 -10 -35 -77h-2q-44 37 -44 64v18q0 60 57 99zM262 449h8q150 0 211 -129q18 -43 18 -93v-5q0 -113 -73 -179q-55 -43 -118 -43h-8q-39 0 -87 18v2q30 39 33 40q36 -10 60 -10h9q68 0 113 79
q20 48 20 91q0 104 -115 146q-34 10 -74 10q-134 0 -181 -131q-5 -26 -9 -26h-25q-4 0 -4 3q0 67 40 139q66 88 182 88z" />
    <glyph glyph-name="vowelsignlalengacombbali" unicode="&#x1b3c;" 
d="M-681 -69q46 0 61 -65q3 -13 3 -35v-2l-9 -185v-23q2 -49 19 -49q0 -3 21 -4h12v58q0 219 26 245q31 60 101 60q89 0 116 -84q5 -22 5 -34q0 -197 11 -197q26 -60 106 -60h4q112 0 112 105q3 0 3 68v187q0 4 2 4h37q3 -1 3 -4q1 -132 1 -208v-6q0 -154 -75 -202
q-27 -18 -63 -18h-23q-120 0 -153 120q-7 44 -7 176q-6 39 -22 58q-21 17 -61 17q-44 0 -62 -42q-8 -24 -9 -140v-120q0 -23 2 -64l-3 -2h-18q-82 0 -102 33q-29 29 -29 117l7 201v5q-2 22 -18 22h-7q-21 -3 -21 -24v-10q0 -28 40 -82q-24 -11 -32 -11h-1l-31 40
q-17 30 -17 65v16q0 56 55 74h16zM-199 984h17q154 0 242 -122v-5q-198 -62 -454 -153q-5 15 -7 45q171 71 346 124v2q-66 38 -146 38h-5q-117 0 -197 -67q-49 -51 -49 -113q0 -29 32 -129h-3q-18 -4 -34 -4h-5q-82 0 -124 69q-17 35 -17 69q5 47 5 55v7h-3l-19 -11h-5
q-10 28 -10 31q38 29 68 31h17l13 -2q-22 -70 -22 -100q11 -105 80 -105q-32 49 -32 100q0 142 173 216q67 24 139 24z" />
    <glyph glyph-name="vowelsignlalengatedungbali" unicode="&#x1b3d;" horiz-adv-x="616" 
d="M-681 -69q46 0 61 -65q3 -13 3 -35v-2l-9 -185v-23q2 -49 19 -49q0 -3 21 -4h12v58q0 219 26 245q31 60 101 60q89 0 116 -84q5 -22 5 -34q0 -197 11 -197q26 -60 106 -60h4q112 0 112 105q3 0 3 68v187q0 4 2 4h37q3 -1 3 -4q1 -132 1 -208v-6q0 -154 -75 -202
q-27 -18 -63 -18h-23q-120 0 -153 120q-7 44 -7 176q-6 39 -22 58q-21 17 -61 17q-44 0 -62 -42q-8 -24 -9 -140v-120q0 -23 2 -64l-3 -2h-18q-82 0 -102 33q-29 29 -29 117l7 201v5q-2 22 -18 22h-7q-21 -3 -21 -24v-10q0 -28 40 -82q-24 -11 -32 -11h-1l-31 40
q-17 30 -17 65v16q0 56 55 74h16zM289 524h9q176 0 246 -151q22 -50 22 -108v-6q0 -132 -85 -209q-65 -50 -139 -50h-8q-46 0 -102 21v2q35 45 38 47q42 -12 70 -12h11q80 0 132 93q23 55 23 106q0 121 -134 170q-39 12 -87 12q-155 0 -210 -153q-6 -31 -11 -31h-30
q-4 0 -4 4q0 78 47 163q77 102 212 102zM-199 984h17q154 0 242 -122v-5q-198 -62 -454 -153q-5 15 -7 45q171 71 346 124v2q-66 38 -146 38h-5q-117 0 -197 -67q-49 -51 -49 -113q0 -29 32 -129h-3q-18 -4 -34 -4h-5q-82 0 -124 69q-17 35 -17 69q5 47 5 55v7h-3l-19 -11
h-5q-10 28 -10 31q38 29 68 31h17l13 -2q-22 -70 -22 -100q11 -105 80 -105q-32 49 -32 100q0 142 173 216q67 24 139 24z" />
    <glyph glyph-name="vowelsigntalingbali" unicode="&#x1b3e;" horiz-adv-x="560" 
d="M291 524h29q137 0 178 -137q12 -36 12 -79v-32q0 -94 -98 -500q-24 -113 -24 -192v-13q0 -120 72 -244v-2q0 -3 -24 -27q-130 128 -130 318q0 133 103 441q39 142 39 239q0 112 -60 145q-42 15 -85 15h-2q-87 0 -118 -69q-12 -30 -12 -57q0 -45 62 -140q-32 -18 -38 -18
q-27 3 -90 34q-55 40 -55 147l55 40h5q-2 -34 -2 -49v-18q0 -58 31 -84h3v3q-24 47 -24 92q0 83 62 151q47 36 111 36z" />
    <glyph glyph-name="vowelsigntalingrepabali" unicode="&#x1b3f;" horiz-adv-x="560" 
d="M291 524h29q137 0 178 -137q12 -36 12 -79v-32q0 -94 -98 -500q-24 -113 -24 -192v-13q0 -120 72 -244v-2q0 -3 -24 -27q-130 128 -130 318q0 133 103 441q39 142 39 239q0 112 -60 145q-42 15 -85 15h-2q-87 0 -118 -69q-12 -30 -12 -57q0 -45 62 -140q-32 -18 -38 -18
q-27 3 -90 34q-55 40 -55 147l55 40h5q-2 -34 -2 -49v-18q0 -58 31 -84h3v3q-24 47 -24 92q0 83 62 151q47 36 111 36zM317 603h-21q-85 0 -134 88q-2 2 -2 6q34 23 36 23q38 -55 104 -59q54 3 62 33v1q0 22 -108 56q-49 19 -49 56v7q0 41 73 58h25q35 0 85 -25
q-25 -39 -32 -44q-30 19 -59 19q-30 0 -36 -15q9 -15 90 -41q58 -25 58 -71v-11q0 -49 -69 -78q-15 -3 -23 -3z" />
    <glyph glyph-name="vowelsigntalingtedungbali" unicode="&#x1b40;" horiz-adv-x="1630" 
d="M1303 524h9q176 0 246 -151q22 -50 22 -108v-6q0 -132 -85 -209q-65 -50 -139 -50h-8q-46 0 -102 21v2q35 45 38 47q42 -12 70 -12h11q80 0 132 93q23 55 23 106q0 121 -134 170q-39 12 -87 12q-155 0 -210 -153q-6 -31 -11 -31h-30q-4 0 -4 4q0 78 47 163
q77 102 212 102zM781 485q0 10 7.5 17t17.5 7q9 0 16.5 -7t7.5 -17q0 -12 -7.5 -18.5t-16.5 -6.5q-10 0 -17.5 7t-7.5 18zM868 477q4 9 13.5 13t18.5 0q8 -3 12.5 -12.5t0.5 -19.5t-14 -13t-18 0q-9 4 -13 13t0 19zM741 477q4 -10 0 -19t-13 -13q-8 -3 -18 0.5t-14 12.5
q-4 11 0.5 20t12.5 12q10 4 19 0.5t13 -13.5zM946 437q7 7 17 7t17 -8q7 -6 7.5 -16.5t-7.5 -17.5q-8 -8 -18 -7t-16 7q-7 7 -7.5 17t7.5 18zM664 436q7 -7 7 -17t-8 -17q-6 -7 -16.5 -7.5t-17.5 7.5q-8 8 -7 18t7 16q7 7 17 7.5t18 -7.5zM1002 368q10 4 19 0t13 -13
q3 -8 -0.5 -18t-12.5 -14q-11 -4 -20 0.5t-12 12.5q-4 10 -0.5 19t13.5 13zM608 368q9 -4 13 -13.5t0 -18.5q-3 -8 -12.5 -12.5t-19.5 -0.5t-13 14t0 18q4 9 13 13t19 0zM1028 285q10 0 17 -7.5t7 -17.5q0 -9 -7 -16.5t-17 -7.5q-12 0 -18.5 7.5t-6.5 16.5q0 10 7 17.5
t18 7.5zM582 285q10 0 17 -7.5t7 -17.5q0 -9 -7 -16.5t-17 -7.5q-12 0 -18.5 7.5t-6.5 16.5q0 10 7 17.5t18 7.5zM1021 198q9 -4 13 -13.5t0 -18.5q-3 -8 -12.5 -12.5t-19.5 -0.5t-13 14t0 18q4 9 13 13t19 0zM590 197q10 4 19 0t13 -13q3 -8 -0.5 -18t-12.5 -14
q-11 -4 -20 0.5t-12 12.5q-4 10 -0.5 19t13.5 13zM980 120q7 -7 7 -17t-8 -17q-6 -7 -16.5 -7.5t-17.5 7.5q-8 8 -7 18t7 16q7 7 17 7.5t18 -7.5zM631 120q7 7 17 7t17 -8q7 -6 7.5 -16.5t-7.5 -17.5q-8 -8 -18 -7t-16 7q-7 7 -7.5 17t7.5 18zM699 65q4 9 13.5 13t18.5 0
q8 -3 12.5 -12.5t0.5 -19.5t-14 -13t-18 0q-9 4 -13 13t0 19zM912 64q4 -10 0 -19t-13 -13q-8 -3 -18 0.5t-14 12.5q-4 11 0.5 20t12.5 12q10 4 19 0.5t13 -13.5zM782 38q0 10 7.5 17t17.5 7q9 0 16.5 -7t7.5 -17q0 -12 -7.5 -18.5t-16.5 -6.5q-10 0 -17.5 7t-7.5 18z
M291 524h29q137 0 178 -137q12 -36 12 -79v-32q0 -94 -98 -500q-24 -113 -24 -192v-13q0 -120 72 -244v-2q0 -3 -24 -27q-130 128 -130 318q0 133 103 441q39 142 39 239q0 112 -60 145q-42 15 -85 15h-2q-87 0 -118 -69q-12 -30 -12 -57q0 -45 62 -140q-32 -18 -38 -18
q-27 3 -90 34q-55 40 -55 147l55 40h5q-2 -34 -2 -49v-18q0 -58 31 -84h3v3q-24 47 -24 92q0 83 62 151q47 36 111 36z" />
    <glyph glyph-name="vowelsigntalingrepatedungbali" unicode="&#x1b41;" horiz-adv-x="1630" 
d="M781 485q0 10 7.5 17t17.5 7q9 0 16.5 -7t7.5 -17q0 -12 -7.5 -18.5t-16.5 -6.5q-10 0 -17.5 7t-7.5 18zM868 477q4 9 13.5 13t18.5 0q8 -3 12.5 -12.5t0.5 -19.5t-14 -13t-18 0q-9 4 -13 13t0 19zM741 477q4 -10 0 -19t-13 -13q-8 -3 -18 0.5t-14 12.5q-4 11 0.5 20
t12.5 12q10 4 19 0.5t13 -13.5zM946 437q7 7 17 7t17 -8q7 -6 7.5 -16.5t-7.5 -17.5q-8 -8 -18 -7t-16 7q-7 7 -7.5 17t7.5 18zM664 436q7 -7 7 -17t-8 -17q-6 -7 -16.5 -7.5t-17.5 7.5q-8 8 -7 18t7 16q7 7 17 7.5t18 -7.5zM1002 368q10 4 19 0t13 -13q3 -8 -0.5 -18
t-12.5 -14q-11 -4 -20 0.5t-12 12.5q-4 10 -0.5 19t13.5 13zM608 368q9 -4 13 -13.5t0 -18.5q-3 -8 -12.5 -12.5t-19.5 -0.5t-13 14t0 18q4 9 13 13t19 0zM1028 285q10 0 17 -7.5t7 -17.5q0 -9 -7 -16.5t-17 -7.5q-12 0 -18.5 7.5t-6.5 16.5q0 10 7 17.5t18 7.5zM582 285
q10 0 17 -7.5t7 -17.5q0 -9 -7 -16.5t-17 -7.5q-12 0 -18.5 7.5t-6.5 16.5q0 10 7 17.5t18 7.5zM1021 198q9 -4 13 -13.5t0 -18.5q-3 -8 -12.5 -12.5t-19.5 -0.5t-13 14t0 18q4 9 13 13t19 0zM590 197q10 4 19 0t13 -13q3 -8 -0.5 -18t-12.5 -14q-11 -4 -20 0.5t-12 12.5
q-4 10 -0.5 19t13.5 13zM980 120q7 -7 7 -17t-8 -17q-6 -7 -16.5 -7.5t-17.5 7.5q-8 8 -7 18t7 16q7 7 17 7.5t18 -7.5zM631 120q7 7 17 7t17 -8q7 -6 7.5 -16.5t-7.5 -17.5q-8 -8 -18 -7t-16 7q-7 7 -7.5 17t7.5 18zM699 65q4 9 13.5 13t18.5 0q8 -3 12.5 -12.5t0.5 -19.5
t-14 -13t-18 0q-9 4 -13 13t0 19zM912 64q4 -10 0 -19t-13 -13q-8 -3 -18 0.5t-14 12.5q-4 11 0.5 20t12.5 12q10 4 19 0.5t13 -13.5zM782 38q0 10 7.5 17t17.5 7q9 0 16.5 -7t7.5 -17q0 -12 -7.5 -18.5t-16.5 -6.5q-10 0 -17.5 7t-7.5 18zM291 524h29q137 0 178 -137
q12 -36 12 -79v-32q0 -94 -98 -500q-24 -113 -24 -192v-13q0 -120 72 -244v-2q0 -3 -24 -27q-130 128 -130 318q0 133 103 441q39 142 39 239q0 112 -60 145q-42 15 -85 15h-2q-87 0 -118 -69q-12 -30 -12 -57q0 -45 62 -140q-32 -18 -38 -18q-27 3 -90 34q-55 40 -55 147
l55 40h5q-2 -34 -2 -49v-18q0 -58 31 -84h3v3q-24 47 -24 92q0 83 62 151q47 36 111 36zM1303 524h9q176 0 246 -151q22 -50 22 -108v-6q0 -132 -85 -209q-65 -50 -139 -50h-8q-46 0 -102 21v2q35 45 38 47q42 -12 70 -12h11q80 0 132 93q23 55 23 106q0 121 -134 170
q-39 12 -87 12q-155 0 -210 -153q-6 -31 -11 -31h-30q-4 0 -4 4q0 78 47 163q77 102 212 102zM327 603h-21q-85 0 -134 88q-2 2 -2 6q34 23 36 23q38 -55 104 -59q54 3 62 33v1q0 22 -108 56q-49 19 -49 56v7q0 41 73 58h25q35 0 85 -25q-25 -39 -32 -44q-30 19 -59 19
q-30 0 -36 -15q9 -15 90 -41q58 -25 58 -71v-11q0 -49 -69 -78q-15 -3 -23 -3z" />
    <glyph glyph-name="vowelsignpepetcombbali" unicode="&#x1b42;" 
d="M-199 984h17q154 0 242 -122v-5q-198 -62 -454 -153q-5 15 -7 45q171 71 346 124v2q-66 38 -146 38h-5q-117 0 -197 -67q-49 -51 -49 -113q0 -29 32 -129h-3q-18 -4 -34 -4h-5q-82 0 -124 69q-17 35 -17 69q5 47 5 55v7h-3l-19 -11h-5q-10 28 -10 31q38 29 68 31h17
l13 -2q-22 -70 -22 -100q11 -105 80 -105q-32 49 -32 100q0 142 173 216q67 24 139 24z" />
    <glyph glyph-name="vowelsignpepettedungbali" unicode="&#x1b43;" horiz-adv-x="592" 
d="M262 530h9q178 0 249 -153q22 -50 22 -109v-6q0 -133 -86 -211q-66 -51 -140 -51h-9q-46 0 -103 22v1q35 46 39 47q43 -11 71 -11h11q80 0 133 94q24 56 24 107q0 122 -136 172q-40 12 -88 12q-157 0 -213 -155q-6 -31 -11 -31h-30q-4 0 -4 4q0 79 47 164q78 104 215 104
zM-199 984h17q154 0 242 -122v-5q-198 -62 -454 -153q-5 15 -7 45q171 71 346 124v2q-66 38 -146 38h-5q-117 0 -197 -67q-49 -51 -49 -113q0 -29 32 -129h-3q-18 -4 -34 -4h-5q-82 0 -124 69q-17 35 -17 69q5 47 5 55v7h-3l-19 -11h-5q-10 28 -10 31q38 29 68 31h17l13 -2
q-22 -70 -22 -100q11 -105 80 -105q-32 49 -32 100q0 142 173 216q67 24 139 24z" />
    <glyph glyph-name="adegadegbali" unicode="&#x1b44;" horiz-adv-x="391" 
d="M55 934h31q146 0 223 -133q36 -82 36 -165v-40q0 -165 -134 -714q-36 -171 -36 -277q0 -153 108 -410q-8 -7 -36 -16q-76 77 -106 149q-60 133 -60 280v18q0 158 132 634q50 201 50 322v38q0 166 -107 205q-44 18 -89 18h-12q-88 0 -142 -79q-21 -44 -21 -91
q0 -26 19 -109l-60 -21q-24 68 -24 127v30q0 88 74 170q73 64 154 64z" />
    <glyph glyph-name="kafsasakbali" unicode="&#x1b45;" horiz-adv-x="1003" 
d="M126 530h16q70 0 85 -108q7 -52 7 -114h3v3q0 21 2 64l4 1h28q3 0 3 -3v-65h2q0 51 25 116q65 105 198 105q164 0 208 -133q15 -76 15 -291l1 -13l4 2h7q57 7 57 38q4 0 5 78q2 266 2 308l3 2h20q87 0 116 -69q16 -38 16 -236v-170q0 -4 -3 -4h-34q-4 0 -4 4v80
q0 70 2 172q0 97 -35 136q-26 12 -39 12l-2 -21v-225q0 -133 -44 -141q-26 -17 -71 -17q-40 0 -40 6q0 326 -18 326q0 21 -46 52q-37 24 -109 24h-43q-101 0 -136 -78q-8 -27 -12 -62h3q90 0 193 -50q78 -52 78 -120v-14q0 -65 -87 -87q-32 -3 -37 -4q-78 0 -154 76
q-35 56 -35 125h-6v-22q0 -284 18 -284q14 -39 55 -60q35 -18 71 -18h17q81 0 119 98q3 22 9 22h10q18 -1 18 -4q0 -89 -74 -165q-40 -27 -83 -27h-25q-111 0 -158 132q-14 53 -14 142v184h-5v-12q0 -132 -41 -163q-26 -22 -58 -22q-62 0 -81 71q-2 9 -2 18v9q0 106 134 165
q0 157 -51 157q-32 0 -32 -38q0 -31 50 -92v-4q-34 -11 -39 -11q-60 57 -60 125v4q0 68 51 87q8 3 23 3zM317 235v-2q0 -5 -2 -12q0 -70 78 -122q45 -20 97 -20q41 0 55 38v2q0 86 -228 116zM92 134v-8q0 -48 45 -48q39 0 54 61q4 26 6 60q-2 14 -2 29q-103 -36 -103 -94z
" />
    <glyph glyph-name="khotsasakbali" unicode="&#x1b46;" horiz-adv-x="1662" 
d="M129 531h16q71 0 94 -115q4 -23 6 -121h32q4 0 4 6q0 163 145 217q31 11 84 11q165 0 219 -146q11 -31 11 -128v-21q0 -82 67 -125q43 -21 94 -21q103 0 136 60q23 23 23 176q1 56 25 132q35 71 115 71h19q157 0 157 -168q2 -23 4 -104q-2 -146 -4 -194q70 10 70 62
q4 45 4 130v268q0 4 3 4q110 0 146 -90q13 -46 13 -176v-244q0 -3 -4 -3h-37q-4 0 -4 3v215q0 173 -29 186q0 10 -43 23q-2 -61 -2 -90v-134q0 -159 -40 -184q-31 -19 -73 -19q-43 1 -53 5q5 87 5 209v50q0 120 -26 142q-30 23 -74 23h-23q-66 0 -87 -50q-15 -32 -15 -94
v-44q0 -201 -125 -236q-47 -11 -90 -11q-114 0 -184 99q-24 27 -24 183q0 105 -76 136q-48 15 -110 15q-125 0 -155 -79q-11 -32 -11 -63h2q93 0 198 -57q74 -55 74 -133v-5q0 -71 -81 -98q-23 -4 -36 -4h-23q-70 0 -146 79q-37 60 -37 132q-23 -2 -33 -2h-7
q0 -158 -47 -190q-30 -19 -55 -19q-60 0 -83 61q-6 15 -8 43q0 113 129 178q11 4 11 9q0 160 -53 160h-8q-21 0 -26 -33v-8q0 -33 53 -97q-18 -12 -44 -12q-62 58 -62 119v25q0 59 53 82q14 4 26 4zM94 104v-2q0 -58 49 -58q46 0 60 79q4 36 4 53q-2 26 -2 37h-2
q-109 -39 -109 -109zM328 211q0 -10 -2 -10q0 -70 70 -122q48 -25 100 -25q44 4 53 34v10q0 44 -85 80q-53 21 -136 33z" />
    <glyph glyph-name="tzirsasakbali" unicode="&#x1b47;" horiz-adv-x="1062" 
d="M141 535q51 0 72 -63q5 -23 5 -46v-14l-12 -207q0 -74 62 -100h6v230q0 4 3 4h31q3 -1 3 -4v-240q33 -4 60 -4h19q92 0 120 48q11 20 11 39v5q0 39 -38 47q-94 12 -114 34q-36 34 -36 92q0 97 106 154q61 19 102 19q164 0 218 -125q20 -33 20 -213v-125h5q59 0 59 41
q4 13 6 96q-4 277 -4 315q4 2 6 2q92 0 120 -37q39 -35 39 -184q2 -55 2 -162v-130q0 -4 -4 -4h-45q-3 0 -3 4v230q0 170 -23 179q-7 9 -42 17q2 -49 2 -71v-182q0 -144 -55 -168q-31 -11 -54 -11q-52 1 -52 8v155q0 162 -13 196q-42 82 -182 85q-117 0 -149 -52
q-5 -17 -5 -23v-8q0 -35 71 -46q127 -25 127 -133q0 -99 -93 -151q-50 -27 -138 -27q-15 0 -41 4q0 -133 45 -164q44 -36 100 -36h11q98 0 131 117q0 4 3 4h15q13 0 14 -6q0 -68 -57 -148q-44 -44 -102 -44h-27q-103 0 -152 117q-20 55 -20 152v19q-120 53 -120 179
q0 34 14 190q0 67 -37 67q-31 -4 -31 -32v-10q0 -33 50 -98q-30 -13 -39 -13q-61 60 -61 121v23q0 67 68 88h23z" />
    <glyph glyph-name="efsasakbali" unicode="&#x1b48;" horiz-adv-x="816" 
d="M147 535q74 0 87 -91v-30q0 -37 -11 -178q0 -61 67 -98q53 -17 79 -17v231l2 3l14 -1h22q4 -1 4 -4v-231h6q97 0 133 76q4 18 6 100q-2 118 -2 228v3q0 4 4 4h2q13 0 23 1q114 0 147 -78q10 -20 10 -110q0 -73 -2 -293l-4 -2h-49l-4 2q2 29 2 44v183q0 122 -26 151
q-26 20 -46 20v-7q0 -292 -16 -292q-23 -62 -73 -87q-55 -21 -109 -21q0 -138 48 -164q46 -37 113 -37h17q93 0 133 97q4 20 10 20h6q26 0 26 -5q0 -70 -66 -146q-48 -41 -111 -41h-25q-119 0 -173 114q-22 52 -22 147v16h-2q-109 0 -178 86q-24 47 -24 112l12 156
q0 61 -22 61q0 3 -18 5q-31 -4 -31 -34v-5q0 -30 55 -91q-33 -12 -44 -12q-67 56 -67 112v21q0 64 77 82h20z" />
    <glyph glyph-name="vesasakbali" unicode="&#x1b49;" horiz-adv-x="806" 
d="M148 530q61 0 87 -68q4 -22 4 -37v-18q0 -31 -12 -186q0 -83 122 -106v247q1 4 4 4h35q4 -1 4 -4v-250h22q102 0 135 69q18 60 18 117v12q0 118 -71 156q-21 7 -57 7q-4 0 -4 5q0 19 46 41q34 11 70 11q139 0 179 -102q18 -49 18 -177q0 -56 -2 -214l-6 -4q-38 2 -55 2
l-2 4q4 169 4 232q0 137 -37 161q-25 27 -61 27h-2v-2q39 -76 39 -168q0 -154 -86 -224q-52 -32 -146 -32q0 -125 61 -155q46 -29 104 -29h18q93 0 136 97q4 21 11 21h6q26 0 26 -5q0 -70 -67 -147q-50 -41 -114 -41h-26q-122 0 -177 114q-23 53 -23 149q-53 0 -126 46
q-59 44 -59 152q0 21 12 154q0 66 -34 66q-35 -4 -35 -30v-8q0 -32 55 -89v-5l-43 -11q-69 57 -69 113v21q0 61 77 84h21z" />
    <glyph glyph-name="zalsasakbali" unicode="&#x1b4a;" horiz-adv-x="783" 
d="M150 535h23q67 0 92 -74q10 -34 10 -80v-4q0 -46 -4 -92q42 -9 77 -41v133q1 12 6 12h31q3 -1 3 -4v-186q69 -96 116 -96q52 0 52 117v20q0 76 -6 295q116 0 142 -52q25 -28 25 -132v-224q0 -29 -2 -96l-3 -2h-50q-4 0 -4 4v231q0 149 -21 165q-10 11 -25 17v-269
q0 -155 -100 -155h-10q-57 0 -112 61v-4q0 -130 23 -161q49 -65 129 -65h21q89 0 129 100q4 22 10 22h6q25 0 25 -5q0 -73 -64 -152q-47 -43 -107 -43h-25q-115 0 -168 119q-21 54 -21 153v88q-61 66 -79 66q0 -178 -111 -178q-71 0 -93 65q-5 20 -5 34v13q0 70 73 122
q50 30 84 30q2 34 2 50v27q0 101 -61 101q-42 0 -48 -38v-7q0 -19 38 -63v-4q-3 0 -36 -24h-4q-58 61 -58 102v15q0 59 71 85q18 4 29 4zM123 133v-13q8 -39 37 -39h3q42 0 49 68q1 12 5 62h-4q-61 0 -88 -63q-2 -8 -2 -15z" />
    <glyph glyph-name="asyurasasakbali" unicode="&#x1b4b;" horiz-adv-x="1408" 
d="M150 530h23q66 0 91 -76q10 -37 10 -90q0 -35 -4 -94q60 0 157 -140q38 -46 75 -46q39 0 48 67q4 30 4 65q0 125 -8 312l4 2q118 0 145 -63q19 -29 19 -147v-146q0 -52 41 -86q22 -8 38 -8h13q81 0 111 180q14 104 14 217q3 7 5 7h35q3 0 6 -5q0 -18 -2 -33
q0 -151 44 -293q30 -59 73 -59h7q50 0 71 57q6 35 6 109v255q0 4 4 4q131 0 157 -79q21 -22 21 -206v-219q0 -4 -4 -4h-40l-4 2q-9 387 -19 387q-22 48 -69 48q2 -195 2 -226q0 -141 -50 -184q-28 -30 -71 -30q-88 0 -119 92q-18 44 -30 95h-2q-40 -187 -142 -187
q-99 0 -134 84q-21 32 -21 247q-10 82 -23 82q-11 15 -25 17v-1q2 -76 2 -113v-156q0 -129 -55 -157q-22 -11 -41 -11h-15q-74 0 -153 121q-57 60 -77 65q0 -184 -113 -184q-67 0 -88 63q-7 19 -7 38v8q0 100 107 151q38 12 50 12q1 41 1 61v15q0 108 -61 108q-42 0 -48 -39
v-7q0 -20 39 -65v-4q-4 0 -39 -27q-59 63 -59 109v13q0 61 71 89q18 3 29 3zM123 115v-14q7 -40 36 -40h8q42 12 42 62q4 15 8 72q-67 0 -92 -65q-2 -7 -2 -15z" />
    <glyph glyph-name="zerobali" unicode="&#x1b50;" horiz-adv-x="479" 
d="M240 467h14q87 0 175 -131q0 -5 -3 -5q3 -31 3 -45v-32q0 -95 -84 -197q-59 -57 -111 -57h-16q-74 0 -168 134q0 240 147 322q23 11 43 11zM52 143v-2h3q7 0 61 6q57 -74 120 -74t113 102q12 32 30 113q27 22 41 38h-3q-35 -17 -43 -22h-4q-52 86 -125 86
q-61 0 -113 -104q-9 -25 -30 -118q-3 0 -50 -25z" />
    <glyph glyph-name="onebali" unicode="&#x1b51;" horiz-adv-x="1080" 
d="M855 689q64 0 91 -87q4 -13 4 -17q29 0 51 56q4 17 8 17q21 -11 21 -41q0 -59 -67 -92q4 -118 4 -262v-32q0 -146 -47 -177q-38 -44 -159 -44l-2 4q51 128 51 255v4q0 170 -114 170q-80 0 -114 -133l-6 -4h-2q-6 3 -25 68q-30 67 -88 67h-8q-118 0 -118 -189
q0 -84 47 -236l-4 -2h-33q-183 0 -183 168q16 192 16 219q0 39 -34 46h-10q-29 -4 -29 -29v-11q0 -34 55 -99q-33 -14 -43 -14h-2l-41 49q-24 35 -24 77v19q0 68 75 89h21q59 0 85 -61q8 -25 8 -51q-18 -173 -18 -187v-29q0 -93 63 -109q16 -4 19 -4q-25 85 -25 171v3
q0 202 110 260q37 15 63 15h8q71 0 119 -89q39 87 114 87h8q112 0 157 -147q12 -48 12 -102v-20q0 -74 -31 -193q23 0 55 42q23 20 23 229v172l2 4q-58 0 -110 58q-14 18 -14 44q10 68 61 68zM842 621v-8q17 -24 64 -39h2v2q-18 57 -47 57q-11 0 -19 -12z" />
    <glyph glyph-name="twobali" unicode="&#x1b52;" horiz-adv-x="960" 
d="M450 534h13q68 0 114 -86v-4h2q46 88 109 88l10 2q104 0 153 -126q16 -61 16 -148v-72q0 -200 -8 -200h-50l-4 2q2 102 2 150v108q0 144 -51 176q-26 14 -58 14h-2q-78 0 -111 -136l-6 -4h-4q-4 0 -22 66q-32 72 -84 72h-21q-87 0 -106 -134q-4 -37 -4 -62q0 -77 46 -244
h-28q-189 0 -189 170q0 15 14 218q-5 62 -40 62h-2q-33 -4 -33 -34v-8q0 -37 55 -102q0 -4 -43 -16q-68 65 -68 126v24q0 68 72 92q10 2 19 2q94 0 94 -122v-10l-10 -206v-12q0 -69 38 -92q31 -16 43 -16q-25 94 -25 178q0 207 109 268q35 16 60 16zM806 0q13 0 53 -2v-2
q3 -75 -41 -237q31 11 75 44h6q5 0 11 -41q-23 -42 -95 -68q-20 -1 -25 -20q-37 -120 -85 -214q-51 -102 -141 -210q-52 -56 -87 -74q-7 2 -26 53q72 73 70 128q-3 89 -174 175q-121 68 -124 145l-1 26q-3 113 108 172q26 10 52 11l22 1q70 2 170 -65q107 -68 176 -65
q39 105 54 242zM290 -285q2 -70 83 -107q75 -39 124 -80q75 -89 77 -149h2q75 103 142 304q-101 -3 -261 114q-45 23 -75 22h-12q-70 -3 -81 -96z" />
    <glyph glyph-name="threebali" unicode="&#x1b53;" horiz-adv-x="981" 
d="M140 534h14q58 0 84 -71q4 -26 6 -57q-12 -208 -12 -216q0 -95 47 -114q26 -13 37 -13q-37 93 -37 190q0 152 82 238q58 43 106 43h14q65 0 115 -88v-6q49 88 94 88q0 4 20 4h21q77 0 153 -96q47 -81 47 -183v-39q0 -248 -180 -336q-64 -30 -157 -49q-175 -24 -262 -55
q-204 -80 -204 -254q0 -83 65 -174h8v5q0 217 200 285q62 18 125 18h2q159 0 252 -126q32 -52 32 -110q0 -140 -114 -251q-5 -12 -12 -12q-15 0 -56 2l-2 4q117 122 117 228q0 101 -98 161q-53 27 -109 27h-34q-123 0 -203 -116q-28 -59 -28 -143q0 -26 14 -90h-2
q-25 -2 -27 -2q-114 0 -196 206q-12 52 -12 92v36q0 112 114 224q98 83 264 106q188 26 311 72q57 30 81 81q43 98 43 177v19q0 109 -53 163q-43 34 -88 34h-4q-81 0 -114 -138l-8 -6q-8 0 -19 48q-32 94 -94 94h-20q-74 0 -100 -91q-13 -49 -13 -100v-6q0 -86 64 -251v-2
l-4 -2h-39q-5 0 -8 -2q-4 2 -9 2h-8q-92 0 -149 75q-22 41 -22 100l12 222v10q-6 55 -43 55q-35 -4 -35 -34v-8q0 -35 57 -106q0 -2 -2 -2q-39 -13 -42 -13q-70 64 -70 135v16q0 62 67 100z" />
    <glyph glyph-name="fourbali" unicode="&#x1b54;" horiz-adv-x="673" 
d="M344 598h13q6 0 8 -39q-92 -14 -133 -41q-98 -69 -98 -220q0 -150 136 -202q74 -18 114 -18q117 0 169 75q5 17 5 23v5q0 47 -68 47q-168 7 -168 16l-8 10v18q0 26 144 26q73 25 73 72v5q0 54 -84 63h-6q-57 -5 -57 -31v-3q11 -32 11 -39q0 -28 -41 -33h-5q-45 0 -54 72
v3q0 74 111 111l44 5q96 0 138 -83q8 -35 8 -46q0 -62 -57 -106q84 -48 84 -112v-2q0 -126 -149 -174q-45 -10 -90 -10h-11q-105 0 -220 70q-103 88 -103 222v16q0 216 212 290q48 10 82 10z" />
    <glyph glyph-name="fivebali" unicode="&#x1b55;" horiz-adv-x="706" 
d="M356 598h43q120 0 210 -105q47 -86 47 -174v-36q0 -144 -93 -545q-31 -155 -31 -241q0 -137 77 -272q2 0 19 -26q0 -3 -34 -26h-2q-143 122 -143 377q0 146 98 495q40 188 40 248v10q0 180 -148 212q-42 7 -76 7q-142 0 -220 -127q-29 -66 -29 -133v-5q0 -139 96 -183
q52 -22 100 -22q86 0 117 46q7 16 7 31q0 42 -62 50q-22 4 -117 7l-2 5q4 59 12 59h19q34 0 79 -2q69 14 69 69v16q0 36 -31 48q-3 0 -26 5q-46 0 -60 -38l17 -38q0 -29 -36 -34q-47 0 -55 67q0 92 112 110h17q83 0 117 -86q2 -5 7 -36q0 -60 -52 -107q55 -33 55 -95
q0 -104 -122 -148q-34 -7 -67 -7q-139 0 -215 119q-43 74 -43 157v29q0 161 124 259q91 60 182 60z" />
    <glyph glyph-name="sixbali" unicode="&#x1b56;" horiz-adv-x="791" 
d="M333 535h21q60 0 147 -34v-2q-9 -43 -17 -43q-74 22 -128 22q-162 0 -215 -159q-6 -22 -6 -48q0 -120 84 -178q24 -12 59 -16v2q-34 85 -34 133v4q0 121 143 157q34 5 66 5q192 0 271 -198q17 -46 17 -97v-41q0 -5 -46 -18q-2 4 -2 6q0 209 -156 267q-46 12 -78 12
q-119 0 -137 -93q0 -7 -2 -18q0 -69 72 -166v-2q-37 -30 -91 -30h-21q-74 0 -162 79q-63 77 -63 175v27q0 103 101 193q77 61 177 61z" />
    <glyph glyph-name="sevenbali" unicode="&#x1b57;" horiz-adv-x="1024" 
d="M815 666q63 0 87 -102q23 0 45 55q4 17 7 17q20 -10 20 -40q0 -53 -54 -87h-2q4 -187 4 -243q0 -192 -96 -247q-35 -19 -72 -19h-32q-164 0 -192 166q-4 53 -4 119v19q0 89 -36 115q-31 15 -64 15q-84 -11 -84 -72q-7 -44 -7 -183q0 -63 2 -173l-3 -2h-22q-123 0 -144 66
q-18 37 -18 111l11 238q-4 28 -27 28h-9q-20 0 -25 -32v-7q0 -34 50 -97q-28 -13 -39 -13h-2q0 2 -34 42q-25 37 -25 81v20q0 53 55 82q15 3 31 3q57 0 78 -66q4 -25 4 -43q-11 -206 -11 -245v-6q3 -60 23 -60q5 -6 23 -6h18v2q0 257 14 307q36 115 141 115q108 0 145 -94
q7 -33 7 -83v-34q0 -139 14 -162q37 -64 125 -64h11q106 0 130 75q10 42 10 172q-1 116 -1 166q-45 0 -97 58q-10 20 -10 42q8 66 55 66zM803 611v-7q17 -25 60 -38v2q-16 55 -43 55q-10 0 -17 -12z" />
    <glyph glyph-name="eightbali" unicode="&#x1b58;" horiz-adv-x="832" 
d="M576 701q74 0 106 -85q5 -16 5 -20q34 0 60 56q5 18 9 18q26 -11 26 -41q0 -59 -79 -93h-5v-2l5 -6q7 -118 7 -188v-25q0 -248 -100 -288q-51 -27 -132 -27h-37q-164 0 -234 109q-20 50 -20 112q0 20 14 181q-6 50 -40 50h-11q-35 -3 -35 -29v-11q0 -33 65 -99
q-39 -14 -51 -14q-79 59 -79 126v20q0 59 72 85q10 4 30 4h14q91 0 106 -103v-10q-18 -166 -18 -192q0 -146 217 -146q141 0 167 107q14 59 14 130v22q0 119 -7 188q-67 0 -132 66q-9 20 -9 37q11 68 72 68zM559 645v-8q22 -25 79 -39v2q-21 56 -55 56q-14 0 -24 -11z" />
    <glyph glyph-name="ninebali" unicode="&#x1b59;" horiz-adv-x="988" 
d="M732 672q81 0 113 -103q30 0 58 56q5 17 10 17q25 -10 25 -40q0 -54 -74 -91q9 -136 9 -224v-40q0 -198 -104 -239q-23 -8 -47 -8h-11q-103 0 -144 95q-18 39 -30 76h-2q-55 -171 -160 -171h-21q-127 0 -167 104q-12 37 -12 76v12q0 20 23 205v4q0 53 -44 53
q-39 -5 -39 -33v-9q0 -32 65 -97q-39 -13 -51 -13q-79 60 -79 119v23q0 58 72 84q10 4 30 4h12q66 0 99 -57q5 -15 5 -27v-8q0 -64 -23 -225q0 -98 53 -128q25 -9 53 -9q98 0 137 173q12 74 16 224l10 5h46q5 -1 9 -9q0 -5 -2 -29q0 -126 42 -269q35 -82 100 -82q68 0 83 74
q14 53 14 125v42q0 106 -7 173q-59 0 -125 59q-14 18 -14 42q11 66 72 66zM715 617v-8q22 -24 79 -38v2q-21 55 -55 55q-14 0 -24 -11z" />
    <glyph glyph-name="pantibali" unicode="&#x1b5a;" horiz-adv-x="1104" 
d="M319 535h26q82 0 113 -102q8 -35 8 -72q0 -72 -4 -193q0 -130 33 -152q28 -15 47 -15h18q78 19 78 128q7 309 13 309q21 94 121 94h9q91 0 121 -94q11 -49 11 -120l-11 -358q0 -120 54 -120q44 0 44 120v51q0 5 4 5h46q4 -1 4 -5v-22q0 -197 -67 -224q-20 -5 -28 -5h-20
q-100 0 -100 205v41l9 312q0 73 -24 96q-34 22 -56 22q-63 -11 -63 -89q-10 -314 -22 -314q-34 -123 -132 -123q-100 0 -135 125q-10 66 -10 135q2 98 2 131q0 145 -80 145q-49 0 -68 -51q-11 0 -13 -307q-11 -89 -34 -137q-31 -41 -70 -41q-64 0 -89 84q-4 23 -4 36v27
q0 59 46 138q34 -32 34 -37q-24 -71 -24 -111q5 -46 31 -46h4q46 0 46 155v166q0 157 71 196q33 17 61 17z" />
    <glyph glyph-name="pamadabali" unicode="&#x1b5b;" horiz-adv-x="1163" 
d="M428 530h15q58 0 104 -77l1 -10h4q10 27 38 58q36 29 71 29q103 0 147 -125q15 -55 15 -157v-27q0 -110 -4 -216l-3 -2h-47l-4 2q2 144 2 226v10q0 144 -44 179q-26 17 -60 17h-2q-73 0 -103 -125q-5 -10 -8 -10h-3q-5 0 -19 58q-31 75 -81 75h-25q-83 0 -97 -148
q-2 -14 -2 -39q0 -82 43 -235l-4 -2h-19q-138 0 -171 89q-11 43 -11 75q0 20 13 208q-5 62 -36 62h-3q-32 -4 -32 -33v-7q0 -36 52 -99q0 -4 -41 -15q-64 60 -64 127v17q0 66 68 89q10 2 19 2q88 0 88 -121v-4l-9 -199v-17q0 -63 35 -85q30 -16 42 -16q-25 89 -25 172
q0 196 102 259q36 15 58 15zM880 503h12q99 0 139 -103q13 0 13 -520v-148q18 -10 102 -104q-37 -21 -45 -21q-20 25 -55 58h-2q-2 -358 -2 -479l-4 -2h-44l-3 2q3 441 3 520q-32 22 -55 30v-166q0 -274 -64 -341q-50 -60 -122 -60h-21q-112 0 -152 106q-4 17 -4 34
q-108 -104 -161 -112q-31 -13 -78 -13h-4q-161 0 -220 188q-15 76 -15 142q0 192 131 435h2q4 0 30 -69q-101 -188 -101 -368v-7q0 -175 105 -222q33 -13 61 -13h24q117 0 270 181h2q11 -80 11 -90l-9 -7q22 -86 46 -86q23 -17 58 -17h18q94 0 119 103q25 84 25 205v97
q0 33 -2 101q-69 18 -118 18h-19q-97 0 -129 -31h4q134 0 161 -90q6 -19 6 -43q0 -65 -80 -125q-68 -35 -142 -35h-31q-167 0 -222 145q-8 20 -9 54q0 124 131 217q40 29 123 61q118 32 152 32q32 -35 32 -37v-4q-135 -34 -210 -73q-114 -59 -143 -145q-6 -26 -6 -36v-13
q0 -89 122 -114q18 -3 34 -3q128 0 171 74q2 3 2 8v5q-17 56 -101 56h-32q-46 0 -82 -9q0 2 -2 2q13 77 37 102q63 66 216 66q68 0 135 -19q-11 457 -11 681zM926 415l13 -614q2 0 55 -28v213q0 332 -20 386q-26 43 -48 43z" />
    <glyph glyph-name="windubali" unicode="&#x1b5c;" horiz-adv-x="497" 
d="M250 490h14q91 0 183 -138q0 -5 -2 -5q2 -32 2 -47v-34q0 -99 -88 -207q-61 -59 -116 -59h-17q-78 0 -176 140q0 253 155 338q24 12 45 12zM52 150v-3h3q7 0 64 8q60 -79 126 -79t119 107q12 35 31 119q29 23 43 41h-3q-37 -18 -45 -24h-5q-54 90 -130 90
q-65 0 -119 -109q-10 -26 -31 -124q-3 0 -53 -26z" />
    <glyph glyph-name="carikpamungkahbali" unicode="&#x1b5d;" horiz-adv-x="296" 
d="M227 306q-41 -40 -102 -40q-32 0 -52.5 16t-20.5 49q0 34 15 52t50 16q18 -1 28.5 -13t19.5 -38q-7 -10 -18 -19l-14 13q-11 9 -21 8t-11 -15q0 -14 6.5 -19t15.5 -5q23 0 42 6.5t35 19t29.5 29t24.5 36.5l21 2q-13 -62 -48 -98zM220 113q-40 -42 -102 -42
q-32 0 -52.5 17t-20.5 52q0 34 15 52.5t51 16.5q18 -2 28 -14.5t19 -37.5q-6 -10 -18 -19l-14 11q-10 10 -20 9t-12 -16q1 -14 7 -19t16 -5q22 0 41.5 7t35.5 19.5t29 30t24 37.5l21 3q-12 -66 -48 -102z" />
    <glyph glyph-name="cariksikibali" unicode="&#x1b5e;" horiz-adv-x="415" 
d="M295 -180q-39 401 -150 570l-75 -33l-13 11l101 121q75 -48 129 -230.5t38 -437.5z" />
    <glyph glyph-name="carikparerenbali" unicode="&#x1b5f;" horiz-adv-x="637" 
d="M295 -180q-39 401 -150 570l-75 -33l-13 11l101 121q75 -48 129 -230.5t38 -437.5zM525 -211q-39 401 -150 570l-75 -33l-13 11l101 121q75 -48 129 -230.5t38 -437.5z" />
    <glyph glyph-name="pamenengbali" unicode="&#x1b60;" horiz-adv-x="580" 
d="M352 530h10q98 0 137 -99q5 -27 5 -35q0 -61 -53 -104q79 -47 79 -109v-3q0 -123 -140 -170q-42 -10 -84 -10h-2q-164 0 -234 140q-20 44 -20 106q0 77 38 140q49 -10 58 -18q-33 -83 -33 -130q0 -80 74 -139q58 -33 112 -33q143 0 170 89l5 28q0 50 -74 58q-28 3 -51 3
h-96l-5 -3l-3 5q5 37 11 51q123 0 149 18q48 30 48 88q0 54 -66 74q-13 3 -25 3h-5q-71 -10 -71 -49q20 -40 20 -50q-2 -33 -33 -33h-10q-51 8 -51 63v8q0 68 94 106q26 5 46 5z" />
    <glyph glyph-name="musicalsymboldongbali" unicode="&#x1b61;" horiz-adv-x="647" 
d="M315 535h8q180 0 252 -154q22 -51 22 -111v-5q0 -135 -87 -214q-66 -51 -141 -51h-9q-47 0 -104 22v2q36 46 39 47q43 -12 72 -12h11q81 0 134 95q24 57 24 109q0 123 -137 173q-40 12 -89 12q-158 0 -214 -156q-6 -31 -11 -31h-31q-4 0 -4 4q0 79 48 165q78 105 217 105
z" />
    <glyph glyph-name="musicalsymboldengbali" unicode="&#x1b62;" horiz-adv-x="560" 
d="M291 524h29q137 0 178 -137q12 -36 12 -79v-32q0 -94 -98 -500q-24 -113 -24 -192v-13q0 -120 72 -244v-2q0 -3 -24 -27q-130 128 -130 318q0 133 103 441q39 142 39 239q0 112 -60 145q-42 15 -85 15h-2q-87 0 -118 -69q-12 -30 -12 -57q0 -45 62 -140q-32 -18 -38 -18
q-27 3 -90 34q-55 40 -55 147l55 40h5q-2 -34 -2 -49v-18q0 -58 31 -84h3v3q-24 47 -24 92q0 83 62 151q47 36 111 36z" />
    <glyph glyph-name="musicalsymboldungbali" unicode="&#x1b63;" horiz-adv-x="491" 
d="M441 532q5 0 5 -8q-8 -131 -143 -420q-126 -203 -134 -287q0 -23 30 -25h2q124 0 183 343q15 115 15 173q3 0 40 36h2q3 -35 3 -52q0 -408 -168 -555q-45 -28 -84 -28h-20q-82 9 -82 85v21q0 75 121 258q101 158 156 345q22 102 27 114h47z" />
    <glyph glyph-name="musicalsymboldangbali" unicode="&#x1b64;" horiz-adv-x="605" 
d="M428 67q-66 206 -161 294l-72 -54l-14 12l85 183q82 -50 128 -175t59 -254z" />
    <glyph glyph-name="musicalsymboldangsurangbali" unicode="&#x1b65;" horiz-adv-x="677" 
d="M622 71q-247 -19 -391 110q-123 120 -161 295l87 -15q50 -147 138 -249q114 -127 332 -123z" />
    <glyph glyph-name="musicalsymboldingbali" unicode="&#x1b66;" horiz-adv-x="705" 
d="M388 491h29q122 0 200 -90q38 -52 38 -105v-31q0 -96 -130 -229q-29 43 -29 45v2q101 98 101 188v25q0 76 -112 113q-36 11 -72 11h-32q-100 0 -145 -84q-9 -17 -9 -42q0 -54 85 -191v-4q-19 -46 -23 -47q-60 8 -107 31q-108 64 -108 162v24q0 81 61 171h2q8 -5 24 -29
q-33 -81 -33 -131v-29q0 -74 81 -116h13q-69 81 -69 163q0 116 125 174q54 19 110 19z" />
    <glyph glyph-name="musicalsymboldaengbali" unicode="&#x1b67;" horiz-adv-x="802" 
d="M487 496h18q157 0 247 -125v-4q-202 -64 -465 -157q-5 15 -7 45q175 73 355 128v2q-69 39 -150 39h-5q-121 0 -203 -69q-50 -52 -50 -116q0 -29 33 -131h-3q-18 -5 -35 -5h-5q-84 0 -127 71q-18 35 -18 70q5 48 5 57v7h-2l-20 -12h-5q-10 29 -10 32q38 30 70 32h17l13 -2
q-23 -72 -23 -103q13 -107 83 -107q-33 50 -33 103q0 145 178 220q68 25 142 25z" />
    <glyph glyph-name="musicalsymboldeungbali" unicode="&#x1b68;" horiz-adv-x="605" 
d="M449 552h51q5 -1 5 -5q-97 -178 -97 -212q22 -35 100 -86q74 -48 74 -78v-16q-6 -92 -215 -324q-72 -70 -104 -70h-18q-49 10 -49 44v21q0 73 110 290l8 5h2q4 0 11 -10v-3q0 -57 -67 -250q-2 -15 -2 -21h5q21 0 125 130q97 129 97 175q0 31 -120 97q-46 36 -46 65
q0 50 125 245z" />
    <glyph glyph-name="musicalsymboldaingbali" unicode="&#x1b69;" horiz-adv-x="1178" 
d="M131 524h26q81 -19 81 -111v-13l-18 -253q5 -106 49 -106q0 -6 27 -14v5q-31 88 -31 182v4q0 210 134 262q0 8 45 9h13q63 0 103 -89q50 89 112 89h4q157 0 197 -253v-18q0 -313 -242 -435q-62 -25 -304 -66q-101 -39 -134 -111q-22 -35 -31 -142q12 -177 89 -177h27
q83 0 130 199q53 124 130 124h31q101 0 147 -239q35 -89 81 -89h31q85 0 103 124q0 25 5 49q4 365 4 572v67q0 136 -4 408l9 4h17q112 0 157 -115q9 -64 9 -173v-1020q0 -9 -9 -9h-40l-9 4q4 377 4 577v226q0 408 -49 408q0 9 -18 9v-4q5 -24 5 -40v-58q0 -272 4 -528
q0 -530 -89 -554q-44 -40 -108 -40h-4q-132 0 -170 146q-29 169 -85 169h-31q-52 0 -99 -200q-54 -115 -152 -115h-9q-113 0 -161 146q-13 54 -13 98v49q0 270 255 341q171 36 250 58q67 0 161 142q45 95 45 186q-16 182 -112 182q-8 5 -18 5q-71 0 -112 -142h-4
q-44 133 -76 133l-27 4h-31q-80 0 -94 -168v-27q0 -78 58 -244l-9 -4h-45q-133 0 -170 128q0 10 -4 49q0 36 18 248q0 63 -41 63h-13q-22 -10 -22 -45q0 -37 53 -106v-9q-36 -9 -44 -9q-63 68 -63 133v36q15 88 81 88z" />
    <glyph glyph-name="musicalsymboldanggedebali" unicode="&#x1b6a;" horiz-adv-x="428" 
d="M193 524h22q115 0 159 -113q2 -16 2 -25v-11q0 -108 -125 -152h-2v-5q81 -31 116 -111q13 -41 13 -63v-27q0 -76 -138 -365q-27 -77 -27 -158v-5q0 -107 51 -186l-4 -2h-22q-63 65 -76 143q-12 48 -14 99q0 125 134 383q29 75 29 122q0 113 -165 141q-69 11 -69 16v2
q0 41 9 41q106 0 189 43q47 35 47 72v21q0 47 -69 74q-20 5 -45 7q-89 0 -100 -84v-2q0 -16 25 -38l2 -14v-5q-7 -27 -27 -27h-7q-51 19 -51 77v18q0 91 112 129q16 5 31 5z" />
    <glyph glyph-name="musicalsymboltegehcombbali" unicode="&#x1b6b;" 
d="M-373 670q-62 0 -62 51q0 18 8 43q19 -47 101 -47l25 1q-29 -44 -63 -47z" />
    <glyph glyph-name="musicalsymbolendepcombbali" unicode="&#x1b6c;" 
d="M-373 -230q-62 0 -62 51q0 18 8 43q19 -47 101 -47l25 1q-29 -44 -63 -47z" />
    <glyph glyph-name="musicalsymbolkempulcombbali" unicode="&#x1b6d;" 
d="M-328 933h2q9 -50 9 -86v-115h6q52 0 173 18l2 -1q-6 -20 -57 -52q-70 -38 -131 -38q-13 -84 -40 -124q-27 -43 -47 -64q-4 0 -4 5l28 170v8h-1l-31 -2h-13q-85 0 -158 24l-2 1v2q3 22 75 75h10q78 -22 124 -22q-5 81 -15 117q18 29 70 84z" />
    <glyph glyph-name="musicalsymbolkemplicombbali" unicode="&#x1b6e;" 
d="M-139 751l3 -3v-2q-105 -92 -307 -92h-7q-122 3 -142 21q0 18 73 63q128 -21 190 -21q84 0 190 34z" />
    <glyph glyph-name="musicalsymboljegogancombbali" unicode="&#x1b6f;" 
d="M-252 769v-4q0 -10 -49 -100v-4q44 -81 134 -172l-10 -4q-81 0 -157 134h-4q-112 -138 -186 -138h-30q-36 0 -36 12v3q63 9 148 93q78 101 101 180h89z" />
    <glyph glyph-name="musicalsymbolkempuljegogancombb" unicode="&#x1b70;" 
d="M-321 907l3 -3v-3l-15 -170l207 19v-2q-22 -26 -189 -67q88 -81 166 -107l17 -5v-6l-52 -8q-78 0 -155 81h-3q0 -59 -67 -165h-5q17 110 17 168q-98 -95 -181 -95h-46l-6 5q17 15 151 87l41 39q-166 14 -166 28q1 24 91 73h2q70 -37 108 -37l-17 95q87 73 99 73z" />
    <glyph glyph-name="musicalsymbolkemplijegogancombb" unicode="&#x1b71;" 
d="M-136 751v-2q-39 -47 -161 -81q-23 -3 -23 -8v-2q22 -46 85 -114q7 0 34 -37q0 -6 -7 -6q-65 0 -161 134v4q-102 -128 -226 -128h-21l-4 4q107 55 177 118l18 25h-7q-120 0 -120 33v2q0 19 36 56q99 -37 154 -37h21q85 0 205 39z" />
    <glyph glyph-name="musicalsymbolbendecombbali" unicode="&#x1b72;" 
d="M-209 775h64l57 -2l4 -7q-24 -30 -146 -143q-98 -120 -129 -120h-2q-39 0 -157 166l-2 12q0 29 38 66h6q21 0 66 -113q41 -72 53 -72l85 147q41 66 63 66z" />
    <glyph glyph-name="musicalsymbolgongcombbali" unicode="&#x1b73;" 
d="M-384 778h7q72 0 118 -64q14 -31 14 -61v-10q0 -66 -49 -120q-36 -30 -89 -30h-9q-103 0 -131 71l1 1q59 -19 105 -19q109 0 130 65l3 19q0 49 -54 64q-18 5 -36 5h-15q-64 0 -82 -50l-2 -17q0 -8 9 -46l-1 -1h-4q-37 28 -37 71q0 65 59 105q33 17 63 17zM-422 673
l34 -29q18 -10 84 -16v-1q-31 -45 -72 -45t-57 31q-5 12 -5 22v4q3 34 16 34z" />
    <glyph glyph-name="musicalsymbolrighthandopendugba" unicode="&#x1b74;" horiz-adv-x="700" 
d="M340 451h5q37 -33 191 -394q13 -25 13 -38v-4q0 -15 -71 -15h-9q-19 0 -42 70q-76 183 -93 211h-7q-23 -25 -67 -134l-62 -134l-9 -7h-15q-27 0 -27 15q0 32 140 336q38 83 53 94z" />
    <glyph glyph-name="musicalsymbolrighthandopendagba" unicode="&#x1b75;" horiz-adv-x="700" 
d="M352 438h4q93 0 150 -118q7 -27 7 -56v-12q0 -164 -127 -243q-26 -9 -46 -9h-4q-86 0 -159 130q-7 17 -7 47v2q0 124 106 231q45 28 76 28zM359 334q-100 0 -143 -183l44 -50q32 -23 62 -23q59 0 117 99q33 76 33 94q-15 0 -65 52l-37 14l-2 -3h-9z" />
    <glyph glyph-name="musicalsymbolrighthandclosedtuk" unicode="&#x1b76;" horiz-adv-x="700" 
d="M341 451h5q29 -15 190 -394q13 -21 13 -42q0 -15 -82 -15h-6q-19 12 -86 195q-34 81 -42 87h-5q-8 0 -31 -55q24 -56 24 -77v-4q-4 -19 -11 -19h-8q-27 25 -29 45h-2q-66 -156 -75 -161q-9 -7 -20 -7h-2q-27 0 -27 9v2q0 37 93 233q-58 130 -58 161v2q4 7 14 10
q31 0 68 -114h2q58 134 75 144z" />
    <glyph glyph-name="musicalsymbolrighthandclosedtak" unicode="&#x1b77;" horiz-adv-x="700" 
d="M179 449h2q26 0 50 -60q50 39 99 39h19q78 0 144 -96q31 -50 31 -110v-38q0 -98 -104 -167q-36 -17 -73 -17q-125 0 -178 134q-14 41 -14 93v5q0 46 35 114q-18 39 -30 82q1 21 19 21zM269 308q63 -143 63 -167q-6 -19 -14 -22h-12q-21 0 -82 156q-29 -31 -29 -74
q0 -52 90 -98q24 -10 47 -10h8q105 0 127 77l5 33v2q0 69 -80 113q-17 7 -55 12q-40 0 -68 -22z" />
    <glyph glyph-name="musicalsymbollefthandopenpangba" unicode="&#x1b78;" horiz-adv-x="700" 
d="M605 312l3 -2v-2q-40 -67 -164 -102q-59 -11 -107 -11h-21q-204 10 -204 38q57 68 84 68q130 -38 172 -38l31 -3h8q88 0 198 52z" />
    <glyph glyph-name="musicalsymbollefthandopenpungba" unicode="&#x1b79;" horiz-adv-x="700" 
d="M378 451h5q22 -3 22 -19q0 -22 -123 -280l-25 -52h3q236 0 242 -11l2 -2v-21l-2 -64l-2 -2h-141q-190 0 -190 13l-2 10q0 34 148 333q35 95 63 95z" />
    <glyph glyph-name="musicalsymbollefthandclosedplak" unicode="&#x1b7a;" horiz-adv-x="700" 
d="M278 371h8q29 0 73 -98h54q98 0 192 46l3 -7q-39 -61 -161 -96l-52 -9q27 -52 36 -92q-6 -17 -13 -17h-7q-22 6 -70 107h-42q-122 0 -187 28v3q0 14 52 56q17 13 29 13h7l99 -26v5q-31 55 -31 76q5 10 10 11z" />
    <glyph glyph-name="musicalsymbollefthandclosedpluk" unicode="&#x1b7b;" horiz-adv-x="700" 
d="M378 451h3q24 0 24 -19q-2 -23 -62 -146q42 -114 42 -134v-11q-4 -19 -11 -19h-7q-19 6 -50 100v2q-10 -9 -60 -124h3l24 -2h33l165 -2q15 0 22 -11v-25l-2 -58l-2 -2h-141q-190 0 -190 13l-2 2v9q0 30 119 275v5q-40 103 -40 132v2l11 11h3q28 0 55 -86h2q26 88 61 88z
" />
    <glyph glyph-name="musicalsymbollefthandopenpingba" unicode="&#x1b7c;" horiz-adv-x="700" 
d="M347 220q-62 0 -62 51q0 18 8 43q19 -47 101 -47l25 1q-29 -44 -63 -47z" />
    <glyph glyph-name="zerowidthspace" unicode="&#x200b;" 
 />
    <glyph glyph-name="zwnj" unicode="&#x200c;" 
 />
    <glyph glyph-name="zwj" unicode="&#x200d;" 
 />
    <glyph glyph-name="dottedcircle" unicode="&#x25cc;" horiz-adv-x="594" 
d="M272 485q0 10 7.5 17t17.5 7q9 0 16.5 -7t7.5 -17q0 -12 -7.5 -18.5t-16.5 -6.5q-10 0 -17.5 7t-7.5 18zM359 477q4 9 13.5 13t18.5 0q8 -3 12.5 -12.5t0.5 -19.5t-14 -13t-18 0q-9 4 -13 13t0 19zM232 477q4 -10 0 -19t-13 -13q-8 -3 -18 0.5t-14 12.5q-4 11 0.5 20
t12.5 12q10 4 19 0.5t13 -13.5zM437 437q7 7 17 7t17 -8q7 -6 7.5 -16.5t-7.5 -17.5q-8 -8 -18 -7t-16 7q-7 7 -7.5 17t7.5 18zM155 436q7 -7 7 -17t-8 -17q-6 -7 -16.5 -7.5t-17.5 7.5q-8 8 -7 18t7 16q7 7 17 7.5t18 -7.5zM493 368q10 4 19 0t13 -13q3 -8 -0.5 -18
t-12.5 -14q-11 -4 -20 0.5t-12 12.5q-4 10 -0.5 19t13.5 13zM99 368q9 -4 13 -13.5t0 -18.5q-3 -8 -12.5 -12.5t-19.5 -0.5t-13 14t0 18q4 9 13 13t19 0zM519 285q10 0 17 -7.5t7 -17.5q0 -9 -7 -16.5t-17 -7.5q-12 0 -18.5 7.5t-6.5 16.5q0 10 7 17.5t18 7.5zM73 285
q10 0 17 -7.5t7 -17.5q0 -9 -7 -16.5t-17 -7.5q-12 0 -18.5 7.5t-6.5 16.5q0 10 7 17.5t18 7.5zM512 198q9 -4 13 -13.5t0 -18.5q-3 -8 -12.5 -12.5t-19.5 -0.5t-13 14t0 18q4 9 13 13t19 0zM81 197q10 4 19 0t13 -13q3 -8 -0.5 -18t-12.5 -14q-11 -4 -20 0.5t-12 12.5
q-4 10 -0.5 19t13.5 13zM471 120q7 -7 7 -17t-8 -17q-6 -7 -16.5 -7.5t-17.5 7.5q-8 8 -7 18t7 16q7 7 17 7.5t18 -7.5zM122 120q7 7 17 7t17 -8q7 -6 7.5 -16.5t-7.5 -17.5q-8 -8 -18 -7t-16 7q-7 7 -7.5 17t7.5 18zM190 65q4 9 13.5 13t18.5 0q8 -3 12.5 -12.5t0.5 -19.5
t-14 -13t-18 0q-9 4 -13 13t0 19zM403 64q4 -10 0 -19t-13 -13q-8 -3 -18 0.5t-14 12.5q-4 11 0.5 20t12.5 12q10 4 19 0.5t13 -13.5zM273 38q0 10 7.5 17t17.5 7q9 0 16.5 -7t7.5 -17q0 -12 -7.5 -18.5t-16.5 -6.5q-10 0 -17.5 7t-7.5 18z" />
    <glyph glyph-name="cereg1" 
d="M362 -315h-21q-85 0 -134 88q-2 2 -2 6q34 23 36 23q38 -55 104 -59q54 3 62 33v1q0 22 -108 56q-49 19 -49 56v7q0 41 73 58h25q35 0 85 -25q-25 -39 -32 -44q-30 19 -59 19q-30 0 -36 -15q9 -15 90 -41q58 -25 58 -71v-11q0 -49 -69 -78q-15 -3 -23 -3z" />
    <glyph glyph-name="cereg2" 
d="M14 705h-21q-85 0 -134 88q-2 2 -2 6q34 23 36 23q38 -55 104 -59q54 3 62 33v1q0 22 -108 56q-49 19 -49 56v7q0 41 73 58h25q35 0 85 -25q-25 -39 -32 -44q-30 19 -59 19q-30 0 -36 -15q9 -15 90 -41q58 -25 58 -71v-11q0 -49 -69 -78q-15 -3 -23 -3z" />
    <glyph glyph-name="cereg3" 
d="M397 -330h-21q-85 0 -134 88q-2 2 -2 6q34 23 36 23q38 -55 104 -59q54 3 62 33v1q0 22 -108 56q-49 19 -49 56v7q0 41 73 58h25q35 0 85 -25q-25 -39 -32 -44q-30 19 -59 19q-30 0 -36 -15q9 -15 90 -41q58 -25 58 -71v-11q0 -49 -69 -78q-15 -3 -23 -3z" />
    <glyph glyph-name="cereg4" 
d="M425 175h26q3 0 3 -3v-177q0 -112 10 -149q35 -62 110 -62h17q68 0 100 73q3 16 8 16h4q20 0 20 -4q0 -53 -50 -111q-35 -31 -87 -31h-17q-108 0 -141 118q-6 35 -6 67v260q0 3 3 3z" />
    <glyph glyph-name="cereg5" 
d="M403 -355h26q3 0 3 -3v-177q0 -112 10 -149q35 -62 110 -62h17q68 0 100 73q3 16 8 16h4q20 0 20 -4q0 -53 -50 -111q-35 -31 -87 -31h-17q-108 0 -141 118q-6 35 -6 67v260q0 3 3 3z" />
    <glyph glyph-name="signsurangcombbali.2" 
d="M-17 621q-191 -18 -302 105q-96 114 -125 280l67 -14q40 -140 108 -237q87 -121 256 -117z" />
    <glyph glyph-name="signsurangcombbali.3" 
d="M-28 861q-186 -14 -294 83q-93 90 -122 222l66 -11q38 -111 104 -188q86 -95 250 -92z" />
    <glyph glyph-name="vowelsignsukucombbali.2" 
d="M-75 -482q3 -2 3 -6v-4q-5 -37 -32 -83q-17 -26 -30 -34q-28 -25 -67 -44q-46 -27 -46 -52v-3q0 -23 38 -29q5 -1 12 -1h2q49 0 85 54q8 17 13 31q11 34 11 44q6 61 9 61q2 6 7 6q9 -5 9 -43q0 -58 -18 -117q-27 -67 -87 -96q-27 -13 -57 -13q-46 0 -74 43q-9 19 -9 41
q0 38 27 74q21 22 48 36q16 8 59 29q22 10 43 31q20 23 27 38q13 22 20 32q3 5 7 5z" />
    <glyph glyph-name="vowelsignsukucombbali.3" 
d="M6 -330h3q36 0 57 -22q18 -23 18 -59q0 -56 -32 -101q-18 -24 -77 -97q-41 -57 -41 -79v-3q0 -13 22 -17q3 -2 5 -2h6q31 0 67 37q22 29 31 52q4 9 10 50q1 23 7 64q2 17 11 17q3 0 9 -10q4 -12 4 -41v-1q0 -113 -60 -180q-44 -42 -95 -42q-43 0 -57 40q-3 11 -3 18v7
q0 52 57 119q61 75 67 93q15 31 15 49q0 21 -15 35q-9 6 -20 6q-36 0 -47 -52q-5 -33 -9 -33h-1q-10 0 -11 35v8q0 67 36 95q21 14 43 14z" />
    <glyph glyph-name="vowelsignsukucombbali.4" 
d="M-34 -297h3q36 0 57 -22q18 -23 18 -59q0 -56 -32 -101q-18 -24 -77 -97q-41 -57 -41 -79v-3q0 -13 22 -17q3 -2 5 -2h6q31 0 67 37q22 29 31 52q4 9 10 50q1 23 7 64q2 17 11 17q3 0 9 -10q4 -12 4 -41v-1q0 -113 -60 -180q-44 -42 -95 -42q-43 0 -57 40q-3 11 -3 18v7
q0 52 57 119q61 75 67 93q15 31 15 49q0 21 -15 35q-9 6 -20 6q-36 0 -47 -52q-5 -33 -9 -33h-1q-10 0 -11 35v8q0 67 36 95q21 14 43 14z" />
    <glyph glyph-name="vowelsignsukuilutcombbali.2" 
d="M-88 -511h2q6 0 8 -6q5 -3 7 -54q0 -8 3 -8q119 -26 119 -111v-2q0 -39 -28 -100q-28 -63 -43 -63q-8 0 -8 10q0 9 15 44q13 37 13 62q0 33 -20 58q-24 25 -69 25l-24 -2q-6 0 -6 9q0 23 22 110q5 22 8 26q0 2 1 2z" />
    <glyph glyph-name="vowelsignsukuilutcombbali.3" 
d="M26 -255h4q41 0 72 -40q21 -31 21 -64q0 -52 -43 -77q-2 -1 -26 -15v0q31 -8 44 -18q12 -8 28 -29q15 -25 15 -64q0 -81 -54 -113q-25 -14 -50 -14q-32 0 -59 16q-9 7 -28 29q-24 37 -24 81v7q0 30 18 42h5q13 0 17 -17q2 -5 2 -11v-2q-2 -23 -2 -25v-3q0 -24 28 -43
q12 -7 30 -7q52 0 67 45q4 12 4 24v5q0 31 -24 53q-12 10 -30 16q-33 8 -61 8h-16q-16 0 -20 13v3q0 16 39 19q45 7 60 15q18 8 27 29q1 8 1 13q0 25 -17 42q-17 10 -35 10h-2q-46 0 -65 -64q-5 -14 -11 -14h-1q-7 0 -8 21q0 32 18 73q30 56 76 56z" />
    <glyph glyph-name="vowelsignsukuilutcombbali.4" 
d="M-10 -332h4q41 0 72 -40q21 -31 21 -64q0 -52 -43 -77q-2 -1 -26 -15v0q31 -8 44 -18q12 -8 28 -29q15 -25 15 -64q0 -81 -54 -113q-25 -14 -50 -14q-32 0 -59 16q-9 7 -28 29q-24 37 -24 81v7q0 30 18 42h5q13 0 17 -17q2 -5 2 -11v-2q-2 -23 -2 -25v-3q0 -24 28 -43
q12 -7 30 -7q52 0 67 45q4 12 4 24v5q0 31 -24 53q-12 10 -30 16q-33 8 -61 8h-16q-16 0 -20 13v3q0 16 39 19q45 7 60 15q18 8 27 29q1 8 1 13q0 25 -17 42q-17 10 -35 10h-2q-46 0 -65 -64q-5 -14 -11 -14h-1q-7 0 -8 21q0 32 18 73q30 56 76 56z" />
    <glyph glyph-name="vowelsignrarepacombbali.2" 
d="M-91 12h50q4 -1 4 -5v-278q0 -315 -94 -411q-61 -91 -232 -138q-44 -10 -78 -10h-40q-192 0 -318 133q-89 124 -89 281v42q0 149 80 246l27 24q47 -19 47 -27q-94 -98 -94 -270q0 -227 197 -308q85 -25 163 -25q249 0 330 185q43 92 43 453v103q1 5 4 5zM-233 -415h15
q78 0 183 -325q8 -29 8 -48v-15q0 -16 -6 -40h-4q-141 323 -183 323q-18 -10 -34 -76h-2q-42 37 -42 63v18q0 59 55 98z" />
    <glyph glyph-name="vowelsignrarepacombbali.3" horiz-adv-x="161" 
d="M28 -843q-127 168 -211 207l-37 -52l-13 4l17 145q67 -16 126.5 -91.5t132.5 -202.5zM31 524h41q9 -1 9 -9v-860q0 -396 -372 -478q-55 -9 -86 -9h-59q-285 0 -405 230q-36 85 -36 164v54q0 104 73 319q22 0 45 -14q-59 -202 -59 -319v-13q0 -248 254 -319
q71 -13 109 -13h46q10 0 18 -5q193 0 322 129q91 85 91 416v718q2 9 9 9z" />
    <glyph glyph-name="vowelsignrarepacombbali.4" horiz-adv-x="161" 
d="M96 -817q-127 168 -211 207l-37 -52l-13 4l17 145q67 -16 126.5 -91.5t132.5 -202.5zM31 524h41q9 -1 9 -9v-860q0 -396 -372 -478q-55 -9 -86 -9h-59q-285 0 -405 230q-36 85 -36 164v54q0 104 73 319q22 0 45 -14q-59 -202 -59 -319v-13q0 -248 254 -319
q71 -13 109 -13h46q10 0 18 -5q193 0 322 129q91 85 91 416v718q2 9 9 9z" />
    <glyph glyph-name="vowelsignrarepacombbali.5" 
d="M-75 -864q-103 137 -171 168l-30 -42l-11 3l14 118q54 -13 102.5 -74.5t107.5 -164.5zM-88 -438h28q5 -1 5 -5v-137q0 -166 -113 -211q-45 -18 -87 -18h-34q-138 0 -195 122q-10 36 -10 64v25q0 60 59 152l18 -2h33v-3q-66 -95 -66 -157q0 -112 110 -140q35 -8 67 -8
q146 0 169 120q10 63 10 195z" />
    <glyph glyph-name="vowelsignpepetcombbali.2" 
d="M-199 984h17q154 0 242 -122v-5q-198 -62 -454 -153q-5 15 -7 45q171 71 346 124v2q-66 38 -146 38h-5q-117 0 -197 -67q-49 -51 -49 -113q0 -29 32 -129h-3q-18 -4 -34 -4h-5q-82 0 -124 69q-17 35 -17 69q5 47 5 55v7h-3l-19 -11h-5q-10 28 -10 31q38 29 68 31h17
l13 -2q-22 -70 -22 -100q11 -105 80 -105q-32 49 -32 100q0 142 173 216q67 24 139 24z" />
    <glyph glyph-name="kabali.conj" 
d="M-666 -92h15q72 0 94 -97q4 -16 6 -102h36v1q0 135 134 183q37 13 95 13q162 0 220 -120q11 -32 11 -100v-217q0 -4 -4 -4h-45q-4 0 -4 5q0 284 -11 284q-16 39 -55 58q-47 18 -123 18q-167 0 -167 -120h2q98 0 201 -50q72 -44 72 -109v-8q0 -58 -82 -81q-23 -3 -36 -3
h-23q-69 0 -145 66q-38 53 -38 112q-22 -1 -32 -1h-8v-5q0 -142 -60 -162q-10 -7 -42 -10q-60 0 -83 52q-6 12 -8 36q0 96 129 150q11 4 11 8q0 135 -53 135h-4q-26 0 -30 -28v-6q0 -28 53 -83v-1q-34 -10 -40 -10h-4q0 2 -35 36q-27 33 -27 66v21q0 50 53 70q14 3 27 3z
M-702 -453v-2q0 -49 49 -49q47 0 60 67q4 27 4 45q-2 26 -2 31h-2q-109 -33 -109 -92zM-468 -363v-14q0 -45 51 -86q47 -33 118 -33q53 8 53 31v3q0 71 -222 99z" />
    <glyph glyph-name="kamahapranabali.conj" 
d="M-629 -76h14q66 0 86 -100q4 -20 6 -105h29q3 0 3 5q0 131 118 183q36 15 89 15q152 0 202 -125q9 -28 9 -87q0 -57 -4 -202q0 -15 12 -15h2q13 0 65 52q28 25 61 25h10q63 0 126 -99v-1q-9 -15 -14 -17q-54 63 -103 63q-21 0 -69 -40q-38 -18 -62 -18h-11q-65 0 -65 75
v5q2 103 2 164q0 105 -68 127q-35 15 -101 15q-117 0 -143 -72q-9 -29 -9 -52h2q89 0 182 -52q66 -43 66 -116q0 -65 -76 -87q-21 -4 -33 -4h-12q-66 0 -131 60q-41 45 -41 121l-4 3q-9 0 -34 -2q0 -135 -42 -163q-22 -17 -48 -17h-12q-48 0 -69 58q-3 10 -5 32
q0 96 116 154q12 2 12 8q0 139 -49 139h-7q-19 0 -24 -29v-6q0 -29 49 -85q-28 -12 -38 -12h-2l-36 42q-21 32 -21 63v22q0 52 48 72q13 3 24 3zM-661 -448v-2q0 -50 46 -50q30 0 50 48q7 39 7 67q-2 23 -2 32h-1q-100 -33 -100 -95zM-448 -355q0 -7 -1 -7q0 -64 65 -108
q43 -22 88 -22q50 9 50 32v7q0 63 -176 95q-7 0 -26 3z" />
    <glyph glyph-name="gabali.conj" 
d="M-679 -92h9q53 0 74 -49q4 -5 6 -34q-9 -140 -9 -157q0 -123 41 -123q7 -5 19 -5v2q-22 62 -22 120q0 163 137 227q53 19 100 19h35q141 0 213 -107q32 -60 32 -129v-40q0 -46 -4 -169l-6 -4h-49l-4 2l2 3v165q0 137 -70 176q-66 28 -120 28h-25q-123 0 -165 -97
q-14 -32 -14 -78q0 -63 37 -195q-8 -4 -21 -4h-10q-73 0 -137 58q-26 36 -26 97v21q0 5 -2 5l2 9v11q0 41 7 151q0 28 -28 28q-33 -3 -33 -28v-8q0 -27 52 -84q-7 -3 -42 -11q-63 52 -63 107v16q0 56 68 76q8 1 16 1z" />
    <glyph glyph-name="gagorabali.conj.1" 
d="M-704 -109q41 0 60 -51q7 -27 7 -107q0 -44 -2 -97q0 -82 30 -105q6 -6 26 -11v1q-11 89 -11 149v31q0 151 92 179q22 5 52 5h19q3 -1 3 -3q-23 -157 -23 -226q0 -107 34 -127q14 -9 31 -9q44 0 76 66q22 30 34 30h5q24 0 55 -65q24 -34 55 -34h6q32 0 45 52q7 0 9 311
l3 2h39q3 -1 3 -3v-221q0 -146 -34 -182q-22 -34 -64 -34q-47 0 -91 73q-18 25 -30 25h-1q-13 0 -39 -53q-31 -45 -65 -45h-14q-83 0 -110 137q-3 28 -3 51v19q0 58 17 163q-33 0 -45 -48q-8 -43 -8 -92q0 -44 17 -225h-7q-107 0 -137 57q-17 33 -17 157q2 85 2 135
q0 31 -25 31q-27 -3 -27 -26v-13q0 -20 42 -74q-9 -5 -34 -11q-51 50 -51 96v19q0 56 59 73h17z" />
    <glyph glyph-name="gagorabali.conj.2" 
d="M-801 -92h2q54 0 70 -58q3 -16 3 -31v-10l-8 -147q0 -93 32 -115q8 -5 25 -10v2q-11 87 -11 145v40q0 133 75 173q23 11 89 11q4 0 4 -3q-24 -161 -24 -229q0 -113 39 -132q16 -7 28 -7q44 0 82 77q18 22 30 22h1q27 0 57 -64q24 -38 58 -38q47 0 56 93q2 15 2 33v16
q0 114 -79 149q-14 5 -26 5h-11q-4 0 -4 3q35 59 71 70q23 5 36 5h17q86 0 115 -86q9 -46 9 -171v-181q0 -5 -41 -5h-1l-3 2q1 96 1 144v96q0 89 -37 115q-29 15 -47 15h-11q58 -54 58 -168q0 -210 -99 -210q-49 0 -94 77q-20 23 -28 23q-14 -1 -46 -61q-28 -39 -61 -39h-14
q-77 0 -108 121q-6 34 -6 69v20q0 60 17 164h-2q-41 0 -48 -79q-3 -35 -3 -63q0 -48 17 -227h-8q-106 0 -135 55q-17 31 -17 100q0 14 9 173q0 50 -31 50h-3q-22 0 -25 -27v-6q0 -28 44 -80q0 -3 -35 -13q-53 50 -53 104v17q0 44 49 68q14 3 23 3z" />
    <glyph glyph-name="ngabali.conj" 
d="M-426 -85h13q61 0 102 -71v-3h2q41 72 99 72l9 2q93 0 138 -104q14 -50 14 -121v-60q0 -164 -7 -164h-45l-4 2q2 84 2 123v89q0 118 -46 145q-23 11 -52 11h-2q-70 0 -101 -112l-5 -3h-4q-3 0 -19 54q-29 59 -76 59h-19q-78 0 -95 -110q-4 -30 -4 -51q0 -63 41 -200h-25
q-170 0 -170 139q0 13 12 180q-4 51 -36 51h-1q-31 -4 -31 -28v-7q0 -30 50 -84q0 -3 -39 -13q-61 54 -61 104v19q0 56 65 76q9 2 17 2q85 0 85 -101v-8l-9 -169v-10q0 -57 34 -76q28 -13 39 -13q-23 77 -23 146q0 170 99 221q31 13 53 13z" />
    <glyph glyph-name="cabali.conj" 
d="M-479 -95q0 -2 2 -2q-5 -39 -5 -105v-19q0 -203 37 -241q44 -42 116 -42h9q120 0 120 119q0 101 -120 145q-20 11 -63 27v2q10 35 41 56q28 21 81 21q85 0 148 -60q50 -48 50 -155v-39q0 -104 -9 -171h-2q-31 2 -48 2l-4 2q4 70 8 192q0 116 -69 150q-38 19 -64 19
q-13 -2 -26 -5q41 -21 66 -38q67 -63 67 -139v-19q0 -106 -96 -157q-37 -12 -69 -12h-31q-103 0 -155 82q-28 60 -30 102h-2q-12 -45 -70 -104q-61 -44 -144 -61l-2 3q2 44 2 51q4 5 44 14q77 28 117 107q18 34 35 130q17 138 22 138q15 4 44 7z" />
    <glyph glyph-name="calacabali.conj.1" 
d="M-543 -100q130 0 167 -60q30 -25 30 -156q0 -140 34 -169q37 -23 85 -23q70 0 93 40q32 44 32 210v7q0 50 -2 149l4 2h43q3 0 5 -16q2 -105 2 -163v-58q0 -165 -58 -204q-29 -29 -100 -29h-28q-127 0 -164 88q-13 32 -13 175q-9 88 -26 103q0 20 -71 39q-9 0 -35 3
q-111 0 -144 -106q-14 -53 -14 -121q0 -78 37 -90q9 -3 28 -5q42 0 48 51q4 28 4 73v49q0 3 4 3q18 0 55 -2l2 -3q2 -61 2 -88q0 -111 -50 -140q-34 -16 -60 -16h-16q-69 0 -101 80q-13 39 -13 79v38q0 178 115 242q41 18 105 18z" />
    <glyph glyph-name="calacabali.conj.2" 
d="M-197 -97h26q67 0 97 -105q6 -43 6 -85v-58q0 -67 -3 -207l-3 -2h-40l-3 2q2 128 2 194v45q0 113 -25 135q-12 12 -37 16q2 -41 2 -60v-107q0 -169 -46 -207q-26 -31 -81 -31h-26q-103 0 -133 83q-11 0 -16 209q-7 59 -23 81q-32 34 -84 34q-94 0 -119 -112
q-11 -55 -11 -113q0 -65 21 -86q16 -9 33 -10q42 0 42 79v93q1 3 3 3q16 0 46 -2q0 -1 2 -1q1 -41 1 -60v-31q0 -122 -50 -143q-21 -11 -40 -11h-11q-60 0 -85 79q-11 40 -11 80v39q0 170 90 236q34 21 92 21q124 0 150 -87q12 -7 14 -196q0 -84 38 -110q32 -13 58 -13
q63 0 83 53q20 55 20 196q-2 142 -2 154q-1 0 -1 2q7 3 24 3z" />
    <glyph glyph-name="jabali.conj" 
d="M-341 -107h43q137 -4 137 -12q2 -16 2 -26v-17q0 -3 -5 -3q-71 8 -125 8h-14q-171 0 -283 -66q-69 -47 -69 -119v-16q0 -74 95 -125q61 -24 151 -24q111 0 144 56q5 15 5 21q0 70 -244 96l-2 4v6q0 66 102 88q41 7 80 8q152 0 243 -89q26 -29 26 -83v-160l-2 -4l-24 2
h-45l-5 2q3 30 3 44v47q0 137 -69 154q-61 26 -120 26h-17q-22 0 -37 -13q196 -28 196 -133v-8q0 -69 -130 -116q-44 -13 -92 -13h-40q-196 0 -279 129q-19 34 -19 73v21q0 153 229 220q88 22 165 22z" />
    <glyph glyph-name="jajerabali.conj" horiz-adv-x="218" 
d="M-74 726q40 0 97 -83q5 -13 15 -13q6 0 51 36q7 5 15 5h2q68 0 82 -173v-53q-12 -38 -19 -38h-2q-10 0 -23 117q-12 61 -30 61q-14 0 -36 -40v-6q26 -88 26 -405v-68q0 -115 -1 -322q0 -2 -2 -2l2 -11v-115q0 -300 -57 -353q-43 -58 -110 -58h-17q-126 0 -165 201
q-27 110 -59 110q0 4 -22 5h-10q-53 0 -72 -101q-26 -126 -57 -170q-47 -66 -113 -66h-19q-90 0 -142 130q-23 76 -23 136v36q0 284 244 363q5 0 31 8q0 -2 2 -2q-6 -77 -10 -77q-74 -35 -133 -93q-68 -82 -68 -207q0 -147 68 -188q14 -8 33 -8q77 0 102 98q42 173 78 209
q38 42 92 42q88 0 124 -119q49 -184 81 -198q23 -15 44 -15q69 0 90 72q21 42 21 369q12 360 12 581q-4 211 -25 211q-83 0 -134 79q-12 28 -12 40v20q5 55 34 55h15zM-60 664v-6q20 -26 45 -26q-24 32 -43 32h-2z" />
    <glyph glyph-name="nyabali.conj" 
d="M-916 -81q61 -10 61 -81q2 0 2 -19q0 -24 -9 -177q0 -63 28 -83q22 -13 31 -13v2q-16 75 -16 133v14q0 166 83 214q24 10 38 10h11q35 0 68 -45q13 -22 13 -30q34 73 81 73h14q61 0 96 -87q14 -45 14 -127v-102q0 -17 -1 -52q49 0 49 104q0 125 27 162q50 86 149 86
q110 0 161 -110q17 -40 17 -88v-29q0 -86 -57 -165q-39 -39 -84 -39h-16q-32 0 -69 19q3 10 28 44q32 -10 44 -10h10q62 0 90 88q7 32 7 60v10q0 100 -82 134q-29 10 -55 10q-68 0 -109 -55q-22 -22 -22 -133q0 -123 -43 -146q-20 -13 -45 -13h-37l-3 2q4 102 4 219v13
q0 102 -56 126q-11 3 -24 3h-3q-55 0 -81 -112l-2 -1h-3q-3 2 -20 63q-22 50 -65 50q-86 0 -86 -157q0 -69 32 -198v-1h-27q-95 0 -120 76q-9 20 -9 78l10 160q0 54 -31 54q-22 -6 -22 -28v-8q0 -28 39 -83q-12 -6 -31 -11q-48 51 -48 102v19q0 58 55 75h14z" />
    <glyph glyph-name="talatikbali.conj" 
d="M-755 -127q33 -14 34 -19q-8 -29 -8 -54v-32q0 -155 203 -200q36 -4 54 -4h9q78 0 142 31v3q-42 59 -42 109q0 58 55 81q18 8 40 8q76 0 98 -75q2 -20 2 -23q0 -47 -52 -102v-1q25 -14 56 -14q66 0 136 91h2q15 -38 15 -42v-2q-67 -109 -166 -109h-4q-40 0 -87 30
q-86 -73 -203 -73h-25q-147 0 -240 128q-39 62 -39 128v28q0 40 17 111zM-310 -319q0 -28 41 -66q53 40 53 70q-5 41 -40 41h-15q-32 0 -39 -45z" />
    <glyph glyph-name="tamurdamahapranabali.conj" 
d="M-652 -111q33 -14 34 -19q-8 -28 -8 -54v-32q0 -154 203 -199q36 -3 54 -3h12q73 0 139 30v3q-43 57 -43 109q0 63 65 84q21 4 29 4q78 0 98 -73q2 -10 2 -19v-9q0 -86 -149 -180q-78 -37 -152 -37h-29q-126 0 -221 106q-54 70 -54 148v29q0 40 17 110zM-207 -304
q0 -27 40 -64q52 39 52 66v4q-4 41 -39 41h-14q-34 0 -39 -47z" />
    <glyph glyph-name="damurdaalpapranabali.conj" 
d="M-602 -99h45q4 -1 4 -3q-6 -183 -6 -225q0 -107 40 -128q15 -5 37 -6q63 0 87 134q16 30 43 30q48 0 55 -72q24 -87 77 -87h9q56 0 65 137q0 117 -64 150q-51 18 -66 18q0 14 35 34l23 3q90 0 116 -124q5 -26 5 -67v-30q-6 -157 -95 -192q-13 -3 -25 -3h-7q-68 0 -95 64
q-8 21 -23 75l-3 2h-5q-16 0 -25 -54q-30 -87 -92 -87h-17q-56 0 -94 44q-31 42 -31 119v30q0 82 2 235z" />
    <glyph glyph-name="damurdamahapranabali.conj" 
d="M-555 -84q61 0 73 -75q2 -14 2 -17q-19 -180 -19 -216v-2q0 -41 36 -60q16 -4 32 -5q62 0 90 122q18 32 36 32h12q33 0 43 -70q21 -73 71 -73h10q40 0 58 56q8 31 8 93v175q0 9 -1 27l3 2h36l8 1l2 -3v-178q0 -175 -44 -211q-29 -32 -78 -32q-69 0 -94 68q-16 66 -24 66
q-3 1 -6 1q-18 0 -29 -60q-28 -75 -92 -75q-91 0 -121 83q-7 30 -7 58q0 17 21 167q0 8 1 16q-3 43 -28 43h-9q-25 0 -25 -30v-3q0 -27 47 -81q-28 -11 -37 -11q-58 50 -58 100v19q0 55 65 73h18z" />
    <glyph glyph-name="narambatbali.conj.1" 
d="M-545 -86h13q50 0 92 -84q28 -41 43 -41q25 0 77 89q29 34 64 34q85 0 103 -137q1 -39 1 -57v-195h20q28 6 28 31q1 0 3 20q-2 104 -2 162v167q1 3 3 3q28 -2 39 -2l1 -3v-225q0 -171 -16 -185q-16 -26 -54 -26h-56q-3 0 -3 3v50q0 273 -10 273q-18 45 -60 45
q-43 0 -84 -78q-27 -40 -52 -40h-2q-31 0 -65 65q-35 53 -67 53h-7q-50 0 -72 -99q-25 -76 -74 -76h-6q-77 0 -77 156v19q0 3 3 3h33q3 0 3 -3v-26q0 -74 35 -74h13q38 0 62 110q24 68 71 68z" />
    <glyph glyph-name="narambatbali.conj.2" 
d="M-621 -94h12q50 0 93 -84q29 -41 43 -41q25 0 77 89q30 34 65 34q85 0 102 -134q3 -18 3 -55v-200h2q37 0 46 17q8 18 8 68v293q1 3 3 3q78 0 102 -48q19 -38 19 -65v-318q0 -3 -3 -3h-32q-2 0 -2 3v167q0 164 -13 164q-16 29 -38 29v-182q0 -149 -17 -162
q-15 -24 -53 -24h-56q-3 0 -3 3v65q0 264 -13 264q-18 39 -58 39q-43 0 -85 -78q-26 -40 -51 -40h-3q-31 0 -65 65q-35 53 -68 53h-7q-50 0 -72 -99q-25 -76 -75 -76h-5q-78 0 -78 156v19q0 3 3 3h33q3 0 3 -3v-26q0 -74 36 -74h13q38 0 62 110q24 68 72 68z" />
    <glyph glyph-name="tabali.conj" 
d="M-670 -72q48 0 69 -53q6 -19 6 -39v-8q0 -21 -13 -170v-12q0 -68 64 -83q34 -10 92 -10h19q92 0 118 45q7 16 7 27v4q0 42 -57 42q-96 16 -96 32q-29 24 -29 72q0 81 100 127q53 16 89 16h22q153 0 202 -109q16 -35 16 -95v-137q0 -32 -2 -96l-3 -2h-43l-4 2q2 70 2 104
v31q0 170 -16 170q-10 26 -53 45q-45 17 -104 17h-17q-101 0 -132 -42q-5 -13 -5 -23v-6q0 -29 93 -41q99 -27 99 -104q0 -45 -42 -95q-52 -56 -183 -56q-125 0 -181 101q-11 28 -11 60q0 34 16 183v6q0 26 -35 31q-23 0 -28 -27v-12q0 -22 49 -78q-15 -7 -38 -12
q-59 51 -59 102v19q0 56 66 74h22z" />
    <glyph glyph-name="tatawabali.conj" 
d="M-83 -843q-60 188 -147 268l-66 -49l-12 11l77 167q75 -46 117 -159.5t54 -232.5zM-100 4h29q8 -1 8 -8q0 -150 -157 -233q-90 -33 -270 -83q-132 -72 -132 -203q0 -140 153 -191q40 -13 74 -13h30q248 0 248 308q4 46 4 178v33q2 9 9 9h29q8 -2 8 -9v-178
q0 -301 -104 -361q-74 -71 -203 -71h-4q-216 0 -298 174q-21 58 -21 112v5q0 278 435 348q100 34 137 104q18 79 25 79z" />
    <glyph glyph-name="tatawabali.conj.ya" horiz-adv-x="262" 
d="M-166 -270h11q56 0 131 -225q6 -20 6 -33v-11q0 -11 -5 -27h-3q-100 224 -131 224q-13 -8 -24 -53h-2q-30 25 -30 43v13q0 41 39 67zM27 524h11q119 0 165 -108q9 -42 9 -113v-111q0 -288 -14 -996l-4 -2h-16q-40 0 -40 6q16 613 16 879v91q0 223 -36 243q-18 18 -38 22
l7 -673q0 -400 -47 -464q-58 -115 -173 -115h-27q-126 0 -176 98q-9 19 -9 41v19q0 91 118 133q102 17 102 37q7 20 12 45l4 2h45l4 -2q0 -86 -49 -117q-36 -13 -111 -32q-49 -17 -49 -70q0 -46 62 -67q32 -5 45 -5h13q102 0 136 83q40 92 40 286v7q-5 656 -5 753v126
q1 4 5 4zM-56 2q3 -1 3 -3q0 -94 -73 -149q-28 -25 -167 -60q-75 -19 -105 -62q-26 -38 -26 -71v-11q0 -104 123 -130q33 -3 39 -3q111 0 152 101q14 38 14 176v56q1 4 3 4h34l3 -2q1 -37 1 -55v-20q0 -194 -30 -233q-32 -62 -108 -89q-36 -8 -56 -8h-25q-147 0 -201 132
q-9 30 -9 54v24q0 102 116 175q62 30 188 56q62 26 78 67q6 16 11 51h35z" />
    <glyph glyph-name="tatawabali.conj.ra" horiz-adv-x="174" 
d="M-66 -611q-45 82 -85 125.5t-75 57.5l-30 -45l-12 4l11 123q58 -12 120.5 -89.5t84.5 -169.5zM23 520h38q8 -1 8 -9v-845q0 -391 -341 -471q-50 -9 -79 -9h-54q-261 0 -371 227q-33 83 -33 161v53q0 102 67 313q20 0 41 -13q-54 -199 -54 -314v-13q0 -244 233 -313
q65 -13 100 -13h42q9 0 16 -5q177 0 296 127q83 83 83 409v706q1 9 8 9zM-107 4h26q8 -1 8 -7q0 -124 -144 -193q-83 -27 -247 -69q-122 -59 -122 -168q0 -116 141 -159q36 -10 68 -10h27q228 0 228 255q3 38 3 148v27q2 7 8 7h27q7 -1 7 -7v-148q0 -249 -95 -299
q-68 -59 -186 -59h-4q-198 0 -273 145q-19 47 -19 93v3q0 231 399 289q91 29 125 87q17 65 23 65z" />
    <glyph glyph-name="dabali.conj" 
d="M-441 -110h20q54 0 134 -28v-2q-8 -37 -15 -37q-68 19 -118 19q-148 0 -196 -134q-6 -18 -6 -40q0 -101 77 -150q22 -10 54 -13v2q-31 71 -31 111v4q0 101 131 131q31 5 60 5q176 0 249 -166q15 -39 15 -82v-35q0 -4 -42 -15q-2 3 -2 5q0 176 -143 225q-42 10 -71 10
q-109 0 -125 -78q0 -6 -2 -15q0 -58 65 -140v-2q-33 -25 -83 -25h-19q-67 0 -148 67q-58 64 -58 146v24q0 86 92 161q71 52 162 52z" />
    <glyph glyph-name="damadubali.conj" 
d="M-221 -96h24q100 0 135 -96q8 -43 8 -119v-207q0 -3 -4 -3h-45q-4 0 -4 3q0 28 2 132q0 195 -40 208q-19 18 -50 18h-32q63 -61 63 -184q-8 -146 -105 -177q-14 -3 -26 -3h-8q-78 0 -106 66q-6 8 -19 59q-7 8 -14 8q-14 0 -28 -59q-33 -74 -101 -74h-17q-92 0 -127 86
q-8 33 -8 58v25q0 69 11 254l4 2h46l4 -2q-10 -181 -10 -241q0 -91 44 -111q17 -5 38 -7q66 0 95 113q19 41 53 41q43 0 51 -49q22 -94 80 -94q51 0 74 54q8 23 8 50v14q0 113 -63 147q-17 8 -47 16l-2 3q39 69 116 69z" />
    <glyph glyph-name="nabali.conj" 
d="M-107 16q13 1 52 -1v-2q4 -73 -36 -232q30 11 72 44h6q5 0 11 -40q-21 -42 -92 -68q-19 -1 -24 -20q-34 -118 -80 -210q-48 -101 -135 -208q-50 -56 -84 -74q-7 2 -26 52q69 72 67 126q-5 87 -173 169q-120 65 -124 140l-1 26q-5 110 103 169q25 11 51 12l21 1
q68 3 167 -61q106 -65 174 -61q36 103 49 238h2zM-609 -274q3 -69 83 -104q74 -36 123 -76q75 -86 78 -144h1q72 101 135 299q-100 -5 -258 108q-44 22 -74 21l-11 -1q-68 -3 -78 -95z" />
    <glyph glyph-name="nabali.conj.ya" horiz-adv-x="281" 
d="M47 524h11q119 0 164 -109q9 -42 9 -114v-112q0 -290 -13 -1004l-4 -2h-16q-40 0 -40 7q16 617 16 886v91q0 225 -36 245q-18 19 -38 22l7 -678q0 -404 -47 -468q-58 -116 -174 -116h-26q-126 0 -176 98q-9 20 -9 42v20q0 91 118 133q102 18 102 37q7 21 11 46l5 2h44
l5 -2q0 -87 -49 -118q-36 -13 -111 -33q-49 -17 -49 -70q0 -46 62 -67q32 -5 44 -5h14q102 0 136 83q40 93 40 289v7q-5 661 -5 759v127q1 4 5 4zM-104 17q11 0 43 -2v-1q2 -60 -33 -190q25 9 61 35h5q4 0 9 -32q-18 -34 -78 -55q-17 -1 -21 -16q-30 -96 -69 -171
q-42 -83 -116 -169q-43 -45 -72 -59q-5 2 -20 42q58 59 57 103q-3 71 -143 140q-100 55 -102 117l-1 21q-3 90 89 137q21 8 43 9l17 1q58 2 140 -53q88 -54 145 -52q32 84 44 195h2zM-529 -214q2 -57 69 -86q61 -31 101 -64q62 -71 64 -119h1q62 82 117 243q-84 -3 -215 92
q-36 18 -62 17h-9q-57 -2 -66 -77v-6z" />
    <glyph glyph-name="pabali.conj" horiz-adv-x="750" 
d="M487 524h43q114 0 154 -78q16 0 16 -297v-136q0 -9 -53 -9h-2q-8 0 -12 23q3 35 3 51v95q0 229 -42 246q-22 15 -45 17v-2q0 -283 -19 -325q-35 -69 -98 -92q-50 -17 -110 -17h-36q-163 0 -231 107q-30 64 -30 91l5 2h57l32 -49q44 -67 199 -69q116 0 160 82q4 19 7 107
q-3 149 -3 251z" />
    <glyph glyph-name="pakapalbali.conj" horiz-adv-x="649" 
d="M390 535h20q51 0 90 -55q5 -17 11 -23q15 0 42 28q9 26 15 26h7q24 -11 24 -26v-16q-14 -39 -48 -55q-7 -4 -31 -10q6 -81 6 -137v-39q0 -165 -83 -203q-54 -25 -135 -25h-37q-152 0 -220 80q-31 58 -31 85l4 2q37 -2 58 -2q4 -3 19 -41q50 -61 199 -61q129 0 156 76
q15 41 15 97v35q0 56 -4 128q-67 0 -130 51q-11 18 -11 29q14 56 64 56zM383 485q39 -30 75 -30q-20 43 -48 43h-5q-22 -2 -22 -13z" />
    <glyph glyph-name="babali.conj.1" 
d="M-709 -66q51 0 67 -71q2 -14 2 -25v-16l-8 -169v-5q0 -67 31 -84q24 -13 34 -13q-20 76 -20 147q0 201 116 233q12 3 22 3h6q58 0 95 -76q33 74 91 74h6q89 0 124 -120q11 -40 11 -81v-35q0 -52 -23 -157h1q24 0 50 53q13 52 13 203l3 2h39q3 -1 3 -3v-47
q0 -176 -27 -201q-29 -61 -145 -61q0 2 -2 2q41 115 41 203v28q0 115 -70 135q-20 2 -21 2q-63 0 -90 -114l-5 -3h-2q-4 0 -18 54q-24 61 -72 61h-5q-77 0 -91 -106q-3 -15 -4 -54q0 -71 37 -203l-3 -2h-27q-104 0 -136 78q-9 29 -9 51q0 20 9 195q0 49 -29 49q0 2 -11 2h-5
q-14 -9 -14 -25v-8q0 -28 44 -84q-27 -12 -35 -12q-53 53 -53 104v20q0 58 59 76h21z" />
    <glyph glyph-name="babali.conj.2" 
d="M-790 -69q45 0 64 -58q3 -19 3 -30v-18l-8 -161q0 -68 31 -83q24 -13 33 -13q-19 74 -19 141q0 146 71 200q32 22 69 22q49 0 85 -58q6 -11 6 -16h2q29 72 94 72q87 0 123 -115q10 -42 10 -97q0 -78 -24 -160h1q23 0 46 44q14 26 14 109q0 89 -3 212l3 1h14q82 0 103 -53
q14 -20 14 -84v-279q0 -3 -3 -3h-37l-3 2l2 11v181q0 131 -23 144q-18 11 -29 11v-179q0 -108 -38 -136q-33 -32 -122 -32v1q39 114 39 208q0 141 -88 141q-62 0 -87 -102q-4 -9 -6 -9h-3q-5 4 -20 56q-20 53 -76 53q-70 0 -86 -98q-3 -21 -3 -41v-26q0 -55 35 -179l-3 -1
h-20q-146 0 -146 131v19l8 158q0 50 -34 50q-20 0 -24 -27v-11q0 -21 42 -76q-28 -11 -33 -11q-52 50 -52 98v19q0 55 58 72h20z" />
    <glyph glyph-name="bakembangbali.conj" 
d="M-275 -65h34q118 0 172 -96q18 -45 18 -94v-159q0 -25 -2 -84l-3 -1h-10q-9 0 -28 -2l-4 6q2 149 2 203q0 109 -64 127q-44 19 -98 19q-95 0 -124 -62q-12 -22 -12 -97q10 0 19 2q74 0 110 -70q12 -25 12 -49q0 -67 -52 -89q-12 -3 -20 -3h-12q-57 0 -90 65q-7 19 -12 50
q-111 -105 -135 -105q-19 -7 -33 -7h-12q-84 0 -102 114v29q0 112 130 245h4q30 -25 30 -30q-111 -120 -111 -226q0 -40 31 -54q6 -3 13 -3h8q23 0 112 78q52 42 62 43v43q0 155 117 199q30 8 50 8zM-395 -378l1 -3v-7q0 -49 44 -68q11 -3 15 -3h8q21 0 27 26v8q0 41 -58 50
h-7q-7 0 -30 -3z" />
    <glyph glyph-name="mabali.conj" 
d="M-451 -93l28 3q121 14 213 -37q54 -36 61 -80l1 -9q11 -68 -72 -97l-8 -1q-76 4 -80 32l-1 5q-1 24 26 29q8 1 49 -13h6q27 10 24 28l-2 12q-6 38 -96 58q-68 10 -121 4q-153 -18 -219 -138q-10 -35 -7 -55l1 -9q13 -87 211 -142q120 -20 215 -9q67 8 164 43l3 -4l5 -36
q4 -25 -16 -27q-71 -38 -161 -49l-30 -3q-180 -21 -340 66q-98 68 -109 142l-4 26q-10 68 50 153q77 92 209 108z" />
    <glyph glyph-name="yabali.conj.1" horiz-adv-x="284" 
d="M50 529h5q140 0 180 -71q33 -24 33 -202q2 -154 2 -306v-758q0 -3 -7 -6h-52q-4 0 -4 4v813q0 69 2 174q-2 0 -2 120q0 136 -91 136h-11q2 -127 2 -203v-624q0 -217 -26 -245q-25 -76 -100 -126q-80 -49 -185 -49q-246 0 -324 167q-15 37 -15 69v25q0 129 148 194
q165 74 195 97q61 56 61 90q11 16 13 143v14q0 22 7 22h48q4 0 4 -4v-47q0 -193 -69 -254q-90 -80 -211 -117q-94 -42 -98 -61q-31 -32 -31 -77q0 -157 270 -157h9q163 1 217 122q22 30 22 414q2 242 2 585v112q0 3 6 6z" />
    <glyph glyph-name="yabali.conj.2" horiz-adv-x="246" 
d="M25 518h11q119 0 164 -108q9 -42 9 -113v-111q0 -287 -13 -995l-5 -2h-15q-40 0 -40 6q15 613 15 879v91q0 222 -35 242q-18 18 -38 22l7 -672q0 -401 -47 -464q-57 -115 -172 -115h-27q-125 0 -175 98q-9 19 -9 41v19q0 91 117 133q102 17 102 36q7 21 11 46l5 2h44
l5 -2q0 -87 -49 -117q-36 -13 -111 -33q-49 -17 -49 -69q0 -46 62 -67q32 -5 45 -5h13q102 0 135 83q40 92 40 286v7q-4 655 -4 752v126q0 4 4 4z" />
    <glyph glyph-name="rabali.conj.1" 
d="M-98 11h45q4 -1 4 -4v-262q0 -296 -86 -386q-56 -85 -212 -130q-40 -9 -71 -9h-37q-174 0 -289 125q-82 116 -82 264v39q0 140 73 231l25 23q43 -17 43 -25q-86 -92 -86 -254q0 -214 180 -290q77 -23 148 -23q227 0 302 174q39 86 39 425v98q1 4 4 4z" />
    <glyph glyph-name="rabali.conj.3" horiz-adv-x="126" 
d="M30 524h42q9 -1 9 -9v-860q0 -396 -381 -478q-56 -9 -88 -9h-61q-291 0 -414 230q-37 85 -37 164v54q0 104 74 319q23 0 47 -14q-61 -202 -61 -319v-13q0 -248 261 -319q73 -13 112 -13h46q10 0 19 -5q197 0 330 129q93 85 93 416v718q1 9 9 9z" />
    <glyph glyph-name="rabali.conj.4" horiz-adv-x="124" 
d="M31 524h41q9 -1 9 -9v-860q0 -396 -372 -478q-55 -9 -86 -9h-59q-285 0 -405 230q-36 85 -36 164v54q0 104 73 319q22 0 45 -14q-59 -202 -59 -319v-13q0 -248 254 -319q71 -13 109 -13h46q10 0 18 -5q193 0 322 129q91 85 91 416v718q2 9 9 9z" />
    <glyph glyph-name="rabali.conj.ya" horiz-adv-x="273" 
d="M-339 -351q-244 -128 -376 -69t-132 235q0 99 27 213l14 -3q-13 -84 -13 -156q0 -177 123 -213.5t357 80.5v-87zM26 524h17q135 0 167 -101q13 -40 13 -222v-907q0 -8 -8 -8h-46q-9 0 -9 12q0 349 4 944q0 181 -50 181q0 7 -29 8h-9v-863q0 -196 -167 -266
q-56 -16 -92 -16h-34q-218 0 -289 173l-4 41v32q0 174 293 230l4 -8q0 -61 -25 -61q-205 -62 -205 -153v-16q0 -100 126 -137q42 -12 96 -12q162 0 214 117q25 0 25 1028z" />
    <glyph glyph-name="rabali.conj.3.ya" horiz-adv-x="262" 
d="M-188 -591q-327 -119 -487.5 -27t-160.5 321q0 93 25 320l13 -3q-13 -199 -13 -266q0 -230 153 -301.5t470 37.5v-81zM27 524h11q119 0 165 -108q9 -42 9 -113v-111q0 -288 -14 -996l-4 -2h-16q-40 0 -40 6q16 613 16 879v91q0 223 -36 243q-18 18 -38 22l7 -673
q0 -400 -47 -464q-58 -115 -173 -115h-27q-126 0 -176 98q-9 19 -9 41v19q0 91 118 133q102 17 102 37q7 20 12 45l4 2h45l4 -2q0 -86 -49 -117q-36 -13 -111 -32q-49 -17 -49 -70q0 -46 62 -67q32 -5 45 -5h13q102 0 136 83q40 92 40 286v7q-5 656 -5 753v126q1 4 5 4z" />
    <glyph glyph-name="rabali.conj.wa" 
d="M-318 -364q-268 -128 -412 -69t-144 235q0 99 29 213l16 -3q-15 -84 -15 -156q0 -177 135 -213q134 -37 391 80v-87zM-88 -1h34q9 -1 9 -8v-480q0 -189 -180 -254q-46 -12 -78 -12h-47q-194 0 -270 149q-13 36 -13 61v28q0 167 283 222h5q4 -8 4 -12q0 -45 -34 -45
q-202 -61 -202 -169t141 -149q54 -8 91 -8h12q153 0 206 108q30 26 30 303v258q2 8 9 8z" />
    <glyph glyph-name="rabali.conj.3.wa" 
d="M-179 -612q-368 -118 -548 -26q-181 91 -181 317q0 91 28 316l15 -3q-14 -197 -14 -263q0 -227 172 -297q171 -71 528 36v-80zM-86 -530h30q6 -1 6 -4v-145q0 -103 -116 -137q-24 -4 -38 -4h-33q-123 0 -166 91q-3 11 -3 19v18q0 90 179 119l3 -5v-8q0 -27 -23 -27
q-116 -29 -116 -85q0 -47 76 -68q29 -6 63 -6q133 0 133 141v97q1 4 5 4z" />
    <glyph glyph-name="labali.conj.1" 
d="M-702 -69q48 0 63 -65q3 -13 3 -35v-2l-9 -185v-23q2 -49 19 -49q0 -3 23 -4h12v58q0 219 27 245q32 60 104 60q92 0 120 -84q4 -22 4 -34q0 -197 12 -197q27 -60 110 -60h4q115 0 115 105q3 0 3 68v187q1 4 3 4h38q3 -1 3 -4q1 -132 1 -208v-6q0 -154 -78 -202
q-27 -18 -64 -18h-24q-125 0 -158 120q-8 44 -8 176q-6 39 -22 58q-22 17 -63 17q-45 0 -64 -42q-9 -24 -9 -140v-120q0 -23 1 -64l-3 -2h-18q-85 0 -106 33q-30 29 -30 117l8 201v5q-2 22 -18 22h-8q-22 -3 -22 -24v-10q0 -28 42 -82q-25 -11 -33 -11h-2l-31 40
q-18 30 -18 65v16q0 56 57 74h16z" />
    <glyph glyph-name="labali.conj.2" 
d="M-796 -71q46 0 63 -62q2 -17 2 -37v-7q0 -26 -10 -182q0 -80 33 -80q5 -1 13 -1h15v32q0 242 22 265q32 69 102 69q88 0 117 -77q7 0 9 -195q0 -68 69 -99q24 -7 49 -7h4q97 0 115 72q8 38 8 148v39q0 34 -2 106l3 1h34q65 0 89 -81q3 -37 3 -72v-273q0 -3 -3 -3h-32
l-3 2q0 17 1 104q0 221 -12 221q-13 26 -35 32l-6 2q1 -112 1 -132q0 -180 -85 -223q-29 -11 -61 -11h-9q-116 0 -154 96q-13 30 -13 150v13q0 98 -49 110q-22 5 -38 5q-44 0 -67 -41q-10 -25 -10 -143v-128q0 -19 1 -57q-2 -2 -4 -2q-103 0 -120 38q-25 30 -25 83v13
q0 40 11 193q-4 49 -23 49q0 2 -8 3q-26 0 -26 -32v-3q0 -28 42 -83q-25 -12 -33 -12q-50 52 -50 103v19q0 58 58 75h14z" />
    <glyph glyph-name="labali.conj.3" 
d="M-679 -533q46 0 61 -36q3 -8 3 -20v-1l-9 -103v-13q2 -27 19 -27q0 -2 21 -2h12v32q0 122 26 137q31 33 101 33q89 0 116 -47q5 -12 5 -19q0 -109 11 -109q26 -34 106 -34h4q112 0 112 59q3 0 3 38v104q0 2 2 2h37q3 -1 3 -2q1 -74 1 -116v-4q0 -85 -75 -112
q-27 -10 -63 -10h-23q-120 0 -153 67q-7 24 -7 98q-6 22 -22 32q-21 10 -61 10q-44 0 -62 -24q-8 -13 -9 -78v-66q0 -14 2 -36l-3 -1h-18q-82 0 -102 18q-29 16 -29 65l7 112v3q-2 12 -18 12h-7q-21 -2 -21 -13v-6q0 -15 40 -46q-24 -6 -32 -6h-1l-31 23q-17 16 -17 36v9
q0 31 55 41h16z" />
    <glyph glyph-name="wabali.conj.1" 
d="M-100 4h29q8 -1 8 -8q0 -150 -157 -233q-90 -33 -270 -83q-132 -72 -132 -203q0 -140 153 -191q40 -13 74 -13h30q248 0 248 308q4 46 4 178v33q2 9 9 9h29q8 -2 8 -9v-178q0 -301 -104 -361q-74 -71 -203 -71h-4q-216 0 -298 174q-21 58 -21 112v5q0 278 435 348
q100 34 137 104q18 79 25 79z" />
    <glyph glyph-name="wabali.conj.2" 
d="M-87 -508h12l11 -12q-15 -59 -124 -113l-53 -8h-22l-147 20q-56 -9 -56 -51v-8q0 -82 169 -82h15q155 0 181 117q4 63 14 63h4q15 -5 15 -35v-12q0 -128 -132 -183q-54 -12 -104 -12h-4q-222 0 -222 144v4q0 89 97 113h20l187 -23q77 0 139 78z" />
    <glyph glyph-name="wabali.conj.ya" horiz-adv-x="262" 
d="M27 524h11q119 0 165 -108q9 -42 9 -113v-111q0 -288 -14 -996l-4 -2h-16q-40 0 -40 6q16 613 16 879v91q0 223 -36 243q-18 18 -38 22l7 -673q0 -400 -47 -464q-58 -115 -173 -115h-27q-126 0 -176 98q-9 19 -9 41v19q0 91 118 133q102 17 102 37q7 20 12 45l4 2h45
l4 -2q0 -86 -49 -117q-36 -13 -111 -32q-49 -17 -49 -70q0 -46 62 -67q32 -5 45 -5h13q102 0 136 83q40 92 40 286v7q-5 656 -5 753v126q1 4 5 4zM-66 12q3 -1 3 -3q0 -94 -80 -149q-30 -25 -183 -60q-81 -19 -114 -62q-28 -38 -28 -71v-11q0 -104 134 -130q36 -3 43 -3
q121 0 165 101q16 38 16 176v56q1 4 4 4h36l4 -2q1 -37 1 -55v-20q0 -194 -33 -233q-35 -62 -118 -89q-39 -8 -61 -8h-28q-160 0 -219 132q-10 30 -10 54v24q0 102 127 175q68 30 205 56q68 26 85 67q7 16 12 51h39z" />
    <glyph glyph-name="wabali.conj.ra" horiz-adv-x="134" 
d="M23 520h38q8 -1 8 -9v-845q0 -391 -341 -471q-50 -9 -79 -9h-54q-261 0 -371 227q-33 83 -33 161v53q0 102 67 313q20 0 41 -13q-54 -199 -54 -314v-13q0 -244 233 -313q65 -13 100 -13h42q9 0 16 -5q177 0 296 127q83 83 83 409v706q1 9 8 9zM-107 4h26q8 -1 8 -7
q0 -124 -144 -193q-83 -27 -247 -69q-122 -59 -122 -168q0 -116 141 -159q36 -10 68 -10h27q228 0 228 255q3 38 3 148v27q2 7 8 7h27q7 -1 7 -7v-148q0 -249 -95 -299q-68 -59 -186 -59h-4q-198 0 -273 145q-19 47 -19 93v3q0 231 399 289q91 29 125 87q17 65 23 65z" />
    <glyph glyph-name="wabali.conj.wa" 
d="M-116 -477h23q4 -1 4 -4q0 -85 -105 -118q-146 -31 -156 -56q-24 -26 -24 -57q0 -75 110 -88h13q126 0 126 133q2 42 2 78q8 4 30 10l2 -4v-72q0 -117 -38 -147q-46 -45 -105 -45h-28q-108 0 -150 84q-8 17 -8 37v22q0 72 110 121q104 24 141 35q48 24 48 69zM-92 14h23
q6 -1 6 -6q0 -105 -123 -164q-69 -23 -209 -58q-103 -51 -103 -143q0 -99 119 -135q31 -9 58 -9h23q193 0 193 217q3 32 3 125v24q1 6 7 6h22q7 -1 7 -6v-126q0 -212 -81 -254q-58 -50 -158 -50h-3q-168 0 -232 123q-16 40 -16 79v3q0 196 338 245q78 24 107 73q14 56 19 56
z" />
    <glyph glyph-name="sasagabali.conj" horiz-adv-x="6" 
d="M-199 -545q-57 161 -140 230l-63 -42l-12 9l74 143q72 -39 112 -136.5t51 -199.5zM-678 -92h10q54 0 75 -49q4 -5 6 -34q-9 -140 -9 -157q0 -123 42 -123q7 -5 20 -5v2q-24 62 -24 120q0 163 140 227q54 19 102 19h35q144 0 217 -107q33 -60 33 -129v-40q0 -46 -4 -169
l-6 -4h-50l-4 2l2 3v165q0 137 -72 176q-66 28 -122 28h-25q-125 0 -168 -97q-14 -32 -14 -78q0 -63 37 -195q-8 -4 -21 -4h-10q-74 0 -139 58q-28 36 -28 97v21q0 5 -1 5l1 9v11q0 41 8 151q0 28 -29 28q-33 -3 -33 -28v-8q0 -27 53 -84q-8 -3 -43 -11q-64 52 -64 107v16
q0 56 70 76q7 1 15 1z" />
    <glyph glyph-name="sasapabali.conj" horiz-adv-x="734" 
d="M476 524h42q111 0 150 -76q16 0 16 -291v-132q0 -9 -52 -9h-2q-8 0 -11 22q2 35 2 51v93q0 223 -40 240q-22 14 -45 16v-1q0 -278 -18 -319q-34 -67 -96 -89q-48 -17 -107 -17h-35q-159 0 -226 104q-29 64 -29 90l4 2h56l32 -49q43 -64 194 -67q113 0 156 80q5 19 7 105
q-2 145 -2 245zM345 249h12q64 0 150 -256q7 -23 7 -38v-12q0 -13 -5 -31h-4q-114 255 -149 255q-15 -9 -28 -61h-2q-34 29 -34 50v14q0 47 45 78z" />
    <glyph glyph-name="habali.conj" 
d="M-684 -67q46 0 66 -53q5 -17 5 -37v-15q0 -26 -10 -137q0 -86 67 -118q33 -13 65 -13h13q130 0 130 121q0 180 45 218q31 31 91 31q105 0 142 -76q13 -45 13 -116v-65q0 -98 -3 -181l-4 -2h-18q-19 0 -27 4q2 88 2 140v94q0 90 -27 106q-24 15 -66 17q-62 0 -82 -34
q-16 -27 -16 -107v-34q0 -141 -103 -181q-42 -11 -77 -11h-23q-71 0 -132 55q-35 41 -35 111v5q0 21 9 162q0 50 -37 50q-22 0 -26 -28v-11q0 -22 46 -79q-32 -11 -36 -11q-57 51 -57 101v20q0 56 63 74h22z" />
    <glyph glyph-name="kafsasakbali.conj" 
d="M-635 -92h15q68 0 89 -97q4 -16 6 -102h34v1q0 135 127 183q35 13 90 13q154 0 208 -120q11 -32 11 -100v-217q0 -4 -4 -4h-43q-3 0 -3 5q0 284 -11 284q-15 39 -52 58q-44 18 -117 18q-158 0 -158 -120h2q93 0 190 -50q69 -44 69 -109v-8q0 -58 -78 -81q-21 -3 -34 -3
h-21q-66 0 -138 66q-36 53 -36 112q-21 -1 -31 -1h-7v-5q0 -142 -57 -162q-9 -7 -40 -10q-56 0 -79 52q-5 12 -7 36q0 96 122 150q11 4 11 8q0 135 -50 135h-4q-25 0 -29 -28v-6q0 -28 50 -83v-1q-32 -10 -37 -10h-4q0 2 -34 36q-25 33 -25 66v21q0 50 50 70q14 3 25 3z
M-669 -453v-2q0 -49 47 -49q44 0 57 67q4 27 4 45q-2 26 -2 31h-2q-104 -33 -104 -92zM-446 -363v-14q0 -45 48 -86q44 -33 112 -33q50 8 50 31v3q0 71 -210 99zM-528 -368h26q3 -1 3 -3v-179q0 -114 10 -151q35 -63 110 -63h17q68 0 100 74q3 17 8 17h4q20 0 20 -4
q0 -54 -50 -113q-35 -31 -87 -31h-17q-108 0 -141 119q-6 36 -6 68v263q0 3 3 3z" />
    <glyph glyph-name="khotsasakbali.conj" 
d="M-1290 -71h13q60 0 79 -96q3 -20 5 -101h27q3 0 3 5q0 136 122 181q25 9 69 9q139 0 184 -121q9 -27 9 -108v-17q0 -69 56 -105q36 -17 79 -17q86 0 113 49q19 20 19 148q1 47 21 111q29 59 96 59h16q132 0 132 -141q1 -19 3 -87q-2 -122 -3 -162q58 8 58 52q3 37 3 109
v224q1 3 3 3q92 0 122 -75q11 -39 11 -148v-203q0 -3 -3 -3h-32q-3 0 -3 3v179q0 145 -23 156q0 8 -37 19q-1 -51 -1 -75v-112q0 -134 -34 -154q-26 -16 -61 -16q-36 1 -45 4q5 73 5 175v42q0 100 -22 118q-25 20 -62 20h-19q-55 0 -72 -42q-13 -26 -13 -79v-36
q0 -168 -104 -198q-40 -9 -76 -9q-96 0 -154 83q-20 22 -20 152q0 88 -64 114q-39 13 -91 13q-105 0 -130 -66q-9 -27 -9 -53h1q78 0 166 -48q62 -45 62 -110v-5q0 -59 -68 -82q-19 -3 -30 -3h-19q-58 0 -122 66q-31 51 -31 110q-19 -1 -27 -1h-7q0 -132 -39 -159
q-25 -16 -46 -16q-50 0 -70 51q-4 12 -6 36q0 95 108 149q9 3 9 8q0 133 -44 133h-7q-17 0 -22 -28v-6q0 -28 45 -82q-15 -9 -37 -9q-52 49 -52 99v21q0 49 44 69q12 3 22 3zM-1320 -428v-2q0 -48 41 -48q40 0 51 66q3 30 3 44q-1 22 -1 31h-2q-92 -32 -92 -91zM-1124 -339
q0 -8 -1 -8q0 -58 58 -102q41 -21 84 -21q37 4 44 29v8q0 37 -71 67q-44 18 -114 27z" />
    <glyph glyph-name="tzirsasakbali.conj" 
d="M-630 -72q44 0 64 -53q5 -19 5 -39v-8q0 -21 -11 -170v-12q0 -68 60 -83q31 -10 85 -10h18q86 0 110 45q7 16 7 27v4q0 42 -54 42q-89 16 -89 32q-27 24 -27 72q0 81 94 127q49 16 82 16h21q143 0 189 -109q15 -35 15 -95v-137q0 -32 -2 -96l-3 -2h-40l-4 2q2 70 2 104
v31q0 170 -14 170q-10 26 -51 45q-42 17 -97 17h-16q-94 0 -123 -42q-5 -13 -5 -23v-6q0 -29 88 -41q92 -27 92 -104q0 -45 -39 -95q-49 -56 -171 -56q-117 0 -170 101q-10 28 -10 60q0 34 15 183v6q0 26 -33 31q-21 0 -26 -27v-12q0 -22 46 -78q-14 -7 -36 -12
q-55 51 -55 102v19q0 56 61 74h22zM-506 -269h26q3 0 3 -3v-177q0 -112 10 -149q35 -62 110 -62h17q68 0 100 73q3 16 8 16h4q20 0 20 -4q0 -53 -50 -111q-35 -31 -87 -31h-17q-108 0 -141 118q-6 35 -6 67v260q0 3 3 3z" />
    <glyph glyph-name="efsasakbali.conj" horiz-adv-x="653" 
d="M208 174h26q3 0 3 -3v-177q0 -112 10 -149q35 -62 110 -62h17q68 0 100 73q3 16 8 16h4q20 0 20 -4q0 -53 -50 -111q-35 -31 -87 -31h-17q-108 0 -141 118q-6 35 -6 67v260q0 3 3 3zM421 449h37q97 0 131 -67q14 0 14 -255v-116q0 -8 -45 -8h-2q-7 0 -10 20q2 30 2 44v82
q0 195 -35 210q-19 13 -39 15v-2q0 -243 -16 -279q-30 -59 -84 -78q-43 -15 -94 -15h-32q-139 0 -198 91q-25 56 -25 79l4 1h49l27 -42q38 -57 171 -59q99 0 137 70q4 17 6 92q-2 128 -2 215z" />
    <glyph glyph-name="vesasakbali.conj" 
d="M-57 2q4 -1 4 -4q0 -106 -89 -169q-34 -27 -205 -67q-90 -22 -128 -70q-31 -43 -31 -82v-11q0 -119 150 -148q40 -4 48 -4q135 0 185 115q17 43 17 200v64q1 3 4 3h41l4 -1q2 -42 2 -63v-23q0 -220 -37 -263q-39 -71 -132 -101q-44 -10 -68 -10h-31q-180 0 -245 149
q-12 34 -12 62v27q0 115 142 198q76 35 229 64q77 29 96 76q7 18 13 58h43zM-343 -356h26q3 0 3 -3v-177q0 -112 10 -149q35 -62 110 -62h17q68 0 100 73q3 16 8 16h4q20 0 20 -4q0 -53 -50 -111q-35 -31 -87 -31h-17q-108 0 -141 118q-6 35 -6 67v260q0 3 3 3z" />
    <glyph glyph-name="vesasakbali.conj.ya" horiz-adv-x="416" 
d="M-56 2q4 -1 4 -3q0 -95 -83 -151q-31 -25 -190 -61q-84 -19 -119 -62q-28 -39 -28 -73v-10q0 -106 138 -132q38 -3 45 -3q126 0 172 102q16 38 16 178v57q0 4 4 4h37l4 -2q2 -37 2 -55v-21q0 -197 -34 -236q-37 -63 -123 -90q-41 -8 -63 -8h-29q-167 0 -227 133
q-11 31 -11 55v25q0 102 132 176q70 31 212 57q71 26 89 68q6 17 12 52h40zM-301 -318h23q3 0 3 -2v-159q0 -100 10 -133q32 -55 102 -55h15q64 0 94 65q2 15 7 15h4q18 0 18 -4q0 -47 -46 -99q-33 -28 -81 -28h-15q-101 0 -131 105q-6 32 -6 61v232q0 2 3 2zM23 438h10
q112 0 155 -105q8 -40 8 -109v-107q0 -279 -13 -963l-4 -3h-14q-38 0 -38 7q15 593 15 850v88q0 215 -34 235q-17 17 -35 21l6 -651q0 -387 -43 -449q-55 -111 -163 -111h-25q-117 0 -165 94q-8 19 -8 40v19q0 88 110 128q96 17 96 36q7 19 11 44l4 2h42l4 -2
q0 -84 -46 -113q-34 -13 -104 -32q-46 -16 -46 -67q0 -45 58 -65q30 -4 42 -4h12q96 0 128 80q37 89 37 277v6q-4 634 -4 728v122q1 4 4 4z" />
    <glyph glyph-name="vesasakbali.conj.ra" horiz-adv-x="188" 
d="M-363 -356h39q3 0 3 -2v-120q0 -105 9 -126q26 -41 85 -41h4q67 0 86 57q0 1 4 10q39 -1 39 -4q0 -45 -40 -89q-34 -30 -81 -30h-17q-94 0 -126 85q-7 28 -7 56v202q0 2 2 2zM43 524h47q8 -2 8 -9v-864q0 -352 -274 -459q-90 -31 -160 -31h-55q-259 0 -375 229
q-34 90 -34 164v52q0 163 126 336h5q63 -12 63 -27q-127 -163 -127 -317v-27q0 -250 274 -304q63 -9 97 -9q271 0 363 216q30 85 30 335v261q0 147 4 449zM-104 4h24q7 -1 7 -6q0 -114 -132 -177q-76 -25 -226 -63q-112 -55 -112 -155q0 -106 129 -145q33 -10 63 -10h24
q209 0 209 234q3 35 3 136v25q1 6 7 6h25q7 -1 7 -6v-136q0 -228 -87 -274q-63 -54 -171 -54h-3q-182 0 -251 133q-17 43 -17 85v3q0 212 365 265q83 26 115 79q15 60 21 60z" />
    <glyph glyph-name="zalsasakbali.conj" horiz-adv-x="653" 
d="M208 174h26q3 0 3 -3v-177q0 -112 10 -149q35 -62 110 -62h17q68 0 100 73q3 16 8 16h4q20 0 20 -4q0 -53 -50 -111q-35 -31 -87 -31h-17q-108 0 -141 118q-6 35 -6 67v260q0 3 3 3zM421 449h37q97 0 131 -67q14 0 14 -255v-116q0 -8 -45 -8h-2q-7 0 -10 20q2 30 2 44v82
q0 195 -35 210q-19 13 -39 15v-2q0 -243 -16 -279q-30 -59 -84 -78q-43 -15 -94 -15h-32q-139 0 -198 91q-25 56 -25 79l4 1h49l27 -42q38 -57 171 -59q99 0 137 70q4 17 6 92q-2 128 -2 215z" />
    <glyph glyph-name="asyurasasakbali.conj" 
d="M-1107 -48h20q58 0 80 -66q8 -32 8 -78q0 -30 -3 -82q52 0 136 -121q33 -40 65 -40q34 0 42 58q3 26 3 57q0 108 -7 270l4 2q102 0 126 -55q16 -25 16 -128v-126q0 -45 35 -75q19 -6 33 -6h12q70 0 96 156q12 90 12 188q3 6 5 6h30q2 0 5 -5q0 -15 -2 -28q0 -131 38 -254
q27 -52 64 -52h6q43 0 62 50q5 30 5 95v221q0 3 3 3q114 0 136 -68q18 -19 18 -179v-190q0 -3 -3 -3h-35l-3 2q-7 335 -17 335q-19 42 -59 42q1 -169 1 -196q0 -122 -43 -160q-24 -26 -61 -26q-77 0 -103 79q-16 39 -27 83h-2q-34 -162 -123 -162q-86 0 -116 73
q-18 28 -18 214q-9 71 -20 71q-10 13 -22 15v-1q2 -65 2 -98v-135q0 -112 -48 -136q-19 -10 -35 -10h-13q-64 0 -133 105q-49 52 -67 56q0 -159 -98 -159q-58 0 -76 54q-7 17 -7 34v6q0 87 93 132q34 10 44 10q1 35 1 53v13q0 93 -53 93q-36 0 -42 -33v-7q0 -17 34 -56v-4
q-3 0 -34 -23q-51 55 -51 95v11q0 53 61 77q16 3 25 3zM-1130 -408v-12q6 -35 32 -35h6q37 10 37 53q3 14 7 63q-58 0 -80 -56q-2 -6 -2 -13z" />
    <glyph glyph-name="rarepabali.conj" horiz-adv-x="748" 
d="M488 524h43q112 0 151 -77q16 0 16 -294v-134q0 -9 -52 -9h-2q-8 0 -11 22q2 35 2 51v94q0 226 -41 243q-21 15 -45 17v-2q0 -280 -18 -322q-35 -67 -97 -90q-49 -17 -109 -17h-36q-160 0 -228 106q-29 63 -29 90l4 2h57l31 -49q44 -66 197 -68q114 0 158 81q5 19 7 106
q-2 147 -2 248zM330 -355h-21q-85 0 -134 88q-2 2 -2 6q34 23 36 23q38 -55 104 -59q54 3 62 33v1q0 22 -108 56q-49 19 -49 56v7q0 41 73 58h25q35 0 85 -25q-25 -39 -32 -44q-30 19 -59 19q-30 0 -36 -15q9 -15 90 -41q58 -25 58 -71v-11q0 -49 -69 -78q-15 -3 -23 -3z
" />
    <glyph glyph-name="rarepatedungbali.conj" horiz-adv-x="984" 
d="M671 523h35q88 0 161 -71q67 -75 67 -167v-28q0 -138 -99 -221q-56 -30 -110 -30q-47 0 -103 25q35 53 41 53q52 -13 62 -13q100 0 138 124q9 32 9 67q0 74 -54 123q-56 48 -138 48q-106 0 -160 -83q-12 -17 -21 -132q0 -49 -28 -124q-53 -94 -187 -94h-33
q-157 0 -219 121q-22 51 -22 101v15q1 4 4 4h52q4 0 13 -50q41 -101 202 -101q122 0 155 105q14 155 31 186q28 75 81 105q53 37 123 37zM283 -365h-21q-85 0 -134 88q-2 2 -2 6q34 23 36 23q38 -55 104 -59q54 3 62 33v1q0 22 -108 56q-49 19 -49 56v7q0 41 73 58h25
q35 0 85 -25q-25 -39 -32 -44q-30 19 -59 19q-30 0 -36 -15q9 -15 90 -41q58 -25 58 -71v-11q0 -49 -69 -78q-15 -3 -23 -3z" />
    <glyph glyph-name="lalengabali.conj" 
d="M-388 -66h12q55 0 93 -67v-3h1q38 68 90 68l8 2q85 0 126 -98q13 -48 13 -116v-56q0 -156 -7 -156h-40l-4 2q2 79 2 117v84q0 112 -42 137q-21 11 -48 11h-1q-64 0 -92 -106l-5 -3h-3q-3 0 -18 51q-26 57 -69 57h-17q-71 0 -87 -105q-3 -29 -3 -48q0 -60 37 -191h-23
q-155 0 -155 133q0 12 12 170q-4 48 -33 48h-2q-27 -3 -27 -26v-6q0 -29 45 -80q0 -4 -35 -12q-56 50 -56 98v19q0 52 59 71q8 2 16 2q77 0 77 -95v-8l-8 -161v-9q0 -54 31 -72q25 -12 36 -12q-22 73 -22 138q0 161 90 210q29 12 49 12zM-353 -481h18q49 0 119 -41
q69 -38 111 -38q16 56 16 70h1q37 0 37 -4q-4 -30 -12 -67q15 0 58 24h4q4 0 7 -23q-16 -23 -66 -36q-16 0 -16 -11q-37 -83 -85 -146q-55 -75 -90 -75h-6q-13 0 -15 19l5 31v2q0 33 -59 71q-60 29 -106 60q-29 22 -29 52v13q0 66 83 96q17 3 25 3zM-416 -576q0 -40 54 -62
q50 -22 82 -47q49 -51 49 -84h2q52 55 103 167q-69 0 -175 68q-28 14 -50 14h-8q-47 0 -57 -52v-4z" />
    <glyph glyph-name="lalengatedungbali.conj" 
d="M-388 -66h12q55 0 93 -67v-3h1q38 68 90 68l8 2q85 0 126 -98q13 -48 13 -116v-56q0 -156 -7 -156h-40l-4 2q2 79 2 117v84q0 112 -42 137q-21 11 -48 11h-1q-64 0 -92 -106l-5 -3h-3q-3 0 -18 51q-26 57 -69 57h-17q-71 0 -87 -105q-3 -29 -3 -48q0 -60 37 -191h-23
q-155 0 -155 133q0 12 12 170q-4 48 -33 48h-2q-27 -3 -27 -26v-6q0 -29 45 -80q0 -4 -35 -12q-56 50 -56 98v19q0 52 59 71q8 2 16 2q77 0 77 -95v-8l-8 -161v-9q0 -54 31 -72q25 -12 36 -12q-22 73 -22 138q0 161 90 210q29 12 49 12zM-353 -481h18q49 0 119 -41
q69 -38 111 -38q16 56 16 70h1q37 0 37 -4q-4 -30 -12 -67q15 0 58 24h4q4 0 7 -23q-16 -23 -66 -36q-16 0 -16 -11q-37 -83 -85 -146q-55 -75 -90 -75h-6q-13 0 -15 19l5 31v2q0 33 -59 71q-60 29 -106 60q-29 22 -29 52v13q0 66 83 96q17 3 25 3zM-416 -576q0 -40 54 -62
q50 -22 82 -47q49 -51 49 -84h2q52 55 103 167q-69 0 -175 68q-28 14 -50 14h-8q-47 0 -57 -52v-4zM6 -544l3 -1q43 -21 36 -88q-4 -13 -6 -20l-4 -8q-21 -50 -98 -56q0 4 1 6q10 25 28 26q31 20 38 37q17 51 -16 67l-1 1q-5 3 -55 6l-5 2q-2 2 -2 8v2q37 40 81 18z" />
    <glyph glyph-name="vowelsignlalengacombbali.blw" 
d="M-681 -69q46 0 61 -65q3 -13 3 -35v-2l-9 -185v-23q2 -49 19 -49q0 -3 21 -4h12v58q0 219 26 245q31 60 101 60q89 0 116 -84q5 -22 5 -34q0 -197 11 -197q26 -60 106 -60h4q112 0 112 105q3 0 3 68v187q0 4 2 4h37q3 -1 3 -4q1 -132 1 -208v-6q0 -154 -75 -202
q-27 -18 -63 -18h-23q-120 0 -153 120q-7 44 -7 176q-6 39 -22 58q-21 17 -61 17q-44 0 -62 -42q-8 -24 -9 -140v-120q0 -23 2 -64l-3 -2h-18q-82 0 -102 33q-29 29 -29 117l7 201v5q-2 22 -18 22h-7q-21 -3 -21 -24v-10q0 -28 40 -82q-24 -11 -32 -11h-1l-31 40
q-17 30 -17 65v16q0 56 55 74h16z" />
    <glyph glyph-name="nabali.conj.u" 
d="M-101 3q13 0 52 -2v-2q2 -74 -40 -233q30 10 73 43h6q5 0 11 -40q-22 -42 -94 -68q-20 -1 -24 -19q-37 -119 -84 -211q-50 -101 -139 -207q-51 -56 -86 -73q-7 2 -25 52q71 72 69 126q-3 88 -172 173q-120 67 -122 143l-1 26q-4 111 106 169q25 10 52 11l21 1
q69 2 168 -64q105 -67 173 -65q39 104 54 240h2zM-612 -281q3 -70 83 -106q73 -38 122 -79q74 -88 76 -147h2q74 101 140 300q-100 -4 -258 113q-44 22 -74 21h-11q-69 -3 -80 -95v-7zM0 -188h4q42 0 67 -26q23 -28 23 -72q0 -66 -39 -120q-22 -30 -92 -118q-49 -68 -49 -94
v-3q0 -17 26 -21q3 -2 5 -2h8q37 0 80 44q27 35 37 62q6 11 13 60q1 28 8 77q3 21 13 21q4 0 11 -12q5 -14 5 -49v-2q0 -136 -73 -216q-52 -50 -114 -50q-51 0 -68 47q-3 14 -3 22v9q0 62 68 143q73 89 80 111q19 38 19 59q0 26 -19 42q-10 8 -23 8q-44 0 -57 -63
q-5 -39 -11 -39h-1q-12 0 -13 42v9q0 81 44 114q25 17 51 17z" />
    <glyph glyph-name="nabali.conj.uu" 
d="M-105 3q13 0 52 -2v-2q3 -74 -40 -235q31 10 74 43l6 1q5 0 11 -41q-23 -42 -95 -68q-20 -1 -25 -19q-36 -120 -84 -213q-51 -102 -140 -209q-52 -55 -87 -73q-6 2 -25 53q71 72 70 126q-3 89 -173 174q-121 68 -124 145v26q-4 111 106 170q26 10 52 11l22 1
q69 2 169 -65q106 -67 175 -64q38 104 54 241h2zM-620 -284q3 -70 84 -106q73 -38 123 -80q74 -88 76 -147h2q74 102 141 301q-101 -3 -260 114q-44 23 -74 22l-12 -1q-69 -2 -80 -95v-8zM-7 -182h5q50 0 87 -48q25 -37 25 -78q0 -62 -52 -93q-3 -1 -31 -19v0q37 -9 53 -21
q15 -10 33 -35q19 -30 19 -77q0 -99 -66 -138q-29 -16 -60 -16q-39 0 -71 19q-11 8 -34 35q-29 45 -29 98v9q0 36 22 51h5q17 0 21 -21q2 -6 2 -13v-3q-2 -28 -2 -30v-4q0 -29 34 -52q15 -8 37 -8q62 0 81 54q4 15 4 29v6q0 38 -28 65q-15 12 -37 19q-40 9 -74 9h-19
q-20 0 -24 16v4q0 19 47 23q54 9 72 18q22 9 33 35q2 9 2 16q0 29 -21 50q-21 12 -43 12h-2q-56 0 -78 -76q-7 -18 -14 -18h-2q-7 0 -9 25q0 40 22 89q36 68 92 68z" />
    <glyph glyph-name="yabali.conj.u.1" horiz-adv-x="369" 
d="M67 520h3q166 0 203 -90q23 -20 23 -157v-335q0 -62 -2 -187q14 10 46 14q45 0 67 -37q12 -25 12 -51q0 -82 -88 -177q-63 -85 -63 -107v-6q0 -14 19 -14h9q49 0 90 88q16 58 16 130l5 2h23q7 0 7 -36v-39q0 -113 -81 -184q-34 -26 -69 -26h-14q-74 6 -74 61v10
q0 58 76 139q81 94 81 139v10q0 12 -16 22h-5q-33 0 -71 -71q-28 -39 -28 -43h-5q3 246 3 367v298q0 129 -23 145q-26 39 -77 39h-9v-882q0 -161 -37 -214q-27 -65 -120 -116q-80 -35 -155 -35h-35q-246 0 -330 171q-14 36 -14 64v24q0 112 116 176q84 40 210 92
q99 64 99 100q16 11 21 192l5 2h53l4 -2q0 -222 -53 -278q-42 -51 -94 -78q-77 -40 -174 -73q-115 -44 -115 -131q0 -157 291 -157q174 0 233 118q23 30 23 262q5 254 7 857z" />
    <glyph glyph-name="yabali.conj.uu.1" horiz-adv-x="390" 
d="M78 524h4q150 0 189 -74q30 -23 30 -176q0 -74 2 -92l-4 -446q29 21 61 21q59 0 84 -62q7 -24 7 -43q0 -63 -75 -94v-2q82 -27 82 -104v-4q0 -86 -64 -121q-25 -10 -36 -10h-12q-85 0 -111 74q-5 20 -5 36q0 37 16 76q14 0 39 -16q-7 -12 -11 -47q8 -70 70 -70
q59 0 66 68v20q0 55 -59 74q-45 10 -75 10h-12q-4 0 -4 4q0 29 9 29q109 0 130 45q9 19 9 38q0 50 -55 50q-40 0 -79 -78q-4 0 -21 -31h-4v691q0 112 -60 137q-16 9 -36 9h-21v-293q0 -203 3 -425q-3 -60 -3 -221q0 -254 -243 -307q-38 -4 -59 -4h-37q-218 0 -307 149
q-23 46 -23 88v17q0 93 82 155q50 33 239 113q109 63 109 157q7 33 7 117v14q1 4 5 4h43q5 -1 5 -4q0 -231 -60 -278q-34 -43 -86 -70q-71 -38 -171 -73q-112 -45 -112 -133q0 -162 292 -162q181 0 237 131q22 24 22 458q3 343 3 655z" />
    <glyph glyph-name="jajerabali.2" horiz-adv-x="1251" 
d="M909 723h9q66 0 132 -113h5q23 14 46 14h23q77 0 77 -173v-52l-4 -33h-10q-15 0 -27 150q-20 29 -27 29h-23l-23 -5q18 -79 18 -216v-66q0 -470 -119 -470q0 10 -27 52v9q73 42 73 306q3 2 14 220q-5 155 -23 155q-160 31 -160 132q6 61 46 61zM936 662l-4 -9
q0 -19 59 -33q0 20 -55 42zM146 535q97 0 105 -117q-9 -198 -9 -245v-9q7 -108 64 -108l23 -9v4q-37 114 -37 179q0 258 160 305h41q65 0 119 -99q39 99 114 99h14q120 0 187 -197q9 -44 9 -71v-18q0 -344 -283 -461l-311 -65q-164 -63 -164 -263q12 -198 114 -198
q106 0 137 183q45 157 133 212q70 48 297 127v-5q0 -66 -55 -80q-274 -113 -274 -197q-23 -61 -69 -216q-58 -113 -155 -113h-9q-123 0 -174 155q-14 74 -14 113v4q0 274 192 362q114 42 334 80q123 41 187 155q46 101 46 160v47q0 163 -114 192h-19q-79 0 -123 -113h-14
q-31 113 -119 113q-72 0 -100 -75q-18 -47 -18 -94v-56q0 -118 114 -207l9 -14v-14q-37 -10 -78 -10h-27q-137 0 -183 104q-14 42 -14 84q0 57 14 226q0 61 -59 61q-32 -14 -32 -42v-10q0 -38 55 -108q0 -10 -41 -19q-69 76 -69 146v9q0 76 69 108q20 0 27 5z" />
    <glyph glyph-name="tatawabali.conj.ya.td" horiz-adv-x="662" 
d="M339 524h34q145 0 217 -155q22 -58 22 -115v-31q0 -151 -101 -236q-56 -38 -115 -38t-112 30q35 49 41 56q49 -13 63 -13h14q76 0 125 95q24 67 24 117q0 140 -119 194q-43 12 -79 12q-194 0 -241 -280q-10 -93 -10 -144q0 -6 -2 -6l2 -11v-378q0 -321 -62 -397
q-56 -75 -140 -75h-24q-104 0 -154 81q-14 28 -14 51v21q0 88 107 127q95 18 95 38l10 46l25 -2h18q4 -1 4 -5q0 -96 -57 -115l-99 -31q-34 -19 -34 -61q0 -44 44 -60q23 -11 53 -11h12q109 0 133 109q27 85 27 203v368q0 54 -2 133q0 356 188 456q57 27 107 27zM-56 2
q3 -1 3 -3q0 -95 -74 -151q-28 -24 -169 -60q-75 -20 -106 -62q-26 -39 -26 -73v-10q0 -106 124 -132q34 -3 40 -3q112 0 153 102q15 38 15 178v57q0 3 3 3h34l3 -2q1 -37 1 -55v-21q0 -196 -30 -235q-33 -63 -110 -89q-36 -9 -56 -9h-26q-148 0 -202 133q-10 30 -10 55v25
q0 102 117 176q64 30 190 57q64 26 79 67q6 17 11 52h36zM-242 -326h11q56 0 131 -225q6 -20 6 -33v-11q0 -11 -5 -27h-3q-100 224 -131 224q-13 -8 -24 -53h-2q-30 25 -30 43v13q0 41 39 67z" />
    <glyph glyph-name="nabali.conj.ya.td" horiz-adv-x="636" 
d="M315 524h34q144 0 215 -151q22 -57 22 -112v-31q0 -147 -100 -230q-56 -37 -115 -37q-58 0 -110 29q34 48 40 55q49 -12 62 -12h14q76 0 125 91q24 66 24 115q0 136 -119 189q-43 12 -78 12q-193 0 -239 -273q-10 -91 -10 -141q0 -6 -2 -6l2 -10v-369q0 -314 -62 -388
q-55 -73 -139 -73h-24q-104 0 -153 80q-14 26 -14 48v21q0 86 106 124q95 18 95 37l10 45l24 -2h18q4 -1 4 -4q0 -94 -56 -112l-99 -31q-34 -18 -34 -59q0 -43 45 -59q22 -10 52 -10h12q108 0 132 106q27 82 27 197v359q0 54 -2 131q0 347 186 444q57 27 107 27zM-104 3
q11 0 43 -1v-2q2 -58 -33 -183q25 8 61 34h5q4 0 9 -31q-18 -33 -78 -53q-17 -1 -21 -15q-30 -93 -69 -166q-42 -79 -116 -162q-43 -43 -72 -57q-5 2 -20 41q58 56 57 98q-3 69 -143 136q-100 53 -102 112l-1 20q-3 87 89 133q21 8 43 8l17 1q58 2 140 -50q88 -52 145 -51
q32 81 44 188h2zM-529 -220q2 -54 69 -83q61 -29 101 -61q62 -69 64 -115h1q62 79 117 234q-84 -2 -215 89q-36 17 -62 17l-9 -1q-57 -2 -66 -74v-6z" />
    <glyph glyph-name="yabali.conj.td.1" horiz-adv-x="678" 
d="M352 524h29q147 2 221 -148q23 -56 24 -112v-30q2 -137 -87 -222q-58 -45 -118 -46h-22q-47 -1 -101 25v2l42 55q39 -13 70 -13q104 2 140 126q11 39 11 80q-2 150 -134 192q-29 6 -65 7q-193 -3 -238 -268q-11 -85 -10 -149l6 -453q2 -179 -26 -226q-29 -82 -114 -130
q-64 -34 -131 -35h-30q-228 -3 -300 179q-8 28 -8 51l-1 24q-2 135 151 204q157 75 178 103q49 51 48 90q8 13 9 135l-1 28q0 3 6 7h45q4 0 4 -4l1 -45q3 -213 -76 -270q-39 -47 -217 -123q-86 -44 -84 -124q2 -157 262 -153q222 3 219 248q-3 393 2 458q-3 30 -3 53
q-5 344 172 449q64 34 126 35z" />
    <glyph glyph-name="yabali.conj.td.2" horiz-adv-x="654" 
d="M325 524h35q148 0 221 -152q23 -58 23 -114v-31q0 -149 -103 -233q-58 -37 -118 -37q-61 0 -114 29q35 49 41 56q50 -13 64 -13h15q78 0 128 93q25 67 25 116q0 138 -122 191q-45 13 -81 13q-199 0 -247 -277q-10 -92 -10 -142q0 -6 -2 -6l2 -10v-373q0 -317 -64 -392
q-57 -74 -143 -74h-25q-107 0 -157 80q-15 27 -15 50v20q0 87 110 126q97 18 97 37l11 46l24 -2h19q4 -1 4 -5q0 -94 -58 -113l-101 -31q-36 -18 -36 -60q0 -43 46 -59q23 -11 54 -11h12q112 0 137 107q27 84 27 200v363q0 54 -2 132q0 350 193 449q58 27 110 27z" />
    <glyph glyph-name="rabali.conj.ya.td" horiz-adv-x="575" 
d="M-218 -502q-319 -154 -491.5 -83t-172.5 283q0 120 35 257l18 -4q-17 -101 -17 -188q0 -213 161 -257t467 97v-105zM271 539l44 1q137 6 208 -167q9 -32 10 -60l2 -43q5 -136 -102 -219q-33 -27 -79 -29l-22 -1q-125 16 -128 81v4q7 44 35 45h11q17 1 53 -45
q20 -12 33 -11q119 4 133 181q-6 133 -121 171q-20 4 -33 3l-40 -1q-127 -5 -164 -213q-15 -1 7 -747q9 -216 -131 -302q-37 -23 -80 -24l-47 -2q-173 -7 -241 153q-8 16 -9 34l-1 39q-5 126 121 190q41 14 116 17h11l8 -4l-3 -21l1 -34q1 -9 -7 -9l-29 -1
q-137 -6 -156 -123l-3 -17q3 -81 100 -125q58 -15 103 -13h11q157 7 174 235q-27 828 1 829q30 126 109 189q58 37 105 39z" />
    <glyph glyph-name="rabali.conj.3.ya.td" horiz-adv-x="665" 
d="M341 526h35q145 0 217 -150q22 -56 22 -111v-30q0 -146 -101 -228q-57 -36 -116 -36t-112 28q35 48 41 55q49 -13 63 -13h14q76 0 126 91q24 66 24 113q0 136 -120 188q-43 12 -79 12q-194 0 -241 -270q-10 -91 -10 -140q0 -6 -2 -6l2 -10v-365q0 -310 -63 -383
q-56 -73 -140 -73h-25q-104 0 -154 79q-14 26 -14 48v20q0 86 108 123q95 18 95 37l10 44l24 -2h19q4 -1 4 -4q0 -93 -57 -111l-100 -30q-34 -18 -34 -59q0 -42 45 -58q22 -10 52 -10h13q109 0 133 105q27 81 27 195v356q0 52 -2 129q0 343 189 440q57 26 107 26zM-240 -633
q-318 -119 -474.5 -26.5t-156.5 323.5q0 92 24 321l13 -3q-12 -200 -12 -268q0 -231 148.5 -303t457.5 38v-82z" />
    <glyph glyph-name="wabali.conj.ya.td" horiz-adv-x="632" 
d="M309 524h34q145 0 217 -155q22 -58 22 -115v-31q0 -151 -101 -236q-56 -38 -115 -38t-112 30q35 49 41 56q49 -13 63 -13h14q76 0 125 95q24 67 24 117q0 140 -119 194q-43 12 -79 12q-194 0 -241 -280q-10 -93 -10 -144q0 -6 -2 -6l2 -11v-378q0 -321 -62 -397
q-56 -75 -140 -75h-24q-104 0 -154 81q-14 28 -14 51v21q0 88 107 127q95 18 95 38l10 46l25 -2h18q4 -1 4 -5q0 -96 -57 -115l-99 -31q-34 -19 -34 -61q0 -44 44 -60q23 -11 53 -11h12q109 0 133 109q27 85 27 203v368q0 54 -2 133q0 356 188 456q57 27 107 27zM-56 2
q3 -1 3 -3q0 -95 -74 -151q-28 -24 -169 -60q-75 -20 -106 -62q-26 -39 -26 -73v-10q0 -106 124 -132q34 -3 40 -3q112 0 153 102q15 38 15 178v57q0 3 3 3h34l3 -2q1 -37 1 -55v-21q0 -196 -30 -235q-33 -63 -110 -89q-36 -9 -56 -9h-26q-148 0 -202 133q-10 30 -10 55v25
q0 102 117 176q64 30 190 57q64 26 79 67q6 17 11 52h36z" />
    <glyph glyph-name="jajerabali.conj.td" horiz-adv-x="715" 
d="M391 530h9q174 0 244 -154q21 -52 21 -111v-6q0 -135 -84 -214q-64 -51 -137 -51h-9q-45 0 -101 22v2q35 46 38 47q42 -12 70 -12h10q79 0 131 95q23 57 23 109q0 123 -133 174q-39 12 -86 12q-154 0 -209 -156q-5 -32 -10 -32h-30q-4 0 -4 4q0 80 46 166q77 105 211 105
zM-127 735h15q44 0 116 -97h2q11 0 57 37q13 4 18 4h6q54 0 75 -125q10 -76 10 -209v-21q0 -19 -20 -43q-12 0 -28 243q-15 69 -33 69q-20 0 -41 -45q31 -88 31 -455q-4 -324 -4 -536q0 -261 -78 -321q-44 -38 -99 -38h-21q-138 0 -181 219q-23 99 -77 99h-12q-53 0 -71 -67
q-11 -31 -37 -137q-51 -136 -157 -136h-20q-96 0 -153 131q-24 77 -24 138v37q0 304 295 374l2 -4q-5 -77 -12 -77q-91 -40 -149 -102q-65 -81 -65 -202q0 -145 73 -187q15 -9 35 -9q68 0 94 58q9 22 61 188q43 107 142 107q107 0 147 -181q28 -102 71 -142q27 -13 49 -13h2
q73 0 97 89q15 27 21 402q8 372 8 502v52q-4 200 -23 200q-71 10 -101 32q-59 42 -59 104t38 62zM-98 668q0 -23 49 -34v2q-27 32 -49 32z" />
    <glyph glyph-name="pabali.conj.td" horiz-adv-x="975" 
d="M662 524h35q88 0 161 -71q67 -76 67 -168v-27q0 -139 -99 -222q-56 -30 -110 -30q-47 0 -104 25q36 53 41 53q52 -13 63 -13q100 0 138 124q9 32 9 67q0 74 -54 124q-56 48 -138 48q-106 0 -160 -84q-13 -17 -21 -132q0 -49 -29 -124q-52 -94 -187 -94h-32
q-158 0 -220 122q-22 51 -22 100v15q1 4 4 4h52q4 0 13 -50q41 -101 203 -101q122 0 155 105q13 156 30 186q29 76 82 105q53 38 123 38z" />
    <glyph glyph-name="sasapabali.conj.td" horiz-adv-x="943" 
d="M653 524h34q87 0 160 -70q65 -75 65 -166v-27q0 -136 -97 -219q-55 -29 -109 -29q-47 0 -102 25q35 52 40 52q52 -13 62 -13q99 0 136 122q9 32 9 67q0 73 -53 122q-55 47 -136 47q-105 0 -158 -83q-13 -16 -21 -130q0 -48 -28 -122q-52 -93 -185 -93h-32
q-155 0 -217 120q-21 50 -21 99v15q1 4 4 4h51q4 0 13 -50q40 -99 200 -99q120 0 153 103q13 154 30 184q28 74 81 104q52 37 121 37zM279 271h11q64 0 148 -252q6 -22 6 -37v-12q0 -12 -5 -30h-3q-113 250 -147 250q-14 -8 -27 -59h-2q-34 28 -34 49v14q0 45 44 76z" />
    <glyph glyph-name="efsasakbali.conj.td" horiz-adv-x="947" 
d="M642 530h33q86 0 157 -69q65 -73 65 -163v-26q0 -134 -96 -216q-54 -28 -107 -28q-46 0 -100 24q34 51 40 51q50 -12 60 -12q97 0 134 120q8 31 8 65q0 72 -52 120q-54 47 -134 47q-102 0 -154 -82q-13 -16 -21 -128q0 -47 -27 -120q-52 -91 -182 -91h-32
q-152 0 -213 118q-21 49 -21 97v15q1 4 4 4h50q4 0 13 -49q39 -98 196 -98q119 0 151 102q13 151 29 181q28 73 80 101q51 37 119 37zM247 328h29q3 -1 3 -3v-200q0 -126 12 -167q40 -70 124 -70h18q78 0 114 82q3 18 8 18h5q22 0 22 -4q0 -60 -55 -125q-41 -35 -99 -35h-18
q-122 0 -159 132q-7 40 -7 76v293q0 3 3 3z" />
    <glyph glyph-name="vesasakbali.conj.ya.td" horiz-adv-x="652" 
d="M329 524h34q145 0 217 -155q22 -58 22 -115v-31q0 -151 -101 -236q-56 -38 -115 -38t-112 30q35 49 41 56q49 -13 63 -13h14q76 0 125 95q24 67 24 117q0 140 -119 194q-43 12 -79 12q-194 0 -241 -280q-10 -93 -10 -144q0 -6 -2 -6l2 -11v-378q0 -321 -62 -397
q-56 -75 -140 -75h-24q-104 0 -154 81q-14 28 -14 51v21q0 88 107 127q95 18 95 38l10 46l25 -2h18q4 -1 4 -5q0 -96 -57 -115l-99 -31q-34 -19 -34 -61q0 -44 44 -60q23 -11 53 -11h12q109 0 133 109q27 85 27 203v368q0 54 -2 133q0 356 188 456q57 27 107 27zM-56 2
q3 -1 3 -3q0 -95 -74 -151q-28 -24 -169 -60q-75 -20 -106 -62q-26 -39 -26 -73v-10q0 -106 124 -132q34 -3 40 -3q112 0 153 102q15 38 15 178v57q0 3 3 3h34l3 -2q1 -37 1 -55v-21q0 -196 -30 -235q-33 -63 -110 -89q-36 -9 -56 -9h-26q-148 0 -202 133q-10 30 -10 55v25
q0 102 117 176q64 30 190 57q64 26 79 67q6 17 11 52h36zM-242 -359h19q2 0 2 -2v-152q0 -97 8 -128q25 -53 79 -53h12q50 0 73 62q2 14 6 14h3q14 0 14 -3q0 -45 -36 -95q-26 -27 -63 -27h-12q-79 0 -103 101q-4 30 -4 58v223q0 2 2 2z" />
    <glyph glyph-name="yabali.conj.u.2" horiz-adv-x="257" 
d="M28 520h4q117 0 162 -102q13 -41 13 -158q0 -195 -7 -491q22 15 45 15q61 0 71 -84v-6q0 -85 -67 -169q-64 -92 -74 -139q0 -14 19 -17h6q55 0 90 110q11 66 11 122l4 2h21q7 0 7 -39v-37q0 -150 -103 -219q-25 -8 -38 -8h-9q-70 8 -70 60v22q0 60 96 175q49 77 49 113
v11q0 20 -19 23q-32 0 -73 -82q-13 -14 -13 -19h-4q4 233 4 486v13q0 274 -34 301q-24 28 -42 28q6 -340 6 -653v-71q0 -346 -45 -412q-56 -112 -166 -112h-26q-120 0 -168 97q-9 20 -9 41v20q0 92 115 132q98 18 98 39q9 45 13 45h43q4 0 4 -4q0 -81 -40 -110
q-30 -17 -109 -35q-51 -19 -51 -69q0 -46 47 -63q23 -11 55 -11h17q91 0 124 76q40 102 40 227q-2 700 -2 950z" />
    <glyph glyph-name="yabali.conj.uu.2" horiz-adv-x="267" 
d="M25 530h8q110 0 154 -104q11 -18 13 -161q0 -141 -6 -503h2q12 10 46 13q75 0 87 -104v-13q0 -64 -62 -98v-2q68 -34 68 -98v-26q0 -98 -79 -133q-21 -2 -25 -4q-80 0 -108 83q-4 20 -4 32v24q0 34 18 72h3q33 -18 37 -18q-8 -36 -8 -45v-24q12 -57 54 -57h6q36 0 52 48
q2 15 2 24v17q0 56 -52 74q-39 11 -69 11h-16v5q0 39 8 39q86 0 111 30q16 27 16 50v2q0 50 -44 50q-37 0 -83 -100q-6 0 -6 -6h-4l-7 13l9 78q2 253 2 409q0 277 -33 305q-24 28 -42 28q6 -366 6 -668v-54q0 -348 -42 -416q-54 -117 -164 -117h-25q-117 0 -165 98
q-8 19 -8 41v20q0 92 112 132q96 18 96 40q8 45 13 45h41q5 0 5 -4q0 -82 -40 -111q-29 -16 -106 -35q-50 -19 -50 -69q0 -46 46 -63q23 -11 54 -11h16q97 0 128 91q33 105 33 211q-2 715 -2 957z" />
    <glyph glyph-name="tatawabali.conj.ya.u" horiz-adv-x="274" 
d="M37 518h4q117 0 162 -102q13 -40 13 -157q0 -195 -6 -491q21 16 44 16q61 0 71 -85v-6q0 -84 -66 -169q-65 -92 -75 -138q0 -14 19 -17h7q54 0 89 110q11 65 11 121l4 2h21q7 0 7 -39v-37q0 -150 -103 -218q-24 -8 -38 -8h-8q-71 8 -71 60v22q0 59 96 175q49 77 49 112
v11q0 21 -19 24q-31 0 -73 -82q-12 -15 -12 -20h-5q5 233 5 486v13q0 273 -34 300q-25 28 -43 28q6 -340 6 -652v-71q0 -345 -44 -411q-56 -112 -167 -112h-25q-120 0 -168 97q-9 19 -9 41v20q0 91 115 131q98 18 98 39q9 46 13 46h42q5 -1 5 -5q0 -81 -41 -110
q-30 -16 -108 -34q-52 -20 -52 -69q0 -46 47 -63q24 -11 56 -11h17q91 0 123 76q41 102 41 227q-2 699 -2 948zM-270 -315h11q56 0 131 -225q6 -20 6 -33v-11q0 -11 -5 -27h-3q-100 224 -131 224q-13 -8 -24 -53h-2q-30 25 -30 43v13q0 41 39 67zM-66 2q3 -1 3 -3
q0 -92 -76 -146q-29 -24 -175 -59q-77 -19 -109 -61q-27 -37 -27 -70v-10q0 -103 128 -128q35 -3 42 -3q115 0 157 99q15 37 15 173v55q1 4 3 4h35l4 -2q1 -36 1 -54v-20q0 -190 -31 -228q-34 -62 -113 -88q-37 -8 -58 -8h-27q-153 0 -209 129q-10 30 -10 54v24
q0 99 121 171q65 29 196 55q66 25 82 66q6 16 11 50h37z" />
    <glyph glyph-name="nabali.conj.ya.u" horiz-adv-x="257" 
d="M19 524h4q117 0 163 -102q12 -41 12 -158q0 -196 -6 -493q22 15 45 15q61 0 71 -84v-7q0 -84 -67 -169q-65 -93 -75 -139q0 -14 20 -17h6q55 0 90 110q11 66 11 122l4 2h21q7 0 7 -39v-37q0 -151 -103 -219q-25 -9 -39 -9h-8q-71 9 -71 61v22q0 59 97 175q49 78 49 113
v11q0 21 -20 24q-31 0 -72 -83q-13 -14 -13 -19h-4q4 234 4 488v13q0 275 -34 302q-25 28 -43 28q6 -342 6 -655v-72q0 -346 -45 -412q-56 -113 -167 -113h-25q-121 0 -169 98q-9 19 -9 41v19q0 93 116 133q98 18 98 39q9 45 13 45h43q4 0 4 -4q0 -82 -41 -111
q-30 -16 -109 -34q-51 -20 -51 -70q0 -45 47 -63q23 -11 56 -11h17q91 0 124 76q40 103 40 228q-2 703 -2 953zM-101 11q11 0 42 -1v-2q2 -53 -32 -168q24 8 59 31h4q4 0 9 -29q-18 -30 -75 -49q-16 0 -19 -13q-29 -86 -67 -153q-40 -72 -111 -149q-41 -40 -69 -53
q-5 2 -19 38q56 52 54 91q-2 64 -136 125q-96 48 -98 103l-1 18q-3 80 85 122q20 8 41 8l17 1q55 2 134 -46q84 -48 138 -47q31 75 43 173h1zM-508 -194q2 -50 66 -76q59 -28 98 -57q59 -63 60 -106h2q59 73 112 216q-80 -2 -206 81q-35 17 -59 16h-9q-55 -2 -64 -69v-5z
" />
    <glyph glyph-name="rabali.conj.ya.u" horiz-adv-x="239" 
d="M-276 -361q-284 -128 -437.5 -69t-153.5 235q0 99 31 213l17 -3q-16 -84 -16 -156q0 -177 143 -213.5t416 80.5v-87zM33 530h15q114 0 145 -94q11 -41 11 -113v-541h4q12 8 22 8h15q43 0 51 -85q-11 -78 -11 -86l18 4l4 -8v-77q-19 -207 -114 -207q-58 0 -58 61v20
q0 54 95 207q15 45 15 57v25q0 10 -15 12q-11 0 -73 -102h-4v716q-8 109 -58 109h-15v-796q0 -245 -91 -301q-61 -53 -131 -53h-40q-173 0 -237 154q-11 37 -11 61v33q0 169 237 224q2 0 15 4l3 -8v-45q0 -10 -80 -37q-117 -61 -117 -130v-12q0 -103 102 -142q38 -13 77 -13
h36q151 0 175 187q8 209 8 659v301q1 8 7 8zM274 -393q-62 -119 -88 -191q3 -12 15 -16q73 25 73 162q3 0 3 41v4h-3z" />
    <glyph glyph-name="rabali.conj.3.ya.u" horiz-adv-x="270" 
d="M30 530h4q118 0 164 -102q13 -42 13 -160q0 -196 -7 -494q22 15 45 15q62 0 71 -85v-7q0 -84 -66 -170q-65 -93 -75 -139q0 -14 19 -18h6q55 0 91 112q10 65 10 122l5 2h21q7 0 7 -39v-37q0 -152 -104 -221q-25 -8 -38 -8h-9q-71 8 -71 61v22q0 60 97 176q49 78 49 113
v11q0 21 -19 24q-32 0 -73 -83q-13 -14 -13 -19h-4q4 235 4 490v13q0 276 -34 303q-25 29 -43 29q6 -344 6 -659v-72q0 -347 -45 -414q-56 -113 -168 -113h-26q-121 0 -169 98q-9 19 -9 41v20q0 93 116 133q99 18 99 39q9 46 13 46h43q4 -1 4 -4q0 -82 -41 -111
q-30 -17 -109 -35q-52 -20 -52 -70q0 -46 47 -63q24 -11 56 -11h17q92 0 125 76q41 103 41 229q-2 706 -2 957zM-248 -629q-302 -125 -450 -28.5t-148 336.5q0 96 23 334l12 -3q-12 -208 -12 -278q0 -241 141 -315.5t434 39.5v-85z" />
    <glyph glyph-name="wabali.conj.ya.u" horiz-adv-x="260" 
d="M20 520h4q118 0 164 -102q13 -42 13 -160q0 -196 -7 -494q22 15 45 15q62 0 71 -85v-7q0 -84 -66 -170q-65 -93 -75 -139q0 -14 19 -18h6q55 0 91 112q10 65 10 122l5 2h21q7 0 7 -39v-37q0 -152 -104 -221q-25 -8 -38 -8h-9q-71 8 -71 61v22q0 60 97 176q49 78 49 113
v11q0 21 -19 24q-32 0 -73 -83q-13 -14 -13 -19h-4q4 235 4 490v13q0 276 -34 303q-25 29 -43 29q6 -344 6 -659v-72q0 -347 -45 -414q-56 -113 -168 -113h-26q-121 0 -169 98q-9 19 -9 41v20q0 93 116 133q99 18 99 39q9 46 13 46h43q4 -1 4 -4q0 -82 -41 -111
q-30 -17 -109 -35q-52 -20 -52 -70q0 -46 47 -63q24 -11 56 -11h17q92 0 125 76q41 103 41 229q-2 706 -2 957zM-66 2q3 -1 3 -3q0 -92 -76 -146q-29 -24 -175 -59q-77 -19 -109 -61q-27 -37 -27 -70v-10q0 -103 128 -128q35 -3 42 -3q115 0 157 99q15 37 15 173v55q1 4 3 4
h35l4 -2q1 -36 1 -54v-20q0 -190 -31 -228q-34 -62 -113 -88q-37 -8 -58 -8h-27q-153 0 -209 129q-10 30 -10 54v24q0 99 121 171q65 29 196 55q66 25 82 66q6 16 11 50h37z" />
    <glyph glyph-name="vesasakbali.conj.ya.u" horiz-adv-x="260" 
d="M-56 2q3 -1 3 -3q0 -89 -74 -142q-28 -23 -169 -57q-75 -18 -106 -58q-26 -37 -26 -69v-9q0 -100 124 -124q34 -3 40 -3q112 0 153 96q15 36 15 167v54q0 3 3 3h34l3 -1q1 -35 1 -52v-20q0 -185 -30 -221q-33 -60 -110 -85q-36 -8 -56 -8h-26q-148 0 -202 125
q-10 29 -10 52v23q0 97 117 166q64 29 190 54q64 24 79 63q6 16 11 49h36zM-307 -237h26q3 0 3 -3v-177q0 -112 10 -149q35 -62 110 -62h17q68 0 100 73q3 16 8 16h4q20 0 20 -4q0 -53 -50 -111q-35 -31 -87 -31h-17q-108 0 -141 118q-6 35 -6 67v260q0 3 3 3zM20 520h4
q118 0 164 -102q13 -42 13 -160q0 -196 -7 -494q22 15 45 15q62 0 71 -85v-7q0 -84 -66 -170q-65 -93 -75 -139q0 -14 19 -18h6q55 0 91 112q10 65 10 122l5 2h21q7 0 7 -39v-37q0 -152 -104 -221q-25 -8 -38 -8h-9q-71 8 -71 61v22q0 60 97 176q49 78 49 113v11
q0 21 -19 24q-32 0 -73 -83q-13 -14 -13 -19h-4q4 235 4 490v13q0 276 -34 303q-25 29 -43 29q6 -344 6 -659v-72q0 -347 -45 -414q-56 -113 -168 -113h-26q-121 0 -169 98q-9 19 -9 41v20q0 93 116 133q99 18 99 39q9 46 13 46h43q4 -1 4 -4q0 -82 -41 -111
q-30 -17 -109 -35q-52 -20 -52 -70q0 -46 47 -63q24 -11 56 -11h17q92 0 125 76q41 103 41 229q-2 706 -2 957z" />
    <glyph glyph-name="tatawabali.conj.ya.uu" horiz-adv-x="267" 
d="M25 520h8q110 0 154 -104q11 -18 13 -161q0 -141 -6 -503h2q12 10 46 13q75 0 87 -104v-13q0 -64 -62 -98v-2q68 -34 68 -98v-26q0 -98 -79 -133q-21 -2 -25 -4q-80 0 -108 83q-4 20 -4 32v24q0 34 18 72h3q33 -18 37 -18q-8 -36 -8 -45v-24q12 -57 54 -57h6q36 0 52 48
q2 15 2 24v17q0 56 -52 74q-39 11 -69 11h-16v5q0 39 8 39q86 0 111 30q16 27 16 50v2q0 50 -44 50q-37 0 -83 -100q-6 0 -6 -6h-4l-7 13l9 78q2 253 2 409q0 277 -33 305q-24 28 -42 28q6 -366 6 -668v-54q0 -348 -42 -416q-54 -117 -164 -117h-25q-117 0 -165 98
q-8 19 -8 41v20q0 92 112 132q96 18 96 40q8 45 13 45h41q5 0 5 -4q0 -82 -40 -111q-29 -16 -106 -35q-50 -19 -50 -69q0 -46 46 -63q23 -11 54 -11h16q97 0 128 91q33 105 33 211q-2 715 -2 957zM-270 -315h11q56 0 131 -225q6 -20 6 -33v-11q0 -11 -5 -27h-3
q-100 224 -131 224q-13 -8 -24 -53h-2q-30 25 -30 43v13q0 41 39 67zM-66 2q3 -1 3 -3q0 -92 -76 -146q-29 -24 -175 -59q-77 -19 -109 -61q-27 -37 -27 -70v-10q0 -103 128 -128q35 -3 42 -3q115 0 157 99q15 37 15 173v55q1 4 3 4h35l4 -2q1 -36 1 -54v-20
q0 -190 -31 -228q-34 -62 -113 -88q-37 -8 -58 -8h-27q-153 0 -209 129q-10 30 -10 54v24q0 99 121 171q65 29 196 55q66 25 82 66q6 16 11 50h37z" />
    <glyph glyph-name="nabali.conj.ya.uu" horiz-adv-x="267" 
d="M-121 3q12 0 47 -1v-2q2 -57 -36 -180q27 8 66 33h5q5 0 10 -31q-20 -32 -84 -52q-18 -1 -22 -15q-33 -92 -75 -163q-46 -78 -125 -160q-46 -43 -77 -57q-6 2 -23 41q64 56 62 97q-3 68 -154 134q-107 52 -110 110l-1 20q-3 86 96 131q22 8 46 9h19q62 2 151 -50
q94 -51 155 -49q35 80 49 185h1zM-579 -217q2 -53 74 -82q66 -29 110 -60q66 -68 68 -114h2q66 78 126 232q-91 -3 -232 87q-39 17 -66 16h-11q-61 -2 -71 -73v-6zM25 520h8q110 0 154 -104q11 -18 13 -161q0 -141 -6 -503h2q12 10 46 13q75 0 87 -104v-13q0 -64 -62 -98v-2
q68 -34 68 -98v-26q0 -98 -79 -133q-21 -2 -25 -4q-80 0 -108 83q-4 20 -4 32v24q0 34 18 72h3q33 -18 37 -18q-8 -36 -8 -45v-24q12 -57 54 -57h6q36 0 52 48q2 15 2 24v17q0 56 -52 74q-39 11 -69 11h-16v5q0 39 8 39q86 0 111 30q16 27 16 50v2q0 50 -44 50
q-37 0 -83 -100q-6 0 -6 -6h-4l-7 13l9 78q2 253 2 409q0 277 -33 305q-24 28 -42 28q6 -366 6 -668v-54q0 -348 -42 -416q-54 -117 -164 -117h-25q-117 0 -165 98q-8 19 -8 41v20q0 92 112 132q96 18 96 40q8 45 13 45h41q5 0 5 -4q0 -82 -40 -111q-29 -16 -106 -35
q-50 -19 -50 -69q0 -46 46 -63q23 -11 54 -11h16q97 0 128 91q33 105 33 211q-2 715 -2 957z" />
    </font>
</defs>
</svg>
