<?xml version="1.0" standalone="no"?>
<!DOCTYPE svg PUBLIC "-//W3C//DTD SVG 1.1//EN" "http://www.w3.org/Graphics/SVG/1.1/DTD/svg11.dtd" >
<svg xmlns="http://www.w3.org/2000/svg" xmlns:xlink="http://www.w3.org/1999/xlink" version="1.1">
<metadata>
Created by FontForge 20190801 at Wed Sep  8 19:38:22 2021
 By www-data
Copyright 2021 I Wayan Sukanta. All Rights Reserved.
</metadata>
<defs>
<font id="GuratSariUNC" horiz-adv-x="0" >
  <font-face 
    font-family="Gurat Sari UNC"
    font-weight="400"
    font-stretch="normal"
    units-per-em="1000"
    panose-1="2 2 5 2 6 5 5 2 2 4"
    ascent="800"
    descent="-200"
    bbox="-1459 -966 2693 1135"
    underline-thickness="50"
    underline-position="-125"
    unicode-range="U+001D-25CC"
  />
<missing-glyph horiz-adv-x="600" 
d="M94 0v714h411v-714h-411zM145 663v-612h309v612h-309z" />
    <glyph glyph-name="signrerekancomb_signcecekcombba" unicode="&#x1b34;&#x1b02;" 
d="M-593 530q-62 0 -62 51q0 18 8 43q19 -47 101 -47l25 1q-29 -44 -63 -47zM-433 530q-62 0 -62 51q0 18 8 43q19 -47 101 -47l25 1q-29 -44 -63 -47zM-533 640q-62 0 -62 51q0 18 8 43q19 -47 101 -47l25 1q-29 -44 -63 -47zM-357 871q63 -13 113 -78q40 -63 52 -166
q6 -50 -5 -51l-3 -1q-7 2 -47 130q-48 89 -97 83l-45 -15q-6 -1 -7 5l-1 13q-5 37 25 78z" />
    <glyph glyph-name="signrerekancomb_signsurangcombb" unicode="&#x1b34;&#x1b03;" 
d="M-473 530q-62 0 -62 51q0 18 8 43q19 -47 101 -47l25 1q-29 -44 -63 -47zM-313 530q-62 0 -62 51q0 18 8 43q19 -47 101 -47l25 1q-29 -44 -63 -47zM-413 640q-62 0 -62 51q0 18 8 43q19 -47 101 -47l25 1q-29 -44 -63 -47zM-253 961l4 -1l7 -5q-44 -42 -52 -85
q-24 -134 286 -321l-1 -5h-21l-19 3q-96 17 -262 184q-57 72 -55 126l5 29q12 63 79 76z" />
    <glyph glyph-name="signrerekancomb_vowelsignulucom" unicode="&#x1b34;&#x1b36;" 
d="M-317 935h35q104 0 176 -114q20 -44 20 -90v-28q0 -78 -58 -178q-9 -6 -17 -6h-3q-6 0 -6 6v11q35 103 35 164q0 114 -87 151q-43 17 -80 17q-113 0 -148 -114v-37q0 -89 125 -128q23 -7 23 -14v-3q0 -41 -104 -47q-94 0 -150 89q-9 21 -9 39v11q0 20 17 20q8 0 55 -70
q25 -19 41 -22q-58 69 -58 131v28q0 115 133 173q35 11 60 11zM-790 537q-62 0 -62 51q0 18 8 43q19 -47 101 -47l25 1q-29 -44 -63 -47zM-630 537q-62 0 -62 51q0 18 8 43q19 -47 101 -47l25 1q-29 -44 -63 -47zM-730 647q-62 0 -62 51q0 18 8 43q19 -47 101 -47l25 1
q-29 -44 -63 -47z" />
    <glyph glyph-name="signrerekancomb_vowelsignulucom" unicode="&#x1b34;&#x1b36;&#x1b02;" 
d="M-487 935h35q104 0 176 -114q20 -44 20 -90v-28q0 -78 -58 -178q-9 -6 -17 -6h-3q-6 0 -6 6v11q35 103 35 164q0 114 -87 151q-43 17 -80 17q-113 0 -148 -114v-37q0 -89 125 -128q23 -7 23 -14v-3q0 -41 -104 -47q-94 0 -150 89q-9 21 -9 39v11q0 20 17 20q8 0 55 -70
q25 -19 41 -22q-58 69 -58 131v28q0 115 133 173q35 11 60 11zM-174 876q76 -20 133 -103q43 -80 50 -208q3 -60 -11 -61h-3q-9 2 -48 161q-51 112 -112 108l-55 -14q-7 -1 -8 7l-1 15q-2 46 37 94zM-973 530q-62 0 -62 51q0 18 8 43q19 -47 101 -47l25 1q-29 -44 -63 -47z
M-813 530q-62 0 -62 51q0 18 8 43q19 -47 101 -47l25 1q-29 -44 -63 -47zM-913 640q-62 0 -62 51q0 18 8 43q19 -47 101 -47l25 1q-29 -44 -63 -47z" />
    <glyph glyph-name="signrerekancomb_vowelsignulucom" unicode="&#x1b34;&#x1b36;&#x1b03;" 
d="M-547 935h35q104 0 176 -114q20 -44 20 -90v-28q0 -78 -58 -178q-9 -6 -17 -6h-3q-6 0 -6 6v11q35 103 35 164q0 114 -87 151q-43 17 -80 17q-113 0 -148 -114v-37q0 -89 125 -128q23 -7 23 -14v-3q0 -41 -104 -47q-94 0 -150 89q-9 21 -9 39v11q0 20 17 20q8 0 55 -70
q25 -19 41 -22q-58 69 -58 131v28q0 115 133 173q35 11 60 11zM-191 957l3 -1l7 -4q-37 -45 -41 -87q-14 -136 270 -307v-6l-18 -1l-18 3q-86 12 -241 170q-55 70 -56 124l3 29q7 63 65 80h26zM-973 530q-62 0 -62 51q0 18 8 43q19 -47 101 -47l25 1q-29 -44 -63 -47z
M-813 530q-62 0 -62 51q0 18 8 43q19 -47 101 -47l25 1q-29 -44 -63 -47zM-913 640q-62 0 -62 51q0 18 8 43q19 -47 101 -47l25 1q-29 -44 -63 -47z" />
    <glyph glyph-name="signrerekancomb_vowelsignulusar" unicode="&#x1b34;&#x1b37;" 
d="M-307 935h35q104 0 176 -114q20 -44 20 -90v-28q0 -78 -58 -178q-9 -6 -17 -6h-3q-6 0 -6 6v11q35 103 35 164q0 114 -87 151q-43 17 -80 17q-113 0 -148 -114v-37q0 -89 125 -128q23 -7 23 -14v-3q0 -41 -104 -47q-94 0 -150 89q-9 21 -9 39v11q0 20 17 20q8 0 55 -70
q25 -19 41 -22q-58 69 -58 131v28q0 115 133 173q35 11 60 11zM-320 818q44 -16 74 -72q23 -54 23 -137q0 -40 -8 -40h-2q-5 2 -23 107q-26 75 -62 75l-33 -8q-4 0 -4 5v10q0 31 25 60h10zM-317 935h35q104 0 176 -114q20 -44 20 -90v-28q0 -78 -58 -178q-9 -6 -17 -6h-3
q-6 0 -6 6v11q35 103 35 164q0 114 -87 151q-43 17 -80 17q-113 0 -148 -114v-37q0 -89 125 -128q23 -7 23 -14v-3q0 -41 -104 -47q-94 0 -150 89q-9 21 -9 39v11q0 20 17 20q8 0 55 -70q25 -19 41 -22q-58 69 -58 131v28q0 115 133 173q35 11 60 11zM-790 537q-62 0 -62 51
q0 18 8 43q19 -47 101 -47l25 1q-29 -44 -63 -47zM-630 537q-62 0 -62 51q0 18 8 43q19 -47 101 -47l25 1q-29 -44 -63 -47zM-730 647q-62 0 -62 51q0 18 8 43q19 -47 101 -47l25 1q-29 -44 -63 -47z" />
    <glyph glyph-name="signrerekancomb_vowelsignulusar" unicode="&#x1b34;&#x1b37;&#x1b02;" 
d="M-547 935h35q104 0 176 -114q20 -44 20 -90v-28q0 -78 -58 -178q-9 -6 -17 -6h-3q-6 0 -6 6v11q35 103 35 164q0 114 -87 151q-43 17 -80 17q-113 0 -148 -114v-37q0 -89 125 -128q23 -7 23 -14v-3q0 -41 -104 -47q-94 0 -150 89q-9 21 -9 39v11q0 20 17 20q8 0 55 -70
q25 -19 41 -22q-58 69 -58 131v28q0 115 133 173q35 11 60 11zM-234 876q76 -20 133 -103q43 -80 50 -208q3 -60 -11 -61h-3q-9 2 -48 161q-51 112 -112 108l-55 -14q-7 -1 -8 7l-1 15q-2 46 37 94zM-1033 530q-62 0 -62 51q0 18 8 43q19 -47 101 -47l25 1q-29 -44 -63 -47z
M-873 530q-62 0 -62 51q0 18 8 43q19 -47 101 -47l25 1q-29 -44 -63 -47zM-973 640q-62 0 -62 51q0 18 8 43q19 -47 101 -47l25 1q-29 -44 -63 -47zM-537 935h35q104 0 176 -114q20 -44 20 -90v-28q0 -78 -58 -178q-9 -6 -17 -6h-3q-6 0 -6 6v11q35 103 35 164
q0 114 -87 151q-43 17 -80 17q-113 0 -148 -114v-37q0 -89 125 -128q23 -7 23 -14v-3q0 -41 -104 -47q-94 0 -150 89q-9 21 -9 39v11q0 20 17 20q8 0 55 -70q25 -19 41 -22q-58 69 -58 131v28q0 115 133 173q35 11 60 11zM-550 818q44 -16 74 -72q23 -54 23 -137
q0 -40 -8 -40h-2q-5 2 -23 107q-26 75 -62 75l-33 -8q-4 0 -4 5v10q0 31 25 60h10z" />
    <glyph glyph-name="signrerekancomb_vowelsignulusar" unicode="&#x1b34;&#x1b37;&#x1b03;" 
d="M-547 935h35q104 0 176 -114q20 -44 20 -90v-28q0 -78 -58 -178q-9 -6 -17 -6h-3q-6 0 -6 6v11q35 103 35 164q0 114 -87 151q-43 17 -80 17q-113 0 -148 -114v-37q0 -89 125 -128q23 -7 23 -14v-3q0 -41 -104 -47q-94 0 -150 89q-9 21 -9 39v11q0 20 17 20q8 0 55 -70
q25 -19 41 -22q-58 69 -58 131v28q0 115 133 173q35 11 60 11zM-191 957l3 -1l7 -4q-37 -45 -41 -87q-14 -136 270 -307v-6l-18 -1l-18 3q-86 12 -241 170q-55 70 -56 124l3 29q7 63 65 80h26zM-973 530q-62 0 -62 51q0 18 8 43q19 -47 101 -47l25 1q-29 -44 -63 -47z
M-813 530q-62 0 -62 51q0 18 8 43q19 -47 101 -47l25 1q-29 -44 -63 -47zM-913 640q-62 0 -62 51q0 18 8 43q19 -47 101 -47l25 1q-29 -44 -63 -47zM-537 935h35q104 0 176 -114q20 -44 20 -90v-28q0 -78 -58 -178q-9 -6 -17 -6h-3q-6 0 -6 6v11q35 103 35 164
q0 114 -87 151q-43 17 -80 17q-113 0 -148 -114v-37q0 -89 125 -128q23 -7 23 -14v-3q0 -41 -104 -47q-94 0 -150 89q-9 21 -9 39v11q0 20 17 20q8 0 55 -70q25 -19 41 -22q-58 69 -58 131v28q0 115 133 173q35 11 60 11zM-550 818q44 -16 74 -72q23 -54 23 -137
q0 -40 -8 -40h-2q-5 2 -23 107q-26 75 -62 75l-33 -8q-4 0 -4 5v10q0 31 25 60h10z" />
    <glyph glyph-name="signrerekancomb_vowelsignpepetc" unicode="&#x1b34;&#x1b42;" 
d="M-713 750q-62 0 -62 51q0 18 8 43q19 -47 101 -47l25 1q-29 -44 -63 -47zM-553 750q-62 0 -62 51q0 18 8 43q19 -47 101 -47l25 1q-29 -44 -63 -47zM-653 860q-62 0 -62 51q0 18 8 43q19 -47 101 -47l25 1q-29 -44 -63 -47zM-437 877h4q49 -53 53 -53q74 28 169 28h24
q163 -11 163 -74v-17q0 -59 -159 -71h-7q-94 0 -190 71q-89 -44 -89 -103q0 -52 74 -116v-7q0 -7 -7 -7h-24q-113 0 -162 99l-4 21v35q0 34 28 53h7q7 -1 7 -7v-53q0 -49 39 -74h4q-11 17 -11 53v7q0 78 99 148q-25 37 -25 63zM-331 782q60 -42 148 -42h11q95 7 95 38
q-39 21 -110 21h-24q-48 0 -120 -17z" />
    <glyph glyph-name="signrerekancomb_vowelsignpepetc" unicode="&#x1b34;&#x1b42;&#x1b02;" 
d="M-853 750q-62 0 -62 51q0 18 8 43q19 -47 101 -47l25 1q-29 -44 -63 -47zM-693 750q-62 0 -62 51q0 18 8 43q19 -47 101 -47l25 1q-29 -44 -63 -47zM-793 860q-62 0 -62 51q0 18 8 43q19 -47 101 -47l25 1q-29 -44 -63 -47zM-614 856h4q48 -53 51 -53q71 28 163 28h23
q157 -11 157 -74v-17q0 -59 -153 -71h-7q-90 0 -183 71q-85 -44 -85 -103q0 -52 71 -116v-7q0 -7 -7 -7h-23q-109 0 -157 99l-3 21v35q0 34 27 53h7q7 -1 7 -7v-53q0 -49 37 -74h3q-10 17 -10 53v7q0 78 95 148q-23 37 -23 63zM-512 761q58 -42 143 -42h10q92 7 92 38
q-38 21 -106 21h-23q-46 0 -116 -17zM-157 842q61 -19 105 -94q34 -73 40 -188q3 -56 -8 -56h-3q-7 2 -38 146q-40 102 -88 98l-44 -13q-6 0 -6 7l-1 14q-2 41 29 85z" />
    <glyph glyph-name="signrerekancomb_vowelsignpepetc" unicode="&#x1b34;&#x1b42;&#x1b03;" 
d="M-943 740q-62 0 -62 51q0 18 8 43q19 -47 101 -47l25 1q-29 -44 -63 -47zM-783 740q-62 0 -62 51q0 18 8 43q19 -47 101 -47l25 1q-29 -44 -63 -47zM-883 850q-62 0 -62 51q0 18 8 43q19 -47 101 -47l25 1q-29 -44 -63 -47zM-201 957l3 -1l7 -4q-37 -45 -41 -87
q-14 -136 270 -307v-6l-18 -1l-18 3q-86 12 -241 170q-55 70 -56 124l3 29q7 63 65 80h26zM-698 856h4q49 -53 53 -53q74 28 169 28h24q163 -11 163 -74v-17q0 -59 -159 -71h-7q-94 0 -190 71q-89 -44 -89 -103q0 -52 74 -116v-7q0 -7 -7 -7h-24q-113 0 -162 99l-4 21v35
q0 34 28 53h7q7 -1 7 -7v-53q0 -49 39 -74h4q-11 17 -11 53v7q0 78 99 148q-25 37 -25 63zM-592 761q60 -42 148 -42h11q95 7 95 38q-39 21 -110 21h-24q-48 0 -120 -17z" />
    <glyph glyph-name="vowelsignulucomb_signuluricemco" unicode="&#x1b36;&#x1b00;" 
d="M-366 823h27q80 0 135 -88q15 -34 15 -69v-21q0 -60 -44 -138q-7 -4 -13 -4h-2q-5 0 -5 4v9q27 80 27 127q0 87 -67 116q-34 12 -62 12q-87 0 -113 -88v-28q0 -68 95 -98q18 -6 18 -11v-2q0 -32 -80 -37q-72 0 -115 69q-7 17 -7 30v9q0 15 13 15q6 0 42 -54
q19 -15 32 -17q-45 54 -45 101v21q0 89 102 133q28 9 47 9zM-353 1099h3q132 -1 167 -71q13 -29 13 -63q0 -91 -110 -152v0q2 11 33 52q37 54 37 112q0 47 -46 76q-33 15 -85 15h-4q-79 0 -128 -56q-21 -27 -21 -58v-3q0 -61 55 -103q19 -16 22 -22h-1h-6q-25 0 -70 42
q-32 36 -32 95q0 69 70 113q41 23 103 23zM-356 1022h9q69 0 89 -43q7 -15 7 -32v-5q0 -51 -66 -89v1q0 4 28 47q13 26 13 50q0 31 -35 46q-18 4 -36 4h-8q-32 0 -58 -27q-13 -16 -13 -36v-1q0 -36 35 -63q2 -3 8 -10h-2h-1q-15 0 -31 13q-31 23 -31 63v4q0 39 39 65
q23 13 53 13z" />
    <glyph glyph-name="vowelsignulucomb_signulucandrac" unicode="&#x1b36;&#x1b01;" 
d="M-366 814h27q80 0 135 -86q15 -32 15 -66v-21q0 -59 -44 -134q-7 -4 -13 -4h-2q-5 0 -5 4v9q27 77 27 123q0 85 -67 112q-34 13 -62 13q-87 0 -113 -86v-27q0 -67 95 -96q18 -5 18 -10v-2q0 -31 -80 -36q-72 0 -115 67q-7 16 -7 29v9q0 14 13 14q6 0 42 -52
q19 -14 32 -17q-45 52 -45 98v21q0 86 102 130q28 8 47 8zM-333 1135h5v-2q4 -21 4 -28q0 -24 -4 -52q21 -64 21 -70h-2q-26 11 -51 11h-14v1q12 9 12 19v18q0 6 29 103zM-209 1059q39 -36 39 -105q0 -82 -91 -112q-49 -18 -110 -18q-126 0 -156 72l-6 28q0 70 119 123h3v-8
q-68 -73 -68 -108q0 -50 88 -64q3 -2 23 -2h19q99 0 134 56q11 27 11 54q0 26 -11 82zM-357 978h6q82 -7 82 -57v-2q0 -40 -85 -46h-3q-65 9 -65 54q0 35 65 51zM-380 921q9 -20 29 -20h11q26 5 26 13v13q-9 17 -43 17q-16 0 -23 -23z" />
    <glyph glyph-name="vowelsignulucomb_signcecekcombb" unicode="&#x1b36;&#x1b02;" 
d="M-487 935h35q104 0 176 -114q20 -44 20 -90v-28q0 -78 -58 -178q-9 -6 -17 -6h-3q-6 0 -6 6v11q35 103 35 164q0 114 -87 151q-43 17 -80 17q-113 0 -148 -114v-37q0 -89 125 -128q23 -7 23 -14v-3q0 -41 -104 -47q-94 0 -150 89q-9 21 -9 39v11q0 20 17 20q8 0 55 -70
q25 -19 41 -22q-58 69 -58 131v28q0 115 133 173q35 11 60 11zM-174 876q76 -20 133 -103q43 -80 50 -208q3 -60 -11 -61h-3q-9 2 -48 161q-51 112 -112 108l-55 -14q-7 -1 -8 7l-1 15q-2 46 37 94z" />
    <glyph glyph-name="vowelsignulucomb_signsurangcomb" unicode="&#x1b36;&#x1b03;" 
d="M-547 935h35q104 0 176 -114q20 -44 20 -90v-28q0 -78 -58 -178q-9 -6 -17 -6h-3q-6 0 -6 6v11q35 103 35 164q0 114 -87 151q-43 17 -80 17q-113 0 -148 -114v-37q0 -89 125 -128q23 -7 23 -14v-3q0 -41 -104 -47q-94 0 -150 89q-9 21 -9 39v11q0 20 17 20q8 0 55 -70
q25 -19 41 -22q-58 69 -58 131v28q0 115 133 173q35 11 60 11zM-191 957l3 -1l7 -4q-37 -45 -41 -87q-14 -136 270 -307v-6l-18 -1l-18 3q-86 12 -241 170q-55 70 -56 124l3 29q7 63 65 80h26z" />
    <glyph glyph-name="vowelsignulucomb_signcecekcomb_" unicode="&#x1b36;&#x1b02;&#x1b03;" 
d="M-487 925h35q104 0 176 -114q20 -44 20 -90v-28q0 -78 -58 -178q-9 -6 -17 -6h-3q-6 0 -6 6v11q35 103 35 164q0 114 -87 151q-43 17 -80 17q-113 0 -148 -114v-37q0 -89 125 -128q23 -7 23 -14v-3q0 -41 -104 -47q-94 0 -150 89q-9 21 -9 39v11q0 20 17 20q8 0 55 -70
q25 -19 41 -22q-58 69 -58 131v28q0 115 133 173q35 11 60 11zM-174 866q76 -20 133 -103q43 -80 50 -208q3 -60 -11 -61h-3q-9 2 -48 161q-51 112 -112 108l-55 -14q-7 -1 -8 7l-1 15q-2 46 37 94zM-314 1123h4l7 -2q-31 -37 -31 -68q0 -100 282 -195v-5l-17 -2h-17
q-81 0 -241 99q-58 45 -64 84v21q0 47 54 66z" />
    <glyph glyph-name="vowelsignulusaricomb_signuluric" unicode="&#x1b37;&#x1b00;" 
d="M-366 823h27q80 0 135 -88q15 -34 15 -69v-21q0 -60 -44 -138q-7 -4 -13 -4h-2q-5 0 -5 4v9q27 80 27 127q0 87 -67 116q-34 12 -62 12q-87 0 -113 -88v-28q0 -68 95 -98q18 -6 18 -11v-2q0 -32 -80 -37q-72 0 -115 69q-7 17 -7 30v9q0 15 13 15q6 0 42 -54
q19 -15 32 -17q-45 54 -45 101v21q0 89 102 133q28 9 47 9zM-353 1099h3q132 -1 167 -71q13 -29 13 -63q0 -91 -110 -152v0q2 11 33 52q37 54 37 112q0 47 -46 76q-33 15 -85 15h-4q-79 0 -128 -56q-21 -27 -21 -58v-3q0 -61 55 -103q19 -16 22 -22h-1h-6q-25 0 -70 42
q-32 36 -32 95q0 69 70 113q41 23 103 23zM-356 1022h9q69 0 89 -43q7 -15 7 -32v-5q0 -51 -66 -89v1q0 4 28 47q13 26 13 50q0 31 -35 46q-18 4 -36 4h-8q-32 0 -58 -27q-13 -16 -13 -36v-1q0 -36 35 -63q2 -3 8 -10h-2h-1q-15 0 -31 13q-31 23 -31 63v4q0 39 39 65
q23 13 53 13zM-384 723q36 -13 61 -59q18 -43 18 -111q0 -32 -7 -32h-1q-4 2 -19 87q-21 60 -50 60l-27 -6q-3 0 -3 4v8q0 25 20 49h8z" />
    <glyph glyph-name="vowelsignulusaricomb_signulucan" unicode="&#x1b37;&#x1b01;" 
d="M-366 814h27q80 0 135 -86q15 -32 15 -66v-21q0 -59 -44 -134q-7 -4 -13 -4h-2q-5 0 -5 4v9q27 77 27 123q0 85 -67 112q-34 13 -62 13q-87 0 -113 -86v-27q0 -67 95 -96q18 -5 18 -10v-2q0 -31 -80 -36q-72 0 -115 67q-7 16 -7 29v9q0 14 13 14q6 0 42 -52
q19 -14 32 -17q-45 52 -45 98v21q0 86 102 130q28 8 47 8zM-333 1135h5v-2q4 -21 4 -28q0 -24 -4 -52q21 -64 21 -70h-2q-26 11 -51 11h-14v1q12 9 12 19v18q0 6 29 103zM-209 1059q39 -36 39 -105q0 -82 -91 -112q-49 -18 -110 -18q-126 0 -156 72l-6 28q0 70 119 123h3v-8
q-68 -73 -68 -108q0 -50 88 -64q3 -2 23 -2h19q99 0 134 56q11 27 11 54q0 26 -11 82zM-357 978h6q82 -7 82 -57v-2q0 -40 -85 -46h-3q-65 9 -65 54q0 35 65 51zM-380 921q9 -20 29 -20h11q26 5 26 13v13q-9 17 -43 17q-16 0 -23 -23zM-384 723q36 -13 61 -59
q18 -43 18 -111q0 -32 -7 -32h-1q-4 2 -19 87q-21 60 -50 60l-27 -6q-3 0 -3 4v8q0 25 20 49h8z" />
    <glyph glyph-name="vowelsignulusaricomb_signcecekc" unicode="&#x1b37;&#x1b02;" 
d="M-547 935h35q104 0 176 -114q20 -44 20 -90v-28q0 -78 -58 -178q-9 -6 -17 -6h-3q-6 0 -6 6v11q35 103 35 164q0 114 -87 151q-43 17 -80 17q-113 0 -148 -114v-37q0 -89 125 -128q23 -7 23 -14v-3q0 -41 -104 -47q-94 0 -150 89q-9 21 -9 39v11q0 20 17 20q8 0 55 -70
q25 -19 41 -22q-58 69 -58 131v28q0 115 133 173q35 11 60 11zM-234 876q76 -20 133 -103q43 -80 50 -208q3 -60 -11 -61h-3q-9 2 -48 161q-51 112 -112 108l-55 -14q-7 -1 -8 7l-1 15q-2 46 37 94zM-537 935h35q104 0 176 -114q20 -44 20 -90v-28q0 -78 -58 -178
q-9 -6 -17 -6h-3q-6 0 -6 6v11q35 103 35 164q0 114 -87 151q-43 17 -80 17q-113 0 -148 -114v-37q0 -89 125 -128q23 -7 23 -14v-3q0 -41 -104 -47q-94 0 -150 89q-9 21 -9 39v11q0 20 17 20q8 0 55 -70q25 -19 41 -22q-58 69 -58 131v28q0 115 133 173q35 11 60 11z
M-550 818q44 -16 74 -72q23 -54 23 -137q0 -40 -8 -40h-2q-5 2 -23 107q-26 75 -62 75l-33 -8q-4 0 -4 5v10q0 31 25 60h10z" />
    <glyph glyph-name="vowelsignulusaricomb_signsurang" unicode="&#x1b37;&#x1b03;" 
d="M-547 935h35q104 0 176 -114q20 -44 20 -90v-28q0 -78 -58 -178q-9 -6 -17 -6h-3q-6 0 -6 6v11q35 103 35 164q0 114 -87 151q-43 17 -80 17q-113 0 -148 -114v-37q0 -89 125 -128q23 -7 23 -14v-3q0 -41 -104 -47q-94 0 -150 89q-9 21 -9 39v11q0 20 17 20q8 0 55 -70
q25 -19 41 -22q-58 69 -58 131v28q0 115 133 173q35 11 60 11zM-191 957l3 -1l7 -4q-37 -45 -41 -87q-14 -136 270 -307v-6l-18 -1l-18 3q-86 12 -241 170q-55 70 -56 124l3 29q7 63 65 80h26zM-537 935h35q104 0 176 -114q20 -44 20 -90v-28q0 -78 -58 -178q-9 -6 -17 -6
h-3q-6 0 -6 6v11q35 103 35 164q0 114 -87 151q-43 17 -80 17q-113 0 -148 -114v-37q0 -89 125 -128q23 -7 23 -14v-3q0 -41 -104 -47q-94 0 -150 89q-9 21 -9 39v11q0 20 17 20q8 0 55 -70q25 -19 41 -22q-58 69 -58 131v28q0 115 133 173q35 11 60 11zM-550 818
q44 -16 74 -72q23 -54 23 -137q0 -40 -8 -40h-2q-5 2 -23 107q-26 75 -62 75l-33 -8q-4 0 -4 5v10q0 31 25 60h10z" />
    <glyph glyph-name="vowelsignulusaricomb_signcecekc" unicode="&#x1b37;&#x1b02;&#x1b03;" 
d="M-506 934h29q87 0 147 -95q16 -37 16 -75v-23q0 -65 -48 -149q-8 -5 -14 -5h-3q-4 0 -4 5v9q29 86 29 137q0 95 -73 126q-36 14 -67 14q-94 0 -123 -95v-31q0 -74 104 -107q19 -5 19 -11v-3q0 -34 -87 -39q-78 0 -125 74q-7 18 -7 33v9q0 16 14 16q6 0 46 -58
q20 -16 34 -18q-48 58 -48 109v23q0 96 110 145q30 9 51 9zM-517 837q37 -14 62 -61q19 -45 19 -114q0 -33 -7 -33h-2q-4 1 -19 89q-21 62 -51 62l-28 -6q-3 0 -3 4v9q0 25 20 50h9zM-214 832q64 -23 106 -99q30 -72 26 -182q-2 -52 -14 -52h-3q-7 3 -28 143
q-34 100 -87 102l-49 -8q-6 0 -6 7l1 13q1 39 39 77zM-318 1092h4l6 -2q-30 -37 -30 -69q0 -101 285 -198v-4l-17 -2h-17q-83 0 -244 99q-59 46 -65 86v21q0 48 54 67z" />
    <glyph glyph-name="vowelsignpepetcomb_signcecekcom" unicode="&#x1b42;&#x1b02;" 
d="M-613 882h4q49 -53 53 -53q74 28 169 28h24q163 -11 163 -74v-17q0 -59 -159 -71h-7q-94 0 -190 71q-89 -44 -89 -103q0 -52 74 -116v-7q0 -7 -7 -7h-24q-113 0 -162 99l-4 21v35q0 34 28 53h7q7 -1 7 -7v-53q0 -49 39 -74h4q-11 17 -11 53v7q0 78 99 148q-25 37 -25 63z
M-507 787q60 -42 148 -42h11q95 7 95 38q-39 21 -110 21h-24q-48 0 -120 -17zM-135 837q64 -23 106 -99q30 -72 26 -182q-2 -52 -14 -52h-3q-7 3 -28 143q-34 100 -87 102l-49 -8q-6 0 -6 7l1 13q1 39 39 77z" />
    <glyph glyph-name="vowelsignpepetcomb_signsurangco" unicode="&#x1b42;&#x1b03;" 
d="M-670 882h4q47 -53 50 -53q70 28 159 28h24q153 -11 153 -74v-17q0 -59 -150 -71h-7q-88 0 -179 71q-84 -44 -84 -103q0 -52 70 -116v-7q0 -7 -6 -7h-24q-106 0 -153 99l-3 21v35q0 34 27 53h6q7 -1 7 -7v-53q0 -49 37 -74h3q-10 17 -10 53v7q0 78 93 148q-23 37 -23 63z
M-570 787q57 -42 140 -42h10q90 7 90 38q-37 21 -103 21h-24q-45 0 -113 -17zM-162 903l4 -1l6 -5q-40 -35 -48 -72q-25 -119 242 -314l-1 -5l-18 2l-18 5q-84 23 -224 187q-48 71 -44 119l5 25q12 56 72 62z" />
    <glyph glyph-name="vowelsignpepetcomb_signcecekcom" unicode="&#x1b42;&#x1b02;&#x1b03;" 
d="M-613 882h4q49 -53 53 -53q74 28 169 28h24q163 -11 163 -74v-17q0 -59 -159 -71h-7q-94 0 -190 71q-89 -44 -89 -103q0 -52 74 -116v-7q0 -7 -7 -7h-24q-113 0 -162 99l-4 21v35q0 34 28 53h7q7 -1 7 -7v-53q0 -49 39 -74h4q-11 17 -11 53v7q0 78 99 148q-25 37 -25 63z
M-507 787q60 -42 148 -42h11q95 7 95 38q-39 21 -110 21h-24q-48 0 -120 -17zM-135 837q64 -23 106 -99q30 -72 26 -182q-2 -52 -14 -52h-3q-7 3 -28 143q-34 100 -87 102l-49 -8q-6 0 -6 7l1 13q1 39 39 77zM-239 1097h4l6 -2q-30 -37 -30 -69q0 -101 285 -198v-4l-17 -2
h-17q-83 0 -244 99q-59 46 -65 86v21q0 48 54 67z" />
    <glyph glyph-name="signcecekcomb_signsurangcombbal" unicode="&#x1b02;&#x1b03;" 
d="M-234 876q76 -20 133 -103q43 -80 50 -208q3 -60 -11 -61h-3q-9 2 -48 161q-51 112 -112 108l-55 -14q-7 -1 -8 7l-1 15q-2 46 37 94zM-576 928h5l9 -3q-41 -50 -41 -93q0 -136 384 -266v-6l-23 -3h-23q-111 0 -329 135q-79 61 -87 115v28q0 64 73 90z" />
    <glyph glyph-name="kabali.td" unicode="&#x1b13;&#x1b35;" horiz-adv-x="1251" 
d="M939 489q196 0 263 -168l4 -40v-45q0 -143 -178 -224q-40 -12 -67 -12h-71l-22 4v12q2 14 147 56q120 62 120 181v12q0 120 -151 152q-5 4 -36 4h-13q-174 -15 -174 -116q-4 -7 -4 -16q13 -104 13 -121q0 -136 -165 -136h-13q-6 0 -13 12q40 80 40 160q0 135 -85 185
q-34 20 -102 28q-100 0 -156 -64v-4q236 -35 236 -213v-28q0 -88 -53 -88h-14q-66 0 -75 164q-26 113 -116 113h-4q-72 -12 -72 -93q0 -53 76 -132v-12q-7 -16 -31 -16h-13q-118 0 -165 116v28q0 54 89 161q4 7 4 16v4q0 8 -13 8q-16 0 -49 -76l-13 -8h-5q-13 4 -13 24v36
q16 84 85 84h26q54 0 54 -64h4q82 100 218 100q150 0 218 -124q27 -63 27 -129q-6 -86 -18 -124h4q40 30 40 72v16q0 66 -9 113q0 153 192 192h53zM107 184v-16q0 -29 40 -48v4q-17 54 -17 76v8q0 16 8 53q-31 -29 -31 -77zM392 261v-4q31 -43 49 -169l9 -4q9 26 9 32
q0 87 -67 145z" />
    <glyph glyph-name="gabali.td" unicode="&#x1b15;&#x1b35;" horiz-adv-x="1117" 
d="M411 468q162 0 217 -123q13 -60 13 -94q0 -68 -29 -162h8q45 23 45 94q-8 73 -8 115q0 121 144 170h61q143 0 202 -149q8 -29 8 -51v-47q0 -138 -152 -212q-28 -9 -49 -9h-66q-8 0 -8 9v8q33 20 144 68q73 64 73 166q0 107 -115 149h-61q-128 -13 -128 -119v-4
q0 -48 9 -103q0 -108 -95 -148q-27 -9 -78 -13q-16 6 -16 13v8l49 157q4 5 4 34v13q0 100 -53 136q-54 26 -91 26h-45q-135 0 -148 -157q0 -66 66 -183v-9q0 -11 -33 -17h-29q-139 0 -139 128v8q0 37 24 158q-37 -19 -37 -64v-9q9 -103 9 -115q0 -22 -13 -25q-30 0 -49 119
v30q0 102 103 127h16q33 0 33 -38q-29 -131 -29 -153v-17q6 -89 58 -89q-37 65 -37 123v21q0 156 123 213q45 17 99 17z" />
    <glyph glyph-name="gagorabali.td" unicode="&#x1b16;&#x1b35;" horiz-adv-x="1246" 
d="M935 474h38q167 0 224 -166q4 -20 4 -38v-43q0 -142 -165 -219q-29 -8 -50 -8h-59q-22 0 -26 12q0 14 140 61q97 64 97 166v27q0 123 -169 142q-139 -10 -139 -80q-6 0 -9 -66q5 -54 5 -69l-5 -8q0 -4 5 -4q0 -123 -98 -166q-53 -7 -59 -7q-99 0 -160 111h-4
q-30 -88 -85 -88q0 -4 -25 -4h-4q-88 0 -97 112v11q0 40 42 224h-13q-71 0 -92 -201q0 -48 29 -111v-16q-17 -27 -50 -27h-9q-95 0 -110 131q5 53 5 66l-9 -4h-8q-34 19 -34 54v23q25 100 110 100q38 -13 38 -38v-8q-43 -97 -43 -173v-12q0 -55 34 -69v3q-17 49 -17 93
q10 185 131 239q28 8 38 8h17q51 -4 51 -43q-51 -179 -51 -200q0 -18 -4 -39q0 -65 46 -65q60 0 89 204q10 12 12 12h17q26 0 26 -120q44 -119 130 -119q80 0 97 100q-4 97 -4 154q30 158 173 158zM98 254v-15h4q0 25 29 85h-4q-29 -16 -29 -70z" />
    <glyph glyph-name="cabali.td" unicode="&#x1b18;&#x1b35;" horiz-adv-x="1117" 
d="M204 258v-3h8v3h-8zM821 478h41q144 0 202 -152q8 -17 8 -46v-49q0 -118 -129 -202q-39 -21 -85 -21h-41q-21 0 -24 13v4q20 19 133 62q89 65 89 173q0 109 -117 148q-21 4 -40 4h-8q-115 0 -150 -107q-20 -99 -36 -99q-8 11 -33 144q-26 58 -72 58h-25q85 -53 85 -173
v-4q0 -165 -73 -215q-24 -16 -48 -16h-28q-116 0 -219 181l-24 21h-4q-16 -1 -77 -140q-16 -25 -44 -33q-39 0 -49 66q0 53 125 169q41 51 41 103q0 33 -37 33h-8q-51 0 -97 -140q-13 -9 -20 -9q-12 15 -12 29v25q24 161 146 161q93 -18 93 -83v-12q0 -39 -29 -107
q50 -29 118 -132q46 -50 105 -50h12q69 0 69 161v8q-11 108 -65 108q-67 -25 -69 -25h-4q-8 0 -8 8v8q38 116 129 116h25q53 0 113 -75q50 87 141 87z" />
    <glyph glyph-name="calacabali.td" unicode="&#x1b19;&#x1b35;" horiz-adv-x="1053" 
d="M777 449h23q125 0 193 -128q15 -31 15 -64v-42q0 -119 -127 -196q-39 -19 -73 -19h-54q-20 0 -23 11q11 20 119 53q100 58 100 166v15q0 98 -119 136h-50q-98 0 -131 -83q0 -227 -100 -272q-44 -11 -81 -15q-145 0 -181 110l-8 45q19 135 19 158q0 57 -73 57h-4
q-119 -27 -119 -140q-4 0 -4 -7q8 -138 38 -151q35 0 35 49q-8 104 -8 128q8 18 16 19h8q23 0 34 -128v-26q0 -79 -69 -95q-108 22 -108 185v8q0 160 154 207q8 0 42 4q84 0 116 -64l4 -27v-22q0 -22 -16 -147q0 -106 116 -106q86 0 116 60q19 72 19 178q59 143 181 143z
" />
    <glyph glyph-name="jajerabali.td" unicode="&#x1b1b;&#x1b35;" horiz-adv-x="1519" 
d="M753 759q60 0 85 -252q46 29 69 29q36 0 43 -54v-149h-4q-46 22 -46 99l-4 29h-12q-40 -29 -42 -29q11 -95 15 -335q0 -512 -185 -649q-43 -21 -70 -21q0 4 -4 4q27 74 27 128v25q0 142 -166 207q-36 8 -74 12q-116 -15 -116 -74v-17q0 -56 97 -103q43 -6 43 -21v-4
q0 -31 -39 -37h-12q-222 0 -294 128q-19 55 -19 87v17q0 142 120 198q39 21 85 21h31q46 0 170 -8q145 0 178 211v53q0 120 -93 166q-15 8 -42 8q-92 0 -105 -136v-21q12 -78 12 -83v-12q0 -9 -8 -9h-15l-70 75h-15q-20 -11 -20 -37q0 -14 74 -108v-16q0 -48 -82 -58
q-158 35 -158 161q0 12 8 54l-8 -4h-8q-11 4 -11 24v5q27 173 123 173h16q69 -13 69 -62q0 -36 -104 -120q-27 -37 -27 -66v-16q0 -52 97 -75h15q-54 66 -54 116q0 69 70 91q3 0 30 -12q0 146 124 202l39 4h15q153 0 186 -215q4 -36 4 -41q0 -180 -139 -281
q-72 -29 -128 -29l-23 4h-23q-50 0 -113 4q-117 0 -150 -103q-8 -39 -8 -63q0 -102 120 -144l15 -4q-35 55 -35 91q20 157 147 157h47q149 0 251 -157q35 -67 35 -125v-37q104 137 104 480v29q0 95 -15 331h-4q-7 -4 -15 -4h-8q-116 13 -116 116v24q0 177 100 228h20z
M691 552v-25q0 -58 50 -58h19l20 5q-20 194 -47 194h-3q-39 -36 -39 -116zM138 279q21 26 85 79q0 8 -8 8q-46 0 -77 -87zM1216 501h29q122 0 200 -117q29 -58 29 -114v-29q0 -153 -156 -213q-16 -8 -39 -8h-22q-92 14 -92 50l9 8h13q35 -13 51 -13h10q104 0 160 112
q13 32 13 69q0 139 -132 186q-37 5 -54 5q-157 0 -219 -210q-11 -29 -20 -32h-2q-22 0 -22 32v16q0 78 66 170q85 88 178 88z" />
    <glyph glyph-name="talatikbali.td" unicode="&#x1b1d;&#x1b35;" horiz-adv-x="1047" 
d="M735 449h42q141 0 216 -156q9 -31 9 -53v-45q0 -202 -211 -333q-41 -22 -94 -36q-19 7 -19 14v9q0 8 136 106q118 121 118 249q0 119 -94 156q-38 18 -89 18q-153 0 -193 -227q0 -29 -23 -40h-9q-15 0 -99 116q-36 26 -66 26q-65 -8 -65 -58q14 -55 14 -71l-14 -9h-10
q-42 27 -42 72v22q29 115 122 115q76 0 131 -80q6 0 47 103q80 102 193 102zM200 351q52 0 70 -31v-27q-150 -168 -150 -226v-14q0 -62 103 -62q42 3 42 9q35 133 132 133q80 -7 80 -58q0 -77 -132 -124q-19 0 -19 -9v-9q0 -176 188 -240q54 -16 56 -27v-9q0 -6 -14 -13h-23
q-180 0 -263 191q-9 45 -9 80v23h-80q-131 16 -131 93v18q0 41 28 98q-29 0 -33 35v22q15 147 155 147zM92 173h5q0 21 79 107v4h-14q-52 0 -70 -102v-9zM322 -5h4q74 0 99 72v8q0 9 -28 14q-75 -24 -75 -94z" />
    <glyph glyph-name="tamurdamahapranabali.td" unicode="&#x1b1e;&#x1b35;" horiz-adv-x="996" 
d="M153 343h36q48 0 48 -40v-5q0 -16 -92 -143q-36 -60 -36 -112q0 -58 76 -58h40q7 0 24 67q44 72 88 72h16q56 0 56 -45v-18q0 -93 -148 -130q-31 -4 -68 -4h-28q-98 0 -116 94v22q0 36 24 99h-4q-24 0 -24 35v23q19 143 108 143zM85 173v-4h4q8 28 68 107v4
q-60 0 -72 -107zM281 -10v-5q88 19 88 76v5q0 6 -12 13h-8q-54 0 -68 -89zM701 449h40q131 0 201 -145q9 -29 9 -50v-41q0 -189 -197 -311q-38 -21 -88 -34q-17 7 -17 13v8q0 8 127 100q109 112 109 232q0 111 -87 145q-36 17 -83 17q-142 0 -180 -212q0 -27 -22 -37h-8
q-14 0 -92 108q-34 25 -62 25q-61 -8 -61 -54q13 -53 13 -67l-13 -8h-9q-39 25 -39 66v21q27 108 114 108q71 0 122 -75q6 0 44 96q74 95 179 95z" />
    <glyph glyph-name="damurdaalpapranabali.td" unicode="&#x1b1f;&#x1b35;" horiz-adv-x="1148" 
d="M833 498h42q163 0 224 -176q4 -28 4 -45v-45q0 -133 -145 -226q-42 -16 -71 -16h-62q-22 0 -25 12q0 13 141 70q100 57 100 192q0 146 -174 164q-146 0 -146 -127v-32q0 -220 -83 -254q-37 -13 -62 -13h-37q-154 0 -154 152q0 78 -16 78h-13q-6 0 -12 -13v-41
q0 -115 -46 -139q-43 -16 -66 -16q-121 0 -121 135q1 68 54 184h-4q-58 -39 -58 -114q4 -52 4 -58q-10 -8 -16 -8q-46 18 -46 66v12q0 127 133 176h33q25 0 37 -29l-66 -135q-13 -71 -13 -86q0 -74 59 -74h8q62 0 62 168q18 50 62 50h13q62 0 62 -119q0 -127 108 -127
q112 0 112 172q0 188 79 229q50 33 99 33z" />
    <glyph glyph-name="narambatbali.td" unicode="&#x1b21;&#x1b35;" horiz-adv-x="1219" 
d="M897 492h29q180 0 240 -161q8 -18 8 -52v-39q0 -149 -178 -228q-31 -8 -58 -8h-53q-22 0 -25 12v4q20 19 149 63q99 64 99 169v24q0 132 -182 149q-128 0 -149 -90q-4 -27 -4 -44q0 -31 4 -75q0 -153 -136 -208q-34 -8 -42 -8h-37q-23 0 -33 20v15q0 11 74 130
q21 67 21 99v39q0 100 -99 118h-4q-79 0 -79 -126q-22 -35 -45 -35q-21 1 -91 82q-30 20 -58 20h-4q-63 0 -71 -59q0 -45 62 -79l4 -19q-19 -36 -66 -36h-8q-120 15 -120 91v23q15 67 62 67h4l13 -8q31 79 111 79h4q72 0 145 -79h4v12q18 122 128 122h9q106 0 149 -118
q12 -34 12 -79v-7q0 -96 -66 -205h4q91 30 91 205v55q0 147 182 165zM99 279v-3q0 -52 45 -52q-29 37 -29 79v4l4 20q-20 -17 -20 -48z" />
    <glyph glyph-name="tabali.td" unicode="&#x1b22;&#x1b35;" horiz-adv-x="1117" 
d="M806 476h40q142 0 210 -135q16 -33 16 -67v-44q0 -149 -174 -226l-40 -4h-64q-20 0 -23 12q11 22 127 55q111 61 111 175v24q0 119 -155 143h-28q-106 0 -143 -88l-4 -35q8 -102 8 -139q-11 -115 -87 -115q0 -8 -67 -8h-20q51 155 51 222q0 107 -75 139q-15 4 -32 4h-12
q-60 0 -99 -52v-4q24 17 60 20q107 -25 107 -147v-16q0 -117 -143 -174q-48 -8 -75 -8h-16q-152 0 -186 127q-4 5 -4 28v16q0 48 39 142h-12q-31 -16 -31 -99v-4q0 -8 -8 -8h-4q-28 17 -28 52v24q21 99 91 99h16q39 0 44 -48q-48 -126 -48 -147v-27q0 -86 119 -100h24
q119 0 151 64q19 43 19 75v20q-16 76 -55 76q-63 0 -95 -84v-4h-8q-20 36 -20 72q0 95 103 146q37 12 67 12h12q138 0 155 -190v-12q0 -60 -40 -155h4q44 22 44 84v23q0 4 4 4l-4 8v107q0 144 178 167z" />
    <glyph glyph-name="tatawabali.td" unicode="&#x1b23;&#x1b35;" horiz-adv-x="1117" 
d="M373 199h3q49 0 113 -95q23 -62 23 -107v-70q0 -14 -9 -17h-3q-9 3 -31 124q-36 87 -90 87q-43 -9 -46 -9l-3 6v12q13 69 43 69zM800 496h46q173 0 226 -191v-70q0 -116 -122 -205q-50 -30 -96 -30h-71q-6 0 -13 13v4q7 9 164 74q75 73 75 170v9q0 107 -113 148
q-19 8 -55 8h-8q-118 0 -151 -91q-24 -63 -33 -126l-9 -5h-4q-14 0 -33 140q-34 78 -109 78q-82 0 -118 -61h4q20 18 59 18h8q114 -29 114 -170q0 -123 -135 -187q-40 -18 -113 -22q-158 0 -209 117q-13 30 -13 66q0 54 46 165h-4q-40 0 -50 -126h-4q-34 19 -34 61v26
q23 109 105 109q58 -7 58 -48v-5q0 -11 -50 -147q0 -31 -4 -31q0 -83 88 -117q29 -5 46 -5h59q121 0 151 113q8 42 8 48q0 72 -63 92h-8q-65 0 -97 -87v-5h-12q-17 38 -21 74q0 114 130 170q48 9 71 9q81 0 134 -79q73 96 160 96z" />
    <glyph glyph-name="dabali.td" unicode="&#x1b24;&#x1b35;" horiz-adv-x="1208" 
d="M493 472h31q125 0 207 -124q59 124 198 124q145 0 222 -143q12 -34 12 -62v-40q0 -119 -132 -198q-55 -25 -106 -25q-62 3 -62 14q14 19 152 66q86 66 86 157v15q0 106 -125 143q-33 3 -51 3q-101 0 -144 -73q-45 -150 -70 -150h-4q-13 4 -35 128q-55 106 -148 106h-27
q-144 0 -144 -190q8 -82 8 -91l-4 -19q97 96 175 96q113 -22 113 -96v-7q-12 -99 -94 -99h-7q-113 24 -113 81q-90 -88 -164 -88h-35q-91 0 -109 113l23 235q-4 22 -11 22q-32 -19 -32 -81v-7q0 -34 16 -147l-16 -11q-50 0 -58 132v51q0 106 78 128h19q64 0 71 -80
q0 -59 -20 -234q0 -62 62 -62q44 0 94 47l-20 -4h-4q-38 21 -38 110v33q0 171 136 216q41 11 70 11zM454 106q19 0 70 -44q13 0 20 -3q33 0 35 40v3q0 41 -51 41q-74 -19 -74 -37z" />
    <glyph glyph-name="damadubali.td" unicode="&#x1b25;&#x1b35;" horiz-adv-x="1148" 
d="M550 508h7q97 0 164 -126v-4h7q53 120 163 120h7q134 0 198 -157q7 -34 7 -61v-31q0 -154 -150 -229q-32 -6 -51 -6h-31q-26 0 -31 13q0 10 126 65q82 63 82 164v27q0 106 -119 143h-38q-118 0 -143 -140q-16 -78 -27 -78h-4q-11 0 -17 75q-48 143 -95 143q0 -10 34 -95
q20 -59 20 -116v-41q0 -110 -95 -167q-32 -7 -51 -7h-14q-99 0 -133 61q-13 28 -21 157q-8 10 -20 10q-5 0 -10 -10v-51q0 -106 -41 -129q-30 -18 -62 -18q-106 0 -106 140q0 71 48 181h-7q-47 -39 -47 -106q-4 0 -4 -13q4 -27 4 -55q-9 -7 -14 -7q-41 17 -41 72v10
q10 132 113 171q18 3 30 3q27 0 38 -21v-13q-52 -109 -65 -167q-3 -43 -3 -51q0 -75 58 -75q54 0 54 102v54q0 62 69 62q54 0 54 -89q0 -106 48 -143q34 -14 61 -14q85 0 99 120v13q0 125 -99 263v10q9 41 48 41z" />
    <glyph glyph-name="nabali.td" unicode="&#x1b26;&#x1b35;" horiz-adv-x="1111" 
d="M815 446h30q148 0 217 -150q4 -27 4 -43v-40q0 -128 -160 -197q-16 -8 -78 -12q-52 3 -52 12v8q12 13 121 47q108 52 108 170q0 122 -164 142q-137 0 -164 -119q-23 -82 -35 -82q-38 0 -48 94q-48 111 -173 111h-4q-99 0 -147 -63q112 0 199 -103q35 -68 35 -122
q-12 -99 -44 -99h-21q-74 0 -74 162q-34 110 -117 110q-61 0 -73 -86q0 -56 73 -135v-12q-7 -15 -30 -15h-13q-114 0 -160 114v28q0 52 91 162v15l-9 4h-8q-11 0 -44 -75l-8 -4h-9q-13 4 -13 24v24q10 94 87 94h8q69 0 69 -59q89 91 204 91h17q142 0 203 -118
q78 122 182 122zM132 237q-26 -46 -26 -67v-24q0 -25 34 -47h5q-18 60 -18 79v4q0 15 9 51v4h-4zM382 237v-4q32 -37 48 -166l9 -4q8 13 8 24v12q0 86 -65 138z" />
    <glyph glyph-name="pabali.td" unicode="&#x1b27;&#x1b35;" horiz-adv-x="1071" 
d="M746 488h41q162 0 231 -159q8 -30 8 -55v-44q0 -119 -144 -210q-52 -20 -83 -20h-66q-21 0 -24 12q0 17 127 55q124 62 124 179v24q0 99 -119 143q-30 8 -62 8q-149 -12 -149 -84q-4 -27 -4 -43q8 -57 8 -80v-31q0 -115 -148 -163q-69 -5 -74 -8q-195 0 -260 127
q-8 32 -8 51q0 42 41 143v4h-4q-66 -51 -66 -139q0 -14 8 -75l-8 -4h-8q-62 48 -62 115q0 127 161 179h37q22 0 33 -20v-12q0 -12 -54 -143q-4 -48 -8 -48q0 -85 115 -115q39 -8 62 -8h25q100 0 140 76q8 7 17 75q-13 60 -13 95v12q0 115 144 159q22 4 42 4z" />
    <glyph glyph-name="bakembangbali.td" unicode="&#x1b2a;&#x1b35;" horiz-adv-x="1111" 
d="M433 474h38q120 0 184 -123h8q57 95 177 95q147 0 218 -144q8 -33 8 -53v-38q0 -108 -121 -186q-48 -25 -86 -25h-68q-5 0 -11 11v3q0 11 128 53q98 58 98 158v21q0 90 -117 130q-26 3 -42 3q-139 0 -165 -109q-19 -56 -30 -63h-15q-14 0 -31 105q-56 106 -132 106h-30
q-135 0 -135 -186q7 -59 7 -92q-4 -6 -4 -10q91 91 162 91q106 -17 106 -98v-4q-13 -91 -90 -91q-110 20 -110 77q-84 -87 -162 -87q-117 0 -135 129v11q15 91 64 91h11q8 -1 15 -17q-26 -51 -26 -67v-25q16 -63 68 -63q41 0 86 42q-56 0 -56 99v21q0 157 90 207
q55 28 98 28zM147 414q37 0 68 -63q15 -26 15 -56v-39q-6 -38 -19 -38h-8q-12 0 -30 87q-19 36 -41 36h-8q-10 0 -68 -32h-3q-8 0 -8 7v11q0 40 83 87h19zM403 123q16 0 68 -42l19 -4q22 0 26 28v18q0 33 -49 35q-51 -14 -64 -35z" />
    <glyph glyph-name="mabali.td" unicode="&#x1b2b;&#x1b35;" horiz-adv-x="1049" 
d="M739 495h42q169 0 223 -189v-69q0 -124 -124 -209q-46 -28 -91 -28h-66q-6 0 -12 12v4q1 12 132 60q99 60 99 190v8q0 108 -124 149q-28 4 -45 4q-145 0 -145 -125q8 -72 8 -117q0 -116 -140 -177q-42 -8 -75 -8h-12q-176 0 -228 109q-4 21 -4 36v16q0 21 46 80
q-62 19 -62 57v4q0 10 8 36q-74 -57 -74 -153q0 -39 49 -141q0 -8 -8 -8h-8q-83 31 -83 153v4q0 230 240 230h29q128 -8 128 -49q-8 -18 -17 -20h-8q-79 12 -107 12q-53 0 -75 -28v-20q0 -30 153 -36l8 -12v-16q0 -19 -128 -57q-25 -21 -25 -48v-8q0 -66 166 -85h25
q98 0 132 89q8 32 8 48q-4 137 -4 153q0 83 112 137q27 12 57 12z" />
    <glyph glyph-name="yabali.td" unicode="&#x1b2c;&#x1b35;" horiz-adv-x="1052" 
d="M739 466h30q141 0 223 -144q15 -49 15 -81v-31q0 -130 -143 -204q-27 -6 -46 -6h-26q-132 18 -132 69q0 8 15 9q97 -22 121 -22h18q129 29 129 157q3 0 3 12q0 126 -109 169q-48 19 -87 19q-83 0 -120 -56q-12 -55 -12 -97q0 -29 4 -125q-15 -129 -94 -129q0 -3 -19 -3
q-94 0 -136 69q-19 29 -19 47h-7q-44 -113 -136 -113h-4q-101 0 -132 66q-7 12 -7 34v19q0 15 11 53q-34 0 -34 41v44q13 113 91 113h11q55 0 64 -41v-3q0 -23 -64 -150q-8 -25 -8 -54q6 -53 61 -53q117 25 117 172q0 100 26 100h8q41 0 41 -112q0 -140 53 -150
q15 -13 41 -13h15q51 0 61 81q0 23 -4 157q0 103 102 144q51 12 79 12zM86 207v-3h4q49 110 49 120v7h-4q-23 0 -49 -124z" />
    <glyph glyph-name="rabali.td" unicode="&#x1b2d;&#x1b35;" horiz-adv-x="1011" 
d="M711 478h42q162 0 213 -185v-68q0 -122 -132 -205q-39 -20 -73 -20h-66q-5 0 -11 12v4q9 13 147 68q77 68 77 173t-105 145q-15 8 -42 8h-27q-104 0 -136 -89q-27 -143 -38 -148q-17 18 -47 152q-36 85 -124 85h-19q-104 0 -104 -81v-12q27 -136 27 -152v-12
q0 -107 -120 -121h-16q-76 0 -112 48v12q0 6 12 12h3l66 -16q48 0 66 89q-10 92 -54 92q-27 0 -31 -36q8 -36 8 -68q0 -11 -20 -20q-38 15 -38 80q12 100 81 100q72 0 93 -136v-12q0 -52 -39 -97h8q42 23 42 89q0 36 -46 160v12q24 125 174 125h23q111 0 163 -88
q65 100 155 100z" />
    <glyph glyph-name="labali.td" unicode="&#x1b2e;&#x1b35;" horiz-adv-x="1143" 
d="M833 492h38q166 0 223 -172q4 -21 4 -40v-44q0 -134 -143 -220q-42 -16 -72 -16h-67q-6 0 -13 12v4q23 21 135 60q97 65 97 172v28q0 129 -169 148q-143 0 -143 -112q13 -114 13 -152q0 -127 -118 -160h-38q-113 0 -160 92q-17 43 -17 84l25 164q-7 44 -59 44h-12
q-82 0 -114 -128v-16q0 -47 42 -204v-12q-7 -16 -29 -16h-17q-124 0 -156 140v20q0 68 72 192v12q-50 0 -72 -140q-11 -8 -13 -8h-8q-14 0 -17 52v8q0 122 126 152h9q25 0 42 -24v-16q0 -15 -72 -172q-8 -38 -8 -56q0 -76 71 -100l9 4q-30 103 -30 148v24q25 196 190 196
q109 -10 109 -84v-4l-25 -184v-20q0 -69 101 -88q110 0 110 108l-17 156q31 168 173 168z" />
    <glyph glyph-name="wabali.td" unicode="&#x1b2f;&#x1b35;" horiz-adv-x="1117" 
d="M800 496h46q173 0 226 -191v-70q0 -116 -122 -205q-50 -30 -96 -30h-71q-6 0 -13 13v4q7 9 164 74q75 73 75 170v9q0 107 -113 148q-19 8 -55 8h-8q-118 0 -151 -91q-24 -63 -33 -126l-9 -5h-4q-14 0 -33 140q-34 78 -109 78q-82 0 -118 -61h4q20 18 59 18h8
q114 -29 114 -170q0 -123 -135 -187q-40 -18 -113 -22q-158 0 -209 117q-13 30 -13 66q0 54 46 165h-4q-40 0 -50 -126h-4q-34 19 -34 61v26q23 109 105 109q58 -7 58 -48v-5q0 -11 -50 -147q0 -31 -4 -31q0 -83 88 -117q29 -5 46 -5h59q121 0 151 113q8 42 8 48
q0 72 -63 92h-8q-65 0 -97 -87v-5h-12q-17 38 -21 74q0 114 130 170q48 9 71 9q81 0 134 -79q73 96 160 96z" />
    <glyph glyph-name="sasagabali.td" unicode="&#x1b30;&#x1b35;" horiz-adv-x="1117" 
d="M411 468q162 0 217 -123q13 -60 13 -94q0 -68 -29 -162h8q45 23 45 94q-8 73 -8 115q0 121 144 170h61q143 0 202 -149q8 -29 8 -51v-47q0 -138 -152 -212q-28 -9 -49 -9h-66q-8 0 -8 9v8q33 20 144 68q73 64 73 166q0 107 -115 149h-61q-128 -13 -128 -119v-4
q0 -48 9 -103q0 -108 -95 -148q-27 -9 -78 -13q-16 6 -16 13v8l49 157q4 5 4 34v13q0 100 -53 136q-54 26 -91 26h-45q-135 0 -148 -157q0 -66 66 -183v-9q0 -11 -33 -17h-29q-139 0 -139 128v8q0 37 24 158q-37 -19 -37 -64v-9q9 -103 9 -115q0 -22 -13 -25q-30 0 -49 119
v30q0 102 103 127h16q33 0 33 -38q-29 -131 -29 -153v-17q6 -89 58 -89q-37 65 -37 123v21q0 156 123 213q45 17 99 17zM362 331h3q49 0 113 -95q23 -62 23 -107v-70q0 -14 -9 -17h-3q-9 3 -31 124q-36 87 -90 87q-43 -9 -46 -9l-3 6v12q13 69 43 69z" />
    <glyph glyph-name="sasapabali.td" unicode="&#x1b31;&#x1b35;" horiz-adv-x="1071" 
d="M746 488h41q162 0 231 -164q8 -31 8 -57v-45q0 -123 -144 -218q-52 -20 -83 -20h-66q-21 0 -24 12q0 18 127 58q124 63 124 184v25q0 103 -119 147q-30 8 -62 8q-149 -12 -149 -86q-4 -28 -4 -45q8 -58 8 -82v-33q0 -118 -148 -168q-69 -5 -74 -8q-195 0 -260 131
q-8 33 -8 54q0 43 41 147v4h-4q-66 -53 -66 -143q0 -15 8 -78l-8 -4h-8q-62 50 -62 119q0 131 161 184h37q22 0 33 -20v-13q0 -12 -54 -147q-4 -49 -8 -49q0 -88 115 -119q39 -8 62 -8h25q100 0 140 78q8 7 17 77q-13 62 -13 99v12q0 118 144 164q22 4 42 4zM436 204h3
q49 0 113 -95q23 -62 23 -107v-70q0 -14 -9 -17h-3q-9 3 -31 124q-36 87 -90 87q-43 -9 -46 -9l-3 6v12q13 69 43 69z" />
    <glyph glyph-name="sabali.td" unicode="&#x1b32;&#x1b35;" horiz-adv-x="1025" 
d="M716 478h37q165 0 223 -168q4 -21 4 -40v-45q0 -117 -136 -205q-42 -20 -78 -20h-62q-21 0 -25 12q0 16 128 57q111 59 111 184q0 117 -127 156q-9 0 -46 4q-115 0 -152 -90l-4 -29q8 -101 8 -147q0 -97 -87 -143l-28 -4h-13q-119 0 -193 131q-40 49 -66 49h-4
q-52 0 -66 -53v-21q0 -9 16 -65q-8 -25 -33 -25q-74 22 -74 94q0 82 136 168q33 35 33 65v8q-12 21 -33 21q-67 0 -111 -147l-13 -8q-6 0 -16 16v33q0 120 140 163h33q74 -11 74 -69q0 -27 -41 -115q52 -31 119 -127q46 -40 83 -40h24q62 0 62 110l-8 110q0 125 144 176
q22 4 41 4z" />
    <glyph glyph-name="habali.td" unicode="&#x1b33;&#x1b35;" horiz-adv-x="1145" 
d="M866 449h38q131 0 192 -154q4 -27 4 -43v-43q0 -119 -140 -197q-33 -12 -60 -12h-64q-6 0 -13 12v4q34 21 128 55q89 57 89 157v20q0 96 -114 138h-51q-114 0 -128 -126v-75q-10 -173 -81 -173q-51 0 -51 71q0 51 4 134q0 142 -102 165h-34q-61 0 -72 -71v-181
q0 -109 -141 -126q-153 17 -153 126v12l17 189l-4 16h-8q-30 -25 -30 -63q8 -48 8 -71l-8 -4h-13q-19 0 -34 63v35q15 107 77 107h12q60 0 60 -83q0 -34 -13 -166q0 -86 77 -86h21q68 0 68 82v83q0 25 -4 59q19 138 149 138h12q110 0 158 -130q13 -61 13 -102
q-5 -93 -5 -103v-4h5q17 51 17 138q0 4 -5 12q0 136 115 185q21 12 64 12z" />
    <glyph glyph-name="kafsasakbali.td" unicode="&#x1b45;&#x1b35;" horiz-adv-x="1256" 
d="M939 489q196 0 263 -168l4 -40v-45q0 -143 -178 -224q-40 -12 -67 -12h-71l-22 4v12q2 14 147 56q120 62 120 181v12q0 120 -151 152q-5 4 -36 4h-13q-174 -15 -174 -116q-4 -7 -4 -16q13 -104 13 -121q0 -136 -165 -136h-13q-6 0 -13 12q40 80 40 160q0 135 -85 185
q-34 20 -102 28q-100 0 -156 -64v-4q236 -35 236 -213v-28q0 -88 -53 -88h-14q-66 0 -75 164q-26 113 -116 113h-4q-72 -12 -72 -93q0 -53 76 -132v-12q-7 -16 -31 -16h-13q-118 0 -165 116v28q0 54 89 161q4 7 4 16v4q0 8 -13 8q-16 0 -49 -76l-13 -8h-5q-13 4 -13 24v36
q16 84 85 84h26q54 0 54 -64h4q82 100 218 100q150 0 218 -124q27 -63 27 -129q-6 -86 -18 -124h4q40 30 40 72v16q0 66 -9 113q0 153 192 192h53zM107 184v-16q0 -29 40 -48v4q-17 54 -17 76v8q0 16 8 53q-31 -29 -31 -77zM392 261v-4q31 -43 49 -169l9 -4q9 26 9 32
q0 87 -67 145zM338 197q33 -15 33 -20q-59 -62 -59 -136q0 -125 142 -175q30 -9 30 -17v-10q0 -6 -7 -6h-23q-119 0 -189 149l-3 33v30q0 89 76 152z" />
    <glyph glyph-name="khotsasakbali.td" unicode="&#x1b46;&#x1b35;" horiz-adv-x="1697" 
d="M1392 488h30q169 0 226 -168l4 -40v-44q0 -143 -153 -224q-34 -12 -57 -12h-62q-20 0 -23 12q3 16 138 64q96 64 96 176v16q0 131 -161 152h-4q-164 0 -164 -156q4 -35 4 -44q-12 -196 -88 -196q-40 0 -50 72q4 101 4 148q0 168 -138 168h-8q-84 -15 -84 -80
q4 -96 4 -152v-16q0 -130 -146 -148q-140 0 -160 116q0 18 4 88q0 155 -119 188q-27 8 -46 8h-34q-87 0 -138 -64q135 0 210 -120q27 -55 27 -108q0 -96 -57 -96q-81 0 -81 156q-22 76 -53 92q-31 24 -69 24q-69 0 -69 -88q0 -57 77 -132v-4q-7 -24 -46 -24
q-161 27 -161 144v8q0 44 88 148l4 20q0 8 -8 8q-26 0 -57 -80q-14 -4 -16 -4q-11 15 -11 28v28q15 88 80 88h23q58 0 58 -64q90 96 199 96h34q122 0 191 -108q28 -23 31 -220q29 -56 77 -56h19q88 0 88 104v8q0 6 -8 144q0 102 149 128h19q119 0 169 -128q15 -44 15 -104
v-4q0 -40 -4 -120h8q23 75 23 224q47 148 176 148zM102 188q8 -56 42 -56v4l-19 72l12 60q-35 -34 -35 -80zM386 264v-4q29 -38 45 -164h8q8 0 8 8v36q0 72 -61 124z" />
    <glyph glyph-name="tzirsasakbali.td" unicode="&#x1b47;&#x1b35;" horiz-adv-x="1083" 
d="M806 476h40q142 0 210 -135q16 -33 16 -67v-44q0 -149 -174 -226l-40 -4h-64q-20 0 -23 12q11 22 127 55q111 61 111 175v24q0 119 -155 143h-28q-106 0 -143 -88l-4 -35q8 -102 8 -139q-11 -115 -87 -115q0 -8 -67 -8h-20q51 155 51 222q0 107 -75 139q-15 4 -32 4h-12
q-60 0 -99 -52v-4q24 17 60 20q107 -25 107 -147v-16q0 -117 -143 -174q-48 -8 -75 -8h-16q-152 0 -186 127q-4 5 -4 28v16q0 48 39 142h-12q-31 -16 -31 -99v-4q0 -8 -8 -8h-4q-28 17 -28 52v24q21 99 91 99h16q39 0 44 -48q-48 -126 -48 -147v-27q0 -86 119 -100h24
q119 0 151 64q19 43 19 75v20q-16 76 -55 76q-63 0 -95 -84v-4h-8q-20 36 -20 72q0 95 103 146q37 12 67 12h12q138 0 155 -190v-12q0 -60 -40 -155h4q44 22 44 84v23q0 4 4 4l-4 8v107q0 144 178 167zM317 216q33 -15 33 -20q-59 -62 -59 -136q0 -125 142 -175
q30 -9 30 -17v-10q0 -6 -7 -6h-23q-119 0 -189 149l-3 33v30q0 89 76 152z" />
    <glyph glyph-name="efsasakbali.td" unicode="&#x1b48;&#x1b35;" horiz-adv-x="912" 
d="M746 488h41q162 0 231 -159q8 -30 8 -55v-44q0 -119 -144 -210q-52 -20 -83 -20h-66q-21 0 -24 12q0 17 127 55q124 62 124 179v24q0 99 -119 143q-30 8 -62 8q-149 -12 -149 -84q-4 -27 -4 -43q8 -57 8 -80v-31q0 -115 -148 -163q-69 -5 -74 -8q-195 0 -260 127
q-8 32 -8 51q0 42 41 143v4h-4q-66 -51 -66 -139q0 -14 8 -75l-8 -4h-8q-62 48 -62 115q0 127 161 179h37q22 0 33 -20v-12q0 -12 -54 -143q-4 -48 -8 -48q0 -85 115 -115q39 -8 62 -8h25q100 0 140 76q8 7 17 75q-13 60 -13 95v12q0 115 144 159q22 4 42 4zM746 488h41
q162 0 231 -159q8 -30 8 -55v-44q0 -119 -144 -210q-52 -20 -83 -20h-66q-21 0 -24 12q0 17 127 55q124 62 124 179v24q0 99 -119 143q-30 8 -62 8q-149 -12 -149 -84q-4 -27 -4 -43q8 -57 8 -80v-31q0 -115 -148 -163q-69 -5 -74 -8q-195 0 -260 127q-8 32 -8 51
q0 42 41 143v4h-4q-66 -51 -66 -139q0 -14 8 -75l-8 -4h-8q-62 48 -62 115q0 127 161 179h37q22 0 33 -20v-12q0 -12 -54 -143q-4 -48 -8 -48q0 -85 115 -115q39 -8 62 -8h25q100 0 140 76q8 7 17 75q-13 60 -13 95v12q0 115 144 159q22 4 42 4zM390 212q33 -15 33 -20
q-59 -62 -59 -136q0 -125 142 -175q30 -9 30 -17v-10q0 -6 -7 -6h-23q-119 0 -189 149l-3 33v30q0 89 76 152z" />
    <glyph glyph-name="vesasakbali.td" unicode="&#x1b49;&#x1b35;" horiz-adv-x="965" 
d="M800 496h46q173 0 226 -191v-70q0 -116 -122 -205q-50 -30 -96 -30h-71q-6 0 -13 13v4q7 9 164 74q75 73 75 170v9q0 107 -113 148q-19 8 -55 8h-8q-118 0 -151 -91q-24 -63 -33 -126l-9 -5h-4q-14 0 -33 140q-34 78 -109 78q-82 0 -118 -61h4q20 18 59 18h8
q114 -29 114 -170q0 -123 -135 -187q-40 -18 -113 -22q-158 0 -209 117q-13 30 -13 66q0 54 46 165h-4q-40 0 -50 -126h-4q-34 19 -34 61v26q23 109 105 109q58 -7 58 -48v-5q0 -11 -50 -147q0 -31 -4 -31q0 -83 88 -117q29 -5 46 -5h59q121 0 151 113q8 42 8 48
q0 72 -63 92h-8q-65 0 -97 -87v-5h-12q-17 38 -21 74q0 114 130 170q48 9 71 9q81 0 134 -79q73 96 160 96zM380 202q33 -15 33 -20q-59 -62 -59 -136q0 -125 142 -175q30 -9 30 -17v-10q0 -6 -7 -6h-23q-119 0 -189 149l-3 33v30q0 89 76 152z" />
    <glyph glyph-name="zalsasakbali.td" unicode="&#x1b4a;&#x1b35;" horiz-adv-x="985" 
d="M716 478h37q165 0 223 -168q4 -21 4 -40v-45q0 -117 -136 -205q-42 -20 -78 -20h-62q-21 0 -25 12q0 16 128 57q111 59 111 184q0 117 -127 156q-9 0 -46 4q-115 0 -152 -90l-4 -29q8 -101 8 -147q0 -97 -87 -143l-28 -4h-13q-119 0 -193 131q-40 49 -66 49h-4
q-52 0 -66 -53v-21q0 -9 16 -65q-8 -25 -33 -25q-74 22 -74 94q0 82 136 168q33 35 33 65v8q-12 21 -33 21q-67 0 -111 -147l-13 -8q-6 0 -16 16v33q0 120 140 163h33q74 -11 74 -69q0 -27 -41 -115q52 -31 119 -127q46 -40 83 -40h24q62 0 62 110l-8 110q0 125 144 176
q22 4 41 4zM432 230q33 -15 33 -20q-59 -62 -59 -136q0 -125 142 -175q30 -9 30 -17v-10q0 -6 -7 -6h-23q-119 0 -189 149l-3 33v30q0 89 76 152z" />
    <glyph glyph-name="asyurasasakbali.td" unicode="&#x1b4b;&#x1b35;" horiz-adv-x="1475" 
d="M972 433q93 0 130 -113v-4q59 91 133 91h16q120 0 172 -139q7 -25 7 -46v-32q0 -137 -130 -201q-28 -10 -55 -10q-46 2 -46 13v3q5 9 117 59q65 58 65 142v16q0 96 -97 130l-33 3q-101 0 -126 -97q-15 -81 -33 -97q-11 0 -22 117q-24 97 -75 97v-3q52 -114 52 -211
q0 -111 -97 -166q-23 -6 -39 -6h-7q-111 0 -165 114q-5 -5 -32 -62q-32 -33 -69 -33q-100 18 -100 98q13 102 13 139v13q0 78 -42 88h-4q0 -4 -3 -4q23 -114 23 -171q0 -109 -81 -143q-12 0 -29 -3q-104 0 -185 133q-23 22 -39 22h-16q-49 -12 -49 -45v-10q0 -14 13 -65v-3
q-8 -16 -26 -16q-48 0 -65 81q0 71 107 133q42 42 42 68q0 12 -19 23h-19q-51 0 -88 -124l-10 -6h-6q-10 3 -10 19v20q0 99 114 139q17 4 32 4q65 -13 65 -52v-20q0 -26 -36 -87q46 -22 107 -114q45 -32 68 -32h26q52 0 52 94q0 48 -26 175q11 42 42 42h13q79 0 98 -136v-3
q-7 -103 -7 -137v-9q0 -46 42 -46h3q39 0 52 81q0 146 26 146h7q24 0 52 -149q47 -107 116 -107h13q74 0 88 117v3q0 96 -75 227v23q12 29 55 29z" />
    <glyph glyph-name="kamahapranabali.re" unicode="&#x1b14;&#x1b3a;" horiz-adv-x="1001" 
d="M402 488h38q115 0 185 -118q30 -65 30 -126q0 -36 -8 -161l30 -5q19 0 99 66q15 9 34 9q94 0 146 -118q0 -9 -9 -9h-4q-73 70 -116 70q-32 0 -116 -79q-40 -13 -60 -13q-60 0 -60 48q4 141 4 192q0 140 -129 179q-17 4 -34 4h-30q-87 0 -134 -70q122 0 202 -122
q31 -73 31 -122q-12 -113 -43 -113h-22q-73 0 -73 179q-30 122 -120 122q-54 0 -69 -92q0 -67 73 -152v-13q-7 -18 -30 -18h-13q-113 0 -159 127v30q0 62 86 170l4 22v8q-8 0 -8 5q-21 -1 -52 -83l-13 -9h-4q-13 5 -13 26v40q20 91 77 91h22q64 -9 64 -56q-4 -9 -4 -14
q87 105 198 105zM131 261q-26 -50 -26 -74v-26q0 -32 39 -52v4q-17 59 -17 83q0 28 8 61v4h-4zM384 257v-9q26 -34 43 -174l9 -4q9 14 9 26v13q0 93 -61 148zM787 15h7q36 0 77 -196v-67q0 -168 -130 -296q-144 -100 -287 -100h-42q-255 0 -379 174q-38 81 -38 144v45
q0 168 164 281h8q8 -1 8 -7v-4q-130 -136 -130 -289q0 -197 210 -266q93 -26 184 -26q151 0 275 92q111 113 111 278q0 82 -50 226v4zM666 -335q61 -20 103 -88q32 -66 32 -167q0 -49 -12 -49h-3q-6 3 -31 131q-36 91 -86 91l-46 -9q-6 0 -6 6v12q0 37 35 73h14z" />
    <glyph glyph-name="nyabali.re" unicode="&#x1b1c;&#x1b3a;" horiz-adv-x="1106" 
d="M821 459h25q121 0 192 -111q23 -44 23 -93v-27q0 -126 -123 -204q-44 -24 -80 -24h-52q-14 0 -20 11v5q0 32 90 40q130 43 130 183q0 109 -95 148q-37 14 -70 14h-18q-109 0 -138 -91l-2 -26q10 -123 10 -141q0 -111 -163 -132q-21 -3 -35 -3q-8 0 -17 19q0 11 55 82
q42 76 42 130v21q0 79 -85 106q-19 5 -35 5h-12q-3 0 -3 3l-5 -3h-7q-68 0 -98 -63q-5 -12 -5 -35q0 -36 45 -101v-13q0 -6 -12 -8q-81 40 -93 40h-5q-20 0 -20 -21v-11q9 -19 80 -56q25 -14 25 -34q-24 -53 -95 -53q-134 0 -165 98q-2 15 -2 29l-13 -8q-25 14 -25 43v26
q0 89 93 114h25q57 0 57 -42q0 -19 -75 -106q-10 -25 -10 -35v-5q0 -61 105 -61q8 0 35 5v6q-85 43 -85 92q14 61 60 61l23 -2q-7 24 -10 56q0 92 110 132q39 11 80 13q128 0 172 -132q3 -18 3 -29v-24q0 -93 -68 -181v-2q85 25 85 87q3 0 3 19v10q-8 82 -8 99v8
q0 119 108 159q40 13 73 13zM90 178v-3h3q0 18 65 82v6q-6 0 -10 2q-43 0 -55 -69zM839 -6h8q38 0 80 -191v-65q0 -165 -136 -289q-151 -98 -300 -98h-44q-267 0 -396 170q-40 79 -40 141v43q0 164 172 275h8q8 -2 8 -8v-3q-136 -133 -136 -282q0 -192 220 -260
q97 -25 192 -25q158 0 288 90q116 110 116 271q0 80 -52 220v4zM721 -334q65 -21 110 -93q34 -70 34 -177q0 -52 -12 -52h-3q-8 3 -34 139q-38 96 -92 96l-49 -10q-6 0 -6 7v13q0 39 37 77h15z" />
    <glyph glyph-name="khotsasakbali.re" unicode="&#x1b46;&#x1b3a;" horiz-adv-x="1434" 
d="M417 452h44q224 -27 224 -220v-68q0 -96 96 -96h8q92 0 92 112q-8 103 -8 140v8q0 95 148 124h36q120 0 172 -144q12 -52 12 -96q-4 -88 -4 -116q20 5 24 108v24q0 71 -60 180v16q0 19 36 24q89 0 140 -120q12 -42 12 -84v-40q0 -136 -64 -196h-8q-9 0 -12 20
q28 140 28 200q0 68 -48 140h-4v-8q36 -77 36 -132v-40q-17 -184 -84 -184q-49 0 -56 72q0 33 4 144q0 126 -88 164q-28 8 -48 8h-20q-84 -15 -84 -80q4 -128 4 -168q0 -107 -116 -144h-56q-148 16 -148 112v124q0 110 -116 152q-29 8 -72 12q-105 0 -160 -68
q186 0 244 -184q0 -17 4 -44q0 -96 -64 -96q-80 0 -80 152q-35 120 -116 120h-20q-55 0 -64 -84v-4q0 -57 76 -128v-12q0 -12 -40 -20q-115 0 -164 104q-8 15 -8 32v16q0 45 92 148l4 20q0 8 -8 8q-29 0 -52 -68l-20 -16q-16 7 -16 28v20q10 96 80 96h28q60 0 60 -64h4
q81 96 200 96zM105 164q12 -52 44 -52v4l-20 72l12 60q-36 -31 -36 -84zM401 244v-4q31 -43 48 -164h4q6 0 12 12v28q0 70 -60 128h-4zM1203 -6h12q54 0 115 -191v-65q0 -165 -196 -289q-217 -98 -432 -98h-63q-385 0 -570 170q-58 79 -58 141v43q0 164 248 275h11
q12 -2 12 -8v-3q-196 -133 -196 -282q0 -192 317 -260q139 -25 276 -25q227 0 415 90q167 110 167 271q0 80 -75 220v4zM1074 -323q65 -21 110 -93q34 -70 34 -177q0 -52 -12 -52h-3q-8 3 -34 139q-38 96 -92 96l-49 -10q-6 0 -6 7v13q0 39 37 77h15z" />
    <glyph glyph-name="asyurasasakbali.re" unicode="&#x1b4b;&#x1b3a;" horiz-adv-x="1265" 
d="M1048 491q135 0 172 -217v-32q0 -182 -67 -231h-3l-7 10q17 112 17 182v21q-12 193 -87 193v-10q56 -101 56 -225q-11 -143 -120 -178q-13 -4 -28 -4h-7q-119 0 -178 123l-36 -63q-28 -39 -73 -39q-109 19 -109 105q14 108 14 144v21q0 95 -49 95q0 -4 -3 -4
q24 -118 24 -189q0 -114 -84 -147q-6 -4 -35 -7q-112 0 -200 143q-25 25 -42 25h-18q-52 -14 -52 -49v-11q0 -21 14 -63v-10q-9 -18 -28 -18q-53 0 -70 88q0 77 115 144q46 44 46 77q-3 12 -21 21h-14q-65 0 -102 -133l-10 -7h-7q-11 3 -11 21v21q0 107 123 150q18 4 35 4
q70 -14 70 -56v-21q0 -30 -39 -95q24 0 123 -126q42 -32 63 -32h28q60 0 60 91v21q0 47 -28 172q8 53 45 53h15q85 0 105 -147v-4q-7 -117 -7 -140v-18q0 -49 45 -49h4q42 0 56 88q0 158 28 158h7q28 0 53 -151q46 -126 140 -126h3q77 0 95 119v14q0 101 -81 242v14
q0 42 60 42zM1081 -6h10q45 0 97 -191v-65q0 -165 -165 -289q-183 -98 -365 -98h-54q-325 0 -481 170q-49 79 -49 141v43q0 164 209 275h10q10 -2 10 -8v-3q-166 -133 -166 -282q0 -192 268 -260q118 -25 233 -25q192 0 351 90q141 110 141 271q0 80 -64 220v4zM979 -360
q65 -21 110 -93q34 -70 34 -177q0 -52 -12 -52h-3q-8 3 -34 139q-38 96 -92 96l-49 -10q-6 0 -6 7v13q0 39 37 77h15z" />
    <glyph glyph-name=".notdef" horiz-adv-x="600" 
d="M94 0v714h411v-714h-411zM145 663v-612h309v612h-309z" />
    <glyph glyph-name=".null" 
 />
    <glyph glyph-name=".null" 
 />
    <glyph glyph-name="nonmarkingreturn" horiz-adv-x="260" 
 />
    <glyph glyph-name="space" unicode=" " horiz-adv-x="260" 
 />
    <glyph glyph-name="nonbreakingspace" unicode="&#xa0;" horiz-adv-x="260" 
 />
    <glyph glyph-name="signuluricemcombbali" unicode="&#x1b00;" 
d="M-281 978h4q185 -1 234 -110q18 -46 18 -98q0 -143 -155 -237v1q4 17 47 80q52 84 52 174q0 73 -65 118q-46 24 -119 24h-6q-111 0 -178 -87q-31 -42 -31 -90v-5q0 -94 78 -160q26 -25 31 -35h-1h-10q-34 0 -97 66q-45 56 -45 147q0 108 98 176q57 36 145 36zM-283 856
h11q96 0 125 -67q9 -23 9 -49v-7q0 -78 -91 -137v1q0 7 38 72q18 40 18 77q0 48 -48 71q-25 6 -49 6h-12q-45 0 -80 -42q-19 -25 -19 -54v-3q0 -55 50 -97l10 -15h-2h-3q-20 0 -42 20q-43 36 -43 97v6q0 61 54 101q33 20 74 20z" />
    <glyph glyph-name="signulucandracombbali" unicode="&#x1b01;" 
d="M-305 1075h8v-3q8 -48 8 -62q0 -54 -8 -116q34 -140 34 -154h-4q-40 24 -79 24h-22v3q18 19 18 41v41q0 12 45 226zM-111 852q62 -57 62 -164q0 -128 -142 -176q-77 -28 -173 -28q-196 0 -244 112l-9 44q0 110 186 192h5v-12q-107 -115 -107 -168q0 -79 138 -100
q4 -4 35 -4h31q155 0 209 88q18 41 18 84q0 41 -18 128zM-342 740h9q129 -10 129 -88v-4q0 -62 -133 -72h-5q-102 15 -102 84q0 56 102 80zM-377 652q14 -32 44 -32h18q40 8 40 20v20q-14 28 -67 28q-25 0 -35 -36z" />
    <glyph glyph-name="signcecekcombbali" unicode="&#x1b02;" 
d="M-234 876q76 -20 133 -103q43 -80 50 -208q3 -60 -11 -61h-3q-9 2 -48 161q-51 112 -112 108l-55 -14q-7 -1 -8 7l-1 15q-2 46 37 94z" />
    <glyph glyph-name="signsurangcombbali" unicode="&#x1b03;" 
d="M-526 928h5l9 -3q-41 -50 -41 -93q0 -136 384 -266v-6l-23 -3h-23q-111 0 -329 135q-79 61 -87 115v28q0 64 73 90z" />
    <glyph glyph-name="signbisahbali" unicode="&#x1b04;" horiz-adv-x="378" 
d="M188 428h4q105 0 143 -83q4 -16 4 -33v-4q0 -62 -76 -88v-4q47 0 63 -87q0 -35 -100 -444q-21 -74 -21 -166q0 -106 88 -137q32 -16 42 -34v-4q0 -8 -9 -8h-8q-133 0 -176 125q-9 41 -9 74v50q0 71 105 444q9 39 9 63v8q0 87 -59 87h-17q-41 0 -88 -50h-9q-8 2 -16 21
q0 76 189 104q33 23 33 50q0 66 -96 66q-79 0 -93 -62q-5 -42 -12 -42q-34 24 -34 50v9q0 80 143 95z" />
    <glyph glyph-name="akarabali" unicode="&#x1b05;" horiz-adv-x="914" 
d="M744 417h8q86 0 117 -175v-23q0 -150 -69 -225h-4q-8 0 -8 7v8q32 139 32 175v31q0 89 -52 144h-4l-4 -8q36 -111 36 -175q0 -135 -121 -186q-10 0 -69 -8q-147 0 -206 117q-4 15 -4 31v11q1 8 8 8q82 -101 133 -101q19 -12 65 -12h8q130 0 130 148v4q0 53 -37 194
q9 35 41 35zM587 160h3q48 0 110 -89q23 -58 23 -101v-65q0 -14 -9 -16h-3q-9 3 -31 117q-35 81 -87 81q-42 -8 -45 -8l-3 5v11q12 65 42 65zM293 421h24q35 0 48 -54q0 -48 -84 -123q73 0 104 -69v-39q0 -80 -112 -150q-39 -12 -60 -12h-16q-110 0 -152 131v27q7 77 48 77
l8 -11q-8 -66 -8 -74v-3q0 -75 104 -97q94 0 132 100v35q-9 50 -104 50h-40q-6 0 -12 12v4l108 88q24 30 24 54q0 9 -20 12q-35 0 -112 -62h-8l-8 12q0 71 136 92z" />
    <glyph glyph-name="akaratedungbali" unicode="&#x1b06;" horiz-adv-x="1154" 
d="M602 153h3q51 0 118 -87q24 -57 24 -98v-63q0 -14 -9 -16h-3q-9 3 -33 113q-38 79 -94 79q-45 -7 -48 -7l-4 5v10q14 64 46 64zM294 406h24q35 0 48 -52q0 -47 -84 -120q73 0 104 -67v-38q0 -78 -112 -146q-39 -11 -61 -11h-16q-110 0 -152 127v26q7 75 48 75l8 -11
q-8 -63 -8 -71v-4q0 -72 104 -93q94 0 133 97v34q-9 48 -104 48h-41q-5 0 -12 12v3l109 86q24 29 24 53q0 8 -20 11q-35 0 -113 -60h-8l-8 11q0 70 137 90zM876 409h30q150 0 199 -156q4 -16 4 -37v-50q0 -129 -151 -205l-31 -5h-69q-6 0 -13 13q3 13 126 61q82 57 82 173
q0 101 -113 140h-60q-100 -13 -100 -86q5 -107 5 -144q0 -89 -117 -136q-32 -8 -60 -8h-26q-153 0 -186 103l8 4q112 -58 195 -58q134 13 134 128q-13 94 -13 111q29 152 156 152z" />
    <glyph glyph-name="ikarabali" unicode="&#x1b07;" horiz-adv-x="854" 
d="M512 -17h12q6 0 12 -12v-32q-14 -24 -20 -24h-4l4 40v4q-64 -31 -64 -68q4 -8 4 -12q71 20 76 20h20q56 -7 56 -56v-20q0 -93 -76 -180h-4q0 10 40 148v24q-5 36 -36 36h-4q-75 -12 -88 -12h-4q-20 10 -20 32v20q0 59 96 92zM581 460h4q162 0 220 -137q4 -26 4 -42
q0 -106 -118 -277l-21 -4l-5 7v19q0 16 76 191q9 39 9 53q0 114 -156 133h-42q-98 0 -136 -69q-8 -17 -8 -38q0 -41 59 -114v-7q0 -6 -13 -12q-91 40 -130 50q-38 -5 -38 -31v-11q7 -20 135 -72q12 -14 12 -27q-32 -53 -118 -53h-4q-174 0 -211 103q-4 4 -4 26v4
q0 38 97 137v7h-4q-82 0 -98 -129q0 -11 -16 -19q-30 13 -30 50v7q0 113 148 156h38q27 0 42 -27v-22q0 -21 -110 -130q-8 -30 -8 -38q0 -76 143 -76l51 8v4q-5 12 -85 45q-33 31 -37 57q13 65 71 65h9l42 -4q-13 31 -13 57v23q0 86 161 129q42 8 84 8z" />
    <glyph glyph-name="ikaratedungbali" unicode="&#x1b08;" horiz-adv-x="1357" 
d="M1058 454h29q120 0 197 -114q28 -58 28 -113v-28q0 -150 -153 -209q-15 -8 -38 -8h-22q-91 14 -91 50l10 7h12q35 -13 50 -13h10q103 0 158 110q12 31 12 68q0 136 -130 183q-36 5 -52 5q-155 0 -216 -206q-10 -29 -19 -32h-2q-22 0 -22 32v15q0 76 65 167q84 86 174 86z
M512 -17h12q6 0 12 -12v-32q-14 -24 -20 -24h-4l4 40v4q-64 -31 -64 -68q4 -8 4 -12q71 20 76 20h20q56 -7 56 -56v-20q0 -93 -76 -180h-4q0 10 40 148v24q-5 36 -36 36h-4q-75 -12 -88 -12h-4q-20 10 -20 32v20q0 59 96 92zM581 460h4q162 0 220 -137q4 -26 4 -42
q0 -106 -118 -277l-21 -4l-5 7v19q0 16 76 191q9 39 9 53q0 114 -156 133h-42q-98 0 -136 -69q-8 -17 -8 -38q0 -41 59 -114v-7q0 -6 -13 -12q-91 40 -130 50q-38 -5 -38 -31v-11q7 -20 135 -72q12 -14 12 -27q-32 -53 -118 -53h-4q-174 0 -211 103q-4 4 -4 26v4
q0 38 97 137v7h-4q-82 0 -98 -129q0 -11 -16 -19q-30 13 -30 50v7q0 113 148 156h38q27 0 42 -27v-22q0 -21 -110 -130q-8 -30 -8 -38q0 -76 143 -76l51 8v4q-5 12 -85 45q-33 31 -37 57q13 65 71 65h9l42 -4q-13 31 -13 57v23q0 86 161 129q42 8 84 8z" />
    <glyph glyph-name="ukarabali" unicode="&#x1b09;" horiz-adv-x="696" 
d="M395 475h8q168 0 233 -196q11 -56 11 -92q0 -252 -259 -352q-244 -121 -244 -240v-20q0 -72 80 -92q-11 35 -11 80q0 153 161 216q38 12 65 12h19q138 0 186 -136q7 -36 7 -52v-40q0 -116 -120 -268q-24 -20 -37 -20h-11q-7 0 -7 8v12q120 181 120 284q0 87 -76 124
q-30 12 -55 12h-29q-168 -22 -168 -156v-16q0 -28 40 -96v-12q0 -14 -40 -20h-4q-121 0 -168 112q-11 45 -11 72q0 212 332 324q120 54 161 168q15 67 15 84v12q0 156 -143 212q-26 4 -44 4q-124 -16 -124 -124v-8q0 -72 95 -124q33 -23 33 -44q-32 -76 -128 -76
q-117 0 -157 128q-3 16 -3 32v20q0 48 43 180v8q-46 0 -65 -116l11 -116l-11 -8q-55 41 -55 120v12q0 121 110 172l36 8q44 -7 44 -40l-55 -184q0 -17 -4 -44q0 -96 99 -112q16 0 47 12v4q-105 81 -105 172v12q0 165 178 188z" />
    <glyph glyph-name="ukaratedungbali" unicode="&#x1b0a;" horiz-adv-x="1199" 
d="M395 475h8q168 0 233 -196q11 -56 11 -92q0 -252 -259 -352q-244 -121 -244 -240v-20q0 -72 80 -92q-11 35 -11 80q0 153 161 216q38 12 65 12h19q138 0 186 -136q7 -36 7 -52v-40q0 -116 -120 -268q-24 -20 -37 -20h-11q-7 0 -7 8v12q120 181 120 284q0 87 -76 124
q-30 12 -55 12h-29q-168 -22 -168 -156v-16q0 -28 40 -96v-12q0 -14 -40 -20h-4q-121 0 -168 112q-11 45 -11 72q0 212 332 324q120 54 161 168q15 67 15 84v12q0 156 -143 212q-26 4 -44 4q-124 -16 -124 -124v-8q0 -72 95 -124q33 -23 33 -44q-32 -76 -128 -76
q-117 0 -157 128q-3 16 -3 32v20q0 48 43 180v8q-46 0 -65 -116l11 -116l-11 -8q-55 41 -55 120v12q0 121 110 172l36 8q44 -7 44 -40l-55 -184q0 -17 -4 -44q0 -96 99 -112q16 0 47 12v4q-105 81 -105 172v12q0 165 178 188zM900 443h29q120 0 197 -114q28 -58 28 -113v-28
q0 -150 -153 -209q-15 -8 -38 -8h-22q-91 14 -91 50l10 7h12q35 -13 50 -13h10q103 0 158 110q12 31 12 68q0 136 -130 183q-36 5 -52 5q-155 0 -216 -206q-10 -29 -19 -32h-2q-22 0 -22 32v15q0 76 65 167q84 86 174 86z" />
    <glyph glyph-name="rarepabali" unicode="&#x1b0b;" horiz-adv-x="726" 
d="M375 -36h12q6 0 12 -12v-32q-14 -24 -20 -24h-4l4 40v4q-64 -31 -64 -68q4 -8 4 -12q71 20 76 20h20q56 -7 56 -56v-20q0 -93 -76 -180h-4q0 10 40 148v24q-5 36 -36 36h-4q-75 -12 -88 -12h-4q-20 10 -20 32v20q0 59 96 92zM542 449q100 0 136 -171q3 -12 3 -42
q0 -124 -69 -219l-15 -3h-3q-4 0 -8 9v14q0 11 26 105q5 11 11 91q0 95 -61 153q-3 0 -8 3q-3 -5 -3 -8q37 -106 37 -174v-19q0 -141 -144 -182q-23 -6 -55 -6h-12q-176 0 -234 131q-5 26 -5 42v15q0 46 37 144v6h-6q-60 -54 -60 -148q0 -13 8 -76q-7 -6 -11 -6
q-61 48 -61 117q0 132 139 190l29 3h8q38 0 38 -34q0 -8 -52 -148l-6 -54q0 -87 101 -119q46 -9 75 -9h12q96 0 133 91q6 28 6 51v23q0 48 -41 173v14q0 43 55 43z" />
    <glyph glyph-name="rarepatedungbali" unicode="&#x1b0c;" horiz-adv-x="1241" 
d="M542 449q100 0 136 -171q3 -12 3 -42q0 -124 -69 -219l-15 -3h-3q-4 0 -8 9v14q0 11 26 105q5 11 11 91q0 95 -61 153q-3 0 -8 3q-3 -5 -3 -8q37 -106 37 -174v-19q0 -141 -144 -182q-23 -6 -55 -6h-12q-176 0 -234 131q-5 26 -5 42v15q0 46 37 144v6h-6
q-60 -54 -60 -148q0 -13 8 -76q-7 -6 -11 -6q-61 48 -61 117q0 132 139 190l29 3h8q38 0 38 -34q0 -8 -52 -148l-6 -54q0 -87 101 -119q46 -9 75 -9h12q96 0 133 91q6 28 6 51v23q0 48 -41 173v14q0 43 55 43zM942 454h29q120 0 197 -114q28 -58 28 -113v-28
q0 -150 -153 -209q-15 -8 -38 -8h-22q-91 14 -91 50l10 7h12q35 -13 50 -13h10q103 0 158 110q12 31 12 68q0 136 -130 183q-36 5 -52 5q-155 0 -216 -206q-10 -29 -19 -32h-2q-22 0 -22 32v15q0 76 65 167q84 86 174 86zM375 -36h12q6 0 12 -12v-32q-14 -24 -20 -24h-4
l4 40v4q-64 -31 -64 -68q4 -8 4 -12q71 20 76 20h20q56 -7 56 -56v-20q0 -93 -76 -180h-4q0 10 40 148v24q-5 36 -36 36h-4q-75 -12 -88 -12h-4q-20 10 -20 32v20q0 59 96 92z" />
    <glyph glyph-name="lalengabali" unicode="&#x1b0d;" horiz-adv-x="880" 
d="M614 504q191 0 221 -252v-44q0 -183 -74 -445q41 -71 41 -128v-16q0 -142 -53 -181l-8 4q8 52 8 96v4q0 68 -16 121h-4q-52 -155 -152 -257q-118 -104 -245 -104h-17q-175 0 -229 124q-8 16 -8 44v4q0 7 16 16h8q7 0 58 -72q53 -48 135 -48q113 0 159 64q4 22 4 32
q0 32 -65 285v20q0 92 74 124q15 9 61 12q78 0 180 -88q62 226 62 376v29q0 185 -160 216h-4q-98 -16 -98 -96q9 -52 45 -124v-8q0 -8 -9 -8h-8q-13 0 -94 60q-37 20 -74 24q-46 0 -57 -48q0 -52 123 -113q24 -23 24 -28q0 -49 -131 -60q-150 0 -192 108q-4 22 -4 36v4
q0 76 74 169v24l-9 4q-98 -34 -98 -136q0 -19 21 -81l-9 -4q-65 36 -65 93v8q0 123 123 172q25 12 69 12q62 -7 62 -40q0 -30 -86 -144q-17 -30 -17 -65q0 -84 95 -100h32l21 4v4q-94 76 -94 109q-4 5 -4 28q0 88 114 104h8q33 0 66 -16q0 4 -4 12q0 133 151 160h33z
M471 -237q49 -205 49 -229v-88q124 132 164 285v4q-63 100 -144 100q-69 -11 -69 -72z" />
    <glyph glyph-name="lalengatedungbali" unicode="&#x1b0e;" horiz-adv-x="889" 
d="M873 -211h47q37 -20 37 -50v-23q0 -31 -70 -96q72 0 89 -101l-9 -36q23 -12 23 -37q-5 0 -5 -4l-28 14q-52 -101 -103 -101h-28q-37 0 -37 41q0 75 131 101q5 8 5 18v18q0 55 -131 55v5q112 96 112 132q0 23 -28 23q-94 -39 -94 -78h-9v28q37 91 98 91zM826 -590
q5 -18 19 -18q66 37 66 68h-14q-71 -13 -71 -50zM614 504q191 0 221 -252v-44q0 -183 -74 -445q41 -71 41 -128v-16q0 -142 -53 -181l-8 4q8 52 8 96v4q0 68 -16 121h-4q-52 -155 -152 -257q-118 -104 -245 -104h-17q-175 0 -229 124q-8 16 -8 44v4q0 7 16 16h8q7 0 58 -72
q53 -48 135 -48q113 0 159 64q4 22 4 32q0 32 -65 285v20q0 92 74 124q15 9 61 12q78 0 180 -88q62 226 62 376v29q0 185 -160 216h-4q-98 -16 -98 -96q9 -52 45 -124v-8q0 -8 -9 -8h-8q-13 0 -94 60q-37 20 -74 24q-46 0 -57 -48q0 -52 123 -113q24 -23 24 -28
q0 -49 -131 -60q-150 0 -192 108q-4 22 -4 36v4q0 76 74 169v24l-9 4q-98 -34 -98 -136q0 -19 21 -81l-9 -4q-65 36 -65 93v8q0 123 123 172q25 12 69 12q62 -7 62 -40q0 -30 -86 -144q-17 -30 -17 -65q0 -84 95 -100h32l21 4v4q-94 76 -94 109q-4 5 -4 28q0 88 114 104h8
q33 0 66 -16q0 4 -4 12q0 133 151 160h33zM471 -237q49 -205 49 -229v-88q124 132 164 285v4q-63 100 -144 100q-69 -11 -69 -72z" />
    <glyph glyph-name="ekarabali" unicode="&#x1b0f;" horiz-adv-x="627" 
d="M235 428h3q78 0 110 -36v-5q0 -6 -6 -6h-76q-111 0 -145 -99q-3 -15 -3 -28v-3q6 -66 50 -66h19q30 0 136 94q59 39 117 39q102 0 139 -152q3 -14 3 -36v-3q0 -99 -51 -127h-6q-6 0 -6 6v2q9 77 9 97q0 141 -101 141q-47 0 -177 -111q-48 -22 -75 -22q-96 0 -124 80
q-6 26 -6 42v16q0 109 117 163q40 14 73 14z" />
    <glyph glyph-name="aikarabali" unicode="&#x1b10;" horiz-adv-x="970" 
d="M760 759h8q66 0 87 -256h4q19 0 75 74h4q6 0 12 -12v-13q0 -61 -87 -124q12 -188 12 -335q0 -516 -194 -649q-42 -17 -67 -17v8q24 73 24 120v33q0 150 -190 207l-55 8q-119 -15 -119 -74v-17q0 -70 139 -115l3 -9v-4q0 -31 -39 -37h-12q-227 0 -300 128q-20 55 -20 87
v17q0 142 123 198q42 21 86 21h32q48 0 174 -8q123 0 170 149q12 46 16 99q0 141 -107 186q-21 4 -36 4q-90 0 -106 -132v-21q12 -78 12 -83v-16q0 -9 -8 -9h-16l-71 75h-16q-20 -12 -20 -37q1 -19 75 -104v-20q0 -48 -83 -58q-162 36 -162 161q0 12 8 54l-8 -4h-8
q-12 4 -12 24v5q0 85 72 153q28 20 55 20h16q71 -13 71 -62q0 -36 -107 -120q-27 -37 -27 -66v-8q0 -58 94 -83h20q-55 68 -55 116q0 66 71 91q3 0 32 -12q0 149 130 202q21 4 36 4h11q171 0 198 -235v-25q0 -177 -138 -273q-63 -33 -131 -33l-20 4h-19q-62 0 -127 4
q-116 0 -150 -95q-12 -39 -12 -71q0 -102 123 -144l16 -4q-36 57 -36 91q0 119 122 153q21 4 40 4h36q153 0 256 -157q40 -66 40 -158q107 143 107 505q0 27 -20 331l-20 -4h-8q-118 14 -118 116v24q21 228 114 228zM705 536v-5q7 -62 47 -62h36q8 0 8 9q-18 190 -48 190
q-33 0 -43 -132zM140 279q20 25 87 79q0 8 -8 8q-48 0 -79 -87z" />
    <glyph glyph-name="okarabali" unicode="&#x1b11;" horiz-adv-x="758" 
d="M505 484h4q178 0 204 -228v-28q0 -160 -132 -256q-67 -36 -144 -36q-41 4 -164 8q-117 0 -152 -92q-12 -37 -12 -68q0 -102 136 -144h4q-36 56 -36 88q0 124 144 152h56q162 0 268 -164q32 -65 32 -132q0 -161 -152 -300q-13 -8 -24 -8h-8q-6 0 -12 12q0 15 84 124
q48 90 48 168q0 177 -208 228q-22 0 -44 4q-120 -15 -120 -72v-16q0 -68 140 -112l4 -8v-4q0 -36 -52 -36q-230 0 -304 124q-20 53 -20 84v16q0 151 148 200q32 12 60 12h36q48 0 176 -8q157 0 184 212q0 4 4 32q0 129 -108 176l-36 4q-91 0 -108 -128v-16q0 -13 12 -88v-12
q0 -12 -16 -12q-6 0 -80 76h-16q-11 0 -20 -36q0 -13 76 -104v-16q0 -42 -76 -56q-172 28 -172 156l8 52l-8 -4h-8q-12 4 -12 24v4q0 97 88 156q21 12 40 12h4q84 -7 84 -60q0 -36 -108 -116q-28 -36 -28 -64v-8q0 -61 100 -80h16q-56 64 -56 112q0 50 56 84h24q11 0 24 -8
q0 173 172 200zM141 272q31 31 88 76q0 8 -8 8h-4q-42 0 -76 -84z" />
    <glyph glyph-name="okaratedungbali" unicode="&#x1b12;" horiz-adv-x="1174" 
d="M505 484h4q178 0 204 -228v-28q0 -160 -132 -256q-67 -36 -144 -36q-41 4 -164 8q-117 0 -152 -92q-12 -37 -12 -68q0 -102 136 -144h4q-36 56 -36 88q0 124 144 152h56q162 0 268 -164q32 -65 32 -132q0 -161 -152 -300q-13 -8 -24 -8h-8q-6 0 -12 12q0 15 84 124
q48 90 48 168q0 177 -208 228q-22 0 -44 4q-120 -15 -120 -72v-16q0 -68 140 -112l4 -8v-4q0 -36 -52 -36q-230 0 -304 124q-20 53 -20 84v16q0 151 148 200q32 12 60 12h36q48 0 176 -8q157 0 184 212q0 4 4 32q0 129 -108 176l-36 4q-91 0 -108 -128v-16q0 -13 12 -88v-12
q0 -12 -16 -12q-6 0 -80 76h-16q-11 0 -20 -36q0 -13 76 -104v-16q0 -42 -76 -56q-172 28 -172 156l8 52l-8 -4h-8q-12 4 -12 24v4q0 97 88 156q21 12 40 12h4q84 -7 84 -60q0 -36 -108 -116q-28 -36 -28 -64v-8q0 -61 100 -80h16q-56 64 -56 112q0 50 56 84h24q11 0 24 -8
q0 173 172 200zM141 272q31 31 88 76q0 8 -8 8h-4q-42 0 -76 -84zM817 558q219 0 300 -188q12 -51 12 -76v-8q0 -204 -140 -268q-36 -12 -60 -12h-20q-97 0 -132 76q-8 25 -8 40q0 65 44 92h12q20 -9 20 -40v-44q0 -38 52 -48h28q89 0 128 144q4 15 4 36v12q0 244 -344 244
v4q0 29 104 36z" />
    <glyph glyph-name="kabali" unicode="&#x1b13;" horiz-adv-x="816" 
d="M387 459h29q144 0 202 -152q9 -41 9 -73v-21q0 -27 -13 -123h9q19 0 28 119v8q0 70 -66 193v4q0 25 29 25h25q132 -35 132 -173v-61q-24 -197 -87 -197l-4 8v9q34 96 46 164v53q-7 112 -62 127v-4q33 -77 33 -144v-45q-22 -168 -83 -168h-4q-53 13 -53 53q16 122 16 160
q0 146 -136 181h-45q-86 0 -132 -62v-4q128 0 202 -139q16 -61 16 -95q0 -102 -53 -102h-21q-47 20 -54 119q-13 168 -115 168q-56 0 -66 -86v-12q0 -50 66 -132v-12q0 -11 -33 -16q-157 22 -157 143v21q0 43 83 143q8 16 8 29l-8 4h-9q-13 0 -41 -74l-12 -8h-4
q-17 7 -17 29v8q0 110 99 110q56 0 58 -65q87 90 185 90zM132 258q-33 -52 -33 -94q16 -53 33 -53h4v4q-13 50 -13 69v13q0 30 13 57v4h-4zM367 250v-8q28 -44 41 -172l8 -4l9 28v13q0 73 -54 143h-4z" />
    <glyph glyph-name="kamahapranabali" unicode="&#x1b14;" horiz-adv-x="1001" 
d="M402 488h38q115 0 185 -118q30 -65 30 -126q0 -36 -8 -161l30 -5q19 0 99 66q15 9 34 9q94 0 146 -118q0 -9 -9 -9h-4q-73 70 -116 70q-32 0 -116 -79q-40 -13 -60 -13q-60 0 -60 48q4 141 4 192q0 140 -129 179q-17 4 -34 4h-30q-87 0 -134 -70q122 0 202 -122
q31 -73 31 -122q-12 -113 -43 -113h-22q-73 0 -73 179q-30 122 -120 122q-54 0 -69 -92q0 -67 73 -152v-13q-7 -18 -30 -18h-13q-113 0 -159 127v30q0 62 86 170l4 22v8q-8 0 -8 5q-21 -1 -52 -83l-13 -9h-4q-13 5 -13 26v40q20 91 77 91h22q64 -9 64 -56q-4 -9 -4 -14
q87 105 198 105zM131 261q-26 -50 -26 -74v-26q0 -32 39 -52v4q-17 59 -17 83q0 28 8 61v4h-4zM384 257v-9q26 -34 43 -174l9 -4q9 14 9 26v13q0 93 -61 148z" />
    <glyph glyph-name="gabali" unicode="&#x1b15;" horiz-adv-x="793" 
d="M372 451l44 -2q131 -3 179 -118q14 -40 12 -90v-4q-2 -72 -22 -136q41 38 44 127v4q2 64 -32 158v11q0 10 33 19q90 -2 113 -148l-1 -51q-33 -210 -94 -208q-5 0 -10 12q54 117 57 221q2 74 -41 119h-3q23 -74 22 -134q-21 -188 -109 -216l-43 1q-8 1 -7 8q40 140 42 199
q4 160 -146 164l-21 1q-111 3 -149 -106q-5 -34 -5 -43q-2 -71 57 -185v-8q-1 -17 -52 -18q-139 4 -135 129v12q1 44 26 136v15l-3 1q-19 0 -35 -70q8 -85 8 -113q-1 -16 -16 -24q-42 47 -40 123l1 23q2 99 102 127l7 -1q36 -6 35 -36v-4l-33 -159q6 -98 55 -99v3
q-34 60 -32 134q4 170 137 219q35 7 55 7z" />
    <glyph glyph-name="gagorabali" unicode="&#x1b16;" horiz-adv-x="900" 
d="M663 449h25q81 0 149 -130q18 -58 18 -91v-14q-9 -207 -67 -207q0 4 -4 4q18 96 18 182q-7 153 -75 182h-3v-3q49 -125 49 -200q0 -121 -89 -165q-24 -7 -42 -7h-14q-94 0 -150 112h-3q-29 -94 -92 -94h-8q-99 0 -99 126q0 46 43 224l-8 4h-7q-63 0 -85 -186v-35
q0 -35 29 -105v-4q-17 -31 -43 -31h-14q-65 0 -96 84q-4 13 -4 28v49l4 42l-11 -7h-7q-32 21 -32 53v28q29 98 92 98q47 -6 47 -39q-43 -121 -43 -182q0 -71 35 -88v7q-17 58 -17 91q0 180 128 249q26 7 49 7q37 0 43 -45q0 -15 -43 -165q-7 -61 -7 -84q0 -60 50 -60
q45 0 78 214l11 7h14q25 0 25 -123q41 -122 124 -122q78 0 89 112q0 106 -78 231q-4 6 -4 18v14q0 6 25 21zM95 246v-25h3q0 28 29 98h-7q-25 -18 -25 -73z" />
    <glyph glyph-name="ngabali" unicode="&#x1b17;" horiz-adv-x="856" 
d="M582 460h5q161 0 220 -137q4 -26 4 -41q0 -107 -118 -278l-22 -4l-4 8v19q0 15 76 190q9 39 9 53q0 114 -157 133h-42q-97 0 -136 -68q-8 -18 -8 -38q0 -42 59 -114v-8q0 -5 -12 -11q-93 39 -132 49q-38 -4 -38 -30v-12q7 -20 136 -72q12 -14 12 -27q-32 -53 -118 -53h-4
q-175 0 -212 103q-4 5 -4 26v4q0 38 97 137v8h-4q-82 0 -97 -130q0 -11 -17 -19q-30 13 -30 50v7q0 113 148 157h38q27 0 43 -27v-23q0 -21 -111 -129q-8 -31 -8 -38q0 -77 144 -77l51 8v4q-5 12 -85 46q-34 30 -38 57q13 64 72 64h8l43 -3q-13 30 -13 57v22q0 87 161 130
q42 7 84 7z" />
    <glyph glyph-name="cabali" unicode="&#x1b18;" horiz-adv-x="795" 
d="M206 449h34q77 -14 77 -73q0 -29 -46 -120h4q55 -32 130 -136q54 -43 107 -43q85 0 85 138v11q0 121 -85 121h-3q-13 0 -66 -18q-7 0 -7 7v7q47 106 165 106q135 0 149 -161v-43q0 -156 -69 -230h-11q-8 0 -8 7v11q31 169 31 204v44q0 98 -92 113h-35q96 -47 96 -157v-29
q0 -181 -115 -208h-46q-113 0 -218 157q-34 33 -62 33q-76 -17 -76 -70l19 -76q0 -26 -27 -26h-12q-51 0 -72 81v21q0 82 138 161q49 47 49 80q-6 30 -46 30q-67 0 -118 -154l-12 -7h-4q-15 6 -15 26v21q0 116 138 168z" />
    <glyph glyph-name="calacabali" unicode="&#x1b19;" horiz-adv-x="813" 
d="M577 449h21q92 0 158 -121q12 -51 12 -70v-21q0 -134 -79 -220q-22 -17 -37 -17l-4 8q62 137 62 196l-4 8v25q0 112 -79 145h-4v-4q58 -105 58 -195q-19 -183 -175 -183h-12q-147 0 -191 96q-11 24 -17 79q29 146 29 170q-4 37 -54 37h-33q-80 0 -121 -116q-4 -16 -4 -33
v-33q0 -103 46 -138h17q24 10 24 75v13q0 35 -4 112l13 8q41 -29 41 -112v-12q0 -129 -74 -129h-9q-82 0 -112 162v25q0 176 158 233l50 4h21q92 0 108 -67v-41q0 -20 -25 -179q0 -80 137 -96h4q120 0 120 146q0 61 -74 199q-5 8 -5 17q13 29 38 29z" />
    <glyph glyph-name="jabali" unicode="&#x1b1a;" horiz-adv-x="796" 
d="M522 449h4q114 -15 110 -81l-1 -15q-1 -20 -36 -69q111 -6 143 -71q9 -29 8 -51q-4 -77 -65 -186l-11 -5h-11q-5 1 -13 13v15l41 143l1 18q-6 60 -57 63l-29 1q-52 3 -165 -52q-7 -3 -15 -3l-3 1q-6 0 -10 15q1 14 115 115q23 35 24 49l1 9q1 30 -49 33h-11
q-135 8 -198 -128q-9 -25 -10 -41q-3 -56 111 -131q17 -16 17 -28q-25 -43 -100 -39q-136 8 -188 113q-8 37 -7 65q2 22 24 103l-7 3l-3 1q-23 -15 -25 -52l-1 -27q-2 -25 9 -84q-6 -11 -11 -11h-4q-51 3 -52 104l1 6q6 110 123 142l36 -3q29 -1 28 -25q-51 -130 -53 -160
q-4 -75 91 -113l25 -1v6q-89 73 -86 133q10 157 215 219q45 9 94 6z" />
    <glyph glyph-name="jabali.nya" horiz-adv-x="714" 
d="M522 449h4q114 -15 110 -81l-1 -15q-1 -20 -36 -69q111 -6 143 -71q9 -29 8 -51q-4 -77 -65 -186l-11 -5h-11q-5 1 -13 13v15l41 143l1 18q-6 60 -57 63l-29 1q-52 3 -165 -52q-7 -3 -15 -3l-3 1q-6 0 -10 15q1 14 115 115q23 35 24 49l1 9q1 30 -49 33h-11
q-135 8 -198 -128q-9 -25 -10 -41q-3 -56 111 -131q17 -16 17 -28q-25 -43 -100 -39q-136 8 -188 113q-8 37 -7 65q2 22 24 103l-7 3l-3 1q-23 -15 -25 -52l-1 -27q-2 -25 9 -84q-6 -11 -11 -11h-4q-51 3 -52 104l1 6q6 110 123 142l36 -3q29 -1 28 -25q-51 -130 -53 -160
q-4 -75 91 -113l25 -1v6q-89 73 -86 133q10 157 215 219q45 9 94 6zM514 -84h12q6 0 12 -12v-32q-14 -24 -20 -24h-4l4 40v4q-64 -31 -64 -68q4 -8 4 -12q71 20 76 20h20q56 -7 56 -56v-20q0 -93 -76 -180h-4q0 10 40 148v24q-5 36 -36 36h-4q-75 -12 -88 -12h-4
q-20 10 -20 32v20q0 59 96 92z" />
    <glyph glyph-name="jajerabali" unicode="&#x1b1b;" horiz-adv-x="970" 
d="M753 759q60 0 85 -252q46 29 69 29q36 0 43 -54v-149h-4q-46 22 -46 99l-4 29h-12q-40 -29 -42 -29q11 -95 15 -335q0 -512 -185 -649q-43 -21 -70 -21q0 4 -4 4q27 74 27 128v25q0 142 -166 207q-36 8 -74 12q-116 -15 -116 -74v-17q0 -56 97 -103q43 -6 43 -21v-4
q0 -31 -39 -37h-12q-222 0 -294 128q-19 55 -19 87v17q0 142 120 198q39 21 85 21h31q46 0 170 -8q145 0 178 211v53q0 120 -93 166q-15 8 -42 8q-92 0 -105 -136v-21q12 -78 12 -83v-12q0 -9 -8 -9h-15l-70 75h-15q-20 -11 -20 -37q0 -14 74 -108v-16q0 -48 -82 -58
q-158 35 -158 161q0 12 8 54l-8 -4h-8q-11 4 -11 24v5q27 173 123 173h16q69 -13 69 -62q0 -36 -104 -120q-27 -37 -27 -66v-16q0 -52 97 -75h15q-54 66 -54 116q0 69 70 91q3 0 30 -12q0 146 124 202l39 4h15q153 0 186 -215q4 -36 4 -41q0 -180 -139 -281
q-72 -29 -128 -29l-23 4h-23q-50 0 -113 4q-117 0 -150 -103q-8 -39 -8 -63q0 -102 120 -144l15 -4q-35 55 -35 91q20 157 147 157h47q149 0 251 -157q35 -67 35 -125v-37q104 137 104 480v29q0 95 -15 331h-4q-7 -4 -15 -4h-8q-116 13 -116 116v24q0 177 100 228h20z
M691 552v-25q0 -58 50 -58h19l20 5q-20 194 -47 194h-3q-39 -36 -39 -116zM138 279q21 26 85 79q0 8 -8 8q-46 0 -77 -87z" />
    <glyph glyph-name="nyabali" unicode="&#x1b1c;" horiz-adv-x="1106" 
d="M821 459h25q121 0 192 -111q23 -44 23 -93v-27q0 -126 -123 -204q-44 -24 -80 -24h-52q-14 0 -20 11v5q0 32 90 40q130 43 130 183q0 109 -95 148q-37 14 -70 14h-18q-109 0 -138 -91l-2 -26q10 -123 10 -141q0 -111 -163 -132q-21 -3 -35 -3q-8 0 -17 19q0 11 55 82
q42 76 42 130v21q0 79 -85 106q-19 5 -35 5h-12q-3 0 -3 3l-5 -3h-7q-68 0 -98 -63q-5 -12 -5 -35q0 -36 45 -101v-13q0 -6 -12 -8q-81 40 -93 40h-5q-20 0 -20 -21v-11q9 -19 80 -56q25 -14 25 -34q-24 -53 -95 -53q-134 0 -165 98q-2 15 -2 29l-13 -8q-25 14 -25 43v26
q0 89 93 114h25q57 0 57 -42q0 -19 -75 -106q-10 -25 -10 -35v-5q0 -61 105 -61q8 0 35 5v6q-85 43 -85 92q14 61 60 61l23 -2q-7 24 -10 56q0 92 110 132q39 11 80 13q128 0 172 -132q3 -18 3 -29v-24q0 -93 -68 -181v-2q85 25 85 87q3 0 3 19v10q-8 82 -8 99v8
q0 119 108 159q40 13 73 13zM90 178v-3h3q0 18 65 82v6q-6 0 -10 2q-43 0 -55 -69z" />
    <glyph glyph-name="talatikbali" unicode="&#x1b1d;" horiz-adv-x="812" 
d="M533 466h20q161 0 206 -140q8 -16 8 -44v-16q0 -147 -129 -288q-21 -20 -36 -20l-4 8q0 8 76 140q41 94 41 152q0 152 -162 152q-125 -14 -125 -108v-8l28 -104q0 -6 -12 -12q-26 17 -88 68q-11 9 -41 16q-26 0 -36 -40l16 -68v-4q0 -8 -12 -8q-52 27 -52 92q15 68 64 68
h12q21 0 57 -20v40q0 126 169 144zM158 364h32q53 0 53 -42q0 -14 -105 -155q-28 -67 -28 -93q0 -69 84 -69h20q25 0 37 54q33 85 92 85h17q60 0 60 -54q0 -84 -129 -128v-23q0 -188 206 -255l8 -12v-3q0 -6 -12 -12h-24q-134 0 -214 155q-24 56 -24 142h-4q-29 -3 -49 -3
q-129 15 -129 92v20q0 47 28 104q-32 0 -32 31v27q0 92 85 135zM85 194v-4h4q13 33 73 112h-16q-45 0 -61 -108zM287 9q89 21 89 69v12q0 5 -12 11h-12q-65 -18 -65 -92z" />
    <glyph glyph-name="tamurdamahapranabali" unicode="&#x1b1e;" horiz-adv-x="819" 
d="M540 466h20q161 0 206 -140q8 -16 8 -44v-16q0 -147 -129 -288q-21 -20 -36 -20l-4 8q0 8 76 140q41 94 41 152q0 152 -162 152q-125 -14 -125 -108v-8l28 -104q0 -6 -12 -12q-26 17 -88 68q-11 9 -41 16q-26 0 -36 -40l16 -68v-4q0 -8 -12 -8q-52 27 -52 92q15 68 64 68
h12q21 0 57 -20v40q0 126 169 144zM153 343h36q48 0 48 -40v-5q0 -16 -92 -143q-36 -60 -36 -112q0 -58 76 -58h40q7 0 24 67q44 72 88 72h16q56 0 56 -45v-18q0 -93 -148 -130q-31 -4 -68 -4h-28q-98 0 -116 94v22q0 36 24 99h-4q-24 0 -24 35v23q19 143 108 143zM85 173
v-4h4q8 28 68 107v4q-60 0 -72 -107zM281 -10v-5q88 19 88 76v5q0 6 -12 13h-8q-54 0 -68 -89z" />
    <glyph glyph-name="damurdaalpapranabali" unicode="&#x1b1f;" horiz-adv-x="745" 
d="M611 449h6q83 0 83 -190v-29q-7 -201 -33 -201h-3q-11 0 -14 37q0 47 4 200q-9 121 -30 121h-7l-3 -26q13 -112 13 -149v-33q0 -112 -106 -175l-23 -4h-13q-104 0 -139 80q-36 95 -40 95h-3q0 -108 -56 -142q-27 -7 -33 -7h-17q-89 16 -89 113v11q0 53 16 168h-3
q-24 0 -30 -165l-10 -7q-36 30 -36 99v11q0 112 89 153h23q30 0 30 -40v-4q-26 -155 -26 -204v-11q0 -55 43 -55q56 0 56 153q0 99 33 99q46 0 66 -164q34 -114 116 -114h10q73 0 89 128q-13 133 -13 179v18q5 55 50 55z" />
    <glyph glyph-name="damurdamahapranabali" unicode="&#x1b20;" horiz-adv-x="718" 
d="M619 449h4q33 -11 50 -241v-16q0 -125 -114 -188l-36 -4h-3q-115 0 -154 87q-35 94 -39 94h-4q0 -111 -60 -147q-29 -8 -36 -8h-18q-55 0 -89 68q-7 17 -7 49v12q0 53 18 173h-7q-29 -40 -29 -173l-7 -4h-4q-39 33 -39 94v8q0 122 89 166q20 4 29 4q35 -9 35 -38v-8
q-28 -160 -28 -211v-4q0 -64 50 -64q57 14 57 110v56q0 91 25 91h7q57 0 71 -159q42 -124 118 -124h22q82 0 96 139l-14 200q8 38 17 38z" />
    <glyph glyph-name="narambatbali" unicode="&#x1b21;" horiz-adv-x="900" 
d="M514 449h36q107 0 146 -141q4 -13 4 -40v-15q0 -80 -62 -184q80 42 80 156v10q0 49 -27 131v11q0 25 31 25h18q65 0 111 -101q4 -14 4 -29v-47q0 -119 -89 -218q-14 -7 -26 -7h-5q-6 0 -13 14q75 141 75 229q-13 94 -39 94h-5q19 -41 27 -105q0 -182 -164 -232h-40
q-40 6 -40 29l80 134q22 55 22 109q0 101 -88 126h-18q-80 0 -80 -116q-17 -36 -53 -36q-13 0 -93 84l-57 14q-62 0 -71 -58q0 -47 57 -69q9 -12 9 -21q-21 -37 -75 -37q-124 12 -124 94v15q0 46 62 65l18 -7q39 72 106 72h22q59 0 142 -76q0 81 66 113q30 14 53 14z
M116 308q-13 -26 -13 -33v-22q0 -39 39 -39h5q-31 30 -31 83l4 7v4h-4z" />
    <glyph glyph-name="tabali" unicode="&#x1b22;" horiz-adv-x="900" 
d="M495 449h31q130 0 161 -163q0 -15 4 -40q0 -67 -47 -177q74 66 74 148v29q0 44 -43 131v14q0 29 51 29q108 0 129 -141v-15q0 -133 -102 -253l-15 -11h-8q-8 0 -8 7v7q82 158 82 221v15q0 95 -66 116v-4q35 -59 35 -130q0 -85 -82 -185q-61 -40 -94 -40h-16q-6 0 -12 11
l51 149q8 36 8 72v22q0 118 -106 137h-27q-75 0 -117 -61v-4q31 25 74 25q87 0 117 -130v-40q0 -107 -137 -170q-45 -14 -94 -14h-43q-148 0 -195 123q-4 5 -8 40q0 52 47 163h-4q-41 0 -47 -91v-18l-8 -11q-35 17 -35 54v29q27 102 110 102q58 -9 58 -51q-55 -134 -55 -156
v-25q23 -98 98 -98q0 -7 67 -7q127 0 164 61q28 47 28 84v22q-19 79 -67 79q-70 0 -106 -90h-7q-20 36 -20 54v25q0 103 129 149q18 7 51 7z" />
    <glyph glyph-name="tatawabali" unicode="&#x1b23;" horiz-adv-x="761" 
d="M354 170h2q46 0 106 -89q21 -58 21 -100v-65q0 -14 -8 -16h-3q-8 3 -29 116q-34 81 -84 81q-40 -8 -43 -8l-3 5v11q12 65 41 65zM516 449h32q111 0 160 -124q8 -37 8 -66v-33q0 -95 -78 -204q-13 -7 -24 -7h-13q-8 0 -8 7q62 128 62 219v15q0 123 -111 142h-28
q-80 0 -123 -62v-4q32 26 78 26q90 0 122 -132v-40q0 -114 -155 -175q-43 -11 -86 -11h-45q-156 0 -205 124q-4 5 -8 40q0 53 49 165h-4q-43 0 -49 -92v-18q0 -7 -8 -7h-8q-29 20 -29 51v29q28 102 115 102q61 -10 61 -47q0 -9 -53 -135q-4 -19 -4 -37v-14q23 -99 102 -99
q0 -7 69 -7q132 0 172 62q29 46 29 84v22q-19 80 -70 80q-74 0 -110 -91h-8q-21 32 -21 62v18q0 104 135 150q19 7 54 7z" />
    <glyph glyph-name="dabali" unicode="&#x1b24;" horiz-adv-x="800" 
d="M491 449h35q164 0 221 -161q8 -16 8 -45v-42q0 -125 -75 -217h-12q-6 0 -16 14q40 140 40 178v42q0 127 -134 172q-16 3 -32 3h-23q-146 0 -146 -182q0 -35 8 -87q0 -9 -12 -25h4q98 95 169 95h20q103 -20 103 -91v-11q-11 -91 -99 -91q-76 0 -118 74q-94 -81 -162 -81
h-36q-90 0 -110 105q8 99 24 224q-4 28 -12 28q-32 -18 -32 -77v-10q0 -32 16 -140l-16 -11h-8q-30 0 -51 105v74q0 100 79 122h20q64 0 71 -80q0 -30 -20 -228q0 -52 51 -52h20q39 0 83 42h-4q-8 -4 -12 -4q-47 15 -47 126q0 154 106 207q57 24 99 24zM459 99q10 0 67 -42
q7 -3 16 -3h20q12 0 23 35q-7 42 -43 42h-12q-36 0 -71 -32z" />
    <glyph glyph-name="damadubali" unicode="&#x1b25;" horiz-adv-x="745" 
d="M513 449h7q111 0 171 -157q9 -38 9 -72v-9q0 -158 -60 -202h-3l-10 6q19 108 19 175q-8 156 -76 187h-6q0 -8 35 -94q12 -37 19 -99q0 -127 -86 -175q-29 -9 -53 -9h-13q-91 0 -124 54q-12 29 -19 139q-8 9 -19 9q-4 0 -9 -9v-42q0 -100 -41 -121q-32 -12 -54 -12
q-98 0 -98 124q0 62 44 159h-6q-44 -34 -44 -93q-4 0 -4 -12q4 -24 4 -48q-8 -6 -13 -6q-38 14 -38 63v9q10 117 104 151q18 3 29 3q25 0 35 -18v-12q-48 -97 -60 -148q-4 -38 -4 -45q0 -67 54 -67q51 0 51 91v48q0 54 63 54q48 0 54 -75q0 -113 44 -130q24 -12 54 -12
q79 0 92 106v12q0 94 -70 202q-22 22 -22 42q11 33 44 33z" />
    <glyph glyph-name="nabali" unicode="&#x1b26;" horiz-adv-x="700" 
d="M400 439h42q213 -30 213 -216v-8q0 -209 -27 -209h-15q-12 0 -19 41q4 136 8 143q0 145 -115 184q-29 8 -65 12q-105 0 -156 -69q174 0 229 -176q8 -43 8 -53q-6 -98 -54 -98h-15q-57 0 -65 114q0 112 -91 155l-23 4h-16q-55 0 -64 -77v-4q0 -69 72 -135v-16
q-6 -17 -27 -17h-22q-111 0 -153 123v29q0 47 88 151l4 20q0 8 -8 8q-28 0 -46 -61l-19 -21h-8q-11 5 -11 25v33q0 72 92 89q68 0 68 -65q92 94 195 94zM137 239q-35 -51 -35 -94q17 -53 35 -53h7v4l-19 74q4 36 15 65v4h-3zM381 231q33 -48 49 -172l8 -4l7 13v32
q0 72 -61 131h-3z" />
    <glyph glyph-name="pabali" unicode="&#x1b27;" horiz-adv-x="726" 
d="M542 449q100 0 136 -171q3 -12 3 -42q0 -124 -69 -219l-15 -3h-3q-4 0 -8 9v14q0 11 26 105q5 11 11 91q0 95 -61 153q-3 0 -8 3q-3 -5 -3 -8q37 -106 37 -174v-19q0 -141 -144 -182q-23 -6 -55 -6h-12q-176 0 -234 131q-5 26 -5 42v15q0 46 37 144v6h-6
q-60 -54 -60 -148q0 -13 8 -76q-7 -6 -11 -6q-61 48 -61 117q0 132 139 190l29 3h8q38 0 38 -34q0 -8 -52 -148l-6 -54q0 -87 101 -119q46 -9 75 -9h12q96 0 133 91q6 28 6 51v23q0 48 -41 173v14q0 43 55 43z" />
    <glyph glyph-name="pakapalbali" unicode="&#x1b28;" horiz-adv-x="697" 
d="M508 603h16q33 0 66 -106q48 31 58 31l4 -8q0 -31 -58 -63q27 -112 27 -221v-7q0 -154 -121 -209q-50 -20 -93 -20h-31q-165 0 -230 118q-8 28 -8 48v23q0 33 39 130h-7q-59 -50 -59 -122v-31q0 -26 8 -56l-12 -8h-4q-58 49 -58 123v11q0 92 128 154q35 8 47 8
q43 -4 43 -31q0 -11 -55 -150q-3 -27 -3 -44q0 -63 58 -94q56 -28 132 -28q112 0 152 111q12 45 12 94v24q0 76 -12 154h-23q-63 0 -63 70q0 63 47 99zM512 497l4 -20h19v4q0 12 -11 47q-10 0 -12 -31z" />
    <glyph glyph-name="babali" unicode="&#x1b29;" horiz-adv-x="900" 
d="M502 456q133 0 182 -120q11 -24 11 -60q0 -105 -89 -221l-4 -8h8q81 0 111 165v49q0 25 -37 135q0 30 41 30h11q97 0 119 -146v-26q0 -111 -85 -244q-16 -15 -30 -15l-4 7v19q71 166 71 233q0 91 -60 116v-4q26 -59 26 -127q0 -105 -70 -195q-56 -45 -116 -45
q-33 3 -33 26q1 22 48 116q41 74 41 131q0 115 -145 128h-18q-89 0 -123 -75q-4 -27 -4 -30q0 -35 49 -116q3 -8 3 -12l-7 -3h-7q-93 45 -112 45q-30 0 -30 -30t116 -83q11 -14 11 -26q-29 -49 -78 -49h-49q-116 0 -159 94v34q0 42 81 138v4l-7 4q-65 0 -82 -139
q-9 -7 -11 -7h-4q-22 13 -22 45v15q0 107 130 150h19q48 -5 48 -38q0 -34 -89 -131q-15 -32 -15 -49q0 -71 108 -71h22l37 4v3q0 6 -85 57q-19 34 -19 52v4q0 46 67 56q10 0 37 -7q-11 24 -11 52v23q0 110 163 138q12 4 45 4z" />
    <glyph glyph-name="bakembangbali" unicode="&#x1b2a;" horiz-adv-x="765" 
d="M467 462h28q153 0 217 -159q8 -29 8 -62v-29q0 -129 -68 -228l-8 -4h-12q-6 0 -13 11q0 11 41 181v29q0 149 -125 196q-16 7 -44 7h-12q-149 0 -149 -159v-19q0 -45 4 -112q-4 -7 -4 -11q99 94 157 94h16q112 -12 112 -97v-8q-9 -94 -100 -94q-113 25 -113 80
q-86 -87 -161 -87h-24q-112 0 -133 130v15q13 94 81 94q16 -7 16 -22q-28 -45 -28 -65v-22q0 -52 60 -69h24q38 0 85 44l-20 -4q-37 0 -45 131q0 190 149 232q38 7 61 7zM163 402q54 -13 79 -117q2 -40 -4 -66l-3 -11q-4 -18 -17 -18l-11 3q-9 9 -32 109q-17 18 -30 26
q-23 3 -82 -28l-12 3q-7 2 -6 9l3 10q55 95 115 80zM430 100q7 0 65 -44q7 -4 16 -4h20q14 0 20 40q-9 40 -44 40h-8q-38 0 -69 -32z" />
    <glyph glyph-name="mabali" unicode="&#x1b2b;" horiz-adv-x="745" 
d="M547 449h12q116 0 141 -152v-20q0 -178 -89 -265h-9q-2 0 -9 9q0 9 46 131q9 64 9 95v30q-18 121 -67 121h-3q45 -93 45 -157v-30q0 -149 -131 -202q-39 -9 -74 -9h-15q-195 0 -229 125q-4 12 -4 21q0 44 46 95v6q-32 4 -58 35v24q0 15 6 36q-70 -49 -70 -152v-3
q0 -57 43 -131q3 -5 3 -8q-5 -12 -9 -12h-3q-54 0 -83 125v29q0 238 242 238h6q112 0 132 -47v-3q0 -17 -25 -21q-64 15 -101 15q-73 -7 -73 -42q0 -45 143 -45q16 -12 16 -17q0 -36 -110 -60q-40 -22 -40 -53v-9q0 -75 165 -90h12q159 0 159 185q0 67 -70 169v6q0 28 46 33
z" />
    <glyph glyph-name="yabali" unicode="&#x1b2c;" horiz-adv-x="761" 
d="M551 449h3q128 0 162 -201v-21q-10 -215 -67 -215q-6 0 -6 6q18 117 18 180q0 140 -70 183h-15q55 -121 55 -207q0 -117 -104 -168q-21 -6 -37 -6h-9q-111 0 -168 112h-6q-24 -91 -94 -91h-3q-82 0 -98 82q-3 11 -3 27q0 31 18 148h-3q-30 -23 -30 -130q-2 -15 -9 -15h-9
q-31 27 -31 74v15q0 96 92 144q21 9 39 9q22 0 25 -29q-37 -151 -37 -184v-8q0 -3 -3 -3l3 -6v-12q0 -50 46 -50q58 0 58 183q6 41 24 41q31 0 43 -85q35 -169 146 -169q56 0 86 74q6 12 6 33v20q0 90 -70 204q-7 11 -7 24q0 41 55 41z" />
    <glyph glyph-name="rabali" unicode="&#x1b2d;" horiz-adv-x="688" 
d="M412 455h12q155 0 211 -119q8 -46 8 -73v-11q-17 -272 -54 -272q-16 6 -16 27v23q8 176 8 195v19q0 106 -95 142q-42 12 -74 12q-120 -10 -120 -89v-7l33 -173q-15 -138 -148 -138q-85 0 -132 54v12q9 15 21 15q56 -19 66 -19q65 0 78 103q0 73 -58 88h-16q-12 0 -21 -34
q8 -48 8 -77q-8 -17 -16 -19h-8q-42 22 -42 77v7q0 88 87 104h16q95 -33 95 -157q0 -46 -45 -100h12q46 31 46 100q0 30 -50 153v34q0 76 136 119q35 4 58 4z" />
    <glyph glyph-name="labali" unicode="&#x1b2e;" horiz-adv-x="854" 
d="M649 452q107 0 152 -136q8 -38 8 -60v-8q-9 -210 -96 -248h-4l-4 8q52 123 52 212q0 109 -52 156l-20 12v-8q48 -94 48 -204q-19 -176 -148 -176h-20q-128 0 -164 132l-4 40q24 152 24 172q0 38 -64 40h-8q-108 -27 -108 -140v-24q0 -46 44 -184q0 -24 -32 -28h-24
q-124 0 -148 160q0 65 72 192v12q-49 0 -68 -128q0 -12 -16 -20h-8q-11 0 -16 40v24q0 106 112 148h16q48 0 48 -32q0 -24 -68 -168q-12 -30 -12 -72q20 -96 68 -96h8v4q-28 119 -28 144v12q0 155 136 208q27 4 44 4h4q112 0 112 -92q-28 -174 -28 -192q0 -80 108 -96h24
q92 0 92 140q0 71 -68 212v12q12 28 36 28z" />
    <glyph glyph-name="wabali" unicode="&#x1b2f;" horiz-adv-x="761" 
d="M516 449h32q111 0 160 -124q8 -37 8 -66v-33q0 -95 -78 -204q-13 -7 -24 -7h-13q-8 0 -8 7q62 128 62 219v15q0 123 -111 142h-28q-80 0 -123 -62v-4q32 26 78 26q90 0 122 -132v-40q0 -114 -155 -175q-43 -11 -86 -11h-45q-156 0 -205 124q-4 5 -8 40q0 53 49 165h-4
q-43 0 -49 -92v-18q0 -7 -8 -7h-8q-29 20 -29 51v29q28 102 115 102q61 -10 61 -47q0 -9 -53 -135q-4 -19 -4 -37v-14q23 -99 102 -99q0 -7 69 -7q132 0 172 62q29 46 29 84v22q-19 80 -70 80q-74 0 -110 -91h-8q-21 32 -21 62v18q0 104 135 150q19 7 54 7z" />
    <glyph glyph-name="sasagabali" unicode="&#x1b30;" horiz-adv-x="788" 
d="M388 302h6q54 0 81 -141v-69q0 -22 -9 -24h-3q-11 0 -45 135q-19 30 -39 30q-9 0 -57 -27h-6q-6 0 -6 6v9q30 81 78 81zM372 451l44 -2q131 -3 179 -118q14 -40 12 -90v-4q-2 -72 -22 -136q41 38 44 127v4q2 64 -32 158v11q0 10 33 19q90 -2 113 -148l-1 -51
q-33 -210 -94 -208q-5 0 -10 12q54 117 57 221q2 74 -41 119h-3q23 -74 22 -134q-21 -188 -109 -216l-43 1q-8 1 -7 8q40 140 42 199q4 160 -146 164l-21 1q-111 3 -149 -106q-5 -34 -5 -43q-2 -71 57 -185v-8q-1 -17 -52 -18q-139 4 -135 129v12q1 44 26 136v15l-3 1
q-19 0 -35 -70q8 -85 8 -113q-1 -16 -16 -24q-42 47 -40 123l1 23q2 99 102 127l7 -1q36 -6 35 -36v-4l-33 -159q6 -98 55 -99v3q-34 60 -32 134q4 170 137 219q35 7 55 7z" />
    <glyph glyph-name="sasapabali" unicode="&#x1b31;" horiz-adv-x="726" 
d="M515 449q97 0 154 -136q12 -41 12 -85q0 -126 -78 -228h-12q-9 3 -9 16v3q0 13 35 144q6 50 6 63q0 109 -76 155h-11v-3q55 -116 55 -182q0 -141 -137 -185q-23 -6 -81 -8q-165 0 -229 122q-6 25 -9 52q0 52 55 141v3h-3q-39 0 -72 -87q-6 -23 -6 -49q0 -14 14 -90
q0 -5 -5 -5q-23 0 -50 46q-23 46 -23 76v3q0 128 142 171q22 6 41 6h12q33 0 40 -33q0 -19 -61 -109q-17 -37 -17 -68v-11q0 -72 84 -100q46 -17 99 -17q122 0 142 120q3 15 3 24q0 63 -58 188q-6 10 -6 22v8q0 33 49 33zM358 190h3q49 0 113 -95q23 -62 23 -107v-70
q0 -15 -9 -17h-3q-9 3 -31 124q-36 87 -90 87q-43 -9 -46 -9l-3 6v12q13 69 43 69z" />
    <glyph glyph-name="sabali" unicode="&#x1b32;" horiz-adv-x="770" 
d="M589 464h24q112 -22 112 -168v-56q-15 -202 -72 -228h-4q-10 0 -12 16q32 167 32 228v32q-5 104 -52 104h-4v-16q24 -127 24 -196v-4q0 -139 -104 -176h-48q-111 0 -204 152q-41 40 -64 40q-72 -16 -72 -60v-12q0 -18 16 -76v-8q-10 -20 -32 -20q-60 0 -80 100
q0 87 144 176q40 42 40 76q-8 24 -32 24h-16q-60 0 -112 -156l-8 -4h-4q-6 0 -16 16v32q0 120 136 172q16 4 32 4h16q76 -15 76 -60v-28q0 -31 -40 -100v-4q67 -49 116 -128q55 -56 100 -56h28q54 0 64 96v36q0 52 -32 196q12 56 48 56z" />
    <glyph glyph-name="habali" unicode="&#x1b33;" horiz-adv-x="880" 
d="M501 449h33q104 0 154 -142q11 -65 11 -92q-4 -87 -4 -120q17 0 22 106v18q0 77 -55 190v14q0 18 33 22q140 -31 140 -197v-40q0 -143 -59 -201h-7q-9 0 -11 19q26 145 26 200q-23 139 -48 139v-4q33 -83 33 -142v-29q-15 -183 -74 -183h-11q-37 0 -44 62q0 66 4 150
q0 143 -99 168q-5 4 -26 4h-18q-67 0 -78 -81q0 -67 4 -160q0 -103 -88 -143q-26 -7 -44 -7h-26q-151 16 -151 139q0 17 23 186q0 29 -15 29q-22 0 -33 -62v-4q7 -62 7 -69v-4q0 -7 -7 -7q-37 0 -48 69v33q15 113 88 113q56 0 66 -80v-4q0 -17 -14 -171q0 -95 88 -95h7
q81 0 81 95v15q0 51 -4 138q0 79 100 121q25 7 44 7z" />
    <glyph glyph-name="signrerekancombbali" unicode="&#x1b34;" 
d="M-573 530q-62 0 -62 51q0 18 8 43q19 -47 101 -47l25 1q-29 -44 -63 -47zM-413 530q-62 0 -62 51q0 18 8 43q19 -47 101 -47l25 1q-29 -44 -63 -47zM-513 640q-62 0 -62 51q0 18 8 43q19 -47 101 -47l25 1q-29 -44 -63 -47z" />
    <glyph glyph-name="vowelsigntedungbali" unicode="&#x1b35;" horiz-adv-x="572" 
d="M248 486h31q132 0 216 -126q32 -64 32 -124v-32q0 -164 -169 -229q-17 -9 -42 -9h-24q-100 16 -100 55l11 8h13q38 -14 55 -14h11q113 0 174 121q13 34 13 74q0 151 -142 201q-41 6 -58 6q-171 0 -238 -227q-11 -31 -21 -34h-2q-24 0 -24 34v17q0 84 71 184q93 95 193 95
z" />
    <glyph glyph-name="vowelsignulucombbali" unicode="&#x1b36;" horiz-adv-x="5" 
d="M-367 935h35q104 0 176 -114q20 -44 20 -90v-28q0 -78 -58 -178q-9 -6 -17 -6h-3q-6 0 -6 6v11q35 103 35 164q0 114 -87 151q-43 17 -80 17q-113 0 -148 -114v-37q0 -89 125 -128q23 -7 23 -14v-3q0 -41 -104 -47q-94 0 -150 89q-9 21 -9 39v11q0 20 17 20q8 0 55 -70
q25 -19 41 -22q-58 69 -58 131v28q0 115 133 173q35 11 60 11z" />
    <glyph glyph-name="vowelsignulusaricombbali" unicode="&#x1b37;" 
d="M-357 935h35q104 0 176 -114q20 -44 20 -90v-28q0 -78 -58 -178q-9 -6 -17 -6h-3q-6 0 -6 6v11q35 103 35 164q0 114 -87 151q-43 17 -80 17q-113 0 -148 -114v-37q0 -89 125 -128q23 -7 23 -14v-3q0 -41 -104 -47q-94 0 -150 89q-9 21 -9 39v11q0 20 17 20q8 0 55 -70
q25 -19 41 -22q-58 69 -58 131v28q0 115 133 173q35 11 60 11zM-370 818q44 -16 74 -72q23 -54 23 -137q0 -40 -8 -40h-2q-5 2 -23 107q-26 75 -62 75l-33 -8q-4 0 -4 5v10q0 31 25 60h10z" />
    <glyph glyph-name="vowelsignsukucombbali" unicode="&#x1b38;" 
d="M-108 96q15 -4 15 -21q-40 -382 -109 -499q-14 -42 -87 -100l-3 -6q55 0 114 112q67 174 67 254q8 42 18 160l5 3q15 -18 15 -88v-21q0 -274 -126 -448q-49 -54 -99 -54q-101 0 -123 73v9q0 45 64 45q157 0 220 539q8 42 29 42z" />
    <glyph glyph-name="vowelsignsukuilutcombbali" unicode="&#x1b39;" 
d="M-108 10l4 -8q0 -31 -79 -89q-48 -52 -48 -105q0 -29 28 -31q91 39 127 39h16q70 0 80 -105v-35q0 -166 -108 -366h-8q0 42 60 268q0 6 4 63q0 85 -60 97h-12q-13 0 -135 -31q-40 15 -40 58v43q0 119 171 202z" />
    <glyph glyph-name="vowelsignrarepacombbali" unicode="&#x1b3a;" 
d="M-127 36q90 0 115 -274v-62q0 -232 -219 -320q-75 -21 -137 -21h-60q-194 0 -317 165q-22 52 -22 88v52q0 183 186 269h11v-6q-142 -128 -142 -273q0 -155 175 -207q82 -26 137 -26h27q222 0 284 207q17 102 17 144q0 85 -60 264h5zM-245 -318q68 -29 119 -139
q39 -106 47 -272q4 -80 -8 -80l-3 -1q-8 4 -45 213q-46 147 -100 145l-49 -18q-6 0 -6 10l-1 20q-3 60 31 121z" />
    <glyph glyph-name="vowelsignrarepatedungbali" unicode="&#x1b3b;" horiz-adv-x="540" 
d="M248 486h31q132 0 216 -126q32 -64 32 -124v-32q0 -164 -169 -229q-17 -9 -42 -9h-24q-100 16 -100 55l11 8h13q38 -14 55 -14h11q113 0 174 121q13 34 13 74q0 151 -142 201q-41 6 -58 6q-171 0 -238 -227q-11 -31 -21 -34h-2q-24 0 -24 34v17q0 84 71 184q93 95 193 95
zM-157 36q90 0 115 -274v-62q0 -232 -219 -320q-75 -21 -137 -21h-60q-194 0 -317 165q-22 52 -22 88v52q0 183 186 269h11v-6q-142 -128 -142 -273q0 -155 175 -207q82 -26 137 -26h27q222 0 284 207q17 102 17 144q0 85 -60 264h5zM-315 -318q68 -29 119 -139
q39 -106 47 -272q4 -80 -8 -80l-3 -1q-8 4 -45 213q-46 147 -100 145l-49 -18q-6 0 -6 10l-1 20q-3 60 31 121z" />
    <glyph glyph-name="vowelsignlalengacombbali" unicode="&#x1b3c;" 
d="M-317 877h4q49 -53 53 -53q74 28 169 28h24q163 -11 163 -74v-17q0 -59 -159 -71h-7q-94 0 -190 71q-89 -44 -89 -103q0 -52 74 -116v-7q0 -7 -7 -7h-24q-113 0 -162 99l-4 21v35q0 34 28 53h7q7 -1 7 -7v-53q0 -49 39 -74h4q-11 17 -11 53v7q0 78 99 148q-25 37 -25 63z
M-211 782q60 -42 148 -42h11q95 7 95 38q-39 21 -110 21h-24q-48 0 -120 -17zM-146 -83q61 -42 98 -198q4 -35 4 -61v-24q0 -108 -102 -158q-16 -8 -46 -8h-20q-131 0 -172 125q0 7 -4 49l24 162q0 46 -61 52q-105 0 -123 -149v-17q0 -43 45 -190q-9 -24 -33 -24h-20
q-134 0 -156 162q0 62 74 190v12h-4q-48 0 -66 -133q-12 -17 -16 -17h-5q-20 7 -20 53v16q0 106 115 146h24q41 -7 41 -32q0 -20 -73 -178q-9 -39 -9 -61q0 -74 70 -97h8v4q-28 120 -28 145v21q0 142 139 198q28 4 45 4h12q107 0 107 -93q-29 -176 -29 -190
q20 -101 119 -101q111 0 111 145q0 66 -70 215v8q8 24 21 24z" />
    <glyph glyph-name="vowelsignlalengatedungbali" unicode="&#x1b3d;" horiz-adv-x="548" 
d="M-317 877h4q49 -53 53 -53q74 28 169 28h24q163 -11 163 -74v-17q0 -59 -159 -71h-7q-94 0 -190 71q-89 -44 -89 -103q0 -52 74 -116v-7q0 -7 -7 -7h-24q-113 0 -162 99l-4 21v35q0 34 28 53h7q7 -1 7 -7v-53q0 -49 39 -74h4q-11 17 -11 53v7q0 78 99 148q-25 37 -25 63z
M-211 782q60 -42 148 -42h11q95 7 95 38q-39 21 -110 21h-24q-48 0 -120 -17zM248 486h31q132 0 216 -126q32 -64 32 -124v-32q0 -164 -169 -229q-17 -9 -42 -9h-24q-100 16 -100 55l11 8h13q38 -14 55 -14h11q113 0 174 121q13 34 13 74q0 151 -142 201q-41 6 -58 6
q-171 0 -238 -227q-11 -31 -21 -34h-2q-24 0 -24 34v17q0 84 71 184q93 95 193 95zM-146 -83q61 -42 98 -198q4 -35 4 -61v-24q0 -108 -102 -158q-16 -8 -46 -8h-20q-131 0 -172 125q0 7 -4 49l24 162q0 46 -61 52q-105 0 -123 -149v-17q0 -43 45 -190q-9 -24 -33 -24h-20
q-134 0 -156 162q0 62 74 190v12h-4q-48 0 -66 -133q-12 -17 -16 -17h-5q-20 7 -20 53v16q0 106 115 146h24q41 -7 41 -32q0 -20 -73 -178q-9 -39 -9 -61q0 -74 70 -97h8v4q-28 120 -28 145v21q0 142 139 198q28 4 45 4h12q107 0 107 -93q-29 -176 -29 -190
q20 -101 119 -101q111 0 111 145q0 66 -70 215v8q8 24 21 24z" />
    <glyph glyph-name="vowelsigntalingbali" unicode="&#x1b3e;" horiz-adv-x="523" 
d="M287 429h28q133 0 150 -148q-18 -131 -91 -478q-14 -57 -18 -149q0 -147 146 -280v-25q0 -6 -14 -12h-13q-101 30 -174 181q-14 66 -14 99v62q0 100 101 503q9 33 9 78v37q0 52 -69 74l-41 4q-105 -13 -105 -82q0 -54 101 -82l9 -13v-8q-15 -82 -114 -82h-5
q-128 17 -128 94v37q0 37 37 66h13q8 0 14 -20q-14 -41 -14 -54v-12q0 -51 83 -62q21 0 45 21q-70 34 -77 45q-28 27 -28 66q0 125 169 140z" />
    <glyph glyph-name="vowelsigntalingrepabali" unicode="&#x1b3f;" horiz-adv-x="547" 
d="M287 429h28q133 0 150 -148q-18 -131 -91 -478q-14 -57 -18 -149q0 -147 146 -280v-25q0 -6 -14 -12h-13q-101 30 -174 181q-14 66 -14 99v62q0 100 101 503q9 33 9 78v37q0 52 -69 74l-41 4q-105 -13 -105 -82q0 -54 101 -82l9 -13v-8q-15 -82 -114 -82h-5
q-128 17 -128 94v37q0 37 37 66h13q8 0 14 -20q-14 -41 -14 -54v-12q0 -51 83 -62q21 0 45 21q-70 34 -77 45q-28 27 -28 66q0 125 169 140zM275 774h10q6 0 11 -11v-29q-12 -22 -18 -22h-3l3 36v4q-58 -28 -58 -62q3 -7 3 -11q65 18 70 18h18q51 -6 51 -51v-18
q0 -84 -69 -164h-4q0 9 37 135v22q-5 33 -33 33h-4q-68 -11 -80 -11h-4q-18 9 -18 29v18q0 54 88 84z" />
    <glyph glyph-name="vowelsigntalingtedungbali" unicode="&#x1b40;" horiz-adv-x="1550" 
d="M948 419q0 -24 -24 -24q-25 0 -25 24t25 24q24 0 24 -24zM875 467q0 -24 -23 -24q-26 0 -26 24q0 25 26 25q23 0 23 -25zM996 347q0 -25 -25 -25q-24 0 -24 25q0 24 25 24q24 0 24 -24zM1013 262q0 -25 -23 -25q-25 0 -25 25q0 24 25 24q23 0 23 -24zM790 485
q0 -25 -24 -25q-25 0 -25 25q0 24 25 24q24 0 24 -24zM706 467q0 -24 -25 -24q-24 0 -24 24q0 25 24 25q25 0 25 -25zM996 177q0 -24 -25 -24q-24 0 -24 24q0 25 24 25q25 0 25 -25zM634 419q0 -24 -25 -24q-24 0 -24 22q0 26 24 26q25 0 25 -24zM948 104q0 -24 -24 -24
q-25 0 -25 24t25 24q24 0 24 -24zM875 56q0 -24 -23 -24q-26 0 -26 24q0 25 26 25q23 0 23 -25zM585 347q0 -25 -23 -25q-26 0 -26 25q0 24 25 24q24 0 24 -24zM568 262q0 -25 -24 -25q-25 0 -25 25q0 24 25 24q24 0 24 -24zM790 40q0 -25 -24 -25q-25 0 -25 25q0 23 25 23
q24 0 24 -23zM585 177q0 -24 -24 -24q-25 0 -25 24q0 25 25 25q24 0 24 -25zM706 58q0 -26 -25 -26q-24 0 -24 24q0 25 24 25q25 0 25 -23zM634 104q0 -24 -25 -24q-24 0 -24 24t24 24q25 0 25 -24zM287 429h28q133 0 150 -148q-18 -131 -91 -478q-14 -57 -18 -149
q0 -147 146 -280v-25q0 -6 -14 -12h-13q-101 30 -174 181q-14 66 -14 99v62q0 100 101 503q9 33 9 78v37q0 52 -69 74l-41 4q-105 -13 -105 -82q0 -54 101 -82l9 -13v-8q-15 -82 -114 -82h-5q-128 17 -128 94v37q0 37 37 66h13q8 0 14 -20q-14 -41 -14 -54v-12q0 -51 83 -62
q21 0 45 21q-70 34 -77 45q-28 27 -28 66q0 125 169 140zM1293 485h31q132 0 216 -126q32 -64 32 -124v-32q0 -164 -169 -229q-17 -9 -42 -9h-24q-100 16 -100 55l11 8h13q38 -14 55 -14h11q113 0 174 121q13 34 13 74q0 151 -142 201q-41 6 -58 6q-171 0 -238 -227
q-11 -31 -21 -34h-2q-24 0 -24 34v17q0 84 71 184q93 95 193 95z" />
    <glyph glyph-name="vowelsigntalingrepatedungbali" unicode="&#x1b41;" horiz-adv-x="1545" 
d="M958 419q0 -24 -24 -24q-25 0 -25 24t25 24q24 0 24 -24zM885 467q0 -24 -23 -24q-26 0 -26 24q0 25 26 25q23 0 23 -25zM1006 347q0 -25 -25 -25q-24 0 -24 25q0 24 25 24q24 0 24 -24zM1023 262q0 -25 -23 -25q-25 0 -25 25q0 24 25 24q23 0 23 -24zM800 485
q0 -25 -24 -25q-25 0 -25 25q0 24 25 24q24 0 24 -24zM716 467q0 -24 -25 -24q-24 0 -24 24q0 25 24 25q25 0 25 -25zM1006 177q0 -24 -25 -24q-24 0 -24 24q0 25 24 25q25 0 25 -25zM644 419q0 -24 -25 -24q-24 0 -24 22q0 26 24 26q25 0 25 -24zM958 104q0 -24 -24 -24
q-25 0 -25 24t25 24q24 0 24 -24zM885 56q0 -24 -23 -24q-26 0 -26 24q0 25 26 25q23 0 23 -25zM595 347q0 -25 -23 -25q-26 0 -26 25q0 24 25 24q24 0 24 -24zM578 262q0 -25 -24 -25q-25 0 -25 25q0 24 25 24q24 0 24 -24zM800 40q0 -25 -24 -25q-25 0 -25 25q0 23 25 23
q24 0 24 -23zM595 177q0 -24 -24 -24q-25 0 -25 24q0 25 25 25q24 0 24 -25zM716 58q0 -26 -25 -26q-24 0 -24 24q0 25 24 25q25 0 25 -23zM644 104q0 -24 -25 -24q-24 0 -24 24t24 24q25 0 25 -24zM287 429h28q133 0 150 -148q-18 -131 -91 -478q-14 -57 -18 -149
q0 -147 146 -280v-25q0 -6 -14 -12h-13q-101 30 -174 181q-14 66 -14 99v62q0 100 101 503q9 33 9 78v37q0 52 -69 74l-41 4q-105 -13 -105 -82q0 -54 101 -82l9 -13v-8q-15 -82 -114 -82h-5q-128 17 -128 94v37q0 37 37 66h13q8 0 14 -20q-14 -41 -14 -54v-12q0 -51 83 -62
q21 0 45 21q-70 34 -77 45q-28 27 -28 66q0 125 169 140zM275 774h10q6 0 11 -11v-29q-12 -22 -18 -22h-3l3 36v4q-58 -28 -58 -62q3 -7 3 -11q65 18 70 18h18q51 -6 51 -51v-18q0 -84 -69 -164h-4q0 9 37 135v22q-5 33 -33 33h-4q-68 -11 -80 -11h-4q-18 9 -18 29v18
q0 54 88 84zM1293 485h31q132 0 216 -126q32 -64 32 -124v-32q0 -164 -169 -229q-17 -9 -42 -9h-24q-100 16 -100 55l11 8h13q38 -14 55 -14h11q113 0 174 121q13 34 13 74q0 151 -142 201q-41 6 -58 6q-171 0 -238 -227q-11 -31 -21 -34h-2q-24 0 -24 34v17q0 84 71 184
q93 95 193 95z" />
    <glyph glyph-name="vowelsignpepetcombbali" unicode="&#x1b42;" 
d="M-317 877h4q49 -53 53 -53q74 28 169 28h24q163 -11 163 -74v-17q0 -59 -159 -71h-7q-94 0 -190 71q-89 -44 -89 -103q0 -52 74 -116v-7q0 -7 -7 -7h-24q-113 0 -162 99l-4 21v35q0 34 28 53h7q7 -1 7 -7v-53q0 -49 39 -74h4q-11 17 -11 53v7q0 78 99 148q-25 37 -25 63z
M-211 782q60 -42 148 -42h11q95 7 95 38q-39 21 -110 21h-24q-48 0 -120 -17z" />
    <glyph glyph-name="vowelsignpepettedungbali" unicode="&#x1b43;" horiz-adv-x="550" 
d="M-317 877h4q49 -53 53 -53q74 28 169 28h24q163 -11 163 -74v-17q0 -59 -159 -71h-7q-94 0 -190 71q-89 -44 -89 -103q0 -52 74 -116v-7q0 -7 -7 -7h-24q-113 0 -162 99l-4 21v35q0 34 28 53h7q7 -1 7 -7v-53q0 -49 39 -74h4q-11 17 -11 53v7q0 78 99 148q-25 37 -25 63z
M-211 782q60 -42 148 -42h11q95 7 95 38q-39 21 -110 21h-24q-48 0 -120 -17zM258 463h31q132 0 216 -126q32 -64 32 -124v-32q0 -164 -169 -229q-17 -9 -42 -9h-24q-100 16 -100 55l11 8h13q38 -14 55 -14h11q113 0 174 121q13 34 13 74q0 151 -142 201q-41 6 -58 6
q-171 0 -238 -227q-11 -31 -21 -34h-2q-24 0 -24 34v17q0 84 71 184q93 95 193 95z" />
    <glyph glyph-name="adegadegbali" unicode="&#x1b44;" horiz-adv-x="267" 
d="M-76 780q156 0 196 -144q4 -54 8 -62l-4 -25v-8q0 -40 -60 -652q-4 -56 -4 -95q0 -185 88 -339q8 -15 8 -33q0 -8 -12 -8q-148 92 -148 367q0 166 64 714q4 20 4 54q0 94 -60 128q-31 16 -52 16h-28q-104 -24 -104 -107q-7 0 -8 -83v-28q0 -9 -8 -9h-8q-44 31 -44 108v20
q0 126 140 182q16 4 32 4z" />
    <glyph glyph-name="kafsasakbali" unicode="&#x1b45;" horiz-adv-x="816" 
d="M387 459h29q144 0 202 -152q9 -41 9 -73v-21q0 -27 -13 -123h9q19 0 28 119v8q0 70 -66 193v4q0 25 29 25h25q132 -35 132 -173v-61q-24 -197 -87 -197l-4 8v9q34 96 46 164v53q-7 112 -62 127v-4q33 -77 33 -144v-45q-22 -168 -83 -168h-4q-53 13 -53 53q16 122 16 160
q0 146 -136 181h-45q-86 0 -132 -62v-4q128 0 202 -139q16 -61 16 -95q0 -102 -53 -102h-21q-47 20 -54 119q-13 168 -115 168q-56 0 -66 -86v-12q0 -50 66 -132v-12q0 -11 -33 -16q-157 22 -157 143v21q0 43 83 143q8 16 8 29l-8 4h-9q-13 0 -41 -74l-12 -8h-4
q-17 7 -17 29v8q0 110 99 110q56 0 58 -65q87 90 185 90zM132 258q-33 -52 -33 -94q16 -53 33 -53h4v4q-13 50 -13 69v13q0 30 13 57v4h-4zM367 250v-8q28 -44 41 -172l8 -4l9 28v13q0 73 -54 143h-4zM334 208q33 -15 33 -20q-59 -62 -59 -136q0 -125 142 -175q30 -9 30 -17
v-10q0 -6 -7 -6h-23q-119 0 -189 149l-3 33v30q0 89 76 152z" />
    <glyph glyph-name="khotsasakbali" unicode="&#x1b46;" horiz-adv-x="1434" 
d="M417 452h44q224 -27 224 -220v-68q0 -96 96 -96h8q92 0 92 112q-8 103 -8 140v8q0 95 148 124h36q120 0 172 -144q12 -52 12 -96q-4 -88 -4 -116q20 5 24 108v24q0 71 -60 180v16q0 19 36 24q89 0 140 -120q12 -42 12 -84v-40q0 -136 -64 -196h-8q-9 0 -12 20
q28 140 28 200q0 68 -48 140h-4v-8q36 -77 36 -132v-40q-17 -184 -84 -184q-49 0 -56 72q0 33 4 144q0 126 -88 164q-28 8 -48 8h-20q-84 -15 -84 -80q4 -128 4 -168q0 -107 -116 -144h-56q-148 16 -148 112v124q0 110 -116 152q-29 8 -72 12q-105 0 -160 -68
q186 0 244 -184q0 -17 4 -44q0 -96 -64 -96q-80 0 -80 152q-35 120 -116 120h-20q-55 0 -64 -84v-4q0 -57 76 -128v-12q0 -12 -40 -20q-115 0 -164 104q-8 15 -8 32v16q0 45 92 148l4 20q0 8 -8 8q-29 0 -52 -68l-20 -16q-16 7 -16 28v20q10 96 80 96h28q60 0 60 -64h4
q81 96 200 96zM105 164q12 -52 44 -52v4l-20 72l12 60q-36 -31 -36 -84zM401 244v-4q31 -43 48 -164h4q6 0 12 12v28q0 70 -60 128h-4z" />
    </font>
</defs>
</svg>
