<?xml version="1.0" standalone="no"?>
<!DOCTYPE svg PUBLIC "-//W3C//DTD SVG 1.1//EN" "http://www.w3.org/Graphics/SVG/1.1/DTD/svg11.dtd" >
<svg xmlns="http://www.w3.org/2000/svg" xmlns:xlink="http://www.w3.org/1999/xlink" version="1.1">
<metadata>
Created by FontForge 20190801 at Sun Dec 19 13:53:33 2021
 By www-data
Copyright 2021 I Wayan Sukanta. All Rights Reserved.
</metadata>
<defs>
<font id="LinggaPatra" horiz-adv-x="0" >
  <font-face 
    font-family="Lingga Patra"
    font-weight="400"
    font-stretch="normal"
    units-per-em="1000"
    panose-1="2 2 5 2 6 5 5 2 2 4"
    ascent="800"
    descent="-200"
    bbox="-1407 -903 2835 1412"
    underline-thickness="50"
    underline-position="-125"
    unicode-range="U+001D-25CC"
  />
<missing-glyph horiz-adv-x="600" 
d="M94 0v714h411v-714h-411zM145 663v-612h309v612h-309z" />
    <glyph glyph-name="signrerekancomb_signcecekcombba" unicode="&#x1b34;&#x1b02;" 
d="M-498 802q0 17 12.5 29t29.5 12q15 0 28 -12t13 -29q0 -19 -13 -30t-28 -11q-17 0 -29.5 11.5t-12.5 29.5zM-564 686q0 17 12.5 29t29.5 12q15 0 28 -12t13 -29q0 -19 -13 -30t-28 -11q-17 0 -29.5 11.5t-12.5 29.5zM-430 686q0 17 12.5 29t29.5 12q15 0 28 -12t13 -29
q0 -19 -13 -30t-28 -11q-17 0 -29.5 11.5t-12.5 29.5zM-69 609q-118 226 -264 313l-96 -72l-21 13l99 219q123 -46 203 -181.5t114 -281.5z" />
    <glyph glyph-name="signrerekancomb_signsurangcombb" unicode="&#x1b34;&#x1b03;" 
d="M-579 832q0 17 12.5 29t29.5 12q15 0 28 -12t13 -29q0 -19 -13 -30t-28 -11q-17 0 -29.5 11.5t-12.5 29.5zM-645 716q0 17 12.5 29t29.5 12q15 0 28 -12t13 -29q0 -19 -13 -30t-28 -11q-17 0 -29.5 11.5t-12.5 29.5zM-511 716q0 17 12.5 29t29.5 12q15 0 28 -12t13 -29
q0 -19 -13 -30t-28 -11q-17 0 -29.5 11.5t-12.5 29.5zM-20 587q-202 0 -327 106q-123 114 -160 279l104 -18q32 -135 131 -234q97 -114 304 -107l9 -24q-31 -2 -61 -2z" />
    <glyph glyph-name="signrerekancomb_vowelsignulucom" unicode="&#x1b34;&#x1b36;" 
d="M-843 829q0 17 12.5 29t29.5 12q15 0 28 -12t13 -29q0 -19 -13 -30t-28 -11q-17 0 -29.5 11.5t-12.5 29.5zM-909 713q0 17 12.5 29t29.5 12q15 0 28 -12t13 -29q0 -19 -13 -30t-28 -11q-17 0 -29.5 11.5t-12.5 29.5zM-775 713q0 17 12.5 29t29.5 12q15 0 28 -12t13 -29
q0 -19 -13 -30t-28 -11q-17 0 -29.5 11.5t-12.5 29.5zM-332 1069h26q199 0 245 -203v-47q0 -124 -135 -229h-11q-10 0 -10 10q0 15 83 141q16 48 16 88q0 99 -146 141q-5 5 -42 5h-31q-121 0 -151 -120v-26q0 -35 89 -192q5 -10 5 -16q-10 -31 -57 -31q-203 27 -203 156v26
q10 168 10 182v16q0 5 -21 21q-31 -12 -31 -42q16 -91 16 -114q-13 -11 -21 -11q-52 35 -52 89v15q24 115 109 115q73 0 73 -78q-21 -151 -21 -188q11 -93 78 -93h6v15q-53 69 -53 136v46q0 119 151 177q49 11 78 11z" />
    <glyph glyph-name="signrerekancomb_vowelsignulucom" unicode="&#x1b34;&#x1b36;&#x1b02;" 
d="M-45 625q-59 207 -151 296l-73 -52l-13 13l89 179q80 -52 122.5 -177t50.5 -254zM-541 1094h24q185 0 228 -196v-45q0 -119 -126 -221h-10q-9 0 -9 10q0 14 77 136q15 47 15 85q0 96 -136 136q-5 5 -39 5h-29q-113 0 -141 -116v-25q0 -34 83 -186q5 -10 5 -15
q-10 -30 -54 -30q-189 26 -189 151v25q10 162 10 176v15q0 5 -20 20q-29 -12 -29 -40q15 -88 15 -111q-12 -10 -19 -10q-49 34 -49 86v15q23 110 102 110q68 0 68 -75q-20 -145 -20 -181q11 -91 73 -91h5v16q-48 66 -48 130v45q0 115 140 171q46 10 73 10zM-1009 832
q0 17 12.5 29t29.5 12q15 0 28 -12t13 -29q0 -19 -13 -30t-28 -11q-17 0 -29.5 11.5t-12.5 29.5zM-1075 716q0 17 12.5 29t29.5 12q15 0 28 -12t13 -29q0 -19 -13 -30t-28 -11q-17 0 -29.5 11.5t-12.5 29.5zM-941 716q0 17 12.5 29t29.5 12q15 0 28 -12t13 -29
q0 -19 -13 -30t-28 -11q-17 0 -29.5 11.5t-12.5 29.5z" />
    <glyph glyph-name="signrerekancomb_vowelsignulucom" unicode="&#x1b34;&#x1b36;&#x1b03;" 
d="M-541 1094h24q185 0 228 -196v-45q0 -119 -126 -221h-10q-9 0 -9 10q0 14 77 136q15 47 15 85q0 96 -136 136q-5 5 -39 5h-29q-113 0 -141 -116v-25q0 -34 83 -186q5 -10 5 -15q-10 -30 -54 -30q-189 26 -189 151v25q10 162 10 176v15q0 5 -20 20q-29 -12 -29 -40
q15 -88 15 -111q-12 -10 -19 -10q-49 34 -49 86v15q23 110 102 110q68 0 68 -75q-20 -145 -20 -181q11 -91 73 -91h5v16q-48 66 -48 130v45q0 115 140 171q46 10 73 10zM16 649q-137 0 -221 115q-83 123 -108 302l70 -20q22 -146 89 -253q65 -124 205 -116l6 -26
q-21 -2 -41 -2zM-1019 832q0 17 12.5 29t29.5 12q15 0 28 -12t13 -29q0 -19 -13 -30t-28 -11q-17 0 -29.5 11.5t-12.5 29.5zM-1085 716q0 17 12.5 29t29.5 12q15 0 28 -12t13 -29q0 -19 -13 -30t-28 -11q-17 0 -29.5 11.5t-12.5 29.5zM-951 716q0 17 12.5 29t29.5 12
q15 0 28 -12t13 -29q0 -19 -13 -30t-28 -11q-17 0 -29.5 11.5t-12.5 29.5z" />
    <glyph glyph-name="signrerekancomb_vowelsignulusar" unicode="&#x1b34;&#x1b37;" 
d="M-823 839q0 17 12.5 29t29.5 12q15 0 28 -12t13 -29q0 -19 -13 -30t-28 -11q-17 0 -29.5 11.5t-12.5 29.5zM-889 723q0 17 12.5 29t29.5 12q15 0 28 -12t13 -29q0 -19 -13 -30t-28 -11q-17 0 -29.5 11.5t-12.5 29.5zM-755 723q0 17 12.5 29t29.5 12q15 0 28 -12t13 -29
q0 -19 -13 -30t-28 -11q-17 0 -29.5 11.5t-12.5 29.5zM-246 669q-45 143 -111 204l-50 -38l-10 9l59 126q57 -35 89 -121.5t41 -175.5zM-332 1069h26q199 0 245 -203v-47q0 -124 -135 -229h-11q-10 0 -10 10q0 15 83 141q16 48 16 88q0 99 -146 141q-5 5 -42 5h-31
q-121 0 -151 -120v-26q0 -35 89 -192q5 -10 5 -16q-10 -31 -57 -31q-203 27 -203 156v26q10 168 10 182v16q0 5 -21 21q-31 -12 -31 -42q16 -91 16 -114q-13 -11 -21 -11q-52 35 -52 89v15q24 115 109 115q73 0 73 -78q-21 -151 -21 -188q11 -93 78 -93h6v15q-53 69 -53 136
v46q0 119 151 177q49 11 78 11z" />
    <glyph glyph-name="signrerekancomb_vowelsignulusar" unicode="&#x1b34;&#x1b37;&#x1b02;" 
d="M-1030 879q0 17 12.5 29t29.5 12q15 0 28 -12t13 -29q0 -19 -13 -30t-28 -11q-17 0 -29.5 11.5t-12.5 29.5zM-1096 763q0 17 12.5 29t29.5 12q15 0 28 -12t13 -29q0 -19 -13 -30t-28 -11q-17 0 -29.5 11.5t-12.5 29.5zM-962 763q0 17 12.5 29t29.5 12q15 0 28 -12t13 -29
q0 -19 -13 -30t-28 -11q-17 0 -29.5 11.5t-12.5 29.5zM-447 628q-49 157 -121 223l-55 -41l-11 10l65 138q62 -38 97 -132.5t45 -193.5zM-82 647q-35 196 -111 288l-73 -41l-11 13l99 156q69 -55 96 -174.5t23 -239.5zM-541 1094h24q185 0 228 -196v-45q0 -119 -126 -221
h-10q-9 0 -9 10q0 14 77 136q15 47 15 85q0 96 -136 136q-5 5 -39 5h-29q-113 0 -141 -116v-25q0 -34 83 -186q5 -10 5 -15q-10 -30 -54 -30q-189 26 -189 151v25q10 162 10 176v15q0 5 -20 20q-29 -12 -29 -40q15 -88 15 -111q-12 -10 -19 -10q-49 34 -49 86v15
q23 110 102 110q68 0 68 -75q-20 -145 -20 -181q11 -91 73 -91h5v16q-48 66 -48 130v45q0 115 140 171q46 10 73 10z" />
    <glyph glyph-name="signrerekancomb_vowelsignulusar" unicode="&#x1b34;&#x1b37;&#x1b03;" 
d="M-1020 859q0 17 12.5 29t29.5 12q15 0 28 -12t13 -29q0 -19 -13 -30t-28 -11q-17 0 -29.5 11.5t-12.5 29.5zM-1086 743q0 17 12.5 29t29.5 12q15 0 28 -12t13 -29q0 -19 -13 -30t-28 -11q-17 0 -29.5 11.5t-12.5 29.5zM-952 743q0 17 12.5 29t29.5 12q15 0 28 -12t13 -29
q0 -19 -13 -30t-28 -11q-17 0 -29.5 11.5t-12.5 29.5zM-541 1094h24q185 0 228 -196v-45q0 -119 -126 -221h-10q-9 0 -9 10q0 14 77 136q15 47 15 85q0 96 -136 136q-5 5 -39 5h-29q-113 0 -141 -116v-25q0 -34 83 -186q5 -10 5 -15q-10 -30 -54 -30q-189 26 -189 151v25
q10 162 10 176v15q0 5 -20 20q-29 -12 -29 -40q15 -88 15 -111q-12 -10 -19 -10q-49 34 -49 86v15q23 110 102 110q68 0 68 -75q-20 -145 -20 -181q11 -91 73 -91h5v16q-48 66 -48 130v45q0 115 140 171q46 10 73 10zM16 649q-137 0 -221 115q-83 123 -108 302l70 -20
q22 -146 89 -253q65 -124 205 -116l6 -26q-21 -2 -41 -2zM-447 628q-49 157 -121 223l-55 -41l-11 10l65 138q62 -38 97 -132.5t45 -193.5z" />
    <glyph glyph-name="signrerekancomb_vowelsignpepetc" unicode="&#x1b34;&#x1b42;" 
d="M-865 1026q0 17 12.5 29t29.5 12q15 0 28 -12t13 -29q0 -19 -13 -30t-28 -11q-17 0 -29.5 11.5t-12.5 29.5zM-931 910q0 17 12.5 29t29.5 12q15 0 28 -12t13 -29q0 -19 -13 -30t-28 -11q-17 0 -29.5 11.5t-12.5 29.5zM-797 910q0 17 12.5 29t29.5 12q15 0 28 -12t13 -29
q0 -19 -13 -30t-28 -11q-17 0 -29.5 11.5t-12.5 29.5zM-290 1035h13q196 -17 222 -102q0 -57 -173 -133q-56 -13 -97 -13h-49q-112 0 -226 49q-58 -67 -58 -125q0 -26 89 -57q0 -22 -53 -36h-18q-96 0 -111 124q0 15 9 67q-3 0 -22 -22h-9v4q20 62 58 62h8q14 0 14 -17
q-22 -36 -22 -76v-26q0 -38 26 -58v4q-9 29 -13 67q0 49 49 120q-31 33 -31 39q0 12 13 31q3 0 49 -31q154 129 332 129zM-551 875v-4q90 -22 150 -22h49q104 0 177 75q0 22 -106 31q-100 0 -270 -80z" />
    <glyph glyph-name="signrerekancomb_vowelsignpepetc" unicode="&#x1b34;&#x1b42;&#x1b02;" 
d="M-1034 1002q0 17 12.5 29t29.5 12q15 0 28 -12t13 -29q0 -19 -13 -30t-28 -11q-17 0 -29.5 11.5t-12.5 29.5zM-1100 886q0 17 12.5 29t29.5 12q15 0 28 -12t13 -29q0 -19 -13 -30t-28 -11q-17 0 -29.5 11.5t-12.5 29.5zM-966 886q0 17 12.5 29t29.5 12q15 0 28 -12
t13 -29q0 -19 -13 -30t-28 -11q-17 0 -29.5 11.5t-12.5 29.5zM-493 998h12q178 -16 202 -93q0 -52 -158 -121q-51 -12 -89 -12h-44q-102 0 -206 44q-52 -60 -52 -113q0 -24 81 -52q0 -21 -49 -33h-16q-87 0 -101 113q0 13 8 61q-2 0 -20 -20h-8v4q18 56 52 56h9q12 0 12 -16
q-21 -33 -21 -69v-24q0 -34 25 -52v4q-8 26 -12 60q0 45 44 109q-28 31 -28 37q0 10 12 28q2 0 44 -28q141 117 303 117zM-731 852v-4q82 -20 137 -20h44q95 0 162 69q0 20 -97 28q-91 0 -246 -73zM-53 622q-65 189 -154 268l-66 -52l-13 11l74 170q77 -44 122.5 -158
t59.5 -233z" />
    <glyph glyph-name="signrerekancomb_vowelsignpepetc" unicode="&#x1b34;&#x1b42;&#x1b03;" 
d="M-1024 1000q0 17 12.5 29t29.5 12q15 0 28 -12t13 -29q0 -19 -13 -30t-28 -11q-17 0 -29.5 11.5t-12.5 29.5zM-1090 884q0 17 12.5 29t29.5 12q15 0 28 -12t13 -29q0 -19 -13 -30t-28 -11q-17 0 -29.5 11.5t-12.5 29.5zM-956 884q0 17 12.5 29t29.5 12q15 0 28 -12
t13 -29q0 -19 -13 -30t-28 -11q-17 0 -29.5 11.5t-12.5 29.5zM-493 998h12q178 -16 202 -93q0 -52 -158 -121q-51 -12 -89 -12h-44q-102 0 -206 44q-52 -60 -52 -113q0 -24 81 -52q0 -21 -49 -33h-16q-87 0 -101 113q0 13 8 61q-2 0 -20 -20h-8v4q18 56 52 56h9q12 0 12 -16
q-21 -33 -21 -69v-24q0 -34 25 -52v4q-8 26 -12 60q0 45 44 109q-28 31 -28 37q0 10 12 28q2 0 44 -28q141 117 303 117zM-731 852v-4q82 -20 137 -20h44q95 0 162 69q0 20 -97 28q-91 0 -246 -73zM16 649q-137 0 -221 115q-83 123 -108 302l70 -20q22 -146 89 -253
q65 -124 205 -116l6 -26q-21 -2 -41 -2z" />
    <glyph glyph-name="vowelsignulucomb_signuluricemco" unicode="&#x1b36;&#x1b00;" 
d="M-395 1343l27 1q128 8 213 -60q50 -47 54 -109l2 -21q8 -104 -92 -213q-25 13 -39 17l-1 6q82 103 75 194q-7 97 -128 125q-42 8 -82 6q-154 -10 -186 -104q-10 -27 -8 -60l1 -9q4 -59 88 -149q-19 -37 -22 -37q-119 89 -127 191l-2 24q-7 94 103 163q58 30 124 35z
M-351 1204q88 6 119 -51q5 -13 6 -25l1 -12q3 -47 -43 -98h-2q-3 0 -25 18q33 38 30 74v2q-2 35 -41 47q-20 4 -36 3l-12 -1q-62 -4 -73 -56v-5q2 -22 37 -66q-15 -22 -17 -22q-56 43 -60 94v9q-4 50 65 81q23 7 51 8zM-340 974h19q144 0 177 -152v-36q0 -93 -98 -172h-8
q-7 0 -7 8q0 11 60 106q12 36 12 66q0 75 -106 106q-4 4 -30 4h-23q-88 0 -110 -90v-20q0 -26 65 -145q3 -7 3 -11q-7 -24 -41 -24q-148 20 -148 118v19q8 127 8 137v12q0 4 -15 16q-23 -9 -23 -32q12 -68 12 -86q-10 -8 -16 -8q-37 26 -37 67v12q17 86 79 86q53 0 53 -59
q-15 -113 -15 -141q8 -70 56 -70h4v11q-38 52 -38 102v35q0 89 110 133q36 8 57 8z" />
    <glyph glyph-name="vowelsignulucomb_signulucandrac" unicode="&#x1b36;&#x1b01;" 
d="M-377 1349h4q11 -59 21 -171l-4 -2q-7 0 -19 2q-15 -2 -26 -2q-4 5 -4 7q0 34 28 166zM-548 1272h11q28 -5 28 -22v-5q0 -15 -19 -20h-2q-6 0 -25 3q-24 0 -46 -46q-5 -18 -7 -42q0 -68 71 -124q79 -47 169 -47q157 0 208 114q11 30 11 55v20q0 45 -39 63h-3q-2 0 -22 -3
q-30 5 -30 25v7q13 22 32 22q66 0 101 -90q5 -19 5 -38v-15q0 -105 -101 -185q-75 -43 -148 -43h-24q-97 0 -184 58q-88 71 -88 160v18q0 83 72 127q17 8 30 8zM-382 1173q111 -6 134 -69l2 -10v-17q0 -34 -60 -64q-32 -15 -65 -15q-86 0 -127 58q-9 15 -9 36q0 55 104 79
q16 0 21 2zM-475 1086q0 -26 65 -48q18 -6 35 -6q63 0 97 44q4 7 4 12q0 19 -53 43q-15 7 -50 11q-58 0 -95 -43q-3 -7 -3 -13zM-360 974h19q144 0 177 -152v-36q0 -93 -98 -172h-8q-7 0 -7 8q0 11 60 106q12 36 12 66q0 75 -106 106q-4 4 -30 4h-23q-88 0 -110 -90v-20
q0 -26 65 -145q3 -7 3 -11q-7 -24 -41 -24q-148 20 -148 118v19q8 127 8 137v12q0 4 -15 16q-23 -9 -23 -32q12 -68 12 -86q-10 -8 -16 -8q-37 26 -37 67v12q17 86 79 86q53 0 53 -59q-15 -113 -15 -141q8 -70 56 -70h4v11q-38 52 -38 102v35q0 89 110 133q36 8 57 8z" />
    <glyph glyph-name="vowelsignulucomb_signcecekcombb" unicode="&#x1b36;&#x1b02;" 
d="M-45 625q-59 207 -151 296l-73 -52l-13 13l89 179q80 -52 122.5 -177t50.5 -254zM-541 1094h24q185 0 228 -196v-45q0 -119 -126 -221h-10q-9 0 -9 10q0 14 77 136q15 47 15 85q0 96 -136 136q-5 5 -39 5h-29q-113 0 -141 -116v-25q0 -34 83 -186q5 -10 5 -15
q-10 -30 -54 -30q-189 26 -189 151v25q10 162 10 176v15q0 5 -20 20q-29 -12 -29 -40q15 -88 15 -111q-12 -10 -19 -10q-49 34 -49 86v15q23 110 102 110q68 0 68 -75q-20 -145 -20 -181q11 -91 73 -91h5v16q-48 66 -48 130v45q0 115 140 171q46 10 73 10z" />
    <glyph glyph-name="vowelsignulucomb_signsurangcomb" unicode="&#x1b36;&#x1b03;" 
d="M-541 1094h24q185 0 228 -196v-45q0 -119 -126 -221h-10q-9 0 -9 10q0 14 77 136q15 47 15 85q0 96 -136 136q-5 5 -39 5h-29q-113 0 -141 -116v-25q0 -34 83 -186q5 -10 5 -15q-10 -30 -54 -30q-189 26 -189 151v25q10 162 10 176v15q0 5 -20 20q-29 -12 -29 -40
q15 -88 15 -111q-12 -10 -19 -10q-49 34 -49 86v15q23 110 102 110q68 0 68 -75q-20 -145 -20 -181q11 -91 73 -91h5v16q-48 66 -48 130v45q0 115 140 171q46 10 73 10zM16 649q-137 0 -221 115q-83 123 -108 302l70 -20q22 -146 89 -253q65 -124 205 -116l6 -26
q-21 -2 -41 -2z" />
    <glyph glyph-name="vowelsignulucomb_signcecekcomb_" unicode="&#x1b36;&#x1b02;&#x1b03;" 
d="M-45 625q-59 207 -151 296l-73 -52l-13 13l89 179q80 -52 122.5 -177t50.5 -254zM-541 1094h24q185 0 228 -196v-45q0 -119 -126 -221h-10q-9 0 -9 10q0 14 77 136q15 47 15 85q0 96 -136 136q-5 5 -39 5h-29q-113 0 -141 -116v-25q0 -34 83 -186q5 -10 5 -15
q-10 -30 -54 -30q-189 26 -189 151v25q10 162 10 176v15q0 5 -20 20q-29 -12 -29 -40q15 -88 15 -111q-12 -10 -19 -10q-49 34 -49 86v15q23 110 102 110q68 0 68 -75q-20 -145 -20 -181q11 -91 73 -91h5v16q-48 66 -48 130v45q0 115 140 171q46 10 73 10zM-37 998
q-217 0 -351 114q-132 123 -172 300l112 -19q34 -146 140 -252q105 -123 327 -115l10 -26q-34 -2 -66 -2z" />
    <glyph glyph-name="vowelsignulusaricomb_signuluric" unicode="&#x1b37;&#x1b00;" 
d="M-375 1333l27 1q128 8 213 -60q50 -47 54 -109l2 -21q8 -104 -92 -213q-25 13 -39 17l-1 6q82 103 75 194q-7 97 -128 125q-42 8 -82 6q-154 -10 -186 -104q-10 -27 -8 -60l1 -9q4 -59 88 -149q-19 -37 -22 -37q-119 89 -127 191l-2 24q-7 94 103 163q58 30 124 35z
M-331 1194q88 6 119 -51q5 -13 6 -25l1 -12q3 -47 -43 -98h-2q-3 0 -25 18q33 38 30 74v2q-2 35 -41 47q-20 4 -36 3l-12 -1q-62 -4 -73 -56v-5q2 -22 37 -66q-15 -22 -17 -22q-56 43 -60 94v9q-4 50 65 81q23 7 51 8zM-320 964h19q144 0 177 -152v-36q0 -93 -98 -172h-8
q-7 0 -7 8q0 11 60 106q12 36 12 66q0 75 -106 106q-4 4 -30 4h-23q-88 0 -110 -90v-20q0 -26 65 -145q3 -7 3 -11q-7 -24 -41 -24q-148 20 -148 118v19q8 127 8 137v12q0 4 -15 16q-23 -9 -23 -32q12 -68 12 -86q-10 -8 -16 -8q-37 26 -37 67v12q17 86 79 86q53 0 53 -59
q-15 -113 -15 -141q8 -70 56 -70h4v11q-38 52 -38 102v35q0 89 110 133q36 8 57 8zM-259 629q-35 109 -85 156l-38 -29l-8 7l45 97q44 -27 68.5 -93t31.5 -135z" />
    <glyph glyph-name="vowelsignulusaricomb_signulucan" unicode="&#x1b37;&#x1b01;" 
d="M-367 1348h4q11 -59 21 -171l-4 -2q-7 0 -19 2q-15 -2 -26 -2q-4 5 -4 7q0 34 28 166zM-538 1271h11q28 -5 28 -22v-5q0 -15 -19 -20h-2q-6 0 -25 3q-24 0 -46 -46q-5 -18 -7 -42q0 -68 71 -124q79 -47 169 -47q157 0 208 114q11 30 11 55v20q0 45 -39 63h-3q-2 0 -22 -3
q-30 5 -30 25v7q13 22 32 22q66 0 101 -90q5 -19 5 -38v-15q0 -105 -101 -185q-75 -43 -148 -43h-24q-97 0 -184 58q-88 71 -88 160v18q0 83 72 127q17 8 30 8zM-372 1172q111 -6 134 -69l2 -10v-17q0 -34 -60 -64q-32 -15 -65 -15q-86 0 -127 58q-9 15 -9 36q0 55 104 79
q16 0 21 2zM-465 1085q0 -26 65 -48q18 -6 35 -6q63 0 97 44q4 7 4 12q0 19 -53 43q-15 7 -50 11q-58 0 -95 -43q-3 -7 -3 -13zM-360 974h19q144 0 177 -152v-36q0 -93 -98 -172h-8q-7 0 -7 8q0 11 60 106q12 36 12 66q0 75 -106 106q-4 4 -30 4h-23q-88 0 -110 -90v-20
q0 -26 65 -145q3 -7 3 -11q-7 -24 -41 -24q-148 20 -148 118v19q8 127 8 137v12q0 4 -15 16q-23 -9 -23 -32q12 -68 12 -86q-10 -8 -16 -8q-37 26 -37 67v12q17 86 79 86q53 0 53 -59q-15 -113 -15 -141q8 -70 56 -70h4v11q-38 52 -38 102v35q0 89 110 133q36 8 57 8z
M-299 649q-35 109 -85 156l-38 -29l-8 7l45 97q44 -27 68.5 -93t31.5 -135z" />
    <glyph glyph-name="vowelsignulusaricomb_signcecekc" unicode="&#x1b37;&#x1b02;" 
d="M-468 663q-45 143 -111 204l-50 -38l-10 9l59 126q57 -35 89 -121.5t41 -175.5zM-82 647q-35 196 -111 288l-73 -41l-11 13l99 156q69 -55 96 -174.5t23 -239.5zM-541 1094h24q185 0 228 -196v-45q0 -119 -126 -221h-10q-9 0 -9 10q0 14 77 136q15 47 15 85
q0 96 -136 136q-5 5 -39 5h-29q-113 0 -141 -116v-25q0 -34 83 -186q5 -10 5 -15q-10 -30 -54 -30q-189 26 -189 151v25q10 162 10 176v15q0 5 -20 20q-29 -12 -29 -40q15 -88 15 -111q-12 -10 -19 -10q-49 34 -49 86v15q23 110 102 110q68 0 68 -75q-20 -145 -20 -181
q11 -91 73 -91h5v16q-48 66 -48 130v45q0 115 140 171q46 10 73 10z" />
    <glyph glyph-name="vowelsignulusaricomb_signsurang" unicode="&#x1b37;&#x1b03;" 
d="M-541 1094h24q185 0 228 -196v-45q0 -119 -126 -221h-10q-9 0 -9 10q0 14 77 136q15 47 15 85q0 96 -136 136q-5 5 -39 5h-29q-113 0 -141 -116v-25q0 -34 83 -186q5 -10 5 -15q-10 -30 -54 -30q-189 26 -189 151v25q10 162 10 176v15q0 5 -20 20q-29 -12 -29 -40
q15 -88 15 -111q-12 -10 -19 -10q-49 34 -49 86v15q23 110 102 110q68 0 68 -75q-20 -145 -20 -181q11 -91 73 -91h5v16q-48 66 -48 130v45q0 115 140 171q46 10 73 10zM16 649q-137 0 -221 115q-83 123 -108 302l70 -20q22 -146 89 -253q65 -124 205 -116l6 -26
q-21 -2 -41 -2zM-468 663q-45 143 -111 204l-50 -38l-10 9l59 126q57 -35 89 -121.5t41 -175.5z" />
    <glyph glyph-name="vowelsignulusaricomb_signcecekc" unicode="&#x1b37;&#x1b02;&#x1b03;" 
d="M-42 611q-49 157 -121 223l-55 -41l-11 10l65 138q62 -38 97 -132.5t45 -193.5zM-269 986q-211 -16 -334 95q-105 102 -138 251l74 -13q44 -125 119 -212q97 -108 283 -105zM-430 964h19q144 0 177 -152v-36q0 -93 -98 -172h-8q-7 0 -7 8q0 11 60 106q12 36 12 66
q0 75 -106 106q-4 4 -30 4h-23q-88 0 -110 -90v-20q0 -26 65 -145q3 -7 3 -11q-7 -24 -41 -24q-148 20 -148 118v19q8 127 8 137v12q0 4 -15 16q-23 -9 -23 -32q12 -68 12 -86q-10 -8 -16 -8q-37 26 -37 67v12q17 86 79 86q53 0 53 -59q-15 -113 -15 -141q8 -70 56 -70h4v11
q-38 52 -38 102v35q0 89 110 133q36 8 57 8zM-369 629q-35 109 -85 156l-38 -29l-8 7l45 97q44 -27 68.5 -93t31.5 -135z" />
    <glyph glyph-name="vowelsignpepetcomb_signcecekcom" unicode="&#x1b42;&#x1b02;" 
d="M-493 998h12q178 -16 202 -93q0 -52 -158 -121q-51 -12 -89 -12h-44q-102 0 -206 44q-52 -60 -52 -113q0 -24 81 -52q0 -21 -49 -33h-16q-87 0 -101 113q0 13 8 61q-2 0 -20 -20h-8v4q18 56 52 56h9q12 0 12 -16q-21 -33 -21 -69v-24q0 -34 25 -52v4q-8 26 -12 60
q0 45 44 109q-28 31 -28 37q0 10 12 28q2 0 44 -28q141 117 303 117zM-731 852v-4q82 -20 137 -20h44q95 0 162 69q0 20 -97 28q-91 0 -246 -73zM-53 622q-65 189 -154 268l-66 -52l-13 11l74 170q77 -44 122.5 -158t59.5 -233z" />
    <glyph glyph-name="vowelsignpepetcomb_signsurangco" unicode="&#x1b42;&#x1b03;" 
d="M-493 998h12q178 -16 202 -93q0 -52 -158 -121q-51 -12 -89 -12h-44q-102 0 -206 44q-52 -60 -52 -113q0 -24 81 -52q0 -21 -49 -33h-16q-87 0 -101 113q0 13 8 61q-2 0 -20 -20h-8v4q18 56 52 56h9q12 0 12 -16q-21 -33 -21 -69v-24q0 -34 25 -52v4q-8 26 -12 60
q0 45 44 109q-28 31 -28 37q0 10 12 28q2 0 44 -28q141 117 303 117zM-731 852v-4q82 -20 137 -20h44q95 0 162 69q0 20 -97 28q-91 0 -246 -73zM16 649q-137 0 -221 115q-83 123 -108 302l70 -20q22 -146 89 -253q65 -124 205 -116l6 -26q-21 -2 -41 -2z" />
    <glyph glyph-name="vowelsignpepetcomb_signcecekcom" unicode="&#x1b42;&#x1b02;&#x1b03;" 
d="M-35 1009q-208 -15 -329 93q-104 101 -136 248l73 -12q43 -124 117 -210q95 -107 279 -103zM-493 998h12q178 -16 202 -93q0 -52 -158 -121q-51 -12 -89 -12h-44q-102 0 -206 44q-52 -60 -52 -113q0 -24 81 -52q0 -21 -49 -33h-16q-87 0 -101 113q0 13 8 61q-2 0 -20 -20
h-8v4q18 56 52 56h9q12 0 12 -16q-21 -33 -21 -69v-24q0 -34 25 -52v4q-8 26 -12 60q0 45 44 109q-28 31 -28 37q0 10 12 28q2 0 44 -28q141 117 303 117zM-731 852v-4q82 -20 137 -20h44q95 0 162 69q0 20 -97 28q-91 0 -246 -73zM-53 622q-65 189 -154 268l-66 -52l-13 11
l74 170q77 -44 122.5 -158t59.5 -233z" />
    <glyph glyph-name="signcecekcomb_signsurangcombbal" unicode="&#x1b02;&#x1b03;" 
d="M-173 609q-118 226 -263 313l-97 -72l-21 12l99 220q123 -46 203.5 -182t114.5 -282zM-315 622q-202 0 -327 106q-123 114 -160 279l104 -18q32 -135 131 -234q97 -114 304 -107l9 -24q-31 -2 -61 -2z" />
    <glyph glyph-name="kabali.td" unicode="&#x1b13;&#x1b35;" horiz-adv-x="1393" 
d="M1092 515h5q177 0 242 -197q4 -31 4 -50v-35q-35 -229 -201 -229h-18q-99 0 -99 72v9q0 40 54 45h9q11 0 103 -36h4q71 0 94 103q5 24 5 49q0 129 -161 175q-30 4 -58 4q-132 0 -184 -143q-45 -242 -85 -242q-35 -27 -85 -27h-45q-6 0 -13 14q7 21 31 40q54 87 54 179
q-21 166 -157 166q0 4 -40 4h-4q-148 0 -148 -134q228 -29 228 -166v-13q-17 -103 -103 -103h-13q-150 0 -184 201h-26q-9 -1 -9 -9v-40q0 -148 -90 -148q-112 19 -112 103v18q0 99 117 143q17 9 31 9v9q0 161 -45 161q-7 5 -22 5h-5q-40 0 -40 -81v-44q0 -35 -27 -50h-4
q-45 0 -45 63v36q0 90 116 130h23q98 0 98 -117q5 0 5 -71v-32h35q0 112 90 179q62 41 134 41q166 0 228 -166q14 -74 14 -98q0 -60 -32 -153h5q34 0 58 126q0 111 67 210q73 90 201 90zM399 197q29 -148 130 -148q30 8 40 32v4q0 83 -170 112zM148 116q0 -44 36 -44h18
q28 0 36 89v31h-5q-54 0 -85 -76z" />
    <glyph glyph-name="gabali.td" unicode="&#x1b15;&#x1b35;" horiz-adv-x="1439" 
d="M550 515q181 0 255 -158q14 -37 14 -68v-27q0 -92 -74 -185v-5q91 0 107 149q0 101 69 204q75 90 209 90h4q184 0 250 -199q5 -31 5 -49v-37q-35 -230 -213 -230q-116 0 -116 68v13q9 45 46 45h10q28 0 120 -36h5q62 0 88 95q9 0 9 59q0 128 -162 176q-40 5 -65 5
q-181 0 -213 -249q-21 -162 -144 -162q-22 -5 -60 -5q-8 0 -56 5v9l70 72q69 75 69 149v14q0 131 -190 153h-55q-209 0 -209 -172q0 -72 121 -203v-9q-5 -13 -28 -13h-46q-209 21 -209 167q0 10 -4 18q18 175 18 208v13q0 24 -18 32h-19q-11 -2 -23 -41l4 -9v-4
q0 -46 10 -91q0 -28 -23 -40h-19q-37 25 -37 90v13q20 140 125 140q83 -10 83 -67v-32q0 -38 -27 -208q0 -73 60 -99q14 -9 56 -18v4q-65 79 -65 154v32q0 163 180 230q72 9 88 9z" />
    <glyph glyph-name="gagorabali.td" unicode="&#x1b16;&#x1b35;" horiz-adv-x="1496" 
d="M177 515q76 -17 76 -68v-13q-27 -197 -27 -222v-9q0 -87 77 -117q14 0 14 4q-46 85 -46 159v27q0 156 141 226q45 9 54 9l49 -14v-13q-108 -129 -108 -249v-14q0 -103 77 -122h9q49 0 108 141q19 18 36 18h14q22 0 59 -113q20 -33 59 -50q76 0 76 117q0 192 -180 231v13
q27 50 90 50h23q117 0 176 -135h4q67 144 235 144h5q179 0 244 -199q4 -31 4 -49v-37q-34 -230 -208 -230q-112 0 -112 68v13q8 46 45 46h18q14 0 108 -37h5q60 0 86 95q9 0 9 59q0 128 -159 176q-39 5 -67 5q-129 0 -195 -163l-13 -13h-18q-14 0 -41 94q-45 77 -99 77h-5
q91 -89 91 -221q-22 -194 -127 -194q-68 0 -95 67q-20 68 -36 68q-17 0 -77 -108q-35 -18 -59 -18q-140 27 -140 203v13q0 112 82 226q-97 0 -118 -180v-9q0 -81 59 -231v-4q-7 -18 -32 -18h-9q-88 0 -172 113q-13 48 -13 94l18 199q-8 41 -27 41q-26 0 -32 -50
q9 -74 9 -117q0 -7 -18 -18h-18q-36 25 -36 90v23q21 126 127 126z" />
    <glyph glyph-name="cabali.td" unicode="&#x1b18;&#x1b35;" horiz-adv-x="1340" 
d="M1035 518h5q180 0 245 -200q5 -31 5 -50v-36q-35 -232 -209 -232h-9q-88 0 -105 64v18q9 45 46 45h18l113 -36q61 0 87 95q9 0 9 59q0 129 -159 177q-40 5 -68 5q-131 0 -195 -164l-14 -13h-18q-7 0 -18 18v27q0 106 -114 146q-24 4 -45 4h-5q109 -72 109 -195
q-13 -183 -154 -236q-18 -9 -50 -9h-32q-97 0 -186 99q-80 -95 -146 -95q-95 18 -95 91v4q0 107 114 146q18 4 31 4q27 0 96 -31q45 90 45 145v13q0 69 -86 82q-105 0 -105 -131v-23q-6 -41 -41 -41q-44 0 -49 73q0 115 131 163q30 9 41 9h41q136 -14 136 -109v-27
q0 -69 -59 -204q100 -96 168 -96h5q122 0 141 155v18q0 142 -187 204l-4 9q28 46 118 46h45q114 0 177 -118q68 127 227 127zM123 132q0 -32 41 -46q38 0 81 64q-48 36 -72 36q-50 -16 -50 -54z" />
    <glyph glyph-name="calacabali.td" unicode="&#x1b19;&#x1b35;" horiz-adv-x="1236" 
d="M253 518h17q134 0 173 -95q17 -48 30 -268q21 -69 117 -69q125 0 125 164q0 201 142 251q49 13 78 13h17q164 0 229 -186l5 -52v-26q0 -158 -151 -220q-23 -4 -44 -4h-17q-95 0 -95 69v9q0 43 65 43q87 -35 99 -35h9q86 25 86 130v8q0 127 -142 173q-30 4 -48 4h-39
q-110 0 -138 -181q0 -184 -91 -229q-46 -17 -86 -17h-9q-172 0 -172 216q0 199 -69 211q-29 18 -69 18h-13q-165 0 -165 -229q0 -138 57 -138h21q52 0 52 103q-4 59 -4 100l8 4h39q6 0 13 -13v-130q0 -129 -103 -129h-13q-104 11 -104 82q-12 25 -13 95v22q0 228 99 280
q51 26 104 26z" />
    <glyph glyph-name="jajerabali.td" unicode="&#x1b1b;&#x1b35;" horiz-adv-x="1741" 
d="M794 -802l-43 1q-112 2 -172 262q-20 39 -27 39l-24 1q-21 0 -79 -162q-53 -117 -165 -117q-182 0 -209 253q-4 19 -4 39q4 225 197 337q60 26 320 75q187 55 190 260q6 0 6 36q0 139 -82 191q-19 11 -54 11q-63 0 -115 -118h-5q-73 122 -117 122l-15 1q-88 0 -106 -133
l-1 -41q0 -109 134 -215q0 -13 -81 -28q-187 23 -187 176q0 88 19 254q0 43 -33 44q-14 -17 -15 -33l2 -149l-19 -14h-10q-31 18 -31 88v33q23 132 91 132h26q56 -1 60 -97q-17 -158 -17 -183t-1 -52q9 -115 74 -116q-45 82 -45 169l1 47q26 238 131 238l35 -1
q81 -1 107 -146h5q37 142 120 142q121 0 168 -238q4 -61 4 -72q-6 -322 -241 -428q-113 -36 -297 -66q-148 -56 -151 -189l-1 -53q0 -113 83 -160l64 -15q115 0 159 203q46 109 91 109l10 -1q77 -1 143 -266q33 -59 101 -59q102 0 146 251q32 221 36 427q-3 455 -58 456
q-118 2 -174 147q0 15 -4 34q12 71 63 71l14 -1q84 -1 140 -170q12 0 83 85q26 4 38 4q62 -19 68 -150l-1 -72q-1 -63 -30 -81q-10 17 -20 192q-11 39 -18 39h-10l-78 -90q48 -231 48 -449v-41q-9 -519 -146 -726q-55 -37 -91 -37zM915 505v5q-45 106 -91 107q-6 0 -13 -13
l-1 -18q28 -79 105 -81zM1419 530q197 0 263 -195q9 -21 9 -61v-28q0 -172 -170 -241q-41 -5 -68 -5q-112 12 -112 74q8 56 54 56h19l117 -37h5q102 26 102 153q0 141 -175 186q-32 5 -64 5q-118 0 -228 -135h-10l-5 9v14q44 205 263 205z" />
    <glyph glyph-name="talatikbali.td" unicode="&#x1b1d;&#x1b35;" horiz-adv-x="1088" 
d="M176 530q80 -12 80 -76v-5q0 -22 -31 -219q8 -36 18 -36h9l49 89q39 32 58 32h36q27 -16 27 -54v-13q0 -98 -94 -139q-28 -9 -45 -9v-27q0 -121 90 -121h27q64 0 116 166l9 4h5l4 -27q-24 -215 -157 -215q-100 0 -139 130q0 29 -4 58q4 18 4 32q-85 32 -85 121v9
q0 24 27 219q-8 27 -31 27q-32 -8 -32 -40v-23q0 -44 9 -89q0 -28 -22 -41h-18q-36 23 -36 99v9q0 102 103 139h23zM447 530q76 0 134 -103h5q74 90 183 90h27q170 0 238 -193l4 -54v-27q0 -183 -179 -237h-27q-112 0 -112 76v4q0 30 45 50q23 0 125 -41h5q94 23 94 153
q0 117 -130 165q-29 14 -72 14h-18q-120 0 -192 -139q-9 0 -54 85q-46 63 -85 63h-27q-51 0 -90 -76h-4q-9 0 -9 9q0 137 125 161h14zM297 185h4q72 0 72 54v13h-14q-42 0 -62 -67z" />
    <glyph glyph-name="tamurdamahapranabali.td" unicode="&#x1b1e;&#x1b35;" horiz-adv-x="1114" 
d="M186 529q57 0 72 -76v-9q0 -26 -36 -236q-5 -32 -5 -36q0 -87 73 -100h9q62 0 145 73h4q9 -2 9 -9q0 -76 -131 -131q-4 0 -36 -5q-125 0 -145 163v13l36 254v9q0 27 -27 36q-36 0 -36 -41v-9q0 -55 9 -104q0 -28 -23 -40h-18q-36 22 -36 99v9q0 103 104 140h32zM466 529
q79 0 132 -104h4q82 91 204 91h13q151 0 227 -158q18 -46 18 -91v-27q0 -185 -181 -240h-36q-88 0 -105 63v18q0 31 46 50q22 0 126 -40h5q95 22 95 153q0 124 -145 172q-19 9 -72 9q-134 0 -195 -140h-9q-17 15 -45 82q-54 67 -100 67h-18q-49 0 -95 -76h-9v18
q17 153 140 153z" />
    <glyph glyph-name="damurdaalpapranabali.td" unicode="&#x1b1f;&#x1b35;" horiz-adv-x="1179" 
d="M893 524q156 0 227 -175q9 -41 9 -65v-26q0 -162 -153 -223q-7 -4 -48 -9q-109 0 -109 66v17q0 44 61 44q88 -35 100 -35h9q78 0 92 135v9q0 119 -140 166q-19 9 -70 9h-9q-112 0 -144 -123v-100q0 -173 -92 -205q-28 -9 -39 -9h-22q-72 0 -109 122l-17 5q-12 -1 -57 -92
q-36 -35 -70 -35h-4q-137 0 -158 197q18 164 18 205v4q0 31 -31 31q-26 -13 -26 -44q5 -45 13 -96q0 -27 -22 -39h-4q-48 0 -48 87v22q26 122 109 122h13q79 -12 79 -74v-18l-22 -200v-49q14 -69 66 -69q54 0 100 113q23 35 57 35q32 0 70 -109q32 -39 65 -39q74 0 74 100
v131q0 175 184 210q16 4 48 4z" />
    <glyph glyph-name="narambatbali.td" unicode="&#x1b21;&#x1b35;" horiz-adv-x="1399" 
d="M309 522q98 0 127 -155q14 -19 19 -19h19q22 19 70 118q35 52 94 52q113 0 142 -212q0 -106 -57 -231q85 28 85 99q31 224 84 259q62 89 208 89q163 0 235 -174q14 -38 14 -80v-28q-31 -240 -212 -240h-4q-109 0 -109 75q0 57 66 57q94 -38 108 -38h10q71 0 89 137v14
q0 154 -188 183h-33q-140 0 -188 -141q-46 -254 -99 -254q-7 -19 -89 -24h-33q-7 0 -15 15v4q0 20 71 174q14 91 14 99q-21 118 -94 118h-14q-48 0 -122 -146q-20 -19 -38 -19h-24q-28 1 -103 160q-16 10 -28 10h-19q-46 0 -85 -137q-35 -38 -61 -38h-10q-78 0 -89 113v15
q8 84 28 84q12 0 24 -117q10 -14 33 -24q42 0 75 127q43 75 99 75z" />
    <glyph glyph-name="tabali.td" unicode="&#x1b22;&#x1b35;" horiz-adv-x="1399" 
d="M173 520q91 -11 91 -92l-32 -237q0 -67 82 -95q25 -5 41 -5h55q109 0 109 69v9q0 22 -141 50q-59 37 -59 91v9q0 140 150 191q20 10 73 10h9q139 0 210 -142q23 -49 23 -100q0 -81 -50 -201h9q48 0 77 128q0 246 210 310q45 5 68 5q180 0 246 -201q5 -31 5 -50v-37
q-35 -232 -210 -232q-114 0 -114 68v14q9 46 46 46h9q27 0 119 -37h4q61 0 87 96q9 0 9 59q0 132 -164 178q-39 4 -59 4q-140 0 -192 -159q-39 -228 -77 -228q-34 -32 -105 -32h-28l-18 14q78 134 78 241q0 142 -196 164h-19q-123 0 -145 -86q0 -46 91 -46q118 -32 118 -118
v-14q0 -102 -105 -141q-47 -14 -95 -14q-165 0 -214 128q-10 41 -10 59v18q0 39 23 219q0 32 -32 32q-32 -10 -32 -41v-14q0 -27 9 -105q-9 -28 -22 -32h-5q-50 0 -50 101v4q19 137 114 137q0 5 9 5z" />
    <glyph glyph-name="tatawabali.td" unicode="&#x1b23;&#x1b35;" horiz-adv-x="1308" 
d="M178 515q88 -12 88 -71v-9q-22 -190 -22 -216q0 -99 163 -114q22 -5 57 -5q164 0 164 128q0 89 -97 115l-115 22q0 67 84 128q40 17 83 17q132 0 199 -145q85 128 207 128h40q154 0 225 -190l4 -53v-26q-30 -234 -203 -234q-110 0 -110 66v13q0 33 48 49q18 0 120 -40h4
q93 22 93 150q0 120 -137 168q-19 8 -71 8h-4q-142 0 -199 -158q-2 0 -22 -18h-8q-15 0 -53 128q-54 62 -115 62q-17 0 -66 -14v-8q141 -42 141 -141q4 0 4 -36q0 -142 -171 -194q-55 -4 -58 -4q-197 0 -269 123q-17 37 -17 75v27l17 176q-8 40 -35 40q-24 0 -31 -49
q5 -44 13 -92q0 -44 -35 -44q-34 0 -44 92v9q16 137 128 137zM463 231q68 0 140 -124q44 -93 44 -132l-8 -4q-66 107 -108 156q-39 40 -60 40q-10 -32 -16 -32t-12 12v44q0 31 20 40z" />
    <glyph glyph-name="dabali.td" unicode="&#x1b24;&#x1b35;" horiz-adv-x="1347" 
d="M181 518h31q90 -14 90 -81q0 -38 -103 -252q-6 -8 -9 -45q3 -50 40 -50h14q37 0 117 135q45 41 58 41v67q0 127 122 176q32 9 67 9q157 0 207 -131q80 126 234 126q178 0 243 -198q5 -31 5 -49v-36q-34 -230 -207 -230q-113 0 -113 68v13q9 45 45 45h9q27 0 117 -36h5
q60 0 85 95q9 0 9 58q0 130 -162 176q-31 4 -54 4q-142 0 -207 -171l-18 -9q-20 9 -22 18v5q0 171 -153 171h-27q-122 0 -122 -131v-22q148 0 194 -113q9 -45 9 -58q0 -80 -104 -99q-111 0 -148 175h-5q-92 -166 -130 -166q-8 -5 -23 -5h-27q-135 17 -135 135q0 57 95 239
q9 29 9 40q0 25 -23 36h-9q-47 0 -67 -144l-18 -13h-23q-27 15 -27 40v27q32 140 131 140zM496 203v-5q22 -126 99 -126q0 -4 9 -4q27 0 31 36v4q-21 95 -126 95h-13z" />
    <glyph glyph-name="damadubali.td" unicode="&#x1b25;&#x1b35;" horiz-adv-x="1325" 
d="M162 516h14q80 -11 80 -81v-9l-27 -233q11 -99 63 -99h9q59 0 103 117q23 31 45 31q50 0 86 -112q31 -36 58 -36h18q67 0 67 117v4q0 144 -188 225v9q33 58 107 58h18q122 0 171 -130q95 139 224 139h18q145 0 229 -157q18 -56 18 -94v-27q-30 -238 -206 -238
q-113 0 -113 67v14q0 33 50 49q21 0 107 -36q8 -4 18 -4q95 25 95 148q0 131 -148 179q-31 5 -50 5h-18q-142 0 -202 -162l-13 -13h-18q-11 0 -36 99q-46 76 -103 76h-32v-5q113 -72 113 -184v-22q0 -168 -108 -198q-7 -4 -27 -4q-77 0 -121 126q-8 4 -18 4q-9 0 -58 -99
q-36 -31 -59 -31h-13q-108 0 -157 144q0 34 -5 62q18 176 18 207v4q0 36 -31 36q-19 0 -27 -49q9 -83 13 -94q0 -28 -22 -41h-18q-36 26 -36 90v22q26 126 112 126z" />
    <glyph glyph-name="nabali.td" unicode="&#x1b26;&#x1b35;" horiz-adv-x="1302" 
d="M189 518q102 0 102 -138v-81h36q0 130 112 193q44 26 116 26q151 0 214 -143h5q66 134 223 134q172 0 242 -165q13 -48 13 -80v-36q-34 -228 -206 -228q-111 0 -111 67v13q0 30 44 50q23 0 126 -41h4q60 0 85 94q9 0 9 58q0 122 -143 170q-19 9 -72 9q-139 0 -205 -165
l-9 -5h-9q-13 9 -49 116q-60 67 -174 67q-143 0 -143 -138q227 -33 227 -152v-27q0 -88 -116 -103q-149 0 -183 201h-27q-9 -1 -9 -8v-41q0 -147 -94 -147q-107 28 -107 103v31q0 91 148 143v18q0 133 -36 147l-22 5h-14q-40 0 -40 -81v-44q-3 -50 -36 -50q-40 10 -40 76v23
q30 129 130 129h9zM399 214q13 -86 62 -129q41 -18 49 -18h32q26 16 26 40q0 68 -169 107zM148 130q5 -45 41 -45q49 0 49 98v23h-5q-85 -25 -85 -76z" />
    <glyph glyph-name="pabali.td" unicode="&#x1b27;&#x1b35;" horiz-adv-x="1228" 
d="M932 519q177 0 242 -197q4 -30 4 -49v-27q-13 -179 -152 -228q-33 -9 -67 -9q-99 11 -99 67v9q0 54 58 54q35 -8 108 -41q88 0 103 144v9q0 125 -152 174q-21 9 -59 9q-145 0 -183 -103q-18 -207 -54 -237q-25 -49 -112 -81q-42 -13 -76 -13h-31q-219 0 -287 143
q-9 42 -9 67v18q18 153 18 188q0 32 -31 32h-9q-22 -9 -22 -50q9 -94 9 -112l-23 -17h-4q-54 0 -54 98q18 134 130 134h4q85 -7 85 -58l-27 -242q0 -96 238 -116q154 0 179 99q13 198 49 219q66 116 224 116z" />
    <glyph glyph-name="bakembangbali.td" unicode="&#x1b2a;&#x1b35;" horiz-adv-x="1325" 
d="M185 516h13q112 -13 112 -81v-22q0 -143 -98 -162h-14q31 120 31 153v18q-6 45 -44 45q-47 0 -63 -148l-18 -14h-27q-27 14 -27 49v5q0 110 103 153zM575 516q159 0 220 -130h4q71 130 229 130q145 0 229 -157q18 -56 18 -94v-27q-30 -238 -206 -238q-113 0 -113 67v14
q0 33 50 49q21 0 107 -36q8 -4 18 -4q95 25 95 148q0 131 -148 179q-31 5 -50 5h-18q-142 0 -202 -162l-13 -13h-18q-15 0 -27 99q-55 89 -179 89q-93 0 -126 -63q-9 -48 -9 -85h4q156 0 207 -103q0 -6 9 -49q-16 -122 -99 -122q0 -4 -9 -4q-111 0 -148 175
q-34 -35 -85 -130q-39 -41 -94 -41h-5q-144 24 -144 126q0 98 86 117l4 -9l-18 -99q0 -63 59 -63h4q48 0 130 157q45 33 45 36v63q0 125 126 166q38 9 67 9zM449 211q0 -76 72 -144q29 -9 41 -9q39 0 44 59q0 80 -130 94h-27z" />
    <glyph glyph-name="mabali.td" unicode="&#x1b2b;&#x1b35;" horiz-adv-x="1125" 
d="M301 519q145 0 145 -18v-68l-4 -9l-23 4h-41q-182 0 -182 -86q0 -60 150 -60h55q7 0 18 -18v-23q-7 -18 -32 -18h-105q-91 0 -91 -64q0 -68 169 -77h36q151 0 151 82q35 224 72 255q67 100 215 100q158 0 227 -168q14 -37 14 -78v-32q-33 -227 -210 -227q-104 0 -104 73
v9q0 45 63 45q93 -36 105 -36q82 0 96 132v14q0 149 -182 177h-32q-132 0 -178 -127q-39 -233 -73 -233q-55 -68 -177 -68h-14q-190 0 -232 132l-5 32q0 55 55 100q-46 33 -46 73v9q0 67 91 105v5h-4q-110 0 -110 -96q5 -31 5 -50q-7 -50 -32 -50q-41 0 -41 73v9
q0 105 118 164q67 13 133 13z" />
    <glyph glyph-name="yabali.td" unicode="&#x1b2c;&#x1b35;" horiz-adv-x="1393" 
d="M1098 517q176 0 240 -190l5 -55v-27q0 -162 -154 -227q-31 -4 -50 -4h-5q-104 0 -104 72v5q0 50 59 50l109 -37h9q69 0 86 132v14q0 148 -181 176h-32q-130 0 -177 -113q-13 -31 -36 -200q-26 -79 -82 -104q-41 -9 -59 -9q-112 0 -150 82q-27 78 -36 190h-9v-4
q-41 -218 -82 -218q-35 -41 -109 -41q-181 19 -181 182l36 222v4q0 33 -23 41h-18q-33 0 -40 -45q13 -82 13 -104v-14q0 -7 -18 -18h-14q-45 30 -45 100v9q0 90 95 122q24 5 46 5q77 0 81 -87v-9q0 -32 -31 -240q0 -82 118 -82q116 0 145 363q12 30 27 37h14q22 0 54 -259
q32 -150 118 -150q94 0 109 114q0 248 195 308q36 9 77 9z" />
    <glyph glyph-name="rabali.td" unicode="&#x1b2d;&#x1b35;" horiz-adv-x="1222" 
d="M477 516h5q156 0 213 -124v-9q82 124 232 124q174 0 240 -195q5 -31 5 -49v-36q-34 -227 -205 -227q-111 0 -111 67v13q9 45 44 45h9q25 0 116 -36h4q60 0 85 94q9 0 9 57q0 128 -160 174q-6 0 -45 4q-152 0 -214 -169q-10 -9 -17 -9q-24 0 -49 98q-45 85 -143 85h-9
q-80 0 -102 -67l-27 -187q0 -67 -89 -138q-51 -18 -89 -18q-31 6 -31 18v22q49 144 67 223q0 53 4 53q0 112 -76 138h-8q-18 -8 -18 -26q0 -11 22 -103v-9q0 -23 -13 -26h-14q-62 17 -62 107v8q0 84 102 94q89 0 125 -102q9 -20 9 -72q0 -106 -58 -258h5q89 21 89 138v138
q0 160 155 160z" />
    <glyph glyph-name="labali.td" unicode="&#x1b2e;&#x1b35;" horiz-adv-x="1336" 
d="M437 520h26q83 0 94 -115q-13 -104 -13 -160v-23q0 -85 84 -115q40 -5 40 -9q138 0 138 147q0 196 155 253q42 9 67 9h27q160 0 222 -191q9 -20 9 -71v-5q0 -161 -151 -236q-31 -4 -49 -4h-5q-102 0 -102 84q0 23 45 45q15 0 124 -40h9q76 34 76 102q4 0 4 27v22
q0 131 -147 178q-23 4 -44 4h-22q-174 0 -174 -244q-33 -147 -106 -147q-18 -13 -85 -13q-160 21 -160 160q-4 0 -4 40q0 47 4 124q0 80 -67 80h-4q-102 -19 -102 -151q0 -69 71 -222v-13q-3 -14 -36 -14q-152 0 -204 125q-9 57 -9 75l18 196q-2 40 -36 40q-18 -18 -18 -49
q0 -39 9 -98q-5 -35 -18 -35h-17q-36 20 -36 89v13q20 133 107 133h13q64 0 76 -80l-23 -200q0 -89 58 -129q40 -13 54 -13q-49 110 -49 200q24 231 151 231z" />
    <glyph glyph-name="wabali.td" unicode="&#x1b2f;&#x1b35;" horiz-adv-x="1308" 
d="M178 515q88 -12 88 -71v-9q-22 -190 -22 -216q0 -99 163 -114q22 -5 57 -5q164 0 164 128q0 89 -97 115l-115 22q0 67 84 128q40 17 83 17q132 0 199 -145q85 128 207 128h40q154 0 225 -190l4 -53v-26q-30 -234 -203 -234q-110 0 -110 66v13q0 33 48 49q18 0 120 -40h4
q93 22 93 150q0 120 -137 168q-19 8 -71 8h-4q-142 0 -199 -158q-2 0 -22 -18h-8q-15 0 -53 128q-54 62 -115 62q-17 0 -66 -14v-8q141 -42 141 -141q4 0 4 -36q0 -142 -171 -194q-55 -4 -58 -4q-197 0 -269 123q-17 37 -17 75v27l17 176q-8 40 -35 40q-24 0 -31 -49
q5 -44 13 -92q0 -44 -35 -44q-34 0 -44 92v9q16 137 128 137z" />
    <glyph glyph-name="sasagabali.td" unicode="&#x1b30;&#x1b35;" horiz-adv-x="1439" 
d="M597 27q-49 157 -121 223l-55 -41l-11 10l65 138q62 -38 97 -132.5t45 -193.5zM550 515q181 0 255 -158q14 -37 14 -68v-27q0 -92 -74 -185v-5q91 0 107 149q0 101 69 204q75 90 209 90h4q184 0 250 -199q5 -31 5 -49v-37q-35 -230 -213 -230q-116 0 -116 68v13
q9 45 46 45h10q28 0 120 -36h5q62 0 88 95q9 0 9 59q0 128 -162 176q-40 5 -65 5q-181 0 -213 -249q-21 -162 -144 -162q-22 -5 -60 -5q-8 0 -56 5v9l70 72q69 75 69 149v14q0 131 -190 153h-55q-209 0 -209 -172q0 -72 121 -203v-9q-5 -13 -28 -13h-46q-209 21 -209 167
q0 10 -4 18q18 175 18 208v13q0 24 -18 32h-19q-11 -2 -23 -41l4 -9v-4q0 -46 10 -91q0 -28 -23 -40h-19q-37 25 -37 90v13q20 140 125 140q83 -10 83 -67v-32q0 -38 -27 -208q0 -73 60 -99q14 -9 56 -18v4q-65 79 -65 154v32q0 163 180 230q72 9 88 9z" />
    <glyph glyph-name="sasapabali.td" unicode="&#x1b31;&#x1b35;" horiz-adv-x="1228" 
d="M511 236h11q56 0 131 -225q6 -20 6 -33v-11q0 -11 -5 -27h-3q-100 224 -131 224q-13 -8 -24 -53h-2q-30 25 -30 43v13q0 41 39 67zM932 519q177 0 242 -197q4 -30 4 -49v-27q-13 -179 -152 -228q-33 -9 -67 -9q-99 11 -99 67v9q0 54 58 54q35 -8 108 -41q88 0 103 144v9
q0 125 -152 174q-21 9 -59 9q-145 0 -183 -103q-18 -207 -54 -237q-25 -49 -112 -81q-42 -13 -76 -13h-31q-219 0 -287 143q-9 42 -9 67v18q18 153 18 188q0 32 -31 32h-9q-22 -9 -22 -50q9 -94 9 -112l-23 -17h-4q-54 0 -54 98q18 134 130 134h4q85 -7 85 -58l-27 -242
q0 -96 238 -116q154 0 179 99q13 198 49 219q66 116 224 116z" />
    <glyph glyph-name="sabali.td" unicode="&#x1b32;&#x1b35;" horiz-adv-x="1234" 
d="M931 515h5q179 0 243 -199q5 -31 5 -49v-37q-35 -230 -208 -230q-113 0 -113 68v13q9 46 45 46h18q15 0 109 -37h4q61 0 86 95q9 0 9 59q0 128 -158 176q-39 5 -68 5q-124 0 -176 -136q-25 -212 -77 -235q-59 -54 -149 -54q-118 0 -212 99q-84 -90 -149 -90q-86 0 -95 99
v5q37 140 140 140q37 0 104 -41q45 86 45 154v23q0 54 -95 72q-92 0 -99 -104v-54q0 -36 -36 -36q-54 0 -54 67q0 149 189 177h18q129 0 149 -113v-14q0 -92 -67 -212q110 -104 167 -104q86 0 126 72q16 34 46 208q71 167 248 167zM122 117v-13q9 -23 32 -23q49 0 95 59
q-24 27 -63 41q-64 -20 -64 -64z" />
    <glyph glyph-name="habali.td" unicode="&#x1b33;&#x1b35;" horiz-adv-x="1399" 
d="M171 517q59 0 72 -59v-22l-22 -243q0 -99 126 -99t126 108q-5 16 -9 162q0 90 67 130q45 18 76 18h23q118 0 162 -125l13 -90q0 -104 -63 -221h9q65 0 95 257q67 179 256 179q176 0 243 -197q4 -31 4 -50v-36q-34 -229 -207 -229h-9q-103 0 -103 72v9q9 45 45 45h18
l108 -36h4q78 0 95 144q0 122 -122 171q-26 13 -85 18q-155 0 -202 -153q-40 -239 -90 -239q-31 -22 -90 -22h-18q-24 0 -27 13v5q76 160 76 189q5 46 5 72q0 106 -72 139q-45 4 -45 9q-117 0 -117 -117q9 -100 9 -171q0 -84 -99 -121l-76 -9q-194 0 -194 175q0 19 23 203
q-9 62 -27 62h-14q-19 0 -22 -53q9 -87 9 -122l-23 -18q-49 0 -49 95v18q0 96 85 134q18 5 36 5z" />
    <glyph glyph-name="kafsasakbali.td" unicode="&#x1b45;&#x1b35;" horiz-adv-x="1393" 
d="M299 347h26q3 -1 3 -4v-234q0 -148 10 -197q35 -82 110 -82h17q68 0 100 97q3 21 8 21h4q20 0 20 -5q0 -70 -50 -147q-35 -41 -87 -41h-17q-108 0 -141 156q-6 46 -6 89v343q0 4 3 4zM1092 515h5q177 0 242 -197q4 -31 4 -50v-35q-35 -229 -201 -229h-18q-99 0 -99 72v9
q0 40 54 45h9q11 0 103 -36h4q71 0 94 103q5 24 5 49q0 129 -161 175q-30 4 -58 4q-132 0 -184 -143q-45 -242 -85 -242q-35 -27 -85 -27h-45q-6 0 -13 14q7 21 31 40q54 87 54 179q-21 166 -157 166q0 4 -40 4h-4q-148 0 -148 -134q228 -29 228 -166v-13
q-17 -103 -103 -103h-13q-150 0 -184 201h-26q-9 -1 -9 -9v-40q0 -148 -90 -148q-112 19 -112 103v18q0 99 117 143q17 9 31 9v9q0 161 -45 161q-7 5 -22 5h-5q-40 0 -40 -81v-44q0 -35 -27 -50h-4q-45 0 -45 63v36q0 90 116 130h23q98 0 98 -117q5 0 5 -71v-32h35
q0 112 90 179q62 41 134 41q166 0 228 -166q14 -74 14 -98q0 -60 -32 -153h5q34 0 58 126q0 111 67 210q73 90 201 90zM399 197q29 -148 130 -148q30 8 40 32v4q0 83 -170 112zM148 116q0 -44 36 -44h18q28 0 36 89v31h-5q-54 0 -85 -76z" />
    <glyph glyph-name="khotsasakbali.td" unicode="&#x1b46;&#x1b35;" horiz-adv-x="1934" 
d="M183 517q99 0 99 -134v-77h31q6 0 21 86q59 125 194 125h8q154 0 211 -147q22 -60 22 -193q28 -91 138 -91q120 0 120 99q-4 145 -4 194q0 84 77 120q30 12 74 18q128 0 176 -112q13 -45 13 -91v-13q0 -116 -60 -228h4q67 0 91 224q35 121 107 159q59 35 121 35h26
q166 0 228 -190q4 -29 4 -47v-26q-29 -228 -198 -228h-9q-83 0 -99 60v17q0 29 43 48q21 0 121 -39h4q91 22 91 146q0 121 -147 168q-29 5 -47 5h-17q-133 0 -181 -147q-35 -236 -108 -236q0 -10 -64 -13h-18q-22 0 -25 13v4q77 160 77 215v52q0 142 -133 142
q-104 0 -104 -129q9 -45 9 -134q0 -159 -151 -159h-51q-160 18 -160 155v90q0 177 -193 177q-114 0 -134 -104l-4 -30q219 -26 219 -155v-21q0 -81 -107 -95h-5q-142 0 -176 194h-30q0 -190 -91 -190q-84 0 -107 99v18q0 100 129 146q13 0 13 9v4q0 151 -43 151q0 4 -13 4
h-13q-39 0 -39 -78v-43q-3 -47 -34 -47q-39 9 -39 73v22q29 125 125 125h8zM390 215q26 -116 65 -116q7 -11 51 -22q43 15 43 31v8q0 74 -159 104v-5zM145 142q4 -43 38 -43q48 0 48 86v30h-4q-82 -26 -82 -73z" />
    <glyph glyph-name="tzirsasakbali.td" unicode="&#x1b47;&#x1b35;" horiz-adv-x="1399" 
d="M291 298h26q3 0 3 -3v-202q0 -128 10 -169q35 -71 110 -71h17q68 0 100 83q3 18 8 18h4q20 0 20 -4q0 -60 -50 -127q-35 -35 -87 -35h-17q-108 0 -141 134q-6 40 -6 77v296q0 3 3 3zM173 520q91 -11 91 -92l-32 -237q0 -67 82 -95q25 -5 41 -5h55q109 0 109 69v9
q0 22 -141 50q-59 37 -59 91v9q0 140 150 191q20 10 73 10h9q139 0 210 -142q23 -49 23 -100q0 -81 -50 -201h9q48 0 77 128q0 246 210 310q45 5 68 5q180 0 246 -201q5 -31 5 -50v-37q-35 -232 -210 -232q-114 0 -114 68v14q9 46 46 46h9q27 0 119 -37h4q61 0 87 96
q9 0 9 59q0 132 -164 178q-39 4 -59 4q-140 0 -192 -159q-39 -228 -77 -228q-34 -32 -105 -32h-28l-18 14q78 134 78 241q0 142 -196 164h-19q-123 0 -145 -86q0 -46 91 -46q118 -32 118 -118v-14q0 -102 -105 -141q-47 -14 -95 -14q-165 0 -214 128q-10 41 -10 59v18
q0 39 23 219q0 32 -32 32q-32 -10 -32 -41v-14q0 -27 9 -105q-9 -28 -22 -32h-5q-50 0 -50 101v4q19 137 114 137q0 5 9 5z" />
    <glyph glyph-name="efsasakbali.td" unicode="&#x1b48;&#x1b35;" horiz-adv-x="1081" 
d="M408 272h26q3 0 3 -3v-205q0 -129 10 -172q35 -71 110 -71h17q68 0 100 84q3 19 8 19h4q20 0 20 -5q0 -61 -50 -128q-35 -36 -87 -36h-17q-108 0 -141 136q-6 40 -6 78v300q0 3 3 3zM932 519q177 0 242 -197q4 -30 4 -49v-27q-13 -179 -152 -228q-33 -9 -67 -9
q-99 11 -99 67v9q0 54 58 54q35 -8 108 -41q88 0 103 144v9q0 125 -152 174q-21 9 -59 9q-145 0 -183 -103q-18 -207 -54 -237q-25 -49 -112 -81q-42 -13 -76 -13h-31q-219 0 -287 143q-9 42 -9 67v18q18 153 18 188q0 32 -31 32h-9q-22 -9 -22 -50q9 -94 9 -112l-23 -17h-4
q-54 0 -54 98q18 134 130 134h4q85 -7 85 -58l-27 -242q0 -96 238 -116q154 0 179 99q13 198 49 219q66 116 224 116z" />
    <glyph glyph-name="vesasakbali.td" unicode="&#x1b49;&#x1b35;" horiz-adv-x="1308" 
d="M411 266h26q3 0 3 -3v-177q0 -112 10 -149q35 -62 110 -62h17q68 0 100 73q3 16 8 16h4q20 0 20 -4q0 -53 -50 -111q-35 -31 -87 -31h-17q-108 0 -141 118q-6 35 -6 67v260q0 3 3 3zM178 515q88 -12 88 -71v-9q-22 -190 -22 -216q0 -99 163 -114q22 -5 57 -5
q164 0 164 128q0 89 -97 115l-115 22q0 67 84 128q40 17 83 17q132 0 199 -145q85 128 207 128h40q154 0 225 -190l4 -53v-26q-30 -234 -203 -234q-110 0 -110 66v13q0 33 48 49q18 0 120 -40h4q93 22 93 150q0 120 -137 168q-19 8 -71 8h-4q-142 0 -199 -158q-2 0 -22 -18
h-8q-15 0 -53 128q-54 62 -115 62q-17 0 -66 -14v-8q141 -42 141 -141q4 0 4 -36q0 -142 -171 -194q-55 -4 -58 -4q-197 0 -269 123q-17 37 -17 75v27l17 176q-8 40 -35 40q-24 0 -31 -49q5 -44 13 -92q0 -44 -35 -44q-34 0 -44 92v9q16 137 128 137z" />
    <glyph glyph-name="zalsasakbali.td" unicode="&#x1b4a;&#x1b35;" horiz-adv-x="1234" 
d="M471 236h26q3 0 3 -3v-193q0 -122 10 -162q35 -67 110 -67h17q68 0 100 79q3 18 8 18h4q20 0 20 -5q0 -57 -50 -120q-35 -34 -87 -34h-17q-108 0 -141 128q-6 38 -6 74v282q0 3 3 3zM931 515h5q179 0 243 -199q5 -31 5 -49v-37q-35 -230 -208 -230q-113 0 -113 68v13
q9 46 45 46h18q15 0 109 -37h4q61 0 86 95q9 0 9 59q0 128 -158 176q-39 5 -68 5q-124 0 -176 -136q-25 -212 -77 -235q-59 -54 -149 -54q-118 0 -212 99q-84 -90 -149 -90q-86 0 -95 99v5q37 140 140 140q37 0 104 -41q45 86 45 154v23q0 54 -95 72q-92 0 -99 -104v-54
q0 -36 -36 -36q-54 0 -54 67q0 149 189 177h18q129 0 149 -113v-14q0 -92 -67 -212q110 -104 167 -104q86 0 126 72q16 34 46 208q71 167 248 167zM122 117v-13q9 -23 32 -23q49 0 95 59q-24 27 -63 41q-64 -20 -64 -64z" />
    <glyph glyph-name="asyurasasakbali.td" unicode="&#x1b4b;&#x1b35;" horiz-adv-x="1764" 
d="M230 484h8q114 0 132 -100v-12q0 -65 -56 -192q90 -88 148 -88q124 19 124 116q4 0 4 28v20q0 60 -24 216l8 4h28q83 0 116 -68q12 -32 12 -184v-56q0 -80 96 -80q88 0 116 172q17 180 44 180h8q26 0 48 -216q28 -144 108 -144q92 9 92 88q24 164 72 216q66 72 180 72
q159 0 216 -176q4 -27 4 -44v-32q-31 -204 -184 -204h-8q-77 0 -92 56v16q8 40 40 40h16l100 -32q54 0 76 84q8 0 8 52q0 114 -140 156q-35 4 -60 4q-117 0 -164 -136q-28 -191 -64 -204q-33 -32 -72 -32h-16q-98 0 -128 72q-19 46 -36 172h-4q-18 -133 -60 -192
q-44 -44 -108 -44q-140 17 -140 136v12q4 94 4 140q0 112 -56 112v-4q16 -112 16 -180v-8q0 -131 -136 -180q-18 -8 -52 -8q-106 0 -188 88q-73 -80 -132 -80q-76 0 -84 88v4q29 120 120 120q0 4 4 4q50 -8 92 -36q40 75 40 136v20q0 47 -80 64q-92 0 -92 -92v-48
q0 -22 -20 -32h-16q-39 0 -44 60q23 156 176 156zM114 136v-12q8 -20 28 -20h4q40 0 80 52v4q-41 27 -56 32q-56 -17 -56 -56z" />
    <glyph glyph-name="kamahapranabali.re" unicode="&#x1b14;&#x1b3a;" horiz-adv-x="1439" 
d="M122 471h14q66 0 86 -100q4 -20 6 -105h29q3 0 3 5q0 131 118 183q36 15 89 15q152 0 202 -125q9 -28 9 -87q0 -57 -4 -202q0 -15 12 -15h2q13 0 65 52q28 25 61 25h10q63 0 126 -99v-1q-9 -15 -14 -17q-54 63 -103 63q-21 0 -69 -40q-38 -18 -62 -18h-11q-65 0 -65 75v5
q2 103 2 164q0 105 -68 127q-35 15 -101 15q-117 0 -143 -72q-9 -29 -9 -52h2q89 0 182 -52q66 -43 66 -116q0 -65 -76 -87q-21 -4 -33 -4h-12q-66 0 -131 60q-41 45 -41 121l-4 3q-9 0 -34 -2q0 -135 -42 -163q-22 -17 -48 -17h-12q-48 0 -69 58q-3 10 -5 32q0 96 116 154
q12 2 12 8q0 139 -49 139h-7q-19 0 -24 -29v-6q0 -29 49 -85q-28 -12 -38 -12h-2l-36 42q-21 32 -21 63v22q0 52 48 72q13 3 24 3zM90 99v-2q0 -50 46 -50q30 0 50 48q7 39 7 67q-2 23 -2 32h-1q-100 -33 -100 -95zM303 192q0 -7 -1 -7q0 -64 65 -108q43 -22 88 -22
q50 9 50 32v7q0 63 -176 95q-7 0 -26 3zM783 26h45q4 0 4 -4v-205q0 -234 -86 -305q-57 -67 -214 -102q-41 -7 -72 -7h-37q-177 0 -293 99q-82 91 -82 207v31q0 111 74 182l25 19q43 -15 43 -21q-86 -72 -86 -200q0 -168 181 -228q78 -18 150 -18q229 0 304 137
q40 68 40 335v76q0 4 4 4zM633 -294h11q56 0 131 -225q6 -20 6 -33v-11q0 -11 -5 -27h-3q-100 224 -131 224q-13 -8 -24 -53h-2q-30 25 -30 43v13q0 41 39 67z" />
    <glyph glyph-name="nyabali.re" unicode="&#x1b1c;&#x1b3a;" horiz-adv-x="1514" 
d="M278 -20q49 -13 52 -13v-9q-150 -164 -150 -337q0 -215 242 -296q90 -27 171 -27h41l31 -4q239 0 387 150q72 106 72 217v27q0 120 -93 261q53 22 67 22q98 -143 98 -261v-62q0 -225 -217 -363q-167 -76 -299 -76h-67q-338 0 -469 248q-31 80 -31 151v44q0 172 160 328h5
zM930 -484h11q56 0 131 -225q6 -20 6 -33v-11q0 -11 -5 -27h-3q-100 224 -131 224q-13 -8 -24 -53h-2q-30 25 -30 43v13q0 41 39 67zM179 536q87 -16 87 -74v-23l-23 -213q0 -124 123 -124v4q-77 116 -77 204q0 148 96 208q29 18 68 18h23q72 0 105 -92q5 -9 5 -14
q68 97 100 97q19 0 37 4q99 0 160 -143q9 -69 9 -83q0 -103 -96 -226h32q87 13 87 106q28 198 77 249q74 93 201 93h10q181 0 246 -204q5 -31 5 -50v-37q-35 -236 -210 -236q-115 0 -115 69v14q10 46 46 46h23l110 -37q61 0 87 97q9 0 9 61q0 131 -160 180q-30 4 -60 4
q-182 0 -214 -249q-18 -176 -165 -176q0 -4 -27 -4q-74 6 -74 27q0 22 92 120q46 74 46 148v28q-27 102 -124 102q-65 0 -114 -102l-9 -5h-5q-8 0 -68 84q-28 23 -74 23h-13q-81 0 -101 -120q0 -96 133 -250v-28q-5 -14 -28 -14h-4q-178 0 -247 102q-23 43 -23 102l18 203
v19q0 24 -18 32h-18q-16 0 -23 -51q9 -76 9 -120q0 -7 -18 -19h-18q-37 27 -37 93v14q22 143 119 143z" />
    <glyph glyph-name="khotsasakbali.re" unicode="&#x1b46;&#x1b3a;" horiz-adv-x="1632" 
d="M1286 -476h11q56 0 131 -225q6 -20 6 -33v-11q0 -11 -5 -27h-3q-100 224 -131 224q-13 -8 -24 -53h-2q-30 25 -30 43v13q0 41 39 67zM227 -9q37 -10 37 -22q-219 -181 -219 -365q0 -286 565 -365q57 -5 112 -5h83q401 0 625 223q80 98 80 229v5q0 104 -140 289v6h42
q149 -146 149 -295v-54q0 -180 -210 -332q-256 -131 -536 -131h-103q-567 17 -695 310q-23 59 -23 109v39q0 196 233 359zM188 532q103 0 103 -136v-79h36q27 215 219 215h9q159 0 223 -158q13 -85 22 -201q29 -70 90 -70q0 -5 18 -5h35q121 0 121 88q-5 142 -5 210
q0 118 157 136q192 0 192 -237q0 -136 -67 -227h9q102 0 102 131q0 80 -22 324l9 4h22q121 0 121 -149v-179q0 -67 -4 -184l-9 -4h-36l-9 4q4 152 4 219v48q0 175 -40 175h-9q14 -114 18 -236q0 -157 -62 -188q-58 -22 -103 -22h-18q-34 0 -40 17v18q80 118 80 254
q0 148 -134 148q-111 0 -111 -126q8 -76 8 -162v-13q0 -102 -138 -127h-67q-109 0 -152 83q-18 35 -18 83v79q0 134 -89 162q-20 13 -112 21q-117 0 -138 -105l-5 -30q228 -32 228 -149v-31q0 -84 -111 -96h-18q-97 0 -152 123l-18 74h-31q0 -192 -94 -192h-5
q-107 21 -107 100v18q0 99 125 144q23 3 23 13v13q0 128 -36 145l-22 4h-14q-40 0 -40 -79v-43q0 -49 -40 -49q-36 17 -36 62v35q30 127 130 127h8zM403 230v-5q0 -93 94 -135q23 -5 26 -5q45 6 45 40v4q0 68 -165 101zM148 147q5 -40 36 -40h9q45 0 45 88v30h-5
q-85 -25 -85 -78z" />
    <glyph glyph-name="asyurasasakbali.re" unicode="&#x1b4b;&#x1b3a;" horiz-adv-x="1582" 
d="M1260 -411h11q56 0 131 -225q6 -20 6 -33v-11q0 -11 -5 -27h-3q-100 224 -131 224q-13 -8 -24 -53h-2q-30 25 -30 43v13q0 41 39 67zM325 -9q32 -10 32 -21q-188 -176 -188 -355q0 -278 484 -354q49 -6 96 -6h72q343 0 536 217q68 96 68 223v5q0 101 -120 280v6h36
q128 -141 128 -286v-53q0 -175 -180 -323q-220 -127 -460 -127h-88q-487 16 -596 302q-20 56 -20 106v37q0 190 200 349zM249 531h9q125 0 146 -111v-13q0 -91 -66 -208q105 -102 163 -102q142 20 142 129q4 0 4 26v22q0 60 -26 248h39q138 0 138 -159q4 -37 4 -164v-31
q0 -75 106 -75q96 0 129 190q17 199 48 199h9q27 0 58 -261q29 -137 119 -137q102 0 102 137v22q0 55 -44 252l8 5h58q106 0 137 -168v-53q0 -89 -4 -266l-9 -4h-36l-9 4l9 252q0 142 -75 142h-4q26 -128 26 -199v-22q0 -131 -106 -177q-17 -9 -49 -9h-4q-110 0 -142 80
q-17 23 -39 194h-5q0 -112 -79 -230q-49 -35 -107 -35q-150 22 -150 110l-4 45q4 141 4 163q0 124 -62 124v-4q18 -129 18 -204q0 -161 -168 -208q-24 -4 -45 -4q-111 0 -203 97q-80 -88 -146 -88q-84 0 -93 97v5q32 132 133 132q0 5 4 5q55 -9 102 -40q44 83 44 150v22
q0 52 -88 71q-102 0 -102 -102v-53q0 -35 -35 -35h-5q-43 0 -49 66q26 173 195 173zM121 146v-13q9 -22 31 -22q50 0 93 57q-24 26 -62 40q-62 -19 -62 -62z" />
    <glyph glyph-name=".notdef" horiz-adv-x="600" 
d="M94 0v714h411v-714h-411zM145 663v-612h309v612h-309z" />
    <glyph glyph-name=".null" 
 />
    <glyph glyph-name=".null" 
 />
    <glyph glyph-name="nonmarkingreturn" horiz-adv-x="260" 
 />
    <glyph glyph-name="space" unicode=" " horiz-adv-x="260" 
 />
    <glyph glyph-name="nonbreakingspace" unicode="&#xa0;" horiz-adv-x="260" 
 />
    <glyph glyph-name="signuluricemcombbali" unicode="&#x1b00;" 
d="M-439 1061l32 2q152 9 254 -72q59 -56 65 -130l2 -25q9 -124 -111 -255q-29 16 -46 21v6q97 123 89 232q-8 117 -153 150q-51 10 -98 7q-184 -12 -222 -125q-12 -32 -10 -71l1 -10q6 -71 106 -179q-23 -44 -27 -44q-142 106 -151 229l-3 27q-8 113 123 196q69 36 149 41z
M-387 896q105 6 142 -62q6 -15 7 -29l1 -15q4 -56 -51 -116h-3q-3 -1 -29 21q39 46 36 88v2q-3 42 -49 56q-24 5 -43 4l-15 -1q-74 -4 -87 -67l1 -6q2 -26 43 -79q-17 -26 -20 -26q-67 51 -71 112l-1 11q-5 60 77 96q29 9 62 11z" />
    <glyph glyph-name="signulucandracombbali" unicode="&#x1b01;" 
d="M-431 1082h4q13 -73 26 -210l-5 -2q-9 0 -23 2q-19 -2 -33 -2q-4 5 -4 9q0 42 35 203zM-641 987h12q35 -5 35 -26v-7q0 -18 -24 -24h-2q-7 0 -30 4q-30 0 -56 -57q-7 -22 -9 -51q0 -84 86 -153q97 -57 208 -57q193 0 256 139q13 37 13 69v24q0 54 -48 77h-4q-2 0 -26 -4
q-37 6 -37 31v9q15 26 39 26q81 0 123 -110q7 -23 7 -47v-17q0 -130 -123 -228q-93 -53 -182 -53h-31q-118 0 -225 71q-108 88 -108 196v22q0 103 89 157q20 9 37 9zM-438 866q136 -7 165 -84l2 -14v-20q0 -42 -74 -79q-38 -18 -80 -18q-105 0 -156 71q-11 19 -11 44
q0 67 128 97q19 0 26 3zM-553 760q0 -33 80 -60q23 -7 44 -7q76 0 119 53q4 9 4 16q0 23 -65 53q-18 9 -60 13q-72 0 -117 -53q-5 -9 -5 -15z" />
    <glyph glyph-name="signcecekcombbali" unicode="&#x1b02;" 
d="M-173 609q-118 226 -263 313l-97 -72l-21 12l99 220q123 -46 203.5 -182t114.5 -282z" />
    <glyph glyph-name="signsurangcombbali" unicode="&#x1b03;" 
d="M-265 622q-202 0 -327 106q-123 114 -160 279l104 -18q32 -135 131 -234q97 -114 304 -107l9 -24q-31 -2 -61 -2z" />
    <glyph glyph-name="signbisahbali" unicode="&#x1b04;" horiz-adv-x="497" 
d="M251 524q137 0 177 -98q9 -19 9 -52v-9q0 -122 -158 -173h-5v-5q163 -54 163 -169v-4q0 -89 -149 -427q-37 -115 -37 -201q0 -84 46 -201l-9 -5q-116 100 -116 272q0 122 144 398q37 94 37 140v10q0 131 -191 163q-65 13 -65 29v4q0 17 172 42q103 46 103 117
q0 81 -112 94h-23q-107 0 -107 -65v-15q0 -18 28 -46v-14q0 -33 -33 -33q-65 17 -65 98v10q0 108 163 140h28z" />
    <glyph glyph-name="akarabali" unicode="&#x1b05;" horiz-adv-x="1082" 
d="M324 516h4q179 0 236 -171q9 -56 9 -60l-9 -5h-4q-72 171 -204 171h-32q-151 0 -208 -139q-10 -35 -10 -64v-10q0 -135 134 -162q18 -4 42 -4q120 0 120 65v4q0 33 -60 33q-18 4 -37 4l-9 -4q-56 5 -56 18v9q0 24 107 28q37 20 37 46v23q-19 28 -46 28h-5q-36 0 -42 -18
l5 -47q-17 -13 -32 -13q-37 18 -37 50q0 69 92 88h14q97 0 97 -101q-5 -38 -37 -70q56 -28 56 -78q0 -90 -93 -125q-43 -10 -74 -10q-152 0 -208 148q-14 41 -14 93v14q0 174 194 250q44 9 70 9zM869 507q109 0 139 -98q14 -52 14 -134v-259q0 -9 -9 -9h-37q-9 0 -9 9v255
q0 143 -51 143q14 -59 18 -166q0 -64 -46 -172q28 -91 28 -134q0 -9 -10 -9l-50 111h-5q-57 -42 -139 -42q-222 0 -222 209q0 34 14 37q67 -162 148 -162q32 -5 51 -5q63 0 116 23q-12 29 -70 79h-4q-30 -33 -33 -33q-11 0 -14 19q0 32 42 83h9q24 0 111 -111q28 42 28 102
v32q0 93 -28 227z" />
    <glyph glyph-name="akaratedungbali" unicode="&#x1b06;" horiz-adv-x="1407" 
d="M327 530h4q178 0 234 -164q14 -47 14 -70l-9 -5q-87 173 -192 173q-45 0 -47 5q-224 -29 -224 -210v-14q0 -146 173 -164q126 0 126 65v5q0 37 -70 37h-65q-25 0 -29 14v10q0 22 117 33q27 16 33 51q0 36 -56 42h-9q-25 0 -33 -19q5 -25 5 -42q-2 -9 -24 -18
q-37 0 -47 56q0 63 94 84h14q98 0 98 -94q0 -43 -37 -79q56 -25 56 -80q0 -117 -150 -135q-168 0 -224 135q-19 51 -19 108v14q0 181 201 253q35 9 66 9zM1099 521q194 0 248 -220v-42q0 -179 -150 -239q-42 -9 -56 -9q-94 0 -94 65v14q0 44 61 47q77 -37 98 -37
q89 38 89 149v5q0 136 -126 173q-33 9 -56 9h-28q-141 -18 -141 -121l-23 -169q0 -43 -52 -93q19 -57 29 -145l-10 -5q-14 0 -61 122q-42 -19 -98 -24q-163 0 -210 131q-10 19 -10 52v9q3 66 24 66q31 -150 79 -150q34 -28 117 -28h9q52 0 52 14q-13 32 -47 65l-33 -37h-4
q-12 0 -14 19q0 46 37 98h14q52 -32 103 -117q38 47 38 196q0 65 70 145q67 57 145 57z" />
    <glyph glyph-name="ikarabali" unicode="&#x1b07;" horiz-adv-x="920" 
d="M155 536h19q66 -12 66 -90l-19 -214q0 -111 71 -147h5q-43 83 -43 176v14q0 224 156 261h24q80 0 114 -123h9q40 118 104 118h43q104 0 147 -171q9 -45 9 -128v-223q0 -9 -9 -9h-38l-10 5l5 9v128q0 266 -52 266q0 17 -71 24q-76 0 -123 -133h-10q-4 0 -71 104
q-31 24 -75 24h-10q-76 0 -95 -161q0 -111 109 -233v-5q0 -7 -28 -19q-175 0 -223 133q-9 44 -9 76q14 184 14 223v5q0 33 -28 33q-19 -19 -19 -57q0 -29 9 -99q0 -30 -23 -43h-5q-38 24 -38 104v24q27 128 95 128zM552 -84h24q76 -17 76 -64v-16q-76 28 -104 28h-20
q-6 0 -12 -12q33 -19 128 -52q36 -33 36 -64v-12q-16 -84 -100 -84h-28q-88 0 -136 96q13 8 24 8h8l96 -44l40 -4q44 12 44 28q0 36 -124 68q-40 29 -40 52v12q13 60 88 60z" />
    <glyph glyph-name="ikaratedungbali" unicode="&#x1b08;" horiz-adv-x="1501" 
d="M155 536h19q66 -12 66 -90l-19 -214q0 -111 71 -147h5q-43 83 -43 176v14q0 224 156 261h24q80 0 114 -123h9q40 118 104 118h43q104 0 147 -171q9 -45 9 -128v-223q0 -9 -9 -9h-38l-10 5l5 9v128q0 266 -52 266q0 17 -71 24q-76 0 -123 -133h-10q-4 0 -71 104
q-31 24 -75 24h-10q-76 0 -95 -161q0 -111 109 -233v-5q0 -7 -28 -19q-175 0 -223 133q-9 44 -9 76q14 184 14 223v5q0 33 -28 33q-19 -19 -19 -57q0 -29 9 -99q0 -30 -23 -43h-5q-38 24 -38 104v24q27 128 95 128zM552 -84h24q76 -17 76 -64v-16q-76 28 -104 28h-20
q-6 0 -12 -12q33 -19 128 -52q36 -33 36 -64v-12q-16 -84 -100 -84h-28q-88 0 -136 96q13 8 24 8h8l96 -44l40 -4q44 12 44 28q0 36 -124 68q-40 29 -40 52v12q13 60 88 60zM1169 519q197 0 263 -195q9 -21 9 -61v-28q0 -172 -170 -241q-41 -5 -68 -5q-112 12 -112 74
q8 56 54 56h19l117 -37h5q102 26 102 153q0 141 -175 186q-32 5 -64 5q-118 0 -228 -135h-10l-5 9v14q44 205 263 205z" />
    <glyph glyph-name="ukarabali" unicode="&#x1b09;" horiz-adv-x="826" 
d="M171 535h19q67 -20 67 -67v-15q-24 -159 -24 -182v-53q0 -70 90 -110v5q-57 67 -57 182v14q23 221 210 221h19q156 0 214 -173q9 -36 9 -67v-24q0 -280 -352 -441q-165 -78 -257 -187q-47 -69 -47 -163v-9q0 -136 152 -197h19q-43 107 -43 187q0 170 210 254
q53 19 114 19h33q227 0 314 -216q9 -45 9 -71v-15q0 -143 -133 -254h-9q-10 0 -10 10v4q81 124 81 231q0 128 -147 187q-42 19 -124 19q-153 0 -233 -115q-29 -44 -29 -96q0 -60 57 -182v-24q-4 -15 -28 -15h-19q-149 0 -252 173q-24 77 -24 120q0 354 419 489
q252 103 252 283q0 182 -195 182q-162 -17 -162 -158q0 -102 90 -211v-10q0 -7 -14 -14h-33q-162 0 -191 139q-4 18 -4 43v5q14 195 14 211v4q0 34 -33 34q-19 -25 -19 -53q9 -82 9 -110q-8 -24 -28 -24q-35 0 -43 105q22 135 109 135z" />
    <glyph glyph-name="ukaratedungbali" unicode="&#x1b0a;" horiz-adv-x="1357" 
d="M171 535h19q67 -20 67 -67v-15q-24 -159 -24 -182v-53q0 -70 90 -110v5q-57 67 -57 182v14q23 221 210 221h19q156 0 214 -173q9 -36 9 -67v-24q0 -280 -352 -441q-165 -78 -257 -187q-47 -69 -47 -163v-9q0 -136 152 -197h19q-43 107 -43 187q0 170 210 254
q53 19 114 19h33q227 0 314 -216q9 -45 9 -71v-15q0 -143 -133 -254h-9q-10 0 -10 10v4q81 124 81 231q0 128 -147 187q-42 19 -124 19q-153 0 -233 -115q-29 -44 -29 -96q0 -60 57 -182v-24q-4 -15 -28 -15h-19q-149 0 -252 173q-24 77 -24 120q0 354 419 489
q252 103 252 283q0 182 -195 182q-162 -17 -162 -158q0 -102 90 -211v-10q0 -7 -14 -14h-33q-162 0 -191 139q-4 18 -4 43v5q14 195 14 211v4q0 34 -33 34q-19 -25 -19 -53q9 -82 9 -110q-8 -24 -28 -24q-35 0 -43 105q22 135 109 135zM1025 530q197 0 263 -195q9 -21 9 -61
v-28q0 -172 -170 -241q-41 -5 -68 -5q-112 12 -112 74q8 56 54 56h19l117 -37h5q102 26 102 153q0 141 -175 186q-32 5 -64 5q-118 0 -228 -135h-10l-5 9v14q44 205 263 205z" />
    <glyph glyph-name="rarepabali" unicode="&#x1b0b;" horiz-adv-x="904" 
d="M199 536h9q79 -14 79 -62l-28 -251q0 -101 191 -128h88q100 0 134 62q24 46 24 113q0 112 -42 261l9 5h42q113 0 139 -123v-15q0 -54 -5 -393l-9 -5h-37q-9 0 -9 9v15q0 133 4 294q0 137 -55 137h-5q19 -132 19 -227q0 -154 -135 -209q-59 -19 -88 -19h-37
q-227 0 -297 152q-9 44 -9 71v14q18 179 18 209t-37 33q-24 0 -28 -47v-5q10 -104 10 -109q0 -30 -38 -33q-36 0 -46 99v5q17 147 139 147zM472 -84h24q76 -17 76 -64v-16q-76 28 -104 28h-20q-6 0 -12 -12q33 -19 128 -52q36 -33 36 -64v-12q-16 -84 -100 -84h-28
q-88 0 -136 96q13 8 24 8h8l96 -44l40 -4q44 12 44 28q0 36 -124 68q-40 29 -40 52v12q13 60 88 60z" />
    <glyph glyph-name="rarepatedungbali" unicode="&#x1b0c;" horiz-adv-x="1496" 
d="M1164 530q197 0 263 -195q9 -21 9 -61v-28q0 -172 -170 -241q-41 -5 -68 -5q-112 12 -112 74q8 56 54 56h19l117 -37h5q102 26 102 153q0 141 -175 186q-32 5 -64 5q-118 0 -228 -135h-10l-5 9v14q44 205 263 205zM199 536h9q79 -14 79 -62l-28 -251q0 -101 191 -128h88
q100 0 134 62q24 46 24 113q0 112 -42 261l9 5h42q113 0 139 -123v-15q0 -54 -5 -393l-9 -5h-37q-9 0 -9 9v15q0 133 4 294q0 137 -55 137h-5q19 -132 19 -227q0 -154 -135 -209q-59 -19 -88 -19h-37q-227 0 -297 152q-9 44 -9 71v14q18 179 18 209t-37 33q-24 0 -28 -47v-5
q10 -104 10 -109q0 -30 -38 -33q-36 0 -46 99v5q17 147 139 147zM472 -84h24q76 -17 76 -64v-16q-76 28 -104 28h-20q-6 0 -12 -12q33 -19 128 -52q36 -33 36 -64v-12q-16 -84 -100 -84h-28q-88 0 -136 96q13 8 24 8h8l96 -44l40 -4q44 12 44 28q0 36 -124 68q-40 29 -40 52
v12q13 60 88 60z" />
    <glyph glyph-name="lalengabali" unicode="&#x1b0d;" horiz-adv-x="889" 
d="M158 530h24q63 0 75 -79v-5q-24 -175 -24 -206q0 -82 70 -112v9q-37 74 -37 136v37q0 182 136 215h23q77 0 117 -107h5q33 107 126 107q123 0 164 -219q4 -63 4 -108v-14q0 -136 -32 -309h4l89 37v-4q0 -71 -98 -103q-23 0 -37 -84q-83 -235 -225 -426q-79 -75 -98 -75
l-5 9v19q84 108 84 164q-13 79 -140 164q-197 115 -197 234v23q19 173 159 173h24q65 0 290 -112q49 -19 98 -19q38 141 38 295q0 248 -113 248h-23q-57 0 -117 -94h-5q-59 94 -112 94h-28q-94 -15 -94 -131q0 -101 108 -225q5 -8 5 -18t-10 -10h-9q-239 0 -239 197
q0 35 19 196q0 47 -33 47h-4q-13 0 -19 -47q0 -13 9 -107q0 -33 -33 -33q-37 22 -37 89v32q29 122 98 122zM252 -153v-23q0 -79 187 -183q122 -100 122 -220h4q113 178 169 379h-5q-99 0 -323 117q-44 10 -70 10h-9q-55 0 -75 -80z" />
    <glyph glyph-name="lalengatedungbali" unicode="&#x1b0e;" horiz-adv-x="963" 
d="M963 -27h4q41 0 72 -40q21 -31 21 -64q0 -52 -43 -77q-2 -1 -26 -15v0q31 -8 44 -18q12 -8 28 -29q15 -25 15 -64q0 -81 -54 -113q-25 -14 -50 -14q-32 0 -59 16q-9 7 -28 29q-24 37 -24 81v7q0 30 18 42h5q13 0 17 -17q2 -5 2 -11v-2q-2 -23 -2 -25v-3q0 -24 28 -43
q12 -7 30 -7q52 0 67 45q4 12 4 24v5q0 31 -24 53q-12 10 -30 16q-33 8 -61 8h-16q-16 0 -20 13v3q0 16 39 19q45 7 60 15q18 8 27 29q1 8 1 13q0 25 -17 42q-17 10 -35 10h-2q-46 0 -65 -64q-5 -14 -11 -14h-1q-7 0 -8 21q0 32 18 73q30 56 76 56zM158 530h24q63 0 75 -79
v-5q-24 -175 -24 -206q0 -82 70 -112v9q-37 74 -37 136v37q0 182 136 215h23q77 0 117 -107h5q33 107 126 107q123 0 164 -219q4 -63 4 -108v-14q0 -136 -32 -309h4l89 37v-4q0 -71 -98 -103q-23 0 -37 -84q-83 -235 -225 -426q-79 -75 -98 -75l-5 9v19q84 108 84 164
q-13 79 -140 164q-197 115 -197 234v23q19 173 159 173h24q65 0 290 -112q49 -19 98 -19q38 141 38 295q0 248 -113 248h-23q-57 0 -117 -94h-5q-59 94 -112 94h-28q-94 -15 -94 -131q0 -101 108 -225q5 -8 5 -18t-10 -10h-9q-239 0 -239 197q0 35 19 196q0 47 -33 47h-4
q-13 0 -19 -47q0 -13 9 -107q0 -33 -33 -33q-37 22 -37 89v32q29 122 98 122zM252 -153v-23q0 -79 187 -183q122 -100 122 -220h4q113 178 169 379h-5q-99 0 -323 117q-44 10 -70 10h-9q-55 0 -75 -80z" />
    <glyph glyph-name="ekarabali" unicode="&#x1b0f;" horiz-adv-x="751" 
d="M316 536h41q75 0 128 -55v-14h-9q-62 18 -87 18q-180 0 -242 -180q-5 -24 -5 -46v-9q16 -181 110 -181q7 5 27 5q-36 93 -36 139v18q32 153 183 153q194 0 260 -195q5 -31 5 -50v-60q-11 -65 -27 -65h-5q-11 0 -23 162q-64 124 -183 124h-27q-110 -16 -110 -106
q0 -37 46 -148q-7 -46 -60 -46h-32q-138 0 -205 185q-5 31 -5 51v50q0 89 78 171q85 79 178 79z" />
    <glyph glyph-name="aikarabali" unicode="&#x1b10;" horiz-adv-x="1089" 
d="M962 702q62 -1 82 -139v-14q-2 -66 -60 -126q46 -263 41 -436l-1 -71q-12 -499 -154 -692q-53 -32 -86 -31l-42 1q-113 3 -169 264q-21 34 -28 34l-23 1q-22 0 -75 -150q-55 -126 -173 -124q-176 5 -207 261l1 28q6 230 207 336q62 22 323 72q122 48 155 129
q25 77 27 151q4 172 -104 206h-33q-58 2 -112 -115h-4q-65 120 -121 121l-18 1q-81 1 -98 -140l-1 -19q-3 -124 127 -216l5 -9q0 -16 -86 -22h-9q-175 23 -171 175l1 52q1 41 19 193q-7 43 -18 43l-19 1l-10 -33q2 -125 1 -147l-19 -14l-9 1q-33 23 -31 95v23q3 101 93 135
h10q64 -1 74 -82l-1 -9q-18 -175 -18 -189l-1 -43q5 -118 58 -119l10 -1v5q-41 86 -39 152l1 52q4 163 105 230q39 3 47 8q75 -2 102 -83q15 -66 23 -67q36 141 121 139q130 -3 164 -245q5 -23 4 -61q-8 -325 -242 -415q-62 -31 -295 -69q-148 -54 -151 -186l-1 -47
q-3 -121 91 -168q47 -4 47 -10q89 -2 130 91q64 216 128 215h4q84 -2 141 -250q29 -71 102 -73q109 -3 148 252q33 182 38 382l2 85q-5 398 -52 399q-88 2 -154 98q-22 34 -22 67l1 33q1 41 67 55q81 -2 139 -155h9q29 16 30 56v10q1 36 -30 114zM799 597l-1 -14
q-1 -68 112 -88q-43 115 -92 116h-5q-6 0 -14 -14z" />
    <glyph glyph-name="okarabali" unicode="&#x1b11;" horiz-adv-x="975" 
d="M417 535h37q84 0 117 -144h5q40 144 131 144q144 0 194 -249v-86q0 -210 -144 -340q-174 -106 -294 -106q-240 -40 -272 -115q-45 -51 -45 -139v-19q0 -102 68 -163v10q-18 35 -18 76v24q0 78 99 111h32q96 0 217 -178q63 -67 136 -67h40q100 0 127 158q-24 158 -127 158
h-13q-20 0 -91 -19l-4 10v5q36 52 104 52q146 0 194 -143q5 -33 5 -53v-10q0 -181 -154 -234q-24 -5 -41 -5h-27q-142 0 -289 201q-59 57 -95 57q-49 0 -59 -71v-29q0 -41 100 -153q0 -10 -10 -10h-31q-74 0 -177 129q-40 88 -40 154q0 234 208 345q85 33 348 81
q172 71 172 125q36 68 36 167q0 149 -99 201q-40 5 -50 5q-75 0 -131 -120h-5q-81 120 -136 120h-4q-127 0 -127 -167q0 -113 159 -221q0 -13 -95 -29q-141 0 -199 120q-9 43 -9 62v34q0 23 13 201v19q0 26 -18 34h-14q-14 0 -22 -53q9 -63 9 -124q0 -8 -18 -19h-5
q-45 0 -45 91v38q25 124 104 124h18q73 -14 73 -71v-24q-19 -183 -19 -216q0 -134 86 -134q-54 89 -54 192q0 202 122 258z" />
    <glyph glyph-name="okaratedungbali" unicode="&#x1b12;" horiz-adv-x="1506" 
d="M1174 520q197 0 263 -195q9 -21 9 -61v-28q0 -172 -170 -241q-41 -5 -68 -5q-112 12 -112 74q8 56 54 56h19l117 -37h5q102 26 102 153q0 141 -175 186q-32 5 -64 5q-118 0 -228 -135h-10l-5 9v14q44 205 263 205zM417 535h37q84 0 117 -144h5q40 144 131 144
q144 0 194 -249v-86q0 -210 -144 -340q-174 -106 -294 -106q-240 -40 -272 -115q-45 -51 -45 -139v-19q0 -102 68 -163v10q-18 35 -18 76v24q0 78 99 111h32q96 0 217 -178q63 -67 136 -67h40q100 0 127 158q-24 158 -127 158h-13q-20 0 -91 -19l-4 10v5q36 52 104 52
q146 0 194 -143q5 -33 5 -53v-10q0 -181 -154 -234q-24 -5 -41 -5h-27q-142 0 -289 201q-59 57 -95 57q-49 0 -59 -71v-29q0 -41 100 -153q0 -10 -10 -10h-31q-74 0 -177 129q-40 88 -40 154q0 234 208 345q85 33 348 81q172 71 172 125q36 68 36 167q0 149 -99 201
q-40 5 -50 5q-75 0 -131 -120h-5q-81 120 -136 120h-4q-127 0 -127 -167q0 -113 159 -221q0 -13 -95 -29q-141 0 -199 120q-9 43 -9 62v34q0 23 13 201v19q0 26 -18 34h-14q-14 0 -22 -53q9 -63 9 -124q0 -8 -18 -19h-5q-45 0 -45 91v38q25 124 104 124h18q73 -14 73 -71
v-24q-19 -183 -19 -216q0 -134 86 -134q-54 89 -54 192q0 202 122 258z" />
    <glyph glyph-name="kabali" unicode="&#x1b13;" horiz-adv-x="1057" 
d="M202 536q105 0 105 -147v-85h36q28 232 224 232h9q160 0 224 -161q19 -68 19 -119q0 -76 -37 -175h5q64 0 77 142q0 70 -32 304l10 4h45q69 0 101 -85q9 -21 9 -62v-294q0 -85 -14 -85h-32q-9 0 -9 9v52q0 100 5 181q0 213 -51 213q-4 0 -4 -5q18 -175 18 -251
q0 -167 -132 -195l-42 -4q-50 3 -50 23q87 99 87 242q0 152 -183 171h-23q-150 0 -150 -142q233 -35 233 -161v-34q0 -84 -106 -104h-13q-153 0 -188 213h-32q0 -208 -96 -208q-114 21 -114 109v19q0 109 137 161q14 0 14 10v14q0 142 -37 156l-22 5h-14q-41 0 -41 -85v-48
q0 -52 -41 -52q-37 18 -37 66v38q31 138 133 138h9zM421 209v-5q0 -111 114 -152h14q31 8 41 33v15q0 73 -169 109zM161 123q0 -31 27 -47h27q29 0 37 95v33h-5q-55 0 -86 -81z" />
    <glyph glyph-name="kamahapranabali" unicode="&#x1b14;" horiz-adv-x="1156" 
d="M215 513q115 0 115 -137v-80h40q29 217 246 217h10q182 0 250 -164q15 -60 15 -146v-133q0 -6 15 -13h15l135 35q100 -23 100 -115h-5q-40 49 -85 49q-138 -36 -165 -36q-65 0 -65 58v168q0 161 -95 191q-57 17 -130 22q-161 0 -161 -137q136 0 236 -94q20 -39 20 -70
v-14q-20 -102 -116 -102h-15q-167 0 -205 200h-35l-5 -22v-27q0 -146 -100 -146q-125 19 -125 102v17q0 103 150 151q15 0 15 9q0 155 -40 155q0 8 -25 9h-15q-45 0 -45 -80v-44q0 -49 -45 -49q-40 17 -40 62v36q33 128 145 128h10zM450 207q33 -146 145 -146q35 8 46 31v5
q0 83 -191 110zM170 128q10 -45 30 -45h30q31 0 40 89v31h-5q-61 0 -95 -75z" />
    <glyph glyph-name="gabali" unicode="&#x1b15;" horiz-adv-x="1066" 
d="M561 536q193 0 264 -185l9 -66q0 -104 -74 -204v-10q116 0 116 166q-4 92 -37 285l9 5h28q130 0 130 -171v-294q0 -62 -14 -62h-37l-9 5l4 9v342q0 104 -55 104q28 -163 28 -232q0 -152 -75 -200q-58 -28 -116 -28q-83 3 -83 19q144 134 144 242q0 141 -190 166l-42 5
q-227 0 -227 -185q0 -75 120 -214v-9q0 -16 -69 -19q-218 27 -218 199q18 175 18 213v19q0 26 -18 34h-19q-18 -8 -18 -34v-23q0 -48 9 -95q0 -30 -23 -43h-19q-37 27 -37 95v14q17 147 125 147h5q77 0 83 -95q-28 -190 -28 -213v-10q0 -4 -4 -4q0 -77 60 -105q14 -9 56 -19
v5q-65 83 -65 161v29q0 180 181 247q56 9 88 9z" />
    <glyph glyph-name="gagorabali" unicode="&#x1b16;" horiz-adv-x="1082" 
d="M177 530h14q80 -13 80 -75v-5l-28 -234q0 -105 80 -132q5 0 14 -4v9q-47 83 -47 178q0 183 145 249q33 9 52 9q57 -7 61 -18q-117 -146 -117 -268v-9q0 -114 79 -132h14q44 0 113 151q18 14 42 14h5q24 0 61 -118q37 -51 75 -51q65 16 65 117v24q0 163 -164 215
q-23 6 -23 14q28 61 108 61q141 0 206 -173q10 -60 10 -113v-225q0 -9 -10 -9h-37q-10 0 -10 9q5 145 5 188q0 205 -127 234h-4v-4q93 -85 93 -230q-22 -202 -122 -202h-4q-75 0 -99 61q-21 80 -47 80q-16 -16 -75 -113q-28 -19 -51 -19q-95 0 -136 108q-19 66 -19 122
q0 108 84 230h-4q-94 0 -118 -192v-5q0 -82 61 -239v-10q-4 -14 -28 -14h-4q-114 0 -188 122q-14 43 -14 89l19 212q-5 42 -33 42q-22 0 -28 -57q9 -69 9 -103v-14q0 -7 -19 -19h-18q-38 27 -38 94v24q26 131 117 131z" />
    <glyph glyph-name="ngabali" unicode="&#x1b17;" horiz-adv-x="1000" 
d="M164 536h21q73 -12 73 -90l-21 -214q0 -111 78 -147h5q-47 83 -47 176v14q0 224 172 261h26q88 0 125 -123h11q44 118 114 118h47q114 0 162 -171q10 -45 10 -128v-223q0 -9 -10 -9h-42l-10 5l5 9v128q0 266 -58 266q0 17 -78 24q-83 0 -135 -133h-10q-5 0 -79 104
q-34 24 -83 24h-10q-84 0 -104 -161q0 -111 119 -233v-5q0 -7 -31 -19q-192 0 -245 133q-10 44 -10 76q16 184 16 223v5q0 33 -32 33q-21 -19 -21 -57q0 -29 11 -99q0 -30 -26 -43h-5q-42 24 -42 104v24q30 128 104 128z" />
    <glyph glyph-name="cabali" unicode="&#x1b18;" horiz-adv-x="917" 
d="M268 536h14q103 0 141 -85l5 -34v-23q0 -86 -66 -214q110 -104 184 -104q125 0 146 171v4q0 142 -151 204q-47 17 -47 24v5q0 38 141 47h14q150 0 199 -142q9 -74 9 -142v-233q0 -9 -9 -9h-38q-10 0 -10 9v237q0 156 -80 195q-24 14 -47 14h-38v-5q114 -58 114 -199
q0 -158 -156 -247q-43 -9 -61 -9h-24q-103 0 -198 104q-78 -95 -156 -95q-94 13 -94 91v19q0 93 123 142h42q32 0 80 -33h5q47 102 47 166q-13 85 -75 85h-14q-89 0 -104 -71q-5 -31 -5 -62v-28q0 -38 -38 -38h-19q-37 19 -37 66q0 141 155 185q25 5 48 5zM135 133
q7 -43 43 -43h5q38 0 80 62q-46 38 -76 38q-39 0 -52 -57z" />
    <glyph glyph-name="calacabali" unicode="&#x1b19;" horiz-adv-x="945" 
d="M265 538h18q133 0 174 -99q18 -56 27 -264q21 -85 122 -85q126 0 126 197v233l5 9q148 0 148 -139v-85q0 -105 -4 -301l-9 -4h-35q-8 0 -8 9v345q0 76 -40 76v-67q0 -295 -78 -332q-43 -31 -110 -31q-174 0 -174 215q0 200 -53 220q-42 22 -91 22h-26q-149 0 -149 -237
q0 -139 52 -139h27q48 0 48 67v139q1 9 8 9h40q13 0 13 -49v-95q-11 -130 -74 -130q0 -9 -31 -9h-13q-118 0 -118 171v22q0 246 100 305q51 27 105 27z" />
    <glyph glyph-name="jabali" unicode="&#x1b1a;" horiz-adv-x="916" 
d="M193 536q94 -10 94 -95q-23 -180 -23 -213q0 -124 76 -124q-43 64 -43 157v14q0 177 199 252q44 9 71 9h28q182 0 252 -142q9 -34 9 -52q0 -72 -71 -133q71 -26 71 -95v-105q0 -9 -9 -9h-48l-9 5l4 9v10q0 142 -42 142q0 13 -100 19h-47l-47 -5l-5 10v38q1 9 9 9h24
q213 0 213 90q-26 119 -223 119h-9q-158 0 -213 -128q-10 -33 -10 -57v-24q0 -83 100 -180q19 -20 19 -38q-11 -10 -52 -14q-96 0 -190 71q-47 59 -47 133l19 223q0 36 -19 42h-19q-21 0 -24 -57q10 -88 10 -113v-5q-15 -24 -34 -24q-36 0 -47 100v14q20 147 133 147z" />
    <glyph glyph-name="jabali.nya" horiz-adv-x="916" 
d="M193 536q94 -10 94 -95q-23 -180 -23 -213q0 -124 76 -124q-43 64 -43 157v14q0 177 199 252q44 9 71 9h28q182 0 252 -142q9 -34 9 -52q0 -72 -71 -133q71 -26 71 -95v-105q0 -9 -9 -9h-48l-9 5l4 9v10q0 142 -42 142q0 13 -100 19h-47l-47 -5l-5 10v38q1 9 9 9h24
q213 0 213 90q-26 119 -223 119h-9q-158 0 -213 -128q-10 -33 -10 -57v-24q0 -83 100 -180q19 -20 19 -38q-11 -10 -52 -14q-96 0 -190 71q-47 59 -47 133l19 223q0 36 -19 42h-19q-21 0 -24 -57q10 -88 10 -113v-5q-15 -24 -34 -24q-36 0 -47 100v14q20 147 133 147z
M535 -95h24q76 -17 76 -64v-16q-76 28 -104 28h-20q-6 0 -12 -12q33 -19 128 -52q36 -33 36 -64v-12q-16 -84 -100 -84h-28q-88 0 -136 96q13 8 24 8h8l96 -44l40 -4q44 12 44 28q0 36 -124 68q-40 29 -40 52v12q13 60 88 60z" />
    <glyph glyph-name="jajerabali" unicode="&#x1b1b;" horiz-adv-x="1191" 
d="M794 -802l-43 1q-112 2 -172 262q-20 39 -27 39l-24 1q-21 0 -79 -162q-53 -117 -165 -117q-182 0 -209 253q-4 19 -4 39q4 225 197 337q60 26 320 75q187 55 190 260q6 0 6 36q0 139 -82 191q-19 11 -54 11q-63 0 -115 -118h-5q-73 122 -117 122l-15 1q-88 0 -106 -133
l-1 -41q0 -109 134 -215q0 -13 -81 -28q-187 23 -187 176q0 88 19 254q0 43 -33 44q-14 -17 -15 -33l2 -149l-19 -14h-10q-31 18 -31 88v33q23 132 91 132h26q56 -1 60 -97q-17 -158 -17 -183t-1 -52q9 -115 74 -116q-45 82 -45 169l1 47q26 238 131 238l35 -1
q81 -1 107 -146h5q37 142 120 142q121 0 168 -238q4 -61 4 -72q-6 -322 -241 -428q-113 -36 -297 -66q-148 -56 -151 -189l-1 -53q0 -113 83 -160l64 -15q115 0 159 203q46 109 91 109l10 -1q77 -1 143 -266q33 -59 101 -59q102 0 146 251q32 221 36 427q-3 455 -58 456
q-118 2 -174 147q0 15 -4 34q12 71 63 71l14 -1q84 -1 140 -170q12 0 83 85q26 4 38 4q62 -19 68 -150l-1 -72q-1 -63 -30 -81q-10 17 -20 192q-11 39 -18 39h-10l-78 -90q48 -231 48 -449v-41q-9 -519 -146 -726q-55 -37 -91 -37zM915 505v5q-45 106 -91 107q-6 0 -13 -13
l-1 -18q28 -79 105 -81z" />
    <glyph glyph-name="nyabali" unicode="&#x1b1c;" horiz-adv-x="1514" 
d="M179 536q87 -16 87 -74v-23l-23 -213q0 -124 123 -124v4q-77 116 -77 204q0 148 96 208q29 18 68 18h23q72 0 105 -92q5 -9 5 -14q68 97 100 97q19 0 37 4q99 0 160 -143q9 -69 9 -83q0 -103 -96 -226h32q87 13 87 106q28 198 77 249q74 93 201 93h10q181 0 246 -204
q5 -31 5 -50v-37q-35 -236 -210 -236q-115 0 -115 69v14q10 46 46 46h23l110 -37q61 0 87 97q9 0 9 61q0 131 -160 180q-30 4 -60 4q-182 0 -214 -249q-18 -176 -165 -176q0 -4 -27 -4q-74 6 -74 27q0 22 92 120q46 74 46 148v28q-27 102 -124 102q-65 0 -114 -102l-9 -5h-5
q-8 0 -68 84q-28 23 -74 23h-13q-81 0 -101 -120q0 -96 133 -250v-28q-5 -14 -28 -14h-4q-178 0 -247 102q-23 43 -23 102l18 203v19q0 24 -18 32h-18q-16 0 -23 -51q9 -76 9 -120q0 -7 -18 -19h-18q-37 27 -37 93v14q22 143 119 143z" />
    <glyph glyph-name="talatikbali" unicode="&#x1b1d;" horiz-adv-x="914" 
d="M170 517h22q55 0 75 -80q-31 -173 -31 -203v-22q3 -27 14 -27h9l44 80q30 40 70 40h31q15 0 22 -49v-44q0 -90 -137 -119v-5q0 -141 89 -141h26q65 0 119 168h13v-40q0 -120 -97 -186q-22 -13 -44 -13h-9q-98 0 -136 115q-5 23 -5 44v58q-84 33 -84 119v13l27 208
q0 31 -31 31q-31 -8 -31 -40v-9q0 -54 9 -101q-7 -40 -18 -40h-22q-35 22 -35 97v9q24 137 110 137zM431 517q77 0 114 -93h5q33 93 123 93q181 -33 181 -203v-279q0 -32 -13 -35h-31q-9 0 -9 9v154q0 221 -44 221q-27 36 -71 36q-78 0 -128 -84l-17 -9q-10 0 -66 75
q-33 22 -58 22h-22q-48 0 -88 -75h-4q-9 0 -9 9q0 106 88 150q31 9 49 9zM307 177q75 8 75 53q-4 8 -4 13h-14q-61 -25 -61 -66h4z" />
    <glyph glyph-name="tamurdamahapranabali" unicode="&#x1b1e;" horiz-adv-x="906" 
d="M193 524q56 0 71 -75v-18q-40 -231 -40 -262q0 -76 71 -94h18q45 0 133 72h9q5 -9 5 -14q0 -62 -120 -120q-8 -4 -22 -4h-40q-105 0 -125 164v5l36 248v9q0 36 -36 36q-26 -11 -26 -40v-22q0 -45 8 -89q0 -28 -22 -40h-17q-36 22 -36 97v9q0 108 107 138h26zM424 520
q77 0 111 -98h5q34 93 106 93h27q115 0 169 -151q4 -30 4 -49v-279q0 -33 -13 -36h-31q-9 0 -9 9v155q0 172 -31 213q-41 45 -94 45q-55 0 -133 -93h-4q-9 0 -67 75q-30 22 -58 22h-17q-48 0 -94 -75h-9v18q17 151 138 151z" />
    <glyph glyph-name="damurdaalpapranabali" unicode="&#x1b1f;" horiz-adv-x="929" 
d="M193 533q86 -13 86 -81v-14l-24 -224v-47q12 -81 71 -81t115 133q26 28 57 28q35 0 76 -119q35 -42 71 -42q81 0 81 133q5 0 5 71v229q1 9 10 9q128 0 128 -157v-361q0 -10 -10 -10h-38q-9 0 -9 10v342q0 81 -38 81v-176q0 -257 -129 -257h-23q-75 0 -124 133q-9 5 -14 5
q-13 -1 -62 -100q-39 -38 -76 -38h-20q-100 0 -152 157q0 32 -5 57q19 187 19 219v10q0 33 -33 33q-28 -14 -28 -48q4 -49 14 -104q0 -30 -24 -43h-5q-52 0 -52 95v14q0 104 105 143h28z" />
    <glyph glyph-name="damurdamahapranabali" unicode="&#x1b20;" horiz-adv-x="830" 
d="M647 0h-29q-76 0 -123 133q-9 4 -19 4q-8 0 -61 -104q-36 -33 -71 -33h-19q-103 0 -151 161q0 20 -5 52q19 185 19 218q0 42 -33 42q-20 0 -29 -52l14 -99q0 -30 -23 -43h-5q-52 0 -52 95v14q21 142 118 142h15q76 0 85 -90q0 -34 -29 -241q0 -114 76 -114q57 0 114 133
q22 28 56 28q39 -4 58 -61.5t38.5 -78.5t50.5 -21q66 -2 66 131l4 293q17 16 25 16h9q24 -10 24 -47v-166q0 -270 -85 -303q-5 0 -38 -9z" />
    <glyph glyph-name="narambatbali" unicode="&#x1b21;" horiz-adv-x="1043" 
d="M319 536h19q89 0 127 -174l25 -10q20 0 93 139q39 40 78 40h9q120 0 142 -223q0 -103 -54 -224q64 0 78 124l5 60q-9 150 -29 258l10 5h34q127 0 127 -179v-342q0 -10 -10 -10h-39q-10 0 -10 10v313q0 134 -48 134v-5q14 -111 14 -199v-25q0 -167 -122 -218
q-34 -10 -39 -10h-24q-20 10 -20 25q0 33 64 149q24 65 24 109q0 144 -103 144h-14q-50 0 -122 -154q-17 -13 -44 -20q-60 0 -117 159q-31 25 -49 25q-59 0 -93 -134q-29 -50 -64 -50h-29q-58 0 -78 104v25q10 94 29 94q11 0 25 -124q15 -24 39 -24q37 0 78 143q46 65 88 65
z" />
    <glyph glyph-name="tabali" unicode="&#x1b22;" horiz-adv-x="1077" 
d="M188 531q96 -15 96 -86q0 -20 -34 -260q0 -73 105 -100h81q114 0 114 62v9q0 36 -81 48q-128 16 -128 109v4q0 151 157 204q20 10 76 10h9q159 0 229 -166q14 -36 14 -85q0 -92 -52 -214h4q76 0 91 57q14 70 14 109q0 64 -38 289l9 5h34q88 0 123 -85q10 -36 10 -67v-308
q0 -61 -14 -61h-34q-9 0 -9 9v33q0 105 5 152q-5 47 -5 152v4q0 100 -57 100q24 -165 24 -237q0 -213 -134 -213h-95l-9 4q81 147 81 237v24q0 144 -210 166h-9q-128 0 -152 -81v-28q0 -18 138 -43q76 -36 76 -118v-24q0 -90 -124 -133q-48 -9 -86 -9h-14q-153 0 -205 128
q-14 35 -14 76v19l24 218q0 33 -33 33q-34 -11 -34 -43v-14q0 -28 10 -109q-10 -30 -24 -33h-5q-52 0 -52 104v5q20 142 119 142q0 5 9 5z" />
    <glyph glyph-name="tatawabali" unicode="&#x1b23;" horiz-adv-x="913" 
d="M196 536q94 -11 94 -81v-4q-24 -198 -24 -228q0 -133 230 -133q179 0 179 142q0 92 -108 119q-118 20 -118 28q37 148 146 148q0 4 28 4q163 0 221 -180q9 -51 9 -109v-233q0 -9 -9 -9h-38q-9 0 -9 9v190q0 178 -94 218q-36 15 -61 15q-19 0 -66 -15v-9q78 0 141 -109
q9 -19 9 -52v-24q0 -196 -239 -218q-228 0 -296 156q-9 33 -9 57v33q0 25 19 185q-6 43 -42 43q-29 -15 -29 -57l14 -99q0 -24 -23 -38h-23q-38 24 -38 104q17 147 136 147zM484 231q88 0 180 -180q25 -81 25 -100l-10 -5q-71 133 -170 215l-10 5q-13 -38 -25 -40
q-10 0 -10 10v50q0 38 20 45z" />
    <glyph glyph-name="dabali" unicode="&#x1b24;" horiz-adv-x="1000" 
d="M208 536h25q112 -8 112 -86q0 -41 -122 -278l-5 -43q0 -31 30 -48h31q42 0 137 149q22 19 66 43l-5 9v43q0 150 132 201q46 10 82 10q249 0 249 -254v-272q0 -10 -10 -10h-41l-10 5q5 79 5 119v72q0 194 -56 220q-54 34 -112 34h-30q-138 0 -138 -153v-5q2 -10 10 -10h26
q193 -19 193 -177q-20 -105 -112 -105h-10q-117 0 -163 182q-39 -40 -101 -148q-52 -34 -102 -34q-158 23 -158 148q0 60 112 264q5 25 5 43v4q0 7 -25 24h-10q-54 0 -77 -153l-20 -14h-15q-41 0 -41 43v29q36 148 148 148zM564 201q0 -95 91 -139l36 -5q21 7 30 24v29
q-35 91 -142 91h-15z" />
    <glyph glyph-name="damadubali" unicode="&#x1b25;" horiz-adv-x="908" 
d="M177 536h14q75 0 83 -90q0 -30 -27 -247q8 -109 65 -109h14q50 0 112 138q19 19 37 19q48 0 89 -119q27 -38 65 -38h5q79 0 79 138q0 133 -201 232v5q45 62 117 62h23q125 0 182 -162q14 -72 14 -147v-204q0 -9 -9 -9h-38q-9 0 -9 9v233q0 155 -107 189h-47
q117 -82 117 -227q0 -155 -103 -204l-42 -5q-77 0 -121 133l-9 5h-10q-11 -6 -60 -105q-36 -33 -70 -33h-5q-112 0 -163 152q0 26 -5 66q19 186 19 218v5q0 26 -23 38q-38 0 -38 -52q10 -89 14 -100q0 -29 -23 -42h-19q-37 26 -37 94v24q27 133 117 133z" />
    <glyph glyph-name="nabali" unicode="&#x1b26;" horiz-adv-x="1000" 
d="M224 536q122 0 122 -147v-85h37q9 0 27 94q72 138 238 138h11q219 0 276 -213q5 -53 5 -95v-219q0 -9 -11 -9q-22 0 -53 9l6 57v143q0 135 -43 180q-79 57 -196 57q-139 0 -164 -114l-6 -33q150 0 255 -105q16 -42 16 -56v-34q0 -91 -133 -104h-5q-177 0 -217 213h-37
q0 -208 -112 -208q-132 21 -132 109v19q0 109 159 161q16 0 16 10v4q0 162 -43 162q0 8 -26 9h-16q-48 0 -48 -85v-48q0 -52 -48 -52q-42 18 -42 66v38q35 138 154 138h10zM479 204q0 -111 132 -152h16q48 10 48 43q0 80 -196 114v-5zM177 119q0 -24 31 -43h32q33 0 43 95
v33h-6q-100 -27 -100 -85z" />
    <glyph glyph-name="pabali" unicode="&#x1b27;" horiz-adv-x="904" 
d="M191 536h10q80 -14 80 -62l-28 -251q0 -101 193 -128h90q102 0 137 62q23 46 23 113q0 112 -42 261l9 5h43q114 0 141 -123v-15q0 -54 -5 -393l-9 -5h-38q-9 0 -9 9v15q0 133 4 294q0 137 -56 137h-5q19 -132 19 -227q0 -154 -137 -209q-59 -19 -89 -19h-38
q-230 0 -302 152q-9 44 -9 71v14q18 179 18 209t-37 33q-25 0 -29 -47v-5q10 -104 10 -109q0 -30 -38 -33q-36 0 -47 99v5q17 147 141 147z" />
    <glyph glyph-name="pakapalbali" unicode="&#x1b28;" horiz-adv-x="846" 
d="M547 669h5q71 0 145 -136q42 0 57 132h4q28 -47 28 -75v-14q0 -75 -70 -108q24 -77 24 -169v-23q0 -191 -193 -263q-56 -9 -89 -9h-9q-230 0 -277 192q0 8 -4 56q14 143 14 174h5q-8 51 -24 51h-23q-14 -30 -14 -47q9 -90 9 -122l-23 -18q-45 0 -52 89v28q0 94 112 131h5
q94 -10 94 -84v-5l-19 -178v-42q0 -107 169 -127h37q166 0 207 122q9 0 18 94v42q0 50 -14 98h-47q-150 30 -150 132q11 79 75 79zM519 590q18 -66 103 -66h24q-41 99 -99 99q-28 -11 -28 -33z" />
    <glyph glyph-name="babali" unicode="&#x1b29;" horiz-adv-x="1090" 
d="M439 536h9q84 0 114 -91l4 -19l57 81q42 24 71 24q113 0 161 -172l5 -57q0 -128 -90 -235h4q124 0 124 163v9q0 125 -34 287l10 5h19q137 0 137 -172v-349q0 -10 -9 -10h-38l-10 5l5 9v278q0 163 -57 163q24 -145 24 -244v-43q0 -106 -100 -149q-58 -19 -99 -19h-9
q-62 0 -62 34q114 124 114 143q23 43 23 115q-16 129 -108 129h-15q-61 0 -113 -110h-10q-10 1 -61 86q-34 24 -62 24q-101 0 -118 -134q0 -99 128 -244v-24q0 -7 -14 -14h-29q-186 0 -236 129q-10 16 -15 77l19 229q-9 30 -23 34h-10q-16 0 -23 -53q9 -79 9 -124
q0 -8 -19 -19h-14q-38 22 -38 95v15q18 143 109 143h19q58 0 71 -81v-10q0 -26 -29 -234q19 -110 90 -110q0 -6 29 -10v5q-71 116 -71 211q0 192 161 234z" />
    <glyph glyph-name="bakembangbali" unicode="&#x1b2a;" horiz-adv-x="1000" 
d="M232 536q130 -12 130 -86v-24q-17 -172 -115 -172q-15 0 -15 4q36 125 36 154v24q-7 47 -52 47q-50 0 -62 -100q0 -72 -47 -72q-40 0 -47 48v19q0 127 151 158h21zM669 536q192 0 261 -148q10 -68 10 -96v-282q0 -10 -10 -10h-37q-10 0 -10 10v158q0 201 -63 244
q-77 38 -161 38q-141 -13 -141 -81q-9 0 -10 -72v-5h15q192 0 235 -129q0 -15 5 -34q-21 -129 -125 -129q-132 0 -172 187q-37 -40 -99 -139q-47 -43 -94 -43h-26q-124 0 -161 124v5q14 120 83 120q0 4 16 4q0 -4 5 -4l-21 -110q0 -63 63 -63h15q52 0 141 158q44 39 57 39
v81q0 114 131 163q43 14 93 14zM523 215q34 -162 120 -162h16q47 0 47 62q-23 100 -162 100h-21z" />
    <glyph glyph-name="mabali" unicode="&#x1b2b;" horiz-adv-x="906" 
d="M342 536h32q47 0 147 -5l11 -14v-75h-109q-142 0 -179 -56q-3 -33 -11 -33q0 -61 179 -61l49 4q34 -9 38 -23v-24q-9 -19 -38 -19h-135q-98 0 -98 -65q0 -71 201 -80h43q147 0 184 51q33 67 33 108q0 90 -65 278q10 5 16 5q206 0 206 -188v-320q0 -7 -16 -14h-44l-10 4
q5 56 5 80v217q0 136 -81 136q32 -93 32 -169v-19q0 -254 -276 -254h-17q-226 0 -276 136q0 4 -5 38q0 53 65 99q-55 29 -55 89q0 66 109 103v5h-22q-114 0 -114 -99q6 -32 6 -51q0 -36 -27 -47h-27q-33 15 -33 70v10q0 126 163 174q45 9 119 9z" />
    <glyph glyph-name="yabali" unicode="&#x1b2c;" horiz-adv-x="940" 
d="M180 524q76 0 76 -97q0 -41 -28 -261q0 -87 104 -87q97 0 124 348q0 56 28 78h8q25 0 52 -281q27 -155 104 -155q96 0 96 150v5q0 105 -40 290v10h52q86 0 116 -111q8 -49 8 -87v-25q0 -99 -4 -300l-8 -5h-32l-8 5q4 104 4 155v49q0 23 4 48q0 194 -68 194h-4
q20 -129 28 -247q-20 -213 -96 -213q0 -10 -40 -10h-4q-138 0 -152 198q0 16 -12 97h-4q-18 -161 -60 -232q-44 -53 -108 -53q-160 21 -160 188l32 247v5q0 39 -32 39h-4q-29 0 -36 -48q12 -88 12 -112v-14q0 -8 -16 -20h-12q-40 33 -40 107v9q0 96 84 131q22 5 36 5z" />
    <glyph glyph-name="rabali" unicode="&#x1b2d;" horiz-adv-x="830" 
d="M532 536q173 0 224 -154q14 -43 14 -98v-275q0 -9 -10 -9h-42q-10 0 -10 9v229q0 200 -181 200h-10q-114 0 -114 -182q0 -181 -138 -242q-57 -9 -62 -9q-25 0 -38 23v19q71 204 71 256q0 12 5 37q0 119 -81 145h-9q-20 -10 -20 -28q0 -12 24 -107v-24q-10 -18 -24 -18
q-71 23 -71 111v14q0 86 110 98q95 0 133 -107q10 -20 10 -74q0 -118 -62 -271h14q71 0 90 163q-4 32 -4 52v70q0 172 181 172z" />
    <glyph glyph-name="labali" unicode="&#x1b2e;" horiz-adv-x="1091" 
d="M488 535h34q85 0 100 -123q-5 -19 -19 -189q0 -117 147 -138q153 0 153 152q0 85 -43 284l14 9q162 0 162 -170v-322q0 -35 -14 -38h-34q-9 0 -9 9v143q0 44 5 80q0 218 -53 218h-5q20 -143 20 -218q0 -232 -191 -232h-19q-124 0 -167 114q-9 9 -19 99q5 53 5 95v52
q0 71 -71 71h-5q-91 0 -110 -142v-33q0 -69 77 -228v-9l-19 -14h-29q-163 0 -219 132q-9 36 -9 67v9q0 38 19 213q-7 43 -34 43q-28 -8 -28 -57q9 -81 9 -109v-9q0 -8 -19 -19h-19q-38 26 -38 94v15q17 142 129 142h4q81 -14 81 -81l-19 -218v-14q0 -99 81 -132q4 0 38 -5
q-52 118 -52 213q0 211 166 246z" />
    <glyph glyph-name="wabali" unicode="&#x1b2f;" horiz-adv-x="913" 
d="M196 536q94 -11 94 -81v-4q-24 -198 -24 -228q0 -133 230 -133q179 0 179 142q0 92 -108 119q-118 20 -118 28q37 148 146 148q0 4 28 4q163 0 221 -180q9 -51 9 -109v-233q0 -9 -9 -9h-38q-9 0 -9 9v190q0 178 -94 218q-36 15 -61 15q-19 0 -66 -15v-9q78 0 141 -109
q9 -19 9 -52v-24q0 -196 -239 -218q-228 0 -296 156q-9 33 -9 57v33q0 25 19 185q-6 43 -42 43q-29 -15 -29 -57l14 -99q0 -24 -23 -38h-23q-38 24 -38 104q17 147 136 147z" />
    <glyph glyph-name="sasagabali" unicode="&#x1b30;" horiz-adv-x="1066" 
d="M561 536q193 0 264 -185l9 -66q0 -104 -74 -204v-10q116 0 116 166q-4 92 -37 285l9 5h28q130 0 130 -171v-294q0 -62 -14 -62h-37l-9 5l4 9v342q0 104 -55 104q28 -163 28 -232q0 -152 -75 -200q-58 -28 -116 -28q-83 3 -83 19q144 134 144 242q0 141 -190 166l-42 5
q-227 0 -227 -185q0 -75 120 -214v-9q0 -16 -69 -19q-218 27 -218 199q18 175 18 213v19q0 26 -18 34h-19q-18 -8 -18 -34v-23q0 -48 9 -95q0 -30 -23 -43h-19q-37 27 -37 95v14q17 147 125 147h5q77 0 83 -95q-28 -190 -28 -213v-10q0 -4 -4 -4q0 -77 60 -105q14 -9 56 -19
v5q-65 83 -65 161v29q0 180 181 247q56 9 88 9zM652 52q-60 164 -145 233l-66 -43l-12 10l76 145q75 -40 116.5 -139t52.5 -202z" />
    <glyph glyph-name="sasapabali" unicode="&#x1b31;" horiz-adv-x="904" 
d="M199 536h9q79 -14 79 -62l-28 -251q0 -101 191 -128h88q100 0 134 62q24 46 24 113q0 112 -42 261l9 5h42q113 0 139 -123v-15q0 -54 -5 -393l-9 -5h-37q-9 0 -9 9v15q0 133 4 294q0 137 -55 137h-5q19 -132 19 -227q0 -154 -135 -209q-59 -19 -88 -19h-37
q-227 0 -297 152q-9 44 -9 71v14q18 179 18 209t-37 33q-24 0 -28 -47v-5q10 -104 10 -109q0 -30 -38 -33q-36 0 -46 99v5q17 147 139 147zM476 241q94 0 193 -194q27 -86 27 -107l-11 -6q-76 144 -183 232l-10 5q-15 -40 -27 -43q-11 0 -11 11v54q0 41 22 48z" />
    <glyph glyph-name="sabali" unicode="&#x1b32;" horiz-adv-x="917" 
d="M272 536h14q96 0 137 -76q14 -27 14 -62q0 -86 -70 -218q105 -109 179 -109q108 0 141 114q10 26 10 81q0 78 -33 256l9 5h43q113 0 141 -124v-389q0 -9 -9 -9h-38q-10 0 -10 9q5 168 5 233q0 204 -56 204h-15v-5q24 -128 24 -218q0 -169 -175 -223q-17 -5 -42 -5h-9
q-119 0 -217 100q-88 -91 -156 -91q-99 13 -99 95v15q0 96 127 142h33q29 0 95 -38q47 85 47 175q0 68 -94 86q-109 0 -109 -109v-57q0 -26 -24 -38h-18q-45 0 -52 66q0 145 165 185q17 5 42 5zM135 123v-4q0 -26 19 -34h29q36 0 85 62q-44 38 -67 38h-4q-62 -16 -62 -62z
" />
    <glyph glyph-name="habali" unicode="&#x1b33;" horiz-adv-x="1071" 
d="M186 529q65 0 75 -65v-19l-23 -253q0 -103 112 -103h33q113 0 113 89q0 56 -5 201q0 132 150 146h14q183 0 183 -230v-5q0 -139 -66 -234h5q103 14 103 103v56q0 77 -19 305l9 5h15q126 0 126 -164v-192q0 -54 -5 -164l-9 -5h-33q-9 0 -9 14q0 94 4 230q0 210 -46 210h-5
q14 -99 19 -248q0 -184 -99 -197q-35 -9 -65 -9h-24q-25 0 -37 23q84 148 84 258q0 97 -51 141q-38 18 -52 18h-33q-107 0 -107 -112q9 -134 9 -197q-34 -117 -117 -117q-59 -6 -70 -9q-197 0 -197 187l23 216q0 60 -42 60q-16 0 -23 -51q9 -100 9 -122q0 -28 -33 -28h-5
q-37 26 -37 98v29q21 135 126 135z" />
    <glyph glyph-name="signrerekancombbali" unicode="&#x1b34;" 
d="M-389 832q0 17 12.5 29t29.5 12q15 0 28 -12t13 -29q0 -19 -13 -30t-28 -11q-17 0 -29.5 11.5t-12.5 29.5zM-455 716q0 17 12.5 29t29.5 12q15 0 28 -12t13 -29q0 -19 -13 -30t-28 -11q-17 0 -29.5 11.5t-12.5 29.5zM-321 716q0 17 12.5 29t29.5 12q15 0 28 -12t13 -29
q0 -19 -13 -30t-28 -11q-17 0 -29.5 11.5t-12.5 29.5z" />
    <glyph glyph-name="vowelsigntedungbali" unicode="&#x1b35;" horiz-adv-x="595" 
d="M263 530q197 0 263 -195q9 -21 9 -61v-28q0 -172 -170 -241q-41 -5 -68 -5q-112 12 -112 74q8 56 54 56h19l117 -37h5q102 26 102 153q0 141 -175 186q-32 5 -64 5q-118 0 -228 -135h-10l-5 9v14q44 205 263 205z" />
    <glyph glyph-name="vowelsignulucombbali" unicode="&#x1b36;" 
d="M-423 1097h26q199 0 245 -203v-47q0 -124 -135 -229h-11q-10 0 -10 10q0 15 83 141q16 48 16 88q0 99 -146 141q-5 5 -42 5h-31q-121 0 -151 -120v-26q0 -35 89 -192q5 -10 5 -16q-10 -31 -57 -31q-203 27 -203 156v26q10 168 10 182v16q0 5 -21 21q-31 -12 -31 -42
q16 -91 16 -114q-13 -11 -21 -11q-52 35 -52 89v15q24 115 109 115q73 0 73 -78q-21 -151 -21 -188q11 -93 78 -93h6v15q-53 69 -53 136v46q0 119 151 177q49 11 78 11z" />
    <glyph glyph-name="vowelsignulusaricombbali" unicode="&#x1b37;" 
d="M-423 1097h26q199 0 245 -203v-47q0 -124 -135 -229h-11q-10 0 -10 10q0 15 83 141q16 48 16 88q0 99 -146 141q-5 5 -42 5h-31q-121 0 -151 -120v-26q0 -35 89 -192q5 -10 5 -16q-10 -31 -57 -31q-203 27 -203 156v26q10 168 10 182v16q0 5 -21 21q-31 -12 -31 -42
q16 -91 16 -114q-13 -11 -21 -11q-52 35 -52 89v15q24 115 109 115q73 0 73 -78q-21 -151 -21 -188q11 -93 78 -93h6v15q-53 69 -53 136v46q0 119 151 177q49 11 78 11zM-337 669q-45 143 -111 204l-50 -38l-10 9l59 126q57 -35 89 -121.5t41 -175.5z" />
    <glyph glyph-name="vowelsignsukucombbali" unicode="&#x1b38;" 
d="M-113 26h42q9 -1 9 -9v-241q0 -439 -106 -527q-68 -64 -134 -69h-42q-99 0 -120 79v27q0 81 162 158q92 66 92 157q23 106 23 319l9 4q0 -4 37 -27q-4 -47 -4 -70v-46q0 -328 -130 -388q-87 -59 -87 -93v-18q0 -13 46 -19h9q116 0 166 227q24 136 24 346v93q0 30 -5 92z
" />
    <glyph glyph-name="vowelsignsukuilutcombbali" unicode="&#x1b39;" 
d="M-67 0v-9q-99 -136 -115 -221v-5q0 -23 35 -49q44 84 58 89q35 -13 44 -13q0 -13 -58 -111v-5q98 -61 98 -141q0 -102 -257 -342q-32 -13 -40 -13h-9q-44 0 -44 35v18q0 138 164 408q0 8 -62 62l-9 31v18q0 48 133 248h62zM-142 -390q-142 -263 -142 -341h9
q195 201 195 261q0 37 -62 80z" />
    <glyph glyph-name="vowelsignrarepacombbali" unicode="&#x1b3a;" 
d="M-299 -472h16q82 0 191 -328q9 -29 9 -48v-15q0 -17 -7 -40h-4q-147 325 -192 325q-18 -10 -35 -77h-2q-44 37 -44 64v18q0 60 57 99zM-107 2h37l10 -5q4 -140 4 -207v-64q0 -410 -286 -493q-68 -19 -121 -19h-10q-295 0 -412 226q-38 82 -38 180v41q15 332 89 332
q0 -5 5 -5q-42 -185 -42 -318q0 -355 389 -355q264 0 333 180q32 98 32 231v267q2 9 10 9z" />
    <glyph glyph-name="vowelsignrarepatedungbali" unicode="&#x1b3b;" horiz-adv-x="622" 
d="M-95 53h42q4 -1 4 -4v-240q0 -271 -81 -354q-53 -78 -200 -118q-38 -9 -67 -9h-35q-165 0 -273 115q-77 106 -77 241v36q0 129 69 212l23 21q41 -16 41 -23q-81 -84 -81 -233q0 -195 169 -265q73 -21 141 -21q214 0 284 159q37 79 37 390v89q1 4 4 4zM-302 -332h16
q82 0 191 -328q9 -29 9 -48v-15q0 -17 -7 -40h-4q-147 325 -192 325q-18 -10 -35 -77h-2q-44 37 -44 64v18q0 60 57 99zM290 530q197 0 263 -195q9 -21 9 -61v-28q0 -172 -170 -241q-41 -5 -68 -5q-112 12 -112 74q8 56 54 56h19l117 -37h5q102 26 102 153q0 141 -175 186
q-32 5 -64 5q-118 0 -228 -135h-10l-5 9v14q44 205 263 205z" />
    <glyph glyph-name="vowelsignlalengacombbali" unicode="&#x1b3c;" 
d="M-449 -83h29q70 0 86 -100q-4 -16 -17 -160q0 -105 127 -120q127 0 127 132q0 20 4 48q-4 53 -4 112v68l-4 8l8 4h33q8 -1 8 -8v-208q0 -228 -168 -228h-16q-113 0 -151 112l-9 64q4 65 4 116q0 72 -61 72h-4q-80 0 -98 -132q0 -65 69 -208v-8l-16 -12h-25
q-140 0 -188 112q-8 30 -8 56v12q0 36 16 172q-4 40 -28 40q-25 -7 -25 -48q8 -68 8 -92v-8q0 -6 -16 -16h-16q-33 23 -33 80v12q14 120 110 120h5q69 -11 69 -68v-8l-16 -164v-32q0 -74 69 -104q4 0 33 -4q-45 96 -45 180q0 178 143 208zM-290 1035h13q196 -17 222 -102
q0 -57 -173 -133q-56 -13 -97 -13h-49q-112 0 -226 49q-58 -67 -58 -125q0 -26 89 -57q0 -22 -53 -36h-18q-96 0 -111 124q0 15 9 67q-3 0 -22 -22h-9v4q20 62 58 62h8q14 0 14 -17q-22 -36 -22 -76v-26q0 -38 26 -58v4q-9 29 -13 67q0 49 49 120q-31 33 -31 39q0 12 13 31
q3 0 49 -31q154 129 332 129zM-551 875v-4q90 -22 150 -22h49q104 0 177 75q0 22 -106 31q-100 0 -270 -80z" />
    <glyph glyph-name="vowelsignlalengatedungbali" unicode="&#x1b3d;" horiz-adv-x="622" 
d="M290 530q197 0 263 -195q9 -21 9 -61v-28q0 -172 -170 -241q-41 -5 -68 -5q-112 12 -112 74q8 56 54 56h19l117 -37h5q102 26 102 153q0 141 -175 186q-32 5 -64 5q-118 0 -228 -135h-10l-5 9v14q44 205 263 205zM-449 -83h29q70 0 86 -100q-4 -16 -17 -160
q0 -105 127 -120q127 0 127 132q0 20 4 48q-4 53 -4 112v68l-4 8l8 4h33q8 -1 8 -8v-208q0 -228 -168 -228h-16q-113 0 -151 112l-9 64q4 65 4 116q0 72 -61 72h-4q-80 0 -98 -132q0 -65 69 -208v-8l-16 -12h-25q-140 0 -188 112q-8 30 -8 56v12q0 36 16 172q-4 40 -28 40
q-25 -7 -25 -48q8 -68 8 -92v-8q0 -6 -16 -16h-16q-33 23 -33 80v12q14 120 110 120h5q69 -11 69 -68v-8l-16 -164v-32q0 -74 69 -104q4 0 33 -4q-45 96 -45 180q0 178 143 208zM-290 1035h13q196 -17 222 -102q0 -57 -173 -133q-56 -13 -97 -13h-49q-112 0 -226 49
q-58 -67 -58 -125q0 -26 89 -57q0 -22 -53 -36h-18q-96 0 -111 124q0 15 9 67q-3 0 -22 -22h-9v4q20 62 58 62h8q14 0 14 -17q-22 -36 -22 -76v-26q0 -38 26 -58v4q-9 29 -13 67q0 49 49 120q-31 33 -31 39q0 12 13 31q3 0 49 -31q154 129 332 129zM-551 875v-4
q90 -22 150 -22h49q104 0 177 75q0 22 -106 31q-100 0 -270 -80z" />
    <glyph glyph-name="vowelsigntalingbali" unicode="&#x1b3e;" horiz-adv-x="666" 
d="M370 528h5q224 0 224 -262q-36 -770 -36 -831q0 -167 59 -167q0 -4 27 -8q76 0 85 96q0 62 27 62q36 -10 36 -66v-5q-22 -170 -148 -170q-104 0 -149 116q-13 30 -13 104v54q0 62 40 790v13q0 151 -58 178q-50 25 -76 25h-18q-99 0 -140 -79q-9 -33 -9 -41v-33
q0 -77 95 -175q4 -7 4 -17v-4q0 -9 -40 -12q-189 0 -225 158v33q11 18 31 25q38 0 50 -92q43 -54 76 -54q-58 82 -58 154v17q0 138 153 183q20 8 58 8z" />
    <glyph glyph-name="vowelsigntalingrepabali" unicode="&#x1b3f;" horiz-adv-x="666" 
d="M375 845h24q76 -17 76 -64v-16q-76 28 -104 28h-20q-6 0 -12 -12q33 -19 128 -52q36 -33 36 -64v-12q-16 -84 -100 -84h-28q-88 0 -136 96q13 8 24 8h8l96 -44l40 -4q44 12 44 28q0 36 -124 68q-40 29 -40 52v12q13 60 88 60zM370 528h5q224 0 224 -262
q-36 -770 -36 -831q0 -167 59 -167q0 -4 27 -8q76 0 85 96q0 62 27 62q36 -10 36 -66v-5q-22 -170 -148 -170q-104 0 -149 116q-13 30 -13 104v54q0 62 40 790v13q0 151 -58 178q-50 25 -76 25h-18q-99 0 -140 -79q-9 -33 -9 -41v-33q0 -77 95 -175q4 -7 4 -17v-4
q0 -9 -40 -12q-189 0 -225 158v33q11 18 31 25q38 0 50 -92q43 -54 76 -54q-58 82 -58 154v17q0 138 153 183q20 8 58 8z" />
    <glyph glyph-name="vowelsigntalingtedungbali" unicode="&#x1b40;" horiz-adv-x="1807" 
d="M911 485q0 10 7.5 17t17.5 7q9 0 16.5 -7t7.5 -17q0 -12 -7.5 -18.5t-16.5 -6.5q-10 0 -17.5 7t-7.5 18zM998 477q4 9 13.5 13t18.5 0q8 -3 12.5 -12.5t0.5 -19.5t-14 -13t-18 0q-9 4 -13 13t0 19zM871 477q4 -10 0 -19t-13 -13q-8 -3 -18 0.5t-14 12.5q-4 11 0.5 20
t12.5 12q10 4 19 0.5t13 -13.5zM1076 437q7 7 17 7t17 -8q7 -6 7.5 -16.5t-7.5 -17.5q-8 -8 -18 -7t-16 7q-7 7 -7.5 17t7.5 18zM794 436q7 -7 7 -17t-8 -17q-6 -7 -16.5 -7.5t-17.5 7.5q-8 8 -7 18t7 16q7 7 17 7.5t18 -7.5zM1132 368q10 4 19 0t13 -13q3 -8 -0.5 -18
t-12.5 -14q-11 -4 -20 0.5t-12 12.5q-4 10 -0.5 19t13.5 13zM738 368q9 -4 13 -13.5t0 -18.5q-3 -8 -12.5 -12.5t-19.5 -0.5t-13 14t0 18q4 9 13 13t19 0zM1158 285q10 0 17 -7.5t7 -17.5q0 -9 -7 -16.5t-17 -7.5q-12 0 -18.5 7.5t-6.5 16.5q0 10 7 17.5t18 7.5zM712 285
q10 0 17 -7.5t7 -17.5q0 -9 -7 -16.5t-17 -7.5q-12 0 -18.5 7.5t-6.5 16.5q0 10 7 17.5t18 7.5zM1151 198q9 -4 13 -13.5t0 -18.5q-3 -8 -12.5 -12.5t-19.5 -0.5t-13 14t0 18q4 9 13 13t19 0zM720 197q10 4 19 0t13 -13q3 -8 -0.5 -18t-12.5 -14q-11 -4 -20 0.5t-12 12.5
q-4 10 -0.5 19t13.5 13zM1110 120q7 -7 7 -17t-8 -17q-6 -7 -16.5 -7.5t-17.5 7.5q-8 8 -7 18t7 16q7 7 17 7.5t18 -7.5zM761 120q7 7 17 7t17 -8q7 -6 7.5 -16.5t-7.5 -17.5q-8 -8 -18 -7t-16 7q-7 7 -7.5 17t7.5 18zM829 65q4 9 13.5 13t18.5 0q8 -3 12.5 -12.5t0.5 -19.5
t-14 -13t-18 0q-9 4 -13 13t0 19zM1042 64q4 -10 0 -19t-13 -13q-8 -3 -18 0.5t-14 12.5q-4 11 0.5 20t12.5 12q10 4 19 0.5t13 -13.5zM912 38q0 10 7.5 17t17.5 7q9 0 16.5 -7t7.5 -17q0 -12 -7.5 -18.5t-16.5 -6.5q-10 0 -17.5 7t-7.5 18zM1475 513q197 0 263 -195
q9 -21 9 -61v-28q0 -172 -170 -241q-41 -5 -68 -5q-112 12 -112 74q8 56 54 56h19l117 -37h5q102 26 102 153q0 141 -175 186q-32 5 -64 5q-118 0 -228 -135h-10l-5 9v14q44 205 263 205zM370 528h5q224 0 224 -262q-36 -770 -36 -831q0 -167 59 -167q0 -4 27 -8q76 0 85 96
q0 62 27 62q36 -10 36 -66v-5q-22 -170 -148 -170q-104 0 -149 116q-13 30 -13 104v54q0 62 40 790v13q0 151 -58 178q-50 25 -76 25h-18q-99 0 -140 -79q-9 -33 -9 -41v-33q0 -77 95 -175q4 -7 4 -17v-4q0 -9 -40 -12q-189 0 -225 158v33q11 18 31 25q38 0 50 -92
q43 -54 76 -54q-58 82 -58 154v17q0 138 153 183q20 8 58 8z" />
    <glyph glyph-name="vowelsigntalingrepatedungbali" unicode="&#x1b41;" horiz-adv-x="1807" 
d="M911 485q0 10 7.5 17t17.5 7q9 0 16.5 -7t7.5 -17q0 -12 -7.5 -18.5t-16.5 -6.5q-10 0 -17.5 7t-7.5 18zM998 477q4 9 13.5 13t18.5 0q8 -3 12.5 -12.5t0.5 -19.5t-14 -13t-18 0q-9 4 -13 13t0 19zM871 477q4 -10 0 -19t-13 -13q-8 -3 -18 0.5t-14 12.5q-4 11 0.5 20
t12.5 12q10 4 19 0.5t13 -13.5zM1076 437q7 7 17 7t17 -8q7 -6 7.5 -16.5t-7.5 -17.5q-8 -8 -18 -7t-16 7q-7 7 -7.5 17t7.5 18zM794 436q7 -7 7 -17t-8 -17q-6 -7 -16.5 -7.5t-17.5 7.5q-8 8 -7 18t7 16q7 7 17 7.5t18 -7.5zM1132 368q10 4 19 0t13 -13q3 -8 -0.5 -18
t-12.5 -14q-11 -4 -20 0.5t-12 12.5q-4 10 -0.5 19t13.5 13zM738 368q9 -4 13 -13.5t0 -18.5q-3 -8 -12.5 -12.5t-19.5 -0.5t-13 14t0 18q4 9 13 13t19 0zM1158 285q10 0 17 -7.5t7 -17.5q0 -9 -7 -16.5t-17 -7.5q-12 0 -18.5 7.5t-6.5 16.5q0 10 7 17.5t18 7.5zM712 285
q10 0 17 -7.5t7 -17.5q0 -9 -7 -16.5t-17 -7.5q-12 0 -18.5 7.5t-6.5 16.5q0 10 7 17.5t18 7.5zM1151 198q9 -4 13 -13.5t0 -18.5q-3 -8 -12.5 -12.5t-19.5 -0.5t-13 14t0 18q4 9 13 13t19 0zM720 197q10 4 19 0t13 -13q3 -8 -0.5 -18t-12.5 -14q-11 -4 -20 0.5t-12 12.5
q-4 10 -0.5 19t13.5 13zM1110 120q7 -7 7 -17t-8 -17q-6 -7 -16.5 -7.5t-17.5 7.5q-8 8 -7 18t7 16q7 7 17 7.5t18 -7.5zM761 120q7 7 17 7t17 -8q7 -6 7.5 -16.5t-7.5 -17.5q-8 -8 -18 -7t-16 7q-7 7 -7.5 17t7.5 18zM829 65q4 9 13.5 13t18.5 0q8 -3 12.5 -12.5t0.5 -19.5
t-14 -13t-18 0q-9 4 -13 13t0 19zM1042 64q4 -10 0 -19t-13 -13q-8 -3 -18 0.5t-14 12.5q-4 11 0.5 20t12.5 12q10 4 19 0.5t13 -13.5zM912 38q0 10 7.5 17t17.5 7q9 0 16.5 -7t7.5 -17q0 -12 -7.5 -18.5t-16.5 -6.5q-10 0 -17.5 7t-7.5 18zM375 845h24q76 -17 76 -64v-16
q-76 28 -104 28h-20q-6 0 -12 -12q33 -19 128 -52q36 -33 36 -64v-12q-16 -84 -100 -84h-28q-88 0 -136 96q13 8 24 8h8l96 -44l40 -4q44 12 44 28q0 36 -124 68q-40 29 -40 52v12q13 60 88 60zM1475 513q197 0 263 -195q9 -21 9 -61v-28q0 -172 -170 -241q-41 -5 -68 -5
q-112 12 -112 74q8 56 54 56h19l117 -37h5q102 26 102 153q0 141 -175 186q-32 5 -64 5q-118 0 -228 -135h-10l-5 9v14q44 205 263 205zM370 528h5q224 0 224 -262q-36 -770 -36 -831q0 -167 59 -167q0 -4 27 -8q76 0 85 96q0 62 27 62q36 -10 36 -66v-5q-22 -170 -148 -170
q-104 0 -149 116q-13 30 -13 104v54q0 62 40 790v13q0 151 -58 178q-50 25 -76 25h-18q-99 0 -140 -79q-9 -33 -9 -41v-33q0 -77 95 -175q4 -7 4 -17v-4q0 -9 -40 -12q-189 0 -225 158v33q11 18 31 25q38 0 50 -92q43 -54 76 -54q-58 82 -58 154v17q0 138 153 183q20 8 58 8
z" />
    <glyph glyph-name="vowelsignpepetcombbali" unicode="&#x1b42;" 
d="M-290 1035h13q196 -17 222 -102q0 -57 -173 -133q-56 -13 -97 -13h-49q-112 0 -226 49q-58 -67 -58 -125q0 -26 89 -57q0 -22 -53 -36h-18q-96 0 -111 124q0 15 9 67q-3 0 -22 -22h-9v4q20 62 58 62h8q14 0 14 -17q-22 -36 -22 -76v-26q0 -38 26 -58v4q-9 29 -13 67
q0 49 49 120q-31 33 -31 39q0 12 13 31q3 0 49 -31q154 129 332 129zM-551 875v-4q90 -22 150 -22h49q104 0 177 75q0 22 -106 31q-100 0 -270 -80z" />
    <glyph glyph-name="vowelsignpepettedungbali" unicode="&#x1b43;" horiz-adv-x="622" 
d="M290 530q197 0 263 -195q9 -21 9 -61v-28q0 -172 -170 -241q-41 -5 -68 -5q-112 12 -112 74q8 56 54 56h19l117 -37h5q102 26 102 153q0 141 -175 186q-32 5 -64 5q-118 0 -228 -135h-10l-5 9v14q44 205 263 205zM-290 1035h13q196 -17 222 -102q0 -57 -173 -133
q-56 -13 -97 -13h-49q-112 0 -226 49q-58 -67 -58 -125q0 -26 89 -57q0 -22 -53 -36h-18q-96 0 -111 124q0 15 9 67q-3 0 -22 -22h-9v4q20 62 58 62h8q14 0 14 -17q-22 -36 -22 -76v-26q0 -38 26 -58v4q-9 29 -13 67q0 49 49 120q-31 33 -31 39q0 12 13 31q3 0 49 -31
q154 129 332 129zM-551 875v-4q90 -22 150 -22h49q104 0 177 75q0 22 -106 31q-100 0 -270 -80z" />
    <glyph glyph-name="adegadegbali" unicode="&#x1b44;" horiz-adv-x="256" 
d="M196 -826q-141 0 -173 226q0 45 -4 113q50 959 50 1129q0 204 -93 234q-52 14 -56 14q-142 0 -160 -155q0 -52 38 -114q21 -23 21 -35q0 -20 -28 -20q-25 0 -57 20q-64 43 -64 148q0 176 160 238q36 8 79 8q163 -2 225 -164q20 -68 20 -134q-44 -992 -46 -1215
q5 -170 55 -177q16 -5 28 -5l10 1q81 0 95 160l13 1q42 0 43 -61q-28 -212 -156 -212z" />
    <glyph glyph-name="kafsasakbali" unicode="&#x1b45;" horiz-adv-x="910" 
d="M202 536q105 0 105 -147v-85h36q28 232 224 232h9q160 0 224 -161q19 -68 19 -119q0 -76 -37 -175h5q64 0 77 142q0 70 -32 304l10 4h45q69 0 101 -85q9 -21 9 -62v-294q0 -85 -14 -85h-32q-9 0 -9 9v52q0 100 5 181q0 213 -51 213q-4 0 -4 -5q18 -175 18 -251
q0 -167 -132 -195l-42 -4q-50 3 -50 23q87 99 87 242q0 152 -183 171h-23q-150 0 -150 -142q233 -35 233 -161v-34q0 -84 -106 -104h-13q-153 0 -188 213h-32q0 -208 -96 -208q-114 21 -114 109v19q0 109 137 161q14 0 14 10v14q0 142 -37 156l-22 5h-14q-41 0 -41 -85v-48
q0 -52 -41 -52q-37 18 -37 66v38q31 138 133 138h9zM421 209v-5q0 -111 114 -152h14q31 8 41 33v15q0 73 -169 109zM161 123q0 -31 27 -47h27q29 0 37 95v33h-5q-55 0 -86 -81zM318 395h35q5 -1 5 -4v-272q0 -172 14 -228q48 -96 152 -96h22q95 0 139 113q4 24 11 24h6
q27 0 27 -6q0 -81 -68 -170q-50 -48 -121 -48h-23q-149 0 -195 181q-8 54 -8 104v398q1 4 4 4z" />
    </font>
</defs>
</svg>
