<?xml version="1.0" standalone="no"?>
<!DOCTYPE svg PUBLIC "-//W3C//DTD SVG 1.1//EN" "http://www.w3.org/Graphics/SVG/1.1/DTD/svg11.dtd" >
<svg xmlns="http://www.w3.org/2000/svg" xmlns:xlink="http://www.w3.org/1999/xlink" version="1.1">
<metadata>
Created by FontForge 20190801 at Sat Jun  5 18:49:11 2021
 By www-data
Copyright 2020 I Wayan Sukanta. All Rights Reserved.
</metadata>
<defs>
<font id="Natya" horiz-adv-x="0" >
  <font-face 
    font-family="Natya"
    font-weight="400"
    font-stretch="normal"
    units-per-em="1000"
    panose-1="2 2 5 2 6 5 5 2 2 4"
    ascent="800"
    descent="-200"
    bbox="-1459 -942 2348 1140"
    underline-thickness="50"
    underline-position="-125"
    unicode-range="U+001D-25CC"
  />
<missing-glyph horiz-adv-x="600" 
d="M94 0v714h411v-714h-411zM145 663v-612h309v612h-309z" />
    <glyph glyph-name="signrerekancomb_signcecekcombba" unicode="&#x1b34;&#x1b02;" 
d="M-573 530q-62 0 -62 51q0 18 8 43q19 -47 101 -47l25 1q-29 -44 -63 -47zM-413 530q-62 0 -62 51q0 18 8 43q19 -47 101 -47l25 1q-29 -44 -63 -47zM-513 640q-62 0 -62 51q0 18 8 43q19 -47 101 -47l25 1q-29 -44 -63 -47zM-225 542q-47 148 -115 211l-52 -39l-10 9
l61 131q59 -36 92 -125.5t42 -182.5z" />
    <glyph glyph-name="signrerekancomb_signsurangcombb" unicode="&#x1b34;&#x1b03;" 
d="M4 533q-100 20 -208.5 142.5t-132.5 297.5l80 -21q38 -149 116.5 -259t150.5 -142zM-473 530q-62 0 -62 51q0 18 8 43q19 -47 101 -47l25 1q-29 -44 -63 -47zM-313 530q-62 0 -62 51q0 18 8 43q19 -47 101 -47l25 1q-29 -44 -63 -47zM-413 640q-62 0 -62 51q0 18 8 43
q19 -47 101 -47l25 1q-29 -44 -63 -47z" />
    <glyph glyph-name="signrerekancomb_vowelsignulucom" unicode="&#x1b34;&#x1b36;" 
d="M-291 908h2q133 0 181 -121q10 -25 10 -62v-6q0 -104 -92 -187l-10 -1h-2q-6 2 -6 11q0 14 49 88q19 42 19 80q0 85 -103 121q-32 7 -53 7q-93 0 -122 -81q-5 -18 -5 -27v-13q0 -25 43 -96q14 -31 14 -48v-5q0 -39 -38 -39h-5q-66 0 -118 89q-16 43 -16 79v5q0 71 40 146
l8 6h4q7 -2 7 -11q-21 -83 -21 -113v-23q0 -48 39 -99q10 -9 20 -9h5q3 0 6 7q0 11 -37 74q-9 27 -9 55v2q0 102 91 153q44 18 99 18zM-760 527q-62 0 -62 51q0 18 8 43q19 -47 101 -47l25 1q-29 -44 -63 -47zM-600 527q-62 0 -62 51q0 18 8 43q19 -47 101 -47l25 1
q-29 -44 -63 -47zM-700 637q-62 0 -62 51q0 18 8 43q19 -47 101 -47l25 1q-29 -44 -63 -47z" />
    <glyph glyph-name="signrerekancomb_vowelsignulucom" unicode="&#x1b34;&#x1b36;&#x1b02;" 
d="M-521 908h2q133 0 181 -121q10 -25 10 -62v-6q0 -104 -92 -187l-10 -1h-2q-6 2 -6 11q0 14 49 88q19 42 19 80q0 85 -103 121q-32 7 -53 7q-93 0 -122 -81q-5 -18 -5 -27v-13q0 -25 43 -96q14 -31 14 -48v-5q0 -39 -38 -39h-5q-66 0 -118 89q-16 43 -16 79v5q0 71 40 146
l8 6h4q7 -2 7 -11q-21 -83 -21 -113v-23q0 -48 39 -99q10 -9 20 -9h5q3 0 6 7q0 11 -37 74q-9 27 -9 55v2q0 102 91 153q44 18 99 18zM-111 502q-56 176 -136 250l-62 -46l-12 11l73 155q70 -43 109 -149t50 -216zM-973 530q-62 0 -62 51q0 18 8 43q19 -47 101 -47l25 1
q-29 -44 -63 -47zM-813 530q-62 0 -62 51q0 18 8 43q19 -47 101 -47l25 1q-29 -44 -63 -47zM-913 640q-62 0 -62 51q0 18 8 43q19 -47 101 -47l25 1q-29 -44 -63 -47z" />
    <glyph glyph-name="signrerekancomb_vowelsignulucom" unicode="&#x1b34;&#x1b36;&#x1b03;" 
d="M-521 908h2q133 0 181 -121q10 -25 10 -62v-6q0 -104 -92 -187l-10 -1h-2q-6 2 -6 11q0 14 49 88q19 42 19 80q0 85 -103 121q-32 7 -53 7q-93 0 -122 -81q-5 -18 -5 -27v-13q0 -25 43 -96q14 -31 14 -48v-5q0 -39 -38 -39h-5q-66 0 -118 89q-16 43 -16 79v5q0 71 40 146
l8 6h4q7 -2 7 -11q-21 -83 -21 -113v-23q0 -48 39 -99q10 -9 20 -9h5q3 0 6 7q0 11 -37 74q-9 27 -9 55v2q0 102 91 153q44 18 99 18zM4 533q-100 20 -208.5 142.5t-132.5 297.5l80 -21q38 -149 116.5 -259t150.5 -142zM-973 530q-62 0 -62 51q0 18 8 43q19 -47 101 -47
l25 1q-29 -44 -63 -47zM-813 530q-62 0 -62 51q0 18 8 43q19 -47 101 -47l25 1q-29 -44 -63 -47zM-913 640q-62 0 -62 51q0 18 8 43q19 -47 101 -47l25 1q-29 -44 -63 -47z" />
    <glyph glyph-name="signrerekancomb_vowelsignulusar" unicode="&#x1b34;&#x1b37;" 
d="M-314 788q14 0 50 -56q39 -76 39 -140q-2 -18 -5 -18q0 2 -13 31q-14 34 -42 74q-9 18 -29 37q-2 2 -4 2q-7 0 -22 -30q-5 -9 -9 -9q-2 4 -2 9q0 37 21 81q9 19 16 19zM-291 908h2q133 0 181 -121q10 -25 10 -62v-6q0 -104 -92 -187l-10 -1h-2q-6 2 -6 11q0 14 49 88
q19 42 19 80q0 85 -103 121q-32 7 -53 7q-93 0 -122 -81q-5 -18 -5 -27v-13q0 -25 43 -96q14 -31 14 -48v-5q0 -39 -38 -39h-5q-66 0 -118 89q-16 43 -16 79v5q0 71 40 146l8 6h4q7 -2 7 -11q-21 -83 -21 -113v-23q0 -48 39 -99q10 -9 20 -9h5q3 0 6 7q0 11 -37 74
q-9 27 -9 55v2q0 102 91 153q44 18 99 18zM-291 908h2q133 0 181 -121q10 -25 10 -62v-6q0 -104 -92 -187l-10 -1h-2q-6 2 -6 11q0 14 49 88q19 42 19 80q0 85 -103 121q-32 7 -53 7q-93 0 -122 -81q-5 -18 -5 -27v-13q0 -25 43 -96q14 -31 14 -48v-5q0 -39 -38 -39h-5
q-66 0 -118 89q-16 43 -16 79v5q0 71 40 146l8 6h4q7 -2 7 -11q-21 -83 -21 -113v-23q0 -48 39 -99q10 -9 20 -9h5q3 0 6 7q0 11 -37 74q-9 27 -9 55v2q0 102 91 153q44 18 99 18zM-760 527q-62 0 -62 51q0 18 8 43q19 -47 101 -47l25 1q-29 -44 -63 -47zM-600 527
q-62 0 -62 51q0 18 8 43q19 -47 101 -47l25 1q-29 -44 -63 -47zM-700 637q-62 0 -62 51q0 18 8 43q19 -47 101 -47l25 1q-29 -44 -63 -47z" />
    <glyph glyph-name="signrerekancomb_vowelsignulusar" unicode="&#x1b34;&#x1b37;&#x1b02;" 
d="M-521 908h2q133 0 181 -121q10 -25 10 -62v-6q0 -104 -92 -187l-10 -1h-2q-6 2 -6 11q0 14 49 88q19 42 19 80q0 85 -103 121q-32 7 -53 7q-93 0 -122 -81q-5 -18 -5 -27v-13q0 -25 43 -96q14 -31 14 -48v-5q0 -39 -38 -39h-5q-66 0 -118 89q-16 43 -16 79v5q0 71 40 146
l8 6h4q7 -2 7 -11q-21 -83 -21 -113v-23q0 -48 39 -99q10 -9 20 -9h5q3 0 6 7q0 11 -37 74q-9 27 -9 55v2q0 102 91 153q44 18 99 18zM-111 502q-56 176 -136 250l-62 -46l-12 11l73 155q70 -43 109 -149t50 -216zM-973 530q-62 0 -62 51q0 18 8 43q19 -47 101 -47l25 1
q-29 -44 -63 -47zM-813 530q-62 0 -62 51q0 18 8 43q19 -47 101 -47l25 1q-29 -44 -63 -47zM-913 640q-62 0 -62 51q0 18 8 43q19 -47 101 -47l25 1q-29 -44 -63 -47zM-544 788q14 0 50 -56q39 -76 39 -140q-2 -18 -5 -18q0 2 -13 31q-14 34 -42 74q-9 18 -29 37q-2 2 -4 2
q-7 0 -22 -30q-5 -9 -9 -9q-2 4 -2 9q0 37 21 81q9 19 16 19zM-521 908h2q133 0 181 -121q10 -25 10 -62v-6q0 -104 -92 -187l-10 -1h-2q-6 2 -6 11q0 14 49 88q19 42 19 80q0 85 -103 121q-32 7 -53 7q-93 0 -122 -81q-5 -18 -5 -27v-13q0 -25 43 -96q14 -31 14 -48v-5
q0 -39 -38 -39h-5q-66 0 -118 89q-16 43 -16 79v5q0 71 40 146l8 6h4q7 -2 7 -11q-21 -83 -21 -113v-23q0 -48 39 -99q10 -9 20 -9h5q3 0 6 7q0 11 -37 74q-9 27 -9 55v2q0 102 91 153q44 18 99 18z" />
    <glyph glyph-name="signrerekancomb_vowelsignulusar" unicode="&#x1b34;&#x1b37;&#x1b03;" 
d="M-521 908h2q133 0 181 -121q10 -25 10 -62v-6q0 -104 -92 -187l-10 -1h-2q-6 2 -6 11q0 14 49 88q19 42 19 80q0 85 -103 121q-32 7 -53 7q-93 0 -122 -81q-5 -18 -5 -27v-13q0 -25 43 -96q14 -31 14 -48v-5q0 -39 -38 -39h-5q-66 0 -118 89q-16 43 -16 79v5q0 71 40 146
l8 6h4q7 -2 7 -11q-21 -83 -21 -113v-23q0 -48 39 -99q10 -9 20 -9h5q3 0 6 7q0 11 -37 74q-9 27 -9 55v2q0 102 91 153q44 18 99 18zM4 533q-100 20 -208.5 142.5t-132.5 297.5l80 -21q38 -149 116.5 -259t150.5 -142zM-973 530q-62 0 -62 51q0 18 8 43q19 -47 101 -47
l25 1q-29 -44 -63 -47zM-813 530q-62 0 -62 51q0 18 8 43q19 -47 101 -47l25 1q-29 -44 -63 -47zM-913 640q-62 0 -62 51q0 18 8 43q19 -47 101 -47l25 1q-29 -44 -63 -47zM-544 788q14 0 50 -56q39 -76 39 -140q-2 -18 -5 -18q0 2 -13 31q-14 34 -42 74q-9 18 -29 37
q-2 2 -4 2q-7 0 -22 -30q-5 -9 -9 -9q-2 4 -2 9q0 37 21 81q9 19 16 19zM-521 908h2q133 0 181 -121q10 -25 10 -62v-6q0 -104 -92 -187l-10 -1h-2q-6 2 -6 11q0 14 49 88q19 42 19 80q0 85 -103 121q-32 7 -53 7q-93 0 -122 -81q-5 -18 -5 -27v-13q0 -25 43 -96
q14 -31 14 -48v-5q0 -39 -38 -39h-5q-66 0 -118 89q-16 43 -16 79v5q0 71 40 146l8 6h4q7 -2 7 -11q-21 -83 -21 -113v-23q0 -48 39 -99q10 -9 20 -9h5q3 0 6 7q0 11 -37 74q-9 27 -9 55v2q0 102 91 153q44 18 99 18z" />
    <glyph glyph-name="signrerekancomb_vowelsignpepetc" unicode="&#x1b34;&#x1b42;" 
d="M-693 730q-62 0 -62 51q0 18 8 43q19 -47 101 -47l25 1q-29 -44 -63 -47zM-533 730q-62 0 -62 51q0 18 8 43q19 -47 101 -47l25 1q-29 -44 -63 -47zM-633 840q-62 0 -62 51q0 18 8 43q19 -47 101 -47l25 1q-29 -44 -63 -47zM-262 863h12q107 0 165 -83l2 -14v-6
q0 -38 -112 -62q-191 -73 -228 -73q-7 3 -7 6v6q22 32 180 89q56 24 57 32v8q0 18 -80 30h-5q-98 0 -174 -90q-26 -40 -26 -71q0 -13 20 -89v-8q0 -20 -34 -26h-3q-71 0 -101 89q-3 20 -3 36q0 2 3 53v6l-19 -8q-9 3 -10 8v4q0 26 49 38h8q16 0 16 -18q-12 -65 -12 -75
q0 -64 51 -91h7v6q-24 54 -24 83v10q0 94 115 172q74 38 153 38z" />
    <glyph glyph-name="signrerekancomb_vowelsignpepetc" unicode="&#x1b34;&#x1b42;&#x1b02;" 
d="M-402 863h12q107 0 165 -83l2 -14v-6q0 -38 -112 -62q-191 -73 -228 -73q-7 3 -7 6v6q22 32 180 89q56 24 57 32v8q0 18 -80 30h-5q-98 0 -174 -90q-26 -40 -26 -71q0 -13 20 -89v-8q0 -20 -34 -26h-3q-71 0 -101 89q-3 20 -3 36q0 2 3 53v6l-19 -8q-9 3 -10 8v4
q0 26 49 38h8q16 0 16 -18q-12 -65 -12 -75q0 -64 51 -91h7v6q-24 54 -24 83v10q0 94 115 172q74 38 153 38zM-25 542q-47 148 -115 211l-52 -39l-10 9l61 131q59 -36 92 -125.5t42 -182.5zM-833 730q-62 0 -62 51q0 18 8 43q19 -47 101 -47l25 1q-29 -44 -63 -47zM-673 730
q-62 0 -62 51q0 18 8 43q19 -47 101 -47l25 1q-29 -44 -63 -47zM-773 840q-62 0 -62 51q0 18 8 43q19 -47 101 -47l25 1q-29 -44 -63 -47zM-402 863h12q107 0 165 -83l2 -14v-6q0 -38 -112 -62q-191 -73 -228 -73q-7 3 -7 6v6q22 32 180 89q56 24 57 32v8q0 18 -80 30h-5
q-98 0 -174 -90q-26 -40 -26 -71q0 -13 20 -89v-8q0 -20 -34 -26h-3q-71 0 -101 89q-3 20 -3 36q0 2 3 53v6l-19 -8q-9 3 -10 8v4q0 26 49 38h8q16 0 16 -18q-12 -65 -12 -75q0 -64 51 -91h7v6q-24 54 -24 83v10q0 94 115 172q74 38 153 38z" />
    <glyph glyph-name="signrerekancomb_vowelsignpepetc" unicode="&#x1b34;&#x1b42;&#x1b03;" 
d="M4 533q-100 20 -208.5 142.5t-132.5 297.5l80 -21q38 -149 116.5 -259t150.5 -142zM-482 863h12q107 0 165 -83l2 -14v-6q0 -38 -112 -62q-191 -73 -228 -73q-7 3 -7 6v6q22 32 180 89q56 24 57 32v8q0 18 -80 30h-5q-98 0 -174 -90q-26 -40 -26 -71q0 -13 20 -89v-8
q0 -20 -34 -26h-3q-71 0 -101 89q-3 20 -3 36q0 2 3 53v6l-19 -8q-9 3 -10 8v4q0 26 49 38h8q16 0 16 -18q-12 -65 -12 -75q0 -64 51 -91h7v6q-24 54 -24 83v10q0 94 115 172q74 38 153 38zM-923 730q-62 0 -62 51q0 18 8 43q19 -47 101 -47l25 1q-29 -44 -63 -47zM-763 730
q-62 0 -62 51q0 18 8 43q19 -47 101 -47l25 1q-29 -44 -63 -47zM-863 840q-62 0 -62 51q0 18 8 43q19 -47 101 -47l25 1q-29 -44 -63 -47z" />
    <glyph glyph-name="vowelsignulucomb_signuluricemco" unicode="&#x1b36;&#x1b00;" 
d="M-323 964q35 0 55 -33q9 -17 9 -30v-3q0 -20 -14 -39q-16 -17 -27 -17h-2q-3 0 -3 3t13 12q18 16 18 34q0 17 -15 29q-12 9 -29 9h-4q-26 0 -41 -21q-4 -8 -4 -17q0 -20 24 -38q8 -6 8 -9v0q-1 -2 -4 -2q-12 0 -30 18q-15 17 -15 37v2q0 26 24 50q17 15 37 15zM-323 1075
h1q94 0 128 -90q7 -19 7 -47v-4q0 -78 -65 -140l-7 -1h-1q-5 2 -5 9q0 10 35 65q13 32 13 60q0 64 -73 91q-22 5 -37 5q-65 0 -86 -61q-3 -13 -3 -20v-10q0 -18 30 -71q10 -23 10 -36v-4q0 -29 -27 -29h-3q-47 0 -84 66q-11 33 -11 59v4q0 53 28 109l6 5h3q5 -2 5 -9
q-15 -62 -15 -84v-17q0 -36 27 -74q8 -7 14 -7h4q2 0 4 5q0 9 -26 56q-6 20 -6 41v1q0 76 64 115q31 13 70 13zM-328 775h1q105 0 143 -79q7 -16 7 -40v-4q0 -67 -72 -121l-8 -1h-1q-6 2 -6 7q0 10 39 58q15 27 15 51q0 56 -81 79q-25 5 -41 5q-73 0 -96 -53q-4 -12 -4 -18
v-8q0 -16 34 -62q11 -20 11 -31v-4q0 -25 -30 -25h-4q-52 0 -92 58q-13 28 -13 51v3q0 46 31 95l6 4h4q5 -1 5 -7q-16 -54 -16 -74v-14q0 -32 30 -65q9 -6 16 -6h4q2 0 5 5q0 7 -29 48q-8 18 -8 36v1q0 66 72 99q34 12 78 12z" />
    <glyph glyph-name="vowelsignulucomb_signulucandrac" unicode="&#x1b36;&#x1b01;" 
d="M-328 775h1q105 0 143 -79q7 -16 7 -40v-4q0 -67 -72 -121l-8 -1h-1q-6 2 -6 7q0 10 39 58q15 27 15 51q0 56 -81 79q-25 5 -41 5q-73 0 -96 -53q-4 -12 -4 -18v-8q0 -16 34 -62q11 -20 11 -31v-4q0 -25 -30 -25h-4q-52 0 -92 58q-13 28 -13 51v3q0 46 31 95l6 4h4
q5 -1 5 -7q-16 -54 -16 -74v-14q0 -32 30 -65q9 -6 16 -6h4q2 0 5 5q0 7 -29 48q-8 18 -8 36v1q0 66 72 99q34 12 78 12zM-325 1140h1q3 0 12 -95q-1 0 -1 -1q-7 1 -11 1q-3 0 -14 -1l-1 2q10 94 14 94zM-337 1035h10q41 0 62 -52q4 -15 4 -28v-5q0 -36 -28 -64
q-17 -11 -36 -11h-4q-51 0 -66 53q-4 16 -4 26q0 53 46 78q10 3 16 3zM-384 953v-1q0 -19 33 -41q9 -6 18 -6h5q22 0 46 32q5 7 5 14v1q0 24 -36 46q-11 2 -14 2h-7q-17 0 -42 -27q-8 -8 -8 -20zM-179 986h1q2 0 3 -12v-1q0 -69 -53 -129q-41 -40 -100 -40h-3q-72 0 -126 68
q-30 52 -30 91v4q0 15 4 18q1 0 12 -34q46 -91 144 -91q89 0 125 76q11 20 23 50z" />
    <glyph glyph-name="vowelsignulucomb_signcecekcombb" unicode="&#x1b36;&#x1b02;" 
d="M-521 908h2q133 0 181 -121q10 -25 10 -62v-6q0 -104 -92 -187l-10 -1h-2q-6 2 -6 11q0 14 49 88q19 42 19 80q0 85 -103 121q-32 7 -53 7q-93 0 -122 -81q-5 -18 -5 -27v-13q0 -25 43 -96q14 -31 14 -48v-5q0 -39 -38 -39h-5q-66 0 -118 89q-16 43 -16 79v5q0 71 40 146
l8 6h4q7 -2 7 -11q-21 -83 -21 -113v-23q0 -48 39 -99q10 -9 20 -9h5q3 0 6 7q0 11 -37 74q-9 27 -9 55v2q0 102 91 153q44 18 99 18zM-111 502q-56 176 -136 250l-62 -46l-12 11l73 155q70 -43 109 -149t50 -216z" />
    <glyph glyph-name="vowelsignulucomb_signsurangcomb" unicode="&#x1b36;&#x1b03;" 
d="M-521 908h2q133 0 181 -121q10 -25 10 -62v-6q0 -104 -92 -187l-10 -1h-2q-6 2 -6 11q0 14 49 88q19 42 19 80q0 85 -103 121q-32 7 -53 7q-93 0 -122 -81q-5 -18 -5 -27v-13q0 -25 43 -96q14 -31 14 -48v-5q0 -39 -38 -39h-5q-66 0 -118 89q-16 43 -16 79v5q0 71 40 146
l8 6h4q7 -2 7 -11q-21 -83 -21 -113v-23q0 -48 39 -99q10 -9 20 -9h5q3 0 6 7q0 11 -37 74q-9 27 -9 55v2q0 102 91 153q44 18 99 18zM4 533q-100 20 -208.5 142.5t-132.5 297.5l80 -21q38 -149 116.5 -259t150.5 -142z" />
    <glyph glyph-name="vowelsignulucomb_signcecekcomb_" unicode="&#x1b36;&#x1b02;&#x1b03;" 
d="M-521 908h2q133 0 181 -121q10 -25 10 -62v-6q0 -104 -92 -187l-10 -1h-2q-6 2 -6 11q0 14 49 88q19 42 19 80q0 85 -103 121q-32 7 -53 7q-93 0 -122 -81q-5 -18 -5 -27v-13q0 -25 43 -96q14 -31 14 -48v-5q0 -39 -38 -39h-5q-66 0 -118 89q-16 43 -16 79v5q0 71 40 146
l8 6h4q7 -2 7 -11q-21 -83 -21 -113v-23q0 -48 39 -99q10 -9 20 -9h5q3 0 6 7q0 11 -37 74q-9 27 -9 55v2q0 102 91 153q44 18 99 18zM-111 502q-56 176 -136 250l-62 -46l-12 11l73 155q70 -43 109 -149t50 -216zM-36 833q-149 19 -233 77t-108 163l80 -21
q38 -79 92 -124.5t175 -76.5z" />
    <glyph glyph-name="vowelsignulusaricomb_signuluric" unicode="&#x1b37;&#x1b00;" 
d="M-323 964q35 0 55 -33q9 -17 9 -30v-3q0 -20 -14 -39q-16 -17 -27 -17h-2q-3 0 -3 3t13 12q18 16 18 34q0 17 -15 29q-12 9 -29 9h-4q-26 0 -41 -21q-4 -8 -4 -17q0 -20 24 -38q8 -6 8 -9v0q-1 -2 -4 -2q-12 0 -30 18q-15 17 -15 37v2q0 26 24 50q17 15 37 15zM-323 1075
h1q94 0 128 -90q7 -19 7 -47v-4q0 -78 -65 -140l-7 -1h-1q-5 2 -5 9q0 10 35 65q13 32 13 60q0 64 -73 91q-22 5 -37 5q-65 0 -86 -61q-3 -13 -3 -20v-10q0 -18 30 -71q10 -23 10 -36v-4q0 -29 -27 -29h-3q-47 0 -84 66q-11 33 -11 59v4q0 53 28 109l6 5h3q5 -2 5 -9
q-15 -62 -15 -84v-17q0 -36 27 -74q8 -7 14 -7h4q2 0 4 5q0 9 -26 56q-6 20 -6 41v1q0 76 64 115q31 13 70 13zM-328 775h1q105 0 143 -79q7 -16 7 -40v-4q0 -67 -72 -121l-8 -1h-1q-6 2 -6 7q0 10 39 58q15 27 15 51q0 56 -81 79q-25 5 -41 5q-73 0 -96 -53q-4 -12 -4 -18
v-8q0 -16 34 -62q11 -20 11 -31v-4q0 -25 -30 -25h-4q-52 0 -92 58q-13 28 -13 51v3q0 46 31 95l6 4h4q5 -1 5 -7q-16 -54 -16 -74v-14q0 -32 30 -65q9 -6 16 -6h4q2 0 5 5q0 7 -29 48q-8 18 -8 36v1q0 66 72 99q34 12 78 12zM-344 708q11 0 37 -39q29 -54 29 -98
q-2 -13 -4 -13q0 1 -9 22q-11 24 -32 52q-6 12 -21 26q-1 1 -2 1q-6 0 -17 -21q-4 -6 -7 -6q-1 2 -1 6q0 26 15 57q7 13 12 13z" />
    <glyph glyph-name="vowelsignulusaricomb_signulucan" unicode="&#x1b37;&#x1b01;" 
d="M-328 775h1q105 0 143 -79q7 -16 7 -40v-4q0 -67 -72 -121l-8 -1h-1q-6 2 -6 7q0 10 39 58q15 27 15 51q0 56 -81 79q-25 5 -41 5q-73 0 -96 -53q-4 -12 -4 -18v-8q0 -16 34 -62q11 -20 11 -31v-4q0 -25 -30 -25h-4q-52 0 -92 58q-13 28 -13 51v3q0 46 31 95l6 4h4
q5 -1 5 -7q-16 -54 -16 -74v-14q0 -32 30 -65q9 -6 16 -6h4q2 0 5 5q0 7 -29 48q-8 18 -8 36v1q0 66 72 99q34 12 78 12zM-324 1140h1q3 0 11 -95q-1 0 -1 -1q-7 1 -10 1q-4 0 -15 -1v2q9 94 14 94zM-337 1035h10q41 0 62 -52q4 -15 4 -28v-5q0 -36 -28 -64q-16 -11 -35 -11
h-5q-50 0 -66 53q-3 16 -3 26q0 53 45 78q10 3 16 3zM-383 953v-1q0 -19 32 -41q10 -6 18 -6h6q21 0 45 32q5 7 5 14v1q0 24 -36 46q-10 2 -14 2h-7q-16 0 -42 -27q-7 -8 -7 -20zM-179 986h1q2 0 3 -12v-1q0 -69 -52 -129q-41 -40 -100 -40h-3q-72 0 -126 68q-30 52 -30 91
v4q0 15 4 18q1 0 12 -34q46 -91 144 -91q88 0 124 76q11 20 23 50zM-344 708q11 0 37 -39q29 -54 29 -98q-2 -13 -4 -13q0 1 -9 22q-11 24 -32 52q-6 12 -21 26q-1 1 -2 1q-6 0 -17 -21q-4 -6 -7 -6q-1 2 -1 6q0 26 15 57q7 13 12 13z" />
    <glyph glyph-name="vowelsignulusaricomb_signcecekc" unicode="&#x1b37;&#x1b02;" 
d="M-521 908h2q133 0 181 -121q10 -25 10 -62v-6q0 -104 -92 -187l-10 -1h-2q-6 2 -6 11q0 14 49 88q19 42 19 80q0 85 -103 121q-32 7 -53 7q-93 0 -122 -81q-5 -18 -5 -27v-13q0 -25 43 -96q14 -31 14 -48v-5q0 -39 -38 -39h-5q-66 0 -118 89q-16 43 -16 79v5q0 71 40 146
l8 6h4q7 -2 7 -11q-21 -83 -21 -113v-23q0 -48 39 -99q10 -9 20 -9h5q3 0 6 7q0 11 -37 74q-9 27 -9 55v2q0 102 91 153q44 18 99 18zM-111 502q-56 176 -136 250l-62 -46l-12 11l73 155q70 -43 109 -149t50 -216zM-544 788q14 0 50 -56q39 -76 39 -140q-2 -18 -5 -18
q0 2 -13 31q-14 34 -42 74q-9 18 -29 37q-2 2 -4 2q-7 0 -22 -30q-5 -9 -9 -9q-2 4 -2 9q0 37 21 81q9 19 16 19zM-521 908h2q133 0 181 -121q10 -25 10 -62v-6q0 -104 -92 -187l-10 -1h-2q-6 2 -6 11q0 14 49 88q19 42 19 80q0 85 -103 121q-32 7 -53 7q-93 0 -122 -81
q-5 -18 -5 -27v-13q0 -25 43 -96q14 -31 14 -48v-5q0 -39 -38 -39h-5q-66 0 -118 89q-16 43 -16 79v5q0 71 40 146l8 6h4q7 -2 7 -11q-21 -83 -21 -113v-23q0 -48 39 -99q10 -9 20 -9h5q3 0 6 7q0 11 -37 74q-9 27 -9 55v2q0 102 91 153q44 18 99 18z" />
    <glyph glyph-name="vowelsignulusaricomb_signsurang" unicode="&#x1b37;&#x1b03;" 
d="M-521 908h2q133 0 181 -121q10 -25 10 -62v-6q0 -104 -92 -187l-10 -1h-2q-6 2 -6 11q0 14 49 88q19 42 19 80q0 85 -103 121q-32 7 -53 7q-93 0 -122 -81q-5 -18 -5 -27v-13q0 -25 43 -96q14 -31 14 -48v-5q0 -39 -38 -39h-5q-66 0 -118 89q-16 43 -16 79v5q0 71 40 146
l8 6h4q7 -2 7 -11q-21 -83 -21 -113v-23q0 -48 39 -99q10 -9 20 -9h5q3 0 6 7q0 11 -37 74q-9 27 -9 55v2q0 102 91 153q44 18 99 18zM4 533q-100 20 -208.5 142.5t-132.5 297.5l80 -21q38 -149 116.5 -259t150.5 -142zM-544 788q14 0 50 -56q39 -76 39 -140q-2 -18 -5 -18
q0 2 -13 31q-14 34 -42 74q-9 18 -29 37q-2 2 -4 2q-7 0 -22 -30q-5 -9 -9 -9q-2 4 -2 9q0 37 21 81q9 19 16 19zM-521 908h2q133 0 181 -121q10 -25 10 -62v-6q0 -104 -92 -187l-10 -1h-2q-6 2 -6 11q0 14 49 88q19 42 19 80q0 85 -103 121q-32 7 -53 7q-93 0 -122 -81
q-5 -18 -5 -27v-13q0 -25 43 -96q14 -31 14 -48v-5q0 -39 -38 -39h-5q-66 0 -118 89q-16 43 -16 79v5q0 71 40 146l8 6h4q7 -2 7 -11q-21 -83 -21 -113v-23q0 -48 39 -99q10 -9 20 -9h5q3 0 6 7q0 11 -37 74q-9 27 -9 55v2q0 102 91 153q44 18 99 18z" />
    <glyph glyph-name="vowelsignulusaricomb_signcecekc" unicode="&#x1b37;&#x1b02;&#x1b03;" 
d="M-561 529q-115 46 -212 169l21 22q61 -67 92 -89q-26 48 -26 95l2 23q10 71 61 115t120 44q75 0 125 -50t50 -126v-10q-4 -64 -30.5 -106t-77.5 -83l-13 12q59 69 64 126l1 24q0 58 -33.5 91.5t-93.5 33.5l-26 -2q-92 -17 -98 -110l-1 -14q0 -86 85 -141zM-125 542
q-47 148 -115 211l-52 -39l-10 9l61 131q59 -36 92 -125.5t42 -182.5zM-36 833q-149 19 -233 77t-108 163l80 -21q38 -79 92 -124.5t175 -76.5zM-476 551q-41 110 -88 150l-30 -21l-11 12l40 105q94 -54 105 -238z" />
    <glyph glyph-name="vowelsignpepetcomb_signcecekcom" unicode="&#x1b42;&#x1b02;" 
d="M-402 863h12q107 0 165 -83l2 -14v-6q0 -38 -112 -62q-191 -73 -228 -73q-7 3 -7 6v6q22 32 180 89q56 24 57 32v8q0 18 -80 30h-5q-98 0 -174 -90q-26 -40 -26 -71q0 -13 20 -89v-8q0 -20 -34 -26h-3q-71 0 -101 89q-3 20 -3 36q0 2 3 53v6l-19 -8q-9 3 -10 8v4
q0 26 49 38h8q16 0 16 -18q-12 -65 -12 -75q0 -64 51 -91h7v6q-24 54 -24 83v10q0 94 115 172q74 38 153 38zM-25 542q-47 148 -115 211l-52 -39l-10 9l61 131q59 -36 92 -125.5t42 -182.5z" />
    <glyph glyph-name="vowelsignpepetcomb_signsurangco" unicode="&#x1b42;&#x1b03;" 
d="M4 533q-100 20 -208.5 142.5t-132.5 297.5l80 -21q38 -149 116.5 -259t150.5 -142zM-482 863h12q107 0 165 -83l2 -14v-6q0 -38 -112 -62q-191 -73 -228 -73q-7 3 -7 6v6q22 32 180 89q56 24 57 32v8q0 18 -80 30h-5q-98 0 -174 -90q-26 -40 -26 -71q0 -13 20 -89v-8
q0 -20 -34 -26h-3q-71 0 -101 89q-3 20 -3 36q0 2 3 53v6l-19 -8q-9 3 -10 8v4q0 26 49 38h8q16 0 16 -18q-12 -65 -12 -75q0 -64 51 -91h7v6q-24 54 -24 83v10q0 94 115 172q74 38 153 38z" />
    <glyph glyph-name="vowelsignpepetcomb_signcecekcom" unicode="&#x1b42;&#x1b02;&#x1b03;" 
d="M-402 863h12q107 0 165 -83l2 -14v-6q0 -38 -112 -62q-191 -73 -228 -73q-7 3 -7 6v6q22 32 180 89q56 24 57 32v8q0 18 -80 30h-5q-98 0 -174 -90q-26 -40 -26 -71q0 -13 20 -89v-8q0 -20 -34 -26h-3q-71 0 -101 89q-3 20 -3 36q0 2 3 53v6l-19 -8q-9 3 -10 8v4
q0 26 49 38h8q16 0 16 -18q-12 -65 -12 -75q0 -64 51 -91h7v6q-24 54 -24 83v10q0 94 115 172q74 38 153 38zM-25 542q-47 148 -115 211l-52 -39l-10 9l61 131q59 -36 92 -125.5t42 -182.5zM24 833q-149 19 -233 77t-108 163l80 -21q38 -79 92 -124.5t175 -76.5z" />
    <glyph glyph-name="signcecekcomb_signsurangcombbal" unicode="&#x1b02;&#x1b03;" 
d="M-111 502q-56 176 -136 250l-62 -46l-12 11l73 155q70 -43 109 -149t50 -216zM-168 533q-232 0 -357 138q-107 127 -130 302l80 -21q37 -149 112 -256q97 -133 301 -145z" />
    <glyph glyph-name="kabali.td" unicode="&#x1b13;&#x1b35;" horiz-adv-x="1256" 
d="M181 444h9q62 0 62 -48q0 -38 -31 -138q-58 -32 -58 -75v-10q0 -32 39 -65q11 -52 56 -52h2l6 6v2q0 17 -58 48q-39 34 -39 67q0 46 64 77q21 7 43 7q81 0 226 -46q113 -52 113 -140v-2q0 -61 -87 -84l-26 -2q-94 0 -135 109q-10 35 -16 81l2 2q54 -13 54 -21
q13 -50 47 -73q33 -17 60 -17h6q23 2 23 9v4q0 26 -77 71q-165 54 -212 54h-4q-42 -3 -42 -23q0 -26 68 -64q60 -44 60 -73v-11q0 -32 -31 -46l-31 -6h-6q-69 0 -120 73q-16 30 -16 71q0 59 35 217v23q0 20 -19 27q-38 0 -60 -133v-3l9 -46v-8q-4 -8 -15 -8h-4q-33 7 -33 62
v9q0 88 72 154q30 21 64 21zM537 442h14q124 0 163 -94q13 -25 13 -85l-2 -205l16 -10q27 0 27 106q0 180 29 200q54 88 176 88h14q152 0 205 -142q14 -45 14 -90v-6q0 -135 -89 -190q-37 -19 -72 -19q-101 0 -101 57q8 42 45 42q20 0 56 -38l18 -4q60 0 83 87l4 36
q0 146 -171 146q-116 0 -141 -81q-12 -40 -27 -195q-14 -50 -53 -50h-23q-68 0 -68 55l2 144q0 125 -91 144q-33 8 -60 8q-88 0 -107 -90l-4 -4q-54 10 -54 13q7 73 41 127q39 50 143 50z" />
    <glyph glyph-name="gabali.td" unicode="&#x1b15;&#x1b35;" horiz-adv-x="1197" 
d="M122 443h5q49 -7 49 -46v-4q-23 -158 -23 -237q0 -94 64 -109v5q-50 69 -50 162q0 161 140 212q48 13 81 13h37q225 0 225 -204q0 -81 -53 -183h4q63 0 80 229q37 96 123 133q48 17 112 17q131 0 208 -125q23 -39 23 -104v-5q0 -151 -135 -204l-59 -8h-9q-95 0 -95 58v13
q0 24 32 37h35l86 -29q86 28 86 104v9q-26 141 -162 141h-27q-135 0 -181 -187q-37 -146 -149 -146q-36 0 -54 29v4q0 25 63 134l5 41v13q0 112 -181 112q-118 0 -154 -46q-17 -40 -23 -83q0 -21 59 -150v-25q-6 -19 -67 -25q-100 0 -113 138v70l9 150q-7 17 -13 17
q-19 -17 -19 -129v-9l-13 -12h-9q-12 0 -14 17q0 208 45 208z" />
    <glyph glyph-name="gagorabali.td" unicode="&#x1b16;&#x1b35;" horiz-adv-x="1301" 
d="M121 444h10q43 0 43 -33v-4l-30 -220v-38q3 -94 18 -97l5 6l-2 119q10 221 43 240q20 25 44 25q67 0 67 -58q0 -18 -39 -161l-2 -38q0 -81 62 -81q60 0 84 83q14 28 45 28q43 0 57 -70q0 -18 30 -37l28 -6q62 0 62 87q0 37 -35 159l-2 38q7 52 43 52l10 2q73 0 92 -119h3
q62 117 230 117q188 0 248 -146q16 -45 16 -90v-7q0 -149 -124 -202q-37 -8 -60 -8h-3q-117 0 -117 52v8q0 32 50 40q26 0 58 -33q13 -9 26 -9h4q79 0 99 102v38q0 101 -154 149q-30 8 -62 8q-146 0 -191 -141q-17 -60 -30 -60h-7q-22 0 -35 174q-9 64 -34 64h-2v-12
q35 -148 35 -197q0 -123 -81 -164l-32 -4q-79 0 -102 95q-10 19 -22 19q-23 0 -60 -77q-27 -31 -56 -31h-21q-81 0 -103 104l-5 58q0 35 34 180v15l-4 6q-26 0 -44 -157v-27l10 -131q0 -42 -34 -57l-15 -2q-49 0 -64 71l-5 50v29q0 54 19 205v17l-5 4q-21 0 -37 -148
q-7 -15 -11 -15h-5q-14 4 -16 53v16q0 124 32 155q18 12 44 12z" />
    <glyph glyph-name="cabali.td" unicode="&#x1b18;&#x1b35;" horiz-adv-x="1045" 
d="M198 445h17q66 0 66 -62v-17q0 -84 -83 -149q-74 -11 -74 -70v-5q25 -99 66 -99h17v4q0 21 -62 71l-5 24v9q0 54 83 54q64 0 137 -104q20 -11 54 -17q75 16 75 108v38q0 124 -108 124v4q0 57 83 79h17q107 0 107 -145h5q24 83 99 128l91 13q149 0 200 -137q12 -50 12 -91
v-5q0 -163 -129 -211l-37 -4q-87 0 -87 66q0 22 41 42q26 0 63 -50h12q72 0 83 128q-21 158 -158 158h-4q-126 0 -186 -162q-8 0 -9 -20l-4 -5h-8q-22 0 -33 179q-21 62 -54 62l-17 4l-8 -8q75 -42 75 -187q0 -140 -79 -190l-42 -9q-75 0 -137 120q-34 38 -66 38
q-17 -6 -17 -13q75 -32 75 -83v-29q-23 -33 -50 -33h-33q-62 0 -104 75q-12 20 -12 54q0 88 116 166q29 40 29 70q-6 21 -29 21h-8q-50 0 -87 -104v-37l-13 -13h-4q-29 17 -29 50v17q21 153 153 153z" />
    <glyph glyph-name="calacabali.td" unicode="&#x1b19;&#x1b35;" horiz-adv-x="1262" 
d="M283 444q134 0 175 -83q18 -41 41 -227q14 -33 42 -48l82 -9q98 0 98 131q0 190 104 219q42 17 113 17q181 0 243 -114q31 -48 31 -105v-21q0 -152 -139 -202q-21 -8 -57 -8h-11q-77 6 -77 61q20 35 52 35q22 0 62 -35h20q71 0 88 114v8q0 143 -150 175l-46 5h-11
q-144 -13 -144 -101q-13 -232 -47 -232q-27 -39 -149 -39h-21q-170 0 -170 175q0 188 -114 188h-57q-129 0 -129 -171q0 -100 57 -100q62 0 62 83v61l21 18q41 0 41 -79v-18q0 -144 -103 -144h-21q-105 0 -124 149v52q0 204 186 245h52z" />
    <glyph glyph-name="jajerabali.td" unicode="&#x1b1b;&#x1b35;" horiz-adv-x="1627" 
d="M1339 480h9q164 0 216 -139q15 -41 15 -90v-8q0 -153 -130 -212l-51 -6h-7q-74 0 -94 47v16q7 44 44 44h10q21 0 49 -42q10 -8 22 -8q55 0 86 67q10 25 10 64q0 125 -138 160l-32 3h-24q-96 0 -155 -84q-23 -40 -54 -128h-2q-7 0 -7 22v15q0 157 67 210q60 69 166 69z
M976 533q92 -23 92 -113v-4q0 -57 -87 -68q-117 0 -170 85l-5 32q0 44 39 44h14q51 -4 107 -72l-5 -4h-29q-42 28 -63 28v-8q0 -18 78 -37q58 0 68 41v8q0 18 -39 60v8zM156 380q37 0 43 -44q-38 -161 -38 -205v-16q0 -81 48 -116h5v8h5q-20 51 -20 108v44q0 213 170 213
q116 0 146 -128h14q33 124 151 124h14q148 0 170 -160v-37q0 -354 -204 -430q-115 -48 -320 -48q-133 -20 -189 -72q-87 -82 -87 -189q17 -133 92 -133l19 -4h29q98 0 136 169q58 129 151 129h29q136 0 160 -165q23 -129 131 -129q84 0 116 69q29 82 29 325q10 0 10 16
q29 425 29 535l-9 88l29 8h9q20 -55 20 -157q0 -293 -20 -486l5 -16q-35 -426 -77 -426q-52 -60 -141 -60h-10q-135 0 -170 108q-32 193 -106 193h-20q-92 0 -116 -176q-50 -117 -160 -117h-39q-175 0 -175 245q0 240 238 330q96 24 378 52q190 61 190 269q0 122 -83 165
q-19 8 -53 8h-15q-67 0 -150 -105q-64 77 -112 105l-34 4h-24q-89 0 -102 -149v-8q0 -41 29 -165v-12q0 -22 -29 -36h-10q-111 25 -111 185l-5 16l19 185l-14 8q-21 0 -44 -145l-15 -8q-14 0 -19 61q10 168 68 168z" />
    <glyph glyph-name="talatikbali.td" unicode="&#x1b1d;&#x1b35;" horiz-adv-x="957" 
d="M136 420h8q54 -6 54 -48v-8q0 -36 -45 -228v-36q0 -40 37 -48q121 17 121 60h-4q-18 0 -67 -40l-29 -4l-5 4v4q32 100 105 100h8q38 0 38 -64v-16q0 -120 -155 -140q-112 0 -124 128v8q0 44 46 204l-4 20h-4q-12 0 -30 -88l-12 -8h-8q-21 0 -21 56q0 100 58 136zM443 8
q18 0 21 -68v-8q0 -180 -148 -180h-5q-101 0 -137 101l-5 59v28l5 4v4q45 0 45 -20q0 -81 63 -100l25 -4h4q77 0 95 64q21 120 37 120zM668 417h9q154 0 217 -148q13 -32 13 -75q0 -162 -146 -221l-53 -4h-5q-93 0 -93 72q0 31 53 38h10l84 -34h4q84 22 84 118
q0 110 -119 152l-49 9l-4 -5h-27q-105 0 -156 -113l-13 -8l-53 84q-29 29 -62 29h-22q-32 0 -84 -68q-14 3 -14 35v29q22 106 102 106h35q68 0 103 -94h4q61 98 182 98z" />
    <glyph glyph-name="tamurdamahapranabali.td" unicode="&#x1b1e;&#x1b35;" horiz-adv-x="957" 
d="M217 -4q-135 2 -156 131l-1 20q0 54 40 121q25 40 25 60q0 18 -22 18q-35 0 -35 -50q0 -17 4 -40l-13 -2q-14 37 -14 74q0 112 74 112q61 -4 61 -62q0 -36 -37 -92q-41 -62 -41 -101l1 -12q15 -79 128 -79q106 0 134 103l16 -4q-6 -195 -164 -197zM662 444h9
q158 0 223 -152q13 -32 13 -76q0 -166 -150 -227l-54 -4h-5q-96 0 -96 74q0 32 55 39h10l86 -35h4q86 22 86 121q0 112 -122 155l-50 10l-4 -5h-28q-107 0 -160 -116l-13 -8l-54 86q-30 29 -64 29h-22q-33 0 -87 -69q-14 3 -14 36v29q23 109 105 109h36q69 0 105 -96h4
q63 100 187 100z" />
    <glyph glyph-name="damurdaalpapranabali.td" unicode="&#x1b1f;&#x1b35;" horiz-adv-x="1116" 
d="M815 444q186 0 241 -150l10 -82q0 -166 -141 -222l-63 -5q-94 0 -94 64q12 45 52 45q24 0 73 -50q90 0 105 105l5 31q-24 173 -199 173h-5q-137 0 -168 -114v-104q0 -150 -115 -150q-86 0 -104 64q-7 35 -32 50q-16 -1 -73 -96l-53 -13h-21q-92 0 -109 118l-6 45l26 209
v14l-10 9h-10q-23 0 -42 -141l-6 -5h-5q-18 0 -26 50v14q0 136 94 136h26q63 0 63 -63l-31 -223v-18q0 -50 63 -50q47 0 83 95q23 19 42 19h6q39 0 73 -105q19 -16 52 -18q58 0 58 109q0 259 241 259z" />
    <glyph glyph-name="narambatbali.td" unicode="&#x1b21;&#x1b35;" horiz-adv-x="1202" 
d="M907 453h4q160 0 216 -124q25 -57 25 -108v-29q0 -155 -125 -203l-46 -4h-4q-95 0 -95 66q0 31 49 38q15 0 63 -42h12q76 0 88 129v4q0 115 -104 161l-54 8h-21q-136 0 -154 -165q0 -161 -50 -187l-42 -12q-52 0 -58 66l13 149v33q0 87 -63 87q-42 0 -108 -103l-37 -12
q-54 0 -109 111q-23 21 -41 21q-47 0 -75 -87q-33 -46 -50 -50h-29q-75 0 -75 125v16q5 42 17 42h8q12 0 21 -75l12 -25q21 0 21 -8q32 0 67 112q34 58 91 58h13q60 0 99 -120l25 -21q30 0 88 116q30 21 46 21h20q96 0 117 -154l4 -58l-12 -165l4 -4v-5q25 0 25 203
q0 133 104 178q48 17 100 17z" />
    <glyph glyph-name="tabali.td" unicode="&#x1b22;&#x1b35;" horiz-adv-x="1083" 
d="M114 444h13q47 0 47 -66q0 -16 -22 -177v-26q0 -72 52 -93q45 -8 79 -8h6q92 0 92 48q-13 45 -100 45h-50q-9 0 -9 85q0 119 82 173q32 17 77 17h46q163 0 163 -226q-3 -50 -13 -163q0 -11 13 -11q16 7 16 89q0 199 21 211q51 100 181 100q160 0 212 -152q13 -51 13 -89
v-7q0 -155 -104 -201q-21 -8 -50 -8q-98 0 -98 53v8q0 29 34 38h14q14 0 48 -36q7 -4 17 -4h8q52 0 72 85l5 40q0 113 -102 140q-32 8 -65 8q-99 0 -133 -63q-14 -37 -27 -206q-12 -63 -62 -63h-5q-52 0 -52 51q6 115 6 137v26q0 93 -69 116q-33 11 -75 11h-41
q-73 0 -73 -60v-6q0 -21 58 -21q31 0 67 -28q27 -33 27 -69v-13q0 -140 -152 -140h-21q-154 0 -154 133v17q0 45 16 180v7q0 15 -13 16q-21 0 -26 -116q-9 -13 -19 -13h-5q-14 5 -14 30v2q0 184 25 184q13 15 44 15z" />
    <glyph glyph-name="tatawabali.td" unicode="&#x1b23;&#x1b35;" horiz-adv-x="1100" 
d="M814 444q169 0 222 -137q14 -48 14 -103q0 -153 -129 -212l-54 -8q-95 9 -95 54v16q9 42 47 42h10q10 -2 52 -50h20q87 19 87 120v21q-26 149 -164 149h-29q-139 0 -197 -190l-4 -5h-6q-19 12 -23 137q-35 87 -97 87l-14 -4v-4q82 -64 82 -137q-6 -82 -20 -132h-9l-35 58
l11 49q0 91 -63 116q-97 20 -97 29q25 96 111 96l29 4q103 0 145 -95v-17h4q44 116 202 116zM127 423h24q23 -10 23 -33v-16l-9 -179v-29q0 -46 120 -66h53l87 8q47 -59 47 -74q-42 -33 -138 -33q-140 0 -183 58q-39 55 -39 103l5 133v16l-10 9q-16 -11 -33 -121l-5 -4h-10
q-14 3 -14 34v37q0 115 58 153zM363 212h4q59 0 134 -145q20 -55 20 -79l-72 116q-35 41 -72 66h-10q-8 0 -19 -24h-10z" />
    <glyph glyph-name="dabali.td" unicode="&#x1b24;&#x1b35;" horiz-adv-x="1119" 
d="M116 444h12q84 0 84 -70v-9q0 -98 -96 -190q-25 -31 -25 -58q0 -29 29 -29q41 0 104 100q34 33 71 33h16q82 0 113 -75l8 -53q-9 -100 -58 -100h-4q-54 0 -71 95l33 13q19 -33 46 -33q21 3 21 12v4q-21 33 -71 33q-23 0 -125 -107l-58 -21q-100 0 -100 91v21q0 78 92 198
l12 42q-3 37 -33 37q-17 0 -25 -99q-14 -25 -21 -25h-8q-17 4 -17 41q0 132 29 132q0 12 42 17zM407 440h79q86 0 121 -87l8 -25h4q52 112 192 112h21q167 0 225 -141q12 -52 12 -91q0 -163 -137 -219l-50 -4h-9q-75 0 -95 54q10 54 45 54h9q24 0 62 -46l13 -4q85 0 100 124
v12q0 107 -125 149l-63 8q-177 0 -212 -215h-13q-20 187 -74 187q-20 20 -67 20q-104 0 -125 -91h-29l-4 4h-4q21 195 95 195z" />
    <glyph glyph-name="damadubali.td" unicode="&#x1b25;&#x1b35;" horiz-adv-x="1106" 
d="M812 444h14q165 0 218 -154q12 -43 12 -85v-3q0 -140 -89 -196q-33 -21 -75 -21h-2q-105 0 -105 55v4q0 37 47 42q23 0 53 -38l25 -4q87 15 87 118v24q0 107 -148 155l-44 4h-6q-100 0 -150 -95q-31 -115 -51 -115h-2q-14 0 -19 108q-24 129 -65 129v-2l36 -82
q14 -56 14 -107v-29q0 -65 -32 -129q-21 -27 -59 -27h-13q-62 0 -76 40q-21 76 -41 76h-4q-10 0 -51 -87q-24 -27 -62 -27q-74 0 -105 86q-8 30 -8 59v15q0 40 25 206v4q-5 21 -17 21q-28 0 -37 -97q0 -49 -10 -49h-6q-21 14 -21 62q0 90 52 126q8 7 46 11q52 0 60 -49v-25
q0 -24 -28 -204v-14q7 -51 45 -51h23q38 0 63 87q10 30 44 30q38 0 50 -75q18 -53 52 -53h8q54 0 54 83q0 110 -48 186q-8 29 -8 43q5 38 31 38h9q70 0 112 -119h2q56 125 200 125z" />
    <glyph glyph-name="nabali.td" unicode="&#x1b26;&#x1b35;" horiz-adv-x="1115" 
d="M856 444h3q154 0 201 -127q17 -49 17 -100v-3q0 -146 -109 -206q-34 -12 -58 -12q-90 8 -90 53v6q5 47 39 47h10q20 0 49 -45q12 -4 16 -4q55 0 83 77q6 36 6 57q0 92 -92 142q-36 13 -70 13h-9q-135 0 -182 -164q-20 -51 -26 -51h-2q-21 0 -36 122q-13 50 -41 67
q-42 22 -83 22h-11q-58 0 -81 -49q-9 -19 -15 -47q188 -49 188 -168q0 -60 -79 -83q-15 0 -24 -2q-92 0 -126 121q-12 73 -15 73q-49 21 -88 21q-26 0 -38 -19v-5q0 -24 64 -63q53 -40 53 -75v-10q-8 -47 -57 -47h-5q-63 0 -109 72q-15 29 -15 70q0 57 32 211v23
q0 26 -19 26q-32 0 -53 -128v-4l8 -45v-8q-5 -9 -17 -9q-30 10 -30 58v14q0 93 77 158q27 12 43 12h15q53 0 53 -50q0 -26 -29 -139q18 11 49 11h12q22 0 58 -6q13 102 41 136q36 46 124 46h13q107 0 146 -78q13 -28 13 -49q3 0 17 36q46 71 89 89q34 13 90 13zM373 164v-5
q0 -40 51 -80q31 -13 49 -13q24 4 24 12q0 42 -105 85q-10 1 -17 1h-2zM188 113v-3q0 -45 47 -55h5q3 0 6 6q0 18 -58 52z" />
    <glyph glyph-name="pabali.td" unicode="&#x1b27;&#x1b35;" horiz-adv-x="965" 
d="M675 444h17q173 0 234 -158l9 -59v-4q0 -176 -139 -226q-19 -8 -61 -8q-82 9 -82 58v13q0 36 56 42l87 -34q79 14 79 125q0 105 -122 147l-66 8q-130 0 -156 -226q-50 -137 -195 -137h-35q-209 0 -209 179l9 205q-6 17 -13 17l-17 -154l-4 -5h-9q-13 3 -13 34v104
q0 57 60 67h10q43 -9 43 -42l-9 -226q0 -57 105 -75l56 -4q160 0 160 96q0 263 205 263z" />
    <glyph glyph-name="bakembangbali.td" unicode="&#x1b2a;&#x1b35;" horiz-adv-x="1112" 
d="M109 444q33 0 61 -79q11 -46 11 -79v-38l-6 -6q-8 5 -39 69q-12 20 -27 20q-34 0 -34 -37q-5 -14 -9 -14q-16 16 -16 57v2q0 67 48 103zM453 444q106 0 135 -44q30 -41 32 -67h3q44 72 101 95q51 14 104 14q166 0 223 -121q24 -53 24 -108v-6q0 -135 -104 -202
q-39 -20 -80 -20h-7q-71 0 -96 38l-4 13v12q9 44 44 44h13q21 0 50 -42q8 -8 21 -8q64 0 93 76q9 31 9 57q0 103 -107 148q-34 14 -85 14q-142 0 -193 -134q-12 -81 -25 -81q-9 0 -19 122q-14 47 -45 69q-38 26 -85 26h-2q-74 0 -108 -49l-15 -46l-11 2h-21l-3 2h-2
q2 59 31 131q27 65 129 65zM96 238h10q17 0 19 -20q-7 -19 -32 -55l-3 -16v-8q0 -25 32 -25v-2q40 0 97 87q37 39 83 39h11q81 0 112 -71q11 -25 11 -51q0 -66 -47 -89l-9 -2h-10q-42 0 -64 65l-4 28v2q18 11 30 11h2q16 -39 46 -39q24 6 24 12v2q0 22 -59 35q-40 0 -90 -55
q-59 -63 -112 -63h-11q-60 0 -81 39q-6 25 -6 44v14q0 82 51 118z" />
    <glyph glyph-name="mabali.td" unicode="&#x1b2b;&#x1b35;" horiz-adv-x="1037" 
d="M230 443h123q97 0 97 -67v-4q0 -41 -70 -41l-62 4q-128 0 -128 -59q0 -45 203 -45q12 -16 12 -29q0 -23 -34 -30l-71 5h-57q-58 -6 -58 -42q0 -54 199 -54q128 0 128 50q14 0 26 162q61 142 207 142q175 0 238 -171l4 -50v-12q0 -159 -140 -209l-50 -4h-8q-93 0 -93 63v4
q0 37 53 41h4q27 0 80 -33q80 0 97 113q0 101 -124 141l-61 4h-5q-99 0 -131 -79q-30 -170 -85 -216q-46 -42 -140 -42h-48q-156 0 -203 96l-8 54q0 43 48 87q-40 34 -40 67q0 54 61 83v4h-26q-70 0 -70 -162v-54l-14 -8h-21q-18 6 -18 29v66q0 148 44 175q39 21 141 21z
" />
    <glyph glyph-name="yabali.td" unicode="&#x1b2c;&#x1b35;" horiz-adv-x="1227" 
d="M900 443h20q148 0 232 -132q25 -45 25 -91v-4q0 -164 -158 -219l-65 -8q-98 9 -98 58v12q0 37 59 42q23 0 94 -33h10q72 0 89 115q0 108 -119 144q-45 13 -93 13q-143 0 -169 -173q0 -157 -118 -182h-35q-92 0 -128 66q-20 54 -35 182h-5q0 -90 -65 -207q-37 -33 -93 -33
q-143 0 -143 103v33l28 198l-4 17h-5q-19 0 -45 -136l-14 -8q-20 6 -20 28q0 207 64 207l35 4q51 0 59 -58q0 -38 -44 -214v-29q0 -58 94 -58q95 0 128 280q0 58 35 58q34 0 34 -148q28 -194 114 -194h15q79 0 79 103q15 126 45 173q73 91 197 91z" />
    <glyph glyph-name="rabali.td" unicode="&#x1b2d;&#x1b35;" horiz-adv-x="1027" 
d="M324 448h5q107 2 166 -91q22 -48 22 -64h3q7 39 62 94q60 44 128 45l32 1q156 5 217 -134q17 -48 18 -93v-4q4 -160 -115 -210q-25 -7 -44 -7h-9q-74 -2 -97 30l-6 22q-1 39 47 45q22 1 56 -34l17 -4h8q57 1 79 77q6 29 6 57q-3 95 -108 139q-32 14 -95 18
q-101 -2 -142 -107q-31 -138 -47 -138h-8q-28 -1 -31 68q-4 145 -59 165q-28 20 -78 23h-2q-62 -1 -82 -62q-20 -64 -17 -126q1 -28 20 -146q0 -6 -14 -14q-45 -1 -158 35l-4 8q0 5 42 82q23 58 22 108q-13 97 -47 96h-2q-29 -1 -27 -78q-3 -14 -16 -14h-5q-14 0 -16 78v19
q-2 71 24 93q21 8 36 9q49 2 61 -49q22 -62 24 -147v-13q3 -75 -40 -162v-2q49 -18 58 -18h2l-5 72l-4 163q-3 129 54 153q27 16 69 17z" />
    <glyph glyph-name="labali.td" unicode="&#x1b2e;&#x1b35;" horiz-adv-x="1237" 
d="M108 444h29q58 0 58 -69q-34 -162 -34 -285v-4q0 -30 16 -32h4l5 49v44q0 218 68 277q32 16 73 16q126 0 126 -109v-77l-5 -58q0 -114 117 -114q126 0 126 98q0 169 83 219q58 41 161 41q178 0 238 -142q14 -48 14 -90q0 -165 -141 -219l-48 -4h-6q-102 0 -102 65
q12 40 49 40h5q26 0 64 -44l14 -4q89 0 102 133q0 129 -141 164l-44 4h-24q-121 0 -141 -114q-24 -232 -126 -232l-73 -12q-131 0 -170 93q-10 232 -39 232l-44 12q-82 0 -82 -183q0 -142 -39 -142l-34 -4q-49 0 -49 114l10 224l-6 16h-14q-14 0 -14 -49l4 -44
q-3 -54 -19 -54h-20l-14 12v135q0 97 63 97z" />
    <glyph glyph-name="wabali.td" unicode="&#x1b2f;&#x1b35;" horiz-adv-x="1100" 
d="M807 444h13q173 0 221 -155q9 -38 9 -76v-8q0 -136 -104 -202q-33 -18 -75 -18h-4q-83 0 -95 51v12q0 40 48 45q27 0 54 -45q12 -6 24 -6q45 0 78 59q15 38 15 77q0 102 -106 150q-39 12 -75 12q-149 0 -199 -162q-9 -36 -16 -36h-6q-16 0 -22 121q-22 102 -103 102h-5
q-5 0 -6 -9q0 -3 29 -24q50 -40 50 -123q0 -148 -73 -185q-40 -23 -116 -23h-7q-147 0 -187 57q-35 49 -35 114l6 111q-1 37 -9 37h-5q-21 0 -31 -121l-6 -4h-9q-15 7 -15 35v19q0 177 96 177q35 0 35 -55l-14 -178v-15q0 -46 46 -61q46 -20 106 -20h21q105 0 134 39
q13 23 13 53v14q0 75 -43 101q-28 14 -113 30l-3 6q0 41 58 82q29 16 82 16h6q98 0 135 -88q4 -20 7 -20q9 26 68 81q38 33 128 33z" />
    <glyph glyph-name="sasagabali.td" unicode="&#x1b30;&#x1b35;" horiz-adv-x="1197" 
d="M369 276h4q39 -13 80 -114q17 -53 17 -101l-2 -6h-4q-25 71 -89 146l-9 2q-26 -37 -29 -37h-4q0 69 36 110zM122 443h5q49 -7 49 -46v-4q-23 -158 -23 -237q0 -94 64 -109v5q-50 69 -50 162q0 161 140 212q48 13 81 13h37q225 0 225 -204q0 -81 -53 -183h4q63 0 80 229
q37 96 123 133q48 17 112 17q131 0 208 -125q23 -39 23 -104v-5q0 -151 -135 -204l-59 -8h-9q-95 0 -95 58v13q0 24 32 37h35l86 -29q86 28 86 104v9q-26 141 -162 141h-27q-135 0 -181 -187q-37 -146 -149 -146q-36 0 -54 29v4q0 25 63 134l5 41v13q0 112 -181 112
q-118 0 -154 -46q-17 -40 -23 -83q0 -21 59 -150v-25q-6 -19 -67 -25q-100 0 -113 138v70l9 150q-7 17 -13 17q-19 -17 -19 -129v-9l-13 -12h-9q-12 0 -14 17q0 208 45 208z" />
    <glyph glyph-name="sasapabali.td" unicode="&#x1b31;&#x1b35;" horiz-adv-x="1100" 
d="M809 444q241 0 241 -231q-24 -212 -182 -212q-77 0 -102 48q6 56 48 56h5q26 0 62 -44h25q82 19 82 116v20q0 107 -140 143h-49q-150 0 -196 -183l-5 -4h-5q-28 0 -28 131q-36 84 -97 84l-15 -4v-4q82 -61 82 -132q-7 -120 -23 -123q-22 40 -39 52l10 48q0 101 -92 119
q-67 8 -67 20q25 92 111 92l28 4q103 0 144 -92v-16h5q48 112 197 112zM127 424h24q24 -10 24 -32v-16l-10 -171v-28q13 -64 149 -64l5 -4l111 12q39 -47 48 -72q-44 -32 -140 -32h-9q-217 0 -217 156l5 127v4l-5 20q-21 0 -38 -119l-5 -4h-4q-20 5 -20 35v36q0 111 57 148z
M386 213q97 -53 135 -164l14 -56h-10q-30 92 -134 176h-10l-23 -20h-5q16 64 33 64z" />
    <glyph glyph-name="sabali.td" unicode="&#x1b32;&#x1b35;" horiz-adv-x="985" 
d="M681 445h14q171 0 227 -153q13 -34 13 -62v-4q0 -172 -133 -224q-17 -9 -48 -9h-17q-59 0 -82 42v29q0 31 43 37h18q13 0 73 -33q74 0 85 115v5q0 107 -110 149q-18 9 -48 9h-21q-127 0 -147 -167q-13 -173 -77 -173q0 -9 -52 -9q-80 0 -137 120q-36 35 -66 38
q-25 -9 -25 -17v-4q86 -36 86 -95q0 -46 -64 -54h-9q-134 18 -134 128v4q0 87 117 163q29 42 29 57v9q0 29 -29 29q-64 0 -99 -120v-13l5 -12l-14 -8h-9q-25 15 -25 49v17q0 129 164 153q76 0 76 -62v-21q0 -70 -69 -136q-69 0 -90 -63v-17q0 -41 65 -95l18 -4l4 4v4
q0 17 -60 62l-13 33q0 51 94 62q53 0 138 -111l38 -13q79 0 79 87q0 274 192 274z" />
    <glyph glyph-name="habali.td" unicode="&#x1b33;&#x1b35;" horiz-adv-x="1177" 
d="M869 444q183 0 234 -120q24 -51 24 -115v-4q-5 -165 -129 -214q-27 -6 -48 -6h-11q-57 0 -82 36q-7 11 -7 24q9 48 48 48q28 0 55 -44q7 -6 15 -6h6q65 0 90 86l4 50q0 104 -115 153q-42 14 -90 14q-101 0 -135 -74q-15 -12 -15 -151q0 -116 -42 -116l-17 -2h-13
q-73 7 -73 62l2 187q0 71 -30 86q-15 8 -55 12q-65 0 -65 -48l5 -135q0 -114 -53 -146q-31 -14 -79 -14h-28q-124 0 -152 60q-10 15 -16 68q5 72 25 217q-5 24 -12 24h-4q-14 0 -26 -106l-9 -6h-4q-22 0 -22 32v32q0 112 81 112q63 0 63 -52v-4l-19 -207q0 -90 65 -90
q11 -4 50 -4h2q57 2 57 20q13 10 16 76v4l-12 145q0 114 137 114q117 0 140 -68q8 -36 11 -98q-4 -66 -4 -175q2 -30 11 -30h8q14 0 14 78v103q0 106 38 136q50 56 166 56z" />
    <glyph glyph-name="kafsasakbali.td" unicode="&#x1b45;&#x1b35;" horiz-adv-x="1256" 
d="M181 444h9q62 0 62 -48q0 -38 -31 -138q-58 -32 -58 -75v-10q0 -32 39 -65q11 -52 56 -52h2l6 6v2q0 17 -58 48q-39 34 -39 67q0 46 64 77q21 7 43 7q81 0 226 -46q113 -52 113 -140v-2q0 -61 -87 -84l-26 -2q-94 0 -135 109q-10 35 -16 81l2 2q54 -13 54 -21
q13 -50 47 -73q33 -17 60 -17h6q23 2 23 9v4q0 26 -77 71q-165 54 -212 54h-4q-42 -3 -42 -23q0 -26 68 -64q60 -44 60 -73v-11q0 -32 -31 -46l-31 -6h-6q-69 0 -120 73q-16 30 -16 71q0 59 35 217v23q0 20 -19 27q-38 0 -60 -133v-3l9 -46v-8q-4 -8 -15 -8h-4q-33 7 -33 62
v9q0 88 72 154q30 21 64 21zM537 442h14q124 0 163 -94q13 -25 13 -85l-2 -205l16 -10q27 0 27 106q0 180 29 200q54 88 176 88h14q152 0 205 -142q14 -45 14 -90v-6q0 -135 -89 -190q-37 -19 -72 -19q-101 0 -101 57q8 42 45 42q20 0 56 -38l18 -4q60 0 83 87l4 36
q0 146 -171 146q-116 0 -141 -81q-12 -40 -27 -195q-14 -50 -53 -50h-23q-68 0 -68 55l2 144q0 125 -91 144q-33 8 -60 8q-88 0 -107 -90l-4 -4q-54 10 -54 13q7 73 41 127q39 50 143 50zM330 193l3 -3v-3q-82 -178 -82 -258v-3q0 -82 61 -82h5q27 0 95 68h5l8 -8v-6
q0 -80 -90 -147l-34 -6h-2q-87 0 -116 113l-3 34v9q0 120 87 244q43 48 63 48z" />
    <glyph glyph-name="khotsasakbali.td" unicode="&#x1b46;&#x1b35;" horiz-adv-x="1798" 
d="M199 444h4q71 0 71 -45v-5q-17 -136 -58 -136q-46 -41 -46 -79q0 -27 54 -74q0 -26 50 -37h8l5 4h4q0 8 -92 78q-12 16 -12 38q0 45 95 82q396 -32 396 -182q-17 -86 -125 -86h-8q-134 0 -159 173l5 4q66 -11 66 -45q49 -54 100 -54h13q21 0 25 13v4q-17 39 -121 74
q-139 41 -204 41h-8q-32 -5 -34 -16v-17q0 -6 117 -78q25 -30 25 -54q0 -40 -63 -50h-16q-150 20 -150 145v13l37 206v9q0 24 -25 24q-33 0 -58 -128l8 -58l-4 -4h-25q-29 18 -29 54v16q28 170 154 170zM586 444q152 0 196 -87q16 0 25 -236q0 -53 133 -53q63 0 63 82v9
l-9 153q0 124 134 124h12q146 0 146 -153l-4 -190v-13q2 -25 12 -25h4q7 0 13 17l4 202q0 122 79 141q41 12 108 12q185 0 238 -148l8 -71v-8q0 -156 -125 -207l-46 -8q-75 0 -95 54q8 49 41 49h8q25 0 59 -45h12q88 15 88 112v28q0 90 -117 141l-58 8q-142 -9 -142 -70
q-12 -29 -12 -103v-75q0 -99 -50 -99h-25q-71 9 -71 70l4 166q0 111 -62 111l-25 4h-9q-58 0 -58 -70l4 -12l4 -99q0 -166 -124 -166h-46q-167 0 -167 91v54q0 194 -75 194q-25 17 -75 17h-29q-80 0 -108 -83q-63 6 -63 21q32 132 75 132q44 29 125 29z" />
    <glyph glyph-name="tzirsasakbali.td" unicode="&#x1b47;&#x1b35;" horiz-adv-x="1083" 
d="M114 444h13q47 0 47 -66q0 -16 -22 -177v-26q0 -72 52 -93q45 -8 79 -8h6q92 0 92 48q-13 45 -100 45h-50q-9 0 -9 85q0 119 82 173q32 17 77 17h46q163 0 163 -226q-3 -50 -13 -163q0 -11 13 -11q16 7 16 89q0 199 21 211q51 100 181 100q160 0 212 -152q13 -51 13 -89
v-7q0 -155 -104 -201q-21 -8 -50 -8q-98 0 -98 53v8q0 29 34 38h14q14 0 48 -36q7 -4 17 -4h8q52 0 72 85l5 40q0 113 -102 140q-32 8 -65 8q-99 0 -133 -63q-14 -37 -27 -206q-12 -63 -62 -63h-5q-52 0 -52 51q6 115 6 137v26q0 93 -69 116q-33 11 -75 11h-41
q-73 0 -73 -60v-6q0 -21 58 -21q31 0 67 -28q27 -33 27 -69v-13q0 -140 -152 -140h-21q-154 0 -154 133v17q0 45 16 180v7q0 15 -13 16q-21 0 -26 -116q-9 -13 -19 -13h-5q-14 5 -14 30v2q0 184 25 184q13 15 44 15zM300 193l3 -3v-3q-82 -178 -82 -258v-3q0 -82 61 -82h5
q27 0 95 68h5l8 -8v-6q0 -80 -90 -147l-34 -6h-2q-87 0 -116 113l-3 34v9q0 120 87 244q43 48 63 48z" />
    <glyph glyph-name="efsasakbali.td" unicode="&#x1b48;&#x1b35;" horiz-adv-x="912" 
d="M675 444h17q173 0 234 -158l9 -59v-4q0 -176 -139 -226q-19 -8 -61 -8q-82 9 -82 58v13q0 36 56 42l87 -34q79 14 79 125q0 105 -122 147l-66 8q-130 0 -156 -226q-50 -137 -195 -137h-35q-209 0 -209 179l9 205q-6 17 -13 17l-17 -154l-4 -5h-9q-13 3 -13 34v104
q0 57 60 67h10q43 -9 43 -42l-9 -226q0 -57 105 -75l56 -4q160 0 160 96q0 263 205 263zM675 444h17q173 0 234 -158l9 -59v-4q0 -176 -139 -226q-19 -8 -61 -8q-82 9 -82 58v13q0 36 56 42l87 -34q79 14 79 125q0 105 -122 147l-66 8q-130 0 -156 -226q-50 -137 -195 -137
h-35q-209 0 -209 179l9 205q-6 17 -13 17l-17 -154l-4 -5h-9q-13 3 -13 34v104q0 57 60 67h10q43 -9 43 -42l-9 -226q0 -57 105 -75l56 -4q160 0 160 96q0 263 205 263zM300 193l3 -3v-3q-82 -178 -82 -258v-3q0 -82 61 -82h5q27 0 95 68h5l8 -8v-6q0 -80 -90 -147l-34 -6
h-2q-87 0 -116 113l-3 34v9q0 120 87 244q43 48 63 48z" />
    <glyph glyph-name="vesasakbali.td" unicode="&#x1b49;&#x1b35;" horiz-adv-x="965" 
d="M807 444h13q173 0 221 -155q9 -38 9 -76v-8q0 -136 -104 -202q-33 -18 -75 -18h-4q-83 0 -95 51v12q0 40 48 45q27 0 54 -45q12 -6 24 -6q45 0 78 59q15 38 15 77q0 102 -106 150q-39 12 -75 12q-149 0 -199 -162q-9 -36 -16 -36h-6q-16 0 -22 121q-22 102 -103 102h-5
q-5 0 -6 -9q0 -3 29 -24q50 -40 50 -123q0 -148 -73 -185q-40 -23 -116 -23h-7q-147 0 -187 57q-35 49 -35 114l6 111q-1 37 -9 37h-5q-21 0 -31 -121l-6 -4h-9q-15 7 -15 35v19q0 177 96 177q35 0 35 -55l-14 -178v-15q0 -46 46 -61q46 -20 106 -20h21q105 0 134 39
q13 23 13 53v14q0 75 -43 101q-28 14 -113 30l-3 6q0 41 58 82q29 16 82 16h6q98 0 135 -88q4 -20 7 -20q9 26 68 81q38 33 128 33zM300 193l3 -3v-3q-82 -178 -82 -258v-3q0 -82 61 -82h5q27 0 95 68h5l8 -8v-6q0 -80 -90 -147l-34 -6h-2q-87 0 -116 113l-3 34v9
q0 120 87 244q43 48 63 48z" />
    <glyph glyph-name="zalsasakbali.td" unicode="&#x1b4a;&#x1b35;" horiz-adv-x="985" 
d="M681 445h14q171 0 227 -153q13 -34 13 -62v-4q0 -172 -133 -224q-17 -9 -48 -9h-17q-59 0 -82 42v29q0 31 43 37h18q13 0 73 -33q74 0 85 115v5q0 107 -110 149q-18 9 -48 9h-21q-127 0 -147 -167q-13 -173 -77 -173q0 -9 -52 -9q-80 0 -137 120q-36 35 -66 38
q-25 -9 -25 -17v-4q86 -36 86 -95q0 -46 -64 -54h-9q-134 18 -134 128v4q0 87 117 163q29 42 29 57v9q0 29 -29 29q-64 0 -99 -120v-13l5 -12l-14 -8h-9q-25 15 -25 49v17q0 129 164 153q76 0 76 -62v-21q0 -70 -69 -136q-69 0 -90 -63v-17q0 -41 65 -95l18 -4l4 4v4
q0 17 -60 62l-13 33q0 51 94 62q53 0 138 -111l38 -13q79 0 79 87q0 274 192 274zM400 193l3 -3v-3q-82 -178 -82 -258v-3q0 -82 61 -82h5q27 0 95 68h5l8 -8v-6q0 -80 -90 -147l-34 -6h-2q-87 0 -116 113l-3 34v9q0 120 87 244q43 48 63 48z" />
    <glyph glyph-name="asyurasasakbali.td" unicode="&#x1b4b;&#x1b35;" horiz-adv-x="1772" 
d="M594 445h13q95 0 95 -112v-120q0 -120 38 -120l37 -4h34q79 0 112 319q14 20 25 20q33 0 33 -62q24 -257 79 -277q0 -7 42 -13q79 0 79 108v8l-33 241l41 8q117 0 117 -137q78 133 191 133h13q145 0 195 -133q17 -38 17 -95q0 -168 -125 -220l-46 -4q-87 0 -87 62
q7 46 46 46h8q10 0 50 -50h13q70 0 83 112v41q0 92 -125 133l-25 4q-126 0 -175 -108q-35 -124 -50 -124h-8q-25 0 -25 174q-16 83 -33 83l-9 -8v-4l21 -179q-12 -153 -62 -153q0 -8 -75 -17q-126 0 -142 170l-8 71h-4q0 -97 -63 -203q-35 -29 -83 -29h-29q-116 0 -116 132
v158q0 46 -13 83h-8l-9 -9l17 -136q-22 -220 -108 -220l-42 -4h-8q-93 0 -146 99q-48 46 -83 46h-17l-20 -13v-4q104 -35 104 -91v-4q0 -54 -92 -54q-154 22 -154 133q0 77 142 161q37 39 37 67q0 16 -37 25q-71 0 -117 -108v-33l-12 -13q-38 0 -42 50v12q0 100 121 145
l54 9h33q79 0 79 -62v-25q0 -60 -79 -125q-108 -9 -108 -70v-8q0 -43 71 -96l16 -4l13 8q0 27 -67 50q-16 22 -16 37v13q0 54 99 54q79 0 159 -96q24 -20 66 -20q104 0 104 149q0 62 -41 191q0 12 45 12z" />
    <glyph glyph-name=".notdef" horiz-adv-x="600" 
d="M94 0v714h411v-714h-411zM145 663v-612h309v612h-309z" />
    <glyph glyph-name=".null" 
 />
    <glyph glyph-name=".null" 
 />
    <glyph glyph-name="nonmarkingreturn" horiz-adv-x="260" 
 />
    <glyph glyph-name="space" unicode=" " horiz-adv-x="260" 
 />
    <glyph glyph-name="nonbreakingspace" unicode="&#xa0;" horiz-adv-x="260" 
 />
    <glyph glyph-name="signuluricemcombbali" unicode="&#x1b00;" 
d="M-290 786q57 0 92 -50q13 -25 13 -46v-4q0 -31 -22 -60q-27 -26 -45 -26h-4q-5 0 -5 5q0 4 22 18q29 24 29 52q0 27 -24 44q-20 13 -48 13h-6q-44 0 -68 -32q-7 -12 -7 -25q0 -30 40 -58q13 -9 13 -15v0q-1 -2 -6 -2q-20 0 -51 27q-23 27 -23 56v4q0 40 39 76
q28 23 61 23zM-284 912q166 0 220 -124l8 -49v-12q0 -112 -124 -194h-9q-8 0 -8 12q79 108 79 169v9q0 98 -141 115h-33q-162 0 -162 -128q0 -67 92 -152l4 -17l-13 -4q-153 65 -153 190v12q0 119 145 161q38 12 95 12z" />
    <glyph glyph-name="signulucandracombbali" unicode="&#x1b01;" 
d="M-346 1072h1q7 0 22 -163q-2 0 -2 -1q-13 1 -20 1t-27 -1l-1 2q17 162 27 162zM-371 892h19q79 0 119 -90q8 -26 8 -48v-9q0 -62 -54 -111q-31 -18 -67 -18h-10q-96 0 -125 91q-7 28 -7 45q0 92 88 133q17 7 29 7zM-458 751v-2q0 -33 62 -71q17 -9 33 -9h10q42 0 88 53
q11 13 11 25v2q0 41 -71 78q-20 5 -27 5h-12q-32 0 -81 -48q-13 -13 -13 -33zM-67 808h2q4 0 5 -23v-1q0 -118 -100 -221q-80 -69 -193 -69h-5q-138 0 -241 117q-58 89 -58 158v6q0 25 7 31q2 0 24 -59q88 -157 276 -157q170 0 239 131q20 33 44 87z" />
    <glyph glyph-name="signcecekcombbali" unicode="&#x1b02;" 
d="M-111 502q-56 176 -136 250l-62 -46l-12 11l73 155q70 -43 109 -149t50 -216z" />
    <glyph glyph-name="signsurangcombbali" unicode="&#x1b03;" 
d="M-118 533q-232 0 -357 138q-107 127 -130 302l80 -21q37 -149 112 -256q97 -133 301 -145z" />
    <glyph glyph-name="signbisahbali" unicode="&#x1b04;" horiz-adv-x="273" 
d="M145 440h6q66 0 94 -90q4 -24 4 -41v-5q0 -98 -37 -129q-33 -39 -54 -39v-2q89 -55 89 -191t-63 -341q-35 -144 -35 -251q0 -58 20 -145v-3q-3 -2 -4 -2q-38 49 -52 140q-10 48 -10 95v30q0 94 61 285q35 135 35 205q0 99 -86 139q-54 31 -54 43q0 18 81 33q67 41 67 105
q0 57 -38 81q-20 7 -29 7q-51 0 -61 -76q0 -8 12 -35l2 -9q-4 -32 -16 -32q-20 0 -35 44q-2 17 -2 32v5q0 102 67 140q25 7 38 7z" />
    <glyph glyph-name="akarabali" unicode="&#x1b05;" horiz-adv-x="918" 
d="M270 492q148 0 208 -214v-35h-4q-16 9 -88 133q-51 49 -108 49h-4q-128 0 -179 -169l-4 -40q20 -173 145 -173q84 0 84 49v22q0 27 -129 27l-9 13v9q0 21 100 31q25 28 25 53q0 34 -50 40h-4q-23 0 -29 -22l8 -31q-8 -20 -16 -22h-17q-25 18 -25 44v14q0 69 83 84h9
q70 0 79 -98q0 -33 -29 -80q45 -32 45 -89q0 -109 -125 -129h-33q-93 0 -150 156l-8 80v36q30 262 225 262zM782 474h8q69 0 79 -218v-124q0 -165 -29 -165h-4l-13 13v245q0 57 -16 107h-9q-8 0 -8 -31h-4l4 -5v-71q0 -102 -17 -164h-4l-33 66l8 85v35l-8 169q10 58 46 58z
M420 216q55 -142 112 -142l66 -13l92 17h8l34 -80q-41 -40 -150 -40q-175 0 -175 232q4 26 13 26zM636 216h4q91 -64 129 -213l13 -67h-9q-86 227 -141 227q-9 0 -17 -31h-8v9q16 75 29 75z" />
    <glyph glyph-name="akaratedungbali" unicode="&#x1b06;" horiz-adv-x="1304" 
d="M280 502h4q168 0 231 -209v-31h-9q-12 3 -81 118q-60 55 -118 55h-23l-4 6q-96 -22 -136 -76q-45 -66 -45 -114v-40q0 -111 145 -143h9q90 0 90 51q0 41 -68 41h-54q-23 0 -27 15v11q0 21 100 25q29 18 36 46q0 39 -46 45h-18q-27 0 -27 -19l9 -32l-18 -19h-22l-23 30v31
q16 76 99 76q86 -11 86 -97v-4q0 -27 -36 -72q54 -28 54 -77q0 -113 -131 -133h-45q-48 0 -117 67q-50 75 -50 158v30q0 178 167 251zM1008 502q164 0 230 -184l9 -92q0 -185 -127 -240q-21 -15 -67 -15q-91 10 -91 66v16q0 43 55 51l85 -41q62 0 86 112v41q0 100 -122 153
l-45 5h-4q-124 0 -154 -142q0 -133 -72 -210h-5l-27 82q34 0 50 240q62 158 199 158zM452 216h13q38 -148 181 -148l59 4q40 -66 40 -80q-29 -17 -72 -17h-32q-139 0 -180 103l-18 76zM655 190h14q64 -41 104 -173l18 -82h-9q-66 183 -118 209q-18 -11 -18 -25h-9z" />
    <glyph glyph-name="ikarabali" unicode="&#x1b07;" horiz-adv-x="823" 
d="M462 -79q54 0 96 -47q10 -13 10 -26q-1 -6 -5 -6v0q-5 0 -37 20q-29 14 -49 14h-3q-28 0 -40 -15q-3 -5 -3 -7v0q0 -15 70 -31q74 -21 98 -41q24 -26 24 -52q0 -32 -27 -61q-34 -25 -80 -25h-5q-74 0 -121 52q-23 39 -23 74q0 6 3 6h1q33 -41 54 -48q46 -20 79 -20h3
q40 0 56 20q5 5 5 13q0 15 -78 34q-58 17 -86 35q-24 17 -24 38v8q0 35 46 59q20 6 36 6zM112 440h6q43 0 59 -33l6 -27q-21 -156 -21 -192q7 -136 37 -147h5l2 12q-29 133 -29 190q0 139 107 184q29 11 58 11q88 0 123 -113h2l45 76q32 35 93 35q107 0 154 -121
q14 -40 14 -92l-4 -222v-2q0 -20 -19 -20h-10q-19 0 -19 18l2 199q0 85 -102 115l-24 2h-16q-68 0 -109 -92h-7q-22 60 -69 80q-41 14 -56 14q-96 0 -113 -107v-4q0 -25 29 -136l5 -34q-7 -53 -45 -53h-24q-74 0 -74 162v35l8 127v10q0 25 -20 25q-25 0 -25 -107
q-12 -14 -19 -14q-16 0 -17 37v2q0 169 23 169q11 13 44 13z" />
    <glyph glyph-name="ikaratedungbali" unicode="&#x1b08;" horiz-adv-x="1301" 
d="M462 -79q54 0 96 -47q10 -13 10 -26q-1 -6 -5 -6v0q-5 0 -37 20q-29 14 -49 14h-3q-28 0 -40 -15q-3 -5 -3 -7v0q0 -15 70 -31q74 -21 98 -41q24 -26 24 -52q0 -32 -27 -61q-34 -25 -80 -25h-5q-74 0 -121 52q-23 39 -23 74q0 6 3 6h1q33 -41 54 -48q46 -20 79 -20h3
q40 0 56 20q5 5 5 13q0 15 -78 34q-58 17 -86 35q-24 17 -24 38v8q0 35 46 59q20 6 36 6zM112 440h6q43 0 59 -35l6 -29q-21 -165 -21 -203q7 -145 37 -156h5l2 12q-29 142 -29 202q0 147 107 195q29 12 58 12q88 0 123 -120h2l45 81q32 37 93 37q107 0 154 -129
q14 -42 14 -97l-4 -236v-2q0 -21 -19 -21h-10q-19 0 -19 19l2 211q0 90 -102 122l-24 2h-16q-68 0 -109 -97h-7q-22 63 -69 85q-41 14 -56 14q-96 0 -113 -113v-4q0 -27 29 -145l5 -36q-7 -56 -45 -56h-24q-74 0 -74 172v37l8 135v10q0 27 -20 27q-25 0 -25 -114
q-12 -14 -19 -14q-16 0 -17 39v2q0 179 23 179q11 14 44 14zM1027 440h9q164 0 216 -139q15 -41 15 -90v-8q0 -153 -130 -212l-51 -6h-7q-74 0 -94 47v16q7 44 44 44h10q21 0 49 -42q10 -8 22 -8q55 0 86 67q10 25 10 64q0 125 -138 160l-32 3h-24q-96 0 -155 -84
q-23 -40 -54 -128h-2q-7 0 -7 22v15q0 157 67 210q60 69 166 69z" />
    <glyph glyph-name="ukarabali" unicode="&#x1b09;" horiz-adv-x="578" 
d="M333 440h8q153 0 174 -189v-25q0 -277 -301 -466q-203 -142 -203 -223l-8 -71q0 -112 106 -181h16l9 13q-21 57 -21 96v42q0 122 135 210q63 34 119 34h8q209 0 275 -172q17 -49 17 -109v-5q-22 -197 -80 -197l-5 4v4q26 76 26 139q0 157 -127 210q-42 17 -85 17h-25
q-158 0 -199 -151l-4 -30q0 -27 29 -126v-12q0 -42 -33 -42q-112 0 -195 168q-17 57 -17 105q0 274 326 436q194 125 194 269v21q0 122 -148 139q-93 0 -110 -126v-5q0 -46 47 -121v-17q0 -10 -21 -13q-131 39 -131 177v25q0 86 50 138h5v-4l-22 -109v-38q0 -33 17 -63h17
l-4 76q0 128 114 168z" />
    <glyph glyph-name="ukaratedungbali" unicode="&#x1b0a;" horiz-adv-x="1054" 
d="M787 440h9q164 0 216 -139q15 -41 15 -90v-8q0 -153 -130 -212l-51 -6h-7q-74 0 -94 47v16q7 44 44 44h10q21 0 49 -42q10 -8 22 -8q55 0 86 67q10 25 10 64q0 125 -138 160l-32 3h-24q-96 0 -155 -84q-23 -40 -54 -128h-2q-7 0 -7 22v15q0 157 67 210q60 69 166 69z
M333 440h8q153 0 174 -189v-25q0 -277 -301 -466q-203 -142 -203 -223l-8 -71q0 -112 106 -181h16l9 13q-21 57 -21 96v42q0 122 135 210q63 34 119 34h8q209 0 275 -172q17 -49 17 -109v-5q-22 -197 -80 -197l-5 4v4q26 76 26 139q0 157 -127 210q-42 17 -85 17h-25
q-158 0 -199 -151l-4 -30q0 -27 29 -126v-12q0 -42 -33 -42q-112 0 -195 168q-17 57 -17 105q0 274 326 436q194 125 194 269v21q0 122 -148 139q-93 0 -110 -126v-5q0 -46 47 -121v-17q0 -10 -21 -13q-131 39 -131 177v25q0 86 50 138h5v-4l-22 -109v-38q0 -33 17 -63h17
l-4 76q0 128 114 168z" />
    <glyph glyph-name="rarepabali" unicode="&#x1b0b;" horiz-adv-x="700" 
d="M317 -79q48 0 89 -39q17 -18 17 -32q0 -7 -6 -7q-3 0 -37 21q-28 14 -49 14q-45 -4 -45 -23q0 -14 69 -31q72 -20 96 -39q26 -27 26 -55q0 -35 -31 -63q-34 -23 -79 -23q-78 0 -122 56q-18 27 -24 63v8q0 6 3 6h1q36 -42 43 -43q16 -10 63 -21q21 -5 28 -5q47 0 61 25
q3 2 3 8v0q0 14 -49 26q-66 17 -103 37t-37 50v1q0 41 50 62q14 4 33 4zM104 429h15q44 0 44 -62l-8 -202v-2q0 -47 47 -60q55 -19 109 -19h28q112 0 139 38q20 29 20 91l-12 152v11q0 46 61 53q46 0 82 -85q13 -52 13 -105v-28q0 -217 -25 -217l-13 -7q-15 0 -16 37v4
l5 159q-8 120 -29 120h-9q-5 0 -10 -19l2 -88q0 -151 -71 -189q-40 -28 -124 -28h-25q-161 0 -201 76q-28 47 -28 113l1 13v22l7 152q0 19 -12 28h-1q-13 0 -19 -152l-6 -9l-3 -2h-7q-13 6 -13 33v56q0 79 13 92q25 22 46 24z" />
    <glyph glyph-name="rarepatedungbali" unicode="&#x1b0c;" horiz-adv-x="700" 
d="M104 429h15q44 0 44 -63l-8 -201v-2q0 -47 47 -60q55 -20 109 -20h28q112 0 139 39q20 29 20 90l-12 152v11q0 47 61 54q46 0 82 -85q13 -52 13 -106v-28q0 -216 -25 -216l-13 -7q-15 0 -16 37v4l5 159q-8 120 -29 120h-9q-5 0 -10 -19l2 -88q0 -151 -71 -189
q-40 -28 -124 -28h-25q-161 0 -201 75q-28 48 -28 114l1 13v21l7 152q0 19 -12 28h-1q-13 0 -19 -152l-6 -9l-3 -2h-7q-13 6 -13 34v56q0 78 13 92q25 22 46 24zM339 -101h8q11 -1 11 -4v-4q0 -5 -32 -43q-13 -23 -13 -27q3 -9 52 -30q44 -19 44 -45v-2q0 -43 -141 -124
q-23 -13 -34 -13h-1q-3 0 -3 2v1q0 6 46 38q71 56 71 86q0 16 -72 39q-13 9 -14 20q0 25 75 105z" />
    <glyph glyph-name="lalengabali" unicode="&#x1b0d;" horiz-adv-x="823" 
d="M128 440q46 0 53 -67l-5 -219q12 -83 33 -83l5 4v4q-21 68 -21 138q0 138 53 193q36 21 75 21q85 0 115 -113l4 -4h4q27 105 62 105q0 7 49 12q152 0 152 -302v-38q-9 -260 -28 -260l-34 -5l-3 5q11 68 16 256q0 189 -75 236l-32 8q-69 0 -103 -101h-12q-44 105 -115 105
q-91 -15 -91 -130v-13q0 -37 29 -155v-5q0 -27 -37 -37q-65 0 -103 105q-8 21 -8 75l8 185q-4 17 -21 17v-4l-8 -72v-58q0 -23 -12 -26h-4q-29 18 -29 76v13q0 134 83 134zM288 -68h4q72 0 243 -113l65 -17q81 0 169 37l4 -13q0 -89 -222 -104q-49 0 -222 88l-62 12
q-70 -19 -70 -92q0 -70 156 -168q104 -90 104 -205h3q140 268 140 332q4 20 50 20l3 -4q-45 -185 -106 -311q-54 -114 -132 -193h-8l-8 13l20 109v21q0 105 -201 239q-87 77 -87 164v5q25 180 157 180z" />
    <glyph glyph-name="lalengatedungbali" unicode="&#x1b0e;" horiz-adv-x="823" 
d="M797 -154h4q46 0 80 -44q23 -34 23 -71q0 -57 -48 -85q-2 -1 -28 -17v0q34 -9 48 -20q14 -9 31 -32q17 -27 17 -70q0 -90 -60 -126q-27 -15 -55 -15q-36 0 -65 18q-10 7 -31 32q-27 41 -27 89v8q0 33 20 47h5q15 0 19 -19q2 -6 2 -12v-3q-2 -25 -2 -27v-4q0 -26 31 -47
q14 -8 34 -8q57 0 74 50q4 13 4 26v6q0 34 -26 59q-14 11 -34 17q-36 9 -67 9h-18q-18 0 -22 14v4q0 17 43 21q50 8 66 16q20 9 30 32q2 9 2 15q0 27 -19 46q-19 11 -39 11h-2q-51 0 -72 -70q-6 -16 -12 -16h-2q-7 0 -8 23q0 36 20 81q33 62 84 62zM121 451q51 0 59 -68
l-5 -222q13 -85 37 -85l5 4v4q-23 69 -23 141q0 140 59 196q40 21 83 21q95 0 128 -115l4 -4h5q30 107 69 107q0 7 54 12q170 0 170 -307v-38q-11 -264 -32 -264l-37 -5l-4 5q13 69 18 260q0 191 -83 239l-36 8q-77 0 -115 -102h-13q-49 106 -128 106q-101 -15 -101 -132
v-13q0 -37 32 -157v-5q0 -28 -41 -38q-72 0 -115 107q-9 21 -9 76l9 188q-4 17 -23 17v-4l-9 -73v-59q0 -23 -13 -26h-5q-32 18 -32 77v13q0 136 92 136zM299 -65h5q80 0 270 -115l73 -17q90 0 187 38l5 -13q0 -91 -247 -106q-55 0 -247 89l-69 13q-78 -20 -78 -94
q0 -71 174 -170q115 -92 115 -209h4q156 273 156 337q4 21 55 21l4 -4q-51 -188 -119 -316q-59 -116 -146 -196h-9l-9 13l22 111v21q0 107 -224 243q-96 78 -96 166v5q27 183 174 183z" />
    <glyph glyph-name="ekarabali" unicode="&#x1b0f;" horiz-adv-x="554" 
d="M235 458h8q64 0 104 -39l4 -6v-8q0 -5 -10 -7l-42 4h-22q-79 0 -138 -75q-36 -62 -36 -128q0 -65 43 -112q19 -17 34 -17h1l5 5v2q-30 68 -30 74v18q0 88 94 137q34 8 58 8h2q118 0 188 -115q29 -59 29 -120v-13q-2 -39 -13 -46h-6q-8 0 -29 93q-53 114 -155 114
q-77 0 -94 -67v-16q0 -24 28 -102v-6q0 -34 -57 -39h-12q-73 0 -134 105q-25 61 -25 118v5q0 118 86 190q55 43 119 43z" />
    <glyph glyph-name="aikarabali" unicode="&#x1b10;" horiz-adv-x="838" 
d="M755 596q71 -24 71 -118v-4q0 -60 -67 -72q-90 0 -131 89l-4 33q0 47 30 47h11q39 -4 83 -76l-4 -4h-23q-32 29 -48 29v-8q0 -19 60 -38q44 0 52 42v8q0 19 -30 64v8zM123 436q29 0 34 -46q-30 -169 -30 -215v-17q0 -85 37 -122h4v9h4q-15 53 -15 113v47q0 223 131 223
q89 0 112 -135h11q26 131 116 131h11q114 0 131 -169v-38q0 -371 -157 -450q-89 -50 -247 -50q-102 -22 -145 -76q-68 -85 -68 -198q14 -139 71 -139l15 -4h23q75 0 104 177q45 135 116 135h23q105 0 123 -173q18 -135 101 -135q65 0 90 72q22 86 22 341q8 0 8 17
q22 444 22 559l-8 93l23 8h7q15 -58 15 -164q0 -307 -15 -509l4 -17q-27 -446 -60 -446q-39 -63 -108 -63h-8q-104 0 -130 114q-25 202 -83 202h-15q-70 0 -89 -186q-39 -122 -124 -122h-29q-135 0 -135 257q0 252 183 345q74 25 292 55q145 64 145 282q0 127 -63 172
q-15 9 -41 9h-11q-52 0 -116 -110q-50 80 -86 110l-26 4h-19q-69 0 -79 -156v-8q0 -43 23 -173v-12q0 -24 -23 -38h-7q-86 26 -86 193l-4 17l15 194l-11 8q-16 0 -34 -151l-11 -9q-11 0 -15 63q8 177 52 177z" />
    <glyph glyph-name="okarabali" unicode="&#x1b11;" horiz-adv-x="822" 
d="M138 439q39 0 39 -42v-9l-34 -214q2 -68 34 -126h17v8q-17 76 -17 139q19 223 96 223q0 10 51 13h19q80 0 103 -76q19 -59 27 -59q9 0 34 80q44 59 109 59q169 0 169 -223q0 -293 -113 -380q-94 -108 -386 -108q-222 -39 -222 -211q0 -112 100 -194h9l4 13l-9 72
q0 178 188 227l73 8q213 0 269 -160l8 -64q0 -102 -60 -205l-17 -13l-4 4v13l38 126v13q0 139 -160 185l-61 4h-9q-158 0 -203 -164v-46l26 -110v-8l-9 -9h-17q-64 0 -157 135q-52 90 -52 177v4q0 280 348 324q268 0 329 127q40 76 40 173v8q0 172 -100 172h-18
q-73 0 -143 -113q-84 105 -104 105l-36 8h-17q-90 -15 -90 -117l-5 -38v-4q0 -43 26 -169v-9q0 -23 -26 -38h-4q-79 0 -104 140l-5 50v30l13 197l-4 4h-13q-24 -8 -27 -80v-12l-4 -5l4 -4v-58l-13 -13h-4q-17 0 -21 63q0 156 69 177h26z" />
    <glyph glyph-name="okaratedungbali" unicode="&#x1b12;" horiz-adv-x="1299" 
d="M1027 440h9q164 0 216 -139q15 -41 15 -90v-8q0 -153 -130 -212l-51 -6h-7q-74 0 -94 47v16q7 44 44 44h10q21 0 49 -42q10 -8 22 -8q55 0 86 67q10 25 10 64q0 125 -138 160l-32 3h-24q-96 0 -155 -84q-23 -40 -54 -128h-2q-7 0 -7 22v15q0 157 67 210q60 69 166 69z
M138 439q39 0 39 -42v-9l-34 -214q2 -68 34 -126h17v8q-17 76 -17 139q19 223 96 223q0 10 51 13h19q80 0 103 -76q19 -59 27 -59q9 0 34 80q44 59 109 59q169 0 169 -223q0 -293 -113 -380q-94 -108 -386 -108q-222 -39 -222 -211q0 -112 100 -194h9l4 13l-9 72
q0 178 188 227l73 8q213 0 269 -160l8 -64q0 -102 -60 -205l-17 -13l-4 4v13l38 126v13q0 139 -160 185l-61 4h-9q-158 0 -203 -164v-46l26 -110v-8l-9 -9h-17q-64 0 -157 135q-52 90 -52 177v4q0 280 348 324q268 0 329 127q40 76 40 173v8q0 172 -100 172h-18
q-73 0 -143 -113q-84 105 -104 105l-36 8h-17q-90 -15 -90 -117l-5 -38v-4q0 -43 26 -169v-9q0 -23 -26 -38h-4q-79 0 -104 140l-5 50v30l13 197l-4 4h-13q-24 -8 -27 -80v-12l-4 -5l4 -4v-58l-13 -13h-4q-17 0 -21 63q0 156 69 177h26z" />
    <glyph glyph-name="kabali" unicode="&#x1b13;" horiz-adv-x="962" 
d="M191 442h8q59 -5 59 -41v-5q-16 -132 -42 -132q-54 -35 -54 -70v-13q0 -29 50 -70q0 -28 46 -37h12q0 20 -71 70q-21 21 -21 37v13q0 37 75 74h30q148 0 287 -70q63 -47 63 -112q0 -67 -121 -78q-125 0 -150 169l4 4h4q49 0 67 -53q41 -41 83 -42h25l13 13q0 37 -150 91
q-101 24 -167 24q-17 0 -25 -16v-4q0 -26 92 -75q37 -31 37 -62v-8q0 -46 -71 -46q-97 0 -137 108l-4 37l37 215v5q0 24 -25 24q-33 0 -54 -132l8 -37v-4l-12 -13h-13q-29 18 -29 54v16q25 166 146 166zM545 442q153 0 192 -95l8 -108v-136l9 -50h8l4 25l-8 339q16 13 50 13
q70 0 100 -83l4 -46q0 -306 -29 -306h-9q-16 7 -16 29v137l4 62q-4 132 -29 132h-9v-256q0 -108 -58 -108h-17q-66 0 -66 112v95q-7 128 -59 128q-33 21 -91 21q-82 0 -113 -79h-4q-54 4 -54 17q19 93 62 128q53 29 121 29z" />
    <glyph glyph-name="kamahapranabali" unicode="&#x1b14;" horiz-adv-x="1157" 
d="M224 440q62 -7 62 -49q-17 -143 -54 -143q-54 -41 -54 -80q0 -38 54 -85q0 -31 58 -44l13 4v5q-7 13 -100 84l-8 32q16 84 104 84h33q182 0 320 -80q59 -50 59 -103v-4q-17 -89 -113 -89h-37q-125 0 -158 183l4 4q75 -18 75 -49q44 -58 116 -58q25 4 25 13v9
q0 43 -224 103q-77 18 -129 18q-22 0 -34 -23v-8q15 -23 121 -85q29 -28 29 -58q-10 -58 -75 -58q-108 0 -158 107l-8 49l41 236v14l-16 17h-4q-43 0 -71 -133l12 -58l-12 -9h-21q-29 19 -29 58v13q0 130 137 183h42zM615 440q156 0 208 -89q17 -45 17 -76v-201l-4 -22l4 -4
h25l133 26h4q79 0 104 -120l-8 -9q-30 54 -100 54q-130 -36 -154 -36q-75 0 -75 53l4 156q0 165 -166 165q-109 0 -133 -84q-67 0 -67 13v5q0 58 54 124q53 45 154 45z" />
    <glyph glyph-name="gabali" unicode="&#x1b15;" horiz-adv-x="872" 
d="M121 442q62 -6 62 -51v-6l-23 -144l-2 -70q0 -99 54 -118h17l-40 63q-14 37 -14 80v28q0 71 51 144q63 70 206 70q153 0 201 -78q39 -65 39 -142v-11q0 -60 -48 -140l-4 -10v-2l6 -5q38 0 66 97l5 49v9q0 67 -49 182l-3 14v7q0 30 43 34h9q80 0 113 -78q12 -27 12 -74
q-6 -295 -12 -295q-9 -6 -17 -6h-6q-24 5 -24 19l7 212q0 131 -47 131q-5 0 -6 -9q29 -65 29 -142q0 -157 -68 -188q-32 -19 -64 -19h-13q-50 0 -59 37v10q0 13 49 86q21 36 21 62v17q0 86 -99 106q-48 8 -93 8q-147 0 -171 -63q-13 -32 -13 -54v-16q0 -31 56 -129l5 -27v-2
q-8 -33 -73 -33q-70 0 -105 74q-10 23 -15 102l12 173q0 12 -9 20q-27 0 -27 -140l-10 -6h-13q-12 5 -12 21q6 182 20 182q16 21 56 21z" />
    <glyph glyph-name="gagorabali" unicode="&#x1b16;" horiz-adv-x="939" 
d="M135 442h11q51 0 51 -33l-33 -203l-2 -36v-23q5 -95 22 -95h2l3 6l-3 121q0 153 46 234q31 27 57 27q79 0 79 -58q0 -13 -46 -160l-3 -35v-4q0 -79 74 -79q61 0 86 56q18 54 66 54q51 0 70 -79q15 -33 67 -33q71 0 71 89q0 24 -43 162v29q0 56 65 56q63 0 98 -83
q16 -67 16 -172v-40q0 -145 -30 -145h-3q-29 0 -29 35l11 150q-12 193 -50 193h-7l-3 -2v-3l36 -149l4 -58q0 -122 -94 -160l-36 -4q-76 0 -103 56q-21 58 -46 58q-23 0 -71 -81q-31 -29 -81 -29q-111 0 -130 123l-3 37v4q0 38 40 181v6l-5 12q-37 -13 -54 -174l13 -139
q-7 -58 -53 -58h-9q-62 0 -75 100v51q0 53 20 204v14l-5 4q-24 0 -43 -147q-9 -14 -14 -14h-5q-19 8 -19 51v17q0 123 38 154q23 12 52 12z" />
    <glyph glyph-name="ngabali" unicode="&#x1b17;" horiz-adv-x="823" 
d="M112 440h6q43 0 59 -32l6 -26q-21 -150 -21 -185q7 -132 37 -142h5l2 11q-29 129 -29 184q0 134 107 177q29 11 58 11q88 0 123 -109h2l45 73q32 34 93 34q107 0 154 -117q14 -39 14 -88l-4 -215v-2q0 -19 -19 -19h-10q-19 0 -19 17l2 192q0 82 -102 111l-24 2h-16
q-68 0 -109 -88h-7q-22 57 -69 77q-41 13 -56 13q-96 0 -113 -103v-4q0 -24 29 -132l5 -32q-7 -51 -45 -51h-24q-74 0 -74 157v33l8 123v9q0 25 -20 25q-25 0 -25 -104q-12 -13 -19 -13q-16 0 -17 36v2q0 162 23 162q11 13 44 13z" />
    <glyph glyph-name="cabali" unicode="&#x1b18;" horiz-adv-x="684" 
d="M205 445h12q83 0 83 -71q0 -85 -83 -149q-91 -17 -91 -79q27 -100 74 -100h9l8 8v4q0 11 -66 59l-9 25v4q0 62 92 62q65 0 157 -108l49 -13q87 0 87 125q-8 125 -53 125q0 8 -62 17l-5 4v4q24 75 112 75q116 0 116 -171v-58l-4 -195l-17 -13h-12q-13 0 -17 42l4 141
q0 167 -45 195l-37 9h-13v-4q83 -61 83 -171q0 -151 -83 -204l-54 -12q-76 0 -153 129q-42 29 -66 29q-16 -6 -16 -12q82 -36 82 -96q0 -46 -74 -50h-8q-102 0 -137 104v29q0 80 116 154q41 40 41 66q0 29 -29 29h-8q-62 0 -99 -103v-34l-13 -12h-8q-29 12 -29 50v12
q0 132 166 154z" />
    <glyph glyph-name="calacabali" unicode="&#x1b19;" horiz-adv-x="927" 
d="M250 442h43q137 0 173 -98q26 -242 59 -242q28 -24 76 -24h4q123 0 123 200v135q13 25 46 25h5q70 0 88 -49q13 -52 13 -98v-9l-8 -253q-9 0 -9 -13l-4 -4h-17q-21 13 -21 29l4 258q0 51 -25 65v-4q0 -254 -38 -303q-35 -61 -148 -61h-30q-122 0 -156 86q-13 24 -34 188
q-34 82 -144 82q-124 0 -143 -110l-9 -58v-20q0 -86 59 -86q64 0 64 110v33l17 16h21q18 0 21 -65v-41q0 -99 -85 -127h-38q-118 0 -118 164v20q0 188 97 238q58 16 114 16z" />
    <glyph glyph-name="jabali" unicode="&#x1b1a;" horiz-adv-x="657" 
d="M396 440h2q157 0 199 -121l7 -33q0 -64 -55 -110q58 -30 58 -111v-41q0 -29 -14 -29h-7q-21 0 -21 13l3 21v28q0 59 -33 75q-32 19 -147 19q-23 9 -25 14v13q0 15 133 31q69 17 69 53v8q0 40 -126 58l-53 2q-172 0 -172 -127q0 -41 35 -133l5 -31q0 -42 -37 -42h-19
q-88 0 -88 142v55l7 121q-5 19 -12 19h-9q-17 0 -21 -98q-10 -14 -14 -14h-2q-14 0 -14 42v53q0 121 54 121h11q56 0 56 -60v-4l-16 -203q6 -121 42 -121l8 7v8l-20 97q-6 11 -6 53v5q6 164 159 212q39 8 63 8z" />
    <glyph glyph-name="jabali.nya" horiz-adv-x="657" 
d="M396 440h2q157 0 199 -121l7 -33q0 -64 -55 -110q58 -30 58 -111v-41q0 -29 -14 -29h-7q-21 0 -21 13l3 21v28q0 59 -33 75q-32 19 -147 19q-23 9 -25 14v13q0 15 133 31q69 17 69 53v8q0 40 -126 58l-53 2q-172 0 -172 -127q0 -41 35 -133l5 -31q0 -42 -37 -42h-19
q-88 0 -88 142v55l7 121q-5 19 -12 19h-9q-17 0 -21 -98q-10 -14 -14 -14h-2q-14 0 -14 42v53q0 121 54 121h11q56 0 56 -60v-4l-16 -203q6 -121 42 -121l8 7v8l-20 97q-6 11 -6 53v5q6 164 159 212q39 8 63 8zM314 -32h11q67 0 107 -74l-6 -6h-5q-61 27 -86 27h-16
q-32 -3 -32 -16v-16q8 -17 161 -74q37 -39 37 -64q0 -101 -107 -101h-21q-101 0 -150 96v16l11 10q62 -53 149 -53q59 0 59 32q0 21 -155 74q-37 38 -37 64v5q7 80 80 80z" />
    <glyph glyph-name="jajerabali" unicode="&#x1b1b;" horiz-adv-x="885" 
d="M785 588q71 -24 71 -117v-4q0 -60 -67 -71q-90 0 -131 87l-4 34q0 46 30 46h11q39 -4 83 -75l-4 -5h-23q-32 30 -48 30v-9q0 -18 60 -37q44 0 52 42v8q0 19 -30 63v8zM153 429q29 0 34 -46q-30 -168 -30 -213v-17q0 -85 37 -121h4v8h4q-15 53 -15 113v46q0 222 131 222
q89 0 112 -134h11q26 129 116 129h11q114 0 131 -167v-37q0 -370 -157 -448q-89 -50 -247 -50q-102 -22 -145 -76q-68 -84 -68 -196q14 -138 71 -138l15 -4h23q75 0 104 175q45 134 116 134h23q105 0 123 -171q18 -134 101 -134q65 0 90 71q22 85 22 339q8 0 8 16
q22 443 22 557l-8 92l23 8h7q15 -57 15 -163q0 -306 -15 -506l4 -17q-27 -443 -60 -443q-39 -63 -108 -63h-8q-104 0 -130 113q-25 201 -83 201h-15q-70 0 -89 -184q-39 -122 -124 -122h-29q-135 0 -135 256q0 250 183 343q74 25 292 54q145 64 145 280q0 127 -63 172
q-15 8 -41 8h-11q-52 0 -116 -109q-50 80 -86 109l-26 4h-19q-69 0 -79 -155v-8q0 -43 23 -171v-13q0 -23 -23 -38h-7q-86 26 -86 193l-4 17l15 192l-11 8q-16 0 -34 -150l-11 -9q-11 0 -15 63q8 176 52 176z" />
    <glyph glyph-name="nyabali" unicode="&#x1b1c;" horiz-adv-x="1261" 
d="M101 447h13q58 0 58 -66q-18 -137 -18 -177q0 -97 33 -137h7l2 9q-26 137 -26 159v18q0 90 49 157q39 35 102 35q76 0 104 -78l14 -31l47 76q28 31 87 31q93 0 128 -83q30 -62 30 -134l-9 -159q0 -18 17 -18q18 0 18 219q0 97 102 156q45 23 109 23h14q170 0 220 -165
q9 -38 9 -74v-4q0 -166 -123 -209q-16 -6 -44 -6q-107 0 -107 56q8 45 47 45q23 0 60 -39q18 -1 18 -4q89 16 89 117v25q0 87 -89 122q-29 8 -83 12l-9 -2h-9q-93 0 -128 -66q-15 -39 -34 -208q-16 -50 -51 -50h-24q-49 0 -49 87l-2 25l4 107q0 94 -104 109h-23
q-69 0 -104 -86h-5l-27 45q-37 45 -102 45q-93 0 -93 -103v-16q0 -19 24 -120l2 -21v-20q0 -37 -51 -41q-50 0 -65 45q-15 54 -15 109v39l7 124v2q-3 23 -11 23h-12q-18 0 -22 -107q-8 -6 -15 -6q-15 0 -16 35v6q0 157 23 157q0 6 33 12z" />
    <glyph glyph-name="talatikbali" unicode="&#x1b1d;" horiz-adv-x="869" 
d="M148 440q49 -10 49 -57q0 -44 -49 -246q7 -74 29 -74h16q115 15 115 58h-8q-14 0 -57 -37l-37 -8q0 82 94 110h25q25 0 29 -74q0 -108 -115 -147h-50q-76 0 -103 82q-8 18 -8 57q0 45 45 205l-4 25q-15 0 -33 -91l-16 -12h-4q-15 0 -21 45v8q0 156 103 156zM333 440h29
q87 0 119 -90l9 -25h4q35 111 144 111h20q104 0 149 -119q12 -47 12 -82q0 -258 -29 -258h-12q-13 4 -13 25l5 160q0 94 -79 135q-33 12 -61 12h-17q-52 0 -103 -78l-20 -8l-70 86q-25 20 -66 20q-76 0 -95 -57q-8 -19 -16 -20h-9l-8 53q19 135 107 135zM440 14q17 0 21 -78
q0 -155 -115 -180l-33 -4h-5q-139 0 -139 164v28l8 9l24 -4l13 4q12 -115 53 -115q0 -10 50 -12q81 0 94 110q12 78 29 78z" />
    <glyph glyph-name="tamurdamahapranabali" unicode="&#x1b1e;" horiz-adv-x="869" 
d="M217 -49q-136 2 -155 144l-2 23q0 60 41 133q25 44 25 65q0 20 -23 20q-35 0 -35 -55q0 -18 4 -44l-13 -2q-14 41 -14 82q0 123 74 123q61 -4 61 -68q0 -40 -37 -102q-41 -68 -41 -111l1 -13q15 -87 128 -87q106 0 134 113l16 -4q-6 -215 -164 -217zM334 439h22
q94 0 130 -98l3 -11h2q37 106 151 106q120 0 160 -103q17 -50 17 -89q0 -244 -28 -244h-5q-20 0 -20 17l3 176q0 55 -59 101q-37 22 -93 22q-58 0 -109 -75l-11 -6h-11q-13 8 -59 70q-26 31 -85 31q-64 0 -83 -51q-11 -20 -20 -25q-12 0 -14 45q0 91 61 123q23 11 48 11z
" />
    <glyph glyph-name="damurdaalpapranabali" unicode="&#x1b1f;" horiz-adv-x="711" 
d="M517 442h4q90 0 133 -156q7 -40 7 -85q0 -199 -13 -199l-9 -6h-6q-21 0 -25 28l5 134v15q0 160 -70 202h-4v-2q52 -105 52 -178v-22q0 -124 -52 -166q-19 -11 -44 -11h-11q-76 0 -89 54q-16 63 -40 63q-17 0 -52 -78q-25 -37 -70 -37q-101 0 -118 128v30q0 40 26 208v5
q0 19 -17 19q-24 0 -33 -52q-7 -95 -20 -95h-2q-20 0 -24 65q0 73 41 117q21 17 60 17q67 0 67 -54v-20q0 -22 -31 -206v-6q0 -54 51 -54h20q38 0 74 103q15 15 35 15q32 0 43 -25q23 -103 71 -103h8q55 0 55 75l2 32q0 72 -57 171l-6 25v10q6 39 39 39z" />
    <glyph glyph-name="damurdamahapranabali" unicode="&#x1b20;" horiz-adv-x="638" 
d="M138 443h7q53 0 63 -28q4 -10 4 -28v-17q0 -22 -30 -209v-8q0 -52 50 -52h19q39 0 74 103q16 16 35 16q46 -4 46 -39q23 -90 67 -90h9q54 0 54 77q2 0 2 32q0 79 -69 204l-5 26q5 13 9 13h6q17 0 83 -122q26 -74 26 -134v-10q0 -121 -50 -170q-24 -11 -46 -11h-15
q-62 0 -80 41q-21 77 -41 77h-3q-17 0 -41 -60q-25 -56 -80 -56q-99 0 -117 127v32q0 43 26 209v6q0 19 -18 19h-6q-25 0 -35 -131q0 -12 -13 -17q-20 0 -24 65v2q0 67 39 116q25 17 54 17z" />
    <glyph glyph-name="narambatbali" unicode="&#x1b21;" horiz-adv-x="908" 
d="M271 453h19q64 0 84 -65q29 -74 56 -74q24 0 77 101q28 36 70 36h12q82 0 112 -125q7 -39 7 -77v-17q0 -47 -14 -146q2 -17 10 -17h2q26 0 26 142q0 78 -31 184v22q0 29 49 36q108 0 108 -200v-8q0 -243 -24 -243l-2 -2h-10q-17 0 -22 23l2 149v56q0 126 -42 154h-2
l-6 -4q26 -108 26 -165q0 -146 -30 -192q-17 -19 -56 -19q-57 0 -57 67l15 156q0 106 -64 106h-5q-47 0 -96 -82q-26 -30 -49 -30h-8q-58 0 -89 80q-33 49 -63 49h-5q-38 0 -49 -32q-43 -105 -99 -105q-86 0 -86 122v6q0 53 26 53q11 0 18 -70q15 -34 36 -34h6q29 0 57 87
q36 78 91 78z" />
    <glyph glyph-name="tabali" unicode="&#x1b22;" horiz-adv-x="789" 
d="M127 442q54 0 54 -63l-25 -195q0 -100 119 -100h16q91 0 91 45q0 38 -91 42h-53q-12 0 -12 67q0 204 172 204h12q181 0 181 -225v-38q0 -51 -12 -125l12 -8q19 0 25 125v50q0 50 -49 208v5l24 8h4q110 0 136 -83l8 -92q0 -271 -29 -271h-8q-12 3 -20 29l12 204
q0 130 -45 130l-4 -5v-8q20 -79 20 -158q0 -192 -66 -192h-20q-45 0 -45 54l12 125v17q-13 129 -99 129l-57 4h-29q-74 0 -74 -46v-20q0 -11 99 -25q49 -34 49 -80v-25q0 -129 -140 -129h-32q-152 0 -152 134v12l16 188l-4 12h-8q-17 0 -29 -121l-12 -8h-13q-16 7 -16 29
q0 196 62 196h20z" />
    <glyph glyph-name="tatawabali" unicode="&#x1b23;" horiz-adv-x="700" 
d="M486 441q156 0 156 -209v-128q0 -141 -34 -141h-5q-15 3 -15 36v110l5 59q0 191 -112 191h-11v-9q84 -61 84 -155q0 -146 -54 -191h-5l-34 82v4q31 0 39 92q0 97 -84 127q-82 11 -82 23q0 73 107 109h45zM147 427q28 0 35 -50l-15 -223q0 -70 127 -86h93q59 -68 59 -96
v-4l-93 -10h-14q-221 0 -221 169v41l6 105l-6 36h-14q-17 -26 -25 -132l-5 -5h-15q-14 3 -14 37v32q0 186 102 186zM344 172h4q93 -51 138 -191l14 -59h-10q-97 205 -151 205q-20 -21 -20 -32h-10v5q18 72 35 72z" />
    <glyph glyph-name="dabali" unicode="&#x1b24;" horiz-adv-x="758" 
d="M120 441h25q88 0 88 -74v-12q0 -78 -75 -144q-63 -53 -63 -95q8 -20 33 -20h9q30 0 133 111q37 16 75 16q87 0 125 -70l13 -57q-14 -95 -71 -95q-58 0 -79 91q24 20 41 20q18 -41 46 -41h17l12 12v4q-12 28 -62 46q-38 0 -129 -87q-56 -45 -92 -45h-17q-104 0 -104 86v21
q0 71 108 197l9 41q0 25 -29 25h-13q-10 0 -29 -107q-15 -12 -29 -12q-17 17 -17 33q0 152 58 152zM520 441q145 0 184 -152l4 -99v-152q0 -32 -21 -41h-8q-29 0 -29 37l4 78q0 147 -34 173q-39 41 -112 41q-123 0 -142 -91l-29 5h-13v4q0 57 46 144q58 53 150 53z" />
    <glyph glyph-name="damadubali" unicode="&#x1b25;" horiz-adv-x="745" 
d="M543 441h4q95 0 141 -156q7 -39 7 -85q0 -198 -14 -198l-9 -6h-7q-22 0 -26 28l5 134v14q0 160 -73 203h-5v-2q56 -105 56 -179v-22q0 -123 -56 -165q-20 -11 -47 -11h-11q-80 0 -94 54q-17 63 -42 63q-17 0 -55 -78q-26 -37 -74 -37q-106 0 -125 128v30q0 39 28 207v6
q0 18 -18 18q-25 0 -34 -52q-8 -94 -21 -94h-2q-22 0 -26 64q0 74 44 117q21 17 62 17q72 0 72 -54v-20q0 -22 -33 -205v-6q0 -54 53 -54h21q41 0 79 102q16 15 36 15q34 0 46 -25q24 -102 75 -102h8q58 0 58 74l2 32q0 73 -60 171l-7 25v10q7 39 42 39z" />
    <glyph glyph-name="nabali" unicode="&#x1b26;" horiz-adv-x="767" 
d="M186 440q62 0 62 -42v-8q0 -39 -25 -120q-66 -38 -66 -88v-4q0 -34 45 -75q0 -29 50 -41h8v12q-87 74 -87 96v12q0 67 104 83q229 -37 265 -70q66 -54 66 -113q0 -73 -107 -87h-13q-114 0 -141 175l5 4h4q58 -13 58 -46q38 -54 99 -54q21 0 21 17q0 44 -174 95
q-75 21 -108 21h-12q-31 -5 -33 -16q0 -31 87 -79q41 -36 41 -71q0 -40 -62 -50h-4q-94 0 -133 100l-8 54l37 220q0 17 -16 25h-9q-29 0 -49 -129l8 -41q-5 -21 -13 -21h-12q-29 18 -29 54v12q0 114 95 167q16 8 46 8zM525 440q140 0 183 -96l8 -54v-108q0 -191 -29 -191
h-12q-16 0 -21 67l4 45v75q0 115 -50 141q-26 17 -99 25q-74 0 -104 -83v-4q-48 8 -58 17q31 154 104 154q0 6 74 12z" />
    <glyph glyph-name="pabali" unicode="&#x1b27;" horiz-adv-x="700" 
d="M104 442h15q44 0 44 -63l-8 -201v-2q0 -47 47 -60q55 -20 109 -20h28q112 0 139 39q20 29 20 90l-12 152v11q0 47 61 54q46 0 82 -85q13 -52 13 -106v-28q0 -216 -25 -216l-13 -7q-15 0 -16 37v4l5 159q-8 120 -29 120h-9q-5 0 -10 -19l2 -88q0 -151 -71 -189
q-40 -28 -124 -28h-25q-161 0 -201 75q-28 48 -28 114l1 13v21l7 152q0 19 -12 28h-1q-13 0 -19 -152l-6 -9l-3 -2h-7q-13 6 -13 34v56q0 78 13 92q25 22 46 24z" />
    <glyph glyph-name="pakapalbali" unicode="&#x1b28;" horiz-adv-x="642" 
d="M436 568h11q62 0 101 -100l-23 -7h-8q-10 4 -27 33q-28 26 -47 26q-18 0 -28 -22q0 -29 106 -51q62 0 86 88q0 15 7 15q28 -17 28 -49v-3q0 -82 -89 -115h-63q-113 34 -113 96v30q18 59 59 59zM119 427h15q56 0 56 -47l-16 -181q0 -107 168 -107h12q114 0 143 66
q35 81 35 200l-3 10l43 12q11 -21 11 -96v-22q0 -176 -97 -240q-48 -26 -125 -26h-23q-230 0 -230 170l19 217l-12 8h-4q-19 0 -38 -126l-5 -3h-4q-19 9 -19 29v18q12 118 74 118z" />
    <glyph glyph-name="babali" unicode="&#x1b29;" horiz-adv-x="855" 
d="M127 442q50 0 50 -37v-4l-21 -119l-2 -54q0 -170 59 -170l2 6q-50 87 -50 170v2q6 155 105 190q16 6 40 8q78 0 101 -76l9 -33h2q33 105 113 105q99 0 134 -111q12 -38 12 -70q0 -92 -69 -183l-2 -10l2 -2h3q61 16 79 174v8q0 64 -34 146l-2 21v2q10 37 46 37h2
q64 0 90 -72q7 -44 7 -103v-222q0 -49 -25 -49h-7q-20 0 -20 23l6 183v14q0 114 -26 129h-8q14 -75 14 -119q0 -177 -77 -214q-24 -10 -53 -10h-10q-44 0 -44 29q0 19 59 111q18 35 18 70q0 80 -81 103l-26 2h-6q-53 0 -93 -78l-7 -5h-2q-6 2 -54 72q-30 19 -51 19
q-66 0 -92 -70l-3 -33q0 -65 64 -160l4 -27v-2q0 -31 -65 -31h-7q-107 0 -107 148v21l-2 10l2 14l9 161l-7 10q-15 -2 -15 -76v-21q-3 -39 -19 -39h-2q-25 0 -25 46v12q0 111 32 140q24 14 50 14z" />
    <glyph glyph-name="bakembangbali" unicode="&#x1b2a;" horiz-adv-x="764" 
d="M506 441h9q137 0 178 -103q21 -48 21 -144v-160q0 -37 -29 -37h-8q-21 6 -21 53v136q0 99 -83 132l-42 8h-37q-95 0 -125 -82l-4 -4h-29l-8 8q0 116 99 181q31 12 79 12zM103 437h8q74 0 88 -177v-20l-13 -13q-43 91 -70 91h-5q-33 0 -37 -50h-12q-13 32 -13 58v4
q0 66 54 107zM111 227q25 -8 25 -16l-41 -82v-5q0 -25 33 -28h8q31 0 133 111q39 16 75 20q141 -16 141 -127q-11 -99 -66 -99h-4q-57 0 -79 91q0 10 33 16q16 -37 58 -37q19 8 21 16v5q-25 32 -62 32q-54 0 -108 -61q-64 -62 -121 -62h-8q-104 0 -104 86v17q0 92 66 123z
" />
    <glyph glyph-name="mabali" unicode="&#x1b2b;" horiz-adv-x="698" 
d="M547 442h6q78 0 92 -138l3 -43q-7 -259 -20 -259l-15 -4q-20 5 -20 36q6 121 6 227q0 93 -39 108h-4v2l-9 -6v-6q22 -74 22 -136q0 -170 -116 -219q-39 -8 -86 -8h-26q-180 0 -213 102l-4 33v11q0 45 44 81v2q-35 34 -35 67v2q0 49 57 79v4h-18q-50 0 -68 -50
q-9 -65 -9 -146v-8q0 -17 -21 -17h-5q-24 0 -24 28v60q0 135 30 163q20 31 121 31l59 2h78q105 0 105 -63q0 -43 -53 -43h-11l-77 2q-111 0 -111 -57q0 -35 111 -41q95 0 95 -15l1 -8v-13q0 -20 -33 -23l-113 5q-66 -6 -66 -38v-8q0 -36 87 -46l101 -4q97 0 119 27
q35 44 35 110q0 44 -37 140l-5 21q0 56 66 56z" />
    <glyph glyph-name="yabali" unicode="&#x1b2c;" horiz-adv-x="858" 
d="M130 442h7q68 0 68 -63q0 -32 -45 -192l-2 -27q4 -61 29 -61q23 -10 54 -10h21q100 0 129 306q7 23 25 23h7q30 0 30 -55q0 -125 50 -239q22 -37 72 -37h23q52 0 62 41q8 26 8 49v18l-27 178v10q7 55 52 55h23q65 0 84 -132q8 -34 8 -87q-2 -211 -17 -211q0 -6 -23 -10
h-10l-13 10q8 83 8 160v21q0 109 -30 154l-13 4l-10 -6v-4q23 -133 23 -169v-8q0 -129 -67 -152q-31 -12 -73 -12h-5q-96 0 -125 71q-17 47 -35 184h-2q-29 -170 -61 -202q-36 -47 -93 -47q-129 0 -152 69l-7 48q7 79 32 197l2 15q-2 20 -9 20h-8q-22 -15 -35 -122
q-8 -17 -17 -20q-23 0 -23 30q8 183 33 183q0 15 52 20z" />
    <glyph glyph-name="rabali" unicode="&#x1b2d;" horiz-adv-x="653" 
d="M373 448h7q93 0 163 -61q60 -50 60 -216v-94q0 -80 -24 -80h-2q-26 0 -26 61v4l2 138q0 105 -92 136q-39 10 -65 10q-68 0 -94 -62q-24 -65 -24 -129q0 -22 18 -142q-1 -16 -18 -16q-47 0 -179 37l-6 8q0 6 49 80q31 55 31 115q-12 94 -50 94h-7q-31 0 -31 -78
q-8 -12 -11 -12h-15q-14 0 -14 77v20q0 98 70 98h8q54 0 70 -74q18 -53 18 -117v-22q0 -68 -53 -161l68 -20l2 2l-2 103v127q0 133 62 158q33 16 85 16z" />
    <glyph glyph-name="labali" unicode="&#x1b2e;" horiz-adv-x="892" 
d="M107 442h15q68 0 68 -63v-8l-28 -168l-4 -102q2 -44 14 -46q15 0 15 190q21 151 62 174q19 17 52 17h38q107 0 107 -120l-5 -115q0 -109 92 -109h68q54 0 66 34q18 44 18 94l-12 155q11 65 69 65q66 0 85 -48q15 -37 15 -122v-37q0 -237 -28 -237h-10q-22 0 -26 31l2 212
q-7 101 -30 107h-8q-8 0 -9 -23l9 -124q0 -153 -77 -188q-34 -15 -107 -15q-118 0 -142 46q-28 29 -28 207q-10 61 -29 61q0 7 -40 13q-64 0 -78 -80l-12 -205q-11 -40 -45 -40h-20q-44 0 -44 96l-3 26l13 194q-5 36 -17 36q-21 0 -21 -42l2 -69q-4 -38 -17 -38h-19
q-13 5 -13 21v109q0 109 49 109z" />
    <glyph glyph-name="wabali" unicode="&#x1b2f;" horiz-adv-x="700" 
d="M474 441h13q155 0 155 -198v-24q0 -213 -24 -213l-11 -6q-18 0 -18 46l5 144q0 176 -112 176h-6q-4 0 -7 -8q0 -5 44 -36q40 -45 40 -105v-11q0 -148 -79 -189q-42 -21 -109 -21h-23q-149 0 -189 60q-35 45 -35 115l6 110q-3 39 -11 39h-3q-23 0 -33 -122l-6 -4h-12
q-14 8 -14 34v19q0 140 58 173q23 8 44 8q32 -5 32 -41l1 -13l-14 -180v-17q0 -47 52 -64q54 -19 103 -19h31q108 0 135 42q13 20 13 54v4q0 84 -44 107q-26 17 -117 34l-4 2v2q0 46 63 87q35 15 76 15z" />
    <glyph glyph-name="sasagabali" unicode="&#x1b30;" horiz-adv-x="872" 
d="M123 442q58 0 62 -58q-25 -123 -25 -198v-30q0 -92 64 -103h7v2q-46 64 -46 84q-10 32 -10 70q0 110 76 181q62 48 184 48q178 0 220 -119q18 -57 18 -89v-25q0 -59 -49 -137l-2 -13v-2h4v-2q38 0 66 94l5 50v16q0 63 -49 176l-3 17v2q5 36 42 36h10q82 0 118 -87
q7 -37 7 -63q-5 -297 -12 -297q-9 -6 -18 -6h-4q-25 5 -25 19l8 216q0 127 -47 127l-3 -2l-2 -7h-3q30 -61 30 -141q0 -145 -59 -185q-41 -23 -74 -23h-12q-59 5 -59 40v4q0 15 59 104q12 40 12 58q0 66 -60 101q-60 19 -136 19q-135 0 -161 -55q-20 -36 -20 -69
q0 -39 55 -132q7 -15 9 -36q-11 -32 -74 -32q-74 0 -107 81q-12 45 -12 91l12 177q-6 19 -12 19q-23 0 -25 -139l-10 -6h-10q-17 7 -17 35v20q2 150 23 150q17 19 55 19zM401 262q53 -41 76 -86q32 -70 32 -135v-4h-8q-30 78 -106 149h-7q-8 -3 -30 -37l-2 -2h-3q-4 0 -4 7
q0 58 39 106l2 2h11z" />
    <glyph glyph-name="sasapabali" unicode="&#x1b31;" horiz-adv-x="700" 
d="M114 442h5q38 0 46 -46l-11 -237q0 -87 195 -87l39 5l60 -96q0 -9 -99 -18q-176 0 -219 73q-25 41 -35 114l10 228l-5 14h-11l-14 -164l-5 -5h-11q-14 5 -14 27v110q0 82 69 82zM543 442q87 0 99 -196v-123q0 -151 -30 -151h-9l-16 14v164l5 27q-11 133 -30 133h-10
l-5 -23v-105q0 -128 -50 -169h-9l-30 82q39 30 39 133l-14 150q12 64 60 64zM329 196q101 -49 154 -206l9 -50h-9q-47 127 -154 210l-35 -32h-5q16 78 40 78z" />
    <glyph glyph-name="sabali" unicode="&#x1b32;" horiz-adv-x="691" 
d="M546 445h16q79 0 79 -125v-112q0 -191 -21 -191h-12q-9 2 -17 21l4 278q-5 67 -20 67l-4 -13l12 -141q-15 -208 -103 -208l-29 -4h-29q-57 0 -120 104q-40 37 -62 37h-21l-17 -16q91 -38 91 -79v-17q0 -43 -62 -50h-20q-102 0 -137 104v25q0 83 128 162q29 36 29 54v4
q0 29 -33 29q-67 0 -103 -108v-29l-13 -12h-8q-29 17 -29 50v12q0 129 166 150h29q66 0 66 -63v-12q-25 -137 -100 -137q-74 -19 -74 -71q0 -40 70 -100h21v4q0 30 -62 59l-13 37q0 58 100 58q59 0 145 -100q19 -11 53 -16q92 0 92 141v8q0 68 -38 192q16 8 46 8z" />
    <glyph glyph-name="habali" unicode="&#x1b33;" horiz-adv-x="883" 
d="M506 442q121 0 144 -67q12 -33 12 -71l-2 -214q0 -16 11 -25h2q18 0 18 37l2 61v29l-8 177q0 69 64 69h9q75 0 75 -167v-6q0 -263 -19 -263l-8 -2h-9q-18 9 -18 39l4 140v21q0 163 -30 163h-4q-10 0 -12 -31l8 -208q0 -126 -45 -126l-23 -2h-4q-54 0 -75 39l-5 24l2 190
q0 64 -27 85q-18 10 -62 14q-58 0 -69 -38v-9l6 -136q0 -116 -55 -151q-37 -14 -86 -14h-24q-140 0 -168 69q-8 34 -11 63q5 72 26 218q-4 25 -11 25h-6q-13 0 -27 -108q-8 -6 -15 -6q-21 0 -21 32v33q0 114 84 114q67 0 67 -55v-2l-20 -210q4 -83 36 -83q0 -9 86 -13
q65 0 65 29q11 17 11 75l-11 147q0 114 143 114z" />
    <glyph glyph-name="signrerekancombbali" unicode="&#x1b34;" 
d="M-573 530q-62 0 -62 51q0 18 8 43q19 -47 101 -47l25 1q-29 -44 -63 -47zM-413 530q-62 0 -62 51q0 18 8 43q19 -47 101 -47l25 1q-29 -44 -63 -47zM-513 640q-62 0 -62 51q0 18 8 43q19 -47 101 -47l25 1q-29 -44 -63 -47z" />
    <glyph glyph-name="vowelsigntedungbali" unicode="&#x1b35;" horiz-adv-x="488" 
d="M227 440h9q164 0 216 -139q15 -41 15 -90v-8q0 -153 -130 -212l-51 -6h-7q-74 0 -94 47v16q7 44 44 44h10q21 0 49 -42q10 -8 22 -8q55 0 86 67q10 25 10 64q0 125 -138 160l-32 3h-24q-96 0 -155 -84q-23 -40 -54 -128h-2q-7 0 -7 22v15q0 157 67 210q60 69 166 69z" />
    <glyph glyph-name="vowelsignulucombbali" unicode="&#x1b36;" 
d="M-341 908h2q133 0 181 -121q10 -25 10 -62v-6q0 -104 -92 -187l-10 -1h-2q-6 2 -6 11q0 14 49 88q19 42 19 80q0 85 -103 121q-32 7 -53 7q-93 0 -122 -81q-5 -18 -5 -27v-13q0 -25 43 -96q14 -31 14 -48v-5q0 -39 -38 -39h-5q-66 0 -118 89q-16 43 -16 79v5q0 71 40 146
l8 6h4q7 -2 7 -11q-21 -83 -21 -113v-23q0 -48 39 -99q10 -9 20 -9h5q3 0 6 7q0 11 -37 74q-9 27 -9 55v2q0 102 91 153q44 18 99 18z" />
    <glyph glyph-name="vowelsignulusaricombbali" unicode="&#x1b37;" 
d="M-364 788q14 0 50 -56q39 -76 39 -140q-2 -18 -5 -18q0 2 -13 31q-14 34 -42 74q-9 18 -29 37q-2 2 -4 2q-7 0 -22 -30q-5 -9 -9 -9q-2 4 -2 9q0 37 21 81q9 19 16 19zM-341 908h2q133 0 181 -121q10 -25 10 -62v-6q0 -104 -92 -187l-10 -1h-2q-6 2 -6 11q0 14 49 88
q19 42 19 80q0 85 -103 121q-32 7 -53 7q-93 0 -122 -81q-5 -18 -5 -27v-13q0 -25 43 -96q14 -31 14 -48v-5q0 -39 -38 -39h-5q-66 0 -118 89q-16 43 -16 79v5q0 71 40 146l8 6h4q7 -2 7 -11q-21 -83 -21 -113v-23q0 -48 39 -99q10 -9 20 -9h5q3 0 6 7q0 11 -37 74
q-9 27 -9 55v2q0 102 91 153q44 18 99 18z" />
    <glyph glyph-name="vowelsignsukucombbali" unicode="&#x1b38;" 
d="M-78 1h18l5 -5q-9 -97 -110 -354q-125 -236 -152 -297l-3 -11q0 -27 28 -27h5q79 0 145 196q28 83 51 261q5 93 18 93q16 0 23 -147v-19q0 -250 -125 -428q-64 -68 -130 -68h-12q-97 11 -97 93v8q0 78 135 272q138 222 165 395q5 35 18 35z" />
    <glyph glyph-name="vowelsignsukuilutcombbali" unicode="&#x1b39;" 
d="M-79 -32l8 -11q-97 -106 -97 -156q0 -36 81 -61q95 -46 95 -122q0 -127 -122 -345q-54 -77 -89 -77q-53 0 -68 101l-3 34v16q0 139 46 178h3q8 0 16 -27l-11 -140v-5q7 -93 30 -93q63 0 130 281l3 34v8q0 57 -95 93q-79 44 -79 93q0 88 128 188q16 11 24 11z" />
    <glyph glyph-name="vowelsignrarepacombbali" unicode="&#x1b3a;" 
d="M-73 -769q-78 153 -163 209l-49 -50l-13 6l43 154q71 -28 122 -120t77 -190zM-79 0h9q25 -1 20 -167l-2 -109q-8 -340 -128 -426q-116 -106 -288 -103l-23 1q-196 4 -306 185q-46 105 -43 226v12q4 188 110 252l20 6l2 -10q-79 -118 -83 -249l3 -12v-9q-5 -191 178 -264
q60 -17 120 -19h36q227 -5 306 165q46 99 51 315v122q2 84 18 84z" />
    <glyph glyph-name="vowelsignrarepatedungbali" unicode="&#x1b3b;" horiz-adv-x="488" 
d="M227 440h9q164 0 216 -139q15 -41 15 -90v-8q0 -153 -130 -212l-51 -6h-7q-74 0 -94 47v16q7 44 44 44h10q21 0 49 -42q10 -8 22 -8q55 0 86 67q10 25 10 64q0 125 -138 160l-32 3h-24q-96 0 -155 -84q-23 -40 -54 -128h-2q-7 0 -7 22v15q0 157 67 210q60 69 166 69z
M-73 -769q-78 153 -163 209l-49 -50l-13 6l43 154q71 -28 122 -120t77 -190zM-79 0h9q25 -1 20 -167l-2 -109q-8 -340 -128 -426q-116 -106 -288 -103l-23 1q-196 4 -306 185q-46 105 -43 226v12q4 188 110 252l20 6l2 -10q-79 -118 -83 -249l3 -12v-9q-5 -191 178 -264
q60 -17 120 -19h36q227 -5 306 165q46 99 51 315v122q2 84 18 84z" />
    <glyph glyph-name="vowelsignlalengacombbali" unicode="&#x1b3c;" 
d="M-696 -95q76 0 76 -63v-15l-29 -172l-6 -97q6 -44 13 -44h8q7 16 14 212q24 171 89 171q16 2 36 2h23q93 0 109 -49q4 -10 9 -59q-5 -50 -5 -146q0 -65 52 -87q25 -8 64 -8h20q91 0 91 27q20 23 20 85q0 53 -2 171l-2 5q2 3 2 8v17q3 42 33 42h10q21 -6 21 -63v-185
q0 -142 -66 -183q-35 -19 -107 -19h-37q-110 0 -134 59q-22 41 -22 199q-7 70 -66 70h-2q-57 0 -76 -49q-17 -61 -17 -228q-7 -51 -57 -51h-2q-56 0 -56 82q0 33 -4 38q0 16 14 204q-5 31 -16 31q-23 0 -23 -40q0 -19 2 -69q0 -42 -26 -42h-4q-21 0 -21 23v109q0 110 51 110
q0 3 23 4zM-45 903h17q148 0 228 -92l3 -16v-7q0 -42 -155 -69q-264 -81 -315 -81q-11 3 -11 7v6q31 36 250 99q77 27 78 36v9q0 20 -110 33h-6q-137 0 -242 -100q-36 -44 -36 -79q0 -14 28 -99v-9q0 -22 -47 -29h-5q-98 0 -138 99q-5 22 -5 40q0 2 5 59v7l-27 -9
q-13 3 -14 9v4q0 29 67 43h12q21 0 21 -20q-16 -73 -16 -84q0 -71 71 -101h10v6q-34 61 -34 93v11q0 105 160 192q102 42 211 42z" />
    <glyph glyph-name="vowelsignlalengatedungbali" unicode="&#x1b3d;" horiz-adv-x="488" 
d="M-696 -95q76 0 76 -63v-15l-29 -172l-6 -97q6 -44 13 -44h8q7 16 14 212q24 171 89 171q16 2 36 2h23q93 0 109 -49q4 -10 9 -59q-5 -50 -5 -146q0 -65 52 -87q25 -8 64 -8h20q91 0 91 27q20 23 20 85q0 53 -2 171l-2 5q2 3 2 8v17q3 42 33 42h10q21 -6 21 -63v-185
q0 -142 -66 -183q-35 -19 -107 -19h-37q-110 0 -134 59q-22 41 -22 199q-7 70 -66 70h-2q-57 0 -76 -49q-17 -61 -17 -228q-7 -51 -57 -51h-2q-56 0 -56 82q0 33 -4 38q0 16 14 204q-5 31 -16 31q-23 0 -23 -40q0 -19 2 -69q0 -42 -26 -42h-4q-21 0 -21 23v109q0 110 51 110
q0 3 23 4zM-45 903h17q148 0 228 -92l3 -16v-7q0 -42 -155 -69q-264 -81 -315 -81q-11 3 -11 7v6q31 36 250 99q77 27 78 36v9q0 20 -110 33h-6q-137 0 -242 -100q-36 -44 -36 -79q0 -14 28 -99v-9q0 -22 -47 -29h-5q-98 0 -138 99q-5 22 -5 40q0 2 5 59v7l-27 -9
q-13 3 -14 9v4q0 29 67 43h12q21 0 21 -20q-16 -73 -16 -84q0 -71 71 -101h10v6q-34 61 -34 93v11q0 105 160 192q102 42 211 42zM227 440h9q164 0 216 -139q15 -41 15 -90v-8q0 -153 -130 -212l-51 -6h-7q-74 0 -94 47v16q7 44 44 44h10q21 0 49 -42q10 -8 22 -8
q55 0 86 67q10 25 10 64q0 125 -138 160l-32 3h-24q-96 0 -155 -84q-23 -40 -54 -128h-2q-7 0 -7 22v15q0 157 67 210q60 69 166 69z" />
    <glyph glyph-name="vowelsigntalingbali" unicode="&#x1b3e;" horiz-adv-x="521" 
d="M303 442h14q109 0 146 -132q8 -47 8 -82v-18q0 -134 -70 -526q-18 -123 -18 -205q0 -103 44 -239l2 -14q-5 -25 -12 -25h-2q-40 15 -84 137q-22 83 -22 191q0 142 70 423q40 166 40 258v16q0 125 -100 125h-10q-71 0 -98 -64q-8 -21 -8 -52v-12q0 -24 32 -125v-7
q-13 -20 -26 -20h-16q-100 0 -100 130v9l6 159q0 16 -10 23h-2q-11 0 -16 -146l-8 -11h-6q-10 0 -12 34v50q0 98 20 98q0 11 44 18q42 0 42 -57v-9l-6 -141v-14q7 -100 44 -100l8 -2q-38 75 -38 139v13q0 113 68 160q36 18 76 18z" />
    <glyph glyph-name="vowelsigntalingrepabali" unicode="&#x1b3f;" horiz-adv-x="521" 
d="M303 442h14q109 0 146 -132q8 -47 8 -82v-18q0 -134 -70 -526q-18 -123 -18 -205q0 -103 44 -239l2 -14q-5 -25 -12 -25h-2q-40 15 -84 137q-22 83 -22 191q0 142 70 423q40 166 40 258v16q0 125 -100 125h-10q-71 0 -98 -64q-8 -21 -8 -52v-12q0 -24 32 -125v-7
q-13 -20 -26 -20h-16q-100 0 -100 130v9l6 159q0 16 -10 23h-2q-11 0 -16 -146l-8 -11h-6q-10 0 -12 34v50q0 98 20 98q0 11 44 18q42 0 42 -57v-9l-6 -141v-14q7 -100 44 -100l8 -2q-38 75 -38 139v13q0 113 68 160q36 18 76 18zM248 848q71 0 112 -74l-12 -4
q-57 33 -100 33q-37 -7 -37 -33q0 -29 157 -78q46 -33 46 -70q0 -98 -104 -98q-128 0 -174 107v8l8 8q74 -58 150 -66q49 0 62 41q0 29 -141 70q-54 30 -54 86q0 60 83 70h4z" />
    <glyph glyph-name="vowelsigntalingtedungbali" unicode="&#x1b40;" horiz-adv-x="1458" 
d="M928 419q0 -24 -24 -24q-25 0 -25 24t25 24q24 0 24 -24zM855 467q0 -24 -23 -24q-26 0 -26 24q0 25 26 25q23 0 23 -25zM976 347q0 -25 -25 -25q-24 0 -24 25q0 24 25 24q24 0 24 -24zM993 262q0 -25 -23 -25q-25 0 -25 25q0 24 25 24q23 0 23 -24zM770 485
q0 -25 -24 -25q-25 0 -25 25q0 24 25 24q24 0 24 -24zM686 467q0 -24 -25 -24q-24 0 -24 24q0 25 24 25q25 0 25 -25zM976 177q0 -24 -25 -24q-24 0 -24 24q0 25 24 25q25 0 25 -25zM614 419q0 -24 -25 -24q-24 0 -24 22q0 26 24 26q25 0 25 -24zM928 104q0 -24 -24 -24
q-25 0 -25 24t25 24q24 0 24 -24zM855 56q0 -24 -23 -24q-26 0 -26 24q0 25 26 25q23 0 23 -25zM565 347q0 -25 -23 -25q-26 0 -26 25q0 24 25 24q24 0 24 -24zM548 262q0 -25 -24 -25q-25 0 -25 25q0 24 25 24q24 0 24 -24zM770 40q0 -25 -24 -25q-25 0 -25 25q0 23 25 23
q24 0 24 -23zM565 177q0 -24 -24 -24q-25 0 -25 24q0 25 25 25q24 0 24 -25zM686 58q0 -26 -25 -26q-24 0 -24 24q0 25 24 25q25 0 25 -23zM614 104q0 -24 -25 -24q-24 0 -24 24t24 24q25 0 25 -24zM1238 440h9q164 0 216 -139q15 -41 15 -90v-8q0 -153 -130 -212l-51 -6h-7
q-74 0 -94 47v16q7 44 44 44h10q21 0 49 -42q10 -8 22 -8q55 0 86 67q10 25 10 64q0 125 -138 160l-32 3h-24q-96 0 -155 -84q-23 -40 -54 -128h-2q-7 0 -7 22v15q0 157 67 210q60 69 166 69zM303 442h14q109 0 146 -132q8 -47 8 -82v-18q0 -134 -70 -526q-18 -123 -18 -205
q0 -103 44 -239l2 -14q-5 -25 -12 -25h-2q-40 15 -84 137q-22 83 -22 191q0 142 70 423q40 166 40 258v16q0 125 -100 125h-10q-71 0 -98 -64q-8 -21 -8 -52v-12q0 -24 32 -125v-7q-13 -20 -26 -20h-16q-100 0 -100 130v9l6 159q0 16 -10 23h-2q-11 0 -16 -146l-8 -11h-6
q-10 0 -12 34v50q0 98 20 98q0 11 44 18q42 0 42 -57v-9l-6 -141v-14q7 -100 44 -100l8 -2q-38 75 -38 139v13q0 113 68 160q36 18 76 18z" />
    <glyph glyph-name="vowelsigntalingrepatedungbali" unicode="&#x1b41;" horiz-adv-x="1458" 
d="M303 442h14q109 0 146 -132q8 -47 8 -82v-18q0 -134 -70 -526q-18 -123 -18 -205q0 -103 44 -239l2 -14q-5 -25 -12 -25h-2q-40 15 -84 137q-22 83 -22 191q0 142 70 423q40 166 40 258v16q0 125 -100 125h-10q-71 0 -98 -64q-8 -21 -8 -52v-12q0 -24 32 -125v-7
q-13 -20 -26 -20h-16q-100 0 -100 130v9l6 159q0 16 -10 23h-2q-11 0 -16 -146l-8 -11h-6q-10 0 -12 34v50q0 98 20 98q0 11 44 18q42 0 42 -57v-9l-6 -141v-14q7 -100 44 -100l8 -2q-38 75 -38 139v13q0 113 68 160q36 18 76 18zM928 419q0 -24 -24 -24q-25 0 -25 24t25 24
q24 0 24 -24zM855 467q0 -24 -23 -24q-26 0 -26 24q0 25 26 25q23 0 23 -25zM976 347q0 -25 -25 -25q-24 0 -24 25q0 24 25 24q24 0 24 -24zM993 262q0 -25 -23 -25q-25 0 -25 25q0 24 25 24q23 0 23 -24zM770 485q0 -25 -24 -25q-25 0 -25 25q0 24 25 24q24 0 24 -24z
M686 467q0 -24 -25 -24q-24 0 -24 24q0 25 24 25q25 0 25 -25zM976 177q0 -24 -25 -24q-24 0 -24 24q0 25 24 25q25 0 25 -25zM614 419q0 -24 -25 -24q-24 0 -24 22q0 26 24 26q25 0 25 -24zM928 104q0 -24 -24 -24q-25 0 -25 24t25 24q24 0 24 -24zM855 56q0 -24 -23 -24
q-26 0 -26 24q0 25 26 25q23 0 23 -25zM565 347q0 -25 -23 -25q-26 0 -26 25q0 24 25 24q24 0 24 -24zM548 262q0 -25 -24 -25q-25 0 -25 25q0 24 25 24q24 0 24 -24zM770 40q0 -25 -24 -25q-25 0 -25 25q0 23 25 23q24 0 24 -23zM565 177q0 -24 -24 -24q-25 0 -25 24
q0 25 25 25q24 0 24 -25zM686 58q0 -26 -25 -26q-24 0 -24 24q0 25 24 25q25 0 25 -23zM614 104q0 -24 -25 -24q-24 0 -24 24t24 24q25 0 25 -24zM1238 440h9q164 0 216 -139q15 -41 15 -90v-8q0 -153 -130 -212l-51 -6h-7q-74 0 -94 47v16q7 44 44 44h10q21 0 49 -42
q10 -8 22 -8q55 0 86 67q10 25 10 64q0 125 -138 160l-32 3h-24q-96 0 -155 -84q-23 -40 -54 -128h-2q-7 0 -7 22v15q0 157 67 210q60 69 166 69zM248 848q71 0 112 -74l-12 -4q-57 33 -100 33q-37 -7 -37 -33q0 -29 157 -78q46 -33 46 -70q0 -98 -104 -98q-128 0 -174 107
v8l8 8q74 -58 150 -66q49 0 62 41q0 29 -141 70q-54 30 -54 86q0 60 83 70h4z" />
    <glyph glyph-name="vowelsignpepetcombbali" unicode="&#x1b42;" 
d="M-123 903h17q148 0 228 -92l3 -16v-7q0 -42 -155 -69q-264 -81 -315 -81q-11 3 -11 7v6q31 36 250 99q77 27 78 36v9q0 20 -110 33h-6q-137 0 -242 -100q-36 -44 -36 -79q0 -14 28 -99v-9q0 -22 -47 -29h-5q-98 0 -138 99q-5 22 -5 40q0 2 5 59v7l-27 -9q-13 3 -14 9v4
q0 29 67 43h12q21 0 21 -20q-16 -73 -16 -84q0 -71 71 -101h10v6q-34 61 -34 93v11q0 105 160 192q102 42 211 42z" />
    <glyph glyph-name="vowelsignpepettedungbali" unicode="&#x1b43;" horiz-adv-x="488" 
d="M-123 903h17q148 0 228 -92l3 -16v-7q0 -42 -155 -69q-264 -81 -315 -81q-11 3 -11 7v6q31 36 250 99q77 27 78 36v9q0 20 -110 33h-6q-137 0 -242 -100q-36 -44 -36 -79q0 -14 28 -99v-9q0 -22 -47 -29h-5q-98 0 -138 99q-5 22 -5 40q0 2 5 59v7l-27 -9q-13 3 -14 9v4
q0 29 67 43h12q21 0 21 -20q-16 -73 -16 -84q0 -71 71 -101h10v6q-34 61 -34 93v11q0 105 160 192q102 42 211 42zM227 440h9q164 0 216 -139q15 -41 15 -90v-8q0 -153 -130 -212l-51 -6h-7q-74 0 -94 47v16q7 44 44 44h10q21 0 49 -42q10 -8 22 -8q55 0 86 67q10 25 10 64
q0 125 -138 160l-32 3h-24q-96 0 -155 -84q-23 -40 -54 -128h-2q-7 0 -7 22v15q0 157 67 210q60 69 166 69z" />
    <glyph glyph-name="adegadegbali" unicode="&#x1b44;" horiz-adv-x="267" 
d="M-82 799h17q157 0 208 -151q17 -69 17 -121v-21q0 -184 -115 -683q-21 -143 -21 -243q0 -114 72 -381h-8q-153 147 -153 431v13q0 178 136 645q25 133 25 235q0 184 -157 184h-21q-98 0 -132 -147l-4 -46l8 -54l-4 -4h-4q-51 34 -51 104q0 163 98 218q41 21 89 21z" />
    <glyph glyph-name="kafsasakbali" unicode="&#x1b45;" horiz-adv-x="962" 
d="M207 121v-4q8 -56 55 -56h4q3 0 6 6v2q0 18 -57 44q0 3 -8 8zM387 -235h-6q-121 0 -121 145q0 62 33 139.5t92 163.5l16 -9q-96 -152 -96 -263q0 -100 83 -101q66 0 110 67l16 -8q-32 -132 -127 -134zM191 442h8q59 -5 59 -41v-5q-16 -132 -42 -132q-54 -35 -54 -70v-13
q0 -29 50 -70q0 -28 46 -37h12q0 20 -71 70q-21 21 -21 37v13q0 37 75 74h30q148 0 287 -70q63 -47 63 -112q0 -67 -121 -78q-125 0 -150 169l4 4h4q49 0 67 -53q41 -41 83 -42h25l13 13q0 37 -150 91q-101 24 -167 24q-17 0 -25 -16v-4q0 -26 92 -75q37 -31 37 -62v-8
q0 -46 -71 -46q-97 0 -137 108l-4 37l37 215v5q0 24 -25 24q-33 0 -54 -132l8 -37v-4l-12 -13h-13q-29 18 -29 54v16q25 166 146 166zM545 442q153 0 192 -95l8 -108v-136l9 -50h8l4 25l-8 339q16 13 50 13q70 0 100 -83l4 -46q0 -306 -29 -306h-9q-16 7 -16 29v137l4 62
q-4 132 -29 132h-9v-256q0 -108 -58 -108h-17q-66 0 -66 112v95q-7 128 -59 128q-33 21 -91 21q-82 0 -113 -79h-4q-54 4 -54 17q19 93 62 128q53 29 121 29z" />
    <glyph glyph-name="khotsasakbali" unicode="&#x1b46;" horiz-adv-x="1504" 
d="M203 442q71 0 71 -41v-9q0 -33 -29 -120q-75 -38 -75 -87q0 -31 54 -74q0 -28 46 -37h21v4q0 8 -96 79l-8 28q0 53 91 83h21q380 -24 380 -182q0 -70 -130 -78h-4q-131 0 -158 169l4 4q54 0 75 -49q36 -46 96 -46h25l8 8v9q0 32 -154 82q-124 29 -171 29h-8
q-31 -5 -34 -16v-13q4 -11 125 -86l17 -42v-4q-9 -50 -62 -50h-17q-150 17 -150 149l37 203v13q0 21 -12 24h-4q-46 0 -67 -120v-8l8 -45l-12 -13h-4q-37 0 -42 54v8q0 131 133 174h25zM587 442q170 0 208 -108q14 -244 30 -244q34 -16 75 -16h58q50 0 50 87l-8 169
q0 68 79 100l50 4h17q141 0 141 -133v-190l-4 -4l8 -46h13q12 3 12 33v91l-4 236l4 4h63q75 0 75 -132v-33q0 -265 -21 -265h-17q-11 0 -16 33l4 178q0 131 -25 145h-13l-4 -17l4 -240q0 -103 -50 -103h-25q-70 8 -70 66v87l4 58q0 132 -63 132h-46q-32 0 -46 -37l5 -149v-4
q0 -149 -117 -149h-54q-167 0 -167 99v75q0 133 -54 153q-56 25 -104 25q-104 0 -130 -83q-62 7 -62 17q33 132 75 132q44 29 125 29z" />
    <glyph glyph-name="tzirsasakbali" unicode="&#x1b47;" horiz-adv-x="789" 
d="M277 -255h-6q-121 0 -121 145q0 62 33 139.5t92 163.5l16 -9q-96 -152 -96 -263q0 -100 83 -101q66 0 110 67l16 -8q-32 -132 -127 -134zM127 442q54 0 54 -63l-25 -195q0 -100 119 -100h16q91 0 91 45q0 38 -91 42h-53q-12 0 -12 67q0 204 172 204h12q181 0 181 -225
v-38q0 -51 -12 -125l12 -8q19 0 25 125v50q0 50 -49 208v5l24 8h4q110 0 136 -83l8 -92q0 -271 -29 -271h-8q-12 3 -20 29l12 204q0 130 -45 130l-4 -5v-8q20 -79 20 -158q0 -192 -66 -192h-20q-45 0 -45 54l12 125v17q-13 129 -99 129l-57 4h-29q-74 0 -74 -46v-20
q0 -11 99 -25q49 -34 49 -80v-25q0 -129 -140 -129h-32q-152 0 -152 134v12l16 188l-4 12h-8q-17 0 -29 -121l-12 -8h-13q-16 7 -16 29q0 196 62 196h20z" />
    <glyph glyph-name="efsasakbali" unicode="&#x1b48;" horiz-adv-x="700" 
d="M377 -255h-6q-121 0 -121 145q0 62 33 139.5t92 163.5l16 -9q-96 -152 -96 -263q0 -100 83 -101q66 0 110 67l16 -8q-32 -132 -127 -134zM104 442h15q44 0 44 -63l-8 -201v-2q0 -47 47 -60q55 -20 109 -20h28q112 0 139 39q20 29 20 90l-12 152v11q0 47 61 54
q46 0 82 -85q13 -52 13 -106v-28q0 -216 -25 -216l-13 -7q-15 0 -16 37v4l5 159q-8 120 -29 120h-9q-5 0 -10 -19l2 -88q0 -151 -71 -189q-40 -28 -124 -28h-25q-161 0 -201 75q-28 48 -28 114l1 13v21l7 152q0 19 -12 28h-1q-13 0 -19 -152l-6 -9l-3 -2h-7q-13 6 -13 34v56
q0 78 13 92q25 22 46 24z" />
    <glyph glyph-name="vesasakbali" unicode="&#x1b49;" horiz-adv-x="603" 
d="M377 -255h-6q-121 0 -121 145q0 62 33 139.5t92 163.5l16 -9q-96 -152 -96 -263q0 -100 83 -101q66 0 110 67l16 -8q-32 -132 -127 -134zM474 441h13q155 0 155 -198v-24q0 -213 -24 -213l-11 -6q-18 0 -18 46l5 144q0 176 -112 176h-6q-4 0 -7 -8q0 -5 44 -36
q40 -45 40 -105v-11q0 -148 -79 -189q-42 -21 -109 -21h-23q-149 0 -189 60q-35 45 -35 115l6 110q-3 39 -11 39h-3q-23 0 -33 -122l-6 -4h-12q-14 8 -14 34v19q0 140 58 173q23 8 44 8q32 -5 32 -41l1 -13l-14 -180v-17q0 -47 52 -64q54 -19 103 -19h31q108 0 135 42
q13 20 13 54v4q0 84 -44 107q-26 17 -117 34l-4 2v2q0 46 63 87q35 15 76 15z" />
    <glyph glyph-name="zalsasakbali" unicode="&#x1b4a;" horiz-adv-x="691" 
d="M377 -255h-6q-121 0 -121 145q0 62 33 139.5t92 163.5l16 -9q-96 -152 -96 -263q0 -100 83 -101q66 0 110 67l16 -8q-32 -132 -127 -134zM546 445h16q79 0 79 -125v-112q0 -191 -21 -191h-12q-9 2 -17 21l4 278q-5 67 -20 67l-4 -13l12 -141q-15 -208 -103 -208l-29 -4
h-29q-57 0 -120 104q-40 37 -62 37h-21l-17 -16q91 -38 91 -79v-17q0 -43 -62 -50h-20q-102 0 -137 104v25q0 83 128 162q29 36 29 54v4q0 29 -33 29q-67 0 -103 -108v-29l-13 -12h-8q-29 17 -29 50v12q0 129 166 150h29q66 0 66 -63v-12q-25 -137 -100 -137
q-74 -19 -74 -71q0 -40 70 -100h21v4q0 30 -62 59l-13 37q0 58 100 58q59 0 145 -100q19 -11 53 -16q92 0 92 141v8q0 68 -38 192q16 8 46 8z" />
    <glyph glyph-name="asyurasasakbali" unicode="&#x1b4b;" horiz-adv-x="1403" 
d="M610 445h16q96 0 96 -112l4 -191q0 -50 95 -50q70 0 96 124q16 52 37 200l17 12h4q38 0 38 -70q22 -241 78 -262q0 -9 38 -13h12q75 0 75 96v21l-33 233l45 8q78 0 104 -63q21 -69 21 -157v-59q0 -154 -37 -154h-13l-12 9l8 174q-7 159 -37 167h-5l-8 -9q21 -114 21 -170
v-13q0 -162 -129 -162h-8q-154 0 -154 233h-8q0 -76 -54 -187q-41 -42 -112 -42q-133 0 -133 129v158q0 88 -25 88l-4 -13l12 -120v-29q-20 -200 -112 -200l-33 -4h-29q-80 0 -133 95q-53 46 -79 46h-29l-16 -16q103 -35 103 -84v-12q0 -50 -79 -50h-12q-130 0 -162 121v4
q0 82 154 170q29 32 29 50v17q0 13 -46 16q-116 -38 -116 -149h-8q-38 0 -42 50v8q0 132 183 154h33q83 0 83 -75q0 -66 -83 -133q-112 -11 -112 -67v-20q0 -25 66 -84l29 -4h4v13q0 17 -70 50q-17 22 -17 41q0 47 104 54h13q67 0 157 -100l71 -16q83 0 100 112v42
q0 70 -42 178v5q0 12 46 12z" />
    <glyph glyph-name="zerobali" unicode="&#x1b50;" horiz-adv-x="440" 
d="M225 438h6q102 0 152 -115l7 -25h-1l-36 -12q-62 55 -83 55l-26 4q-108 0 -162 -183l-28 -20l-3 37v4q0 107 82 210q45 45 92 45zM390 292q4 0 4 -37q0 -135 -108 -226q-40 -29 -78 -29q-82 0 -131 78q-21 38 -22 62v2l33 4q29 -66 96 -66q77 0 137 80q20 47 36 101z" />
    <glyph glyph-name="onebali" unicode="&#x1b51;" horiz-adv-x="932" 
d="M722 623h13q104 -32 104 -104l-22 -4h-17q-36 62 -69 62q-15 0 -30 -19q0 -29 99 -54h17q63 0 95 92h4q26 -16 26 -46v-8q0 -72 -99 -103l-35 -4q-104 0 -155 84l-4 31q10 73 73 73zM157 481q48 -6 48 -42l-31 -185l5 -23v-27q0 -146 64 -146h5q-61 112 -61 196
q0 176 147 215l34 4q91 0 121 -104v-11h9q40 107 116 107h43q113 0 147 -180v-23q0 -105 -78 -208v-4h5q90 26 90 231v19l-8 119l56 16l4 -4l4 -123v-12q0 -230 -56 -272q-32 -35 -103 -35h-13q-52 0 -52 46q4 16 73 123q18 45 18 85q-19 100 -130 100q-69 0 -120 -93h-5
q-18 10 -56 69q-35 31 -69 31q-103 0 -116 -107q0 -62 82 -196v-16q0 -38 -82 -38q-134 0 -134 177l13 207l-4 19h-5q-17 0 -21 -134q-13 -16 -26 -16q-26 0 -26 73q0 162 86 162h26z" />
    </font>
</defs>
</svg>
